G75*
%MOIN*%
%OFA0B0*%
%FSLAX25Y25*%
%IPPOS*%
%LPD*%
%AMOC8*
5,1,8,0,0,1.08239X$1,22.5*
%
%ADD10C,0.09512*%
%ADD11R,0.07480X0.07480*%
%ADD12C,0.07480*%
%ADD13C,0.01000*%
D10*
X0027409Y0022000D03*
X0027409Y0042000D03*
X0027409Y0060000D03*
X0027409Y0080000D03*
X0053000Y0080000D03*
X0053000Y0060000D03*
X0053000Y0042000D03*
X0074000Y0054000D03*
X0094000Y0054000D03*
X0053000Y0022000D03*
D11*
X0107000Y0013000D03*
D12*
X0097000Y0013000D03*
X0087000Y0013000D03*
X0077000Y0013000D03*
D13*
X0002900Y0002900D02*
X0002900Y0098525D01*
X0118210Y0098525D01*
X0118210Y0002900D01*
X0002900Y0002900D01*
X0002900Y0003497D02*
X0118210Y0003497D01*
X0118210Y0004496D02*
X0002900Y0004496D01*
X0002900Y0005494D02*
X0118210Y0005494D01*
X0118210Y0006493D02*
X0002900Y0006493D01*
X0002900Y0007491D02*
X0118210Y0007491D01*
X0118210Y0008490D02*
X0111667Y0008490D01*
X0111940Y0008763D02*
X0111940Y0017237D01*
X0111237Y0017940D01*
X0102763Y0017940D01*
X0102060Y0017237D01*
X0102060Y0008763D01*
X0102763Y0008060D01*
X0111237Y0008060D01*
X0111940Y0008763D01*
X0111940Y0009488D02*
X0118210Y0009488D01*
X0118210Y0010487D02*
X0111940Y0010487D01*
X0111940Y0011485D02*
X0118210Y0011485D01*
X0118210Y0012484D02*
X0111940Y0012484D01*
X0111940Y0013482D02*
X0118210Y0013482D01*
X0118210Y0014481D02*
X0111940Y0014481D01*
X0111940Y0015479D02*
X0118210Y0015479D01*
X0118210Y0016478D02*
X0111940Y0016478D01*
X0111701Y0017476D02*
X0118210Y0017476D01*
X0118210Y0018475D02*
X0057898Y0018475D01*
X0058049Y0018626D02*
X0058956Y0020815D01*
X0058956Y0023185D01*
X0058049Y0025374D01*
X0056374Y0027049D01*
X0054185Y0027956D01*
X0051815Y0027956D01*
X0049626Y0027049D01*
X0047951Y0025374D01*
X0047044Y0023185D01*
X0047044Y0020815D01*
X0047951Y0018626D01*
X0049626Y0016951D01*
X0051815Y0016044D01*
X0054185Y0016044D01*
X0056374Y0016951D01*
X0058049Y0018626D01*
X0058400Y0019473D02*
X0118210Y0019473D01*
X0118210Y0020472D02*
X0058814Y0020472D01*
X0058956Y0021470D02*
X0118210Y0021470D01*
X0118210Y0022469D02*
X0058956Y0022469D01*
X0058839Y0023467D02*
X0118210Y0023467D01*
X0118210Y0024466D02*
X0058425Y0024466D01*
X0057959Y0025464D02*
X0118210Y0025464D01*
X0118210Y0026463D02*
X0056960Y0026463D01*
X0055379Y0027461D02*
X0118210Y0027461D01*
X0118210Y0028460D02*
X0002900Y0028460D01*
X0002900Y0029458D02*
X0118210Y0029458D01*
X0118210Y0030457D02*
X0002900Y0030457D01*
X0002900Y0031455D02*
X0118210Y0031455D01*
X0118210Y0032454D02*
X0002900Y0032454D01*
X0002900Y0033452D02*
X0118210Y0033452D01*
X0118210Y0034451D02*
X0002900Y0034451D01*
X0002900Y0035449D02*
X0118210Y0035449D01*
X0118210Y0036448D02*
X0055160Y0036448D01*
X0054185Y0036044D02*
X0056374Y0036951D01*
X0058049Y0038626D01*
X0058956Y0040815D01*
X0058956Y0043185D01*
X0058049Y0045374D01*
X0056374Y0047049D01*
X0054185Y0047956D01*
X0051815Y0047956D01*
X0049626Y0047049D01*
X0047951Y0045374D01*
X0047044Y0043185D01*
X0047044Y0040815D01*
X0047951Y0038626D01*
X0049626Y0036951D01*
X0051815Y0036044D01*
X0054185Y0036044D01*
X0056869Y0037446D02*
X0118210Y0037446D01*
X0118210Y0038445D02*
X0057868Y0038445D01*
X0058388Y0039443D02*
X0118210Y0039443D01*
X0118210Y0040442D02*
X0058801Y0040442D01*
X0058956Y0041440D02*
X0118210Y0041440D01*
X0118210Y0042439D02*
X0058956Y0042439D01*
X0058851Y0043437D02*
X0118210Y0043437D01*
X0118210Y0044436D02*
X0058438Y0044436D01*
X0057988Y0045434D02*
X0118210Y0045434D01*
X0118210Y0046433D02*
X0056990Y0046433D01*
X0055451Y0047432D02*
X0118210Y0047432D01*
X0118210Y0048430D02*
X0096848Y0048430D01*
X0097279Y0048649D02*
X0096401Y0048202D01*
X0095465Y0047898D01*
X0094500Y0047745D01*
X0094500Y0053500D01*
X0094500Y0054500D01*
X0093500Y0054500D01*
X0093500Y0060255D01*
X0092535Y0060102D01*
X0091599Y0059798D01*
X0090721Y0059351D01*
X0089925Y0058772D01*
X0089228Y0058075D01*
X0088649Y0057279D01*
X0088202Y0056401D01*
X0087898Y0055465D01*
X0087745Y0054500D01*
X0093500Y0054500D01*
X0093500Y0053500D01*
X0087745Y0053500D01*
X0087898Y0052535D01*
X0088202Y0051599D01*
X0088649Y0050721D01*
X0089228Y0049925D01*
X0089925Y0049228D01*
X0090721Y0048649D01*
X0091599Y0048202D01*
X0092535Y0047898D01*
X0093500Y0047745D01*
X0093500Y0053500D01*
X0094500Y0053500D01*
X0100255Y0053500D01*
X0100102Y0052535D01*
X0099798Y0051599D01*
X0099351Y0050721D01*
X0098772Y0049925D01*
X0098075Y0049228D01*
X0097279Y0048649D01*
X0098276Y0049429D02*
X0118210Y0049429D01*
X0118210Y0050427D02*
X0099137Y0050427D01*
X0099709Y0051426D02*
X0118210Y0051426D01*
X0118210Y0052424D02*
X0100066Y0052424D01*
X0100242Y0053423D02*
X0118210Y0053423D01*
X0118210Y0054421D02*
X0094500Y0054421D01*
X0094500Y0054500D02*
X0100255Y0054500D01*
X0100102Y0055465D01*
X0099798Y0056401D01*
X0099351Y0057279D01*
X0098772Y0058075D01*
X0098075Y0058772D01*
X0097279Y0059351D01*
X0096401Y0059798D01*
X0095465Y0060102D01*
X0094500Y0060255D01*
X0094500Y0054500D01*
X0094500Y0055420D02*
X0093500Y0055420D01*
X0093500Y0056418D02*
X0094500Y0056418D01*
X0094500Y0057417D02*
X0093500Y0057417D01*
X0093500Y0058415D02*
X0094500Y0058415D01*
X0094500Y0059414D02*
X0093500Y0059414D01*
X0090845Y0059414D02*
X0077155Y0059414D01*
X0077279Y0059351D02*
X0076401Y0059798D01*
X0075465Y0060102D01*
X0074500Y0060255D01*
X0074500Y0054500D01*
X0073500Y0054500D01*
X0073500Y0060255D01*
X0072535Y0060102D01*
X0071599Y0059798D01*
X0070721Y0059351D01*
X0069925Y0058772D01*
X0069228Y0058075D01*
X0068649Y0057279D01*
X0068202Y0056401D01*
X0067898Y0055465D01*
X0067745Y0054500D01*
X0073500Y0054500D01*
X0073500Y0053500D01*
X0067745Y0053500D01*
X0067898Y0052535D01*
X0068202Y0051599D01*
X0068649Y0050721D01*
X0069228Y0049925D01*
X0069925Y0049228D01*
X0070721Y0048649D01*
X0071599Y0048202D01*
X0072535Y0047898D01*
X0073500Y0047745D01*
X0073500Y0053500D01*
X0074500Y0053500D01*
X0074500Y0054500D01*
X0080255Y0054500D01*
X0080102Y0055465D01*
X0079798Y0056401D01*
X0079351Y0057279D01*
X0078772Y0058075D01*
X0078075Y0058772D01*
X0077279Y0059351D01*
X0078432Y0058415D02*
X0089568Y0058415D01*
X0088750Y0057417D02*
X0079250Y0057417D01*
X0079789Y0056418D02*
X0088211Y0056418D01*
X0087891Y0055420D02*
X0080109Y0055420D01*
X0080255Y0053500D02*
X0074500Y0053500D01*
X0074500Y0047745D01*
X0075465Y0047898D01*
X0076401Y0048202D01*
X0077279Y0048649D01*
X0078075Y0049228D01*
X0078772Y0049925D01*
X0079351Y0050721D01*
X0079798Y0051599D01*
X0080102Y0052535D01*
X0080255Y0053500D01*
X0080242Y0053423D02*
X0087758Y0053423D01*
X0087934Y0052424D02*
X0080066Y0052424D01*
X0079709Y0051426D02*
X0088291Y0051426D01*
X0088863Y0050427D02*
X0079137Y0050427D01*
X0078276Y0049429D02*
X0089724Y0049429D01*
X0091152Y0048430D02*
X0076848Y0048430D01*
X0074500Y0048430D02*
X0073500Y0048430D01*
X0073500Y0049429D02*
X0074500Y0049429D01*
X0074500Y0050427D02*
X0073500Y0050427D01*
X0073500Y0051426D02*
X0074500Y0051426D01*
X0074500Y0052424D02*
X0073500Y0052424D01*
X0073500Y0053423D02*
X0074500Y0053423D01*
X0074500Y0054421D02*
X0093500Y0054421D01*
X0093500Y0053423D02*
X0094500Y0053423D01*
X0094500Y0052424D02*
X0093500Y0052424D01*
X0093500Y0051426D02*
X0094500Y0051426D01*
X0094500Y0050427D02*
X0093500Y0050427D01*
X0093500Y0049429D02*
X0094500Y0049429D01*
X0094500Y0048430D02*
X0093500Y0048430D01*
X0100109Y0055420D02*
X0118210Y0055420D01*
X0118210Y0056418D02*
X0099789Y0056418D01*
X0099250Y0057417D02*
X0118210Y0057417D01*
X0118210Y0058415D02*
X0098432Y0058415D01*
X0097155Y0059414D02*
X0118210Y0059414D01*
X0118210Y0060412D02*
X0058956Y0060412D01*
X0058956Y0061185D02*
X0058049Y0063374D01*
X0056374Y0065049D01*
X0054185Y0065956D01*
X0051815Y0065956D01*
X0049626Y0065049D01*
X0047951Y0063374D01*
X0047044Y0061185D01*
X0047044Y0058815D01*
X0047951Y0056626D01*
X0049626Y0054951D01*
X0051815Y0054044D01*
X0054185Y0054044D01*
X0056374Y0054951D01*
X0058049Y0056626D01*
X0058956Y0058815D01*
X0058956Y0061185D01*
X0058862Y0061411D02*
X0118210Y0061411D01*
X0118210Y0062409D02*
X0058449Y0062409D01*
X0058015Y0063408D02*
X0118210Y0063408D01*
X0118210Y0064406D02*
X0057017Y0064406D01*
X0055515Y0065405D02*
X0118210Y0065405D01*
X0118210Y0066403D02*
X0002900Y0066403D01*
X0002900Y0065405D02*
X0024894Y0065405D01*
X0024036Y0065049D02*
X0026225Y0065956D01*
X0028594Y0065956D01*
X0030783Y0065049D01*
X0032459Y0063374D01*
X0033365Y0061185D01*
X0033365Y0058815D01*
X0032459Y0056626D01*
X0030783Y0054951D01*
X0028594Y0054044D01*
X0026225Y0054044D01*
X0024036Y0054951D01*
X0022360Y0056626D01*
X0021454Y0058815D01*
X0021454Y0061185D01*
X0022360Y0063374D01*
X0024036Y0065049D01*
X0023393Y0064406D02*
X0002900Y0064406D01*
X0002900Y0063408D02*
X0022394Y0063408D01*
X0021961Y0062409D02*
X0002900Y0062409D01*
X0002900Y0061411D02*
X0021547Y0061411D01*
X0021454Y0060412D02*
X0002900Y0060412D01*
X0002900Y0059414D02*
X0021454Y0059414D01*
X0021619Y0058415D02*
X0002900Y0058415D01*
X0002900Y0057417D02*
X0022033Y0057417D01*
X0022568Y0056418D02*
X0002900Y0056418D01*
X0002900Y0055420D02*
X0023567Y0055420D01*
X0025315Y0054421D02*
X0002900Y0054421D01*
X0002900Y0053423D02*
X0067758Y0053423D01*
X0067934Y0052424D02*
X0002900Y0052424D01*
X0002900Y0051426D02*
X0068291Y0051426D01*
X0068863Y0050427D02*
X0002900Y0050427D01*
X0002900Y0049429D02*
X0069724Y0049429D01*
X0071152Y0048430D02*
X0002900Y0048430D01*
X0002900Y0047432D02*
X0024959Y0047432D01*
X0024036Y0047049D02*
X0026225Y0047956D01*
X0028594Y0047956D01*
X0030783Y0047049D01*
X0032459Y0045374D01*
X0033365Y0043185D01*
X0033365Y0040815D01*
X0032459Y0038626D01*
X0030783Y0036951D01*
X0028594Y0036044D01*
X0026225Y0036044D01*
X0024036Y0036951D01*
X0022360Y0038626D01*
X0021454Y0040815D01*
X0021454Y0043185D01*
X0022360Y0045374D01*
X0024036Y0047049D01*
X0023420Y0046433D02*
X0002900Y0046433D01*
X0002900Y0045434D02*
X0022421Y0045434D01*
X0021972Y0044436D02*
X0002900Y0044436D01*
X0002900Y0043437D02*
X0021558Y0043437D01*
X0021454Y0042439D02*
X0002900Y0042439D01*
X0002900Y0041440D02*
X0021454Y0041440D01*
X0021608Y0040442D02*
X0002900Y0040442D01*
X0002900Y0039443D02*
X0022022Y0039443D01*
X0022542Y0038445D02*
X0002900Y0038445D01*
X0002900Y0037446D02*
X0023540Y0037446D01*
X0025250Y0036448D02*
X0002900Y0036448D01*
X0002900Y0027461D02*
X0025031Y0027461D01*
X0024036Y0027049D02*
X0022360Y0025374D01*
X0021454Y0023185D01*
X0021454Y0020815D01*
X0022360Y0018626D01*
X0024036Y0016951D01*
X0026225Y0016044D01*
X0028594Y0016044D01*
X0030783Y0016951D01*
X0032459Y0018626D01*
X0033365Y0020815D01*
X0033365Y0023185D01*
X0032459Y0025374D01*
X0030783Y0027049D01*
X0028594Y0027956D01*
X0026225Y0027956D01*
X0024036Y0027049D01*
X0023449Y0026463D02*
X0002900Y0026463D01*
X0002900Y0025464D02*
X0022451Y0025464D01*
X0021984Y0024466D02*
X0002900Y0024466D01*
X0002900Y0023467D02*
X0021571Y0023467D01*
X0021454Y0022469D02*
X0002900Y0022469D01*
X0002900Y0021470D02*
X0021454Y0021470D01*
X0021596Y0020472D02*
X0002900Y0020472D01*
X0002900Y0019473D02*
X0022009Y0019473D01*
X0022512Y0018475D02*
X0002900Y0018475D01*
X0002900Y0017476D02*
X0023510Y0017476D01*
X0025178Y0016478D02*
X0002900Y0016478D01*
X0002900Y0015479D02*
X0072382Y0015479D01*
X0072518Y0015746D02*
X0072144Y0015012D01*
X0071889Y0014227D01*
X0071771Y0013484D01*
X0076516Y0013484D01*
X0076516Y0012516D01*
X0071771Y0012516D01*
X0071889Y0011773D01*
X0072144Y0010988D01*
X0072518Y0010254D01*
X0073003Y0009586D01*
X0073586Y0009003D01*
X0074254Y0008518D01*
X0074988Y0008144D01*
X0075773Y0007889D01*
X0076516Y0007771D01*
X0076516Y0012516D01*
X0077484Y0012516D01*
X0077484Y0007771D01*
X0078227Y0007889D01*
X0079012Y0008144D01*
X0079746Y0008518D01*
X0080414Y0009003D01*
X0080997Y0009586D01*
X0081482Y0010254D01*
X0081856Y0010988D01*
X0082111Y0011773D01*
X0082125Y0011860D01*
X0082812Y0010202D01*
X0084202Y0008812D01*
X0086017Y0008060D01*
X0087983Y0008060D01*
X0089798Y0008812D01*
X0091188Y0010202D01*
X0091940Y0012017D01*
X0091940Y0013983D01*
X0091188Y0015798D01*
X0089798Y0017188D01*
X0087983Y0017940D01*
X0086017Y0017940D01*
X0084202Y0017188D01*
X0082812Y0015798D01*
X0082125Y0014140D01*
X0082111Y0014227D01*
X0081856Y0015012D01*
X0081482Y0015746D01*
X0080997Y0016414D01*
X0080414Y0016997D01*
X0079746Y0017482D01*
X0079012Y0017856D01*
X0078227Y0018111D01*
X0077484Y0018229D01*
X0077484Y0013484D01*
X0076516Y0013484D01*
X0076516Y0018229D01*
X0075773Y0018111D01*
X0074988Y0017856D01*
X0074254Y0017482D01*
X0073586Y0016997D01*
X0073003Y0016414D01*
X0072518Y0015746D01*
X0073067Y0016478D02*
X0055231Y0016478D01*
X0056899Y0017476D02*
X0074246Y0017476D01*
X0076516Y0017476D02*
X0077484Y0017476D01*
X0077484Y0016478D02*
X0076516Y0016478D01*
X0076516Y0015479D02*
X0077484Y0015479D01*
X0077484Y0014481D02*
X0076516Y0014481D01*
X0076516Y0013482D02*
X0002900Y0013482D01*
X0002900Y0012484D02*
X0071776Y0012484D01*
X0071982Y0011485D02*
X0002900Y0011485D01*
X0002900Y0010487D02*
X0072399Y0010487D01*
X0073101Y0009488D02*
X0002900Y0009488D01*
X0002900Y0008490D02*
X0074310Y0008490D01*
X0076516Y0008490D02*
X0077484Y0008490D01*
X0077484Y0009488D02*
X0076516Y0009488D01*
X0076516Y0010487D02*
X0077484Y0010487D01*
X0077484Y0011485D02*
X0076516Y0011485D01*
X0076516Y0012484D02*
X0077484Y0012484D01*
X0080899Y0009488D02*
X0083525Y0009488D01*
X0082694Y0010487D02*
X0081601Y0010487D01*
X0082018Y0011485D02*
X0082280Y0011485D01*
X0082266Y0014481D02*
X0082029Y0014481D01*
X0081618Y0015479D02*
X0082680Y0015479D01*
X0083491Y0016478D02*
X0080933Y0016478D01*
X0079754Y0017476D02*
X0084897Y0017476D01*
X0089103Y0017476D02*
X0094897Y0017476D01*
X0094202Y0017188D02*
X0092812Y0015798D01*
X0092060Y0013983D01*
X0092060Y0012017D01*
X0092812Y0010202D01*
X0094202Y0008812D01*
X0096017Y0008060D01*
X0097983Y0008060D01*
X0099798Y0008812D01*
X0101188Y0010202D01*
X0101940Y0012017D01*
X0101940Y0013983D01*
X0101188Y0015798D01*
X0099798Y0017188D01*
X0097983Y0017940D01*
X0096017Y0017940D01*
X0094202Y0017188D01*
X0093491Y0016478D02*
X0090509Y0016478D01*
X0091320Y0015479D02*
X0092680Y0015479D01*
X0092266Y0014481D02*
X0091734Y0014481D01*
X0091940Y0013482D02*
X0092060Y0013482D01*
X0092060Y0012484D02*
X0091940Y0012484D01*
X0091720Y0011485D02*
X0092280Y0011485D01*
X0092694Y0010487D02*
X0091306Y0010487D01*
X0090475Y0009488D02*
X0093525Y0009488D01*
X0094980Y0008490D02*
X0089020Y0008490D01*
X0084980Y0008490D02*
X0079690Y0008490D01*
X0071971Y0014481D02*
X0002900Y0014481D01*
X0029641Y0016478D02*
X0050769Y0016478D01*
X0049101Y0017476D02*
X0031309Y0017476D01*
X0032307Y0018475D02*
X0048102Y0018475D01*
X0047600Y0019473D02*
X0032809Y0019473D01*
X0033223Y0020472D02*
X0047186Y0020472D01*
X0047044Y0021470D02*
X0033365Y0021470D01*
X0033365Y0022469D02*
X0047044Y0022469D01*
X0047161Y0023467D02*
X0033248Y0023467D01*
X0032835Y0024466D02*
X0047575Y0024466D01*
X0048041Y0025464D02*
X0032368Y0025464D01*
X0031370Y0026463D02*
X0049040Y0026463D01*
X0050621Y0027461D02*
X0029788Y0027461D01*
X0029569Y0036448D02*
X0050840Y0036448D01*
X0049131Y0037446D02*
X0031279Y0037446D01*
X0032277Y0038445D02*
X0048132Y0038445D01*
X0047612Y0039443D02*
X0032797Y0039443D01*
X0033211Y0040442D02*
X0047199Y0040442D01*
X0047044Y0041440D02*
X0033365Y0041440D01*
X0033365Y0042439D02*
X0047044Y0042439D01*
X0047149Y0043437D02*
X0033261Y0043437D01*
X0032847Y0044436D02*
X0047562Y0044436D01*
X0048012Y0045434D02*
X0032398Y0045434D01*
X0031399Y0046433D02*
X0049010Y0046433D01*
X0050549Y0047432D02*
X0029860Y0047432D01*
X0029504Y0054421D02*
X0050905Y0054421D01*
X0049157Y0055420D02*
X0031252Y0055420D01*
X0032250Y0056418D02*
X0048159Y0056418D01*
X0047623Y0057417D02*
X0032786Y0057417D01*
X0033200Y0058415D02*
X0047210Y0058415D01*
X0047044Y0059414D02*
X0033365Y0059414D01*
X0033365Y0060412D02*
X0047044Y0060412D01*
X0047138Y0061411D02*
X0033272Y0061411D01*
X0032858Y0062409D02*
X0047551Y0062409D01*
X0047985Y0063408D02*
X0032425Y0063408D01*
X0031426Y0064406D02*
X0048983Y0064406D01*
X0050485Y0065405D02*
X0029925Y0065405D01*
X0028594Y0074044D02*
X0026225Y0074044D01*
X0024036Y0074951D01*
X0022360Y0076626D01*
X0021454Y0078815D01*
X0021454Y0081185D01*
X0022360Y0083374D01*
X0024036Y0085049D01*
X0026225Y0085956D01*
X0028594Y0085956D01*
X0030783Y0085049D01*
X0032459Y0083374D01*
X0033365Y0081185D01*
X0033365Y0078815D01*
X0032459Y0076626D01*
X0030783Y0074951D01*
X0028594Y0074044D01*
X0029432Y0074391D02*
X0050977Y0074391D01*
X0051815Y0074044D02*
X0054185Y0074044D01*
X0056374Y0074951D01*
X0058049Y0076626D01*
X0058956Y0078815D01*
X0058956Y0081185D01*
X0058049Y0083374D01*
X0056374Y0085049D01*
X0054185Y0085956D01*
X0051815Y0085956D01*
X0049626Y0085049D01*
X0047951Y0083374D01*
X0047044Y0081185D01*
X0047044Y0078815D01*
X0047951Y0076626D01*
X0049626Y0074951D01*
X0051815Y0074044D01*
X0049187Y0075390D02*
X0031222Y0075390D01*
X0032221Y0076388D02*
X0048189Y0076388D01*
X0047636Y0077387D02*
X0032774Y0077387D01*
X0033187Y0078385D02*
X0047222Y0078385D01*
X0047044Y0079384D02*
X0033365Y0079384D01*
X0033365Y0080382D02*
X0047044Y0080382D01*
X0047125Y0081381D02*
X0033284Y0081381D01*
X0032870Y0082379D02*
X0047539Y0082379D01*
X0047955Y0083378D02*
X0032454Y0083378D01*
X0031456Y0084376D02*
X0048954Y0084376D01*
X0050413Y0085375D02*
X0029997Y0085375D01*
X0024822Y0085375D02*
X0002900Y0085375D01*
X0002900Y0086373D02*
X0118210Y0086373D01*
X0118210Y0085375D02*
X0055587Y0085375D01*
X0057046Y0084376D02*
X0118210Y0084376D01*
X0118210Y0083378D02*
X0058045Y0083378D01*
X0058461Y0082379D02*
X0118210Y0082379D01*
X0118210Y0081381D02*
X0058875Y0081381D01*
X0058956Y0080382D02*
X0118210Y0080382D01*
X0118210Y0079384D02*
X0058956Y0079384D01*
X0058778Y0078385D02*
X0118210Y0078385D01*
X0118210Y0077387D02*
X0058364Y0077387D01*
X0057811Y0076388D02*
X0118210Y0076388D01*
X0118210Y0075390D02*
X0056813Y0075390D01*
X0055023Y0074391D02*
X0118210Y0074391D01*
X0118210Y0073393D02*
X0002900Y0073393D01*
X0002900Y0074391D02*
X0025386Y0074391D01*
X0023597Y0075390D02*
X0002900Y0075390D01*
X0002900Y0076388D02*
X0022598Y0076388D01*
X0022045Y0077387D02*
X0002900Y0077387D01*
X0002900Y0078385D02*
X0021632Y0078385D01*
X0021454Y0079384D02*
X0002900Y0079384D01*
X0002900Y0080382D02*
X0021454Y0080382D01*
X0021535Y0081381D02*
X0002900Y0081381D01*
X0002900Y0082379D02*
X0021948Y0082379D01*
X0022364Y0083378D02*
X0002900Y0083378D01*
X0002900Y0084376D02*
X0023363Y0084376D01*
X0002900Y0087372D02*
X0118210Y0087372D01*
X0118210Y0088370D02*
X0002900Y0088370D01*
X0002900Y0089369D02*
X0118210Y0089369D01*
X0118210Y0090368D02*
X0002900Y0090368D01*
X0002900Y0091366D02*
X0118210Y0091366D01*
X0118210Y0092365D02*
X0002900Y0092365D01*
X0002900Y0093363D02*
X0118210Y0093363D01*
X0118210Y0094362D02*
X0002900Y0094362D01*
X0002900Y0095360D02*
X0118210Y0095360D01*
X0118210Y0096359D02*
X0002900Y0096359D01*
X0002900Y0097357D02*
X0118210Y0097357D01*
X0118210Y0098356D02*
X0002900Y0098356D01*
X0002900Y0072394D02*
X0118210Y0072394D01*
X0118210Y0071396D02*
X0002900Y0071396D01*
X0002900Y0070397D02*
X0118210Y0070397D01*
X0118210Y0069399D02*
X0002900Y0069399D01*
X0002900Y0068400D02*
X0118210Y0068400D01*
X0118210Y0067402D02*
X0002900Y0067402D01*
X0055095Y0054421D02*
X0073500Y0054421D01*
X0073500Y0055420D02*
X0074500Y0055420D01*
X0074500Y0056418D02*
X0073500Y0056418D01*
X0073500Y0057417D02*
X0074500Y0057417D01*
X0074500Y0058415D02*
X0073500Y0058415D01*
X0073500Y0059414D02*
X0074500Y0059414D01*
X0070845Y0059414D02*
X0058956Y0059414D01*
X0058790Y0058415D02*
X0069568Y0058415D01*
X0068750Y0057417D02*
X0058377Y0057417D01*
X0057841Y0056418D02*
X0068211Y0056418D01*
X0067891Y0055420D02*
X0056843Y0055420D01*
X0099103Y0017476D02*
X0102299Y0017476D01*
X0102060Y0016478D02*
X0100509Y0016478D01*
X0101320Y0015479D02*
X0102060Y0015479D01*
X0102060Y0014481D02*
X0101734Y0014481D01*
X0101940Y0013482D02*
X0102060Y0013482D01*
X0102060Y0012484D02*
X0101940Y0012484D01*
X0102060Y0011485D02*
X0101720Y0011485D01*
X0102060Y0010487D02*
X0101306Y0010487D01*
X0102060Y0009488D02*
X0100475Y0009488D01*
X0099020Y0008490D02*
X0102333Y0008490D01*
M02*
