G75*
%MOIN*%
%OFA0B0*%
%FSLAX25Y25*%
%IPPOS*%
%LPD*%
%AMOC8*
5,1,8,0,0,1.08239X$1,22.5*
%
%ADD10C,0.00800*%
D10*
X0003000Y0003000D02*
X0003000Y0012000D01*
X0024000Y0012000D01*
X0024000Y0003000D01*
X0003000Y0003000D01*
X0004986Y0005400D02*
X0007788Y0005400D01*
X0009590Y0006101D02*
X0009590Y0008903D01*
X0010290Y0009604D01*
X0012392Y0009604D01*
X0012392Y0005400D01*
X0010290Y0005400D01*
X0009590Y0006101D01*
X0007788Y0008202D02*
X0006387Y0009604D01*
X0006387Y0005400D01*
X0014194Y0006101D02*
X0014894Y0005400D01*
X0016996Y0005400D01*
X0016996Y0009604D01*
X0014894Y0009604D01*
X0014194Y0008903D01*
X0014194Y0008202D01*
X0014894Y0007502D01*
X0016996Y0007502D01*
X0014894Y0007502D02*
X0014194Y0006801D01*
X0014194Y0006101D01*
X0018798Y0006101D02*
X0019498Y0005400D01*
X0020899Y0005400D01*
X0021600Y0006101D01*
X0021600Y0008903D01*
X0020899Y0009604D01*
X0019498Y0009604D01*
X0018798Y0008903D01*
X0018798Y0006101D01*
X0048150Y0014685D02*
X0048150Y0016086D01*
X0048150Y0015385D02*
X0052354Y0015385D01*
X0052354Y0014685D02*
X0052354Y0016086D01*
X0052354Y0017754D02*
X0048150Y0020557D01*
X0052354Y0020557D01*
X0052354Y0022358D02*
X0049551Y0022358D01*
X0048150Y0023759D01*
X0049551Y0025160D01*
X0052354Y0025160D01*
X0052354Y0026962D02*
X0048150Y0026962D01*
X0048150Y0029764D01*
X0050252Y0028363D02*
X0050252Y0026962D01*
X0052354Y0026962D02*
X0052354Y0029764D01*
X0052354Y0031566D02*
X0052354Y0033668D01*
X0051653Y0034368D01*
X0050252Y0034368D01*
X0049551Y0033668D01*
X0049551Y0031566D01*
X0048150Y0031566D02*
X0052354Y0031566D01*
X0049551Y0032967D02*
X0048150Y0034368D01*
X0052354Y0036170D02*
X0052354Y0038972D01*
X0052354Y0037571D02*
X0048150Y0037571D01*
X0048150Y0040774D02*
X0048150Y0043576D01*
X0050252Y0042175D02*
X0050252Y0040774D01*
X0052354Y0040774D02*
X0048150Y0040774D01*
X0052354Y0040774D02*
X0052354Y0043576D01*
X0052354Y0045378D02*
X0052354Y0047479D01*
X0051653Y0048180D01*
X0050252Y0048180D01*
X0049551Y0047479D01*
X0049551Y0045378D01*
X0048150Y0045378D02*
X0052354Y0045378D01*
X0049551Y0046779D02*
X0048150Y0048180D01*
X0055650Y0047096D02*
X0055650Y0045695D01*
X0056351Y0044994D01*
X0059854Y0044994D01*
X0059153Y0043193D02*
X0058452Y0043193D01*
X0057752Y0042492D01*
X0057752Y0040390D01*
X0057752Y0038589D02*
X0057752Y0035786D01*
X0059854Y0034118D02*
X0059854Y0032717D01*
X0059854Y0033418D02*
X0055650Y0033418D01*
X0055650Y0034118D02*
X0055650Y0032717D01*
X0056351Y0030915D02*
X0055650Y0030215D01*
X0055650Y0028814D01*
X0056351Y0028113D01*
X0059153Y0028113D01*
X0059854Y0028814D01*
X0059854Y0030215D01*
X0059153Y0030915D01*
X0059153Y0026311D02*
X0059854Y0025611D01*
X0059854Y0024210D01*
X0059153Y0023509D01*
X0058452Y0023509D01*
X0057752Y0024210D01*
X0057752Y0025611D01*
X0057051Y0026311D01*
X0056351Y0026311D01*
X0055650Y0025611D01*
X0055650Y0024210D01*
X0056351Y0023509D01*
X0052354Y0017754D02*
X0048150Y0017754D01*
X0055650Y0040390D02*
X0055650Y0042492D01*
X0056351Y0043193D01*
X0057051Y0043193D01*
X0057752Y0042492D01*
X0059153Y0043193D02*
X0059854Y0042492D01*
X0059854Y0040390D01*
X0055650Y0040390D01*
X0055650Y0047096D02*
X0056351Y0047796D01*
X0059854Y0047796D01*
X0059153Y0049598D02*
X0058452Y0049598D01*
X0057752Y0050299D01*
X0057752Y0051700D01*
X0057051Y0052400D01*
X0056351Y0052400D01*
X0055650Y0051700D01*
X0055650Y0050299D01*
X0056351Y0049598D01*
X0059153Y0049598D02*
X0059854Y0050299D01*
X0059854Y0051700D01*
X0059153Y0052400D01*
X0059854Y0058806D02*
X0055650Y0058806D01*
X0055650Y0061608D01*
X0056351Y0063410D02*
X0055650Y0064110D01*
X0055650Y0065512D01*
X0056351Y0066212D01*
X0059153Y0066212D01*
X0059854Y0065512D01*
X0059854Y0064110D01*
X0059153Y0063410D01*
X0056351Y0063410D01*
X0052354Y0060591D02*
X0048150Y0060591D01*
X0048150Y0061992D02*
X0048150Y0059189D01*
X0049551Y0057388D02*
X0052354Y0057388D01*
X0050952Y0059189D02*
X0052354Y0060591D01*
X0049551Y0057388D02*
X0048150Y0055987D01*
X0049551Y0054586D01*
X0052354Y0054586D01*
X0048851Y0063793D02*
X0048851Y0064494D01*
X0048150Y0064494D01*
X0048150Y0063793D01*
X0048851Y0063793D01*
X0048851Y0066095D02*
X0051653Y0068898D01*
X0048851Y0068898D01*
X0048150Y0068197D01*
X0048150Y0066796D01*
X0048851Y0066095D01*
X0051653Y0066095D01*
X0052354Y0066796D01*
X0052354Y0068197D01*
X0051653Y0068898D01*
X0051653Y0070699D02*
X0052354Y0071400D01*
X0052354Y0072801D01*
X0051653Y0073502D01*
X0048851Y0070699D01*
X0048150Y0071400D01*
X0048150Y0072801D01*
X0048851Y0073502D01*
X0051653Y0073502D01*
X0051653Y0070699D02*
X0048851Y0070699D01*
X0055650Y0070115D02*
X0055650Y0068714D01*
X0056351Y0068014D01*
X0059153Y0068014D01*
X0059854Y0068714D01*
X0059854Y0070115D01*
X0059153Y0070816D01*
X0057752Y0070816D02*
X0057752Y0069415D01*
X0057752Y0070816D02*
X0056351Y0070816D01*
X0055650Y0070115D01*
X0055650Y0072618D02*
X0055650Y0074019D01*
X0055650Y0073318D02*
X0059854Y0073318D01*
X0059854Y0072618D02*
X0059854Y0074019D01*
X0059153Y0075687D02*
X0056351Y0075687D01*
X0055650Y0076387D01*
X0055650Y0077789D01*
X0056351Y0078489D01*
X0059153Y0078489D02*
X0059854Y0077789D01*
X0059854Y0076387D01*
X0059153Y0075687D01*
X0052354Y0079907D02*
X0048150Y0079907D01*
X0048150Y0082709D01*
X0048150Y0084511D02*
X0048150Y0086613D01*
X0048851Y0087313D01*
X0051653Y0087313D01*
X0052354Y0086613D01*
X0052354Y0084511D01*
X0048150Y0084511D01*
X0085500Y0081500D02*
X0085500Y0090500D01*
X0106500Y0090500D01*
X0106500Y0081500D01*
X0085500Y0081500D01*
X0087486Y0083900D02*
X0090288Y0083900D01*
X0087486Y0086702D01*
X0087486Y0087403D01*
X0088186Y0088104D01*
X0089588Y0088104D01*
X0090288Y0087403D01*
X0092090Y0087403D02*
X0092790Y0088104D01*
X0094892Y0088104D01*
X0094892Y0083900D01*
X0092790Y0083900D01*
X0092090Y0084601D01*
X0092090Y0087403D01*
X0096694Y0087403D02*
X0096694Y0086702D01*
X0097394Y0086002D01*
X0099496Y0086002D01*
X0101298Y0084601D02*
X0101298Y0087403D01*
X0101998Y0088104D01*
X0103399Y0088104D01*
X0104100Y0087403D01*
X0104100Y0084601D01*
X0103399Y0083900D01*
X0101998Y0083900D01*
X0101298Y0084601D01*
X0099496Y0083900D02*
X0097394Y0083900D01*
X0096694Y0084601D01*
X0096694Y0085301D01*
X0097394Y0086002D01*
X0096694Y0087403D02*
X0097394Y0088104D01*
X0099496Y0088104D01*
X0099496Y0083900D01*
M02*
