G75*
%MOIN*%
%OFA0B0*%
%FSLAX25Y25*%
%IPPOS*%
%LPD*%
%AMOC8*
5,1,8,0,0,1.08239X$1,22.5*
%
%ADD10R,0.05984X0.05984*%
%ADD11C,0.05984*%
%ADD12R,0.07480X0.07480*%
%ADD13C,0.07480*%
%ADD14C,0.01000*%
%ADD15C,0.02362*%
D10*
X0069000Y0021500D03*
D11*
X0069000Y0031500D03*
X0069000Y0041500D03*
X0069000Y0051500D03*
X0069000Y0061500D03*
X0069000Y0071500D03*
X0069000Y0081500D03*
X0039000Y0081500D03*
X0029000Y0081500D03*
X0029000Y0071500D03*
X0039000Y0071500D03*
X0039000Y0061500D03*
X0029000Y0061500D03*
X0039000Y0051500D03*
X0039000Y0041500D03*
X0039000Y0031500D03*
X0039000Y0021500D03*
X0029000Y0021500D03*
X0049000Y0009000D03*
X0059000Y0009000D03*
D12*
X0079000Y0011500D03*
X0100500Y0051500D03*
X0079000Y0061500D03*
X0009000Y0051500D03*
X0009000Y0031500D03*
D13*
X0009000Y0021500D03*
X0009000Y0061500D03*
X0079000Y0051500D03*
X0079000Y0041500D03*
X0079000Y0031500D03*
X0079000Y0021500D03*
X0100500Y0061500D03*
D14*
X0002900Y0090651D02*
X0002900Y0002900D01*
X0106399Y0002900D01*
X0106399Y0090651D01*
X0002900Y0090651D01*
X0002900Y0090368D02*
X0106399Y0090368D01*
X0106399Y0089369D02*
X0002900Y0089369D01*
X0002900Y0088370D02*
X0106399Y0088370D01*
X0106399Y0087372D02*
X0002900Y0087372D01*
X0002900Y0086373D02*
X0106399Y0086373D01*
X0106399Y0085375D02*
X0071290Y0085375D01*
X0071354Y0085342D02*
X0070724Y0085663D01*
X0070052Y0085882D01*
X0069354Y0085992D01*
X0069287Y0085992D01*
X0069287Y0081787D01*
X0073492Y0081787D01*
X0073492Y0081854D01*
X0073382Y0082552D01*
X0073163Y0083224D01*
X0072842Y0083854D01*
X0072426Y0084426D01*
X0071926Y0084926D01*
X0071354Y0085342D01*
X0072463Y0084376D02*
X0106399Y0084376D01*
X0106399Y0083378D02*
X0073085Y0083378D01*
X0073409Y0082379D02*
X0106399Y0082379D01*
X0106399Y0081381D02*
X0069287Y0081381D01*
X0069287Y0081213D02*
X0069287Y0081787D01*
X0068713Y0081787D01*
X0068713Y0081213D01*
X0069287Y0081213D01*
X0069287Y0077008D01*
X0069354Y0077008D01*
X0070052Y0077118D01*
X0070724Y0077337D01*
X0071354Y0077658D01*
X0071926Y0078074D01*
X0072426Y0078574D01*
X0072842Y0079146D01*
X0073163Y0079776D01*
X0073382Y0080448D01*
X0073492Y0081146D01*
X0073492Y0081213D01*
X0069287Y0081213D01*
X0068713Y0081213D02*
X0068713Y0077008D01*
X0068646Y0077008D01*
X0067948Y0077118D01*
X0067276Y0077337D01*
X0066646Y0077658D01*
X0066074Y0078074D01*
X0065574Y0078574D01*
X0065158Y0079146D01*
X0064837Y0079776D01*
X0064618Y0080448D01*
X0064508Y0081146D01*
X0064508Y0081213D01*
X0068713Y0081213D01*
X0068713Y0081381D02*
X0043192Y0081381D01*
X0043192Y0080666D02*
X0042554Y0079125D01*
X0041375Y0077946D01*
X0039834Y0077308D01*
X0038166Y0077308D01*
X0036625Y0077946D01*
X0035446Y0079125D01*
X0034808Y0080666D01*
X0034808Y0082334D01*
X0035446Y0083875D01*
X0036625Y0085054D01*
X0038166Y0085692D01*
X0039834Y0085692D01*
X0041375Y0085054D01*
X0042554Y0083875D01*
X0043192Y0082334D01*
X0043192Y0080666D01*
X0043075Y0080382D02*
X0064640Y0080382D01*
X0065037Y0079384D02*
X0042661Y0079384D01*
X0041814Y0078385D02*
X0065762Y0078385D01*
X0067178Y0077387D02*
X0040025Y0077387D01*
X0039834Y0075692D02*
X0038166Y0075692D01*
X0036625Y0075054D01*
X0035446Y0073875D01*
X0034808Y0072334D01*
X0034808Y0070666D01*
X0035446Y0069125D01*
X0036625Y0067946D01*
X0038166Y0067308D01*
X0039834Y0067308D01*
X0041375Y0067946D01*
X0042554Y0069125D01*
X0043192Y0070666D01*
X0043192Y0072334D01*
X0042554Y0073875D01*
X0041375Y0075054D01*
X0039834Y0075692D01*
X0040564Y0075390D02*
X0067436Y0075390D01*
X0068166Y0075692D02*
X0066625Y0075054D01*
X0065446Y0073875D01*
X0064808Y0072334D01*
X0064808Y0070666D01*
X0065446Y0069125D01*
X0066625Y0067946D01*
X0068166Y0067308D01*
X0069834Y0067308D01*
X0071375Y0067946D01*
X0072554Y0069125D01*
X0073192Y0070666D01*
X0073192Y0072334D01*
X0072554Y0073875D01*
X0071375Y0075054D01*
X0069834Y0075692D01*
X0068166Y0075692D01*
X0068713Y0077387D02*
X0069287Y0077387D01*
X0069287Y0078385D02*
X0068713Y0078385D01*
X0068713Y0079384D02*
X0069287Y0079384D01*
X0069287Y0080382D02*
X0068713Y0080382D01*
X0068713Y0081787D02*
X0064508Y0081787D01*
X0064508Y0081854D01*
X0064618Y0082552D01*
X0064837Y0083224D01*
X0065158Y0083854D01*
X0065574Y0084426D01*
X0066074Y0084926D01*
X0066646Y0085342D01*
X0067276Y0085663D01*
X0067948Y0085882D01*
X0068646Y0085992D01*
X0068713Y0085992D01*
X0068713Y0081787D01*
X0068713Y0082379D02*
X0069287Y0082379D01*
X0069287Y0083378D02*
X0068713Y0083378D01*
X0068713Y0084376D02*
X0069287Y0084376D01*
X0069287Y0085375D02*
X0068713Y0085375D01*
X0066710Y0085375D02*
X0040600Y0085375D01*
X0042052Y0084376D02*
X0065537Y0084376D01*
X0064915Y0083378D02*
X0042760Y0083378D01*
X0043173Y0082379D02*
X0064591Y0082379D01*
X0070822Y0077387D02*
X0106399Y0077387D01*
X0106399Y0078385D02*
X0072238Y0078385D01*
X0072963Y0079384D02*
X0106399Y0079384D01*
X0106399Y0080382D02*
X0073360Y0080382D01*
X0070564Y0075390D02*
X0106399Y0075390D01*
X0106399Y0076388D02*
X0002900Y0076388D01*
X0002900Y0075390D02*
X0027436Y0075390D01*
X0028166Y0075692D02*
X0026625Y0075054D01*
X0025446Y0073875D01*
X0024808Y0072334D01*
X0024808Y0070666D01*
X0025446Y0069125D01*
X0026625Y0067946D01*
X0028166Y0067308D01*
X0029834Y0067308D01*
X0031375Y0067946D01*
X0032554Y0069125D01*
X0033192Y0070666D01*
X0033192Y0072334D01*
X0032554Y0073875D01*
X0031375Y0075054D01*
X0029834Y0075692D01*
X0028166Y0075692D01*
X0028646Y0077008D02*
X0027948Y0077118D01*
X0027276Y0077337D01*
X0026646Y0077658D01*
X0026074Y0078074D01*
X0025574Y0078574D01*
X0025158Y0079146D01*
X0024837Y0079776D01*
X0024618Y0080448D01*
X0024508Y0081146D01*
X0024508Y0081213D01*
X0028713Y0081213D01*
X0028713Y0081787D01*
X0024508Y0081787D01*
X0024508Y0081854D01*
X0024618Y0082552D01*
X0024837Y0083224D01*
X0025158Y0083854D01*
X0025574Y0084426D01*
X0026074Y0084926D01*
X0026646Y0085342D01*
X0027276Y0085663D01*
X0027948Y0085882D01*
X0028646Y0085992D01*
X0028713Y0085992D01*
X0028713Y0081787D01*
X0029287Y0081787D01*
X0029287Y0085992D01*
X0029354Y0085992D01*
X0030052Y0085882D01*
X0030724Y0085663D01*
X0031354Y0085342D01*
X0031926Y0084926D01*
X0032426Y0084426D01*
X0032842Y0083854D01*
X0033163Y0083224D01*
X0033382Y0082552D01*
X0033492Y0081854D01*
X0033492Y0081787D01*
X0029287Y0081787D01*
X0029287Y0081213D01*
X0029287Y0077008D01*
X0029354Y0077008D01*
X0030052Y0077118D01*
X0030724Y0077337D01*
X0031354Y0077658D01*
X0031926Y0078074D01*
X0032426Y0078574D01*
X0032842Y0079146D01*
X0033163Y0079776D01*
X0033382Y0080448D01*
X0033492Y0081146D01*
X0033492Y0081213D01*
X0029287Y0081213D01*
X0028713Y0081213D01*
X0028713Y0077008D01*
X0028646Y0077008D01*
X0028713Y0077387D02*
X0029287Y0077387D01*
X0029287Y0078385D02*
X0028713Y0078385D01*
X0028713Y0079384D02*
X0029287Y0079384D01*
X0029287Y0080382D02*
X0028713Y0080382D01*
X0028713Y0081381D02*
X0002900Y0081381D01*
X0002900Y0080382D02*
X0024640Y0080382D01*
X0025037Y0079384D02*
X0002900Y0079384D01*
X0002900Y0078385D02*
X0025762Y0078385D01*
X0027178Y0077387D02*
X0002900Y0077387D01*
X0002900Y0074391D02*
X0025963Y0074391D01*
X0025247Y0073393D02*
X0002900Y0073393D01*
X0002900Y0072394D02*
X0024833Y0072394D01*
X0024808Y0071396D02*
X0002900Y0071396D01*
X0002900Y0070397D02*
X0024919Y0070397D01*
X0025333Y0069399D02*
X0002900Y0069399D01*
X0002900Y0068400D02*
X0026171Y0068400D01*
X0027939Y0067402D02*
X0002900Y0067402D01*
X0002900Y0066403D02*
X0007928Y0066403D01*
X0008017Y0066440D02*
X0006202Y0065688D01*
X0004812Y0064298D01*
X0004060Y0062483D01*
X0004060Y0060517D01*
X0004812Y0058702D01*
X0006202Y0057312D01*
X0008017Y0056560D01*
X0009983Y0056560D01*
X0011798Y0057312D01*
X0013188Y0058702D01*
X0013361Y0059119D01*
X0025453Y0059119D01*
X0026625Y0057946D01*
X0028166Y0057308D01*
X0029825Y0057308D01*
X0031619Y0055514D01*
X0033014Y0054119D01*
X0035690Y0054119D01*
X0035446Y0053875D01*
X0034808Y0052334D01*
X0034808Y0050666D01*
X0035446Y0049125D01*
X0035690Y0048881D01*
X0034986Y0048881D01*
X0029986Y0053881D01*
X0013940Y0053881D01*
X0013940Y0055737D01*
X0013237Y0056440D01*
X0004763Y0056440D01*
X0004060Y0055737D01*
X0004060Y0047263D01*
X0004763Y0046560D01*
X0013237Y0046560D01*
X0013940Y0047263D01*
X0013940Y0049119D01*
X0028014Y0049119D01*
X0031619Y0045514D01*
X0033014Y0044119D01*
X0035690Y0044119D01*
X0035446Y0043875D01*
X0034808Y0042334D01*
X0034808Y0040666D01*
X0035446Y0039125D01*
X0036625Y0037946D01*
X0038166Y0037308D01*
X0039834Y0037308D01*
X0041375Y0037946D01*
X0042554Y0039125D01*
X0043192Y0040666D01*
X0043192Y0042334D01*
X0042554Y0043875D01*
X0042310Y0044119D01*
X0053014Y0044119D01*
X0064808Y0032325D01*
X0064808Y0030666D01*
X0065446Y0029125D01*
X0066625Y0027946D01*
X0068166Y0027308D01*
X0069834Y0027308D01*
X0071375Y0027946D01*
X0072554Y0029125D01*
X0073192Y0030666D01*
X0073192Y0032334D01*
X0072554Y0033875D01*
X0071375Y0035054D01*
X0069834Y0035692D01*
X0068175Y0035692D01*
X0054986Y0048881D01*
X0042310Y0048881D01*
X0042554Y0049125D01*
X0043192Y0050666D01*
X0043192Y0052334D01*
X0042554Y0053875D01*
X0042310Y0054119D01*
X0053014Y0054119D01*
X0064808Y0042325D01*
X0064808Y0040666D01*
X0065446Y0039125D01*
X0066625Y0037946D01*
X0068166Y0037308D01*
X0069834Y0037308D01*
X0071375Y0037946D01*
X0072554Y0039125D01*
X0073192Y0040666D01*
X0073192Y0042334D01*
X0072554Y0043875D01*
X0071375Y0045054D01*
X0069834Y0045692D01*
X0068175Y0045692D01*
X0054986Y0058881D01*
X0042310Y0058881D01*
X0042554Y0059125D01*
X0043192Y0060666D01*
X0043192Y0062334D01*
X0042554Y0063875D01*
X0041375Y0065054D01*
X0039834Y0065692D01*
X0038166Y0065692D01*
X0036625Y0065054D01*
X0035446Y0063875D01*
X0034808Y0062334D01*
X0034808Y0060666D01*
X0035446Y0059125D01*
X0035690Y0058881D01*
X0034986Y0058881D01*
X0033192Y0060675D01*
X0033192Y0062334D01*
X0032554Y0063875D01*
X0031375Y0065054D01*
X0029834Y0065692D01*
X0028166Y0065692D01*
X0026625Y0065054D01*
X0025453Y0063881D01*
X0013361Y0063881D01*
X0013188Y0064298D01*
X0011798Y0065688D01*
X0009983Y0066440D01*
X0008017Y0066440D01*
X0010072Y0066403D02*
X0074726Y0066403D01*
X0074763Y0066440D02*
X0074060Y0065737D01*
X0074060Y0057263D01*
X0074763Y0056560D01*
X0083237Y0056560D01*
X0083940Y0057263D01*
X0083940Y0065737D01*
X0083237Y0066440D01*
X0074763Y0066440D01*
X0074060Y0065405D02*
X0070528Y0065405D01*
X0069834Y0065692D02*
X0068166Y0065692D01*
X0066625Y0065054D01*
X0065446Y0063875D01*
X0064808Y0062334D01*
X0064808Y0060666D01*
X0065446Y0059125D01*
X0066625Y0057946D01*
X0068166Y0057308D01*
X0069834Y0057308D01*
X0071375Y0057946D01*
X0072554Y0059125D01*
X0073192Y0060666D01*
X0073192Y0062334D01*
X0072554Y0063875D01*
X0071375Y0065054D01*
X0069834Y0065692D01*
X0070060Y0067402D02*
X0106399Y0067402D01*
X0106399Y0068400D02*
X0071829Y0068400D01*
X0072667Y0069399D02*
X0106399Y0069399D01*
X0106399Y0070397D02*
X0073081Y0070397D01*
X0073192Y0071396D02*
X0106399Y0071396D01*
X0106399Y0072394D02*
X0073167Y0072394D01*
X0072753Y0073393D02*
X0106399Y0073393D01*
X0106399Y0074391D02*
X0072037Y0074391D01*
X0065963Y0074391D02*
X0042037Y0074391D01*
X0042753Y0073393D02*
X0065247Y0073393D01*
X0064833Y0072394D02*
X0043167Y0072394D01*
X0043192Y0071396D02*
X0064808Y0071396D01*
X0064919Y0070397D02*
X0043081Y0070397D01*
X0042667Y0069399D02*
X0065333Y0069399D01*
X0066171Y0068400D02*
X0041829Y0068400D01*
X0040060Y0067402D02*
X0067939Y0067402D01*
X0067472Y0065405D02*
X0040528Y0065405D01*
X0042022Y0064406D02*
X0065978Y0064406D01*
X0065253Y0063408D02*
X0042747Y0063408D01*
X0043161Y0062409D02*
X0064839Y0062409D01*
X0064808Y0061411D02*
X0043192Y0061411D01*
X0043087Y0060412D02*
X0064913Y0060412D01*
X0065327Y0059414D02*
X0042673Y0059414D01*
X0042741Y0053423D02*
X0053710Y0053423D01*
X0054709Y0052424D02*
X0043155Y0052424D01*
X0043192Y0051426D02*
X0055707Y0051426D01*
X0056706Y0050427D02*
X0043093Y0050427D01*
X0042679Y0049429D02*
X0057704Y0049429D01*
X0058703Y0048430D02*
X0055437Y0048430D01*
X0056436Y0047432D02*
X0059701Y0047432D01*
X0060700Y0046433D02*
X0057434Y0046433D01*
X0058433Y0045434D02*
X0061698Y0045434D01*
X0062697Y0044436D02*
X0059431Y0044436D01*
X0060430Y0043437D02*
X0063695Y0043437D01*
X0064694Y0042439D02*
X0061428Y0042439D01*
X0062427Y0041440D02*
X0064808Y0041440D01*
X0064901Y0040442D02*
X0063425Y0040442D01*
X0064424Y0039443D02*
X0065314Y0039443D01*
X0065422Y0038445D02*
X0066127Y0038445D01*
X0066421Y0037446D02*
X0067832Y0037446D01*
X0067419Y0036448D02*
X0106399Y0036448D01*
X0106399Y0035449D02*
X0082037Y0035449D01*
X0081798Y0035688D02*
X0079983Y0036440D01*
X0078017Y0036440D01*
X0076202Y0035688D01*
X0074812Y0034298D01*
X0074060Y0032483D01*
X0074060Y0030517D01*
X0074812Y0028702D01*
X0076202Y0027312D01*
X0078017Y0026560D01*
X0079983Y0026560D01*
X0081798Y0027312D01*
X0083188Y0028702D01*
X0083940Y0030517D01*
X0083940Y0032483D01*
X0083188Y0034298D01*
X0081798Y0035688D01*
X0081798Y0037312D02*
X0079983Y0036560D01*
X0078017Y0036560D01*
X0076202Y0037312D01*
X0074812Y0038702D01*
X0074060Y0040517D01*
X0074060Y0042483D01*
X0074812Y0044298D01*
X0076202Y0045688D01*
X0078017Y0046440D01*
X0079983Y0046440D01*
X0081798Y0045688D01*
X0083188Y0044298D01*
X0083940Y0042483D01*
X0083940Y0040517D01*
X0083188Y0038702D01*
X0081798Y0037312D01*
X0081933Y0037446D02*
X0106399Y0037446D01*
X0106399Y0038445D02*
X0082931Y0038445D01*
X0083495Y0039443D02*
X0106399Y0039443D01*
X0106399Y0040442D02*
X0083909Y0040442D01*
X0083940Y0041440D02*
X0106399Y0041440D01*
X0106399Y0042439D02*
X0083940Y0042439D01*
X0083545Y0043437D02*
X0106399Y0043437D01*
X0106399Y0044436D02*
X0083050Y0044436D01*
X0082052Y0045434D02*
X0106399Y0045434D01*
X0106399Y0046433D02*
X0080000Y0046433D01*
X0079983Y0046560D02*
X0081798Y0047312D01*
X0083188Y0048702D01*
X0083940Y0050517D01*
X0083940Y0052483D01*
X0083188Y0054298D01*
X0081798Y0055688D01*
X0079983Y0056440D01*
X0078017Y0056440D01*
X0076202Y0055688D01*
X0074812Y0054298D01*
X0074060Y0052483D01*
X0074060Y0050517D01*
X0074812Y0048702D01*
X0076202Y0047312D01*
X0078017Y0046560D01*
X0079983Y0046560D01*
X0081918Y0047432D02*
X0095560Y0047432D01*
X0095560Y0047263D02*
X0096263Y0046560D01*
X0104737Y0046560D01*
X0105440Y0047263D01*
X0105440Y0055737D01*
X0104737Y0056440D01*
X0096263Y0056440D01*
X0095560Y0055737D01*
X0095560Y0047263D01*
X0095560Y0048430D02*
X0082916Y0048430D01*
X0083489Y0049429D02*
X0095560Y0049429D01*
X0095560Y0050427D02*
X0083903Y0050427D01*
X0083940Y0051426D02*
X0095560Y0051426D01*
X0095560Y0052424D02*
X0083940Y0052424D01*
X0083551Y0053423D02*
X0095560Y0053423D01*
X0095560Y0054421D02*
X0083065Y0054421D01*
X0082067Y0055420D02*
X0095560Y0055420D01*
X0096241Y0056418D02*
X0080036Y0056418D01*
X0077964Y0056418D02*
X0057449Y0056418D01*
X0056451Y0057417D02*
X0067904Y0057417D01*
X0068166Y0055692D02*
X0066625Y0055054D01*
X0065446Y0053875D01*
X0064808Y0052334D01*
X0064808Y0050666D01*
X0065446Y0049125D01*
X0066625Y0047946D01*
X0068166Y0047308D01*
X0069834Y0047308D01*
X0071375Y0047946D01*
X0072554Y0049125D01*
X0073192Y0050666D01*
X0073192Y0052334D01*
X0072554Y0053875D01*
X0071375Y0055054D01*
X0069834Y0055692D01*
X0068166Y0055692D01*
X0067508Y0055420D02*
X0058448Y0055420D01*
X0059446Y0054421D02*
X0065993Y0054421D01*
X0065259Y0053423D02*
X0060445Y0053423D01*
X0061443Y0052424D02*
X0064845Y0052424D01*
X0064808Y0051426D02*
X0062442Y0051426D01*
X0063440Y0050427D02*
X0064907Y0050427D01*
X0065320Y0049429D02*
X0064439Y0049429D01*
X0065437Y0048430D02*
X0066141Y0048430D01*
X0066436Y0047432D02*
X0067868Y0047432D01*
X0067434Y0046433D02*
X0078000Y0046433D01*
X0076082Y0047432D02*
X0070132Y0047432D01*
X0071859Y0048430D02*
X0075084Y0048430D01*
X0074511Y0049429D02*
X0072679Y0049429D01*
X0073093Y0050427D02*
X0074097Y0050427D01*
X0074060Y0051426D02*
X0073192Y0051426D01*
X0073155Y0052424D02*
X0074060Y0052424D01*
X0074449Y0053423D02*
X0072741Y0053423D01*
X0072007Y0054421D02*
X0074935Y0054421D01*
X0075933Y0055420D02*
X0070492Y0055420D01*
X0070096Y0057417D02*
X0074060Y0057417D01*
X0074060Y0058415D02*
X0071844Y0058415D01*
X0072673Y0059414D02*
X0074060Y0059414D01*
X0074060Y0060412D02*
X0073087Y0060412D01*
X0073192Y0061411D02*
X0074060Y0061411D01*
X0074060Y0062409D02*
X0073161Y0062409D01*
X0072747Y0063408D02*
X0074060Y0063408D01*
X0074060Y0064406D02*
X0072022Y0064406D01*
X0066156Y0058415D02*
X0055452Y0058415D01*
X0070456Y0045434D02*
X0075948Y0045434D01*
X0074950Y0044436D02*
X0071993Y0044436D01*
X0072735Y0043437D02*
X0074455Y0043437D01*
X0074060Y0042439D02*
X0073149Y0042439D01*
X0073192Y0041440D02*
X0074060Y0041440D01*
X0074091Y0040442D02*
X0073099Y0040442D01*
X0072686Y0039443D02*
X0074505Y0039443D01*
X0075069Y0038445D02*
X0071873Y0038445D01*
X0070168Y0037446D02*
X0076067Y0037446D01*
X0075963Y0035449D02*
X0070420Y0035449D01*
X0071978Y0034451D02*
X0074964Y0034451D01*
X0074462Y0033452D02*
X0072729Y0033452D01*
X0073142Y0032454D02*
X0074060Y0032454D01*
X0074060Y0031455D02*
X0073192Y0031455D01*
X0073105Y0030457D02*
X0074085Y0030457D01*
X0074498Y0029458D02*
X0072692Y0029458D01*
X0071888Y0028460D02*
X0075054Y0028460D01*
X0076052Y0027461D02*
X0070204Y0027461D01*
X0067796Y0027461D02*
X0040204Y0027461D01*
X0039834Y0027308D02*
X0041375Y0027946D01*
X0042554Y0029125D01*
X0043192Y0030666D01*
X0043192Y0032334D01*
X0042554Y0033875D01*
X0041375Y0035054D01*
X0039834Y0035692D01*
X0038166Y0035692D01*
X0036625Y0035054D01*
X0035446Y0033875D01*
X0034808Y0032334D01*
X0034808Y0030666D01*
X0035446Y0029125D01*
X0036625Y0027946D01*
X0038166Y0027308D01*
X0039834Y0027308D01*
X0039834Y0025692D02*
X0038166Y0025692D01*
X0036625Y0025054D01*
X0035446Y0023875D01*
X0034808Y0022334D01*
X0034808Y0020666D01*
X0035446Y0019125D01*
X0036625Y0017946D01*
X0038166Y0017308D01*
X0039834Y0017308D01*
X0041375Y0017946D01*
X0042554Y0019125D01*
X0043192Y0020666D01*
X0043192Y0022334D01*
X0042554Y0023875D01*
X0041375Y0025054D01*
X0039834Y0025692D01*
X0040384Y0025464D02*
X0065283Y0025464D01*
X0065511Y0025692D02*
X0064808Y0024989D01*
X0064808Y0018011D01*
X0065511Y0017308D01*
X0072489Y0017308D01*
X0073192Y0018011D01*
X0073192Y0024989D01*
X0072489Y0025692D01*
X0065511Y0025692D01*
X0064808Y0024466D02*
X0041963Y0024466D01*
X0042723Y0023467D02*
X0064808Y0023467D01*
X0064808Y0022469D02*
X0043136Y0022469D01*
X0043192Y0021470D02*
X0064808Y0021470D01*
X0064808Y0020472D02*
X0043112Y0020472D01*
X0042698Y0019473D02*
X0064808Y0019473D01*
X0064808Y0018475D02*
X0041903Y0018475D01*
X0040240Y0017476D02*
X0065343Y0017476D01*
X0061354Y0012842D02*
X0060724Y0013163D01*
X0060052Y0013382D01*
X0059354Y0013492D01*
X0059287Y0013492D01*
X0059287Y0009287D01*
X0063492Y0009287D01*
X0063492Y0009354D01*
X0063382Y0010052D01*
X0063163Y0010724D01*
X0062842Y0011354D01*
X0062426Y0011926D01*
X0061926Y0012426D01*
X0061354Y0012842D01*
X0061848Y0012484D02*
X0074060Y0012484D01*
X0074060Y0013482D02*
X0059417Y0013482D01*
X0059287Y0013482D02*
X0058713Y0013482D01*
X0058713Y0013492D02*
X0058646Y0013492D01*
X0057948Y0013382D01*
X0057276Y0013163D01*
X0056646Y0012842D01*
X0056074Y0012426D01*
X0055574Y0011926D01*
X0055158Y0011354D01*
X0054837Y0010724D01*
X0054618Y0010052D01*
X0054508Y0009354D01*
X0054508Y0009287D01*
X0058713Y0009287D01*
X0058713Y0008713D01*
X0059287Y0008713D01*
X0059287Y0004508D01*
X0059354Y0004508D01*
X0060052Y0004618D01*
X0060724Y0004837D01*
X0061354Y0005158D01*
X0061926Y0005574D01*
X0062426Y0006074D01*
X0062842Y0006646D01*
X0063163Y0007276D01*
X0063382Y0007948D01*
X0063492Y0008646D01*
X0063492Y0008713D01*
X0059287Y0008713D01*
X0059287Y0009287D01*
X0058713Y0009287D01*
X0058713Y0013492D01*
X0058583Y0013482D02*
X0002900Y0013482D01*
X0002900Y0012484D02*
X0046555Y0012484D01*
X0046625Y0012554D02*
X0045446Y0011375D01*
X0044808Y0009834D01*
X0044808Y0008166D01*
X0045446Y0006625D01*
X0046625Y0005446D01*
X0048166Y0004808D01*
X0049834Y0004808D01*
X0051375Y0005446D01*
X0052554Y0006625D01*
X0053192Y0008166D01*
X0053192Y0009834D01*
X0052554Y0011375D01*
X0051375Y0012554D01*
X0049834Y0013192D01*
X0048166Y0013192D01*
X0046625Y0012554D01*
X0045557Y0011485D02*
X0002900Y0011485D01*
X0002900Y0010487D02*
X0045078Y0010487D01*
X0044808Y0009488D02*
X0002900Y0009488D01*
X0002900Y0008490D02*
X0044808Y0008490D01*
X0045087Y0007491D02*
X0002900Y0007491D01*
X0002900Y0006493D02*
X0045579Y0006493D01*
X0046577Y0005494D02*
X0002900Y0005494D01*
X0002900Y0004496D02*
X0106399Y0004496D01*
X0106399Y0005494D02*
X0061817Y0005494D01*
X0062731Y0006493D02*
X0106399Y0006493D01*
X0106399Y0007491D02*
X0083940Y0007491D01*
X0083940Y0007263D02*
X0083940Y0015737D01*
X0083237Y0016440D01*
X0074763Y0016440D01*
X0074060Y0015737D01*
X0074060Y0007263D01*
X0074763Y0006560D01*
X0083237Y0006560D01*
X0083940Y0007263D01*
X0083940Y0008490D02*
X0106399Y0008490D01*
X0106399Y0009488D02*
X0083940Y0009488D01*
X0083940Y0010487D02*
X0106399Y0010487D01*
X0106399Y0011485D02*
X0083940Y0011485D01*
X0083940Y0012484D02*
X0106399Y0012484D01*
X0106399Y0013482D02*
X0083940Y0013482D01*
X0083940Y0014481D02*
X0106399Y0014481D01*
X0106399Y0015479D02*
X0083940Y0015479D01*
X0081963Y0017476D02*
X0106399Y0017476D01*
X0106399Y0016478D02*
X0002900Y0016478D01*
X0002900Y0017476D02*
X0006037Y0017476D01*
X0006202Y0017312D02*
X0008017Y0016560D01*
X0009983Y0016560D01*
X0011798Y0017312D01*
X0013188Y0018702D01*
X0013940Y0020517D01*
X0013940Y0022483D01*
X0013188Y0024298D01*
X0011798Y0025688D01*
X0010418Y0026260D01*
X0012938Y0026260D01*
X0013319Y0026362D01*
X0013661Y0026560D01*
X0013940Y0026839D01*
X0014138Y0027181D01*
X0014240Y0027562D01*
X0014240Y0031016D01*
X0009484Y0031016D01*
X0009484Y0031984D01*
X0014240Y0031984D01*
X0014240Y0035438D01*
X0014138Y0035819D01*
X0013940Y0036161D01*
X0013661Y0036440D01*
X0013319Y0036638D01*
X0012938Y0036740D01*
X0009484Y0036740D01*
X0009484Y0031984D01*
X0008516Y0031984D01*
X0008516Y0031016D01*
X0003760Y0031016D01*
X0003760Y0027562D01*
X0003862Y0027181D01*
X0004060Y0026839D01*
X0004339Y0026560D01*
X0004681Y0026362D01*
X0005062Y0026260D01*
X0007582Y0026260D01*
X0006202Y0025688D01*
X0004812Y0024298D01*
X0004060Y0022483D01*
X0004060Y0020517D01*
X0004812Y0018702D01*
X0006202Y0017312D01*
X0005039Y0018475D02*
X0002900Y0018475D01*
X0002900Y0019473D02*
X0004492Y0019473D01*
X0004079Y0020472D02*
X0002900Y0020472D01*
X0002900Y0021470D02*
X0004060Y0021470D01*
X0004060Y0022469D02*
X0002900Y0022469D01*
X0002900Y0023467D02*
X0004468Y0023467D01*
X0004979Y0024466D02*
X0002900Y0024466D01*
X0002900Y0025464D02*
X0005978Y0025464D01*
X0004506Y0026463D02*
X0002900Y0026463D01*
X0002900Y0027461D02*
X0003787Y0027461D01*
X0003760Y0028460D02*
X0002900Y0028460D01*
X0002900Y0029458D02*
X0003760Y0029458D01*
X0003760Y0030457D02*
X0002900Y0030457D01*
X0002900Y0031455D02*
X0008516Y0031455D01*
X0008516Y0031984D02*
X0003760Y0031984D01*
X0003760Y0035438D01*
X0003862Y0035819D01*
X0004060Y0036161D01*
X0004339Y0036440D01*
X0004681Y0036638D01*
X0005062Y0036740D01*
X0008516Y0036740D01*
X0008516Y0031984D01*
X0008516Y0032454D02*
X0009484Y0032454D01*
X0009484Y0033452D02*
X0008516Y0033452D01*
X0008516Y0034451D02*
X0009484Y0034451D01*
X0009484Y0035449D02*
X0008516Y0035449D01*
X0008516Y0036448D02*
X0009484Y0036448D01*
X0013648Y0036448D02*
X0060685Y0036448D01*
X0061683Y0035449D02*
X0040420Y0035449D01*
X0041978Y0034451D02*
X0062682Y0034451D01*
X0063680Y0033452D02*
X0042729Y0033452D01*
X0043142Y0032454D02*
X0064679Y0032454D01*
X0064808Y0031455D02*
X0043192Y0031455D01*
X0043105Y0030457D02*
X0064895Y0030457D01*
X0065308Y0029458D02*
X0042692Y0029458D01*
X0041888Y0028460D02*
X0066112Y0028460D01*
X0072717Y0025464D02*
X0075978Y0025464D01*
X0076202Y0025688D02*
X0074812Y0024298D01*
X0074060Y0022483D01*
X0074060Y0020517D01*
X0074812Y0018702D01*
X0076202Y0017312D01*
X0078017Y0016560D01*
X0079983Y0016560D01*
X0081798Y0017312D01*
X0083188Y0018702D01*
X0083940Y0020517D01*
X0083940Y0022483D01*
X0083188Y0024298D01*
X0081798Y0025688D01*
X0079983Y0026440D01*
X0078017Y0026440D01*
X0076202Y0025688D01*
X0074979Y0024466D02*
X0073192Y0024466D01*
X0073192Y0023467D02*
X0074468Y0023467D01*
X0074060Y0022469D02*
X0073192Y0022469D01*
X0073192Y0021470D02*
X0074060Y0021470D01*
X0074079Y0020472D02*
X0073192Y0020472D01*
X0073192Y0019473D02*
X0074492Y0019473D01*
X0075039Y0018475D02*
X0073192Y0018475D01*
X0072657Y0017476D02*
X0076037Y0017476D01*
X0074060Y0015479D02*
X0002900Y0015479D01*
X0002900Y0014481D02*
X0074060Y0014481D01*
X0074060Y0011485D02*
X0062747Y0011485D01*
X0063240Y0010487D02*
X0074060Y0010487D01*
X0074060Y0009488D02*
X0063471Y0009488D01*
X0063467Y0008490D02*
X0074060Y0008490D01*
X0074060Y0007491D02*
X0063233Y0007491D01*
X0059287Y0007491D02*
X0058713Y0007491D01*
X0058713Y0008490D02*
X0059287Y0008490D01*
X0058713Y0008713D02*
X0058713Y0004508D01*
X0058646Y0004508D01*
X0057948Y0004618D01*
X0057276Y0004837D01*
X0056646Y0005158D01*
X0056074Y0005574D01*
X0055574Y0006074D01*
X0055158Y0006646D01*
X0054837Y0007276D01*
X0054618Y0007948D01*
X0054508Y0008646D01*
X0054508Y0008713D01*
X0058713Y0008713D01*
X0058713Y0009488D02*
X0059287Y0009488D01*
X0059287Y0010487D02*
X0058713Y0010487D01*
X0058713Y0011485D02*
X0059287Y0011485D01*
X0059287Y0012484D02*
X0058713Y0012484D01*
X0056152Y0012484D02*
X0051445Y0012484D01*
X0052443Y0011485D02*
X0055253Y0011485D01*
X0054760Y0010487D02*
X0052922Y0010487D01*
X0053192Y0009488D02*
X0054529Y0009488D01*
X0054533Y0008490D02*
X0053192Y0008490D01*
X0052912Y0007491D02*
X0054767Y0007491D01*
X0055269Y0006493D02*
X0052421Y0006493D01*
X0051423Y0005494D02*
X0056183Y0005494D01*
X0058713Y0005494D02*
X0059287Y0005494D01*
X0059287Y0006493D02*
X0058713Y0006493D01*
X0037760Y0017476D02*
X0030240Y0017476D01*
X0029834Y0017308D02*
X0031375Y0017946D01*
X0032554Y0019125D01*
X0033192Y0020666D01*
X0033192Y0022334D01*
X0032554Y0023875D01*
X0031375Y0025054D01*
X0029834Y0025692D01*
X0028166Y0025692D01*
X0026625Y0025054D01*
X0025446Y0023875D01*
X0024808Y0022334D01*
X0024808Y0020666D01*
X0025446Y0019125D01*
X0026625Y0017946D01*
X0028166Y0017308D01*
X0029834Y0017308D01*
X0027760Y0017476D02*
X0011963Y0017476D01*
X0012961Y0018475D02*
X0026097Y0018475D01*
X0025302Y0019473D02*
X0013508Y0019473D01*
X0013921Y0020472D02*
X0024888Y0020472D01*
X0024808Y0021470D02*
X0013940Y0021470D01*
X0013940Y0022469D02*
X0024864Y0022469D01*
X0025277Y0023467D02*
X0013532Y0023467D01*
X0013021Y0024466D02*
X0026037Y0024466D01*
X0027616Y0025464D02*
X0012022Y0025464D01*
X0013494Y0026463D02*
X0106399Y0026463D01*
X0106399Y0027461D02*
X0081948Y0027461D01*
X0082946Y0028460D02*
X0106399Y0028460D01*
X0106399Y0029458D02*
X0083501Y0029458D01*
X0083915Y0030457D02*
X0106399Y0030457D01*
X0106399Y0031455D02*
X0083940Y0031455D01*
X0083940Y0032454D02*
X0106399Y0032454D01*
X0106399Y0033452D02*
X0083538Y0033452D01*
X0083036Y0034451D02*
X0106399Y0034451D01*
X0106399Y0025464D02*
X0082022Y0025464D01*
X0083021Y0024466D02*
X0106399Y0024466D01*
X0106399Y0023467D02*
X0083532Y0023467D01*
X0083940Y0022469D02*
X0106399Y0022469D01*
X0106399Y0021470D02*
X0083940Y0021470D01*
X0083921Y0020472D02*
X0106399Y0020472D01*
X0106399Y0019473D02*
X0083508Y0019473D01*
X0082961Y0018475D02*
X0106399Y0018475D01*
X0106399Y0003497D02*
X0002900Y0003497D01*
X0030384Y0025464D02*
X0037616Y0025464D01*
X0036037Y0024466D02*
X0031963Y0024466D01*
X0032723Y0023467D02*
X0035277Y0023467D01*
X0034864Y0022469D02*
X0033136Y0022469D01*
X0033192Y0021470D02*
X0034808Y0021470D01*
X0034888Y0020472D02*
X0033112Y0020472D01*
X0032698Y0019473D02*
X0035302Y0019473D01*
X0036097Y0018475D02*
X0031903Y0018475D01*
X0037796Y0027461D02*
X0014213Y0027461D01*
X0014240Y0028460D02*
X0036112Y0028460D01*
X0035308Y0029458D02*
X0014240Y0029458D01*
X0014240Y0030457D02*
X0034895Y0030457D01*
X0034808Y0031455D02*
X0009484Y0031455D01*
X0014240Y0032454D02*
X0034858Y0032454D01*
X0035271Y0033452D02*
X0014240Y0033452D01*
X0014240Y0034451D02*
X0036022Y0034451D01*
X0037580Y0035449D02*
X0014237Y0035449D01*
X0004352Y0036448D02*
X0002900Y0036448D01*
X0002900Y0035449D02*
X0003763Y0035449D01*
X0003760Y0034451D02*
X0002900Y0034451D01*
X0002900Y0033452D02*
X0003760Y0033452D01*
X0003760Y0032454D02*
X0002900Y0032454D01*
X0002900Y0037446D02*
X0037832Y0037446D01*
X0036127Y0038445D02*
X0002900Y0038445D01*
X0002900Y0039443D02*
X0035314Y0039443D01*
X0034901Y0040442D02*
X0002900Y0040442D01*
X0002900Y0041440D02*
X0034808Y0041440D01*
X0034851Y0042439D02*
X0002900Y0042439D01*
X0002900Y0043437D02*
X0035265Y0043437D01*
X0032697Y0044436D02*
X0002900Y0044436D01*
X0002900Y0045434D02*
X0031698Y0045434D01*
X0030700Y0046433D02*
X0002900Y0046433D01*
X0002900Y0047432D02*
X0004060Y0047432D01*
X0004060Y0048430D02*
X0002900Y0048430D01*
X0002900Y0049429D02*
X0004060Y0049429D01*
X0004060Y0050427D02*
X0002900Y0050427D01*
X0002900Y0051426D02*
X0004060Y0051426D01*
X0004060Y0052424D02*
X0002900Y0052424D01*
X0002900Y0053423D02*
X0004060Y0053423D01*
X0004060Y0054421D02*
X0002900Y0054421D01*
X0002900Y0055420D02*
X0004060Y0055420D01*
X0004741Y0056418D02*
X0002900Y0056418D01*
X0002900Y0057417D02*
X0006097Y0057417D01*
X0005098Y0058415D02*
X0002900Y0058415D01*
X0002900Y0059414D02*
X0004517Y0059414D01*
X0004103Y0060412D02*
X0002900Y0060412D01*
X0002900Y0061411D02*
X0004060Y0061411D01*
X0004060Y0062409D02*
X0002900Y0062409D01*
X0002900Y0063408D02*
X0004443Y0063408D01*
X0004920Y0064406D02*
X0002900Y0064406D01*
X0002900Y0065405D02*
X0005918Y0065405D01*
X0012082Y0065405D02*
X0027472Y0065405D01*
X0025978Y0064406D02*
X0013080Y0064406D01*
X0012902Y0058415D02*
X0026156Y0058415D01*
X0027904Y0057417D02*
X0011903Y0057417D01*
X0013259Y0056418D02*
X0030714Y0056418D01*
X0031713Y0055420D02*
X0013940Y0055420D01*
X0013940Y0054421D02*
X0032712Y0054421D01*
X0031443Y0052424D02*
X0034845Y0052424D01*
X0035259Y0053423D02*
X0030445Y0053423D01*
X0032442Y0051426D02*
X0034808Y0051426D01*
X0034907Y0050427D02*
X0033440Y0050427D01*
X0034439Y0049429D02*
X0035320Y0049429D01*
X0029701Y0047432D02*
X0013940Y0047432D01*
X0013940Y0048430D02*
X0028703Y0048430D01*
X0040168Y0037446D02*
X0059686Y0037446D01*
X0058688Y0038445D02*
X0041873Y0038445D01*
X0042686Y0039443D02*
X0057689Y0039443D01*
X0056691Y0040442D02*
X0043099Y0040442D01*
X0043192Y0041440D02*
X0055692Y0041440D01*
X0054694Y0042439D02*
X0043149Y0042439D01*
X0042735Y0043437D02*
X0053695Y0043437D01*
X0035327Y0059414D02*
X0034454Y0059414D01*
X0034913Y0060412D02*
X0033455Y0060412D01*
X0033192Y0061411D02*
X0034808Y0061411D01*
X0034839Y0062409D02*
X0033161Y0062409D01*
X0032747Y0063408D02*
X0035253Y0063408D01*
X0035978Y0064406D02*
X0032022Y0064406D01*
X0030528Y0065405D02*
X0037472Y0065405D01*
X0037939Y0067402D02*
X0030060Y0067402D01*
X0031829Y0068400D02*
X0036171Y0068400D01*
X0035333Y0069399D02*
X0032667Y0069399D01*
X0033081Y0070397D02*
X0034919Y0070397D01*
X0034808Y0071396D02*
X0033192Y0071396D01*
X0033167Y0072394D02*
X0034833Y0072394D01*
X0035247Y0073393D02*
X0032753Y0073393D01*
X0032037Y0074391D02*
X0035963Y0074391D01*
X0037436Y0075390D02*
X0030564Y0075390D01*
X0030822Y0077387D02*
X0037975Y0077387D01*
X0036186Y0078385D02*
X0032238Y0078385D01*
X0032963Y0079384D02*
X0035339Y0079384D01*
X0034925Y0080382D02*
X0033360Y0080382D01*
X0034808Y0081381D02*
X0029287Y0081381D01*
X0029287Y0082379D02*
X0028713Y0082379D01*
X0028713Y0083378D02*
X0029287Y0083378D01*
X0029287Y0084376D02*
X0028713Y0084376D01*
X0028713Y0085375D02*
X0029287Y0085375D01*
X0031290Y0085375D02*
X0037400Y0085375D01*
X0035948Y0084376D02*
X0032463Y0084376D01*
X0033085Y0083378D02*
X0035240Y0083378D01*
X0034827Y0082379D02*
X0033409Y0082379D01*
X0026710Y0085375D02*
X0002900Y0085375D01*
X0002900Y0084376D02*
X0025537Y0084376D01*
X0024915Y0083378D02*
X0002900Y0083378D01*
X0002900Y0082379D02*
X0024591Y0082379D01*
X0083274Y0066403D02*
X0099428Y0066403D01*
X0099517Y0066440D02*
X0097702Y0065688D01*
X0096312Y0064298D01*
X0095560Y0062483D01*
X0095560Y0060517D01*
X0096312Y0058702D01*
X0097702Y0057312D01*
X0099517Y0056560D01*
X0101483Y0056560D01*
X0103298Y0057312D01*
X0104688Y0058702D01*
X0105440Y0060517D01*
X0105440Y0062483D01*
X0104688Y0064298D01*
X0103298Y0065688D01*
X0101483Y0066440D01*
X0099517Y0066440D01*
X0101572Y0066403D02*
X0106399Y0066403D01*
X0106399Y0065405D02*
X0103582Y0065405D01*
X0104580Y0064406D02*
X0106399Y0064406D01*
X0106399Y0063408D02*
X0105057Y0063408D01*
X0105440Y0062409D02*
X0106399Y0062409D01*
X0106399Y0061411D02*
X0105440Y0061411D01*
X0105397Y0060412D02*
X0106399Y0060412D01*
X0106399Y0059414D02*
X0104983Y0059414D01*
X0104402Y0058415D02*
X0106399Y0058415D01*
X0106399Y0057417D02*
X0103403Y0057417D01*
X0104759Y0056418D02*
X0106399Y0056418D01*
X0106399Y0055420D02*
X0105440Y0055420D01*
X0105440Y0054421D02*
X0106399Y0054421D01*
X0106399Y0053423D02*
X0105440Y0053423D01*
X0105440Y0052424D02*
X0106399Y0052424D01*
X0106399Y0051426D02*
X0105440Y0051426D01*
X0105440Y0050427D02*
X0106399Y0050427D01*
X0106399Y0049429D02*
X0105440Y0049429D01*
X0105440Y0048430D02*
X0106399Y0048430D01*
X0106399Y0047432D02*
X0105440Y0047432D01*
X0097597Y0057417D02*
X0083940Y0057417D01*
X0083940Y0058415D02*
X0096598Y0058415D01*
X0096017Y0059414D02*
X0083940Y0059414D01*
X0083940Y0060412D02*
X0095603Y0060412D01*
X0095560Y0061411D02*
X0083940Y0061411D01*
X0083940Y0062409D02*
X0095560Y0062409D01*
X0095943Y0063408D02*
X0083940Y0063408D01*
X0083940Y0064406D02*
X0096420Y0064406D01*
X0097418Y0065405D02*
X0083940Y0065405D01*
D15*
X0069000Y0041500D02*
X0054000Y0056500D01*
X0034000Y0056500D01*
X0029000Y0061500D01*
X0009000Y0061500D01*
X0009000Y0051500D02*
X0029000Y0051500D01*
X0034000Y0046500D01*
X0054000Y0046500D01*
X0069000Y0031500D01*
M02*
