%
M48
M72
T01C0.0315
T02C0.0394
%
T01
X2900Y2150
X3900Y2150
X3900Y3150
X3900Y4150
X3900Y5150
X3900Y6150
X2900Y6150
X2900Y7150
X3900Y7150
X3900Y8150
X2900Y8150
X6900Y8150
X6900Y7150
X6900Y6150
X6900Y5150
X6900Y4150
X6900Y3150
X6900Y2150
X5900Y900
X4900Y900
T02
X900Y2150
X900Y3150
X900Y5150
X900Y6150
X7900Y6150
X7900Y5150
X7900Y4150
X7900Y3150
X7900Y2150
X7900Y1150
X10050Y5150
X10050Y6150
M30
