G75*
%MOIN*%
%OFA0B0*%
%FSLAX25Y25*%
%IPPOS*%
%LPD*%
%AMOC8*
5,1,8,0,0,1.08239X$1,22.5*
%
%ADD10C,0.00800*%
%ADD11C,0.01000*%
D10*
X0003000Y0003000D02*
X0003000Y0012000D01*
X0024000Y0012000D01*
X0024000Y0003000D01*
X0003000Y0003000D01*
X0005400Y0006101D02*
X0006101Y0005400D01*
X0007502Y0005400D01*
X0008202Y0006101D01*
X0008202Y0008903D01*
X0007502Y0009604D01*
X0006101Y0009604D01*
X0005400Y0008903D01*
X0005400Y0006101D01*
X0010004Y0005400D02*
X0012106Y0005400D01*
X0012806Y0006101D01*
X0012806Y0006801D01*
X0012106Y0007502D01*
X0010004Y0007502D01*
X0010004Y0009604D02*
X0012106Y0009604D01*
X0012806Y0008903D01*
X0012806Y0008202D01*
X0012106Y0007502D01*
X0010004Y0005400D02*
X0010004Y0009604D01*
X0014608Y0009604D02*
X0016710Y0009604D01*
X0017410Y0008903D01*
X0017410Y0006101D01*
X0016710Y0005400D01*
X0014608Y0005400D01*
X0014608Y0009604D01*
X0019212Y0008202D02*
X0020613Y0009604D01*
X0020613Y0005400D01*
X0019212Y0005400D02*
X0022014Y0005400D01*
X0011500Y0016500D02*
X0006500Y0016500D01*
X0004000Y0019000D01*
X0004000Y0024000D01*
X0006500Y0026500D01*
X0004000Y0026500D01*
X0004000Y0036500D01*
X0014000Y0036500D01*
X0014000Y0026500D01*
X0011500Y0026500D01*
X0014000Y0024000D01*
X0014000Y0019000D01*
X0011500Y0016500D01*
X0016396Y0022692D02*
X0018498Y0022692D01*
X0017798Y0024093D01*
X0017798Y0024794D01*
X0018498Y0025495D01*
X0019899Y0025495D01*
X0020600Y0024794D01*
X0020600Y0023393D01*
X0019899Y0022692D01*
X0016396Y0022692D02*
X0016396Y0025495D01*
X0016396Y0027296D02*
X0019199Y0027296D01*
X0020600Y0028697D01*
X0019199Y0030098D01*
X0016396Y0030098D01*
X0011500Y0026500D02*
X0006500Y0026500D01*
X0009000Y0041500D02*
X0006500Y0043000D01*
X0009000Y0044500D01*
X0011000Y0043000D02*
X0006500Y0043000D01*
X0004000Y0046500D02*
X0014000Y0046500D01*
X0014000Y0056500D01*
X0011500Y0056500D01*
X0014000Y0059000D01*
X0014000Y0064000D01*
X0011500Y0066500D01*
X0006500Y0066500D01*
X0004000Y0064000D01*
X0004000Y0059000D01*
X0006500Y0056500D01*
X0004000Y0056500D01*
X0004000Y0046500D01*
X0006500Y0056500D02*
X0011500Y0056500D01*
X0015900Y0053604D02*
X0018002Y0053604D01*
X0018702Y0052903D01*
X0018702Y0051502D01*
X0018002Y0050801D01*
X0015900Y0050801D01*
X0017301Y0050801D02*
X0018702Y0049400D01*
X0020504Y0049400D02*
X0023306Y0053604D01*
X0024500Y0052500D02*
X0024500Y0051000D01*
X0025000Y0050500D01*
X0025000Y0032500D01*
X0024500Y0032000D01*
X0024500Y0030500D01*
X0024502Y0030440D01*
X0024507Y0030379D01*
X0024516Y0030320D01*
X0024529Y0030261D01*
X0024545Y0030202D01*
X0024565Y0030145D01*
X0024588Y0030090D01*
X0024615Y0030035D01*
X0024644Y0029983D01*
X0024677Y0029932D01*
X0024713Y0029883D01*
X0024751Y0029837D01*
X0024793Y0029793D01*
X0024837Y0029751D01*
X0024883Y0029713D01*
X0024932Y0029677D01*
X0024983Y0029644D01*
X0025035Y0029615D01*
X0025090Y0029588D01*
X0025145Y0029565D01*
X0025202Y0029545D01*
X0025261Y0029529D01*
X0025320Y0029516D01*
X0025379Y0029507D01*
X0025440Y0029502D01*
X0025500Y0029500D01*
X0029000Y0029500D01*
X0029000Y0026000D01*
X0029000Y0029500D02*
X0032500Y0029500D01*
X0032560Y0029502D01*
X0032621Y0029507D01*
X0032680Y0029516D01*
X0032739Y0029529D01*
X0032798Y0029545D01*
X0032855Y0029565D01*
X0032910Y0029588D01*
X0032965Y0029615D01*
X0033017Y0029644D01*
X0033068Y0029677D01*
X0033117Y0029713D01*
X0033163Y0029751D01*
X0033207Y0029793D01*
X0033249Y0029837D01*
X0033287Y0029883D01*
X0033323Y0029932D01*
X0033356Y0029983D01*
X0033385Y0030035D01*
X0033412Y0030090D01*
X0033435Y0030145D01*
X0033455Y0030202D01*
X0033471Y0030261D01*
X0033484Y0030320D01*
X0033493Y0030379D01*
X0033498Y0030440D01*
X0033500Y0030500D01*
X0033500Y0032000D01*
X0033000Y0032500D01*
X0033000Y0050500D01*
X0033500Y0051000D01*
X0033500Y0052500D01*
X0033498Y0052560D01*
X0033493Y0052621D01*
X0033484Y0052680D01*
X0033471Y0052739D01*
X0033455Y0052798D01*
X0033435Y0052855D01*
X0033412Y0052910D01*
X0033385Y0052965D01*
X0033356Y0053017D01*
X0033323Y0053068D01*
X0033287Y0053117D01*
X0033249Y0053163D01*
X0033207Y0053207D01*
X0033163Y0053249D01*
X0033117Y0053287D01*
X0033068Y0053323D01*
X0033017Y0053356D01*
X0032965Y0053385D01*
X0032910Y0053412D01*
X0032855Y0053435D01*
X0032798Y0053455D01*
X0032739Y0053471D01*
X0032680Y0053484D01*
X0032621Y0053493D01*
X0032560Y0053498D01*
X0032500Y0053500D01*
X0029000Y0053500D01*
X0029000Y0057000D01*
X0029000Y0053500D02*
X0025500Y0053500D01*
X0025440Y0053498D01*
X0025379Y0053493D01*
X0025320Y0053484D01*
X0025261Y0053471D01*
X0025202Y0053455D01*
X0025145Y0053435D01*
X0025090Y0053412D01*
X0025035Y0053385D01*
X0024983Y0053356D01*
X0024932Y0053323D01*
X0024883Y0053287D01*
X0024837Y0053249D01*
X0024793Y0053207D01*
X0024751Y0053163D01*
X0024713Y0053117D01*
X0024677Y0053068D01*
X0024644Y0053017D01*
X0024615Y0052965D01*
X0024588Y0052910D01*
X0024565Y0052855D01*
X0024545Y0052798D01*
X0024529Y0052739D01*
X0024516Y0052680D01*
X0024507Y0052621D01*
X0024502Y0052560D01*
X0024500Y0052500D01*
X0023306Y0049400D02*
X0020504Y0053604D01*
X0015900Y0053604D02*
X0015900Y0049400D01*
X0017301Y0059400D02*
X0017301Y0063604D01*
X0015900Y0063604D02*
X0018702Y0063604D01*
X0020504Y0063604D02*
X0023306Y0059400D01*
X0020504Y0059400D02*
X0023306Y0063604D01*
X0026500Y0066500D02*
X0031500Y0066500D01*
X0031587Y0066502D01*
X0031674Y0066508D01*
X0031761Y0066517D01*
X0031847Y0066530D01*
X0031933Y0066547D01*
X0032018Y0066568D01*
X0032101Y0066593D01*
X0032184Y0066621D01*
X0032265Y0066652D01*
X0032345Y0066687D01*
X0032423Y0066726D01*
X0032500Y0066768D01*
X0032575Y0066813D01*
X0032647Y0066862D01*
X0032718Y0066913D01*
X0032786Y0066968D01*
X0032851Y0067025D01*
X0032914Y0067086D01*
X0032975Y0067149D01*
X0033032Y0067214D01*
X0033087Y0067282D01*
X0033138Y0067353D01*
X0033187Y0067425D01*
X0033232Y0067500D01*
X0033274Y0067577D01*
X0033313Y0067655D01*
X0033348Y0067735D01*
X0033379Y0067816D01*
X0033407Y0067899D01*
X0033432Y0067982D01*
X0033453Y0068067D01*
X0033470Y0068153D01*
X0033483Y0068239D01*
X0033492Y0068326D01*
X0033498Y0068413D01*
X0033500Y0068500D01*
X0033500Y0084500D01*
X0033498Y0084587D01*
X0033492Y0084674D01*
X0033483Y0084761D01*
X0033470Y0084847D01*
X0033453Y0084933D01*
X0033432Y0085018D01*
X0033407Y0085101D01*
X0033379Y0085184D01*
X0033348Y0085265D01*
X0033313Y0085345D01*
X0033274Y0085423D01*
X0033232Y0085500D01*
X0033187Y0085575D01*
X0033138Y0085647D01*
X0033087Y0085718D01*
X0033032Y0085786D01*
X0032975Y0085851D01*
X0032914Y0085914D01*
X0032851Y0085975D01*
X0032786Y0086032D01*
X0032718Y0086087D01*
X0032647Y0086138D01*
X0032575Y0086187D01*
X0032500Y0086232D01*
X0032423Y0086274D01*
X0032345Y0086313D01*
X0032265Y0086348D01*
X0032184Y0086379D01*
X0032101Y0086407D01*
X0032018Y0086432D01*
X0031933Y0086453D01*
X0031847Y0086470D01*
X0031761Y0086483D01*
X0031674Y0086492D01*
X0031587Y0086498D01*
X0031500Y0086500D01*
X0026500Y0086500D01*
X0026413Y0086498D01*
X0026326Y0086492D01*
X0026239Y0086483D01*
X0026153Y0086470D01*
X0026067Y0086453D01*
X0025982Y0086432D01*
X0025899Y0086407D01*
X0025816Y0086379D01*
X0025735Y0086348D01*
X0025655Y0086313D01*
X0025577Y0086274D01*
X0025500Y0086232D01*
X0025425Y0086187D01*
X0025353Y0086138D01*
X0025282Y0086087D01*
X0025214Y0086032D01*
X0025149Y0085975D01*
X0025086Y0085914D01*
X0025025Y0085851D01*
X0024968Y0085786D01*
X0024913Y0085718D01*
X0024862Y0085647D01*
X0024813Y0085575D01*
X0024768Y0085500D01*
X0024726Y0085423D01*
X0024687Y0085345D01*
X0024652Y0085265D01*
X0024621Y0085184D01*
X0024593Y0085101D01*
X0024568Y0085018D01*
X0024547Y0084933D01*
X0024530Y0084847D01*
X0024517Y0084761D01*
X0024508Y0084674D01*
X0024502Y0084587D01*
X0024500Y0084500D01*
X0024500Y0068500D01*
X0024502Y0068413D01*
X0024508Y0068326D01*
X0024517Y0068239D01*
X0024530Y0068153D01*
X0024547Y0068067D01*
X0024568Y0067982D01*
X0024593Y0067899D01*
X0024621Y0067816D01*
X0024652Y0067735D01*
X0024687Y0067655D01*
X0024726Y0067577D01*
X0024768Y0067500D01*
X0024813Y0067425D01*
X0024862Y0067353D01*
X0024913Y0067282D01*
X0024968Y0067214D01*
X0025025Y0067149D01*
X0025086Y0067086D01*
X0025149Y0067025D01*
X0025214Y0066968D01*
X0025282Y0066913D01*
X0025353Y0066862D01*
X0025425Y0066813D01*
X0025500Y0066768D01*
X0025577Y0066726D01*
X0025655Y0066687D01*
X0025735Y0066652D01*
X0025816Y0066621D01*
X0025899Y0066593D01*
X0025982Y0066568D01*
X0026067Y0066547D01*
X0026153Y0066530D01*
X0026239Y0066517D01*
X0026326Y0066508D01*
X0026413Y0066502D01*
X0026500Y0066500D01*
X0029000Y0075500D02*
X0029000Y0075800D01*
X0027000Y0075800D01*
X0027000Y0077200D02*
X0029000Y0077200D01*
X0029000Y0077500D01*
X0029000Y0077200D02*
X0031000Y0077200D01*
X0031000Y0075800D02*
X0029000Y0075800D01*
X0045000Y0086500D02*
X0045000Y0016500D01*
X0050000Y0016500D01*
X0046000Y0013500D02*
X0062000Y0013500D01*
X0062087Y0013498D01*
X0062174Y0013492D01*
X0062261Y0013483D01*
X0062347Y0013470D01*
X0062433Y0013453D01*
X0062518Y0013432D01*
X0062601Y0013407D01*
X0062684Y0013379D01*
X0062765Y0013348D01*
X0062845Y0013313D01*
X0062923Y0013274D01*
X0063000Y0013232D01*
X0063075Y0013187D01*
X0063147Y0013138D01*
X0063218Y0013087D01*
X0063286Y0013032D01*
X0063351Y0012975D01*
X0063414Y0012914D01*
X0063475Y0012851D01*
X0063532Y0012786D01*
X0063587Y0012718D01*
X0063638Y0012647D01*
X0063687Y0012575D01*
X0063732Y0012500D01*
X0063774Y0012423D01*
X0063813Y0012345D01*
X0063848Y0012265D01*
X0063879Y0012184D01*
X0063907Y0012101D01*
X0063932Y0012018D01*
X0063953Y0011933D01*
X0063970Y0011847D01*
X0063983Y0011761D01*
X0063992Y0011674D01*
X0063998Y0011587D01*
X0064000Y0011500D01*
X0064000Y0006500D01*
X0063998Y0006413D01*
X0063992Y0006326D01*
X0063983Y0006239D01*
X0063970Y0006153D01*
X0063953Y0006067D01*
X0063932Y0005982D01*
X0063907Y0005899D01*
X0063879Y0005816D01*
X0063848Y0005735D01*
X0063813Y0005655D01*
X0063774Y0005577D01*
X0063732Y0005500D01*
X0063687Y0005425D01*
X0063638Y0005353D01*
X0063587Y0005282D01*
X0063532Y0005214D01*
X0063475Y0005149D01*
X0063414Y0005086D01*
X0063351Y0005025D01*
X0063286Y0004968D01*
X0063218Y0004913D01*
X0063147Y0004862D01*
X0063075Y0004813D01*
X0063000Y0004768D01*
X0062923Y0004726D01*
X0062845Y0004687D01*
X0062765Y0004652D01*
X0062684Y0004621D01*
X0062601Y0004593D01*
X0062518Y0004568D01*
X0062433Y0004547D01*
X0062347Y0004530D01*
X0062261Y0004517D01*
X0062174Y0004508D01*
X0062087Y0004502D01*
X0062000Y0004500D01*
X0046000Y0004500D01*
X0045913Y0004502D01*
X0045826Y0004508D01*
X0045739Y0004517D01*
X0045653Y0004530D01*
X0045567Y0004547D01*
X0045482Y0004568D01*
X0045399Y0004593D01*
X0045316Y0004621D01*
X0045235Y0004652D01*
X0045155Y0004687D01*
X0045077Y0004726D01*
X0045000Y0004768D01*
X0044925Y0004813D01*
X0044853Y0004862D01*
X0044782Y0004913D01*
X0044714Y0004968D01*
X0044649Y0005025D01*
X0044586Y0005086D01*
X0044525Y0005149D01*
X0044468Y0005214D01*
X0044413Y0005282D01*
X0044362Y0005353D01*
X0044313Y0005425D01*
X0044268Y0005500D01*
X0044226Y0005577D01*
X0044187Y0005655D01*
X0044152Y0005735D01*
X0044121Y0005816D01*
X0044093Y0005899D01*
X0044068Y0005982D01*
X0044047Y0006067D01*
X0044030Y0006153D01*
X0044017Y0006239D01*
X0044008Y0006326D01*
X0044002Y0006413D01*
X0044000Y0006500D01*
X0044000Y0011500D01*
X0044002Y0011587D01*
X0044008Y0011674D01*
X0044017Y0011761D01*
X0044030Y0011847D01*
X0044047Y0011933D01*
X0044068Y0012018D01*
X0044093Y0012101D01*
X0044121Y0012184D01*
X0044152Y0012265D01*
X0044187Y0012345D01*
X0044226Y0012423D01*
X0044268Y0012500D01*
X0044313Y0012575D01*
X0044362Y0012647D01*
X0044413Y0012718D01*
X0044468Y0012786D01*
X0044525Y0012851D01*
X0044586Y0012914D01*
X0044649Y0012975D01*
X0044714Y0013032D01*
X0044782Y0013087D01*
X0044853Y0013138D01*
X0044925Y0013187D01*
X0045000Y0013232D01*
X0045077Y0013274D01*
X0045155Y0013313D01*
X0045235Y0013348D01*
X0045316Y0013379D01*
X0045399Y0013407D01*
X0045482Y0013432D01*
X0045567Y0013453D01*
X0045653Y0013470D01*
X0045739Y0013483D01*
X0045826Y0013492D01*
X0045913Y0013498D01*
X0046000Y0013500D01*
X0053300Y0011000D02*
X0053300Y0009000D01*
X0053000Y0009000D01*
X0053300Y0009000D02*
X0053300Y0007000D01*
X0054700Y0007000D02*
X0054700Y0009000D01*
X0055000Y0009000D01*
X0054700Y0009000D02*
X0054700Y0011000D01*
X0058000Y0016500D02*
X0057998Y0016626D01*
X0057992Y0016751D01*
X0057982Y0016876D01*
X0057968Y0017001D01*
X0057951Y0017126D01*
X0057929Y0017250D01*
X0057904Y0017373D01*
X0057874Y0017495D01*
X0057841Y0017616D01*
X0057804Y0017736D01*
X0057764Y0017855D01*
X0057719Y0017972D01*
X0057671Y0018089D01*
X0057619Y0018203D01*
X0057564Y0018316D01*
X0057505Y0018427D01*
X0057443Y0018536D01*
X0057377Y0018643D01*
X0057308Y0018748D01*
X0057236Y0018851D01*
X0057161Y0018952D01*
X0057082Y0019050D01*
X0057000Y0019145D01*
X0056916Y0019238D01*
X0056828Y0019328D01*
X0056738Y0019416D01*
X0056645Y0019500D01*
X0056550Y0019582D01*
X0056452Y0019661D01*
X0056351Y0019736D01*
X0056248Y0019808D01*
X0056143Y0019877D01*
X0056036Y0019943D01*
X0055927Y0020005D01*
X0055816Y0020064D01*
X0055703Y0020119D01*
X0055589Y0020171D01*
X0055472Y0020219D01*
X0055355Y0020264D01*
X0055236Y0020304D01*
X0055116Y0020341D01*
X0054995Y0020374D01*
X0054873Y0020404D01*
X0054750Y0020429D01*
X0054626Y0020451D01*
X0054501Y0020468D01*
X0054376Y0020482D01*
X0054251Y0020492D01*
X0054126Y0020498D01*
X0054000Y0020500D01*
X0053874Y0020498D01*
X0053749Y0020492D01*
X0053624Y0020482D01*
X0053499Y0020468D01*
X0053374Y0020451D01*
X0053250Y0020429D01*
X0053127Y0020404D01*
X0053005Y0020374D01*
X0052884Y0020341D01*
X0052764Y0020304D01*
X0052645Y0020264D01*
X0052528Y0020219D01*
X0052411Y0020171D01*
X0052297Y0020119D01*
X0052184Y0020064D01*
X0052073Y0020005D01*
X0051964Y0019943D01*
X0051857Y0019877D01*
X0051752Y0019808D01*
X0051649Y0019736D01*
X0051548Y0019661D01*
X0051450Y0019582D01*
X0051355Y0019500D01*
X0051262Y0019416D01*
X0051172Y0019328D01*
X0051084Y0019238D01*
X0051000Y0019145D01*
X0050918Y0019050D01*
X0050839Y0018952D01*
X0050764Y0018851D01*
X0050692Y0018748D01*
X0050623Y0018643D01*
X0050557Y0018536D01*
X0050495Y0018427D01*
X0050436Y0018316D01*
X0050381Y0018203D01*
X0050329Y0018089D01*
X0050281Y0017972D01*
X0050236Y0017855D01*
X0050196Y0017736D01*
X0050159Y0017616D01*
X0050126Y0017495D01*
X0050096Y0017373D01*
X0050071Y0017250D01*
X0050049Y0017126D01*
X0050032Y0017001D01*
X0050018Y0016876D01*
X0050008Y0016751D01*
X0050002Y0016626D01*
X0050000Y0016500D01*
X0058000Y0016500D02*
X0063000Y0016500D01*
X0063000Y0086500D01*
X0045000Y0086500D01*
X0051896Y0066826D02*
X0056100Y0066826D01*
X0051896Y0064024D01*
X0056100Y0064024D01*
X0053998Y0062222D02*
X0053998Y0059420D01*
X0051896Y0061521D01*
X0056100Y0061521D01*
X0055399Y0057618D02*
X0052597Y0057618D01*
X0055399Y0054816D01*
X0056100Y0055516D01*
X0056100Y0056917D01*
X0055399Y0057618D01*
X0052597Y0057618D02*
X0051896Y0056917D01*
X0051896Y0055516D01*
X0052597Y0054816D01*
X0055399Y0054816D01*
X0055399Y0053014D02*
X0056100Y0052314D01*
X0056100Y0050912D01*
X0055399Y0050212D01*
X0053998Y0050912D02*
X0053998Y0052314D01*
X0054699Y0053014D01*
X0055399Y0053014D01*
X0053998Y0050912D02*
X0053298Y0050212D01*
X0052597Y0050212D01*
X0051896Y0050912D01*
X0051896Y0052314D01*
X0052597Y0053014D01*
X0056100Y0048410D02*
X0056100Y0045608D01*
X0051896Y0045608D01*
X0051896Y0043106D02*
X0053998Y0041004D01*
X0053998Y0043806D01*
X0056100Y0043106D02*
X0051896Y0043106D01*
X0051896Y0039202D02*
X0052597Y0039202D01*
X0055399Y0036400D01*
X0056100Y0036400D01*
X0051896Y0036400D02*
X0051896Y0039202D01*
X0058086Y0022000D02*
X0058088Y0022075D01*
X0058094Y0022149D01*
X0058104Y0022223D01*
X0058117Y0022296D01*
X0058135Y0022369D01*
X0058156Y0022440D01*
X0058181Y0022511D01*
X0058210Y0022580D01*
X0058243Y0022647D01*
X0058279Y0022712D01*
X0058318Y0022776D01*
X0058360Y0022837D01*
X0058406Y0022896D01*
X0058455Y0022953D01*
X0058507Y0023006D01*
X0058561Y0023057D01*
X0058618Y0023106D01*
X0058678Y0023150D01*
X0058740Y0023192D01*
X0058804Y0023231D01*
X0058870Y0023266D01*
X0058937Y0023297D01*
X0059007Y0023325D01*
X0059077Y0023349D01*
X0059149Y0023370D01*
X0059222Y0023386D01*
X0059295Y0023399D01*
X0059370Y0023408D01*
X0059444Y0023413D01*
X0059519Y0023414D01*
X0059593Y0023411D01*
X0059668Y0023404D01*
X0059741Y0023393D01*
X0059815Y0023379D01*
X0059887Y0023360D01*
X0059958Y0023338D01*
X0060028Y0023312D01*
X0060097Y0023282D01*
X0060163Y0023249D01*
X0060228Y0023212D01*
X0060291Y0023172D01*
X0060352Y0023128D01*
X0060410Y0023082D01*
X0060466Y0023032D01*
X0060519Y0022980D01*
X0060570Y0022925D01*
X0060617Y0022867D01*
X0060661Y0022807D01*
X0060702Y0022744D01*
X0060740Y0022680D01*
X0060774Y0022614D01*
X0060805Y0022545D01*
X0060832Y0022476D01*
X0060855Y0022405D01*
X0060874Y0022333D01*
X0060890Y0022260D01*
X0060902Y0022186D01*
X0060910Y0022112D01*
X0060914Y0022037D01*
X0060914Y0021963D01*
X0060910Y0021888D01*
X0060902Y0021814D01*
X0060890Y0021740D01*
X0060874Y0021667D01*
X0060855Y0021595D01*
X0060832Y0021524D01*
X0060805Y0021455D01*
X0060774Y0021386D01*
X0060740Y0021320D01*
X0060702Y0021256D01*
X0060661Y0021193D01*
X0060617Y0021133D01*
X0060570Y0021075D01*
X0060519Y0021020D01*
X0060466Y0020968D01*
X0060410Y0020918D01*
X0060352Y0020872D01*
X0060291Y0020828D01*
X0060228Y0020788D01*
X0060163Y0020751D01*
X0060097Y0020718D01*
X0060028Y0020688D01*
X0059958Y0020662D01*
X0059887Y0020640D01*
X0059815Y0020621D01*
X0059741Y0020607D01*
X0059668Y0020596D01*
X0059593Y0020589D01*
X0059519Y0020586D01*
X0059444Y0020587D01*
X0059370Y0020592D01*
X0059295Y0020601D01*
X0059222Y0020614D01*
X0059149Y0020630D01*
X0059077Y0020651D01*
X0059007Y0020675D01*
X0058937Y0020703D01*
X0058870Y0020734D01*
X0058804Y0020769D01*
X0058740Y0020808D01*
X0058678Y0020850D01*
X0058618Y0020894D01*
X0058561Y0020943D01*
X0058507Y0020994D01*
X0058455Y0021047D01*
X0058406Y0021104D01*
X0058360Y0021163D01*
X0058318Y0021224D01*
X0058279Y0021288D01*
X0058243Y0021353D01*
X0058210Y0021420D01*
X0058181Y0021489D01*
X0058156Y0021560D01*
X0058135Y0021631D01*
X0058117Y0021704D01*
X0058104Y0021777D01*
X0058094Y0021851D01*
X0058088Y0021925D01*
X0058086Y0022000D01*
X0074000Y0024000D02*
X0074000Y0019000D01*
X0076500Y0016500D01*
X0074000Y0016500D01*
X0074000Y0006500D01*
X0084000Y0006500D01*
X0084000Y0016500D01*
X0081500Y0016500D01*
X0084000Y0019000D01*
X0084000Y0024000D01*
X0081500Y0026500D01*
X0084000Y0029000D01*
X0084000Y0034000D01*
X0081500Y0036500D01*
X0076500Y0036500D01*
X0074000Y0039000D01*
X0074000Y0044000D01*
X0076500Y0046500D01*
X0081500Y0046500D01*
X0084000Y0044000D01*
X0084000Y0039000D01*
X0081500Y0036500D01*
X0076500Y0036500D01*
X0074000Y0034000D01*
X0074000Y0029000D01*
X0076500Y0026500D01*
X0081500Y0026500D01*
X0076500Y0026500D02*
X0074000Y0024000D01*
X0076500Y0016500D02*
X0081500Y0016500D01*
X0098000Y0043000D02*
X0100500Y0041500D01*
X0098000Y0043000D02*
X0100500Y0044500D01*
X0103000Y0043000D02*
X0098000Y0043000D01*
X0095500Y0046500D02*
X0105500Y0046500D01*
X0105500Y0056500D01*
X0103000Y0056500D01*
X0105500Y0059000D01*
X0105500Y0064000D01*
X0103000Y0066500D01*
X0098000Y0066500D01*
X0095500Y0064000D01*
X0095500Y0059000D01*
X0098000Y0056500D01*
X0095500Y0056500D01*
X0095500Y0046500D01*
X0093806Y0049400D02*
X0091004Y0053604D01*
X0089202Y0052903D02*
X0089202Y0051502D01*
X0088502Y0050801D01*
X0086400Y0050801D01*
X0087801Y0050801D02*
X0089202Y0049400D01*
X0091004Y0049400D02*
X0093806Y0053604D01*
X0089202Y0052903D02*
X0088502Y0053604D01*
X0086400Y0053604D01*
X0086400Y0049400D01*
X0084000Y0049000D02*
X0081500Y0046500D01*
X0084000Y0049000D02*
X0084000Y0054000D01*
X0081500Y0056500D01*
X0084000Y0056500D01*
X0084000Y0066500D01*
X0074000Y0066500D01*
X0074000Y0056500D01*
X0076500Y0056500D01*
X0074000Y0054000D01*
X0074000Y0049000D01*
X0076500Y0046500D01*
X0076500Y0056500D02*
X0081500Y0056500D01*
X0087801Y0059400D02*
X0087801Y0063604D01*
X0086400Y0063604D02*
X0089202Y0063604D01*
X0091004Y0063604D02*
X0093806Y0059400D01*
X0091004Y0059400D02*
X0093806Y0063604D01*
X0100500Y0068500D02*
X0103000Y0070000D01*
X0100500Y0071500D01*
X0098000Y0070000D02*
X0103000Y0070000D01*
X0106500Y0081500D02*
X0106500Y0090500D01*
X0085500Y0090500D01*
X0085500Y0081500D01*
X0106500Y0081500D01*
X0104514Y0083900D02*
X0101712Y0083900D01*
X0104514Y0086702D01*
X0104514Y0087403D01*
X0103814Y0088104D01*
X0102412Y0088104D01*
X0101712Y0087403D01*
X0099910Y0087403D02*
X0099210Y0088104D01*
X0097108Y0088104D01*
X0097108Y0083900D01*
X0099210Y0083900D01*
X0099910Y0084601D01*
X0099910Y0087403D01*
X0095306Y0087403D02*
X0095306Y0086702D01*
X0094606Y0086002D01*
X0092504Y0086002D01*
X0092504Y0083900D02*
X0092504Y0088104D01*
X0094606Y0088104D01*
X0095306Y0087403D01*
X0094606Y0086002D02*
X0095306Y0085301D01*
X0095306Y0084601D01*
X0094606Y0083900D01*
X0092504Y0083900D01*
X0090702Y0084601D02*
X0090002Y0083900D01*
X0088601Y0083900D01*
X0087900Y0084601D01*
X0087900Y0087403D01*
X0088601Y0088104D01*
X0090002Y0088104D01*
X0090702Y0087403D01*
X0090702Y0084601D01*
X0098000Y0056500D02*
X0103000Y0056500D01*
X0011500Y0070000D02*
X0009500Y0068500D01*
X0011500Y0070000D02*
X0007000Y0070000D01*
X0009500Y0071500D02*
X0011500Y0070000D01*
D11*
X0018500Y0036500D02*
X0018500Y0032500D01*
X0018500Y0020500D02*
X0018500Y0016500D01*
X0016500Y0018500D02*
X0020500Y0018500D01*
M02*
