<svg version="1.1" xmlns="http://www.w3.org/2000/svg" xmlns:xlink="http://www.w3.org/1999/xlink" stroke-linecap="round" stroke-linejoin="round" stroke-width="0" fill-rule="evenodd" clip-rule="evenodd" id="TnWwAzKxW-qyUUdb7jdk_top" viewBox="15 15 1181.1 984.25" width="1.1810999999999998in" height="0.98425in" class="w-100 h-100"><defs><style>.TnWwAzKxW-qyUUdb7jdk_fr4 {color: #666666;}
.TnWwAzKxW-qyUUdb7jdk_cu {color: #cccccc;}
.TnWwAzKxW-qyUUdb7jdk_cf {color: #cc9933;}
.TnWwAzKxW-qyUUdb7jdk_sm {color: #004200; opacity: 0.75;}
.TnWwAzKxW-qyUUdb7jdk_ss {color: #ffffff;}
.TnWwAzKxW-qyUUdb7jdk_sp {color: #999999;}
.TnWwAzKxW-qyUUdb7jdk_out {color: #000000;}</style><circle cx="0" cy="0" r="51.56" id="c7oWBynipoQg7S6gVpTH_pad-10"/><rect x="-41.4" y="-41.4" width="82.8" height="82.8" id="c7oWBynipoQg7S6gVpTH_pad-11"/><circle cx="0" cy="0" r="41.4" id="c7oWBynipoQg7S6gVpTH_pad-12"/><circle cx="0" cy="0" r="47.56" id="rjnDM0v62vPxKa91VC5g_pad-10"/><rect x="-37.4" y="-37.4" width="74.8" height="74.8" id="rjnDM0v62vPxKa91VC5g_pad-11"/><circle cx="0" cy="0" r="37.4" id="rjnDM0v62vPxKa91VC5g_pad-12"/><circle cx="0" cy="0" r="19.7" id="zOMnme3Ivdr2yyB_pcCF_pad-1"/><circle cx="0" cy="0" r="27.55" id="zOMnme3Ivdr2yyB_pcCF_pad-2"/><g id="TnWwAzKxW-qyUUdb7jdk_top_soldermask"><use xlink:href="#c7oWBynipoQg7S6gVpTH_pad-10" x="274.09" y="220"/><use xlink:href="#c7oWBynipoQg7S6gVpTH_pad-10" x="274.09" y="420"/><use xlink:href="#c7oWBynipoQg7S6gVpTH_pad-10" x="274.09" y="600"/><use xlink:href="#c7oWBynipoQg7S6gVpTH_pad-10" x="274.09" y="800"/><use xlink:href="#c7oWBynipoQg7S6gVpTH_pad-10" x="530" y="800"/><use xlink:href="#c7oWBynipoQg7S6gVpTH_pad-10" x="530" y="600"/><use xlink:href="#c7oWBynipoQg7S6gVpTH_pad-10" x="530" y="420"/><use xlink:href="#c7oWBynipoQg7S6gVpTH_pad-10" x="740" y="540"/><use xlink:href="#c7oWBynipoQg7S6gVpTH_pad-10" x="940" y="540"/><use xlink:href="#c7oWBynipoQg7S6gVpTH_pad-10" x="530" y="220"/><use xlink:href="#c7oWBynipoQg7S6gVpTH_pad-11" x="1070" y="130"/><use xlink:href="#c7oWBynipoQg7S6gVpTH_pad-12" x="970" y="130"/><use xlink:href="#c7oWBynipoQg7S6gVpTH_pad-12" x="870" y="130"/><use xlink:href="#c7oWBynipoQg7S6gVpTH_pad-12" x="770" y="130"/></g><g id="TnWwAzKxW-qyUUdb7jdk_top_copper"><use xlink:href="#rjnDM0v62vPxKa91VC5g_pad-10" x="274.09" y="220"/><use xlink:href="#rjnDM0v62vPxKa91VC5g_pad-10" x="274.09" y="420"/><use xlink:href="#rjnDM0v62vPxKa91VC5g_pad-10" x="274.09" y="600"/><use xlink:href="#rjnDM0v62vPxKa91VC5g_pad-10" x="274.09" y="800"/><use xlink:href="#rjnDM0v62vPxKa91VC5g_pad-10" x="530" y="800"/><use xlink:href="#rjnDM0v62vPxKa91VC5g_pad-10" x="530" y="600"/><use xlink:href="#rjnDM0v62vPxKa91VC5g_pad-10" x="530" y="420"/><use xlink:href="#rjnDM0v62vPxKa91VC5g_pad-10" x="740" y="540"/><use xlink:href="#rjnDM0v62vPxKa91VC5g_pad-10" x="940" y="540"/><use xlink:href="#rjnDM0v62vPxKa91VC5g_pad-10" x="530" y="220"/><use xlink:href="#rjnDM0v62vPxKa91VC5g_pad-11" x="1070" y="130"/><use xlink:href="#rjnDM0v62vPxKa91VC5g_pad-12" x="970" y="130"/><use xlink:href="#rjnDM0v62vPxKa91VC5g_pad-12" x="870" y="130"/><use xlink:href="#rjnDM0v62vPxKa91VC5g_pad-12" x="770" y="130"/><path d="M 29 29 29 985.25 1182.1 985.25 1182.1 29 29 29 M 29 34.97 1182.1 34.97 M 1182.1 44.96 29 44.96 M 29 54.94 1182.1 54.94 M 1182.1 64.93 29 64.93 M 29 74.91 1182.1 74.91 M 1182.1 84.9 1116.67 84.9 M 1119.4 87.63 1119.4 172.37 1112.37 179.4 1027.63 179.4 1020.6 172.37 1020.6 87.63 1027.63 80.6 1112.37 80.6 1119.4 87.63 M 1119.4 94.88 1182.1 94.88 M 1182.1 104.87 1119.4 104.87 M 1119.4 114.85 1182.1 114.85 M 1182.1 124.84 1119.4 124.84 M 1119.4 134.82 1182.1 134.82 M 1182.1 144.81 1119.4 144.81 M 1119.4 154.79 1182.1 154.79 M 1182.1 164.78 1119.4 164.78 M 1117.01 174.76 1182.1 174.76 M 1182.1 184.75 578.98 184.75 M 580.49 186.26 589.56 208.15 589.56 231.85 580.49 253.74 563.74 270.49 541.85 279.56 518.15 279.56 496.26 270.49 479.51 253.74 470.44 231.85 470.44 208.15 479.51 186.26 496.26 169.51 518.15 160.44 541.85 160.44 563.74 169.51 580.49 186.26 M 584 194.73 1182.1 194.73 M 1182.1 204.72 588.14 204.72 M 589.56 214.7 1182.1 214.7 M 1182.1 224.69 589.56 224.69 M 588.39 234.67 1182.1 234.67 M 1182.1 244.66 584.25 244.66 M 579.59 254.64 1182.1 254.64 M 1182.1 264.63 569.6 264.63 M 553.79 274.61 1182.1 274.61 M 1182.1 284.6 29 284.6 M 29 294.58 1182.1 294.58 M 1182.1 304.57 29 304.57 M 29 314.55 1182.1 314.55 M 1182.1 324.54 29 324.54 M 29 334.52 1182.1 334.52 M 1182.1 344.51 29 344.51 M 29 354.49 1182.1 354.49 M 1182.1 364.48 551.6 364.48 M 541.85 360.44 563.74 369.51 580.49 386.26 589.56 408.15 589.56 431.85 580.49 453.74 563.74 470.49 541.85 479.56 518.15 479.56 496.26 470.49 479.51 453.74 470.44 431.85 470.44 408.15 479.51 386.26 496.26 369.51 518.15 360.44 541.85 360.44 M 568.69 374.46 1182.1 374.46 M 1182.1 384.45 578.68 384.45 M 583.88 394.43 1182.1 394.43 M 1182.1 404.42 588.01 404.42 M 589.56 414.4 1182.1 414.4 M 1182.1 424.39 589.56 424.39 M 588.51 434.37 1182.1 434.37 M 1182.1 444.36 584.38 444.36 M 579.88 454.34 1182.1 454.34 M 1182.1 464.33 569.9 464.33 M 554.51 474.32 1182.1 474.32 M 1182.1 484.3 968.48 484.3 M 972.79 486.49 964.01 482.02 954.65 478.98 945 477.45 945 535 945 545 935 545 935 602.55 925.35 601.02 915.99 597.98 907.21 593.51 899.25 587.72 892.28 580.75 886.49 572.79 882.02 564.01 878.98 554.65 877.45 545 935 545 935 535 877.45 535 878.98 525.35 882.02 515.99 886.49 507.21 892.28 499.25 899.25 492.28 907.21 486.49 915.99 482.02 925.35 478.98 935 477.45 935 535 945 535 1002.55 535 1001.02 525.35 997.98 515.99 993.51 507.21 987.72 499.25 980.75 492.28 972.79 486.49 M 982.76 494.29 1182.1 494.29 M 1182.1 504.27 991.37 504.27 M 997.09 514.26 1182.1 514.26 M 1182.1 524.24 1000.66 524.24 M 1002.42 534.23 1182.1 534.23 M 1182.1 544.21 945 544.21 M 945 545 1002.55 545 1001.02 554.65 997.98 564.01 993.51 572.79 987.72 580.75 980.75 587.72 972.79 593.51 964.01 597.98 954.65 601.02 945 602.55 945 545 M 945 554.2 935 554.2 M 935 564.18 945 564.18 M 945 574.17 935 574.17 M 935 584.15 945 584.15 M 945 594.14 935 594.14 M 908.45 594.14 771.55 594.14 M 772.79 593.51 764.01 597.98 754.65 601.02 745 602.55 745 545 735 545 735 602.55 725.35 601.02 715.99 597.98 707.21 593.51 699.25 587.72 692.28 580.75 686.49 572.79 682.02 564.01 678.98 554.65 677.45 545 735 545 735 535 677.45 535 678.98 525.35 682.02 515.99 686.49 507.21 692.28 499.25 699.25 492.28 707.21 486.49 715.99 482.02 725.35 478.98 735 477.45 735 535 745 535 745 545 802.55 545 801.02 554.65 797.98 564.01 793.51 572.79 787.72 580.75 780.75 587.72 772.79 593.51 M 784.32 584.15 895.68 584.15 M 887.5 574.17 792.5 574.17 M 797.89 564.18 882.11 564.18 M 878.91 554.2 801.09 554.2 M 802.55 535 745 535 745 477.45 754.65 478.98 764.01 482.02 772.79 486.49 780.75 492.28 787.72 499.25 793.51 507.21 797.98 515.99 801.02 525.35 802.55 535 M 802.42 534.23 877.58 534.23 M 879.34 524.24 800.66 524.24 M 797.09 514.26 882.91 514.26 M 888.63 504.27 791.37 504.27 M 782.76 494.29 897.24 494.29 M 911.52 484.3 768.48 484.3 M 745 484.3 735 484.3 M 735 494.29 745 494.29 M 745 504.27 735 504.27 M 735 514.26 745 514.26 M 745 524.24 735 524.24 M 735 534.23 745 534.23 M 745 544.21 935 544.21 M 935 534.23 945 534.23 M 945 524.24 935 524.24 M 935 514.26 945 514.26 M 945 504.27 935 504.27 M 935 494.29 945 494.29 M 945 484.3 935 484.3 M 1001.09 554.2 1182.1 554.2 M 1182.1 564.18 997.89 564.18 M 992.5 574.17 1182.1 574.17 M 1182.1 584.15 984.32 584.15 M 971.55 594.14 1182.1 594.14 M 1182.1 604.12 589.56 604.12 M 589.56 611.85 580.49 633.74 563.74 650.49 541.85 659.56 518.15 659.56 496.26 650.49 479.51 633.74 470.44 611.85 470.44 588.15 479.51 566.26 496.26 549.51 518.15 540.44 541.85 540.44 563.74 549.51 580.49 566.26 589.56 588.15 589.56 611.85 M 588.62 614.11 1182.1 614.11 M 1182.1 624.09 584.49 624.09 M 580.15 634.08 1182.1 634.08 M 1182.1 644.06 570.17 644.06 M 555.15 654.05 1182.1 654.05 M 1182.1 664.03 29 664.03 M 29 654.05 248.94 654.05 M 240.36 650.49 262.25 659.56 285.94 659.56 307.83 650.49 324.59 633.74 333.65 611.85 333.65 588.15 324.59 566.26 307.83 549.51 285.94 540.44 262.25 540.44 240.36 549.51 223.6 566.26 214.54 588.15 214.54 611.85 223.6 633.74 240.36 650.49 M 233.93 644.06 29 644.06 M 29 634.08 223.94 634.08 M 219.61 624.09 29 624.09 M 29 614.11 215.47 614.11 M 214.54 604.12 29 604.12 M 29 594.14 214.54 594.14 M 216.19 584.15 29 584.15 M 29 574.17 220.33 574.17 M 225.68 564.18 29 564.18 M 29 554.2 235.67 554.2 M 253.15 544.21 29 544.21 M 29 534.23 677.58 534.23 M 679.34 524.24 29 524.24 M 29 514.26 682.91 514.26 M 688.63 504.27 29 504.27 M 29 494.29 697.24 494.29 M 711.52 484.3 29 484.3 M 29 474.32 249.59 474.32 M 240.36 470.49 262.25 479.56 285.94 479.56 307.83 470.49 324.59 453.74 333.65 431.85 333.65 408.15 324.59 386.26 307.83 369.51 285.94 360.44 262.25 360.44 240.36 369.51 223.6 386.26 214.54 408.15 214.54 431.85 223.6 453.74 240.36 470.49 M 234.2 464.33 29 464.33 M 29 454.34 224.21 454.34 M 219.72 444.36 29 444.36 M 29 434.37 215.58 434.37 M 214.54 424.39 29 424.39 M 29 414.4 214.54 414.4 M 216.08 404.42 29 404.42 M 29 394.43 220.22 394.43 M 225.42 384.45 29 384.45 M 29 374.46 235.4 374.46 M 252.5 364.48 29 364.48 M 29 274.61 250.31 274.61 M 240.36 270.49 223.6 253.74 214.54 231.85 214.54 208.15 223.6 186.26 240.36 169.51 262.25 160.44 285.94 160.44 307.83 169.51 324.59 186.26 333.65 208.15 333.65 231.85 324.59 253.74 307.83 270.49 285.94 279.56 262.25 279.56 240.36 270.49 M 234.49 264.63 29 264.63 M 29 254.64 224.51 254.64 M 219.84 244.66 29 244.66 M 29 234.67 215.71 234.67 M 214.54 224.69 29 224.69 M 29 214.7 214.54 214.7 M 215.96 204.72 29 204.72 M 29 194.73 220.09 194.73 M 225.12 184.75 29 184.75 M 29 174.76 235.1 174.76 M 251.78 164.78 29 164.78 M 29 154.79 723.82 154.79 M 725.18 157.46 721.44 150.12 718.89 142.27 717.71 134.84 765.16 134.84 765.16 125.16 717.71 125.16 718.89 117.73 721.44 109.88 725.18 102.54 730.03 95.86 735.86 90.03 742.54 85.18 749.88 81.44 757.73 78.89 765.16 77.71 765.16 125.16 774.84 125.16 774.84 77.71 782.27 78.89 790.12 81.44 797.46 85.18 804.14 90.03 809.97 95.86 814.82 102.54 818.56 109.88 821.11 117.73 821.25 118.6 828.12 102.02 842.02 88.12 860.17 80.6 879.83 80.6 897.98 88.12 911.88 102.02 919.4 120.17 919.4 139.83 911.88 157.98 897.98 171.88 879.83 179.4 860.17 179.4 842.02 171.88 828.12 157.98 821.25 141.4 821.11 142.27 818.56 150.12 814.82 157.46 809.97 164.14 804.14 169.97 797.46 174.82 790.12 178.56 782.27 181.11 774.84 182.29 774.84 134.84 765.16 134.84 765.16 182.29 757.73 181.11 749.88 178.56 742.54 174.82 735.86 169.97 730.03 164.14 725.18 157.46 M 730.67 164.78 552.31 164.78 M 568.99 174.76 742.46 174.76 M 765.16 174.76 774.84 174.76 M 774.84 164.78 765.16 164.78 M 765.16 154.79 774.84 154.79 M 774.84 144.81 765.16 144.81 M 765.16 134.82 29 134.82 M 29 124.84 717.76 124.84 M 719.82 114.85 29 114.85 M 29 104.87 723.99 104.87 M 731.01 94.88 29 94.88 M 29 84.9 743.1 84.9 M 765.16 84.9 774.84 84.9 M 774.84 94.88 765.16 94.88 M 765.16 104.87 774.84 104.87 M 774.84 114.85 765.16 114.85 M 765.16 124.84 774.84 124.84 M 808.99 94.88 835.25 94.88 M 826.94 104.87 816.01 104.87 M 820.18 114.85 822.8 114.85 M 822.66 144.81 820.29 144.81 M 816.18 154.79 826.8 154.79 M 834.91 164.78 809.33 164.78 M 797.54 174.76 848.97 174.76 M 891.03 174.76 948.97 174.76 M 942.02 171.88 928.12 157.98 920.6 139.83 920.6 120.17 928.12 102.02 942.02 88.12 960.17 80.6 979.83 80.6 997.98 88.12 1011.88 102.02 1019.4 120.17 1019.4 139.83 1011.88 157.98 997.98 171.88 979.83 179.4 960.17 179.4 942.02 171.88 M 934.91 164.78 905.09 164.78 M 913.2 154.79 926.8 154.79 M 922.66 144.81 917.34 144.81 M 919.4 134.82 920.6 134.82 M 920.6 124.84 919.4 124.84 M 917.2 114.85 922.8 114.85 M 926.94 104.87 913.06 104.87 M 904.75 94.88 935.25 94.88 M 949.8 84.9 890.2 84.9 M 849.8 84.9 796.9 84.9 M 719.71 144.81 29 144.81 M 296.41 164.78 507.69 164.78 M 491.01 174.76 313.09 174.76 M 323.07 184.75 481.02 184.75 M 476 194.73 328.09 194.73 M 332.23 204.72 471.86 204.72 M 470.44 214.7 333.65 214.7 M 333.65 224.69 470.44 224.69 M 471.61 234.67 332.48 234.67 M 328.35 244.66 475.75 244.66 M 480.41 254.64 323.68 254.64 M 313.7 264.63 490.4 264.63 M 506.21 274.61 297.88 274.61 M 295.69 364.48 508.4 364.48 M 491.31 374.46 312.79 374.46 M 322.77 384.45 481.32 384.45 M 476.12 394.43 327.97 394.43 M 332.11 404.42 471.99 404.42 M 470.44 414.4 333.65 414.4 M 333.65 424.39 470.44 424.39 M 471.49 434.37 332.61 434.37 M 328.47 444.36 475.62 444.36 M 480.12 454.34 323.98 454.34 M 313.99 464.33 490.1 464.33 M 505.49 474.32 298.6 474.32 M 295.04 544.21 509.05 544.21 M 491.57 554.2 312.52 554.2 M 322.5 564.18 481.59 564.18 M 476.23 574.17 327.86 574.17 M 332 584.15 472.1 584.15 M 470.44 594.14 333.65 594.14 M 333.65 604.12 470.44 604.12 M 471.38 614.11 332.72 614.11 M 328.58 624.09 475.51 624.09 M 479.85 634.08 324.25 634.08 M 314.26 644.06 489.83 644.06 M 504.85 654.05 299.25 654.05 M 285.94 740.44 262.25 740.44 240.36 749.51 223.6 766.26 214.54 788.15 214.54 811.85 223.6 833.74 240.36 850.49 262.25 859.56 285.94 859.56 307.83 850.49 324.59 833.74 333.65 811.85 333.65 788.15 324.59 766.26 307.83 749.51 285.94 740.44 M 294.32 743.91 509.77 743.91 M 518.15 740.44 541.85 740.44 563.74 749.51 580.49 766.26 589.56 788.15 589.56 811.85 580.49 833.74 563.74 850.49 541.85 859.56 518.15 859.56 496.26 850.49 479.51 833.74 470.44 811.85 470.44 788.15 479.51 766.26 496.26 749.51 518.15 740.44 M 491.87 753.9 312.22 753.9 M 322.21 763.88 481.89 763.88 M 476.36 773.87 327.74 773.87 M 331.87 783.85 472.22 783.85 M 470.44 793.84 333.65 793.84 M 333.65 803.82 470.44 803.82 M 471.25 813.81 332.84 813.81 M 328.7 823.79 475.39 823.79 M 479.55 833.78 324.54 833.78 M 314.56 843.76 489.54 843.76 M 504.13 853.75 299.97 853.75 M 248.22 853.75 29 853.75 M 29 863.73 1182.1 863.73 M 1182.1 853.75 555.87 853.75 M 570.46 843.76 1182.1 843.76 M 1182.1 833.78 580.45 833.78 M 584.61 823.79 1182.1 823.79 M 1182.1 813.81 588.75 813.81 M 589.56 803.82 1182.1 803.82 M 1182.1 793.84 589.56 793.84 M 587.78 783.85 1182.1 783.85 M 1182.1 773.87 583.64 773.87 M 578.11 763.88 1182.1 763.88 M 1182.1 753.9 568.13 753.9 M 550.23 743.91 1182.1 743.91 M 1182.1 733.93 29 733.93 M 29 743.91 253.86 743.91 M 235.97 753.9 29 753.9 M 29 763.88 225.98 763.88 M 220.45 773.87 29 773.87 M 29 783.85 216.32 783.85 M 214.54 793.84 29 793.84 M 29 803.82 214.54 803.82 M 215.35 813.81 29 813.81 M 29 823.79 219.48 823.79 M 223.64 833.78 29 833.78 M 29 843.76 233.63 843.76 M 29 873.72 1182.1 873.72 M 1182.1 883.7 29 883.7 M 29 893.69 1182.1 893.69 M 1182.1 903.68 29 903.68 M 29 913.66 1182.1 913.66 M 1182.1 923.65 29 923.65 M 29 933.63 1182.1 933.63 M 1182.1 943.62 29 943.62 M 29 953.6 1182.1 953.6 M 1182.1 963.59 29 963.59 M 29 973.57 1182.1 973.57 M 1182.1 983.56 29 983.56 M 29 723.94 1182.1 723.94 M 1182.1 713.96 29 713.96 M 29 703.97 1182.1 703.97 M 1182.1 693.99 29 693.99 M 29 684 1182.1 684 M 1182.1 674.02 29 674.02 M 550.95 544.21 735 544.21 M 735 554.2 745 554.2 M 745 564.18 735 564.18 M 735 574.17 745 574.17 M 745 584.15 735 584.15 M 735 594.14 745 594.14 M 708.45 594.14 589.56 594.14 M 587.9 584.15 695.68 584.15 M 687.5 574.17 583.77 574.17 M 578.41 564.18 682.11 564.18 M 678.91 554.2 568.43 554.2 M 991.03 174.76 1022.99 174.76 M 1020.6 164.78 1005.09 164.78 M 1013.2 154.79 1020.6 154.79 M 1020.6 144.81 1017.34 144.81 M 1019.4 134.82 1020.6 134.82 M 1020.6 124.84 1019.4 124.84 M 1020.6 114.85 1017.2 114.85 M 1020.6 104.87 1013.06 104.87 M 1020.6 94.88 1004.75 94.88 M 990.2 84.9 1023.33 84.9" fill="none" stroke-width="10"/></g><g id="TnWwAzKxW-qyUUdb7jdk_top_silkscreen"><path d="M 155 100 650 100 650 420 1060 420 1060 920 155 920 155 100" fill="none" stroke-width="19.69"/><path d="M 199.09 145 199.09 495 349.09 495 349.09 145 199.09 145 M 455 145 455 495 605 495 605 145 455 145 M 665 465 665 615 1015 615 1015 465 665 465 M 605 525 455 525 455 875 605 875 605 525 M 349.09 525 199.09 525 199.09 875 349.09 875 349.09 525" fill="none" stroke-width="8"/></g><g id="TnWwAzKxW-qyUUdb7jdk_top_drill1"><use xlink:href="#zOMnme3Ivdr2yyB_pcCF_pad-1" x="770" y="130"/><use xlink:href="#zOMnme3Ivdr2yyB_pcCF_pad-1" x="870" y="130"/><use xlink:href="#zOMnme3Ivdr2yyB_pcCF_pad-1" x="970" y="130"/><use xlink:href="#zOMnme3Ivdr2yyB_pcCF_pad-1" x="1070" y="130"/><use xlink:href="#zOMnme3Ivdr2yyB_pcCF_pad-2" x="274.1" y="220"/><use xlink:href="#zOMnme3Ivdr2yyB_pcCF_pad-2" x="274.1" y="420"/><use xlink:href="#zOMnme3Ivdr2yyB_pcCF_pad-2" x="274.1" y="600"/><use xlink:href="#zOMnme3Ivdr2yyB_pcCF_pad-2" x="274.1" y="800"/><use xlink:href="#zOMnme3Ivdr2yyB_pcCF_pad-2" x="530" y="800"/><use xlink:href="#zOMnme3Ivdr2yyB_pcCF_pad-2" x="530" y="600"/><use xlink:href="#zOMnme3Ivdr2yyB_pcCF_pad-2" x="530" y="420"/><use xlink:href="#zOMnme3Ivdr2yyB_pcCF_pad-2" x="740" y="540"/><use xlink:href="#zOMnme3Ivdr2yyB_pcCF_pad-2" x="940" y="540"/><use xlink:href="#zOMnme3Ivdr2yyB_pcCF_pad-2" x="530" y="220"/></g><clipPath id="TnWwAzKxW-qyUUdb7jdk_top_outline"><path d="M 15 15 15 999.25 1196.1 999.25 1196.1 15 15 15" fill="none" stroke-width="0"/></clipPath><mask id="TnWwAzKxW-qyUUdb7jdk_top_mech-mask"><g fill="#000" stroke="#000"><rect x="15" y="15" width="1181.1" height="984.25" fill="#fff"/><use xlink:href="#TnWwAzKxW-qyUUdb7jdk_top_drill1"/></g></mask><mask id="TnWwAzKxW-qyUUdb7jdk_top_cf-mask"><g fill="#fff" stroke="#fff"><use xlink:href="#TnWwAzKxW-qyUUdb7jdk_top_soldermask"/></g></mask><mask id="TnWwAzKxW-qyUUdb7jdk_top_sm-mask"><g fill="#000" stroke="#000"><rect x="15" y="15" width="1181.1" height="984.25" fill="#fff"/><use xlink:href="#TnWwAzKxW-qyUUdb7jdk_top_soldermask"/></g></mask></defs><g transform="translate(0,1014.25) scale(1,-1)"><g mask="url(#TnWwAzKxW-qyUUdb7jdk_top_mech-mask)" clip-path="url(#TnWwAzKxW-qyUUdb7jdk_top_outline)"><rect x="15" y="15" width="1181.1" height="984.25" fill="currentColor" class="TnWwAzKxW-qyUUdb7jdk_fr4"/><use xlink:href="#TnWwAzKxW-qyUUdb7jdk_top_copper" fill="currentColor" stroke="currentColor" class="TnWwAzKxW-qyUUdb7jdk_cu"/><use xlink:href="#TnWwAzKxW-qyUUdb7jdk_top_copper" fill="currentColor" stroke="currentColor" class="TnWwAzKxW-qyUUdb7jdk_cf" mask="url(#TnWwAzKxW-qyUUdb7jdk_top_cf-mask)"/><g mask="url(#TnWwAzKxW-qyUUdb7jdk_top_sm-mask)"><rect x="15" y="15" width="1181.1" height="984.25" fill="currentColor" class="TnWwAzKxW-qyUUdb7jdk_sm"/><use xlink:href="#TnWwAzKxW-qyUUdb7jdk_top_silkscreen" fill="currentColor" stroke="currentColor" class="TnWwAzKxW-qyUUdb7jdk_ss"/></g></g></g></svg>