<svg version="1.1" xmlns="http://www.w3.org/2000/svg" xmlns:xlink="http://www.w3.org/1999/xlink" stroke-linecap="round" stroke-linejoin="round" stroke-width="0" fill-rule="evenodd" clip-rule="evenodd" id="TnWwAzKxW-qyUUdb7jdk_bottom" viewBox="15 15 1181.1 984.25" width="1.1810999999999998in" height="0.98425in" class="w-100 h-100"><defs><style>.TnWwAzKxW-qyUUdb7jdk_fr4 {color: #666666;}
.TnWwAzKxW-qyUUdb7jdk_cu {color: #cccccc;}
.TnWwAzKxW-qyUUdb7jdk_cf {color: #cc9933;}
.TnWwAzKxW-qyUUdb7jdk_sm {color: #004200; opacity: 0.75;}
.TnWwAzKxW-qyUUdb7jdk_ss {color: #ffffff;}
.TnWwAzKxW-qyUUdb7jdk_sp {color: #999999;}
.TnWwAzKxW-qyUUdb7jdk_out {color: #000000;}</style><circle cx="0" cy="0" r="51.56" id="ZKJrb5BkaBzyD6nw8m7X_pad-10"/><rect x="-41.4" y="-41.4" width="82.8" height="82.8" id="ZKJrb5BkaBzyD6nw8m7X_pad-11"/><circle cx="0" cy="0" r="41.4" id="ZKJrb5BkaBzyD6nw8m7X_pad-12"/><circle cx="0" cy="0" r="47.56" id="vOuoFQx3V6pPxgNsSKag_pad-10"/><rect x="-37.4" y="-37.4" width="74.8" height="74.8" id="vOuoFQx3V6pPxgNsSKag_pad-11"/><circle cx="0" cy="0" r="37.4" id="vOuoFQx3V6pPxgNsSKag_pad-12"/><circle cx="0" cy="0" r="19.7" id="zOMnme3Ivdr2yyB_pcCF_pad-1"/><circle cx="0" cy="0" r="27.55" id="zOMnme3Ivdr2yyB_pcCF_pad-2"/><g id="TnWwAzKxW-qyUUdb7jdk_bottom_soldermask"><use xlink:href="#ZKJrb5BkaBzyD6nw8m7X_pad-10" x="274.09" y="220"/><use xlink:href="#ZKJrb5BkaBzyD6nw8m7X_pad-10" x="274.09" y="420"/><use xlink:href="#ZKJrb5BkaBzyD6nw8m7X_pad-10" x="274.09" y="600"/><use xlink:href="#ZKJrb5BkaBzyD6nw8m7X_pad-10" x="274.09" y="800"/><use xlink:href="#ZKJrb5BkaBzyD6nw8m7X_pad-10" x="530" y="800"/><use xlink:href="#ZKJrb5BkaBzyD6nw8m7X_pad-10" x="530" y="600"/><use xlink:href="#ZKJrb5BkaBzyD6nw8m7X_pad-10" x="530" y="420"/><use xlink:href="#ZKJrb5BkaBzyD6nw8m7X_pad-10" x="740" y="540"/><use xlink:href="#ZKJrb5BkaBzyD6nw8m7X_pad-10" x="940" y="540"/><use xlink:href="#ZKJrb5BkaBzyD6nw8m7X_pad-10" x="530" y="220"/><use xlink:href="#ZKJrb5BkaBzyD6nw8m7X_pad-11" x="1070" y="130"/><use xlink:href="#ZKJrb5BkaBzyD6nw8m7X_pad-12" x="970" y="130"/><use xlink:href="#ZKJrb5BkaBzyD6nw8m7X_pad-12" x="870" y="130"/><use xlink:href="#ZKJrb5BkaBzyD6nw8m7X_pad-12" x="770" y="130"/></g><g id="TnWwAzKxW-qyUUdb7jdk_bottom_copper"><use xlink:href="#vOuoFQx3V6pPxgNsSKag_pad-10" x="274.09" y="220"/><use xlink:href="#vOuoFQx3V6pPxgNsSKag_pad-10" x="274.09" y="420"/><use xlink:href="#vOuoFQx3V6pPxgNsSKag_pad-10" x="274.09" y="600"/><use xlink:href="#vOuoFQx3V6pPxgNsSKag_pad-10" x="274.09" y="800"/><use xlink:href="#vOuoFQx3V6pPxgNsSKag_pad-10" x="530" y="800"/><use xlink:href="#vOuoFQx3V6pPxgNsSKag_pad-10" x="530" y="600"/><use xlink:href="#vOuoFQx3V6pPxgNsSKag_pad-10" x="530" y="420"/><use xlink:href="#vOuoFQx3V6pPxgNsSKag_pad-10" x="740" y="540"/><use xlink:href="#vOuoFQx3V6pPxgNsSKag_pad-10" x="940" y="540"/><use xlink:href="#vOuoFQx3V6pPxgNsSKag_pad-10" x="530" y="220"/><use xlink:href="#vOuoFQx3V6pPxgNsSKag_pad-11" x="1070" y="130"/><use xlink:href="#vOuoFQx3V6pPxgNsSKag_pad-12" x="970" y="130"/><use xlink:href="#vOuoFQx3V6pPxgNsSKag_pad-12" x="870" y="130"/><use xlink:href="#vOuoFQx3V6pPxgNsSKag_pad-12" x="770" y="130"/><path d="M 29 29 29 985.25 1182.1 985.25 1182.1 29 1013.81 29 1065.41 80.6 1112.37 80.6 1119.4 87.63 1119.4 172.37 1112.37 179.4 1027.63 179.4 1020.6 172.37 1020.6 125.41 1019.4 124.21 1019.4 139.83 1011.88 157.98 997.98 171.88 979.83 179.4 965.41 179.4 579.52 565.29 580.49 566.26 589.56 588.15 589.56 611.85 580.49 633.74 563.74 650.49 561.68 651.34 561.68 748.66 563.74 749.51 580.49 766.26 589.56 788.15 589.56 811.85 580.49 833.74 563.74 850.49 541.85 859.56 518.15 859.56 496.26 850.49 479.51 833.74 470.44 811.85 470.44 788.15 479.51 766.26 496.26 749.51 498.31 748.66 498.31 651.34 496.26 650.49 479.51 633.74 470.44 611.85 470.44 588.15 479.51 566.26 496.26 549.51 512.34 542.85 875.79 179.4 865.41 179.4 711.86 332.95 702.95 341.86 691.3 346.68 561.68 346.68 561.68 368.66 563.74 369.51 580.49 386.26 589.56 408.15 589.56 431.85 580.49 453.74 563.74 470.49 541.85 479.56 518.15 479.56 496.26 470.49 479.51 453.74 470.44 431.85 470.44 408.15 479.51 386.26 496.26 369.51 498.31 368.66 498.31 271.34 496.26 270.49 479.51 253.74 470.44 231.85 470.44 208.15 479.51 186.26 496.26 169.51 518.15 160.44 541.85 160.44 563.74 169.51 580.49 186.26 589.56 208.15 589.56 231.85 580.49 253.74 563.74 270.49 561.68 271.34 561.68 283.31 671.88 283.31 774.84 180.35 774.84 134.84 765.16 134.84 765.16 125.16 717.71 125.16 718.89 117.73 721.44 109.88 725.18 102.54 730.03 95.86 735.86 90.03 742.54 85.18 749.4 81.68 457.22 81.68 332.8 206.1 333.65 208.15 333.65 231.85 324.59 253.74 307.83 270.49 305.78 271.34 305.78 368.66 307.83 369.51 324.59 386.26 333.65 408.15 333.65 431.85 324.59 453.74 307.83 470.49 305.78 471.34 305.78 548.66 307.83 549.51 324.59 566.26 333.65 588.15 333.65 611.85 324.59 633.74 307.83 650.49 305.78 651.34 305.78 748.66 307.83 749.51 324.59 766.26 333.65 788.15 333.65 811.85 324.59 833.74 307.83 850.49 285.94 859.56 262.25 859.56 240.36 850.49 223.6 833.74 214.54 811.85 214.54 788.15 223.6 766.26 240.36 749.51 242.41 748.66 242.41 651.34 240.36 650.49 223.6 633.74 214.54 611.85 214.54 588.15 223.6 566.26 240.36 549.51 242.41 548.66 242.41 471.34 240.36 470.49 223.6 453.74 214.54 431.85 214.54 408.15 223.6 386.26 240.36 369.51 242.41 368.66 242.41 271.34 240.36 270.49 223.6 253.74 214.54 231.85 214.54 208.15 223.6 186.26 240.36 169.51 262.25 160.44 285.94 160.44 287.99 161.29 417.23 32.05 420.29 29 29 29 M 29 34.97 414.31 34.97 M 417.23 32.05 417.23 32.05 M 404.33 44.96 29 44.96 M 29 54.94 394.34 54.94 M 384.36 64.93 29 64.93 M 29 74.91 374.37 74.91 M 364.39 84.9 29 84.9 M 29 94.88 354.4 94.88 M 344.42 104.87 29 104.87 M 29 114.85 334.43 114.85 M 324.45 124.84 29 124.84 M 29 134.82 314.46 134.82 M 304.48 144.81 29 144.81 M 29 154.79 294.49 154.79 M 251.78 164.78 29 164.78 M 29 174.76 235.1 174.76 M 225.12 184.75 29 184.75 M 29 194.73 220.09 194.73 M 215.96 204.72 29 204.72 M 29 214.7 214.54 214.7 M 214.54 224.69 29 224.69 M 29 234.67 215.71 234.67 M 219.84 244.66 29 244.66 M 29 254.64 224.51 254.64 M 234.49 264.63 29 264.63 M 29 274.61 242.41 274.61 M 242.41 284.6 29 284.6 M 29 294.58 242.41 294.58 M 242.41 304.57 29 304.57 M 29 314.55 242.41 314.55 M 242.41 324.54 29 324.54 M 29 334.52 242.41 334.52 M 242.41 344.51 29 344.51 M 29 354.49 242.41 354.49 M 242.41 364.48 29 364.48 M 29 374.46 235.4 374.46 M 225.42 384.45 29 384.45 M 29 394.43 220.22 394.43 M 216.08 404.42 29 404.42 M 29 414.4 214.54 414.4 M 214.54 424.39 29 424.39 M 29 434.37 215.58 434.37 M 219.72 444.36 29 444.36 M 29 454.34 224.21 454.34 M 234.2 464.33 29 464.33 M 29 474.32 242.41 474.32 M 242.41 484.3 29 484.3 M 29 494.29 242.41 494.29 M 242.41 504.27 29 504.27 M 29 514.26 242.41 514.26 M 242.41 524.24 29 524.24 M 29 534.23 242.41 534.23 M 242.41 544.21 29 544.21 M 29 554.2 235.67 554.2 M 225.68 564.18 29 564.18 M 29 574.17 220.33 574.17 M 216.19 584.15 29 584.15 M 29 594.14 214.54 594.14 M 214.54 604.12 29 604.12 M 29 614.11 215.47 614.11 M 219.61 624.09 29 624.09 M 29 634.08 223.94 634.08 M 233.93 644.06 29 644.06 M 29 654.05 242.41 654.05 M 242.41 664.03 29 664.03 M 29 674.02 242.41 674.02 M 242.41 684 29 684 M 29 693.99 242.41 693.99 M 242.41 703.97 29 703.97 M 29 713.96 242.41 713.96 M 242.41 723.94 29 723.94 M 29 733.93 242.41 733.93 M 242.41 743.91 29 743.91 M 29 753.9 235.97 753.9 M 225.98 763.88 29 763.88 M 29 773.87 220.45 773.87 M 216.32 783.85 29 783.85 M 29 793.84 214.54 793.84 M 214.54 803.82 29 803.82 M 29 813.81 215.35 813.81 M 219.48 823.79 29 823.79 M 29 833.78 223.64 833.78 M 233.63 843.76 29 843.76 M 29 853.75 248.22 853.75 M 299.97 853.75 504.13 853.75 M 489.54 843.76 314.56 843.76 M 324.54 833.78 479.55 833.78 M 475.39 823.79 328.7 823.79 M 332.84 813.81 471.25 813.81 M 470.44 803.82 333.65 803.82 M 333.65 793.84 470.44 793.84 M 472.22 783.85 331.87 783.85 M 327.74 773.87 476.36 773.87 M 481.89 763.88 322.21 763.88 M 312.22 753.9 491.87 753.9 M 498.31 743.91 305.78 743.91 M 305.78 733.93 498.31 733.93 M 498.31 723.94 305.78 723.94 M 305.78 713.96 498.31 713.96 M 498.31 703.97 305.78 703.97 M 305.78 693.99 498.31 693.99 M 498.31 684 305.78 684 M 305.78 674.02 498.31 674.02 M 498.31 664.03 305.78 664.03 M 305.78 654.05 498.31 654.05 M 489.83 644.06 314.26 644.06 M 324.25 634.08 479.85 634.08 M 475.51 624.09 328.58 624.09 M 332.72 614.11 471.38 614.11 M 470.44 604.12 333.65 604.12 M 333.65 594.14 470.44 594.14 M 472.1 584.15 332 584.15 M 327.86 574.17 476.23 574.17 M 481.59 564.18 322.5 564.18 M 312.52 554.2 491.57 554.2 M 509.05 544.21 305.78 544.21 M 305.78 534.23 520.96 534.23 M 530.95 524.24 305.78 524.24 M 305.78 514.26 540.93 514.26 M 550.92 504.27 305.78 504.27 M 305.78 494.29 560.91 494.29 M 570.89 484.3 305.78 484.3 M 305.78 474.32 505.49 474.32 M 490.1 464.33 313.99 464.33 M 323.98 454.34 480.12 454.34 M 475.62 444.36 328.47 444.36 M 332.61 434.37 471.49 434.37 M 470.44 424.39 333.65 424.39 M 333.65 414.4 470.44 414.4 M 471.99 404.42 332.11 404.42 M 327.97 394.43 476.12 394.43 M 481.32 384.45 322.77 384.45 M 312.79 374.46 491.31 374.46 M 498.31 364.48 305.78 364.48 M 305.78 354.49 498.31 354.49 M 498.31 344.51 305.78 344.51 M 305.78 334.52 498.31 334.52 M 498.31 324.54 305.78 324.54 M 305.78 314.55 498.31 314.55 M 498.31 304.57 305.78 304.57 M 305.78 294.58 498.31 294.58 M 498.31 284.6 305.78 284.6 M 305.78 274.61 498.31 274.61 M 490.4 264.63 313.7 264.63 M 323.68 254.64 480.41 254.64 M 475.75 244.66 328.35 244.66 M 332.48 234.67 471.61 234.67 M 470.44 224.69 333.65 224.69 M 333.65 214.7 470.44 214.7 M 471.86 204.72 334.19 204.72 M 344.17 194.73 476 194.73 M 481.02 184.75 354.16 184.75 M 364.14 174.76 491.01 174.76 M 507.69 164.78 374.13 164.78 M 384.11 154.79 723.82 154.79 M 725.18 157.46 721.44 150.12 718.89 142.27 717.71 134.84 765.16 134.84 765.16 182.29 757.73 181.11 749.88 178.56 742.54 174.82 735.86 169.97 730.03 164.14 725.18 157.46 M 730.67 164.78 552.31 164.78 M 568.99 174.76 742.46 174.76 M 765.16 174.76 774.84 174.76 M 774.84 164.78 765.16 164.78 M 765.16 154.79 774.84 154.79 M 774.84 144.81 765.16 144.81 M 765.16 134.82 404.08 134.82 M 394.1 144.81 719.71 144.81 M 717.76 124.84 414.07 124.84 M 424.05 114.85 719.82 114.85 M 723.99 104.87 434.04 104.87 M 444.02 94.88 731.01 94.88 M 743.1 84.9 454.01 84.9 M 578.98 184.75 770.44 184.75 M 760.46 194.73 584 194.73 M 588.14 204.72 750.47 204.72 M 740.49 214.7 589.56 214.7 M 589.56 224.69 730.5 224.69 M 720.52 234.67 588.39 234.67 M 584.25 244.66 710.53 244.66 M 700.55 254.64 579.59 254.64 M 569.6 264.63 690.56 264.63 M 680.58 274.61 561.68 274.61 M 561.68 354.49 700.7 354.49 M 696.56 344.51 710.68 344.51 M 710.29 334.52 720.67 334.52 M 720.27 324.54 730.65 324.54 M 730.26 314.55 740.64 314.55 M 740.24 304.57 750.62 304.57 M 750.23 294.58 760.61 294.58 M 760.21 284.6 770.59 284.6 M 770.2 274.61 780.58 274.61 M 780.18 264.63 790.56 264.63 M 790.17 254.64 800.55 254.64 M 800.15 244.66 810.53 244.66 M 810.14 234.67 820.52 234.67 M 820.12 224.69 830.5 224.69 M 830.11 214.7 840.49 214.7 M 840.09 204.72 850.47 204.72 M 850.08 194.73 860.46 194.73 M 860.06 184.75 870.44 184.75 M 920.12 224.69 1182.1 224.69 M 1182.1 234.67 910.14 234.67 M 900.15 244.66 1182.1 244.66 M 1182.1 254.64 890.17 254.64 M 880.18 264.63 1182.1 264.63 M 1182.1 274.61 870.2 274.61 M 860.21 284.6 1182.1 284.6 M 1182.1 294.58 850.23 294.58 M 840.24 304.57 1182.1 304.57 M 1182.1 314.55 830.26 314.55 M 820.27 324.54 1182.1 324.54 M 1182.1 334.52 810.29 334.52 M 800.3 344.51 1182.1 344.51 M 1182.1 354.49 790.32 354.49 M 780.33 364.48 1182.1 364.48 M 1182.1 374.46 770.35 374.46 M 760.36 384.45 1182.1 384.45 M 1182.1 394.43 750.38 394.43 M 740.39 404.42 1182.1 404.42 M 1182.1 414.4 730.4 414.4 M 720.42 424.39 1182.1 424.39 M 1182.1 434.37 710.43 434.37 M 700.45 444.36 1182.1 444.36 M 1182.1 454.34 690.46 454.34 M 680.48 464.33 1182.1 464.33 M 1182.1 474.32 670.49 474.32 M 660.51 484.3 711.52 484.3 M 707.21 486.49 715.99 482.02 725.35 478.98 735 477.45 735 535 677.45 535 678.98 525.35 682.02 515.99 686.49 507.21 692.28 499.25 699.25 492.28 707.21 486.49 M 697.24 494.29 650.52 494.29 M 640.54 504.27 688.63 504.27 M 682.91 514.26 630.55 514.26 M 620.57 524.24 679.34 524.24 M 677.58 534.23 610.58 534.23 M 600.6 544.21 735 544.21 M 735 545 735 535 745 535 745 545 735 545 735 602.55 725.35 601.02 715.99 597.98 707.21 593.51 699.25 587.72 692.28 580.75 686.49 572.79 682.02 564.01 678.98 554.65 677.45 545 735 545 M 735 554.2 745 554.2 M 745 545 745 602.55 754.65 601.02 764.01 597.98 772.79 593.51 780.75 587.72 787.72 580.75 793.51 572.79 797.98 564.01 801.02 554.65 802.55 545 745 545 M 745 544.21 935 544.21 M 935 545 935 535 877.45 535 878.98 525.35 882.02 515.99 886.49 507.21 892.28 499.25 899.25 492.28 907.21 486.49 915.99 482.02 925.35 478.98 935 477.45 935 535 945 535 945 545 935 545 935 602.55 925.35 601.02 915.99 597.98 907.21 593.51 899.25 587.72 892.28 580.75 886.49 572.79 882.02 564.01 878.98 554.65 877.45 545 935 545 M 935 554.2 945 554.2 M 945 545 945 602.55 954.65 601.02 964.01 597.98 972.79 593.51 980.75 587.72 987.72 580.75 993.51 572.79 997.98 564.01 1001.02 554.65 1002.55 545 945 545 M 945 544.21 1182.1 544.21 M 1182.1 534.23 1002.42 534.23 M 1002.55 535 945 535 945 477.45 954.65 478.98 964.01 482.02 972.79 486.49 980.75 492.28 987.72 499.25 993.51 507.21 997.98 515.99 1001.02 525.35 1002.55 535 M 1000.66 524.24 1182.1 524.24 M 1182.1 514.26 997.09 514.26 M 991.37 504.27 1182.1 504.27 M 1182.1 494.29 982.76 494.29 M 968.48 484.3 1182.1 484.3 M 1182.1 554.2 1001.09 554.2 M 997.89 564.18 1182.1 564.18 M 1182.1 574.17 992.5 574.17 M 984.32 584.15 1182.1 584.15 M 1182.1 594.14 971.55 594.14 M 945 594.14 935 594.14 M 935 584.15 945 584.15 M 945 574.17 935 574.17 M 935 564.18 945 564.18 M 945 534.23 935 534.23 M 935 524.24 945 524.24 M 945 514.26 935 514.26 M 935 504.27 945 504.27 M 945 494.29 935 494.29 M 935 484.3 945 484.3 M 911.52 484.3 768.48 484.3 M 772.79 486.49 780.75 492.28 787.72 499.25 793.51 507.21 797.98 515.99 801.02 525.35 802.55 535 745 535 745 477.45 754.65 478.98 764.01 482.02 772.79 486.49 M 782.76 494.29 897.24 494.29 M 888.63 504.27 791.37 504.27 M 797.09 514.26 882.91 514.26 M 879.34 524.24 800.66 524.24 M 802.42 534.23 877.58 534.23 M 878.91 554.2 801.09 554.2 M 797.89 564.18 882.11 564.18 M 887.5 574.17 792.5 574.17 M 784.32 584.15 895.68 584.15 M 908.45 594.14 771.55 594.14 M 745 594.14 735 594.14 M 735 584.15 745 584.15 M 745 574.17 735 574.17 M 735 564.18 745 564.18 M 745 534.23 735 534.23 M 735 524.24 745 524.24 M 745 514.26 735 514.26 M 735 504.27 745 504.27 M 745 494.29 735 494.29 M 735 484.3 745 484.3 M 678.91 554.2 590.61 554.2 M 580.63 564.18 682.11 564.18 M 687.5 574.17 583.77 574.17 M 587.9 584.15 695.68 584.15 M 708.45 594.14 589.56 594.14 M 589.56 604.12 1182.1 604.12 M 1182.1 614.11 588.62 614.11 M 584.49 624.09 1182.1 624.09 M 1182.1 634.08 580.15 634.08 M 570.17 644.06 1182.1 644.06 M 1182.1 654.05 561.68 654.05 M 561.68 664.03 1182.1 664.03 M 1182.1 674.02 561.68 674.02 M 561.68 684 1182.1 684 M 1182.1 693.99 561.68 693.99 M 561.68 703.97 1182.1 703.97 M 1182.1 713.96 561.68 713.96 M 561.68 723.94 1182.1 723.94 M 1182.1 733.93 561.68 733.93 M 561.68 743.91 1182.1 743.91 M 1182.1 753.9 568.13 753.9 M 578.11 763.88 1182.1 763.88 M 1182.1 773.87 583.64 773.87 M 587.78 783.85 1182.1 783.85 M 1182.1 793.84 589.56 793.84 M 589.56 803.82 1182.1 803.82 M 1182.1 813.81 588.75 813.81 M 584.61 823.79 1182.1 823.79 M 1182.1 833.78 580.45 833.78 M 570.46 843.76 1182.1 843.76 M 1182.1 853.75 555.87 853.75 M 554.51 474.32 580.88 474.32 M 590.86 464.33 569.9 464.33 M 579.88 454.34 600.85 454.34 M 610.83 444.36 584.38 444.36 M 588.51 434.37 620.82 434.37 M 630.8 424.39 589.56 424.39 M 589.56 414.4 640.79 414.4 M 650.77 404.42 588.01 404.42 M 583.88 394.43 660.76 394.43 M 670.74 384.45 578.68 384.45 M 568.69 374.46 680.73 374.46 M 690.71 364.48 561.68 364.48 M 930.11 214.7 1182.1 214.7 M 1182.1 204.72 940.09 204.72 M 950.08 194.73 1182.1 194.73 M 1182.1 184.75 960.06 184.75 M 991.03 174.76 1022.99 174.76 M 1020.6 164.78 1005.09 164.78 M 1013.2 154.79 1020.6 154.79 M 1020.6 144.81 1017.34 144.81 M 1019.4 134.82 1020.6 134.82 M 1020.03 124.84 1019.4 124.84 M 1059.72 74.91 1182.1 74.91 M 1182.1 64.93 1049.73 64.93 M 1039.75 54.94 1182.1 54.94 M 1182.1 44.96 1029.76 44.96 M 1019.78 34.97 1182.1 34.97 M 1182.1 84.9 1116.67 84.9 M 1119.4 94.88 1182.1 94.88 M 1182.1 104.87 1119.4 104.87 M 1119.4 114.85 1182.1 114.85 M 1182.1 124.84 1119.4 124.84 M 1119.4 134.82 1182.1 134.82 M 1182.1 144.81 1119.4 144.81 M 1119.4 154.79 1182.1 154.79 M 1182.1 164.78 1119.4 164.78 M 1117.01 174.76 1182.1 174.76 M 1182.1 863.73 29 863.73 M 29 873.72 1182.1 873.72 M 1182.1 883.7 29 883.7 M 29 893.69 1182.1 893.69 M 1182.1 903.68 29 903.68 M 29 913.66 1182.1 913.66 M 1182.1 923.65 29 923.65 M 29 933.63 1182.1 933.63 M 1182.1 943.62 29 943.62 M 29 953.6 1182.1 953.6 M 1182.1 963.59 29 963.59 M 29 973.57 1182.1 973.57 M 1182.1 983.56 29 983.56" fill="none" stroke-width="10"/><path d="M 274.09 800 274.09 600 274.09 420 274.09 220 444.09 50 990 50 1070 130 M 970 130 530 570 530 600 530 800 M 530 420 530 315 685 315 870 130 M 530 220 530 315" fill="none" stroke-width="39.37"/></g><g id="TnWwAzKxW-qyUUdb7jdk_bottom_silkscreen"><path d="M 129.91 169 129.91 190.02 136.91 197.02 143.92 197.02 150.92 190.02 150.92 169 M 129.91 169 171.94 169 171.94 190.02 164.94 197.02 157.93 197.02 150.92 190.02 M 150.92 215.04 150.92 243.06 M 157.93 243.06 129.91 243.06 M 129.91 215.04 157.93 215.04 171.94 229.05 157.93 243.06 M 171.94 261.08 171.94 289.1 M 171.94 275.09 129.91 275.09 M 129.91 321.13 171.94 321.13 M 171.94 307.12 171.94 335.14 M 171.94 353.16 129.91 353.16 129.91 381.18 M 129.91 399.2 171.94 399.2 171.94 420.21 164.94 427.22 150.92 427.22 143.92 420.21 143.92 399.2 M 143.92 413.21 129.91 427.22 M 129.91 459.25 150.92 459.25 164.94 473.26 171.94 473.26 M 150.92 459.25 164.94 445.24 171.94 445.24 M 199.09 495 199.09 145 349.09 145 349.09 495 199.09 495 M 199.09 525 349.09 525 349.09 875 199.09 875 199.09 525 M 171.94 549 171.94 570.02 164.94 577.02 157.93 577.02 150.92 570.02 150.92 549 M 129.91 549 129.91 570.02 136.91 577.02 143.92 577.02 150.92 570.02 M 150.92 595.04 150.92 623.06 M 157.93 623.06 129.91 623.06 M 157.93 623.06 171.94 609.05 157.93 595.04 129.91 595.04 M 129.91 549 171.94 549 M 171.94 641.08 171.94 669.1 M 171.94 655.09 129.91 655.09 M 171.94 687.12 171.94 715.14 M 171.94 701.13 129.91 701.13 M 129.91 733.16 129.91 761.18 M 129.91 779.2 171.94 779.2 171.94 800.21 164.94 807.22 150.92 807.22 143.92 800.21 143.92 779.2 M 143.92 793.21 129.91 807.22 M 129.91 839.25 150.92 839.25 164.94 853.26 171.94 853.26 M 150.92 839.25 164.94 825.24 171.94 825.24 M 171.94 761.18 171.94 733.16 129.91 733.16 M 150.92 733.16 150.92 747.17 M 455 875 455 525 605 525 605 875 455 875 M 491.94 899 519.96 941.04 M 537.98 934.03 537.98 920.02 544.98 913.01 566 913.01 M 551.99 913.01 537.98 899 M 519.96 899 491.94 941.04 M 537.98 934.03 544.98 941.04 566 941.04 566 899 M 739.66 859.03 739.66 845.02 746.67 838.01 767.69 838.01 M 767.69 824 767.69 866.04 746.67 866.04 739.66 859.03 M 753.67 838.01 739.66 824 M 785.7 831.01 785.7 859.03 792.71 866.04 806.72 866.04 813.73 859.03 813.73 831.01 806.72 824 792.71 824 785.7 831.01 M 815.73 791.04 808.72 784.03 808.72 756.01 815.73 749 836.74 749 836.74 791.04 815.73 791.04 M 845.75 824 845.75 866.04 M 859.76 866.04 831.74 866.04 M 877.78 859.03 884.79 866.04 898.8 866.04 905.8 859.03 905.8 831.01 898.8 824 884.79 824 877.78 831.01 M 882.78 791.04 882.78 749 854.76 749 M 946.84 756.01 953.84 749 967.86 749 974.86 756.01 946.84 784.03 946.84 756.01 M 974.86 756.01 974.86 784.03 967.86 791.04 953.84 791.04 946.84 784.03 M 992.88 784.03 992.88 756.01 999.88 749 1013.9 749 1020.9 756.01 992.88 784.03 999.88 791.04 1013.9 791.04 1020.9 784.03 1020.9 756.01 M 1036.92 756.01 1036.92 749 1043.92 749 1043.92 756.01 1036.92 756.01 M 1061.94 749 1089.96 749 M 1075.95 749 1075.95 791.04 1089.96 777.02 M 1107.98 763.01 1107.98 791.04 M 1136 791.04 1136 763.01 1121.99 749 1107.98 763.01 M 1114.98 824 1107.98 831.01 M 1114.98 824 1128.99 824 1136 831.01 1136 859.03 1128.99 866.04 1114.98 866.04 1107.98 859.03 M 1089.96 859.03 1089.96 831.01 1082.95 824 1068.94 824 1061.94 831.01 1061.94 859.03 1068.94 866.04 1082.95 866.04 1089.96 859.03 M 1043.92 866.04 1043.92 824 M 1015.9 824 1015.9 866.04 M 997.88 866.04 969.86 824 969.86 866.04 M 951.84 866.04 951.84 824 923.82 824 M 937.83 845.02 951.84 845.02 M 951.84 866.04 923.82 866.04 M 921.15 899 893.13 899 M 907.14 920.02 921.15 920.02 M 921.15 941.04 921.15 899 M 939.17 899 939.17 941.04 M 921.15 941.04 893.13 941.04 M 939.17 899 967.19 941.04 967.19 899 M 983.87 899 997.88 899 M 990.88 899 990.88 941.04 M 997.88 941.04 983.87 941.04 M 1015.9 934.03 1022.9 941.04 1036.92 941.04 1043.92 934.03 1043.92 906.01 1036.92 899 1022.9 899 1015.9 906.01 1015.9 920.02 1029.91 920.02 M 1061.94 899 1061.94 941.04 M 1089.96 941.04 1061.94 899 M 1089.96 899 1089.96 941.04 M 1107.98 941.04 1136 941.04 1136 899 1107.98 899 M 1121.99 920.02 1136 920.02 M 1043.92 866.04 1015.9 824 M 997.88 824 997.88 866.04 M 1015 615 665 615 665 465 1015 465 1015 615 M 893.99 441.04 879.98 441.04 872.98 434.03 M 872.98 420.02 886.99 420.02 M 872.98 420.02 872.98 406.01 879.98 399 893.99 399 901 406.01 901 434.03 893.99 441.04 M 854.96 441.04 826.94 399 826.94 441.04 M 808.92 441.04 787.9 441.04 780.9 434.03 780.9 406.01 787.9 399 808.92 399 808.92 441.04 M 854.96 441.04 854.96 399 M 670 275 670 45 1170 45 1170 275 670 275 M 745 180 720 155 720 105 745 80 795 80 820 105 820 155 795 180 745 180 M 820 155 845 180 895 180 920 155 920 105 895 80 845 80 820 105 M 920 105 945 80 995 80 1020 105 1020 80 1120 80 1120 180 1020 180 1020 155 995 180 945 180 920 155 M 1020 155 1020 105 M 1059.94 301 1087.96 301 M 1073.95 301 1073.95 343.04 1087.96 329.02 M 1105.98 343.04 1119.99 343.04 M 1112.98 343.04 1112.98 308.01 1119.99 301 1126.99 301 1134 308.01 M 605 145 605 495 455 495 455 145 605 145 M 566 121.04 537.98 121.04 M 551.99 121.04 551.99 79 M 519.96 79 491.94 121.04 M 519.96 121.04 491.94 79 M 171.94 353.16 171.94 381.18 M 150.92 367.17 150.92 353.16" fill="none" stroke-width="8"/></g><g id="TnWwAzKxW-qyUUdb7jdk_bottom_drill1"><use xlink:href="#zOMnme3Ivdr2yyB_pcCF_pad-1" x="770" y="130"/><use xlink:href="#zOMnme3Ivdr2yyB_pcCF_pad-1" x="870" y="130"/><use xlink:href="#zOMnme3Ivdr2yyB_pcCF_pad-1" x="970" y="130"/><use xlink:href="#zOMnme3Ivdr2yyB_pcCF_pad-1" x="1070" y="130"/><use xlink:href="#zOMnme3Ivdr2yyB_pcCF_pad-2" x="274.1" y="220"/><use xlink:href="#zOMnme3Ivdr2yyB_pcCF_pad-2" x="274.1" y="420"/><use xlink:href="#zOMnme3Ivdr2yyB_pcCF_pad-2" x="274.1" y="600"/><use xlink:href="#zOMnme3Ivdr2yyB_pcCF_pad-2" x="274.1" y="800"/><use xlink:href="#zOMnme3Ivdr2yyB_pcCF_pad-2" x="530" y="800"/><use xlink:href="#zOMnme3Ivdr2yyB_pcCF_pad-2" x="530" y="600"/><use xlink:href="#zOMnme3Ivdr2yyB_pcCF_pad-2" x="530" y="420"/><use xlink:href="#zOMnme3Ivdr2yyB_pcCF_pad-2" x="740" y="540"/><use xlink:href="#zOMnme3Ivdr2yyB_pcCF_pad-2" x="940" y="540"/><use xlink:href="#zOMnme3Ivdr2yyB_pcCF_pad-2" x="530" y="220"/></g><clipPath id="TnWwAzKxW-qyUUdb7jdk_bottom_outline"><path d="M 15 15 15 999.25 1196.1 999.25 1196.1 15 15 15" fill="none" stroke-width="0"/></clipPath><mask id="TnWwAzKxW-qyUUdb7jdk_bottom_mech-mask"><g fill="#000" stroke="#000"><rect x="15" y="15" width="1181.1" height="984.25" fill="#fff"/><use xlink:href="#TnWwAzKxW-qyUUdb7jdk_bottom_drill1"/></g></mask><mask id="TnWwAzKxW-qyUUdb7jdk_bottom_cf-mask"><g fill="#fff" stroke="#fff"><use xlink:href="#TnWwAzKxW-qyUUdb7jdk_bottom_soldermask"/></g></mask><mask id="TnWwAzKxW-qyUUdb7jdk_bottom_sm-mask"><g fill="#000" stroke="#000"><rect x="15" y="15" width="1181.1" height="984.25" fill="#fff"/><use xlink:href="#TnWwAzKxW-qyUUdb7jdk_bottom_soldermask"/></g></mask></defs><g transform="translate(0,1014.25) scale(1,-1)"><g mask="url(#TnWwAzKxW-qyUUdb7jdk_bottom_mech-mask)" clip-path="url(#TnWwAzKxW-qyUUdb7jdk_bottom_outline)" transform="translate(1211.1,0) scale(-1,1)"><rect x="15" y="15" width="1181.1" height="984.25" fill="currentColor" class="TnWwAzKxW-qyUUdb7jdk_fr4"/><use xlink:href="#TnWwAzKxW-qyUUdb7jdk_bottom_copper" fill="currentColor" stroke="currentColor" class="TnWwAzKxW-qyUUdb7jdk_cu"/><use xlink:href="#TnWwAzKxW-qyUUdb7jdk_bottom_copper" fill="currentColor" stroke="currentColor" class="TnWwAzKxW-qyUUdb7jdk_cf" mask="url(#TnWwAzKxW-qyUUdb7jdk_bottom_cf-mask)"/><g mask="url(#TnWwAzKxW-qyUUdb7jdk_bottom_sm-mask)"><rect x="15" y="15" width="1181.1" height="984.25" fill="currentColor" class="TnWwAzKxW-qyUUdb7jdk_sm"/><use xlink:href="#TnWwAzKxW-qyUUdb7jdk_bottom_silkscreen" fill="currentColor" stroke="currentColor" class="TnWwAzKxW-qyUUdb7jdk_ss"/></g></g></g></svg>