G75*
%MOIN*%
%OFA0B0*%
%FSLAX25Y25*%
%IPPOS*%
%LPD*%
%AMOC8*
5,1,8,0,0,1.08239X$1,22.5*
%
%ADD10R,0.06784X0.06784*%
%ADD11C,0.06784*%
%ADD12C,0.08280*%
%ADD13R,0.08280X0.08280*%
%ADD14C,0.16548*%
%ADD15C,0.09918*%
%ADD16C,0.11099*%
%ADD17R,0.11099X0.11099*%
%ADD18C,0.10312*%
%ADD19C,0.00939*%
%ADD20C,0.09524*%
%ADD21R,0.09524X0.09524*%
%ADD22C,0.03162*%
%ADD23C,0.01031*%
%ADD24C,0.00851*%
%ADD25C,0.00923*%
D10*
X0136433Y0111433D03*
X0316433Y0180933D03*
X0316433Y0215933D03*
D11*
X0316433Y0201933D03*
X0316433Y0166933D03*
X0166433Y0111433D03*
X0166433Y0101433D03*
X0166433Y0091433D03*
X0166433Y0081433D03*
X0166433Y0071433D03*
X0166433Y0061433D03*
X0166433Y0051433D03*
X0136433Y0051433D03*
X0136433Y0061433D03*
X0136433Y0071433D03*
X0136433Y0081433D03*
X0136433Y0091433D03*
X0136433Y0101433D03*
D12*
X0086433Y0051433D03*
X0096433Y0051433D03*
X0096433Y0066433D03*
X0086433Y0066433D03*
X0183933Y0046933D03*
X0193933Y0046933D03*
X0321433Y0051433D03*
X0321433Y0061433D03*
X0331433Y0061433D03*
X0341433Y0061433D03*
X0351433Y0061433D03*
X0351433Y0051433D03*
X0341433Y0051433D03*
X0331433Y0051433D03*
X0361433Y0051433D03*
X0073441Y0124858D03*
X0073441Y0134858D03*
D13*
X0073441Y0144858D03*
X0361433Y0061433D03*
D14*
X0410449Y0056118D03*
X0410449Y0213598D03*
X0056118Y0213598D03*
X0056118Y0056118D03*
D15*
X0161433Y0191433D03*
X0176433Y0191433D03*
X0176433Y0211433D03*
X0161433Y0211433D03*
X0406433Y0176433D03*
D16*
X0111433Y0189992D03*
X0092929Y0189992D03*
D17*
X0129937Y0189992D03*
D18*
X0137811Y0227394D03*
X0085055Y0227394D03*
D19*
X0192801Y0213165D02*
X0192801Y0207397D01*
X0185065Y0207397D01*
X0185065Y0213165D01*
X0192801Y0213165D01*
X0192801Y0208335D02*
X0185065Y0208335D01*
X0185065Y0209273D02*
X0192801Y0209273D01*
X0192801Y0210211D02*
X0185065Y0210211D01*
X0185065Y0211149D02*
X0192801Y0211149D01*
X0192801Y0212087D02*
X0185065Y0212087D01*
X0185065Y0213025D02*
X0192801Y0213025D01*
X0202801Y0213165D02*
X0202801Y0207397D01*
X0195065Y0207397D01*
X0195065Y0213165D01*
X0202801Y0213165D01*
X0202801Y0208335D02*
X0195065Y0208335D01*
X0195065Y0209273D02*
X0202801Y0209273D01*
X0202801Y0210211D02*
X0195065Y0210211D01*
X0195065Y0211149D02*
X0202801Y0211149D01*
X0202801Y0212087D02*
X0195065Y0212087D01*
X0195065Y0213025D02*
X0202801Y0213025D01*
X0212801Y0213165D02*
X0212801Y0207397D01*
X0205065Y0207397D01*
X0205065Y0213165D01*
X0212801Y0213165D01*
X0212801Y0208335D02*
X0205065Y0208335D01*
X0205065Y0209273D02*
X0212801Y0209273D01*
X0212801Y0210211D02*
X0205065Y0210211D01*
X0205065Y0211149D02*
X0212801Y0211149D01*
X0212801Y0212087D02*
X0205065Y0212087D01*
X0205065Y0213025D02*
X0212801Y0213025D01*
X0222801Y0213165D02*
X0222801Y0207397D01*
X0215065Y0207397D01*
X0215065Y0213165D01*
X0222801Y0213165D01*
X0222801Y0208335D02*
X0215065Y0208335D01*
X0215065Y0209273D02*
X0222801Y0209273D01*
X0222801Y0210211D02*
X0215065Y0210211D01*
X0215065Y0211149D02*
X0222801Y0211149D01*
X0222801Y0212087D02*
X0215065Y0212087D01*
X0215065Y0213025D02*
X0222801Y0213025D01*
X0222801Y0199469D02*
X0222801Y0193701D01*
X0215065Y0193701D01*
X0215065Y0199469D01*
X0222801Y0199469D01*
X0222801Y0194639D02*
X0215065Y0194639D01*
X0215065Y0195577D02*
X0222801Y0195577D01*
X0222801Y0196515D02*
X0215065Y0196515D01*
X0215065Y0197453D02*
X0222801Y0197453D01*
X0222801Y0198391D02*
X0215065Y0198391D01*
X0215065Y0199329D02*
X0222801Y0199329D01*
X0212801Y0199469D02*
X0212801Y0193701D01*
X0205065Y0193701D01*
X0205065Y0199469D01*
X0212801Y0199469D01*
X0212801Y0194639D02*
X0205065Y0194639D01*
X0205065Y0195577D02*
X0212801Y0195577D01*
X0212801Y0196515D02*
X0205065Y0196515D01*
X0205065Y0197453D02*
X0212801Y0197453D01*
X0212801Y0198391D02*
X0205065Y0198391D01*
X0205065Y0199329D02*
X0212801Y0199329D01*
X0202801Y0199469D02*
X0202801Y0193701D01*
X0195065Y0193701D01*
X0195065Y0199469D01*
X0202801Y0199469D01*
X0202801Y0194639D02*
X0195065Y0194639D01*
X0195065Y0195577D02*
X0202801Y0195577D01*
X0202801Y0196515D02*
X0195065Y0196515D01*
X0195065Y0197453D02*
X0202801Y0197453D01*
X0202801Y0198391D02*
X0195065Y0198391D01*
X0195065Y0199329D02*
X0202801Y0199329D01*
X0192801Y0199469D02*
X0192801Y0193701D01*
X0185065Y0193701D01*
X0185065Y0199469D01*
X0192801Y0199469D01*
X0192801Y0194639D02*
X0185065Y0194639D01*
X0185065Y0195577D02*
X0192801Y0195577D01*
X0192801Y0196515D02*
X0185065Y0196515D01*
X0185065Y0197453D02*
X0192801Y0197453D01*
X0192801Y0198391D02*
X0185065Y0198391D01*
X0185065Y0199329D02*
X0192801Y0199329D01*
X0325801Y0143665D02*
X0325801Y0137897D01*
X0318065Y0137897D01*
X0318065Y0143665D01*
X0325801Y0143665D01*
X0325801Y0138835D02*
X0318065Y0138835D01*
X0318065Y0139773D02*
X0325801Y0139773D01*
X0325801Y0140711D02*
X0318065Y0140711D01*
X0318065Y0141649D02*
X0325801Y0141649D01*
X0325801Y0142587D02*
X0318065Y0142587D01*
X0318065Y0143525D02*
X0325801Y0143525D01*
X0335801Y0143665D02*
X0335801Y0137897D01*
X0328065Y0137897D01*
X0328065Y0143665D01*
X0335801Y0143665D01*
X0335801Y0138835D02*
X0328065Y0138835D01*
X0328065Y0139773D02*
X0335801Y0139773D01*
X0335801Y0140711D02*
X0328065Y0140711D01*
X0328065Y0141649D02*
X0335801Y0141649D01*
X0335801Y0142587D02*
X0328065Y0142587D01*
X0328065Y0143525D02*
X0335801Y0143525D01*
X0335801Y0129969D02*
X0335801Y0124201D01*
X0328065Y0124201D01*
X0328065Y0129969D01*
X0335801Y0129969D01*
X0335801Y0125139D02*
X0328065Y0125139D01*
X0328065Y0126077D02*
X0335801Y0126077D01*
X0335801Y0127015D02*
X0328065Y0127015D01*
X0328065Y0127953D02*
X0335801Y0127953D01*
X0335801Y0128891D02*
X0328065Y0128891D01*
X0328065Y0129829D02*
X0335801Y0129829D01*
X0325801Y0129969D02*
X0325801Y0124201D01*
X0318065Y0124201D01*
X0318065Y0129969D01*
X0325801Y0129969D01*
X0325801Y0125139D02*
X0318065Y0125139D01*
X0318065Y0126077D02*
X0325801Y0126077D01*
X0325801Y0127015D02*
X0318065Y0127015D01*
X0318065Y0127953D02*
X0325801Y0127953D01*
X0325801Y0128891D02*
X0318065Y0128891D01*
X0318065Y0129829D02*
X0325801Y0129829D01*
X0306165Y0120301D02*
X0300397Y0120301D01*
X0306165Y0120301D02*
X0306165Y0112565D01*
X0300397Y0112565D01*
X0300397Y0120301D01*
X0300397Y0113503D02*
X0306165Y0113503D01*
X0306165Y0114441D02*
X0300397Y0114441D01*
X0300397Y0115379D02*
X0306165Y0115379D01*
X0306165Y0116317D02*
X0300397Y0116317D01*
X0300397Y0117255D02*
X0306165Y0117255D01*
X0306165Y0118193D02*
X0300397Y0118193D01*
X0300397Y0119131D02*
X0306165Y0119131D01*
X0306165Y0120069D02*
X0300397Y0120069D01*
X0292469Y0120301D02*
X0286701Y0120301D01*
X0292469Y0120301D02*
X0292469Y0112565D01*
X0286701Y0112565D01*
X0286701Y0120301D01*
X0286701Y0113503D02*
X0292469Y0113503D01*
X0292469Y0114441D02*
X0286701Y0114441D01*
X0286701Y0115379D02*
X0292469Y0115379D01*
X0292469Y0116317D02*
X0286701Y0116317D01*
X0286701Y0117255D02*
X0292469Y0117255D01*
X0292469Y0118193D02*
X0286701Y0118193D01*
X0286701Y0119131D02*
X0292469Y0119131D01*
X0292469Y0120069D02*
X0286701Y0120069D01*
X0286701Y0110301D02*
X0292469Y0110301D01*
X0292469Y0102565D01*
X0286701Y0102565D01*
X0286701Y0110301D01*
X0286701Y0103503D02*
X0292469Y0103503D01*
X0292469Y0104441D02*
X0286701Y0104441D01*
X0286701Y0105379D02*
X0292469Y0105379D01*
X0292469Y0106317D02*
X0286701Y0106317D01*
X0286701Y0107255D02*
X0292469Y0107255D01*
X0292469Y0108193D02*
X0286701Y0108193D01*
X0286701Y0109131D02*
X0292469Y0109131D01*
X0292469Y0110069D02*
X0286701Y0110069D01*
X0300397Y0110301D02*
X0306165Y0110301D01*
X0306165Y0102565D01*
X0300397Y0102565D01*
X0300397Y0110301D01*
X0300397Y0103503D02*
X0306165Y0103503D01*
X0306165Y0104441D02*
X0300397Y0104441D01*
X0300397Y0105379D02*
X0306165Y0105379D01*
X0306165Y0106317D02*
X0300397Y0106317D01*
X0300397Y0107255D02*
X0306165Y0107255D01*
X0306165Y0108193D02*
X0300397Y0108193D01*
X0300397Y0109131D02*
X0306165Y0109131D01*
X0306165Y0110069D02*
X0300397Y0110069D01*
X0251167Y0081222D02*
X0251167Y0063644D01*
X0245399Y0063644D01*
X0245399Y0081222D01*
X0251167Y0081222D01*
X0251167Y0064582D02*
X0245399Y0064582D01*
X0245399Y0065520D02*
X0251167Y0065520D01*
X0251167Y0066458D02*
X0245399Y0066458D01*
X0245399Y0067396D02*
X0251167Y0067396D01*
X0251167Y0068334D02*
X0245399Y0068334D01*
X0245399Y0069272D02*
X0251167Y0069272D01*
X0251167Y0070210D02*
X0245399Y0070210D01*
X0245399Y0071148D02*
X0251167Y0071148D01*
X0251167Y0072086D02*
X0245399Y0072086D01*
X0245399Y0073024D02*
X0251167Y0073024D01*
X0251167Y0073962D02*
X0245399Y0073962D01*
X0245399Y0074900D02*
X0251167Y0074900D01*
X0251167Y0075838D02*
X0245399Y0075838D01*
X0245399Y0076776D02*
X0251167Y0076776D01*
X0251167Y0077714D02*
X0245399Y0077714D01*
X0245399Y0078652D02*
X0251167Y0078652D01*
X0251167Y0079590D02*
X0245399Y0079590D01*
X0245399Y0080528D02*
X0251167Y0080528D01*
X0241167Y0081222D02*
X0241167Y0063644D01*
X0235399Y0063644D01*
X0235399Y0081222D01*
X0241167Y0081222D01*
X0241167Y0064582D02*
X0235399Y0064582D01*
X0235399Y0065520D02*
X0241167Y0065520D01*
X0241167Y0066458D02*
X0235399Y0066458D01*
X0235399Y0067396D02*
X0241167Y0067396D01*
X0241167Y0068334D02*
X0235399Y0068334D01*
X0235399Y0069272D02*
X0241167Y0069272D01*
X0241167Y0070210D02*
X0235399Y0070210D01*
X0235399Y0071148D02*
X0241167Y0071148D01*
X0241167Y0072086D02*
X0235399Y0072086D01*
X0235399Y0073024D02*
X0241167Y0073024D01*
X0241167Y0073962D02*
X0235399Y0073962D01*
X0235399Y0074900D02*
X0241167Y0074900D01*
X0241167Y0075838D02*
X0235399Y0075838D01*
X0235399Y0076776D02*
X0241167Y0076776D01*
X0241167Y0077714D02*
X0235399Y0077714D01*
X0235399Y0078652D02*
X0241167Y0078652D01*
X0241167Y0079590D02*
X0235399Y0079590D01*
X0235399Y0080528D02*
X0241167Y0080528D01*
X0231167Y0081222D02*
X0231167Y0063644D01*
X0225399Y0063644D01*
X0225399Y0081222D01*
X0231167Y0081222D01*
X0231167Y0064582D02*
X0225399Y0064582D01*
X0225399Y0065520D02*
X0231167Y0065520D01*
X0231167Y0066458D02*
X0225399Y0066458D01*
X0225399Y0067396D02*
X0231167Y0067396D01*
X0231167Y0068334D02*
X0225399Y0068334D01*
X0225399Y0069272D02*
X0231167Y0069272D01*
X0231167Y0070210D02*
X0225399Y0070210D01*
X0225399Y0071148D02*
X0231167Y0071148D01*
X0231167Y0072086D02*
X0225399Y0072086D01*
X0225399Y0073024D02*
X0231167Y0073024D01*
X0231167Y0073962D02*
X0225399Y0073962D01*
X0225399Y0074900D02*
X0231167Y0074900D01*
X0231167Y0075838D02*
X0225399Y0075838D01*
X0225399Y0076776D02*
X0231167Y0076776D01*
X0231167Y0077714D02*
X0225399Y0077714D01*
X0225399Y0078652D02*
X0231167Y0078652D01*
X0231167Y0079590D02*
X0225399Y0079590D01*
X0225399Y0080528D02*
X0231167Y0080528D01*
X0221167Y0081222D02*
X0221167Y0063644D01*
X0215399Y0063644D01*
X0215399Y0081222D01*
X0221167Y0081222D01*
X0221167Y0064582D02*
X0215399Y0064582D01*
X0215399Y0065520D02*
X0221167Y0065520D01*
X0221167Y0066458D02*
X0215399Y0066458D01*
X0215399Y0067396D02*
X0221167Y0067396D01*
X0221167Y0068334D02*
X0215399Y0068334D01*
X0215399Y0069272D02*
X0221167Y0069272D01*
X0221167Y0070210D02*
X0215399Y0070210D01*
X0215399Y0071148D02*
X0221167Y0071148D01*
X0221167Y0072086D02*
X0215399Y0072086D01*
X0215399Y0073024D02*
X0221167Y0073024D01*
X0221167Y0073962D02*
X0215399Y0073962D01*
X0215399Y0074900D02*
X0221167Y0074900D01*
X0221167Y0075838D02*
X0215399Y0075838D01*
X0215399Y0076776D02*
X0221167Y0076776D01*
X0221167Y0077714D02*
X0215399Y0077714D01*
X0215399Y0078652D02*
X0221167Y0078652D01*
X0221167Y0079590D02*
X0215399Y0079590D01*
X0215399Y0080528D02*
X0221167Y0080528D01*
X0390201Y0167801D02*
X0395969Y0167801D01*
X0395969Y0160065D01*
X0390201Y0160065D01*
X0390201Y0167801D01*
X0390201Y0161003D02*
X0395969Y0161003D01*
X0395969Y0161941D02*
X0390201Y0161941D01*
X0390201Y0162879D02*
X0395969Y0162879D01*
X0395969Y0163817D02*
X0390201Y0163817D01*
X0390201Y0164755D02*
X0395969Y0164755D01*
X0395969Y0165693D02*
X0390201Y0165693D01*
X0390201Y0166631D02*
X0395969Y0166631D01*
X0395969Y0167569D02*
X0390201Y0167569D01*
X0403897Y0167801D02*
X0409665Y0167801D01*
X0409665Y0160065D01*
X0403897Y0160065D01*
X0403897Y0167801D01*
X0403897Y0161003D02*
X0409665Y0161003D01*
X0409665Y0161941D02*
X0403897Y0161941D01*
X0403897Y0162879D02*
X0409665Y0162879D01*
X0409665Y0163817D02*
X0403897Y0163817D01*
X0403897Y0164755D02*
X0409665Y0164755D01*
X0409665Y0165693D02*
X0403897Y0165693D01*
X0403897Y0166631D02*
X0409665Y0166631D01*
X0409665Y0167569D02*
X0403897Y0167569D01*
X0427801Y0156165D02*
X0427801Y0150397D01*
X0420065Y0150397D01*
X0420065Y0156165D01*
X0427801Y0156165D01*
X0427801Y0151335D02*
X0420065Y0151335D01*
X0420065Y0152273D02*
X0427801Y0152273D01*
X0427801Y0153211D02*
X0420065Y0153211D01*
X0420065Y0154149D02*
X0427801Y0154149D01*
X0427801Y0155087D02*
X0420065Y0155087D01*
X0420065Y0156025D02*
X0427801Y0156025D01*
X0427801Y0142469D02*
X0427801Y0136701D01*
X0420065Y0136701D01*
X0420065Y0142469D01*
X0427801Y0142469D01*
X0427801Y0137639D02*
X0420065Y0137639D01*
X0420065Y0138577D02*
X0427801Y0138577D01*
X0427801Y0139515D02*
X0420065Y0139515D01*
X0420065Y0140453D02*
X0427801Y0140453D01*
X0427801Y0141391D02*
X0420065Y0141391D01*
X0420065Y0142329D02*
X0427801Y0142329D01*
X0427801Y0131165D02*
X0427801Y0125397D01*
X0420065Y0125397D01*
X0420065Y0131165D01*
X0427801Y0131165D01*
X0427801Y0126335D02*
X0420065Y0126335D01*
X0420065Y0127273D02*
X0427801Y0127273D01*
X0427801Y0128211D02*
X0420065Y0128211D01*
X0420065Y0129149D02*
X0427801Y0129149D01*
X0427801Y0130087D02*
X0420065Y0130087D01*
X0420065Y0131025D02*
X0427801Y0131025D01*
X0427801Y0117469D02*
X0427801Y0111701D01*
X0420065Y0111701D01*
X0420065Y0117469D01*
X0427801Y0117469D01*
X0427801Y0112639D02*
X0420065Y0112639D01*
X0420065Y0113577D02*
X0427801Y0113577D01*
X0427801Y0114515D02*
X0420065Y0114515D01*
X0420065Y0115453D02*
X0427801Y0115453D01*
X0427801Y0116391D02*
X0420065Y0116391D01*
X0420065Y0117329D02*
X0427801Y0117329D01*
X0416165Y0192801D02*
X0410397Y0192801D01*
X0416165Y0192801D02*
X0416165Y0185065D01*
X0410397Y0185065D01*
X0410397Y0192801D01*
X0410397Y0186003D02*
X0416165Y0186003D01*
X0416165Y0186941D02*
X0410397Y0186941D01*
X0410397Y0187879D02*
X0416165Y0187879D01*
X0416165Y0188817D02*
X0410397Y0188817D01*
X0410397Y0189755D02*
X0416165Y0189755D01*
X0416165Y0190693D02*
X0410397Y0190693D01*
X0410397Y0191631D02*
X0416165Y0191631D01*
X0416165Y0192569D02*
X0410397Y0192569D01*
X0402469Y0192801D02*
X0396701Y0192801D01*
X0402469Y0192801D02*
X0402469Y0185065D01*
X0396701Y0185065D01*
X0396701Y0192801D01*
X0396701Y0186003D02*
X0402469Y0186003D01*
X0402469Y0186941D02*
X0396701Y0186941D01*
X0396701Y0187879D02*
X0402469Y0187879D01*
X0402469Y0188817D02*
X0396701Y0188817D01*
X0396701Y0189755D02*
X0402469Y0189755D01*
X0402469Y0190693D02*
X0396701Y0190693D01*
X0396701Y0191631D02*
X0402469Y0191631D01*
X0402469Y0192569D02*
X0396701Y0192569D01*
D20*
X0056315Y0189976D03*
X0056315Y0174228D03*
X0043323Y0174228D03*
X0043323Y0158480D03*
X0056315Y0158480D03*
X0056315Y0142732D03*
X0043323Y0142732D03*
X0043323Y0126984D03*
X0056315Y0126984D03*
X0056315Y0111236D03*
X0043323Y0111236D03*
X0043323Y0095488D03*
X0056315Y0095488D03*
X0056315Y0079740D03*
X0043323Y0079740D03*
D21*
X0043323Y0189976D03*
D22*
X0415969Y0142732D03*
X0415969Y0126984D03*
D23*
X0310677Y0127696D02*
X0310677Y0125170D01*
X0305789Y0125170D01*
X0305789Y0127696D01*
X0310677Y0127696D01*
X0310677Y0126200D02*
X0305789Y0126200D01*
X0305789Y0127230D02*
X0310677Y0127230D01*
X0310677Y0130170D02*
X0310677Y0132696D01*
X0310677Y0130170D02*
X0305789Y0130170D01*
X0305789Y0132696D01*
X0310677Y0132696D01*
X0310677Y0131200D02*
X0305789Y0131200D01*
X0305789Y0132230D02*
X0310677Y0132230D01*
X0310677Y0135170D02*
X0310677Y0137696D01*
X0310677Y0135170D02*
X0305789Y0135170D01*
X0305789Y0137696D01*
X0310677Y0137696D01*
X0310677Y0136200D02*
X0305789Y0136200D01*
X0305789Y0137230D02*
X0310677Y0137230D01*
X0310677Y0140170D02*
X0310677Y0142696D01*
X0310677Y0140170D02*
X0305789Y0140170D01*
X0305789Y0142696D01*
X0310677Y0142696D01*
X0310677Y0141200D02*
X0305789Y0141200D01*
X0305789Y0142230D02*
X0310677Y0142230D01*
X0287077Y0142696D02*
X0287077Y0140170D01*
X0282189Y0140170D01*
X0282189Y0142696D01*
X0287077Y0142696D01*
X0287077Y0141200D02*
X0282189Y0141200D01*
X0282189Y0142230D02*
X0287077Y0142230D01*
X0287077Y0137696D02*
X0287077Y0135170D01*
X0282189Y0135170D01*
X0282189Y0137696D01*
X0287077Y0137696D01*
X0287077Y0136200D02*
X0282189Y0136200D01*
X0282189Y0137230D02*
X0287077Y0137230D01*
X0287077Y0132696D02*
X0287077Y0130170D01*
X0282189Y0130170D01*
X0282189Y0132696D01*
X0287077Y0132696D01*
X0287077Y0131200D02*
X0282189Y0131200D01*
X0282189Y0132230D02*
X0287077Y0132230D01*
X0287077Y0127696D02*
X0287077Y0125170D01*
X0282189Y0125170D01*
X0282189Y0127696D01*
X0287077Y0127696D01*
X0287077Y0126200D02*
X0282189Y0126200D01*
X0282189Y0127230D02*
X0287077Y0127230D01*
D24*
X0404829Y0130502D02*
X0404829Y0118742D01*
X0395037Y0118742D01*
X0395037Y0130502D01*
X0404829Y0130502D01*
X0404829Y0119592D02*
X0395037Y0119592D01*
X0395037Y0120442D02*
X0404829Y0120442D01*
X0404829Y0121292D02*
X0395037Y0121292D01*
X0395037Y0122142D02*
X0404829Y0122142D01*
X0404829Y0122992D02*
X0395037Y0122992D01*
X0395037Y0123842D02*
X0404829Y0123842D01*
X0404829Y0124692D02*
X0395037Y0124692D01*
X0395037Y0125542D02*
X0404829Y0125542D01*
X0404829Y0126392D02*
X0395037Y0126392D01*
X0395037Y0127242D02*
X0404829Y0127242D01*
X0404829Y0128092D02*
X0395037Y0128092D01*
X0395037Y0128942D02*
X0404829Y0128942D01*
X0404829Y0129792D02*
X0395037Y0129792D01*
X0404829Y0139214D02*
X0404829Y0150974D01*
X0404829Y0139214D02*
X0395037Y0139214D01*
X0395037Y0150974D01*
X0404829Y0150974D01*
X0404829Y0140064D02*
X0395037Y0140064D01*
X0395037Y0140914D02*
X0404829Y0140914D01*
X0404829Y0141764D02*
X0395037Y0141764D01*
X0395037Y0142614D02*
X0404829Y0142614D01*
X0404829Y0143464D02*
X0395037Y0143464D01*
X0395037Y0144314D02*
X0404829Y0144314D01*
X0404829Y0145164D02*
X0395037Y0145164D01*
X0395037Y0146014D02*
X0404829Y0146014D01*
X0404829Y0146864D02*
X0395037Y0146864D01*
X0395037Y0147714D02*
X0404829Y0147714D01*
X0404829Y0148564D02*
X0395037Y0148564D01*
X0395037Y0149414D02*
X0404829Y0149414D01*
X0404829Y0150264D02*
X0395037Y0150264D01*
D25*
X0263694Y0053065D02*
X0263694Y0037833D01*
X0257518Y0037833D01*
X0257518Y0053065D01*
X0263694Y0053065D01*
X0263694Y0038755D02*
X0257518Y0038755D01*
X0257518Y0039677D02*
X0263694Y0039677D01*
X0263694Y0040599D02*
X0257518Y0040599D01*
X0257518Y0041521D02*
X0263694Y0041521D01*
X0263694Y0042443D02*
X0257518Y0042443D01*
X0257518Y0043365D02*
X0263694Y0043365D01*
X0263694Y0044287D02*
X0257518Y0044287D01*
X0257518Y0045209D02*
X0263694Y0045209D01*
X0263694Y0046131D02*
X0257518Y0046131D01*
X0257518Y0047053D02*
X0263694Y0047053D01*
X0263694Y0047975D02*
X0257518Y0047975D01*
X0257518Y0048897D02*
X0263694Y0048897D01*
X0263694Y0049819D02*
X0257518Y0049819D01*
X0257518Y0050741D02*
X0263694Y0050741D01*
X0263694Y0051663D02*
X0257518Y0051663D01*
X0257518Y0052585D02*
X0263694Y0052585D01*
X0209049Y0053065D02*
X0209049Y0037833D01*
X0202873Y0037833D01*
X0202873Y0053065D01*
X0209049Y0053065D01*
X0209049Y0038755D02*
X0202873Y0038755D01*
X0202873Y0039677D02*
X0209049Y0039677D01*
X0209049Y0040599D02*
X0202873Y0040599D01*
X0202873Y0041521D02*
X0209049Y0041521D01*
X0209049Y0042443D02*
X0202873Y0042443D01*
X0202873Y0043365D02*
X0209049Y0043365D01*
X0209049Y0044287D02*
X0202873Y0044287D01*
X0202873Y0045209D02*
X0209049Y0045209D01*
X0209049Y0046131D02*
X0202873Y0046131D01*
X0202873Y0047053D02*
X0209049Y0047053D01*
X0209049Y0047975D02*
X0202873Y0047975D01*
X0202873Y0048897D02*
X0209049Y0048897D01*
X0209049Y0049819D02*
X0202873Y0049819D01*
X0202873Y0050741D02*
X0209049Y0050741D01*
X0209049Y0051663D02*
X0202873Y0051663D01*
X0202873Y0052585D02*
X0209049Y0052585D01*
M02*
