G75*
%MOIN*%
%OFA0B0*%
%FSLAX25Y25*%
%IPPOS*%
%LPD*%
%AMOC8*
5,1,8,0,0,1.08239X$1,22.5*
%
%ADD10C,0.00000*%
D10*
X0044307Y0036433D02*
X0422260Y0036433D01*
X0422450Y0036435D01*
X0422640Y0036442D01*
X0422830Y0036454D01*
X0423020Y0036470D01*
X0423209Y0036490D01*
X0423398Y0036516D01*
X0423586Y0036545D01*
X0423773Y0036580D01*
X0423959Y0036619D01*
X0424144Y0036662D01*
X0424329Y0036710D01*
X0424512Y0036762D01*
X0424693Y0036818D01*
X0424873Y0036879D01*
X0425052Y0036945D01*
X0425229Y0037014D01*
X0425405Y0037088D01*
X0425578Y0037166D01*
X0425750Y0037249D01*
X0425919Y0037335D01*
X0426087Y0037425D01*
X0426252Y0037520D01*
X0426415Y0037618D01*
X0426575Y0037721D01*
X0426733Y0037827D01*
X0426888Y0037937D01*
X0427041Y0038050D01*
X0427191Y0038168D01*
X0427337Y0038289D01*
X0427481Y0038413D01*
X0427622Y0038541D01*
X0427760Y0038672D01*
X0427895Y0038807D01*
X0428026Y0038945D01*
X0428154Y0039086D01*
X0428278Y0039230D01*
X0428399Y0039376D01*
X0428517Y0039526D01*
X0428630Y0039679D01*
X0428740Y0039834D01*
X0428846Y0039992D01*
X0428949Y0040152D01*
X0429047Y0040315D01*
X0429142Y0040480D01*
X0429232Y0040648D01*
X0429318Y0040817D01*
X0429401Y0040989D01*
X0429479Y0041162D01*
X0429553Y0041338D01*
X0429622Y0041515D01*
X0429688Y0041694D01*
X0429749Y0041874D01*
X0429805Y0042055D01*
X0429857Y0042238D01*
X0429905Y0042423D01*
X0429948Y0042608D01*
X0429987Y0042794D01*
X0430022Y0042981D01*
X0430051Y0043169D01*
X0430077Y0043358D01*
X0430097Y0043547D01*
X0430113Y0043737D01*
X0430125Y0043927D01*
X0430132Y0044117D01*
X0430134Y0044307D01*
X0430134Y0225409D01*
X0430132Y0225599D01*
X0430125Y0225789D01*
X0430113Y0225979D01*
X0430097Y0226169D01*
X0430077Y0226358D01*
X0430051Y0226547D01*
X0430022Y0226735D01*
X0429987Y0226922D01*
X0429948Y0227108D01*
X0429905Y0227293D01*
X0429857Y0227478D01*
X0429805Y0227661D01*
X0429749Y0227842D01*
X0429688Y0228022D01*
X0429622Y0228201D01*
X0429553Y0228378D01*
X0429479Y0228554D01*
X0429401Y0228727D01*
X0429318Y0228899D01*
X0429232Y0229068D01*
X0429142Y0229236D01*
X0429047Y0229401D01*
X0428949Y0229564D01*
X0428846Y0229724D01*
X0428740Y0229882D01*
X0428630Y0230037D01*
X0428517Y0230190D01*
X0428399Y0230340D01*
X0428278Y0230486D01*
X0428154Y0230630D01*
X0428026Y0230771D01*
X0427895Y0230909D01*
X0427760Y0231044D01*
X0427622Y0231175D01*
X0427481Y0231303D01*
X0427337Y0231427D01*
X0427191Y0231548D01*
X0427041Y0231666D01*
X0426888Y0231779D01*
X0426733Y0231889D01*
X0426575Y0231995D01*
X0426415Y0232098D01*
X0426252Y0232196D01*
X0426087Y0232291D01*
X0425919Y0232381D01*
X0425750Y0232467D01*
X0425578Y0232550D01*
X0425405Y0232628D01*
X0425229Y0232702D01*
X0425052Y0232771D01*
X0424873Y0232837D01*
X0424693Y0232898D01*
X0424512Y0232954D01*
X0424329Y0233006D01*
X0424144Y0233054D01*
X0423959Y0233097D01*
X0423773Y0233136D01*
X0423586Y0233171D01*
X0423398Y0233200D01*
X0423209Y0233226D01*
X0423020Y0233246D01*
X0422830Y0233262D01*
X0422640Y0233274D01*
X0422450Y0233281D01*
X0422260Y0233283D01*
X0044307Y0233283D01*
X0044117Y0233281D01*
X0043927Y0233274D01*
X0043737Y0233262D01*
X0043547Y0233246D01*
X0043358Y0233226D01*
X0043169Y0233200D01*
X0042981Y0233171D01*
X0042794Y0233136D01*
X0042608Y0233097D01*
X0042423Y0233054D01*
X0042238Y0233006D01*
X0042055Y0232954D01*
X0041874Y0232898D01*
X0041694Y0232837D01*
X0041515Y0232771D01*
X0041338Y0232702D01*
X0041162Y0232628D01*
X0040989Y0232550D01*
X0040817Y0232467D01*
X0040648Y0232381D01*
X0040480Y0232291D01*
X0040315Y0232196D01*
X0040152Y0232098D01*
X0039992Y0231995D01*
X0039834Y0231889D01*
X0039679Y0231779D01*
X0039526Y0231666D01*
X0039376Y0231548D01*
X0039230Y0231427D01*
X0039086Y0231303D01*
X0038945Y0231175D01*
X0038807Y0231044D01*
X0038672Y0230909D01*
X0038541Y0230771D01*
X0038413Y0230630D01*
X0038289Y0230486D01*
X0038168Y0230340D01*
X0038050Y0230190D01*
X0037937Y0230037D01*
X0037827Y0229882D01*
X0037721Y0229724D01*
X0037618Y0229564D01*
X0037520Y0229401D01*
X0037425Y0229236D01*
X0037335Y0229068D01*
X0037249Y0228899D01*
X0037166Y0228727D01*
X0037088Y0228554D01*
X0037014Y0228378D01*
X0036945Y0228201D01*
X0036879Y0228022D01*
X0036818Y0227842D01*
X0036762Y0227661D01*
X0036710Y0227478D01*
X0036662Y0227293D01*
X0036619Y0227108D01*
X0036580Y0226922D01*
X0036545Y0226735D01*
X0036516Y0226547D01*
X0036490Y0226358D01*
X0036470Y0226169D01*
X0036454Y0225979D01*
X0036442Y0225789D01*
X0036435Y0225599D01*
X0036433Y0225409D01*
X0036433Y0044307D01*
X0036435Y0044117D01*
X0036442Y0043927D01*
X0036454Y0043737D01*
X0036470Y0043547D01*
X0036490Y0043358D01*
X0036516Y0043169D01*
X0036545Y0042981D01*
X0036580Y0042794D01*
X0036619Y0042608D01*
X0036662Y0042423D01*
X0036710Y0042238D01*
X0036762Y0042055D01*
X0036818Y0041874D01*
X0036879Y0041694D01*
X0036945Y0041515D01*
X0037014Y0041338D01*
X0037088Y0041162D01*
X0037166Y0040989D01*
X0037249Y0040817D01*
X0037335Y0040648D01*
X0037425Y0040480D01*
X0037520Y0040315D01*
X0037618Y0040152D01*
X0037721Y0039992D01*
X0037827Y0039834D01*
X0037937Y0039679D01*
X0038050Y0039526D01*
X0038168Y0039376D01*
X0038289Y0039230D01*
X0038413Y0039086D01*
X0038541Y0038945D01*
X0038672Y0038807D01*
X0038807Y0038672D01*
X0038945Y0038541D01*
X0039086Y0038413D01*
X0039230Y0038289D01*
X0039376Y0038168D01*
X0039526Y0038050D01*
X0039679Y0037937D01*
X0039834Y0037827D01*
X0039992Y0037721D01*
X0040152Y0037618D01*
X0040315Y0037520D01*
X0040480Y0037425D01*
X0040648Y0037335D01*
X0040817Y0037249D01*
X0040989Y0037166D01*
X0041162Y0037088D01*
X0041338Y0037014D01*
X0041515Y0036945D01*
X0041694Y0036879D01*
X0041874Y0036818D01*
X0042055Y0036762D01*
X0042238Y0036710D01*
X0042423Y0036662D01*
X0042608Y0036619D01*
X0042794Y0036580D01*
X0042981Y0036545D01*
X0043169Y0036516D01*
X0043358Y0036490D01*
X0043547Y0036470D01*
X0043737Y0036454D01*
X0043927Y0036442D01*
X0044117Y0036435D01*
X0044307Y0036433D01*
X0048244Y0056118D02*
X0048246Y0056311D01*
X0048253Y0056504D01*
X0048265Y0056697D01*
X0048282Y0056890D01*
X0048303Y0057082D01*
X0048329Y0057273D01*
X0048360Y0057464D01*
X0048395Y0057654D01*
X0048435Y0057843D01*
X0048480Y0058031D01*
X0048529Y0058218D01*
X0048583Y0058404D01*
X0048641Y0058588D01*
X0048704Y0058771D01*
X0048772Y0058952D01*
X0048843Y0059131D01*
X0048920Y0059309D01*
X0049000Y0059485D01*
X0049085Y0059658D01*
X0049174Y0059830D01*
X0049267Y0059999D01*
X0049364Y0060166D01*
X0049466Y0060331D01*
X0049571Y0060493D01*
X0049680Y0060652D01*
X0049794Y0060809D01*
X0049911Y0060962D01*
X0050031Y0061113D01*
X0050156Y0061261D01*
X0050284Y0061406D01*
X0050415Y0061547D01*
X0050550Y0061686D01*
X0050689Y0061821D01*
X0050830Y0061952D01*
X0050975Y0062080D01*
X0051123Y0062205D01*
X0051274Y0062325D01*
X0051427Y0062442D01*
X0051584Y0062556D01*
X0051743Y0062665D01*
X0051905Y0062770D01*
X0052070Y0062872D01*
X0052237Y0062969D01*
X0052406Y0063062D01*
X0052578Y0063151D01*
X0052751Y0063236D01*
X0052927Y0063316D01*
X0053105Y0063393D01*
X0053284Y0063464D01*
X0053465Y0063532D01*
X0053648Y0063595D01*
X0053832Y0063653D01*
X0054018Y0063707D01*
X0054205Y0063756D01*
X0054393Y0063801D01*
X0054582Y0063841D01*
X0054772Y0063876D01*
X0054963Y0063907D01*
X0055154Y0063933D01*
X0055346Y0063954D01*
X0055539Y0063971D01*
X0055732Y0063983D01*
X0055925Y0063990D01*
X0056118Y0063992D01*
X0056311Y0063990D01*
X0056504Y0063983D01*
X0056697Y0063971D01*
X0056890Y0063954D01*
X0057082Y0063933D01*
X0057273Y0063907D01*
X0057464Y0063876D01*
X0057654Y0063841D01*
X0057843Y0063801D01*
X0058031Y0063756D01*
X0058218Y0063707D01*
X0058404Y0063653D01*
X0058588Y0063595D01*
X0058771Y0063532D01*
X0058952Y0063464D01*
X0059131Y0063393D01*
X0059309Y0063316D01*
X0059485Y0063236D01*
X0059658Y0063151D01*
X0059830Y0063062D01*
X0059999Y0062969D01*
X0060166Y0062872D01*
X0060331Y0062770D01*
X0060493Y0062665D01*
X0060652Y0062556D01*
X0060809Y0062442D01*
X0060962Y0062325D01*
X0061113Y0062205D01*
X0061261Y0062080D01*
X0061406Y0061952D01*
X0061547Y0061821D01*
X0061686Y0061686D01*
X0061821Y0061547D01*
X0061952Y0061406D01*
X0062080Y0061261D01*
X0062205Y0061113D01*
X0062325Y0060962D01*
X0062442Y0060809D01*
X0062556Y0060652D01*
X0062665Y0060493D01*
X0062770Y0060331D01*
X0062872Y0060166D01*
X0062969Y0059999D01*
X0063062Y0059830D01*
X0063151Y0059658D01*
X0063236Y0059485D01*
X0063316Y0059309D01*
X0063393Y0059131D01*
X0063464Y0058952D01*
X0063532Y0058771D01*
X0063595Y0058588D01*
X0063653Y0058404D01*
X0063707Y0058218D01*
X0063756Y0058031D01*
X0063801Y0057843D01*
X0063841Y0057654D01*
X0063876Y0057464D01*
X0063907Y0057273D01*
X0063933Y0057082D01*
X0063954Y0056890D01*
X0063971Y0056697D01*
X0063983Y0056504D01*
X0063990Y0056311D01*
X0063992Y0056118D01*
X0063990Y0055925D01*
X0063983Y0055732D01*
X0063971Y0055539D01*
X0063954Y0055346D01*
X0063933Y0055154D01*
X0063907Y0054963D01*
X0063876Y0054772D01*
X0063841Y0054582D01*
X0063801Y0054393D01*
X0063756Y0054205D01*
X0063707Y0054018D01*
X0063653Y0053832D01*
X0063595Y0053648D01*
X0063532Y0053465D01*
X0063464Y0053284D01*
X0063393Y0053105D01*
X0063316Y0052927D01*
X0063236Y0052751D01*
X0063151Y0052578D01*
X0063062Y0052406D01*
X0062969Y0052237D01*
X0062872Y0052070D01*
X0062770Y0051905D01*
X0062665Y0051743D01*
X0062556Y0051584D01*
X0062442Y0051427D01*
X0062325Y0051274D01*
X0062205Y0051123D01*
X0062080Y0050975D01*
X0061952Y0050830D01*
X0061821Y0050689D01*
X0061686Y0050550D01*
X0061547Y0050415D01*
X0061406Y0050284D01*
X0061261Y0050156D01*
X0061113Y0050031D01*
X0060962Y0049911D01*
X0060809Y0049794D01*
X0060652Y0049680D01*
X0060493Y0049571D01*
X0060331Y0049466D01*
X0060166Y0049364D01*
X0059999Y0049267D01*
X0059830Y0049174D01*
X0059658Y0049085D01*
X0059485Y0049000D01*
X0059309Y0048920D01*
X0059131Y0048843D01*
X0058952Y0048772D01*
X0058771Y0048704D01*
X0058588Y0048641D01*
X0058404Y0048583D01*
X0058218Y0048529D01*
X0058031Y0048480D01*
X0057843Y0048435D01*
X0057654Y0048395D01*
X0057464Y0048360D01*
X0057273Y0048329D01*
X0057082Y0048303D01*
X0056890Y0048282D01*
X0056697Y0048265D01*
X0056504Y0048253D01*
X0056311Y0048246D01*
X0056118Y0048244D01*
X0055925Y0048246D01*
X0055732Y0048253D01*
X0055539Y0048265D01*
X0055346Y0048282D01*
X0055154Y0048303D01*
X0054963Y0048329D01*
X0054772Y0048360D01*
X0054582Y0048395D01*
X0054393Y0048435D01*
X0054205Y0048480D01*
X0054018Y0048529D01*
X0053832Y0048583D01*
X0053648Y0048641D01*
X0053465Y0048704D01*
X0053284Y0048772D01*
X0053105Y0048843D01*
X0052927Y0048920D01*
X0052751Y0049000D01*
X0052578Y0049085D01*
X0052406Y0049174D01*
X0052237Y0049267D01*
X0052070Y0049364D01*
X0051905Y0049466D01*
X0051743Y0049571D01*
X0051584Y0049680D01*
X0051427Y0049794D01*
X0051274Y0049911D01*
X0051123Y0050031D01*
X0050975Y0050156D01*
X0050830Y0050284D01*
X0050689Y0050415D01*
X0050550Y0050550D01*
X0050415Y0050689D01*
X0050284Y0050830D01*
X0050156Y0050975D01*
X0050031Y0051123D01*
X0049911Y0051274D01*
X0049794Y0051427D01*
X0049680Y0051584D01*
X0049571Y0051743D01*
X0049466Y0051905D01*
X0049364Y0052070D01*
X0049267Y0052237D01*
X0049174Y0052406D01*
X0049085Y0052578D01*
X0049000Y0052751D01*
X0048920Y0052927D01*
X0048843Y0053105D01*
X0048772Y0053284D01*
X0048704Y0053465D01*
X0048641Y0053648D01*
X0048583Y0053832D01*
X0048529Y0054018D01*
X0048480Y0054205D01*
X0048435Y0054393D01*
X0048395Y0054582D01*
X0048360Y0054772D01*
X0048329Y0054963D01*
X0048303Y0055154D01*
X0048282Y0055346D01*
X0048265Y0055539D01*
X0048253Y0055732D01*
X0048246Y0055925D01*
X0048244Y0056118D01*
X0048244Y0213598D02*
X0048246Y0213791D01*
X0048253Y0213984D01*
X0048265Y0214177D01*
X0048282Y0214370D01*
X0048303Y0214562D01*
X0048329Y0214753D01*
X0048360Y0214944D01*
X0048395Y0215134D01*
X0048435Y0215323D01*
X0048480Y0215511D01*
X0048529Y0215698D01*
X0048583Y0215884D01*
X0048641Y0216068D01*
X0048704Y0216251D01*
X0048772Y0216432D01*
X0048843Y0216611D01*
X0048920Y0216789D01*
X0049000Y0216965D01*
X0049085Y0217138D01*
X0049174Y0217310D01*
X0049267Y0217479D01*
X0049364Y0217646D01*
X0049466Y0217811D01*
X0049571Y0217973D01*
X0049680Y0218132D01*
X0049794Y0218289D01*
X0049911Y0218442D01*
X0050031Y0218593D01*
X0050156Y0218741D01*
X0050284Y0218886D01*
X0050415Y0219027D01*
X0050550Y0219166D01*
X0050689Y0219301D01*
X0050830Y0219432D01*
X0050975Y0219560D01*
X0051123Y0219685D01*
X0051274Y0219805D01*
X0051427Y0219922D01*
X0051584Y0220036D01*
X0051743Y0220145D01*
X0051905Y0220250D01*
X0052070Y0220352D01*
X0052237Y0220449D01*
X0052406Y0220542D01*
X0052578Y0220631D01*
X0052751Y0220716D01*
X0052927Y0220796D01*
X0053105Y0220873D01*
X0053284Y0220944D01*
X0053465Y0221012D01*
X0053648Y0221075D01*
X0053832Y0221133D01*
X0054018Y0221187D01*
X0054205Y0221236D01*
X0054393Y0221281D01*
X0054582Y0221321D01*
X0054772Y0221356D01*
X0054963Y0221387D01*
X0055154Y0221413D01*
X0055346Y0221434D01*
X0055539Y0221451D01*
X0055732Y0221463D01*
X0055925Y0221470D01*
X0056118Y0221472D01*
X0056311Y0221470D01*
X0056504Y0221463D01*
X0056697Y0221451D01*
X0056890Y0221434D01*
X0057082Y0221413D01*
X0057273Y0221387D01*
X0057464Y0221356D01*
X0057654Y0221321D01*
X0057843Y0221281D01*
X0058031Y0221236D01*
X0058218Y0221187D01*
X0058404Y0221133D01*
X0058588Y0221075D01*
X0058771Y0221012D01*
X0058952Y0220944D01*
X0059131Y0220873D01*
X0059309Y0220796D01*
X0059485Y0220716D01*
X0059658Y0220631D01*
X0059830Y0220542D01*
X0059999Y0220449D01*
X0060166Y0220352D01*
X0060331Y0220250D01*
X0060493Y0220145D01*
X0060652Y0220036D01*
X0060809Y0219922D01*
X0060962Y0219805D01*
X0061113Y0219685D01*
X0061261Y0219560D01*
X0061406Y0219432D01*
X0061547Y0219301D01*
X0061686Y0219166D01*
X0061821Y0219027D01*
X0061952Y0218886D01*
X0062080Y0218741D01*
X0062205Y0218593D01*
X0062325Y0218442D01*
X0062442Y0218289D01*
X0062556Y0218132D01*
X0062665Y0217973D01*
X0062770Y0217811D01*
X0062872Y0217646D01*
X0062969Y0217479D01*
X0063062Y0217310D01*
X0063151Y0217138D01*
X0063236Y0216965D01*
X0063316Y0216789D01*
X0063393Y0216611D01*
X0063464Y0216432D01*
X0063532Y0216251D01*
X0063595Y0216068D01*
X0063653Y0215884D01*
X0063707Y0215698D01*
X0063756Y0215511D01*
X0063801Y0215323D01*
X0063841Y0215134D01*
X0063876Y0214944D01*
X0063907Y0214753D01*
X0063933Y0214562D01*
X0063954Y0214370D01*
X0063971Y0214177D01*
X0063983Y0213984D01*
X0063990Y0213791D01*
X0063992Y0213598D01*
X0063990Y0213405D01*
X0063983Y0213212D01*
X0063971Y0213019D01*
X0063954Y0212826D01*
X0063933Y0212634D01*
X0063907Y0212443D01*
X0063876Y0212252D01*
X0063841Y0212062D01*
X0063801Y0211873D01*
X0063756Y0211685D01*
X0063707Y0211498D01*
X0063653Y0211312D01*
X0063595Y0211128D01*
X0063532Y0210945D01*
X0063464Y0210764D01*
X0063393Y0210585D01*
X0063316Y0210407D01*
X0063236Y0210231D01*
X0063151Y0210058D01*
X0063062Y0209886D01*
X0062969Y0209717D01*
X0062872Y0209550D01*
X0062770Y0209385D01*
X0062665Y0209223D01*
X0062556Y0209064D01*
X0062442Y0208907D01*
X0062325Y0208754D01*
X0062205Y0208603D01*
X0062080Y0208455D01*
X0061952Y0208310D01*
X0061821Y0208169D01*
X0061686Y0208030D01*
X0061547Y0207895D01*
X0061406Y0207764D01*
X0061261Y0207636D01*
X0061113Y0207511D01*
X0060962Y0207391D01*
X0060809Y0207274D01*
X0060652Y0207160D01*
X0060493Y0207051D01*
X0060331Y0206946D01*
X0060166Y0206844D01*
X0059999Y0206747D01*
X0059830Y0206654D01*
X0059658Y0206565D01*
X0059485Y0206480D01*
X0059309Y0206400D01*
X0059131Y0206323D01*
X0058952Y0206252D01*
X0058771Y0206184D01*
X0058588Y0206121D01*
X0058404Y0206063D01*
X0058218Y0206009D01*
X0058031Y0205960D01*
X0057843Y0205915D01*
X0057654Y0205875D01*
X0057464Y0205840D01*
X0057273Y0205809D01*
X0057082Y0205783D01*
X0056890Y0205762D01*
X0056697Y0205745D01*
X0056504Y0205733D01*
X0056311Y0205726D01*
X0056118Y0205724D01*
X0055925Y0205726D01*
X0055732Y0205733D01*
X0055539Y0205745D01*
X0055346Y0205762D01*
X0055154Y0205783D01*
X0054963Y0205809D01*
X0054772Y0205840D01*
X0054582Y0205875D01*
X0054393Y0205915D01*
X0054205Y0205960D01*
X0054018Y0206009D01*
X0053832Y0206063D01*
X0053648Y0206121D01*
X0053465Y0206184D01*
X0053284Y0206252D01*
X0053105Y0206323D01*
X0052927Y0206400D01*
X0052751Y0206480D01*
X0052578Y0206565D01*
X0052406Y0206654D01*
X0052237Y0206747D01*
X0052070Y0206844D01*
X0051905Y0206946D01*
X0051743Y0207051D01*
X0051584Y0207160D01*
X0051427Y0207274D01*
X0051274Y0207391D01*
X0051123Y0207511D01*
X0050975Y0207636D01*
X0050830Y0207764D01*
X0050689Y0207895D01*
X0050550Y0208030D01*
X0050415Y0208169D01*
X0050284Y0208310D01*
X0050156Y0208455D01*
X0050031Y0208603D01*
X0049911Y0208754D01*
X0049794Y0208907D01*
X0049680Y0209064D01*
X0049571Y0209223D01*
X0049466Y0209385D01*
X0049364Y0209550D01*
X0049267Y0209717D01*
X0049174Y0209886D01*
X0049085Y0210058D01*
X0049000Y0210231D01*
X0048920Y0210407D01*
X0048843Y0210585D01*
X0048772Y0210764D01*
X0048704Y0210945D01*
X0048641Y0211128D01*
X0048583Y0211312D01*
X0048529Y0211498D01*
X0048480Y0211685D01*
X0048435Y0211873D01*
X0048395Y0212062D01*
X0048360Y0212252D01*
X0048329Y0212443D01*
X0048303Y0212634D01*
X0048282Y0212826D01*
X0048265Y0213019D01*
X0048253Y0213212D01*
X0048246Y0213405D01*
X0048244Y0213598D01*
X0402575Y0213598D02*
X0402577Y0213791D01*
X0402584Y0213984D01*
X0402596Y0214177D01*
X0402613Y0214370D01*
X0402634Y0214562D01*
X0402660Y0214753D01*
X0402691Y0214944D01*
X0402726Y0215134D01*
X0402766Y0215323D01*
X0402811Y0215511D01*
X0402860Y0215698D01*
X0402914Y0215884D01*
X0402972Y0216068D01*
X0403035Y0216251D01*
X0403103Y0216432D01*
X0403174Y0216611D01*
X0403251Y0216789D01*
X0403331Y0216965D01*
X0403416Y0217138D01*
X0403505Y0217310D01*
X0403598Y0217479D01*
X0403695Y0217646D01*
X0403797Y0217811D01*
X0403902Y0217973D01*
X0404011Y0218132D01*
X0404125Y0218289D01*
X0404242Y0218442D01*
X0404362Y0218593D01*
X0404487Y0218741D01*
X0404615Y0218886D01*
X0404746Y0219027D01*
X0404881Y0219166D01*
X0405020Y0219301D01*
X0405161Y0219432D01*
X0405306Y0219560D01*
X0405454Y0219685D01*
X0405605Y0219805D01*
X0405758Y0219922D01*
X0405915Y0220036D01*
X0406074Y0220145D01*
X0406236Y0220250D01*
X0406401Y0220352D01*
X0406568Y0220449D01*
X0406737Y0220542D01*
X0406909Y0220631D01*
X0407082Y0220716D01*
X0407258Y0220796D01*
X0407436Y0220873D01*
X0407615Y0220944D01*
X0407796Y0221012D01*
X0407979Y0221075D01*
X0408163Y0221133D01*
X0408349Y0221187D01*
X0408536Y0221236D01*
X0408724Y0221281D01*
X0408913Y0221321D01*
X0409103Y0221356D01*
X0409294Y0221387D01*
X0409485Y0221413D01*
X0409677Y0221434D01*
X0409870Y0221451D01*
X0410063Y0221463D01*
X0410256Y0221470D01*
X0410449Y0221472D01*
X0410642Y0221470D01*
X0410835Y0221463D01*
X0411028Y0221451D01*
X0411221Y0221434D01*
X0411413Y0221413D01*
X0411604Y0221387D01*
X0411795Y0221356D01*
X0411985Y0221321D01*
X0412174Y0221281D01*
X0412362Y0221236D01*
X0412549Y0221187D01*
X0412735Y0221133D01*
X0412919Y0221075D01*
X0413102Y0221012D01*
X0413283Y0220944D01*
X0413462Y0220873D01*
X0413640Y0220796D01*
X0413816Y0220716D01*
X0413989Y0220631D01*
X0414161Y0220542D01*
X0414330Y0220449D01*
X0414497Y0220352D01*
X0414662Y0220250D01*
X0414824Y0220145D01*
X0414983Y0220036D01*
X0415140Y0219922D01*
X0415293Y0219805D01*
X0415444Y0219685D01*
X0415592Y0219560D01*
X0415737Y0219432D01*
X0415878Y0219301D01*
X0416017Y0219166D01*
X0416152Y0219027D01*
X0416283Y0218886D01*
X0416411Y0218741D01*
X0416536Y0218593D01*
X0416656Y0218442D01*
X0416773Y0218289D01*
X0416887Y0218132D01*
X0416996Y0217973D01*
X0417101Y0217811D01*
X0417203Y0217646D01*
X0417300Y0217479D01*
X0417393Y0217310D01*
X0417482Y0217138D01*
X0417567Y0216965D01*
X0417647Y0216789D01*
X0417724Y0216611D01*
X0417795Y0216432D01*
X0417863Y0216251D01*
X0417926Y0216068D01*
X0417984Y0215884D01*
X0418038Y0215698D01*
X0418087Y0215511D01*
X0418132Y0215323D01*
X0418172Y0215134D01*
X0418207Y0214944D01*
X0418238Y0214753D01*
X0418264Y0214562D01*
X0418285Y0214370D01*
X0418302Y0214177D01*
X0418314Y0213984D01*
X0418321Y0213791D01*
X0418323Y0213598D01*
X0418321Y0213405D01*
X0418314Y0213212D01*
X0418302Y0213019D01*
X0418285Y0212826D01*
X0418264Y0212634D01*
X0418238Y0212443D01*
X0418207Y0212252D01*
X0418172Y0212062D01*
X0418132Y0211873D01*
X0418087Y0211685D01*
X0418038Y0211498D01*
X0417984Y0211312D01*
X0417926Y0211128D01*
X0417863Y0210945D01*
X0417795Y0210764D01*
X0417724Y0210585D01*
X0417647Y0210407D01*
X0417567Y0210231D01*
X0417482Y0210058D01*
X0417393Y0209886D01*
X0417300Y0209717D01*
X0417203Y0209550D01*
X0417101Y0209385D01*
X0416996Y0209223D01*
X0416887Y0209064D01*
X0416773Y0208907D01*
X0416656Y0208754D01*
X0416536Y0208603D01*
X0416411Y0208455D01*
X0416283Y0208310D01*
X0416152Y0208169D01*
X0416017Y0208030D01*
X0415878Y0207895D01*
X0415737Y0207764D01*
X0415592Y0207636D01*
X0415444Y0207511D01*
X0415293Y0207391D01*
X0415140Y0207274D01*
X0414983Y0207160D01*
X0414824Y0207051D01*
X0414662Y0206946D01*
X0414497Y0206844D01*
X0414330Y0206747D01*
X0414161Y0206654D01*
X0413989Y0206565D01*
X0413816Y0206480D01*
X0413640Y0206400D01*
X0413462Y0206323D01*
X0413283Y0206252D01*
X0413102Y0206184D01*
X0412919Y0206121D01*
X0412735Y0206063D01*
X0412549Y0206009D01*
X0412362Y0205960D01*
X0412174Y0205915D01*
X0411985Y0205875D01*
X0411795Y0205840D01*
X0411604Y0205809D01*
X0411413Y0205783D01*
X0411221Y0205762D01*
X0411028Y0205745D01*
X0410835Y0205733D01*
X0410642Y0205726D01*
X0410449Y0205724D01*
X0410256Y0205726D01*
X0410063Y0205733D01*
X0409870Y0205745D01*
X0409677Y0205762D01*
X0409485Y0205783D01*
X0409294Y0205809D01*
X0409103Y0205840D01*
X0408913Y0205875D01*
X0408724Y0205915D01*
X0408536Y0205960D01*
X0408349Y0206009D01*
X0408163Y0206063D01*
X0407979Y0206121D01*
X0407796Y0206184D01*
X0407615Y0206252D01*
X0407436Y0206323D01*
X0407258Y0206400D01*
X0407082Y0206480D01*
X0406909Y0206565D01*
X0406737Y0206654D01*
X0406568Y0206747D01*
X0406401Y0206844D01*
X0406236Y0206946D01*
X0406074Y0207051D01*
X0405915Y0207160D01*
X0405758Y0207274D01*
X0405605Y0207391D01*
X0405454Y0207511D01*
X0405306Y0207636D01*
X0405161Y0207764D01*
X0405020Y0207895D01*
X0404881Y0208030D01*
X0404746Y0208169D01*
X0404615Y0208310D01*
X0404487Y0208455D01*
X0404362Y0208603D01*
X0404242Y0208754D01*
X0404125Y0208907D01*
X0404011Y0209064D01*
X0403902Y0209223D01*
X0403797Y0209385D01*
X0403695Y0209550D01*
X0403598Y0209717D01*
X0403505Y0209886D01*
X0403416Y0210058D01*
X0403331Y0210231D01*
X0403251Y0210407D01*
X0403174Y0210585D01*
X0403103Y0210764D01*
X0403035Y0210945D01*
X0402972Y0211128D01*
X0402914Y0211312D01*
X0402860Y0211498D01*
X0402811Y0211685D01*
X0402766Y0211873D01*
X0402726Y0212062D01*
X0402691Y0212252D01*
X0402660Y0212443D01*
X0402634Y0212634D01*
X0402613Y0212826D01*
X0402596Y0213019D01*
X0402584Y0213212D01*
X0402577Y0213405D01*
X0402575Y0213598D01*
X0414788Y0142732D02*
X0414790Y0142801D01*
X0414796Y0142869D01*
X0414806Y0142937D01*
X0414820Y0143004D01*
X0414838Y0143071D01*
X0414859Y0143136D01*
X0414885Y0143200D01*
X0414914Y0143262D01*
X0414946Y0143322D01*
X0414982Y0143381D01*
X0415022Y0143437D01*
X0415064Y0143491D01*
X0415110Y0143542D01*
X0415159Y0143591D01*
X0415210Y0143637D01*
X0415264Y0143679D01*
X0415320Y0143719D01*
X0415378Y0143755D01*
X0415439Y0143787D01*
X0415501Y0143816D01*
X0415565Y0143842D01*
X0415630Y0143863D01*
X0415697Y0143881D01*
X0415764Y0143895D01*
X0415832Y0143905D01*
X0415900Y0143911D01*
X0415969Y0143913D01*
X0416038Y0143911D01*
X0416106Y0143905D01*
X0416174Y0143895D01*
X0416241Y0143881D01*
X0416308Y0143863D01*
X0416373Y0143842D01*
X0416437Y0143816D01*
X0416499Y0143787D01*
X0416559Y0143755D01*
X0416618Y0143719D01*
X0416674Y0143679D01*
X0416728Y0143637D01*
X0416779Y0143591D01*
X0416828Y0143542D01*
X0416874Y0143491D01*
X0416916Y0143437D01*
X0416956Y0143381D01*
X0416992Y0143322D01*
X0417024Y0143262D01*
X0417053Y0143200D01*
X0417079Y0143136D01*
X0417100Y0143071D01*
X0417118Y0143004D01*
X0417132Y0142937D01*
X0417142Y0142869D01*
X0417148Y0142801D01*
X0417150Y0142732D01*
X0417148Y0142663D01*
X0417142Y0142595D01*
X0417132Y0142527D01*
X0417118Y0142460D01*
X0417100Y0142393D01*
X0417079Y0142328D01*
X0417053Y0142264D01*
X0417024Y0142202D01*
X0416992Y0142141D01*
X0416956Y0142083D01*
X0416916Y0142027D01*
X0416874Y0141973D01*
X0416828Y0141922D01*
X0416779Y0141873D01*
X0416728Y0141827D01*
X0416674Y0141785D01*
X0416618Y0141745D01*
X0416560Y0141709D01*
X0416499Y0141677D01*
X0416437Y0141648D01*
X0416373Y0141622D01*
X0416308Y0141601D01*
X0416241Y0141583D01*
X0416174Y0141569D01*
X0416106Y0141559D01*
X0416038Y0141553D01*
X0415969Y0141551D01*
X0415900Y0141553D01*
X0415832Y0141559D01*
X0415764Y0141569D01*
X0415697Y0141583D01*
X0415630Y0141601D01*
X0415565Y0141622D01*
X0415501Y0141648D01*
X0415439Y0141677D01*
X0415378Y0141709D01*
X0415320Y0141745D01*
X0415264Y0141785D01*
X0415210Y0141827D01*
X0415159Y0141873D01*
X0415110Y0141922D01*
X0415064Y0141973D01*
X0415022Y0142027D01*
X0414982Y0142083D01*
X0414946Y0142141D01*
X0414914Y0142202D01*
X0414885Y0142264D01*
X0414859Y0142328D01*
X0414838Y0142393D01*
X0414820Y0142460D01*
X0414806Y0142527D01*
X0414796Y0142595D01*
X0414790Y0142663D01*
X0414788Y0142732D01*
X0414788Y0126984D02*
X0414790Y0127053D01*
X0414796Y0127121D01*
X0414806Y0127189D01*
X0414820Y0127256D01*
X0414838Y0127323D01*
X0414859Y0127388D01*
X0414885Y0127452D01*
X0414914Y0127514D01*
X0414946Y0127574D01*
X0414982Y0127633D01*
X0415022Y0127689D01*
X0415064Y0127743D01*
X0415110Y0127794D01*
X0415159Y0127843D01*
X0415210Y0127889D01*
X0415264Y0127931D01*
X0415320Y0127971D01*
X0415378Y0128007D01*
X0415439Y0128039D01*
X0415501Y0128068D01*
X0415565Y0128094D01*
X0415630Y0128115D01*
X0415697Y0128133D01*
X0415764Y0128147D01*
X0415832Y0128157D01*
X0415900Y0128163D01*
X0415969Y0128165D01*
X0416038Y0128163D01*
X0416106Y0128157D01*
X0416174Y0128147D01*
X0416241Y0128133D01*
X0416308Y0128115D01*
X0416373Y0128094D01*
X0416437Y0128068D01*
X0416499Y0128039D01*
X0416559Y0128007D01*
X0416618Y0127971D01*
X0416674Y0127931D01*
X0416728Y0127889D01*
X0416779Y0127843D01*
X0416828Y0127794D01*
X0416874Y0127743D01*
X0416916Y0127689D01*
X0416956Y0127633D01*
X0416992Y0127574D01*
X0417024Y0127514D01*
X0417053Y0127452D01*
X0417079Y0127388D01*
X0417100Y0127323D01*
X0417118Y0127256D01*
X0417132Y0127189D01*
X0417142Y0127121D01*
X0417148Y0127053D01*
X0417150Y0126984D01*
X0417148Y0126915D01*
X0417142Y0126847D01*
X0417132Y0126779D01*
X0417118Y0126712D01*
X0417100Y0126645D01*
X0417079Y0126580D01*
X0417053Y0126516D01*
X0417024Y0126454D01*
X0416992Y0126393D01*
X0416956Y0126335D01*
X0416916Y0126279D01*
X0416874Y0126225D01*
X0416828Y0126174D01*
X0416779Y0126125D01*
X0416728Y0126079D01*
X0416674Y0126037D01*
X0416618Y0125997D01*
X0416560Y0125961D01*
X0416499Y0125929D01*
X0416437Y0125900D01*
X0416373Y0125874D01*
X0416308Y0125853D01*
X0416241Y0125835D01*
X0416174Y0125821D01*
X0416106Y0125811D01*
X0416038Y0125805D01*
X0415969Y0125803D01*
X0415900Y0125805D01*
X0415832Y0125811D01*
X0415764Y0125821D01*
X0415697Y0125835D01*
X0415630Y0125853D01*
X0415565Y0125874D01*
X0415501Y0125900D01*
X0415439Y0125929D01*
X0415378Y0125961D01*
X0415320Y0125997D01*
X0415264Y0126037D01*
X0415210Y0126079D01*
X0415159Y0126125D01*
X0415110Y0126174D01*
X0415064Y0126225D01*
X0415022Y0126279D01*
X0414982Y0126335D01*
X0414946Y0126393D01*
X0414914Y0126454D01*
X0414885Y0126516D01*
X0414859Y0126580D01*
X0414838Y0126645D01*
X0414820Y0126712D01*
X0414806Y0126779D01*
X0414796Y0126847D01*
X0414790Y0126915D01*
X0414788Y0126984D01*
X0402575Y0056118D02*
X0402577Y0056311D01*
X0402584Y0056504D01*
X0402596Y0056697D01*
X0402613Y0056890D01*
X0402634Y0057082D01*
X0402660Y0057273D01*
X0402691Y0057464D01*
X0402726Y0057654D01*
X0402766Y0057843D01*
X0402811Y0058031D01*
X0402860Y0058218D01*
X0402914Y0058404D01*
X0402972Y0058588D01*
X0403035Y0058771D01*
X0403103Y0058952D01*
X0403174Y0059131D01*
X0403251Y0059309D01*
X0403331Y0059485D01*
X0403416Y0059658D01*
X0403505Y0059830D01*
X0403598Y0059999D01*
X0403695Y0060166D01*
X0403797Y0060331D01*
X0403902Y0060493D01*
X0404011Y0060652D01*
X0404125Y0060809D01*
X0404242Y0060962D01*
X0404362Y0061113D01*
X0404487Y0061261D01*
X0404615Y0061406D01*
X0404746Y0061547D01*
X0404881Y0061686D01*
X0405020Y0061821D01*
X0405161Y0061952D01*
X0405306Y0062080D01*
X0405454Y0062205D01*
X0405605Y0062325D01*
X0405758Y0062442D01*
X0405915Y0062556D01*
X0406074Y0062665D01*
X0406236Y0062770D01*
X0406401Y0062872D01*
X0406568Y0062969D01*
X0406737Y0063062D01*
X0406909Y0063151D01*
X0407082Y0063236D01*
X0407258Y0063316D01*
X0407436Y0063393D01*
X0407615Y0063464D01*
X0407796Y0063532D01*
X0407979Y0063595D01*
X0408163Y0063653D01*
X0408349Y0063707D01*
X0408536Y0063756D01*
X0408724Y0063801D01*
X0408913Y0063841D01*
X0409103Y0063876D01*
X0409294Y0063907D01*
X0409485Y0063933D01*
X0409677Y0063954D01*
X0409870Y0063971D01*
X0410063Y0063983D01*
X0410256Y0063990D01*
X0410449Y0063992D01*
X0410642Y0063990D01*
X0410835Y0063983D01*
X0411028Y0063971D01*
X0411221Y0063954D01*
X0411413Y0063933D01*
X0411604Y0063907D01*
X0411795Y0063876D01*
X0411985Y0063841D01*
X0412174Y0063801D01*
X0412362Y0063756D01*
X0412549Y0063707D01*
X0412735Y0063653D01*
X0412919Y0063595D01*
X0413102Y0063532D01*
X0413283Y0063464D01*
X0413462Y0063393D01*
X0413640Y0063316D01*
X0413816Y0063236D01*
X0413989Y0063151D01*
X0414161Y0063062D01*
X0414330Y0062969D01*
X0414497Y0062872D01*
X0414662Y0062770D01*
X0414824Y0062665D01*
X0414983Y0062556D01*
X0415140Y0062442D01*
X0415293Y0062325D01*
X0415444Y0062205D01*
X0415592Y0062080D01*
X0415737Y0061952D01*
X0415878Y0061821D01*
X0416017Y0061686D01*
X0416152Y0061547D01*
X0416283Y0061406D01*
X0416411Y0061261D01*
X0416536Y0061113D01*
X0416656Y0060962D01*
X0416773Y0060809D01*
X0416887Y0060652D01*
X0416996Y0060493D01*
X0417101Y0060331D01*
X0417203Y0060166D01*
X0417300Y0059999D01*
X0417393Y0059830D01*
X0417482Y0059658D01*
X0417567Y0059485D01*
X0417647Y0059309D01*
X0417724Y0059131D01*
X0417795Y0058952D01*
X0417863Y0058771D01*
X0417926Y0058588D01*
X0417984Y0058404D01*
X0418038Y0058218D01*
X0418087Y0058031D01*
X0418132Y0057843D01*
X0418172Y0057654D01*
X0418207Y0057464D01*
X0418238Y0057273D01*
X0418264Y0057082D01*
X0418285Y0056890D01*
X0418302Y0056697D01*
X0418314Y0056504D01*
X0418321Y0056311D01*
X0418323Y0056118D01*
X0418321Y0055925D01*
X0418314Y0055732D01*
X0418302Y0055539D01*
X0418285Y0055346D01*
X0418264Y0055154D01*
X0418238Y0054963D01*
X0418207Y0054772D01*
X0418172Y0054582D01*
X0418132Y0054393D01*
X0418087Y0054205D01*
X0418038Y0054018D01*
X0417984Y0053832D01*
X0417926Y0053648D01*
X0417863Y0053465D01*
X0417795Y0053284D01*
X0417724Y0053105D01*
X0417647Y0052927D01*
X0417567Y0052751D01*
X0417482Y0052578D01*
X0417393Y0052406D01*
X0417300Y0052237D01*
X0417203Y0052070D01*
X0417101Y0051905D01*
X0416996Y0051743D01*
X0416887Y0051584D01*
X0416773Y0051427D01*
X0416656Y0051274D01*
X0416536Y0051123D01*
X0416411Y0050975D01*
X0416283Y0050830D01*
X0416152Y0050689D01*
X0416017Y0050550D01*
X0415878Y0050415D01*
X0415737Y0050284D01*
X0415592Y0050156D01*
X0415444Y0050031D01*
X0415293Y0049911D01*
X0415140Y0049794D01*
X0414983Y0049680D01*
X0414824Y0049571D01*
X0414662Y0049466D01*
X0414497Y0049364D01*
X0414330Y0049267D01*
X0414161Y0049174D01*
X0413989Y0049085D01*
X0413816Y0049000D01*
X0413640Y0048920D01*
X0413462Y0048843D01*
X0413283Y0048772D01*
X0413102Y0048704D01*
X0412919Y0048641D01*
X0412735Y0048583D01*
X0412549Y0048529D01*
X0412362Y0048480D01*
X0412174Y0048435D01*
X0411985Y0048395D01*
X0411795Y0048360D01*
X0411604Y0048329D01*
X0411413Y0048303D01*
X0411221Y0048282D01*
X0411028Y0048265D01*
X0410835Y0048253D01*
X0410642Y0048246D01*
X0410449Y0048244D01*
X0410256Y0048246D01*
X0410063Y0048253D01*
X0409870Y0048265D01*
X0409677Y0048282D01*
X0409485Y0048303D01*
X0409294Y0048329D01*
X0409103Y0048360D01*
X0408913Y0048395D01*
X0408724Y0048435D01*
X0408536Y0048480D01*
X0408349Y0048529D01*
X0408163Y0048583D01*
X0407979Y0048641D01*
X0407796Y0048704D01*
X0407615Y0048772D01*
X0407436Y0048843D01*
X0407258Y0048920D01*
X0407082Y0049000D01*
X0406909Y0049085D01*
X0406737Y0049174D01*
X0406568Y0049267D01*
X0406401Y0049364D01*
X0406236Y0049466D01*
X0406074Y0049571D01*
X0405915Y0049680D01*
X0405758Y0049794D01*
X0405605Y0049911D01*
X0405454Y0050031D01*
X0405306Y0050156D01*
X0405161Y0050284D01*
X0405020Y0050415D01*
X0404881Y0050550D01*
X0404746Y0050689D01*
X0404615Y0050830D01*
X0404487Y0050975D01*
X0404362Y0051123D01*
X0404242Y0051274D01*
X0404125Y0051427D01*
X0404011Y0051584D01*
X0403902Y0051743D01*
X0403797Y0051905D01*
X0403695Y0052070D01*
X0403598Y0052237D01*
X0403505Y0052406D01*
X0403416Y0052578D01*
X0403331Y0052751D01*
X0403251Y0052927D01*
X0403174Y0053105D01*
X0403103Y0053284D01*
X0403035Y0053465D01*
X0402972Y0053648D01*
X0402914Y0053832D01*
X0402860Y0054018D01*
X0402811Y0054205D01*
X0402766Y0054393D01*
X0402726Y0054582D01*
X0402691Y0054772D01*
X0402660Y0054963D01*
X0402634Y0055154D01*
X0402613Y0055346D01*
X0402596Y0055539D01*
X0402584Y0055732D01*
X0402577Y0055925D01*
X0402575Y0056118D01*
M02*
