G75*
%MOIN*%
%OFA0B0*%
%FSLAX25Y25*%
%IPPOS*%
%LPD*%
%AMOC8*
5,1,8,0,0,1.08239X$1,22.5*
%
%ADD10R,0.05984X0.05984*%
%ADD11C,0.05984*%
%ADD12C,0.07480*%
%ADD13R,0.07480X0.07480*%
%ADD14C,0.09118*%
%ADD15C,0.10299*%
%ADD16R,0.10299X0.10299*%
%ADD17C,0.09512*%
%ADD18C,0.00827*%
%ADD19C,0.08724*%
%ADD20R,0.08724X0.08724*%
%ADD21C,0.00799*%
%ADD22C,0.00787*%
%ADD23C,0.00819*%
%ADD24C,0.01000*%
%ADD25C,0.02992*%
%ADD26C,0.05512*%
%ADD27C,0.01969*%
%ADD28C,0.03937*%
%ADD29C,0.01575*%
%ADD30C,0.01181*%
D10*
X0136433Y0111433D03*
X0316433Y0180933D03*
X0316433Y0215933D03*
D11*
X0316433Y0201933D03*
X0316433Y0166933D03*
X0166433Y0111433D03*
X0166433Y0101433D03*
X0166433Y0091433D03*
X0166433Y0081433D03*
X0166433Y0071433D03*
X0166433Y0061433D03*
X0166433Y0051433D03*
X0136433Y0051433D03*
X0136433Y0061433D03*
X0136433Y0071433D03*
X0136433Y0081433D03*
X0136433Y0091433D03*
X0136433Y0101433D03*
D12*
X0096433Y0066433D03*
X0086433Y0066433D03*
X0086433Y0051433D03*
X0096433Y0051433D03*
X0183933Y0046933D03*
X0193933Y0046933D03*
X0321433Y0051433D03*
X0321433Y0061433D03*
X0331433Y0061433D03*
X0341433Y0061433D03*
X0351433Y0061433D03*
X0351433Y0051433D03*
X0341433Y0051433D03*
X0331433Y0051433D03*
X0361433Y0051433D03*
X0073441Y0124858D03*
X0073441Y0134858D03*
D13*
X0073441Y0144858D03*
X0361433Y0061433D03*
D14*
X0406433Y0176433D03*
X0176433Y0191433D03*
X0161433Y0191433D03*
X0161433Y0211433D03*
X0176433Y0211433D03*
D15*
X0111433Y0189992D03*
X0092929Y0189992D03*
D16*
X0129937Y0189992D03*
D17*
X0137811Y0227394D03*
X0085055Y0227394D03*
D18*
X0192457Y0212821D02*
X0192457Y0207741D01*
X0185409Y0207741D01*
X0185409Y0212821D01*
X0192457Y0212821D01*
X0192457Y0208567D02*
X0185409Y0208567D01*
X0185409Y0209393D02*
X0192457Y0209393D01*
X0192457Y0210219D02*
X0185409Y0210219D01*
X0185409Y0211045D02*
X0192457Y0211045D01*
X0192457Y0211871D02*
X0185409Y0211871D01*
X0185409Y0212697D02*
X0192457Y0212697D01*
X0202457Y0212821D02*
X0202457Y0207741D01*
X0195409Y0207741D01*
X0195409Y0212821D01*
X0202457Y0212821D01*
X0202457Y0208567D02*
X0195409Y0208567D01*
X0195409Y0209393D02*
X0202457Y0209393D01*
X0202457Y0210219D02*
X0195409Y0210219D01*
X0195409Y0211045D02*
X0202457Y0211045D01*
X0202457Y0211871D02*
X0195409Y0211871D01*
X0195409Y0212697D02*
X0202457Y0212697D01*
X0212457Y0212821D02*
X0212457Y0207741D01*
X0205409Y0207741D01*
X0205409Y0212821D01*
X0212457Y0212821D01*
X0212457Y0208567D02*
X0205409Y0208567D01*
X0205409Y0209393D02*
X0212457Y0209393D01*
X0212457Y0210219D02*
X0205409Y0210219D01*
X0205409Y0211045D02*
X0212457Y0211045D01*
X0212457Y0211871D02*
X0205409Y0211871D01*
X0205409Y0212697D02*
X0212457Y0212697D01*
X0222457Y0212821D02*
X0222457Y0207741D01*
X0215409Y0207741D01*
X0215409Y0212821D01*
X0222457Y0212821D01*
X0222457Y0208567D02*
X0215409Y0208567D01*
X0215409Y0209393D02*
X0222457Y0209393D01*
X0222457Y0210219D02*
X0215409Y0210219D01*
X0215409Y0211045D02*
X0222457Y0211045D01*
X0222457Y0211871D02*
X0215409Y0211871D01*
X0215409Y0212697D02*
X0222457Y0212697D01*
X0222457Y0199125D02*
X0222457Y0194045D01*
X0215409Y0194045D01*
X0215409Y0199125D01*
X0222457Y0199125D01*
X0222457Y0194871D02*
X0215409Y0194871D01*
X0215409Y0195697D02*
X0222457Y0195697D01*
X0222457Y0196523D02*
X0215409Y0196523D01*
X0215409Y0197349D02*
X0222457Y0197349D01*
X0222457Y0198175D02*
X0215409Y0198175D01*
X0215409Y0199001D02*
X0222457Y0199001D01*
X0212457Y0199125D02*
X0212457Y0194045D01*
X0205409Y0194045D01*
X0205409Y0199125D01*
X0212457Y0199125D01*
X0212457Y0194871D02*
X0205409Y0194871D01*
X0205409Y0195697D02*
X0212457Y0195697D01*
X0212457Y0196523D02*
X0205409Y0196523D01*
X0205409Y0197349D02*
X0212457Y0197349D01*
X0212457Y0198175D02*
X0205409Y0198175D01*
X0205409Y0199001D02*
X0212457Y0199001D01*
X0202457Y0199125D02*
X0202457Y0194045D01*
X0195409Y0194045D01*
X0195409Y0199125D01*
X0202457Y0199125D01*
X0202457Y0194871D02*
X0195409Y0194871D01*
X0195409Y0195697D02*
X0202457Y0195697D01*
X0202457Y0196523D02*
X0195409Y0196523D01*
X0195409Y0197349D02*
X0202457Y0197349D01*
X0202457Y0198175D02*
X0195409Y0198175D01*
X0195409Y0199001D02*
X0202457Y0199001D01*
X0192457Y0199125D02*
X0192457Y0194045D01*
X0185409Y0194045D01*
X0185409Y0199125D01*
X0192457Y0199125D01*
X0192457Y0194871D02*
X0185409Y0194871D01*
X0185409Y0195697D02*
X0192457Y0195697D01*
X0192457Y0196523D02*
X0185409Y0196523D01*
X0185409Y0197349D02*
X0192457Y0197349D01*
X0192457Y0198175D02*
X0185409Y0198175D01*
X0185409Y0199001D02*
X0192457Y0199001D01*
X0325457Y0143321D02*
X0325457Y0138241D01*
X0318409Y0138241D01*
X0318409Y0143321D01*
X0325457Y0143321D01*
X0325457Y0139067D02*
X0318409Y0139067D01*
X0318409Y0139893D02*
X0325457Y0139893D01*
X0325457Y0140719D02*
X0318409Y0140719D01*
X0318409Y0141545D02*
X0325457Y0141545D01*
X0325457Y0142371D02*
X0318409Y0142371D01*
X0318409Y0143197D02*
X0325457Y0143197D01*
X0335457Y0143321D02*
X0335457Y0138241D01*
X0328409Y0138241D01*
X0328409Y0143321D01*
X0335457Y0143321D01*
X0335457Y0139067D02*
X0328409Y0139067D01*
X0328409Y0139893D02*
X0335457Y0139893D01*
X0335457Y0140719D02*
X0328409Y0140719D01*
X0328409Y0141545D02*
X0335457Y0141545D01*
X0335457Y0142371D02*
X0328409Y0142371D01*
X0328409Y0143197D02*
X0335457Y0143197D01*
X0335457Y0129625D02*
X0335457Y0124545D01*
X0328409Y0124545D01*
X0328409Y0129625D01*
X0335457Y0129625D01*
X0335457Y0125371D02*
X0328409Y0125371D01*
X0328409Y0126197D02*
X0335457Y0126197D01*
X0335457Y0127023D02*
X0328409Y0127023D01*
X0328409Y0127849D02*
X0335457Y0127849D01*
X0335457Y0128675D02*
X0328409Y0128675D01*
X0328409Y0129501D02*
X0335457Y0129501D01*
X0325457Y0129625D02*
X0325457Y0124545D01*
X0318409Y0124545D01*
X0318409Y0129625D01*
X0325457Y0129625D01*
X0325457Y0125371D02*
X0318409Y0125371D01*
X0318409Y0126197D02*
X0325457Y0126197D01*
X0325457Y0127023D02*
X0318409Y0127023D01*
X0318409Y0127849D02*
X0325457Y0127849D01*
X0325457Y0128675D02*
X0318409Y0128675D01*
X0318409Y0129501D02*
X0325457Y0129501D01*
X0305821Y0119957D02*
X0300741Y0119957D01*
X0305821Y0119957D02*
X0305821Y0112909D01*
X0300741Y0112909D01*
X0300741Y0119957D01*
X0300741Y0113735D02*
X0305821Y0113735D01*
X0305821Y0114561D02*
X0300741Y0114561D01*
X0300741Y0115387D02*
X0305821Y0115387D01*
X0305821Y0116213D02*
X0300741Y0116213D01*
X0300741Y0117039D02*
X0305821Y0117039D01*
X0305821Y0117865D02*
X0300741Y0117865D01*
X0300741Y0118691D02*
X0305821Y0118691D01*
X0305821Y0119517D02*
X0300741Y0119517D01*
X0292125Y0119957D02*
X0287045Y0119957D01*
X0292125Y0119957D02*
X0292125Y0112909D01*
X0287045Y0112909D01*
X0287045Y0119957D01*
X0287045Y0113735D02*
X0292125Y0113735D01*
X0292125Y0114561D02*
X0287045Y0114561D01*
X0287045Y0115387D02*
X0292125Y0115387D01*
X0292125Y0116213D02*
X0287045Y0116213D01*
X0287045Y0117039D02*
X0292125Y0117039D01*
X0292125Y0117865D02*
X0287045Y0117865D01*
X0287045Y0118691D02*
X0292125Y0118691D01*
X0292125Y0119517D02*
X0287045Y0119517D01*
X0287045Y0109957D02*
X0292125Y0109957D01*
X0292125Y0102909D01*
X0287045Y0102909D01*
X0287045Y0109957D01*
X0287045Y0103735D02*
X0292125Y0103735D01*
X0292125Y0104561D02*
X0287045Y0104561D01*
X0287045Y0105387D02*
X0292125Y0105387D01*
X0292125Y0106213D02*
X0287045Y0106213D01*
X0287045Y0107039D02*
X0292125Y0107039D01*
X0292125Y0107865D02*
X0287045Y0107865D01*
X0287045Y0108691D02*
X0292125Y0108691D01*
X0292125Y0109517D02*
X0287045Y0109517D01*
X0300741Y0109957D02*
X0305821Y0109957D01*
X0305821Y0102909D01*
X0300741Y0102909D01*
X0300741Y0109957D01*
X0300741Y0103735D02*
X0305821Y0103735D01*
X0305821Y0104561D02*
X0300741Y0104561D01*
X0300741Y0105387D02*
X0305821Y0105387D01*
X0305821Y0106213D02*
X0300741Y0106213D01*
X0300741Y0107039D02*
X0305821Y0107039D01*
X0305821Y0107865D02*
X0300741Y0107865D01*
X0300741Y0108691D02*
X0305821Y0108691D01*
X0305821Y0109517D02*
X0300741Y0109517D01*
X0250823Y0080878D02*
X0250823Y0063988D01*
X0245743Y0063988D01*
X0245743Y0080878D01*
X0250823Y0080878D01*
X0250823Y0064814D02*
X0245743Y0064814D01*
X0245743Y0065640D02*
X0250823Y0065640D01*
X0250823Y0066466D02*
X0245743Y0066466D01*
X0245743Y0067292D02*
X0250823Y0067292D01*
X0250823Y0068118D02*
X0245743Y0068118D01*
X0245743Y0068944D02*
X0250823Y0068944D01*
X0250823Y0069770D02*
X0245743Y0069770D01*
X0245743Y0070596D02*
X0250823Y0070596D01*
X0250823Y0071422D02*
X0245743Y0071422D01*
X0245743Y0072248D02*
X0250823Y0072248D01*
X0250823Y0073074D02*
X0245743Y0073074D01*
X0245743Y0073900D02*
X0250823Y0073900D01*
X0250823Y0074726D02*
X0245743Y0074726D01*
X0245743Y0075552D02*
X0250823Y0075552D01*
X0250823Y0076378D02*
X0245743Y0076378D01*
X0245743Y0077204D02*
X0250823Y0077204D01*
X0250823Y0078030D02*
X0245743Y0078030D01*
X0245743Y0078856D02*
X0250823Y0078856D01*
X0250823Y0079682D02*
X0245743Y0079682D01*
X0245743Y0080508D02*
X0250823Y0080508D01*
X0240823Y0080878D02*
X0240823Y0063988D01*
X0235743Y0063988D01*
X0235743Y0080878D01*
X0240823Y0080878D01*
X0240823Y0064814D02*
X0235743Y0064814D01*
X0235743Y0065640D02*
X0240823Y0065640D01*
X0240823Y0066466D02*
X0235743Y0066466D01*
X0235743Y0067292D02*
X0240823Y0067292D01*
X0240823Y0068118D02*
X0235743Y0068118D01*
X0235743Y0068944D02*
X0240823Y0068944D01*
X0240823Y0069770D02*
X0235743Y0069770D01*
X0235743Y0070596D02*
X0240823Y0070596D01*
X0240823Y0071422D02*
X0235743Y0071422D01*
X0235743Y0072248D02*
X0240823Y0072248D01*
X0240823Y0073074D02*
X0235743Y0073074D01*
X0235743Y0073900D02*
X0240823Y0073900D01*
X0240823Y0074726D02*
X0235743Y0074726D01*
X0235743Y0075552D02*
X0240823Y0075552D01*
X0240823Y0076378D02*
X0235743Y0076378D01*
X0235743Y0077204D02*
X0240823Y0077204D01*
X0240823Y0078030D02*
X0235743Y0078030D01*
X0235743Y0078856D02*
X0240823Y0078856D01*
X0240823Y0079682D02*
X0235743Y0079682D01*
X0235743Y0080508D02*
X0240823Y0080508D01*
X0230823Y0080878D02*
X0230823Y0063988D01*
X0225743Y0063988D01*
X0225743Y0080878D01*
X0230823Y0080878D01*
X0230823Y0064814D02*
X0225743Y0064814D01*
X0225743Y0065640D02*
X0230823Y0065640D01*
X0230823Y0066466D02*
X0225743Y0066466D01*
X0225743Y0067292D02*
X0230823Y0067292D01*
X0230823Y0068118D02*
X0225743Y0068118D01*
X0225743Y0068944D02*
X0230823Y0068944D01*
X0230823Y0069770D02*
X0225743Y0069770D01*
X0225743Y0070596D02*
X0230823Y0070596D01*
X0230823Y0071422D02*
X0225743Y0071422D01*
X0225743Y0072248D02*
X0230823Y0072248D01*
X0230823Y0073074D02*
X0225743Y0073074D01*
X0225743Y0073900D02*
X0230823Y0073900D01*
X0230823Y0074726D02*
X0225743Y0074726D01*
X0225743Y0075552D02*
X0230823Y0075552D01*
X0230823Y0076378D02*
X0225743Y0076378D01*
X0225743Y0077204D02*
X0230823Y0077204D01*
X0230823Y0078030D02*
X0225743Y0078030D01*
X0225743Y0078856D02*
X0230823Y0078856D01*
X0230823Y0079682D02*
X0225743Y0079682D01*
X0225743Y0080508D02*
X0230823Y0080508D01*
X0220823Y0080878D02*
X0220823Y0063988D01*
X0215743Y0063988D01*
X0215743Y0080878D01*
X0220823Y0080878D01*
X0220823Y0064814D02*
X0215743Y0064814D01*
X0215743Y0065640D02*
X0220823Y0065640D01*
X0220823Y0066466D02*
X0215743Y0066466D01*
X0215743Y0067292D02*
X0220823Y0067292D01*
X0220823Y0068118D02*
X0215743Y0068118D01*
X0215743Y0068944D02*
X0220823Y0068944D01*
X0220823Y0069770D02*
X0215743Y0069770D01*
X0215743Y0070596D02*
X0220823Y0070596D01*
X0220823Y0071422D02*
X0215743Y0071422D01*
X0215743Y0072248D02*
X0220823Y0072248D01*
X0220823Y0073074D02*
X0215743Y0073074D01*
X0215743Y0073900D02*
X0220823Y0073900D01*
X0220823Y0074726D02*
X0215743Y0074726D01*
X0215743Y0075552D02*
X0220823Y0075552D01*
X0220823Y0076378D02*
X0215743Y0076378D01*
X0215743Y0077204D02*
X0220823Y0077204D01*
X0220823Y0078030D02*
X0215743Y0078030D01*
X0215743Y0078856D02*
X0220823Y0078856D01*
X0220823Y0079682D02*
X0215743Y0079682D01*
X0215743Y0080508D02*
X0220823Y0080508D01*
X0390545Y0167457D02*
X0395625Y0167457D01*
X0395625Y0160409D01*
X0390545Y0160409D01*
X0390545Y0167457D01*
X0390545Y0161235D02*
X0395625Y0161235D01*
X0395625Y0162061D02*
X0390545Y0162061D01*
X0390545Y0162887D02*
X0395625Y0162887D01*
X0395625Y0163713D02*
X0390545Y0163713D01*
X0390545Y0164539D02*
X0395625Y0164539D01*
X0395625Y0165365D02*
X0390545Y0165365D01*
X0390545Y0166191D02*
X0395625Y0166191D01*
X0395625Y0167017D02*
X0390545Y0167017D01*
X0404241Y0167457D02*
X0409321Y0167457D01*
X0409321Y0160409D01*
X0404241Y0160409D01*
X0404241Y0167457D01*
X0404241Y0161235D02*
X0409321Y0161235D01*
X0409321Y0162061D02*
X0404241Y0162061D01*
X0404241Y0162887D02*
X0409321Y0162887D01*
X0409321Y0163713D02*
X0404241Y0163713D01*
X0404241Y0164539D02*
X0409321Y0164539D01*
X0409321Y0165365D02*
X0404241Y0165365D01*
X0404241Y0166191D02*
X0409321Y0166191D01*
X0409321Y0167017D02*
X0404241Y0167017D01*
X0427457Y0155821D02*
X0427457Y0150741D01*
X0420409Y0150741D01*
X0420409Y0155821D01*
X0427457Y0155821D01*
X0427457Y0151567D02*
X0420409Y0151567D01*
X0420409Y0152393D02*
X0427457Y0152393D01*
X0427457Y0153219D02*
X0420409Y0153219D01*
X0420409Y0154045D02*
X0427457Y0154045D01*
X0427457Y0154871D02*
X0420409Y0154871D01*
X0420409Y0155697D02*
X0427457Y0155697D01*
X0427457Y0142125D02*
X0427457Y0137045D01*
X0420409Y0137045D01*
X0420409Y0142125D01*
X0427457Y0142125D01*
X0427457Y0137871D02*
X0420409Y0137871D01*
X0420409Y0138697D02*
X0427457Y0138697D01*
X0427457Y0139523D02*
X0420409Y0139523D01*
X0420409Y0140349D02*
X0427457Y0140349D01*
X0427457Y0141175D02*
X0420409Y0141175D01*
X0420409Y0142001D02*
X0427457Y0142001D01*
X0427457Y0130821D02*
X0427457Y0125741D01*
X0420409Y0125741D01*
X0420409Y0130821D01*
X0427457Y0130821D01*
X0427457Y0126567D02*
X0420409Y0126567D01*
X0420409Y0127393D02*
X0427457Y0127393D01*
X0427457Y0128219D02*
X0420409Y0128219D01*
X0420409Y0129045D02*
X0427457Y0129045D01*
X0427457Y0129871D02*
X0420409Y0129871D01*
X0420409Y0130697D02*
X0427457Y0130697D01*
X0427457Y0117125D02*
X0427457Y0112045D01*
X0420409Y0112045D01*
X0420409Y0117125D01*
X0427457Y0117125D01*
X0427457Y0112871D02*
X0420409Y0112871D01*
X0420409Y0113697D02*
X0427457Y0113697D01*
X0427457Y0114523D02*
X0420409Y0114523D01*
X0420409Y0115349D02*
X0427457Y0115349D01*
X0427457Y0116175D02*
X0420409Y0116175D01*
X0420409Y0117001D02*
X0427457Y0117001D01*
X0415821Y0192457D02*
X0410741Y0192457D01*
X0415821Y0192457D02*
X0415821Y0185409D01*
X0410741Y0185409D01*
X0410741Y0192457D01*
X0410741Y0186235D02*
X0415821Y0186235D01*
X0415821Y0187061D02*
X0410741Y0187061D01*
X0410741Y0187887D02*
X0415821Y0187887D01*
X0415821Y0188713D02*
X0410741Y0188713D01*
X0410741Y0189539D02*
X0415821Y0189539D01*
X0415821Y0190365D02*
X0410741Y0190365D01*
X0410741Y0191191D02*
X0415821Y0191191D01*
X0415821Y0192017D02*
X0410741Y0192017D01*
X0402125Y0192457D02*
X0397045Y0192457D01*
X0402125Y0192457D02*
X0402125Y0185409D01*
X0397045Y0185409D01*
X0397045Y0192457D01*
X0397045Y0186235D02*
X0402125Y0186235D01*
X0402125Y0187061D02*
X0397045Y0187061D01*
X0397045Y0187887D02*
X0402125Y0187887D01*
X0402125Y0188713D02*
X0397045Y0188713D01*
X0397045Y0189539D02*
X0402125Y0189539D01*
X0402125Y0190365D02*
X0397045Y0190365D01*
X0397045Y0191191D02*
X0402125Y0191191D01*
X0402125Y0192017D02*
X0397045Y0192017D01*
D19*
X0056315Y0189976D03*
X0056315Y0174228D03*
X0043323Y0174228D03*
X0043323Y0158480D03*
X0056315Y0158480D03*
X0056315Y0142732D03*
X0043323Y0142732D03*
X0043323Y0126984D03*
X0056315Y0126984D03*
X0056315Y0111236D03*
X0043323Y0111236D03*
X0043323Y0095488D03*
X0056315Y0095488D03*
X0056315Y0079740D03*
X0043323Y0079740D03*
D20*
X0043323Y0189976D03*
D21*
X0286793Y0142412D02*
X0286793Y0140454D01*
X0282473Y0140454D01*
X0282473Y0142412D01*
X0286793Y0142412D01*
X0286793Y0141252D02*
X0282473Y0141252D01*
X0282473Y0142050D02*
X0286793Y0142050D01*
X0286793Y0137412D02*
X0286793Y0135454D01*
X0282473Y0135454D01*
X0282473Y0137412D01*
X0286793Y0137412D01*
X0286793Y0136252D02*
X0282473Y0136252D01*
X0282473Y0137050D02*
X0286793Y0137050D01*
X0286793Y0132412D02*
X0286793Y0130454D01*
X0282473Y0130454D01*
X0282473Y0132412D01*
X0286793Y0132412D01*
X0286793Y0131252D02*
X0282473Y0131252D01*
X0282473Y0132050D02*
X0286793Y0132050D01*
X0286793Y0127412D02*
X0286793Y0125454D01*
X0282473Y0125454D01*
X0282473Y0127412D01*
X0286793Y0127412D01*
X0286793Y0126252D02*
X0282473Y0126252D01*
X0282473Y0127050D02*
X0286793Y0127050D01*
X0310393Y0127412D02*
X0310393Y0125454D01*
X0306073Y0125454D01*
X0306073Y0127412D01*
X0310393Y0127412D01*
X0310393Y0126252D02*
X0306073Y0126252D01*
X0306073Y0127050D02*
X0310393Y0127050D01*
X0310393Y0130454D02*
X0310393Y0132412D01*
X0310393Y0130454D02*
X0306073Y0130454D01*
X0306073Y0132412D01*
X0310393Y0132412D01*
X0310393Y0131252D02*
X0306073Y0131252D01*
X0306073Y0132050D02*
X0310393Y0132050D01*
X0310393Y0135454D02*
X0310393Y0137412D01*
X0310393Y0135454D02*
X0306073Y0135454D01*
X0306073Y0137412D01*
X0310393Y0137412D01*
X0310393Y0136252D02*
X0306073Y0136252D01*
X0306073Y0137050D02*
X0310393Y0137050D01*
X0310393Y0140454D02*
X0310393Y0142412D01*
X0310393Y0140454D02*
X0306073Y0140454D01*
X0306073Y0142412D01*
X0310393Y0142412D01*
X0310393Y0141252D02*
X0306073Y0141252D01*
X0306073Y0142050D02*
X0310393Y0142050D01*
D22*
X0404461Y0139582D02*
X0404461Y0150606D01*
X0404461Y0139582D02*
X0395405Y0139582D01*
X0395405Y0150606D01*
X0404461Y0150606D01*
X0404461Y0140368D02*
X0395405Y0140368D01*
X0395405Y0141154D02*
X0404461Y0141154D01*
X0404461Y0141940D02*
X0395405Y0141940D01*
X0395405Y0142726D02*
X0404461Y0142726D01*
X0404461Y0143512D02*
X0395405Y0143512D01*
X0395405Y0144298D02*
X0404461Y0144298D01*
X0404461Y0145084D02*
X0395405Y0145084D01*
X0395405Y0145870D02*
X0404461Y0145870D01*
X0404461Y0146656D02*
X0395405Y0146656D01*
X0395405Y0147442D02*
X0404461Y0147442D01*
X0404461Y0148228D02*
X0395405Y0148228D01*
X0395405Y0149014D02*
X0404461Y0149014D01*
X0404461Y0149800D02*
X0395405Y0149800D01*
X0395405Y0150586D02*
X0404461Y0150586D01*
X0404461Y0130134D02*
X0404461Y0119110D01*
X0395405Y0119110D01*
X0395405Y0130134D01*
X0404461Y0130134D01*
X0404461Y0119896D02*
X0395405Y0119896D01*
X0395405Y0120682D02*
X0404461Y0120682D01*
X0404461Y0121468D02*
X0395405Y0121468D01*
X0395405Y0122254D02*
X0404461Y0122254D01*
X0404461Y0123040D02*
X0395405Y0123040D01*
X0395405Y0123826D02*
X0404461Y0123826D01*
X0404461Y0124612D02*
X0395405Y0124612D01*
X0395405Y0125398D02*
X0404461Y0125398D01*
X0404461Y0126184D02*
X0395405Y0126184D01*
X0395405Y0126970D02*
X0404461Y0126970D01*
X0404461Y0127756D02*
X0395405Y0127756D01*
X0395405Y0128542D02*
X0404461Y0128542D01*
X0404461Y0129328D02*
X0395405Y0129328D01*
X0395405Y0130114D02*
X0404461Y0130114D01*
D23*
X0263346Y0052717D02*
X0263346Y0038181D01*
X0257866Y0038181D01*
X0257866Y0052717D01*
X0263346Y0052717D01*
X0263346Y0038999D02*
X0257866Y0038999D01*
X0257866Y0039817D02*
X0263346Y0039817D01*
X0263346Y0040635D02*
X0257866Y0040635D01*
X0257866Y0041453D02*
X0263346Y0041453D01*
X0263346Y0042271D02*
X0257866Y0042271D01*
X0257866Y0043089D02*
X0263346Y0043089D01*
X0263346Y0043907D02*
X0257866Y0043907D01*
X0257866Y0044725D02*
X0263346Y0044725D01*
X0263346Y0045543D02*
X0257866Y0045543D01*
X0257866Y0046361D02*
X0263346Y0046361D01*
X0263346Y0047179D02*
X0257866Y0047179D01*
X0257866Y0047997D02*
X0263346Y0047997D01*
X0263346Y0048815D02*
X0257866Y0048815D01*
X0257866Y0049633D02*
X0263346Y0049633D01*
X0263346Y0050451D02*
X0257866Y0050451D01*
X0257866Y0051269D02*
X0263346Y0051269D01*
X0263346Y0052087D02*
X0257866Y0052087D01*
X0208701Y0052717D02*
X0208701Y0038181D01*
X0203221Y0038181D01*
X0203221Y0052717D01*
X0208701Y0052717D01*
X0208701Y0038999D02*
X0203221Y0038999D01*
X0203221Y0039817D02*
X0208701Y0039817D01*
X0208701Y0040635D02*
X0203221Y0040635D01*
X0203221Y0041453D02*
X0208701Y0041453D01*
X0208701Y0042271D02*
X0203221Y0042271D01*
X0203221Y0043089D02*
X0208701Y0043089D01*
X0208701Y0043907D02*
X0203221Y0043907D01*
X0203221Y0044725D02*
X0208701Y0044725D01*
X0208701Y0045543D02*
X0203221Y0045543D01*
X0203221Y0046361D02*
X0208701Y0046361D01*
X0208701Y0047179D02*
X0203221Y0047179D01*
X0203221Y0047997D02*
X0208701Y0047997D01*
X0208701Y0048815D02*
X0203221Y0048815D01*
X0203221Y0049633D02*
X0208701Y0049633D01*
X0208701Y0050451D02*
X0203221Y0050451D01*
X0203221Y0051269D02*
X0208701Y0051269D01*
X0208701Y0052087D02*
X0203221Y0052087D01*
D24*
X0072366Y0058257D02*
X0072366Y0037833D01*
X0201337Y0037833D01*
X0201311Y0037930D01*
X0201311Y0044949D01*
X0205461Y0044949D01*
X0205461Y0045949D01*
X0205461Y0054626D01*
X0202969Y0054626D01*
X0202483Y0054496D01*
X0202048Y0054244D01*
X0201693Y0053889D01*
X0201441Y0053454D01*
X0201311Y0052968D01*
X0201311Y0045949D01*
X0205461Y0045949D01*
X0206461Y0045949D01*
X0210610Y0045949D01*
X0210610Y0052968D01*
X0210480Y0053454D01*
X0210229Y0053889D01*
X0209873Y0054244D01*
X0209438Y0054496D01*
X0208952Y0054626D01*
X0206461Y0054626D01*
X0206461Y0045949D01*
X0206461Y0044949D01*
X0210610Y0044949D01*
X0210610Y0037930D01*
X0210584Y0037833D01*
X0255983Y0037833D01*
X0255957Y0037930D01*
X0255957Y0044949D01*
X0260106Y0044949D01*
X0260106Y0045949D01*
X0255957Y0045949D01*
X0255957Y0052968D01*
X0256087Y0053454D01*
X0256338Y0053889D01*
X0256694Y0054244D01*
X0257129Y0054496D01*
X0257615Y0054626D01*
X0260106Y0054626D01*
X0260106Y0045949D01*
X0261106Y0045949D01*
X0261106Y0054626D01*
X0263598Y0054626D01*
X0264083Y0054496D01*
X0264519Y0054244D01*
X0264874Y0053889D01*
X0265126Y0053454D01*
X0265256Y0052968D01*
X0265256Y0045949D01*
X0261106Y0045949D01*
X0261106Y0044949D01*
X0265256Y0044949D01*
X0265256Y0037930D01*
X0265230Y0037833D01*
X0394201Y0037833D01*
X0394201Y0058257D01*
X0395308Y0062390D01*
X0397447Y0066095D01*
X0400472Y0069120D01*
X0404177Y0071259D01*
X0408310Y0072366D01*
X0428734Y0072366D01*
X0428734Y0111041D01*
X0428125Y0110432D01*
X0419741Y0110432D01*
X0418796Y0111377D01*
X0418796Y0112597D01*
X0414958Y0112597D01*
X0408819Y0118737D01*
X0408397Y0118737D01*
X0407406Y0119147D01*
X0406647Y0119906D01*
X0406237Y0120897D01*
X0406237Y0121319D01*
X0406054Y0121501D01*
X0406054Y0118450D01*
X0405121Y0117517D01*
X0394745Y0117517D01*
X0393812Y0118450D01*
X0393812Y0130794D01*
X0394745Y0131728D01*
X0397749Y0131728D01*
X0397749Y0134105D01*
X0397647Y0134206D01*
X0397237Y0135197D01*
X0397237Y0136269D01*
X0397647Y0137260D01*
X0398376Y0137989D01*
X0397078Y0137989D01*
X0386838Y0127749D01*
X0380562Y0127749D01*
X0380460Y0127647D01*
X0379469Y0127237D01*
X0378397Y0127237D01*
X0377406Y0127647D01*
X0376647Y0128406D01*
X0376237Y0129397D01*
X0376237Y0130469D01*
X0376647Y0131460D01*
X0377406Y0132219D01*
X0378397Y0132629D01*
X0379469Y0132629D01*
X0380460Y0132219D01*
X0380562Y0132117D01*
X0385028Y0132117D01*
X0393812Y0140901D01*
X0393812Y0151266D01*
X0394745Y0152200D01*
X0405121Y0152200D01*
X0406054Y0151266D01*
X0406054Y0138923D01*
X0405121Y0137989D01*
X0401490Y0137989D01*
X0402219Y0137260D01*
X0402629Y0136269D01*
X0402629Y0135197D01*
X0402219Y0134206D01*
X0402117Y0134105D01*
X0402117Y0131728D01*
X0405121Y0131728D01*
X0406054Y0130794D01*
X0406054Y0126609D01*
X0406567Y0126609D01*
X0407731Y0125445D01*
X0409048Y0124129D01*
X0409469Y0124129D01*
X0410460Y0123719D01*
X0411219Y0122960D01*
X0411629Y0121969D01*
X0411629Y0121548D01*
X0416605Y0116572D01*
X0418796Y0116572D01*
X0418796Y0117792D01*
X0419741Y0118737D01*
X0428125Y0118737D01*
X0428734Y0118128D01*
X0428734Y0124738D01*
X0428125Y0124129D01*
X0419741Y0124129D01*
X0418796Y0125074D01*
X0418796Y0131489D01*
X0419741Y0132434D01*
X0420765Y0132434D01*
X0420765Y0135432D01*
X0419741Y0135432D01*
X0418796Y0136377D01*
X0418796Y0141666D01*
X0418460Y0142002D01*
X0418157Y0141270D01*
X0417431Y0140544D01*
X0416482Y0140151D01*
X0415455Y0140151D01*
X0414506Y0140544D01*
X0413780Y0141270D01*
X0413387Y0142219D01*
X0413387Y0143246D01*
X0413780Y0144194D01*
X0414506Y0144920D01*
X0415238Y0145224D01*
X0415233Y0145229D01*
X0415233Y0153329D01*
X0414939Y0153035D01*
X0414430Y0152526D01*
X0414263Y0152526D01*
X0413841Y0152351D01*
X0413723Y0152233D01*
X0373637Y0152233D01*
X0373129Y0151725D01*
X0373129Y0150897D01*
X0372719Y0149906D01*
X0371960Y0149147D01*
X0370969Y0148737D01*
X0369897Y0148737D01*
X0368906Y0149147D01*
X0368147Y0149906D01*
X0367956Y0150367D01*
X0313617Y0096028D01*
X0312338Y0094749D01*
X0268062Y0094749D01*
X0267960Y0094647D01*
X0266969Y0094237D01*
X0265897Y0094237D01*
X0264906Y0094647D01*
X0264147Y0095406D01*
X0263737Y0096397D01*
X0263737Y0096833D01*
X0256533Y0089629D01*
X0256969Y0089629D01*
X0257960Y0089219D01*
X0258719Y0088460D01*
X0259129Y0087469D01*
X0259129Y0086397D01*
X0259003Y0086092D01*
X0260249Y0087338D01*
X0261528Y0088617D01*
X0309805Y0088617D01*
X0309906Y0088719D01*
X0310897Y0089129D01*
X0311969Y0089129D01*
X0312960Y0088719D01*
X0313719Y0087960D01*
X0314129Y0086969D01*
X0314129Y0085897D01*
X0313719Y0084906D01*
X0312960Y0084147D01*
X0311969Y0083737D01*
X0310897Y0083737D01*
X0309906Y0084147D01*
X0309805Y0084249D01*
X0263338Y0084249D01*
X0261706Y0082617D01*
X0340528Y0082617D01*
X0350028Y0092117D01*
X0377305Y0092117D01*
X0377406Y0092219D01*
X0378397Y0092629D01*
X0379469Y0092629D01*
X0380460Y0092219D01*
X0381219Y0091460D01*
X0381629Y0090469D01*
X0381629Y0089397D01*
X0381219Y0088406D01*
X0380460Y0087647D01*
X0379469Y0087237D01*
X0378397Y0087237D01*
X0377406Y0087647D01*
X0377305Y0087749D01*
X0351838Y0087749D01*
X0343617Y0079528D01*
X0343617Y0065875D01*
X0344231Y0065621D01*
X0345621Y0064231D01*
X0346373Y0062416D01*
X0346373Y0060450D01*
X0345621Y0058635D01*
X0344231Y0057245D01*
X0342573Y0056558D01*
X0342660Y0056544D01*
X0343445Y0056289D01*
X0344180Y0055915D01*
X0344847Y0055430D01*
X0345430Y0054847D01*
X0345915Y0054180D01*
X0346289Y0053445D01*
X0346433Y0053002D01*
X0346577Y0053445D01*
X0346951Y0054180D01*
X0347436Y0054847D01*
X0348019Y0055430D01*
X0348687Y0055915D01*
X0349422Y0056289D01*
X0350206Y0056544D01*
X0350293Y0056558D01*
X0348635Y0057245D01*
X0347245Y0058635D01*
X0346493Y0060450D01*
X0346493Y0062416D01*
X0347245Y0064231D01*
X0348635Y0065621D01*
X0350450Y0066373D01*
X0352416Y0066373D01*
X0354231Y0065621D01*
X0355621Y0064231D01*
X0356373Y0062416D01*
X0356373Y0060450D01*
X0355621Y0058635D01*
X0354231Y0057245D01*
X0352573Y0056558D01*
X0352660Y0056544D01*
X0353445Y0056289D01*
X0354180Y0055915D01*
X0354847Y0055430D01*
X0355430Y0054847D01*
X0355915Y0054180D01*
X0356289Y0053445D01*
X0356544Y0052660D01*
X0356558Y0052573D01*
X0357245Y0054231D01*
X0358635Y0055621D01*
X0360450Y0056373D01*
X0362416Y0056373D01*
X0364231Y0055621D01*
X0365621Y0054231D01*
X0366373Y0052416D01*
X0366373Y0050450D01*
X0365621Y0048635D01*
X0364231Y0047245D01*
X0362416Y0046493D01*
X0360450Y0046493D01*
X0358635Y0047245D01*
X0357245Y0048635D01*
X0356558Y0050293D01*
X0356544Y0050206D01*
X0356289Y0049422D01*
X0355915Y0048687D01*
X0355430Y0048019D01*
X0354847Y0047436D01*
X0354180Y0046951D01*
X0353445Y0046577D01*
X0352660Y0046322D01*
X0351917Y0046204D01*
X0351917Y0050949D01*
X0350949Y0050949D01*
X0341917Y0050949D01*
X0341917Y0046204D01*
X0342660Y0046322D01*
X0343445Y0046577D01*
X0344180Y0046951D01*
X0344847Y0047436D01*
X0345430Y0048019D01*
X0345915Y0048687D01*
X0346289Y0049422D01*
X0346433Y0049864D01*
X0346577Y0049422D01*
X0346951Y0048687D01*
X0347436Y0048019D01*
X0348019Y0047436D01*
X0348687Y0046951D01*
X0349422Y0046577D01*
X0350206Y0046322D01*
X0350949Y0046204D01*
X0350949Y0050949D01*
X0350949Y0051917D01*
X0346662Y0051917D01*
X0341917Y0051917D01*
X0341917Y0050949D01*
X0340949Y0050949D01*
X0331917Y0050949D01*
X0331917Y0046204D01*
X0332660Y0046322D01*
X0333445Y0046577D01*
X0334180Y0046951D01*
X0334847Y0047436D01*
X0335430Y0048019D01*
X0335915Y0048687D01*
X0336289Y0049422D01*
X0336433Y0049864D01*
X0336577Y0049422D01*
X0336951Y0048687D01*
X0337436Y0048019D01*
X0338019Y0047436D01*
X0338687Y0046951D01*
X0339422Y0046577D01*
X0340206Y0046322D01*
X0340949Y0046204D01*
X0340949Y0050949D01*
X0340949Y0051917D01*
X0336662Y0051917D01*
X0331917Y0051917D01*
X0331917Y0050949D01*
X0330949Y0050949D01*
X0321917Y0050949D01*
X0321917Y0046204D01*
X0322660Y0046322D01*
X0323445Y0046577D01*
X0324180Y0046951D01*
X0324847Y0047436D01*
X0325430Y0048019D01*
X0325915Y0048687D01*
X0326289Y0049422D01*
X0326433Y0049864D01*
X0326577Y0049422D01*
X0326951Y0048687D01*
X0327436Y0048019D01*
X0328019Y0047436D01*
X0328687Y0046951D01*
X0329422Y0046577D01*
X0330206Y0046322D01*
X0330949Y0046204D01*
X0330949Y0050949D01*
X0330949Y0051917D01*
X0326662Y0051917D01*
X0321917Y0051917D01*
X0321917Y0050949D01*
X0320949Y0050949D01*
X0320949Y0046204D01*
X0320206Y0046322D01*
X0319422Y0046577D01*
X0318687Y0046951D01*
X0318019Y0047436D01*
X0317436Y0048019D01*
X0316951Y0048687D01*
X0316577Y0049422D01*
X0316322Y0050206D01*
X0316204Y0050949D01*
X0320949Y0050949D01*
X0320949Y0051917D01*
X0316204Y0051917D01*
X0316322Y0052660D01*
X0316577Y0053445D01*
X0316951Y0054180D01*
X0317436Y0054847D01*
X0318019Y0055430D01*
X0318687Y0055915D01*
X0319422Y0056289D01*
X0320206Y0056544D01*
X0320293Y0056558D01*
X0318635Y0057245D01*
X0317245Y0058635D01*
X0316493Y0060450D01*
X0316493Y0062416D01*
X0317245Y0064231D01*
X0318635Y0065621D01*
X0320450Y0066373D01*
X0322416Y0066373D01*
X0324231Y0065621D01*
X0325621Y0064231D01*
X0326373Y0062416D01*
X0326373Y0060450D01*
X0325621Y0058635D01*
X0324231Y0057245D01*
X0322573Y0056558D01*
X0322660Y0056544D01*
X0323445Y0056289D01*
X0324180Y0055915D01*
X0324847Y0055430D01*
X0325430Y0054847D01*
X0325915Y0054180D01*
X0326289Y0053445D01*
X0326433Y0053002D01*
X0326577Y0053445D01*
X0326951Y0054180D01*
X0327436Y0054847D01*
X0328019Y0055430D01*
X0328687Y0055915D01*
X0329422Y0056289D01*
X0330206Y0056544D01*
X0330293Y0056558D01*
X0328635Y0057245D01*
X0327245Y0058635D01*
X0326493Y0060450D01*
X0326493Y0062416D01*
X0327245Y0064231D01*
X0328635Y0065621D01*
X0330450Y0066373D01*
X0332416Y0066373D01*
X0334231Y0065621D01*
X0335621Y0064231D01*
X0336373Y0062416D01*
X0336373Y0060450D01*
X0335621Y0058635D01*
X0334231Y0057245D01*
X0332573Y0056558D01*
X0332660Y0056544D01*
X0333445Y0056289D01*
X0334180Y0055915D01*
X0334847Y0055430D01*
X0335430Y0054847D01*
X0335915Y0054180D01*
X0336289Y0053445D01*
X0336433Y0053002D01*
X0336577Y0053445D01*
X0336951Y0054180D01*
X0337436Y0054847D01*
X0338019Y0055430D01*
X0338687Y0055915D01*
X0339422Y0056289D01*
X0340206Y0056544D01*
X0340293Y0056558D01*
X0338635Y0057245D01*
X0337245Y0058635D01*
X0336493Y0060450D01*
X0336493Y0062416D01*
X0337245Y0064231D01*
X0338635Y0065621D01*
X0339249Y0065875D01*
X0339249Y0078249D01*
X0263338Y0078249D01*
X0257617Y0072528D01*
X0257617Y0066021D01*
X0258733Y0067137D01*
X0258733Y0069320D01*
X0258147Y0069906D01*
X0257737Y0070897D01*
X0257737Y0071969D01*
X0258147Y0072960D01*
X0258906Y0073719D01*
X0259897Y0074129D01*
X0260969Y0074129D01*
X0261960Y0073719D01*
X0262719Y0072960D01*
X0262933Y0072443D01*
X0263147Y0072960D01*
X0263906Y0073719D01*
X0264897Y0074129D01*
X0265969Y0074129D01*
X0266960Y0073719D01*
X0267719Y0072960D01*
X0268129Y0071969D01*
X0268129Y0070897D01*
X0267719Y0069906D01*
X0267133Y0069320D01*
X0267133Y0068229D01*
X0266137Y0067233D01*
X0266137Y0067233D01*
X0255133Y0056229D01*
X0255133Y0056229D01*
X0254137Y0055233D01*
X0177137Y0055233D01*
X0175633Y0053729D01*
X0175633Y0053546D01*
X0176219Y0052960D01*
X0176629Y0051969D01*
X0176629Y0050897D01*
X0176219Y0049906D01*
X0175460Y0049147D01*
X0174469Y0048737D01*
X0173397Y0048737D01*
X0172406Y0049147D01*
X0171647Y0049906D01*
X0171237Y0050897D01*
X0171237Y0051969D01*
X0171647Y0052960D01*
X0172233Y0053546D01*
X0172233Y0055137D01*
X0174733Y0057637D01*
X0175029Y0057933D01*
X0174733Y0058229D01*
X0174225Y0058737D01*
X0173397Y0058737D01*
X0172406Y0059147D01*
X0171647Y0059906D01*
X0171237Y0060897D01*
X0171237Y0061969D01*
X0171647Y0062960D01*
X0172406Y0063719D01*
X0173397Y0064129D01*
X0174469Y0064129D01*
X0175460Y0063719D01*
X0176219Y0062960D01*
X0176629Y0061969D01*
X0176629Y0061141D01*
X0177137Y0060633D01*
X0211144Y0060633D01*
X0207528Y0064249D01*
X0206249Y0065528D01*
X0206249Y0082305D01*
X0206147Y0082406D01*
X0205737Y0083397D01*
X0205737Y0084469D01*
X0206147Y0085460D01*
X0206906Y0086219D01*
X0207897Y0086629D01*
X0208969Y0086629D01*
X0209960Y0086219D01*
X0210719Y0085460D01*
X0211129Y0084469D01*
X0211129Y0083397D01*
X0210719Y0082406D01*
X0210617Y0082305D01*
X0210617Y0067338D01*
X0213831Y0064124D01*
X0213831Y0071933D01*
X0217783Y0071933D01*
X0217783Y0072933D01*
X0213831Y0072933D01*
X0213831Y0081130D01*
X0213961Y0081616D01*
X0214213Y0082053D01*
X0214569Y0082409D01*
X0215006Y0082661D01*
X0215492Y0082791D01*
X0217783Y0082791D01*
X0217783Y0072933D01*
X0218783Y0072933D01*
X0218783Y0082791D01*
X0221075Y0082791D01*
X0221561Y0082661D01*
X0221998Y0082409D01*
X0222354Y0082053D01*
X0222606Y0081616D01*
X0222736Y0081130D01*
X0222736Y0072933D01*
X0218784Y0072933D01*
X0218784Y0071933D01*
X0222736Y0071933D01*
X0222736Y0063736D01*
X0222704Y0063617D01*
X0224131Y0063617D01*
X0224131Y0081546D01*
X0225076Y0082491D01*
X0226099Y0082491D01*
X0226099Y0084737D01*
X0225897Y0084737D01*
X0224906Y0085147D01*
X0224147Y0085906D01*
X0223737Y0086897D01*
X0223737Y0087969D01*
X0224147Y0088960D01*
X0224906Y0089719D01*
X0225897Y0090129D01*
X0226233Y0090129D01*
X0226233Y0100820D01*
X0225647Y0101406D01*
X0225237Y0102397D01*
X0225237Y0103333D01*
X0224637Y0102733D01*
X0215137Y0102733D01*
X0203133Y0090729D01*
X0203133Y0086046D01*
X0203719Y0085460D01*
X0204129Y0084469D01*
X0204129Y0083397D01*
X0203719Y0082406D01*
X0202960Y0081647D01*
X0201969Y0081237D01*
X0200897Y0081237D01*
X0199906Y0081647D01*
X0199147Y0082406D01*
X0198737Y0083397D01*
X0198737Y0084469D01*
X0199147Y0085460D01*
X0199733Y0086046D01*
X0199733Y0092137D01*
X0201333Y0093737D01*
X0200897Y0093737D01*
X0199906Y0094147D01*
X0199147Y0094906D01*
X0198737Y0095897D01*
X0198737Y0096969D01*
X0199147Y0097960D01*
X0199906Y0098719D01*
X0200897Y0099129D01*
X0201725Y0099129D01*
X0209733Y0107137D01*
X0210729Y0108133D01*
X0221229Y0108133D01*
X0224237Y0111141D01*
X0224237Y0111969D01*
X0224553Y0112733D01*
X0207637Y0112733D01*
X0189637Y0094733D01*
X0169062Y0094733D01*
X0169987Y0093808D01*
X0170625Y0092267D01*
X0170625Y0090599D01*
X0169987Y0089058D01*
X0168808Y0087879D01*
X0167267Y0087241D01*
X0165599Y0087241D01*
X0164058Y0087879D01*
X0162879Y0089058D01*
X0162241Y0090599D01*
X0162241Y0092267D01*
X0162879Y0093808D01*
X0163805Y0094733D01*
X0161229Y0094733D01*
X0160233Y0095729D01*
X0159129Y0096833D01*
X0159129Y0095897D01*
X0158719Y0094906D01*
X0157960Y0094147D01*
X0156969Y0093737D01*
X0155897Y0093737D01*
X0154906Y0094147D01*
X0154320Y0094733D01*
X0148546Y0094733D01*
X0147960Y0094147D01*
X0146969Y0093737D01*
X0145897Y0093737D01*
X0144906Y0094147D01*
X0144147Y0094906D01*
X0143737Y0095897D01*
X0143737Y0096969D01*
X0144147Y0097960D01*
X0144906Y0098719D01*
X0145897Y0099129D01*
X0146969Y0099129D01*
X0147960Y0098719D01*
X0148546Y0098133D01*
X0154320Y0098133D01*
X0154906Y0098719D01*
X0155897Y0099129D01*
X0156833Y0099129D01*
X0123729Y0132233D01*
X0105729Y0132233D01*
X0104733Y0133229D01*
X0099129Y0138833D01*
X0099129Y0138397D01*
X0098719Y0137406D01*
X0097960Y0136647D01*
X0096969Y0136237D01*
X0095897Y0136237D01*
X0094906Y0136647D01*
X0094147Y0137406D01*
X0093737Y0138397D01*
X0093737Y0139225D01*
X0092729Y0140233D01*
X0092729Y0140233D01*
X0091733Y0141229D01*
X0091733Y0154137D01*
X0110733Y0173137D01*
X0110733Y0173137D01*
X0111729Y0174133D01*
X0202637Y0174133D01*
X0219737Y0157033D01*
X0219737Y0157969D01*
X0220105Y0158858D01*
X0219406Y0159147D01*
X0218647Y0159906D01*
X0218237Y0160897D01*
X0218237Y0161969D01*
X0218647Y0162960D01*
X0219406Y0163719D01*
X0220397Y0164129D01*
X0221469Y0164129D01*
X0222246Y0163807D01*
X0222147Y0163906D01*
X0221737Y0164897D01*
X0221737Y0165725D01*
X0200729Y0186733D01*
X0199733Y0187729D01*
X0199733Y0192432D01*
X0194741Y0192432D01*
X0193933Y0193240D01*
X0193125Y0192432D01*
X0184741Y0192432D01*
X0183796Y0193377D01*
X0183796Y0199792D01*
X0184741Y0200737D01*
X0188396Y0200737D01*
X0187406Y0201147D01*
X0186647Y0201906D01*
X0186237Y0202897D01*
X0186237Y0203969D01*
X0186647Y0204960D01*
X0186749Y0205062D01*
X0186749Y0206129D01*
X0184741Y0206129D01*
X0183796Y0207074D01*
X0183796Y0213489D01*
X0184741Y0214434D01*
X0193125Y0214434D01*
X0193763Y0213796D01*
X0193878Y0213996D01*
X0194235Y0214352D01*
X0194671Y0214604D01*
X0195158Y0214734D01*
X0198433Y0214734D01*
X0198433Y0210782D01*
X0199433Y0210782D01*
X0199433Y0214734D01*
X0202709Y0214734D01*
X0203195Y0214604D01*
X0203632Y0214352D01*
X0203988Y0213996D01*
X0204103Y0213796D01*
X0204741Y0214434D01*
X0213125Y0214434D01*
X0213933Y0213626D01*
X0214741Y0214434D01*
X0223125Y0214434D01*
X0224070Y0213489D01*
X0224070Y0211981D01*
X0224789Y0211981D01*
X0229137Y0207633D01*
X0230133Y0206637D01*
X0230133Y0162229D01*
X0230129Y0162225D01*
X0230129Y0161397D01*
X0229719Y0160406D01*
X0229446Y0160133D01*
X0331805Y0160133D01*
X0332147Y0160960D01*
X0332906Y0161719D01*
X0333897Y0162129D01*
X0334969Y0162129D01*
X0335960Y0161719D01*
X0336719Y0160960D01*
X0337129Y0159969D01*
X0337129Y0158897D01*
X0336719Y0157906D01*
X0335960Y0157147D01*
X0335443Y0156933D01*
X0335960Y0156719D01*
X0336719Y0155960D01*
X0337129Y0154969D01*
X0337129Y0153897D01*
X0336719Y0152906D01*
X0335960Y0152147D01*
X0334969Y0151737D01*
X0333897Y0151737D01*
X0332906Y0152147D01*
X0332147Y0152906D01*
X0331737Y0153897D01*
X0331737Y0154725D01*
X0331729Y0154733D01*
X0265537Y0154733D01*
X0266141Y0154129D01*
X0266969Y0154129D01*
X0267960Y0153719D01*
X0268719Y0152960D01*
X0269129Y0151969D01*
X0269129Y0150897D01*
X0268719Y0149906D01*
X0267960Y0149147D01*
X0266969Y0148737D01*
X0265897Y0148737D01*
X0264906Y0149147D01*
X0264147Y0149906D01*
X0263933Y0150423D01*
X0263719Y0149906D01*
X0262960Y0149147D01*
X0261969Y0148737D01*
X0260897Y0148737D01*
X0259906Y0149147D01*
X0259147Y0149906D01*
X0258805Y0150733D01*
X0229313Y0150733D01*
X0229629Y0149969D01*
X0229629Y0148897D01*
X0229219Y0147906D01*
X0228460Y0147147D01*
X0227469Y0146737D01*
X0226397Y0146737D01*
X0225406Y0147147D01*
X0224820Y0147733D01*
X0220046Y0147733D01*
X0219460Y0147147D01*
X0218515Y0146756D01*
X0220637Y0144633D01*
X0267820Y0144633D01*
X0268406Y0145219D01*
X0269397Y0145629D01*
X0270469Y0145629D01*
X0271460Y0145219D01*
X0271887Y0144792D01*
X0272729Y0145633D01*
X0272729Y0145633D01*
X0278233Y0151137D01*
X0278233Y0151137D01*
X0279229Y0152133D01*
X0308137Y0152133D01*
X0311141Y0149129D01*
X0311969Y0149129D01*
X0312960Y0148719D01*
X0313719Y0147960D01*
X0314129Y0146969D01*
X0314129Y0145897D01*
X0313719Y0144906D01*
X0312960Y0144147D01*
X0311969Y0143737D01*
X0311329Y0143737D01*
X0311449Y0143617D01*
X0316796Y0143617D01*
X0316796Y0143989D01*
X0317741Y0144934D01*
X0326125Y0144934D01*
X0326933Y0144126D01*
X0327741Y0144934D01*
X0336125Y0144934D01*
X0337070Y0143989D01*
X0337070Y0137574D01*
X0336125Y0136629D01*
X0330718Y0136629D01*
X0326838Y0132749D01*
X0316528Y0132749D01*
X0315249Y0134028D01*
X0315028Y0134249D01*
X0311449Y0134249D01*
X0311133Y0133933D01*
X0311992Y0133074D01*
X0311992Y0129792D01*
X0311133Y0128933D01*
X0311449Y0128617D01*
X0316796Y0128617D01*
X0316796Y0130292D01*
X0317741Y0131237D01*
X0326125Y0131237D01*
X0326933Y0130429D01*
X0327741Y0131237D01*
X0336125Y0131237D01*
X0337070Y0130292D01*
X0337070Y0125659D01*
X0395792Y0184381D01*
X0395432Y0184741D01*
X0395432Y0193125D01*
X0396377Y0194070D01*
X0402792Y0194070D01*
X0403737Y0193125D01*
X0403737Y0187117D01*
X0408838Y0187117D01*
X0409129Y0186826D01*
X0409129Y0193125D01*
X0410074Y0194070D01*
X0416489Y0194070D01*
X0417434Y0193125D01*
X0417434Y0191230D01*
X0418397Y0191629D01*
X0419469Y0191629D01*
X0420460Y0191219D01*
X0421219Y0190460D01*
X0421629Y0189469D01*
X0421629Y0188397D01*
X0421219Y0187406D01*
X0420460Y0186647D01*
X0419469Y0186237D01*
X0418397Y0186237D01*
X0417434Y0186636D01*
X0417434Y0184741D01*
X0416489Y0183796D01*
X0412159Y0183796D01*
X0415838Y0180117D01*
X0420305Y0180117D01*
X0420406Y0180219D01*
X0415736Y0180219D01*
X0414738Y0181217D02*
X0428734Y0181217D01*
X0428734Y0180219D02*
X0423460Y0180219D01*
X0422469Y0180629D01*
X0421397Y0180629D01*
X0420406Y0180219D01*
X0423460Y0180219D02*
X0424219Y0179460D01*
X0424629Y0178469D01*
X0424629Y0177397D01*
X0424219Y0176406D01*
X0423460Y0175647D01*
X0422469Y0175237D01*
X0421397Y0175237D01*
X0420406Y0175647D01*
X0420305Y0175749D01*
X0414028Y0175749D01*
X0407028Y0182749D01*
X0400338Y0182749D01*
X0373222Y0155633D01*
X0397144Y0155633D01*
X0396749Y0156028D01*
X0393981Y0158796D01*
X0389877Y0158796D01*
X0388932Y0159741D01*
X0388932Y0168125D01*
X0389877Y0169070D01*
X0396292Y0169070D01*
X0397237Y0168125D01*
X0397237Y0161718D01*
X0399838Y0159117D01*
X0402828Y0159117D01*
X0402711Y0159235D01*
X0402459Y0159671D01*
X0402329Y0160158D01*
X0402329Y0163433D01*
X0406281Y0163433D01*
X0406281Y0164433D01*
X0402329Y0164433D01*
X0402329Y0167709D01*
X0402459Y0168195D01*
X0402711Y0168632D01*
X0403067Y0168988D01*
X0403504Y0169240D01*
X0403990Y0169370D01*
X0406282Y0169370D01*
X0406282Y0164433D01*
X0407281Y0164433D01*
X0407281Y0169370D01*
X0409573Y0169370D01*
X0410059Y0169240D01*
X0410496Y0168988D01*
X0410852Y0168632D01*
X0411104Y0168195D01*
X0411234Y0167709D01*
X0411234Y0164433D01*
X0407282Y0164433D01*
X0407282Y0163433D01*
X0411234Y0163433D01*
X0411234Y0160158D01*
X0411104Y0159671D01*
X0410980Y0159457D01*
X0411397Y0159629D01*
X0412469Y0159629D01*
X0413233Y0159313D01*
X0413233Y0165137D01*
X0414229Y0166133D01*
X0419237Y0171141D01*
X0419237Y0171969D01*
X0419647Y0172960D01*
X0420406Y0173719D01*
X0421397Y0174129D01*
X0422469Y0174129D01*
X0423460Y0173719D01*
X0424219Y0172960D01*
X0424629Y0171969D01*
X0424629Y0170897D01*
X0424219Y0169906D01*
X0423460Y0169147D01*
X0422469Y0168737D01*
X0421641Y0168737D01*
X0416633Y0163729D01*
X0416633Y0160537D01*
X0422237Y0166141D01*
X0422237Y0166969D01*
X0422647Y0167960D01*
X0423406Y0168719D01*
X0424397Y0169129D01*
X0425469Y0169129D01*
X0426460Y0168719D01*
X0427219Y0167960D01*
X0427629Y0166969D01*
X0427629Y0165897D01*
X0427219Y0164906D01*
X0426460Y0164147D01*
X0425469Y0163737D01*
X0424641Y0163737D01*
X0418633Y0157729D01*
X0418633Y0156571D01*
X0418878Y0156996D01*
X0419235Y0157352D01*
X0419671Y0157604D01*
X0420158Y0157734D01*
X0423433Y0157734D01*
X0423433Y0153782D01*
X0424433Y0153782D01*
X0424433Y0157734D01*
X0427709Y0157734D01*
X0428195Y0157604D01*
X0428632Y0157352D01*
X0428734Y0157250D01*
X0428734Y0197350D01*
X0408310Y0197350D01*
X0404177Y0198458D01*
X0400472Y0200597D01*
X0397447Y0203622D01*
X0395308Y0207327D01*
X0394201Y0211459D01*
X0394201Y0231883D01*
X0141744Y0231883D01*
X0142860Y0230767D01*
X0143767Y0228578D01*
X0143767Y0226209D01*
X0142860Y0224020D01*
X0141185Y0222345D01*
X0138996Y0221438D01*
X0136626Y0221438D01*
X0134437Y0222345D01*
X0132762Y0224020D01*
X0131855Y0226209D01*
X0131855Y0228578D01*
X0132762Y0230767D01*
X0133878Y0231883D01*
X0088988Y0231883D01*
X0090104Y0230767D01*
X0091011Y0228578D01*
X0091011Y0226209D01*
X0090104Y0224020D01*
X0088429Y0222345D01*
X0086240Y0221438D01*
X0083870Y0221438D01*
X0081681Y0222345D01*
X0080006Y0224020D01*
X0079099Y0226209D01*
X0079099Y0228578D01*
X0080006Y0230767D01*
X0081122Y0231883D01*
X0072366Y0231883D01*
X0072366Y0211459D01*
X0071259Y0207327D01*
X0069120Y0203622D01*
X0066095Y0200597D01*
X0062390Y0198458D01*
X0058257Y0197350D01*
X0037833Y0197350D01*
X0037833Y0194908D01*
X0038464Y0195539D01*
X0048182Y0195539D01*
X0048885Y0194836D01*
X0048885Y0185117D01*
X0048182Y0184414D01*
X0038464Y0184414D01*
X0037833Y0185045D01*
X0037833Y0175510D01*
X0038607Y0177379D01*
X0040172Y0178944D01*
X0042216Y0179791D01*
X0044429Y0179791D01*
X0046474Y0178944D01*
X0048038Y0177379D01*
X0048885Y0175335D01*
X0048885Y0173122D01*
X0048038Y0171078D01*
X0046474Y0169513D01*
X0044429Y0168666D01*
X0042216Y0168666D01*
X0040172Y0169513D01*
X0038607Y0171078D01*
X0037833Y0172947D01*
X0037833Y0159762D01*
X0038607Y0161631D01*
X0040172Y0163196D01*
X0042216Y0164043D01*
X0044429Y0164043D01*
X0046474Y0163196D01*
X0048038Y0161631D01*
X0048885Y0159587D01*
X0048885Y0157374D01*
X0048038Y0155330D01*
X0046474Y0153765D01*
X0044429Y0152918D01*
X0042216Y0152918D01*
X0040172Y0153765D01*
X0038607Y0155330D01*
X0037833Y0157199D01*
X0037833Y0144014D01*
X0038607Y0145883D01*
X0040172Y0147448D01*
X0042216Y0148294D01*
X0044404Y0148294D01*
X0049229Y0153119D01*
X0050393Y0153602D01*
X0053559Y0153602D01*
X0053164Y0153765D01*
X0051600Y0155330D01*
X0050753Y0157374D01*
X0050753Y0159587D01*
X0051600Y0161631D01*
X0053164Y0163196D01*
X0055209Y0164043D01*
X0057421Y0164043D01*
X0059466Y0163196D01*
X0061030Y0161631D01*
X0061877Y0159587D01*
X0061877Y0157374D01*
X0061030Y0155330D01*
X0059466Y0153765D01*
X0059071Y0153602D01*
X0068496Y0153602D01*
X0069661Y0153119D01*
X0070552Y0152228D01*
X0072982Y0149798D01*
X0077678Y0149798D01*
X0078381Y0149095D01*
X0078381Y0140621D01*
X0077678Y0139918D01*
X0074826Y0139918D01*
X0075452Y0139715D01*
X0076187Y0139340D01*
X0076855Y0138855D01*
X0077438Y0138272D01*
X0077923Y0137605D01*
X0078297Y0136870D01*
X0078552Y0136085D01*
X0078670Y0135343D01*
X0073925Y0135343D01*
X0073925Y0134374D01*
X0078670Y0134374D01*
X0078552Y0133631D01*
X0078297Y0132847D01*
X0077923Y0132112D01*
X0077438Y0131445D01*
X0076855Y0130861D01*
X0076187Y0130376D01*
X0075452Y0130002D01*
X0074668Y0129747D01*
X0074581Y0129733D01*
X0076239Y0129046D01*
X0077629Y0127657D01*
X0078381Y0125841D01*
X0078381Y0123876D01*
X0077629Y0122060D01*
X0076239Y0120670D01*
X0074424Y0119918D01*
X0072982Y0119918D01*
X0070702Y0117638D01*
X0069811Y0116747D01*
X0068646Y0116265D01*
X0058710Y0116265D01*
X0059466Y0115952D01*
X0061030Y0114387D01*
X0061877Y0112343D01*
X0061877Y0110130D01*
X0061030Y0108085D01*
X0059466Y0106521D01*
X0057421Y0105674D01*
X0055209Y0105674D01*
X0053164Y0106521D01*
X0051600Y0108085D01*
X0050753Y0110130D01*
X0050753Y0112343D01*
X0051600Y0114387D01*
X0053164Y0115952D01*
X0053920Y0116265D01*
X0050244Y0116265D01*
X0049079Y0116747D01*
X0044404Y0121422D01*
X0042216Y0121422D01*
X0040172Y0122269D01*
X0038607Y0123834D01*
X0037833Y0125703D01*
X0037833Y0112517D01*
X0038607Y0114387D01*
X0040172Y0115952D01*
X0042216Y0116798D01*
X0044429Y0116798D01*
X0046474Y0115952D01*
X0048038Y0114387D01*
X0048885Y0112343D01*
X0048885Y0110130D01*
X0048038Y0108085D01*
X0046474Y0106521D01*
X0044429Y0105674D01*
X0042216Y0105674D01*
X0040172Y0106521D01*
X0038607Y0108085D01*
X0037833Y0109955D01*
X0037833Y0096769D01*
X0038607Y0098639D01*
X0040172Y0100204D01*
X0042216Y0101050D01*
X0044429Y0101050D01*
X0046474Y0100204D01*
X0048038Y0098639D01*
X0048885Y0096595D01*
X0048885Y0094382D01*
X0048038Y0092337D01*
X0046474Y0090773D01*
X0044429Y0089926D01*
X0042216Y0089926D01*
X0040172Y0090773D01*
X0038607Y0092337D01*
X0037833Y0094207D01*
X0037833Y0081021D01*
X0038607Y0082891D01*
X0040172Y0084456D01*
X0042216Y0085302D01*
X0044429Y0085302D01*
X0046474Y0084456D01*
X0048038Y0082891D01*
X0048885Y0080847D01*
X0048885Y0078634D01*
X0048038Y0076589D01*
X0046474Y0075025D01*
X0044429Y0074178D01*
X0042216Y0074178D01*
X0040172Y0075025D01*
X0038607Y0076589D01*
X0037833Y0078459D01*
X0037833Y0072366D01*
X0058257Y0072366D01*
X0062390Y0071259D01*
X0066095Y0069120D01*
X0069120Y0066095D01*
X0071259Y0062390D01*
X0072366Y0058257D01*
X0072328Y0058400D02*
X0090996Y0058400D01*
X0089998Y0057402D02*
X0072366Y0057402D01*
X0072366Y0056403D02*
X0088999Y0056403D01*
X0088514Y0055918D02*
X0087416Y0056373D01*
X0085450Y0056373D01*
X0083635Y0055621D01*
X0082245Y0054231D01*
X0081493Y0052416D01*
X0081493Y0050450D01*
X0082245Y0048635D01*
X0083635Y0047245D01*
X0085450Y0046493D01*
X0087416Y0046493D01*
X0089231Y0047245D01*
X0090621Y0048635D01*
X0091373Y0050450D01*
X0091373Y0052416D01*
X0090918Y0053514D01*
X0094637Y0057233D01*
X0100137Y0057233D01*
X0105633Y0062729D01*
X0105633Y0067320D01*
X0106219Y0067906D01*
X0106629Y0068897D01*
X0106629Y0069969D01*
X0106219Y0070960D01*
X0105460Y0071719D01*
X0104469Y0072129D01*
X0103397Y0072129D01*
X0102406Y0071719D01*
X0101647Y0070960D01*
X0101237Y0069969D01*
X0101237Y0068897D01*
X0101647Y0067906D01*
X0102233Y0067320D01*
X0102233Y0064137D01*
X0098729Y0060633D01*
X0093229Y0060633D01*
X0092233Y0059637D01*
X0088514Y0055918D01*
X0090962Y0053408D02*
X0091904Y0053408D01*
X0092245Y0054231D02*
X0091493Y0052416D01*
X0091493Y0050450D01*
X0092245Y0048635D01*
X0093635Y0047245D01*
X0095450Y0046493D01*
X0097416Y0046493D01*
X0099231Y0047245D01*
X0100621Y0048635D01*
X0101373Y0050450D01*
X0101373Y0052416D01*
X0100621Y0054231D01*
X0099231Y0055621D01*
X0097416Y0056373D01*
X0095450Y0056373D01*
X0093635Y0055621D01*
X0092245Y0054231D01*
X0092420Y0054406D02*
X0091810Y0054406D01*
X0092809Y0055405D02*
X0093418Y0055405D01*
X0093807Y0056403D02*
X0173499Y0056403D01*
X0172501Y0055405D02*
X0167799Y0055405D01*
X0167267Y0055625D02*
X0165599Y0055625D01*
X0164058Y0054987D01*
X0162879Y0053808D01*
X0162241Y0052267D01*
X0162241Y0050599D01*
X0162879Y0049058D01*
X0164058Y0047879D01*
X0165599Y0047241D01*
X0167267Y0047241D01*
X0168808Y0047879D01*
X0169987Y0049058D01*
X0170625Y0050599D01*
X0170625Y0052267D01*
X0169987Y0053808D01*
X0168808Y0054987D01*
X0167267Y0055625D01*
X0167267Y0057241D02*
X0168808Y0057879D01*
X0169987Y0059058D01*
X0170625Y0060599D01*
X0170625Y0062267D01*
X0169987Y0063808D01*
X0168808Y0064987D01*
X0167267Y0065625D01*
X0165599Y0065625D01*
X0164058Y0064987D01*
X0162879Y0063808D01*
X0162241Y0062267D01*
X0162241Y0060599D01*
X0162879Y0059058D01*
X0164058Y0057879D01*
X0165599Y0057241D01*
X0167267Y0057241D01*
X0167655Y0057402D02*
X0174498Y0057402D01*
X0174562Y0058400D02*
X0169329Y0058400D01*
X0170128Y0059399D02*
X0172154Y0059399D01*
X0171444Y0060397D02*
X0170542Y0060397D01*
X0170625Y0061396D02*
X0171237Y0061396D01*
X0171413Y0062394D02*
X0170572Y0062394D01*
X0170159Y0063393D02*
X0172080Y0063393D01*
X0173933Y0061433D02*
X0176433Y0058933D01*
X0252933Y0058933D01*
X0260433Y0066433D01*
X0260433Y0071433D01*
X0257950Y0070382D02*
X0257617Y0070382D01*
X0257617Y0069384D02*
X0258669Y0069384D01*
X0258733Y0068385D02*
X0257617Y0068385D01*
X0257617Y0067387D02*
X0258733Y0067387D01*
X0257984Y0066388D02*
X0257617Y0066388D01*
X0253249Y0066388D02*
X0252436Y0066388D01*
X0253249Y0065838D02*
X0252436Y0065025D01*
X0252436Y0075749D01*
X0254660Y0075749D01*
X0254528Y0075617D01*
X0253249Y0074338D01*
X0253249Y0065838D01*
X0252801Y0065390D02*
X0252436Y0065390D01*
X0252436Y0067387D02*
X0253249Y0067387D01*
X0253249Y0068385D02*
X0252436Y0068385D01*
X0252436Y0069384D02*
X0253249Y0069384D01*
X0253249Y0070382D02*
X0252436Y0070382D01*
X0252436Y0071381D02*
X0253249Y0071381D01*
X0253249Y0072379D02*
X0252436Y0072379D01*
X0252436Y0073378D02*
X0253249Y0073378D01*
X0253288Y0074377D02*
X0252436Y0074377D01*
X0252436Y0075375D02*
X0254286Y0075375D01*
X0254528Y0075617D02*
X0254528Y0075617D01*
X0258467Y0073378D02*
X0258565Y0073378D01*
X0257907Y0072379D02*
X0257617Y0072379D01*
X0257617Y0071381D02*
X0257737Y0071381D01*
X0259465Y0074377D02*
X0339249Y0074377D01*
X0339249Y0075375D02*
X0260464Y0075375D01*
X0261462Y0076374D02*
X0339249Y0076374D01*
X0339249Y0077372D02*
X0262461Y0077372D01*
X0262301Y0073378D02*
X0263565Y0073378D01*
X0265433Y0071433D02*
X0265433Y0068933D01*
X0253433Y0056933D01*
X0176433Y0056933D01*
X0173933Y0054433D01*
X0173933Y0051433D01*
X0171438Y0050412D02*
X0170548Y0050412D01*
X0170625Y0051411D02*
X0171237Y0051411D01*
X0171419Y0052409D02*
X0170566Y0052409D01*
X0170153Y0053408D02*
X0172095Y0053408D01*
X0172233Y0054406D02*
X0169388Y0054406D01*
X0165067Y0055405D02*
X0138533Y0055405D01*
X0138787Y0055275D02*
X0138157Y0055596D01*
X0137485Y0055815D01*
X0136787Y0055925D01*
X0136720Y0055925D01*
X0136720Y0051721D01*
X0136146Y0051721D01*
X0136146Y0055925D01*
X0136080Y0055925D01*
X0135381Y0055815D01*
X0134709Y0055596D01*
X0134079Y0055275D01*
X0133507Y0054859D01*
X0133007Y0054359D01*
X0132591Y0053787D01*
X0132270Y0053157D01*
X0132052Y0052485D01*
X0131941Y0051787D01*
X0131941Y0051720D01*
X0136146Y0051720D01*
X0136146Y0051146D01*
X0136720Y0051146D01*
X0136720Y0046941D01*
X0136787Y0046941D01*
X0137485Y0047052D01*
X0138157Y0047270D01*
X0138787Y0047591D01*
X0139359Y0048007D01*
X0139859Y0048507D01*
X0140275Y0049079D01*
X0140596Y0049709D01*
X0140815Y0050381D01*
X0140925Y0051080D01*
X0140925Y0051146D01*
X0136721Y0051146D01*
X0136721Y0051720D01*
X0140925Y0051720D01*
X0140925Y0051787D01*
X0140815Y0052485D01*
X0140596Y0053157D01*
X0140275Y0053787D01*
X0139859Y0054359D01*
X0139359Y0054859D01*
X0138787Y0055275D01*
X0139813Y0054406D02*
X0163478Y0054406D01*
X0162713Y0053408D02*
X0140469Y0053408D01*
X0140827Y0052409D02*
X0162300Y0052409D01*
X0162241Y0051411D02*
X0136721Y0051411D01*
X0136146Y0051411D02*
X0101373Y0051411D01*
X0101373Y0052409D02*
X0132040Y0052409D01*
X0132398Y0053408D02*
X0100962Y0053408D01*
X0100446Y0054406D02*
X0133053Y0054406D01*
X0134333Y0055405D02*
X0099448Y0055405D01*
X0100306Y0057402D02*
X0135211Y0057402D01*
X0135599Y0057241D02*
X0134058Y0057879D01*
X0132879Y0059058D01*
X0132241Y0060599D01*
X0132241Y0062267D01*
X0132879Y0063808D01*
X0134058Y0064987D01*
X0135599Y0065625D01*
X0137267Y0065625D01*
X0138808Y0064987D01*
X0139987Y0063808D01*
X0140625Y0062267D01*
X0140625Y0060599D01*
X0139987Y0059058D01*
X0138808Y0057879D01*
X0137267Y0057241D01*
X0135599Y0057241D01*
X0136146Y0055405D02*
X0136720Y0055405D01*
X0136720Y0054406D02*
X0136146Y0054406D01*
X0136146Y0053408D02*
X0136720Y0053408D01*
X0136720Y0052409D02*
X0136146Y0052409D01*
X0136146Y0051146D02*
X0131941Y0051146D01*
X0131941Y0051080D01*
X0132052Y0050381D01*
X0132270Y0049709D01*
X0132591Y0049079D01*
X0133007Y0048507D01*
X0133507Y0048007D01*
X0134079Y0047591D01*
X0134709Y0047270D01*
X0135381Y0047052D01*
X0136080Y0046941D01*
X0136146Y0046941D01*
X0136146Y0051146D01*
X0136146Y0050412D02*
X0136720Y0050412D01*
X0136720Y0049414D02*
X0136146Y0049414D01*
X0136146Y0048415D02*
X0136720Y0048415D01*
X0136720Y0047417D02*
X0136146Y0047417D01*
X0134421Y0047417D02*
X0099403Y0047417D01*
X0100402Y0048415D02*
X0133098Y0048415D01*
X0132420Y0049414D02*
X0100944Y0049414D01*
X0101357Y0050412D02*
X0132047Y0050412D01*
X0138445Y0047417D02*
X0165175Y0047417D01*
X0163522Y0048415D02*
X0139768Y0048415D01*
X0140446Y0049414D02*
X0162732Y0049414D01*
X0162318Y0050412D02*
X0140820Y0050412D01*
X0137655Y0057402D02*
X0165211Y0057402D01*
X0163537Y0058400D02*
X0139329Y0058400D01*
X0140128Y0059399D02*
X0162738Y0059399D01*
X0162325Y0060397D02*
X0140542Y0060397D01*
X0140625Y0061396D02*
X0162241Y0061396D01*
X0162294Y0062394D02*
X0140572Y0062394D01*
X0140159Y0063393D02*
X0162707Y0063393D01*
X0163463Y0064391D02*
X0139403Y0064391D01*
X0137835Y0065390D02*
X0165031Y0065390D01*
X0165599Y0067241D02*
X0167267Y0067241D01*
X0168808Y0067879D01*
X0169987Y0069058D01*
X0170625Y0070599D01*
X0170625Y0072267D01*
X0169987Y0073808D01*
X0168808Y0074987D01*
X0167267Y0075625D01*
X0165599Y0075625D01*
X0164058Y0074987D01*
X0162879Y0073808D01*
X0162241Y0072267D01*
X0162241Y0070599D01*
X0162879Y0069058D01*
X0164058Y0067879D01*
X0165599Y0067241D01*
X0165247Y0067387D02*
X0137619Y0067387D01*
X0137267Y0067241D02*
X0138808Y0067879D01*
X0139987Y0069058D01*
X0140625Y0070599D01*
X0140625Y0072267D01*
X0139987Y0073808D01*
X0138808Y0074987D01*
X0137267Y0075625D01*
X0135599Y0075625D01*
X0134058Y0074987D01*
X0132879Y0073808D01*
X0132241Y0072267D01*
X0132241Y0070599D01*
X0132879Y0069058D01*
X0134058Y0067879D01*
X0135599Y0067241D01*
X0137267Y0067241D01*
X0135247Y0067387D02*
X0105700Y0067387D01*
X0105633Y0066388D02*
X0206249Y0066388D01*
X0206249Y0067387D02*
X0167619Y0067387D01*
X0169314Y0068385D02*
X0206249Y0068385D01*
X0206249Y0069384D02*
X0170122Y0069384D01*
X0170535Y0070382D02*
X0206249Y0070382D01*
X0206249Y0071381D02*
X0170625Y0071381D01*
X0170579Y0072379D02*
X0206249Y0072379D01*
X0206249Y0073378D02*
X0170165Y0073378D01*
X0169418Y0074377D02*
X0206249Y0074377D01*
X0206249Y0075375D02*
X0167871Y0075375D01*
X0167267Y0077241D02*
X0168808Y0077879D01*
X0169987Y0079058D01*
X0170625Y0080599D01*
X0170625Y0082267D01*
X0169987Y0083808D01*
X0168808Y0084987D01*
X0167267Y0085625D01*
X0165599Y0085625D01*
X0164058Y0084987D01*
X0162879Y0083808D01*
X0162241Y0082267D01*
X0162241Y0080599D01*
X0162879Y0079058D01*
X0164058Y0077879D01*
X0165599Y0077241D01*
X0167267Y0077241D01*
X0167583Y0077372D02*
X0206249Y0077372D01*
X0206249Y0076374D02*
X0060814Y0076374D01*
X0061030Y0076589D02*
X0061877Y0078634D01*
X0061877Y0080821D01*
X0071800Y0090744D01*
X0072147Y0089906D01*
X0072906Y0089147D01*
X0073897Y0088737D01*
X0074969Y0088737D01*
X0075960Y0089147D01*
X0076719Y0089906D01*
X0077129Y0090897D01*
X0077129Y0091725D01*
X0102137Y0116733D01*
X0103133Y0117729D01*
X0103133Y0121820D01*
X0103719Y0122406D01*
X0104129Y0123397D01*
X0104129Y0124469D01*
X0103719Y0125460D01*
X0102960Y0126219D01*
X0101969Y0126629D01*
X0100897Y0126629D01*
X0099906Y0126219D01*
X0099147Y0125460D01*
X0098737Y0124469D01*
X0098737Y0123397D01*
X0099147Y0122406D01*
X0099733Y0121820D01*
X0099733Y0119137D01*
X0089944Y0109349D01*
X0090102Y0109728D01*
X0090102Y0164180D01*
X0109742Y0183820D01*
X0110170Y0183643D01*
X0112696Y0183643D01*
X0115030Y0184609D01*
X0116816Y0186395D01*
X0117783Y0188729D01*
X0117783Y0191255D01*
X0116816Y0193589D01*
X0115030Y0195375D01*
X0112696Y0196342D01*
X0110170Y0196342D01*
X0107836Y0195375D01*
X0106050Y0193589D01*
X0105083Y0191255D01*
X0105083Y0188729D01*
X0105261Y0188301D01*
X0084247Y0167287D01*
X0083765Y0166122D01*
X0083765Y0111671D01*
X0083129Y0111035D01*
X0083129Y0111469D01*
X0082719Y0112460D01*
X0081996Y0113183D01*
X0082719Y0113906D01*
X0083129Y0114897D01*
X0083129Y0115969D01*
X0082719Y0116960D01*
X0082246Y0117433D01*
X0082719Y0117906D01*
X0083129Y0118897D01*
X0083129Y0119969D01*
X0082719Y0120960D01*
X0081960Y0121719D01*
X0080969Y0122129D01*
X0079897Y0122129D01*
X0078906Y0121719D01*
X0078147Y0120960D01*
X0077737Y0119969D01*
X0077737Y0119141D01*
X0072229Y0113633D01*
X0068546Y0113633D01*
X0067960Y0114219D01*
X0066969Y0114629D01*
X0065897Y0114629D01*
X0064906Y0114219D01*
X0064147Y0113460D01*
X0063737Y0112469D01*
X0063737Y0111397D01*
X0064147Y0110406D01*
X0064906Y0109647D01*
X0065423Y0109433D01*
X0064906Y0109219D01*
X0064147Y0108460D01*
X0063737Y0107469D01*
X0063737Y0106397D01*
X0064147Y0105406D01*
X0064906Y0104647D01*
X0065897Y0104237D01*
X0066969Y0104237D01*
X0067960Y0104647D01*
X0068546Y0105233D01*
X0069053Y0105233D01*
X0068737Y0104469D01*
X0068737Y0103397D01*
X0069147Y0102406D01*
X0069906Y0101647D01*
X0070897Y0101237D01*
X0071969Y0101237D01*
X0072960Y0101647D01*
X0073546Y0102233D01*
X0074137Y0102233D01*
X0080141Y0108237D01*
X0080331Y0108237D01*
X0057396Y0085302D01*
X0055209Y0085302D01*
X0053164Y0084456D01*
X0051600Y0082891D01*
X0050753Y0080847D01*
X0050753Y0078634D01*
X0051600Y0076589D01*
X0053164Y0075025D01*
X0055209Y0074178D01*
X0057421Y0074178D01*
X0059466Y0075025D01*
X0061030Y0076589D01*
X0061355Y0077372D02*
X0135283Y0077372D01*
X0135599Y0077241D02*
X0134058Y0077879D01*
X0132879Y0079058D01*
X0132241Y0080599D01*
X0132241Y0082267D01*
X0132879Y0083808D01*
X0134058Y0084987D01*
X0135599Y0085625D01*
X0137267Y0085625D01*
X0138808Y0084987D01*
X0139987Y0083808D01*
X0140625Y0082267D01*
X0140625Y0080599D01*
X0139987Y0079058D01*
X0138808Y0077879D01*
X0137267Y0077241D01*
X0135599Y0077241D01*
X0134995Y0075375D02*
X0059816Y0075375D01*
X0057901Y0074377D02*
X0133448Y0074377D01*
X0132701Y0073378D02*
X0037833Y0073378D01*
X0037833Y0074377D02*
X0041737Y0074377D01*
X0039822Y0075375D02*
X0037833Y0075375D01*
X0037833Y0076374D02*
X0038823Y0076374D01*
X0038283Y0077372D02*
X0037833Y0077372D01*
X0037833Y0078371D02*
X0037870Y0078371D01*
X0037833Y0081366D02*
X0037976Y0081366D01*
X0037833Y0082365D02*
X0038389Y0082365D01*
X0037833Y0083363D02*
X0039080Y0083363D01*
X0040078Y0084362D02*
X0037833Y0084362D01*
X0037833Y0085360D02*
X0057454Y0085360D01*
X0058453Y0086359D02*
X0037833Y0086359D01*
X0037833Y0087357D02*
X0059451Y0087357D01*
X0060450Y0088356D02*
X0037833Y0088356D01*
X0037833Y0089354D02*
X0061448Y0089354D01*
X0062447Y0090353D02*
X0058451Y0090353D01*
X0059466Y0090773D02*
X0061030Y0092337D01*
X0061877Y0094382D01*
X0061877Y0096595D01*
X0061030Y0098639D01*
X0059466Y0100204D01*
X0057421Y0101050D01*
X0055209Y0101050D01*
X0053164Y0100204D01*
X0051600Y0098639D01*
X0050753Y0096595D01*
X0050753Y0094382D01*
X0051600Y0092337D01*
X0053164Y0090773D01*
X0055209Y0089926D01*
X0057421Y0089926D01*
X0059466Y0090773D01*
X0060044Y0091351D02*
X0063445Y0091351D01*
X0064444Y0092350D02*
X0061035Y0092350D01*
X0061449Y0093348D02*
X0065442Y0093348D01*
X0066441Y0094347D02*
X0061863Y0094347D01*
X0061877Y0095345D02*
X0067439Y0095345D01*
X0068438Y0096344D02*
X0061877Y0096344D01*
X0061567Y0097342D02*
X0069436Y0097342D01*
X0070435Y0098341D02*
X0061154Y0098341D01*
X0060330Y0099339D02*
X0071433Y0099339D01*
X0072432Y0100338D02*
X0059142Y0100338D01*
X0053488Y0100338D02*
X0046150Y0100338D01*
X0047338Y0099339D02*
X0052300Y0099339D01*
X0051476Y0098341D02*
X0048162Y0098341D01*
X0048575Y0097342D02*
X0051062Y0097342D01*
X0050753Y0096344D02*
X0048885Y0096344D01*
X0048885Y0095345D02*
X0050753Y0095345D01*
X0050767Y0094347D02*
X0048870Y0094347D01*
X0048457Y0093348D02*
X0051181Y0093348D01*
X0051594Y0092350D02*
X0048043Y0092350D01*
X0047052Y0091351D02*
X0052586Y0091351D01*
X0054178Y0090353D02*
X0045459Y0090353D01*
X0041186Y0090353D02*
X0037833Y0090353D01*
X0037833Y0091351D02*
X0039594Y0091351D01*
X0038602Y0092350D02*
X0037833Y0092350D01*
X0037833Y0093348D02*
X0038189Y0093348D01*
X0038070Y0097342D02*
X0037833Y0097342D01*
X0037833Y0098341D02*
X0038484Y0098341D01*
X0037833Y0099339D02*
X0039308Y0099339D01*
X0040496Y0100338D02*
X0037833Y0100338D01*
X0037833Y0101336D02*
X0070657Y0101336D01*
X0072209Y0101336D02*
X0073430Y0101336D01*
X0074239Y0102335D02*
X0074429Y0102335D01*
X0075237Y0103333D02*
X0075427Y0103333D01*
X0076236Y0104332D02*
X0076426Y0104332D01*
X0077235Y0105330D02*
X0077424Y0105330D01*
X0078233Y0106329D02*
X0078423Y0106329D01*
X0079232Y0107327D02*
X0079421Y0107327D01*
X0080433Y0110933D02*
X0073433Y0103933D01*
X0071433Y0103933D01*
X0068737Y0104332D02*
X0067198Y0104332D01*
X0065668Y0104332D02*
X0037833Y0104332D01*
X0037833Y0105330D02*
X0064223Y0105330D01*
X0063765Y0106329D02*
X0059002Y0106329D01*
X0060272Y0107327D02*
X0063737Y0107327D01*
X0064092Y0108326D02*
X0061130Y0108326D01*
X0061544Y0109324D02*
X0065161Y0109324D01*
X0064230Y0110323D02*
X0061877Y0110323D01*
X0061877Y0111321D02*
X0063768Y0111321D01*
X0063737Y0112320D02*
X0061877Y0112320D01*
X0061473Y0113318D02*
X0064089Y0113318D01*
X0065143Y0114317D02*
X0061059Y0114317D01*
X0060102Y0115315D02*
X0073911Y0115315D01*
X0072913Y0114317D02*
X0067723Y0114317D01*
X0068765Y0116314D02*
X0074910Y0116314D01*
X0075908Y0117312D02*
X0070376Y0117312D01*
X0071375Y0118311D02*
X0076907Y0118311D01*
X0077737Y0119310D02*
X0072373Y0119310D01*
X0075365Y0120308D02*
X0077877Y0120308D01*
X0078494Y0121307D02*
X0076876Y0121307D01*
X0077731Y0122305D02*
X0083765Y0122305D01*
X0083765Y0121307D02*
X0082372Y0121307D01*
X0082989Y0120308D02*
X0083765Y0120308D01*
X0083765Y0119310D02*
X0083129Y0119310D01*
X0082886Y0118311D02*
X0083765Y0118311D01*
X0083765Y0117312D02*
X0082366Y0117312D01*
X0082986Y0116314D02*
X0083765Y0116314D01*
X0083765Y0115315D02*
X0083129Y0115315D01*
X0082889Y0114317D02*
X0083765Y0114317D01*
X0083765Y0113318D02*
X0082131Y0113318D01*
X0082777Y0112320D02*
X0083765Y0112320D01*
X0083415Y0111321D02*
X0083129Y0111321D01*
X0080433Y0115433D02*
X0071933Y0106933D01*
X0066433Y0106933D01*
X0067443Y0109433D02*
X0067960Y0109647D01*
X0068546Y0110233D01*
X0072829Y0110233D01*
X0071229Y0108633D01*
X0068546Y0108633D01*
X0067960Y0109219D01*
X0067443Y0109433D01*
X0067705Y0109324D02*
X0071920Y0109324D01*
X0072933Y0111933D02*
X0066433Y0111933D01*
X0072933Y0111933D02*
X0080433Y0119433D01*
X0078144Y0123304D02*
X0083765Y0123304D01*
X0083765Y0124302D02*
X0078381Y0124302D01*
X0078381Y0125301D02*
X0083765Y0125301D01*
X0083765Y0126299D02*
X0078191Y0126299D01*
X0077778Y0127298D02*
X0083765Y0127298D01*
X0083765Y0128296D02*
X0076990Y0128296D01*
X0075640Y0129295D02*
X0083765Y0129295D01*
X0083765Y0130293D02*
X0076024Y0130293D01*
X0077285Y0131292D02*
X0083765Y0131292D01*
X0083765Y0132290D02*
X0078014Y0132290D01*
X0078441Y0133289D02*
X0083765Y0133289D01*
X0083765Y0134287D02*
X0078656Y0134287D01*
X0078487Y0136284D02*
X0083765Y0136284D01*
X0083765Y0135286D02*
X0073925Y0135286D01*
X0072957Y0135286D02*
X0037833Y0135286D01*
X0037833Y0136284D02*
X0068394Y0136284D01*
X0068330Y0136085D02*
X0068212Y0135343D01*
X0072957Y0135343D01*
X0072957Y0134374D01*
X0068212Y0134374D01*
X0068330Y0133631D01*
X0068585Y0132847D01*
X0068959Y0132112D01*
X0069444Y0131445D01*
X0070027Y0130861D01*
X0070695Y0130376D01*
X0071429Y0130002D01*
X0072214Y0129747D01*
X0072301Y0129733D01*
X0070643Y0129046D01*
X0069253Y0127657D01*
X0068501Y0125841D01*
X0068501Y0124399D01*
X0066703Y0122602D01*
X0059798Y0122602D01*
X0061030Y0123834D01*
X0061877Y0125878D01*
X0061877Y0128091D01*
X0061030Y0130135D01*
X0059466Y0131700D01*
X0057421Y0132546D01*
X0055209Y0132546D01*
X0053164Y0131700D01*
X0051600Y0130135D01*
X0050753Y0128091D01*
X0050753Y0125878D01*
X0051600Y0123834D01*
X0052832Y0122602D01*
X0052186Y0122602D01*
X0048885Y0125903D01*
X0048885Y0128091D01*
X0048038Y0130135D01*
X0046474Y0131700D01*
X0044429Y0132546D01*
X0042216Y0132546D01*
X0040172Y0131700D01*
X0038607Y0130135D01*
X0037833Y0128265D01*
X0037833Y0141451D01*
X0038607Y0139582D01*
X0040172Y0138017D01*
X0042216Y0137170D01*
X0044429Y0137170D01*
X0046474Y0138017D01*
X0048038Y0139582D01*
X0048885Y0141626D01*
X0048885Y0143814D01*
X0052336Y0147265D01*
X0052981Y0147265D01*
X0051600Y0145883D01*
X0050753Y0143839D01*
X0050753Y0141626D01*
X0051600Y0139582D01*
X0053164Y0138017D01*
X0055209Y0137170D01*
X0057421Y0137170D01*
X0059466Y0138017D01*
X0061030Y0139582D01*
X0061877Y0141626D01*
X0061877Y0143839D01*
X0061030Y0145883D01*
X0059649Y0147265D01*
X0066554Y0147265D01*
X0068501Y0145317D01*
X0068501Y0140621D01*
X0069204Y0139918D01*
X0072056Y0139918D01*
X0071429Y0139715D01*
X0070695Y0139340D01*
X0070027Y0138855D01*
X0069444Y0138272D01*
X0068959Y0137605D01*
X0068585Y0136870D01*
X0068330Y0136085D01*
X0068795Y0137283D02*
X0057693Y0137283D01*
X0059730Y0138281D02*
X0069453Y0138281D01*
X0070611Y0139280D02*
X0060729Y0139280D01*
X0061319Y0140278D02*
X0068844Y0140278D01*
X0068501Y0141277D02*
X0061733Y0141277D01*
X0061877Y0142275D02*
X0068501Y0142275D01*
X0068501Y0143274D02*
X0061877Y0143274D01*
X0061698Y0144272D02*
X0068501Y0144272D01*
X0068501Y0145271D02*
X0061284Y0145271D01*
X0060644Y0146269D02*
X0067549Y0146269D01*
X0072517Y0150263D02*
X0083765Y0150263D01*
X0083765Y0149265D02*
X0078212Y0149265D01*
X0078381Y0148266D02*
X0083765Y0148266D01*
X0083765Y0147268D02*
X0078381Y0147268D01*
X0078381Y0146269D02*
X0083765Y0146269D01*
X0083765Y0145271D02*
X0078381Y0145271D01*
X0078381Y0144272D02*
X0083765Y0144272D01*
X0083765Y0143274D02*
X0078381Y0143274D01*
X0078381Y0142275D02*
X0083765Y0142275D01*
X0083765Y0141277D02*
X0078381Y0141277D01*
X0078038Y0140278D02*
X0083765Y0140278D01*
X0083765Y0139280D02*
X0076270Y0139280D01*
X0077429Y0138281D02*
X0083765Y0138281D01*
X0083765Y0137283D02*
X0078087Y0137283D01*
X0070858Y0130293D02*
X0060872Y0130293D01*
X0061378Y0129295D02*
X0071242Y0129295D01*
X0069892Y0128296D02*
X0061792Y0128296D01*
X0061877Y0127298D02*
X0069104Y0127298D01*
X0068691Y0126299D02*
X0061877Y0126299D01*
X0061638Y0125301D02*
X0068501Y0125301D01*
X0068404Y0124302D02*
X0061224Y0124302D01*
X0060500Y0123304D02*
X0067405Y0123304D01*
X0069597Y0131292D02*
X0059874Y0131292D01*
X0058040Y0132290D02*
X0068868Y0132290D01*
X0068441Y0133289D02*
X0037833Y0133289D01*
X0037833Y0134287D02*
X0068226Y0134287D01*
X0054937Y0137283D02*
X0044701Y0137283D01*
X0046738Y0138281D02*
X0052900Y0138281D01*
X0051901Y0139280D02*
X0047736Y0139280D01*
X0048327Y0140278D02*
X0051311Y0140278D01*
X0050897Y0141277D02*
X0048740Y0141277D01*
X0048885Y0142275D02*
X0050753Y0142275D01*
X0050753Y0143274D02*
X0048885Y0143274D01*
X0049344Y0144272D02*
X0050932Y0144272D01*
X0051346Y0145271D02*
X0050342Y0145271D01*
X0051341Y0146269D02*
X0051986Y0146269D01*
X0047371Y0151262D02*
X0037833Y0151262D01*
X0037833Y0152260D02*
X0048370Y0152260D01*
X0049566Y0153259D02*
X0045252Y0153259D01*
X0046966Y0154257D02*
X0052672Y0154257D01*
X0051673Y0155256D02*
X0047965Y0155256D01*
X0048421Y0156254D02*
X0051216Y0156254D01*
X0050803Y0157253D02*
X0048835Y0157253D01*
X0048885Y0158251D02*
X0050753Y0158251D01*
X0050753Y0159250D02*
X0048885Y0159250D01*
X0048611Y0160248D02*
X0051027Y0160248D01*
X0051440Y0161247D02*
X0048197Y0161247D01*
X0047424Y0162245D02*
X0052214Y0162245D01*
X0053281Y0163244D02*
X0046357Y0163244D01*
X0040289Y0163244D02*
X0037833Y0163244D01*
X0037833Y0162245D02*
X0039222Y0162245D01*
X0038448Y0161247D02*
X0037833Y0161247D01*
X0037833Y0160248D02*
X0038035Y0160248D01*
X0037833Y0164243D02*
X0083765Y0164243D01*
X0083765Y0165241D02*
X0037833Y0165241D01*
X0037833Y0166240D02*
X0083813Y0166240D01*
X0084227Y0167238D02*
X0037833Y0167238D01*
X0037833Y0168237D02*
X0085197Y0168237D01*
X0086195Y0169235D02*
X0058795Y0169235D01*
X0059466Y0169513D02*
X0061030Y0171078D01*
X0061877Y0173122D01*
X0061877Y0175335D01*
X0061030Y0177379D01*
X0059466Y0178944D01*
X0057421Y0179791D01*
X0055209Y0179791D01*
X0053164Y0178944D01*
X0051600Y0177379D01*
X0050753Y0175335D01*
X0050753Y0173122D01*
X0051600Y0171078D01*
X0053164Y0169513D01*
X0055209Y0168666D01*
X0057421Y0168666D01*
X0059466Y0169513D01*
X0060186Y0170234D02*
X0087194Y0170234D01*
X0088192Y0171232D02*
X0061094Y0171232D01*
X0061508Y0172231D02*
X0089191Y0172231D01*
X0090189Y0173229D02*
X0061877Y0173229D01*
X0061877Y0174228D02*
X0091188Y0174228D01*
X0092186Y0175226D02*
X0061877Y0175226D01*
X0061509Y0176225D02*
X0093185Y0176225D01*
X0094183Y0177223D02*
X0061095Y0177223D01*
X0060188Y0178222D02*
X0095182Y0178222D01*
X0096180Y0179220D02*
X0058798Y0179220D01*
X0053832Y0179220D02*
X0045806Y0179220D01*
X0047196Y0178222D02*
X0052442Y0178222D01*
X0051535Y0177223D02*
X0048103Y0177223D01*
X0048516Y0176225D02*
X0051121Y0176225D01*
X0050753Y0175226D02*
X0048885Y0175226D01*
X0048885Y0174228D02*
X0050753Y0174228D01*
X0050753Y0173229D02*
X0048885Y0173229D01*
X0048516Y0172231D02*
X0051122Y0172231D01*
X0051536Y0171232D02*
X0048102Y0171232D01*
X0047194Y0170234D02*
X0052444Y0170234D01*
X0053835Y0169235D02*
X0045803Y0169235D01*
X0040843Y0169235D02*
X0037833Y0169235D01*
X0037833Y0170234D02*
X0039451Y0170234D01*
X0038543Y0171232D02*
X0037833Y0171232D01*
X0037833Y0172231D02*
X0038130Y0172231D01*
X0038129Y0176225D02*
X0037833Y0176225D01*
X0037833Y0177223D02*
X0038543Y0177223D01*
X0037833Y0178222D02*
X0039450Y0178222D01*
X0040839Y0179220D02*
X0037833Y0179220D01*
X0037833Y0180219D02*
X0097179Y0180219D01*
X0098177Y0181217D02*
X0037833Y0181217D01*
X0037833Y0182216D02*
X0099176Y0182216D01*
X0100174Y0183214D02*
X0037833Y0183214D01*
X0037833Y0184213D02*
X0090289Y0184213D01*
X0089332Y0184609D02*
X0091666Y0183643D01*
X0094192Y0183643D01*
X0096526Y0184609D01*
X0098312Y0186395D01*
X0099279Y0188729D01*
X0099279Y0191255D01*
X0098312Y0193589D01*
X0096526Y0195375D01*
X0094192Y0196342D01*
X0091666Y0196342D01*
X0089332Y0195375D01*
X0087546Y0193589D01*
X0086580Y0191255D01*
X0086580Y0188729D01*
X0087546Y0186395D01*
X0089332Y0184609D01*
X0088730Y0185211D02*
X0059346Y0185211D01*
X0059466Y0185261D02*
X0061030Y0186826D01*
X0061877Y0188870D01*
X0061877Y0191083D01*
X0061030Y0193127D01*
X0059466Y0194692D01*
X0057421Y0195539D01*
X0055209Y0195539D01*
X0053164Y0194692D01*
X0051600Y0193127D01*
X0050753Y0191083D01*
X0050753Y0188870D01*
X0051600Y0186826D01*
X0053164Y0185261D01*
X0055209Y0184414D01*
X0057421Y0184414D01*
X0059466Y0185261D01*
X0060414Y0186210D02*
X0087732Y0186210D01*
X0087209Y0187208D02*
X0061189Y0187208D01*
X0061602Y0188207D02*
X0086796Y0188207D01*
X0086580Y0189205D02*
X0061877Y0189205D01*
X0061877Y0190204D02*
X0086580Y0190204D01*
X0086580Y0191202D02*
X0061828Y0191202D01*
X0061414Y0192201D02*
X0086971Y0192201D01*
X0087385Y0193199D02*
X0060958Y0193199D01*
X0059960Y0194198D02*
X0088155Y0194198D01*
X0089154Y0195196D02*
X0058248Y0195196D01*
X0054382Y0195196D02*
X0048524Y0195196D01*
X0048885Y0194198D02*
X0052670Y0194198D01*
X0051672Y0193199D02*
X0048885Y0193199D01*
X0048885Y0192201D02*
X0051216Y0192201D01*
X0050802Y0191202D02*
X0048885Y0191202D01*
X0048885Y0190204D02*
X0050753Y0190204D01*
X0050753Y0189205D02*
X0048885Y0189205D01*
X0048885Y0188207D02*
X0051027Y0188207D01*
X0051441Y0187208D02*
X0048885Y0187208D01*
X0048885Y0186210D02*
X0052215Y0186210D01*
X0053284Y0185211D02*
X0048885Y0185211D01*
X0038121Y0195196D02*
X0037833Y0195196D01*
X0037833Y0196195D02*
X0091312Y0196195D01*
X0094547Y0196195D02*
X0109816Y0196195D01*
X0107658Y0195196D02*
X0096705Y0195196D01*
X0097703Y0194198D02*
X0106659Y0194198D01*
X0105889Y0193199D02*
X0098473Y0193199D01*
X0098887Y0192201D02*
X0105475Y0192201D01*
X0105083Y0191202D02*
X0099279Y0191202D01*
X0099279Y0190204D02*
X0105083Y0190204D01*
X0105083Y0189205D02*
X0099279Y0189205D01*
X0099062Y0188207D02*
X0105167Y0188207D01*
X0104168Y0187208D02*
X0098649Y0187208D01*
X0098126Y0186210D02*
X0103170Y0186210D01*
X0102171Y0185211D02*
X0097128Y0185211D01*
X0095569Y0184213D02*
X0101173Y0184213D01*
X0107139Y0181217D02*
X0206245Y0181217D01*
X0207243Y0180219D02*
X0106141Y0180219D01*
X0105142Y0179220D02*
X0208242Y0179220D01*
X0209240Y0178222D02*
X0104144Y0178222D01*
X0103145Y0177223D02*
X0210239Y0177223D01*
X0211237Y0176225D02*
X0102147Y0176225D01*
X0101148Y0175226D02*
X0212236Y0175226D01*
X0213234Y0174228D02*
X0100150Y0174228D01*
X0099151Y0173229D02*
X0110825Y0173229D01*
X0109826Y0172231D02*
X0098152Y0172231D01*
X0097154Y0171232D02*
X0108828Y0171232D01*
X0107829Y0170234D02*
X0096155Y0170234D01*
X0095157Y0169235D02*
X0106831Y0169235D01*
X0105832Y0168237D02*
X0094158Y0168237D01*
X0093160Y0167238D02*
X0104834Y0167238D01*
X0103835Y0166240D02*
X0092161Y0166240D01*
X0091163Y0165241D02*
X0102837Y0165241D01*
X0101838Y0164243D02*
X0090164Y0164243D01*
X0090102Y0163244D02*
X0100840Y0163244D01*
X0099841Y0162245D02*
X0090102Y0162245D01*
X0090102Y0161247D02*
X0098843Y0161247D01*
X0097844Y0160248D02*
X0090102Y0160248D01*
X0090102Y0159250D02*
X0096846Y0159250D01*
X0095847Y0158251D02*
X0090102Y0158251D01*
X0090102Y0157253D02*
X0094849Y0157253D01*
X0093850Y0156254D02*
X0090102Y0156254D01*
X0090102Y0155256D02*
X0092852Y0155256D01*
X0091853Y0154257D02*
X0090102Y0154257D01*
X0090102Y0153259D02*
X0091733Y0153259D01*
X0091733Y0152260D02*
X0090102Y0152260D01*
X0090102Y0151262D02*
X0091733Y0151262D01*
X0091733Y0150263D02*
X0090102Y0150263D01*
X0090102Y0149265D02*
X0091733Y0149265D01*
X0091733Y0148266D02*
X0090102Y0148266D01*
X0090102Y0147268D02*
X0091733Y0147268D01*
X0091733Y0146269D02*
X0090102Y0146269D01*
X0090102Y0145271D02*
X0091733Y0145271D01*
X0091733Y0144272D02*
X0090102Y0144272D01*
X0090102Y0143274D02*
X0091733Y0143274D01*
X0091733Y0142275D02*
X0090102Y0142275D01*
X0090102Y0141277D02*
X0091733Y0141277D01*
X0092684Y0140278D02*
X0090102Y0140278D01*
X0090102Y0139280D02*
X0093682Y0139280D01*
X0093785Y0138281D02*
X0090102Y0138281D01*
X0090102Y0137283D02*
X0094271Y0137283D01*
X0095783Y0136284D02*
X0090102Y0136284D01*
X0090102Y0135286D02*
X0102676Y0135286D01*
X0101678Y0136284D02*
X0097083Y0136284D01*
X0098596Y0137283D02*
X0100679Y0137283D01*
X0099681Y0138281D02*
X0099081Y0138281D01*
X0096433Y0138933D02*
X0093433Y0141933D01*
X0093433Y0153433D01*
X0112433Y0172433D01*
X0201933Y0172433D01*
X0219933Y0154433D01*
X0263433Y0154433D01*
X0266433Y0151433D01*
X0268420Y0153259D02*
X0332001Y0153259D01*
X0331737Y0154257D02*
X0266013Y0154257D01*
X0269009Y0152260D02*
X0332793Y0152260D01*
X0334433Y0154433D02*
X0332433Y0156433D01*
X0223433Y0156433D01*
X0222433Y0157433D01*
X0219737Y0157253D02*
X0219517Y0157253D01*
X0219854Y0158251D02*
X0218519Y0158251D01*
X0219303Y0159250D02*
X0217520Y0159250D01*
X0218506Y0160248D02*
X0216522Y0160248D01*
X0215523Y0161247D02*
X0218237Y0161247D01*
X0218351Y0162245D02*
X0214525Y0162245D01*
X0213526Y0163244D02*
X0218931Y0163244D01*
X0220933Y0161433D02*
X0222433Y0161433D01*
X0225433Y0158433D01*
X0333433Y0158433D01*
X0334433Y0159433D01*
X0332434Y0161247D02*
X0230067Y0161247D01*
X0230133Y0162245D02*
X0373657Y0162245D01*
X0372658Y0161247D02*
X0336432Y0161247D01*
X0337014Y0160248D02*
X0371659Y0160248D01*
X0370661Y0159250D02*
X0337129Y0159250D01*
X0336862Y0158251D02*
X0369662Y0158251D01*
X0368664Y0157253D02*
X0336066Y0157253D01*
X0336425Y0156254D02*
X0367665Y0156254D01*
X0366667Y0155256D02*
X0337010Y0155256D01*
X0337129Y0154257D02*
X0365668Y0154257D01*
X0364670Y0153259D02*
X0336865Y0153259D01*
X0336073Y0152260D02*
X0363671Y0152260D01*
X0362673Y0151262D02*
X0309008Y0151262D01*
X0310007Y0150263D02*
X0361674Y0150263D01*
X0360676Y0149265D02*
X0311005Y0149265D01*
X0313413Y0148266D02*
X0359677Y0148266D01*
X0358679Y0147268D02*
X0314005Y0147268D01*
X0314129Y0146269D02*
X0357680Y0146269D01*
X0356682Y0145271D02*
X0313870Y0145271D01*
X0313085Y0144272D02*
X0317079Y0144272D01*
X0311433Y0146433D02*
X0307433Y0150433D01*
X0279933Y0150433D01*
X0273433Y0143933D01*
X0273433Y0139933D01*
X0274733Y0137553D02*
X0274733Y0115137D01*
X0251229Y0091633D01*
X0249822Y0091633D01*
X0249338Y0092117D01*
X0233028Y0092117D01*
X0231749Y0090838D01*
X0231749Y0090838D01*
X0229633Y0088722D01*
X0229633Y0100820D01*
X0230219Y0101406D01*
X0230629Y0102397D01*
X0230629Y0103469D01*
X0230219Y0104460D01*
X0229460Y0105219D01*
X0228469Y0105629D01*
X0227533Y0105629D01*
X0230641Y0108737D01*
X0231469Y0108737D01*
X0232460Y0109147D01*
X0233219Y0109906D01*
X0233464Y0110498D01*
X0235233Y0108729D01*
X0236229Y0107733D01*
X0248137Y0107733D01*
X0250137Y0109733D01*
X0251133Y0110729D01*
X0251133Y0114320D01*
X0251719Y0114906D01*
X0252129Y0115897D01*
X0252129Y0116969D01*
X0251719Y0117960D01*
X0250960Y0118719D01*
X0249969Y0119129D01*
X0248897Y0119129D01*
X0247906Y0118719D01*
X0247229Y0118042D01*
X0247137Y0118133D01*
X0226137Y0139133D01*
X0221137Y0139133D01*
X0209129Y0151141D01*
X0209129Y0151333D01*
X0218233Y0142229D01*
X0218233Y0142229D01*
X0219229Y0141233D01*
X0267820Y0141233D01*
X0268406Y0140647D01*
X0269397Y0140237D01*
X0270469Y0140237D01*
X0270737Y0140348D01*
X0270737Y0139397D01*
X0271147Y0138406D01*
X0271906Y0137647D01*
X0272897Y0137237D01*
X0273969Y0137237D01*
X0274733Y0137553D01*
X0274733Y0137283D02*
X0274080Y0137283D01*
X0274733Y0136284D02*
X0228986Y0136284D01*
X0229985Y0135286D02*
X0274733Y0135286D01*
X0274733Y0134287D02*
X0230983Y0134287D01*
X0231982Y0133289D02*
X0274733Y0133289D01*
X0274733Y0132290D02*
X0232980Y0132290D01*
X0233979Y0131292D02*
X0274733Y0131292D01*
X0274733Y0130293D02*
X0234977Y0130293D01*
X0235976Y0129295D02*
X0274733Y0129295D01*
X0274733Y0128296D02*
X0236974Y0128296D01*
X0237973Y0127298D02*
X0274733Y0127298D01*
X0274733Y0126299D02*
X0238971Y0126299D01*
X0239970Y0125301D02*
X0274733Y0125301D01*
X0274733Y0124302D02*
X0240968Y0124302D01*
X0241967Y0123304D02*
X0274733Y0123304D01*
X0274733Y0122305D02*
X0242965Y0122305D01*
X0243964Y0121307D02*
X0274733Y0121307D01*
X0274733Y0120308D02*
X0244962Y0120308D01*
X0245961Y0119310D02*
X0274733Y0119310D01*
X0274733Y0118311D02*
X0251368Y0118311D01*
X0251987Y0117312D02*
X0274733Y0117312D01*
X0274733Y0116314D02*
X0252129Y0116314D01*
X0251888Y0115315D02*
X0274733Y0115315D01*
X0273913Y0114317D02*
X0251133Y0114317D01*
X0251133Y0113318D02*
X0272914Y0113318D01*
X0271916Y0112320D02*
X0251133Y0112320D01*
X0251133Y0111321D02*
X0270917Y0111321D01*
X0269919Y0110323D02*
X0250727Y0110323D01*
X0249729Y0109324D02*
X0268920Y0109324D01*
X0267922Y0108326D02*
X0248730Y0108326D01*
X0247433Y0109433D02*
X0249433Y0111433D01*
X0249433Y0116433D01*
X0247498Y0118311D02*
X0246959Y0118311D01*
X0246433Y0116433D02*
X0246433Y0112433D01*
X0244504Y0114317D02*
X0243130Y0114317D01*
X0242960Y0114147D02*
X0243719Y0114906D01*
X0244129Y0115897D01*
X0244129Y0116333D01*
X0244733Y0115729D01*
X0244733Y0114546D01*
X0244147Y0113960D01*
X0243737Y0112969D01*
X0243737Y0111897D01*
X0244053Y0111133D01*
X0237637Y0111133D01*
X0232637Y0116133D01*
X0206229Y0116133D01*
X0205233Y0115137D01*
X0188229Y0098133D01*
X0169062Y0098133D01*
X0169987Y0099058D01*
X0170625Y0100599D01*
X0170625Y0102267D01*
X0169987Y0103808D01*
X0169062Y0104733D01*
X0171820Y0104733D01*
X0172406Y0104147D01*
X0173397Y0103737D01*
X0174469Y0103737D01*
X0175460Y0104147D01*
X0176219Y0104906D01*
X0176629Y0105897D01*
X0176629Y0106969D01*
X0176219Y0107960D01*
X0175460Y0108719D01*
X0174469Y0109129D01*
X0173397Y0109129D01*
X0172406Y0108719D01*
X0171820Y0108133D01*
X0169062Y0108133D01*
X0169987Y0109058D01*
X0170625Y0110599D01*
X0170625Y0112267D01*
X0169987Y0113808D01*
X0169062Y0114733D01*
X0186820Y0114733D01*
X0187406Y0114147D01*
X0188397Y0113737D01*
X0189469Y0113737D01*
X0190460Y0114147D01*
X0191219Y0114906D01*
X0191629Y0115897D01*
X0191629Y0116969D01*
X0191313Y0117733D01*
X0234320Y0117733D01*
X0234906Y0117147D01*
X0235897Y0116737D01*
X0236969Y0116737D01*
X0237960Y0117147D01*
X0238719Y0117906D01*
X0238964Y0118498D01*
X0239325Y0118137D01*
X0239147Y0117960D01*
X0238737Y0116969D01*
X0238737Y0115897D01*
X0239147Y0114906D01*
X0239906Y0114147D01*
X0240897Y0113737D01*
X0241969Y0113737D01*
X0242960Y0114147D01*
X0243882Y0113318D02*
X0235452Y0113318D01*
X0236450Y0112320D02*
X0243737Y0112320D01*
X0243975Y0111321D02*
X0237449Y0111321D01*
X0236933Y0109433D02*
X0231933Y0114433D01*
X0206933Y0114433D01*
X0188933Y0096433D01*
X0161933Y0096433D01*
X0124433Y0133933D01*
X0106433Y0133933D01*
X0096433Y0143933D01*
X0098933Y0144943D02*
X0098719Y0145460D01*
X0097960Y0146219D01*
X0096969Y0146629D01*
X0095897Y0146629D01*
X0095133Y0146313D01*
X0095133Y0152729D01*
X0113137Y0170733D01*
X0115829Y0170733D01*
X0106725Y0161629D01*
X0105897Y0161629D01*
X0104906Y0161219D01*
X0104147Y0160460D01*
X0103737Y0159469D01*
X0103737Y0158397D01*
X0104147Y0157406D01*
X0104906Y0156647D01*
X0105423Y0156433D01*
X0104906Y0156219D01*
X0104147Y0155460D01*
X0103737Y0154469D01*
X0103737Y0153397D01*
X0104053Y0152633D01*
X0101546Y0152633D01*
X0100960Y0153219D01*
X0099969Y0153629D01*
X0098897Y0153629D01*
X0097906Y0153219D01*
X0097147Y0152460D01*
X0096737Y0151469D01*
X0096737Y0150397D01*
X0097147Y0149406D01*
X0097906Y0148647D01*
X0098897Y0148237D01*
X0099969Y0148237D01*
X0100960Y0148647D01*
X0101546Y0149233D01*
X0111637Y0149233D01*
X0112633Y0150229D01*
X0119637Y0157233D01*
X0144320Y0157233D01*
X0144906Y0156647D01*
X0145897Y0156237D01*
X0146969Y0156237D01*
X0147960Y0156647D01*
X0148719Y0157406D01*
X0149129Y0158397D01*
X0149129Y0159469D01*
X0148719Y0160460D01*
X0147960Y0161219D01*
X0146969Y0161629D01*
X0145897Y0161629D01*
X0144906Y0161219D01*
X0144320Y0160633D01*
X0118229Y0160633D01*
X0110229Y0152633D01*
X0108813Y0152633D01*
X0109129Y0153397D01*
X0109129Y0154225D01*
X0121637Y0166733D01*
X0174329Y0166733D01*
X0169225Y0161629D01*
X0168397Y0161629D01*
X0167406Y0161219D01*
X0166647Y0160460D01*
X0166237Y0159469D01*
X0166237Y0158397D01*
X0166647Y0157406D01*
X0167406Y0156647D01*
X0167923Y0156433D01*
X0167406Y0156219D01*
X0166647Y0155460D01*
X0166237Y0154469D01*
X0166237Y0153397D01*
X0166647Y0152406D01*
X0167406Y0151647D01*
X0167923Y0151433D01*
X0167406Y0151219D01*
X0166647Y0150460D01*
X0166237Y0149469D01*
X0166237Y0149033D01*
X0160133Y0155137D01*
X0159137Y0156133D01*
X0122729Y0156133D01*
X0119225Y0152629D01*
X0118397Y0152629D01*
X0117406Y0152219D01*
X0116647Y0151460D01*
X0116237Y0150469D01*
X0116237Y0149397D01*
X0116647Y0148406D01*
X0117406Y0147647D01*
X0118397Y0147237D01*
X0119469Y0147237D01*
X0120460Y0147647D01*
X0121219Y0148406D01*
X0121629Y0149397D01*
X0121629Y0150225D01*
X0124137Y0152733D01*
X0149053Y0152733D01*
X0148737Y0151969D01*
X0148737Y0150897D01*
X0149147Y0149906D01*
X0149906Y0149147D01*
X0150897Y0148737D01*
X0151969Y0148737D01*
X0152960Y0149147D01*
X0153546Y0149733D01*
X0155729Y0149733D01*
X0167852Y0137610D01*
X0166906Y0137219D01*
X0166147Y0136460D01*
X0165737Y0135469D01*
X0165737Y0134397D01*
X0166147Y0133406D01*
X0166906Y0132647D01*
X0167897Y0132237D01*
X0168725Y0132237D01*
X0172729Y0128233D01*
X0200553Y0128233D01*
X0200237Y0127469D01*
X0200237Y0126397D01*
X0200647Y0125406D01*
X0201406Y0124647D01*
X0202397Y0124237D01*
X0203469Y0124237D01*
X0204460Y0124647D01*
X0205046Y0125233D01*
X0229320Y0125233D01*
X0229906Y0124647D01*
X0230897Y0124237D01*
X0231969Y0124237D01*
X0232960Y0124647D01*
X0233719Y0125406D01*
X0234110Y0126352D01*
X0236329Y0124133D01*
X0173637Y0124133D01*
X0152137Y0145633D01*
X0148546Y0145633D01*
X0147960Y0146219D01*
X0146969Y0146629D01*
X0145897Y0146629D01*
X0144906Y0146219D01*
X0144147Y0145460D01*
X0143737Y0144469D01*
X0143737Y0143397D01*
X0144147Y0142406D01*
X0144906Y0141647D01*
X0145897Y0141237D01*
X0146969Y0141237D01*
X0147960Y0141647D01*
X0148546Y0142233D01*
X0150729Y0142233D01*
X0151333Y0141629D01*
X0150897Y0141629D01*
X0149906Y0141219D01*
X0149147Y0140460D01*
X0148737Y0139469D01*
X0148737Y0138397D01*
X0149147Y0137406D01*
X0149906Y0136647D01*
X0150897Y0136237D01*
X0151725Y0136237D01*
X0169233Y0118729D01*
X0169829Y0118133D01*
X0147637Y0118133D01*
X0122133Y0143637D01*
X0121137Y0144633D01*
X0121046Y0144633D01*
X0120460Y0145219D01*
X0119469Y0145629D01*
X0118397Y0145629D01*
X0117406Y0145219D01*
X0116647Y0144460D01*
X0116237Y0143469D01*
X0116237Y0142397D01*
X0116647Y0141406D01*
X0117406Y0140647D01*
X0118397Y0140237D01*
X0119469Y0140237D01*
X0120357Y0140605D01*
X0123329Y0137633D01*
X0110137Y0137633D01*
X0104129Y0143641D01*
X0104129Y0144469D01*
X0103719Y0145460D01*
X0102960Y0146219D01*
X0101969Y0146629D01*
X0100897Y0146629D01*
X0099906Y0146219D01*
X0099147Y0145460D01*
X0098933Y0144943D01*
X0098797Y0145271D02*
X0099069Y0145271D01*
X0100028Y0146269D02*
X0097838Y0146269D01*
X0098826Y0148266D02*
X0095133Y0148266D01*
X0095133Y0147268D02*
X0118322Y0147268D01*
X0119544Y0147268D02*
X0158194Y0147268D01*
X0157196Y0148266D02*
X0121079Y0148266D01*
X0121574Y0149265D02*
X0149788Y0149265D01*
X0148999Y0150263D02*
X0121668Y0150263D01*
X0122666Y0151262D02*
X0148737Y0151262D01*
X0148858Y0152260D02*
X0123665Y0152260D01*
X0123433Y0154433D02*
X0118933Y0149933D01*
X0116565Y0151262D02*
X0113666Y0151262D01*
X0114665Y0152260D02*
X0117507Y0152260D01*
X0115663Y0153259D02*
X0119855Y0153259D01*
X0120853Y0154257D02*
X0116662Y0154257D01*
X0117660Y0155256D02*
X0121852Y0155256D01*
X0123433Y0154433D02*
X0158433Y0154433D01*
X0168933Y0143933D01*
X0169943Y0146433D02*
X0170460Y0146647D01*
X0171219Y0147406D01*
X0171629Y0148397D01*
X0171629Y0149225D01*
X0181979Y0159575D01*
X0182406Y0159147D01*
X0183397Y0158737D01*
X0184469Y0158737D01*
X0185460Y0159147D01*
X0186219Y0159906D01*
X0186629Y0160897D01*
X0186629Y0161969D01*
X0186313Y0162733D01*
X0187229Y0162733D01*
X0214829Y0135133D01*
X0175137Y0135133D01*
X0169033Y0141237D01*
X0169469Y0141237D01*
X0170460Y0141647D01*
X0171219Y0142406D01*
X0171629Y0143397D01*
X0171629Y0144469D01*
X0171219Y0145460D01*
X0170460Y0146219D01*
X0169943Y0146433D01*
X0170338Y0146269D02*
X0203693Y0146269D01*
X0204691Y0145271D02*
X0171297Y0145271D01*
X0171629Y0144272D02*
X0205690Y0144272D01*
X0206688Y0143274D02*
X0171578Y0143274D01*
X0171088Y0142275D02*
X0207687Y0142275D01*
X0208685Y0141277D02*
X0169565Y0141277D01*
X0169992Y0140278D02*
X0209684Y0140278D01*
X0210682Y0139280D02*
X0170991Y0139280D01*
X0171989Y0138281D02*
X0211681Y0138281D01*
X0212679Y0137283D02*
X0172988Y0137283D01*
X0173986Y0136284D02*
X0213678Y0136284D01*
X0214676Y0135286D02*
X0174985Y0135286D01*
X0174433Y0133433D02*
X0156433Y0151433D01*
X0151433Y0151433D01*
X0153078Y0149265D02*
X0156197Y0149265D01*
X0159008Y0151262D02*
X0159200Y0151262D01*
X0160007Y0150263D02*
X0160199Y0150263D01*
X0161005Y0149265D02*
X0161197Y0149265D01*
X0162004Y0148266D02*
X0162196Y0148266D01*
X0163002Y0147268D02*
X0163194Y0147268D01*
X0164001Y0146269D02*
X0164193Y0146269D01*
X0164999Y0145271D02*
X0165191Y0145271D01*
X0165998Y0144272D02*
X0166190Y0144272D01*
X0166237Y0144225D02*
X0157729Y0152733D01*
X0157537Y0152733D01*
X0158133Y0152137D01*
X0166237Y0144033D01*
X0166237Y0144225D01*
X0164185Y0141277D02*
X0156494Y0141277D01*
X0157492Y0140278D02*
X0165184Y0140278D01*
X0166182Y0139280D02*
X0158491Y0139280D01*
X0159489Y0138281D02*
X0167181Y0138281D01*
X0167060Y0137283D02*
X0160488Y0137283D01*
X0161486Y0136284D02*
X0166075Y0136284D01*
X0165737Y0135286D02*
X0162485Y0135286D01*
X0163483Y0134287D02*
X0165782Y0134287D01*
X0166265Y0133289D02*
X0164482Y0133289D01*
X0165480Y0132290D02*
X0167768Y0132290D01*
X0166479Y0131292D02*
X0169670Y0131292D01*
X0170669Y0130293D02*
X0167477Y0130293D01*
X0168476Y0129295D02*
X0171667Y0129295D01*
X0172666Y0128296D02*
X0169474Y0128296D01*
X0170473Y0127298D02*
X0200237Y0127298D01*
X0200277Y0126299D02*
X0171471Y0126299D01*
X0172470Y0125301D02*
X0200753Y0125301D01*
X0202240Y0124302D02*
X0173468Y0124302D01*
X0172933Y0122433D02*
X0237433Y0122433D01*
X0241433Y0118433D01*
X0241433Y0116433D01*
X0238978Y0115315D02*
X0233455Y0115315D01*
X0234453Y0114317D02*
X0239736Y0114317D01*
X0238737Y0116314D02*
X0191629Y0116314D01*
X0191487Y0117312D02*
X0234741Y0117312D01*
X0236433Y0119433D02*
X0170933Y0119433D01*
X0151433Y0138933D01*
X0154129Y0138833D02*
X0171233Y0121729D01*
X0171829Y0121133D01*
X0171637Y0121133D01*
X0154129Y0138641D01*
X0154129Y0138833D01*
X0154489Y0138281D02*
X0154681Y0138281D01*
X0155488Y0137283D02*
X0155679Y0137283D01*
X0156486Y0136284D02*
X0156678Y0136284D01*
X0157485Y0135286D02*
X0157676Y0135286D01*
X0158483Y0134287D02*
X0158675Y0134287D01*
X0159482Y0133289D02*
X0159673Y0133289D01*
X0160480Y0132290D02*
X0160672Y0132290D01*
X0161479Y0131292D02*
X0161670Y0131292D01*
X0162477Y0130293D02*
X0162669Y0130293D01*
X0163476Y0129295D02*
X0163667Y0129295D01*
X0164474Y0128296D02*
X0164666Y0128296D01*
X0165473Y0127298D02*
X0165664Y0127298D01*
X0166471Y0126299D02*
X0166663Y0126299D01*
X0167470Y0125301D02*
X0167661Y0125301D01*
X0168468Y0124302D02*
X0168660Y0124302D01*
X0169467Y0123304D02*
X0169658Y0123304D01*
X0170465Y0122305D02*
X0170657Y0122305D01*
X0171464Y0121307D02*
X0171655Y0121307D01*
X0172933Y0122433D02*
X0151433Y0143933D01*
X0146433Y0143933D01*
X0144069Y0145271D02*
X0120334Y0145271D01*
X0121498Y0144272D02*
X0143737Y0144272D01*
X0143788Y0143274D02*
X0122497Y0143274D01*
X0123495Y0142275D02*
X0144278Y0142275D01*
X0145801Y0141277D02*
X0124494Y0141277D01*
X0125492Y0140278D02*
X0149072Y0140278D01*
X0148737Y0139280D02*
X0126491Y0139280D01*
X0127489Y0138281D02*
X0148785Y0138281D01*
X0149271Y0137283D02*
X0128488Y0137283D01*
X0129486Y0136284D02*
X0150783Y0136284D01*
X0152676Y0135286D02*
X0130485Y0135286D01*
X0131483Y0134287D02*
X0153675Y0134287D01*
X0154673Y0133289D02*
X0132482Y0133289D01*
X0133480Y0132290D02*
X0155672Y0132290D01*
X0156670Y0131292D02*
X0134479Y0131292D01*
X0135477Y0130293D02*
X0157669Y0130293D01*
X0158667Y0129295D02*
X0136476Y0129295D01*
X0137474Y0128296D02*
X0159666Y0128296D01*
X0160664Y0127298D02*
X0138473Y0127298D01*
X0139471Y0126299D02*
X0161663Y0126299D01*
X0162661Y0125301D02*
X0140470Y0125301D01*
X0141468Y0124302D02*
X0163660Y0124302D01*
X0164658Y0123304D02*
X0142467Y0123304D01*
X0143465Y0122305D02*
X0165657Y0122305D01*
X0166655Y0121307D02*
X0144464Y0121307D01*
X0145462Y0120308D02*
X0167654Y0120308D01*
X0168652Y0119310D02*
X0146461Y0119310D01*
X0147459Y0118311D02*
X0169651Y0118311D01*
X0169478Y0114317D02*
X0187236Y0114317D01*
X0188933Y0116433D02*
X0146933Y0116433D01*
X0120433Y0142933D01*
X0118933Y0142933D01*
X0116570Y0144272D02*
X0104129Y0144272D01*
X0103797Y0145271D02*
X0117532Y0145271D01*
X0116237Y0143274D02*
X0104497Y0143274D01*
X0105495Y0142275D02*
X0116287Y0142275D01*
X0116777Y0141277D02*
X0106494Y0141277D01*
X0107492Y0140278D02*
X0118297Y0140278D01*
X0119569Y0140278D02*
X0120684Y0140278D01*
X0121682Y0139280D02*
X0108491Y0139280D01*
X0109489Y0138281D02*
X0122681Y0138281D01*
X0124933Y0135933D02*
X0109433Y0135933D01*
X0101433Y0143933D01*
X0101533Y0141237D02*
X0101725Y0141237D01*
X0107329Y0135633D01*
X0107137Y0135633D01*
X0101533Y0141237D01*
X0102492Y0140278D02*
X0102684Y0140278D01*
X0103491Y0139280D02*
X0103682Y0139280D01*
X0104489Y0138281D02*
X0104681Y0138281D01*
X0105488Y0137283D02*
X0105679Y0137283D01*
X0106486Y0136284D02*
X0106678Y0136284D01*
X0104673Y0133289D02*
X0090102Y0133289D01*
X0090102Y0134287D02*
X0103675Y0134287D01*
X0105672Y0132290D02*
X0090102Y0132290D01*
X0090102Y0131292D02*
X0124670Y0131292D01*
X0125669Y0130293D02*
X0090102Y0130293D01*
X0090102Y0129295D02*
X0126667Y0129295D01*
X0127666Y0128296D02*
X0090102Y0128296D01*
X0090102Y0127298D02*
X0128664Y0127298D01*
X0129663Y0126299D02*
X0102766Y0126299D01*
X0103785Y0125301D02*
X0130661Y0125301D01*
X0131660Y0124302D02*
X0104129Y0124302D01*
X0104091Y0123304D02*
X0132658Y0123304D01*
X0133657Y0122305D02*
X0103618Y0122305D01*
X0103133Y0121307D02*
X0134655Y0121307D01*
X0135654Y0120308D02*
X0103133Y0120308D01*
X0103133Y0119310D02*
X0136652Y0119310D01*
X0137651Y0118311D02*
X0103133Y0118311D01*
X0102717Y0117312D02*
X0138649Y0117312D01*
X0139648Y0116314D02*
X0101718Y0116314D01*
X0100720Y0115315D02*
X0132634Y0115315D01*
X0132944Y0115625D02*
X0132241Y0114922D01*
X0132241Y0107944D01*
X0132944Y0107241D01*
X0139922Y0107241D01*
X0140625Y0107944D01*
X0140625Y0114922D01*
X0139922Y0115625D01*
X0132944Y0115625D01*
X0132241Y0114317D02*
X0099721Y0114317D01*
X0098723Y0113318D02*
X0132241Y0113318D01*
X0132241Y0112320D02*
X0097724Y0112320D01*
X0096726Y0111321D02*
X0132241Y0111321D01*
X0132241Y0110323D02*
X0095727Y0110323D01*
X0094729Y0109324D02*
X0132241Y0109324D01*
X0132241Y0108326D02*
X0118353Y0108326D01*
X0118719Y0107960D02*
X0117960Y0108719D01*
X0116969Y0109129D01*
X0115897Y0109129D01*
X0114906Y0108719D01*
X0114147Y0107960D01*
X0113737Y0106969D01*
X0113737Y0106141D01*
X0095729Y0088133D01*
X0073546Y0088133D01*
X0072960Y0088719D01*
X0071969Y0089129D01*
X0070897Y0089129D01*
X0069906Y0088719D01*
X0069147Y0087960D01*
X0068737Y0086969D01*
X0068737Y0085897D01*
X0069147Y0084906D01*
X0069906Y0084147D01*
X0070897Y0083737D01*
X0071969Y0083737D01*
X0072960Y0084147D01*
X0073546Y0084733D01*
X0097137Y0084733D01*
X0116141Y0103737D01*
X0116969Y0103737D01*
X0117960Y0104147D01*
X0118719Y0104906D01*
X0119129Y0105897D01*
X0119129Y0106969D01*
X0118719Y0107960D01*
X0118981Y0107327D02*
X0132857Y0107327D01*
X0134079Y0105275D02*
X0133507Y0104859D01*
X0133007Y0104359D01*
X0132591Y0103787D01*
X0132270Y0103157D01*
X0132052Y0102485D01*
X0131941Y0101787D01*
X0131941Y0101720D01*
X0136146Y0101720D01*
X0136146Y0101146D01*
X0136720Y0101146D01*
X0136720Y0096941D01*
X0136787Y0096941D01*
X0137485Y0097052D01*
X0138157Y0097270D01*
X0138787Y0097591D01*
X0139359Y0098007D01*
X0139859Y0098507D01*
X0140275Y0099079D01*
X0140596Y0099709D01*
X0140815Y0100381D01*
X0140925Y0101080D01*
X0140925Y0101146D01*
X0136721Y0101146D01*
X0136721Y0101720D01*
X0140925Y0101720D01*
X0140925Y0101787D01*
X0140815Y0102485D01*
X0140596Y0103157D01*
X0140275Y0103787D01*
X0139859Y0104359D01*
X0139359Y0104859D01*
X0138787Y0105275D01*
X0138157Y0105596D01*
X0137485Y0105815D01*
X0136787Y0105925D01*
X0136720Y0105925D01*
X0136720Y0101721D01*
X0136146Y0101721D01*
X0136146Y0105925D01*
X0136080Y0105925D01*
X0135381Y0105815D01*
X0134709Y0105596D01*
X0134079Y0105275D01*
X0134187Y0105330D02*
X0118895Y0105330D01*
X0119129Y0106329D02*
X0149633Y0106329D01*
X0148635Y0107327D02*
X0140009Y0107327D01*
X0140625Y0108326D02*
X0147636Y0108326D01*
X0146638Y0109324D02*
X0140625Y0109324D01*
X0140625Y0110323D02*
X0145639Y0110323D01*
X0144641Y0111321D02*
X0140625Y0111321D01*
X0140625Y0112320D02*
X0143642Y0112320D01*
X0142644Y0113318D02*
X0140625Y0113318D01*
X0140625Y0114317D02*
X0141645Y0114317D01*
X0140647Y0115315D02*
X0140232Y0115315D01*
X0148537Y0114733D02*
X0163805Y0114733D01*
X0162879Y0113808D01*
X0162241Y0112267D01*
X0162241Y0110599D01*
X0162879Y0109058D01*
X0163805Y0108133D01*
X0155137Y0108133D01*
X0148537Y0114733D01*
X0148953Y0114317D02*
X0163388Y0114317D01*
X0162677Y0113318D02*
X0149952Y0113318D01*
X0150950Y0112320D02*
X0162263Y0112320D01*
X0162241Y0111321D02*
X0151949Y0111321D01*
X0152947Y0110323D02*
X0162355Y0110323D01*
X0162769Y0109324D02*
X0153946Y0109324D01*
X0154944Y0108326D02*
X0163612Y0108326D01*
X0169254Y0108326D02*
X0172013Y0108326D01*
X0170097Y0109324D02*
X0199420Y0109324D01*
X0198422Y0108326D02*
X0175853Y0108326D01*
X0176481Y0107327D02*
X0197423Y0107327D01*
X0196425Y0106329D02*
X0176629Y0106329D01*
X0176395Y0105330D02*
X0195426Y0105330D01*
X0194428Y0104332D02*
X0175645Y0104332D01*
X0173933Y0106433D02*
X0154433Y0106433D01*
X0124933Y0135933D01*
X0116787Y0148266D02*
X0100040Y0148266D01*
X0099433Y0150933D02*
X0110933Y0150933D01*
X0118933Y0158933D01*
X0146433Y0158933D01*
X0148806Y0160248D02*
X0166560Y0160248D01*
X0166237Y0159250D02*
X0149129Y0159250D01*
X0149069Y0158251D02*
X0166297Y0158251D01*
X0166800Y0157253D02*
X0148566Y0157253D01*
X0147011Y0156254D02*
X0167492Y0156254D01*
X0166563Y0155256D02*
X0160014Y0155256D01*
X0161013Y0154257D02*
X0166237Y0154257D01*
X0166294Y0153259D02*
X0162011Y0153259D01*
X0163010Y0152260D02*
X0166793Y0152260D01*
X0167510Y0151262D02*
X0164008Y0151262D01*
X0165007Y0150263D02*
X0166566Y0150263D01*
X0166237Y0149265D02*
X0166005Y0149265D01*
X0168933Y0148933D02*
X0181433Y0161433D01*
X0183933Y0161433D01*
X0186361Y0160248D02*
X0189714Y0160248D01*
X0190712Y0159250D02*
X0185563Y0159250D01*
X0186629Y0161247D02*
X0188715Y0161247D01*
X0187716Y0162245D02*
X0186515Y0162245D01*
X0187933Y0164433D02*
X0179433Y0164433D01*
X0168933Y0153933D01*
X0171629Y0154033D02*
X0171629Y0154225D01*
X0180137Y0162733D01*
X0180329Y0162733D01*
X0179733Y0162137D01*
X0171629Y0154033D01*
X0171662Y0154257D02*
X0171853Y0154257D01*
X0172660Y0155256D02*
X0172852Y0155256D01*
X0173659Y0156254D02*
X0173850Y0156254D01*
X0174657Y0157253D02*
X0174849Y0157253D01*
X0175656Y0158251D02*
X0175847Y0158251D01*
X0176654Y0159250D02*
X0176846Y0159250D01*
X0177653Y0160248D02*
X0177844Y0160248D01*
X0178651Y0161247D02*
X0178843Y0161247D01*
X0179650Y0162245D02*
X0179841Y0162245D01*
X0181654Y0159250D02*
X0182303Y0159250D01*
X0180656Y0158251D02*
X0191711Y0158251D01*
X0192709Y0157253D02*
X0179657Y0157253D01*
X0178659Y0156254D02*
X0193708Y0156254D01*
X0194706Y0155256D02*
X0177660Y0155256D01*
X0176662Y0154257D02*
X0195705Y0154257D01*
X0196703Y0153259D02*
X0175663Y0153259D01*
X0174665Y0152260D02*
X0197702Y0152260D01*
X0198700Y0151262D02*
X0173666Y0151262D01*
X0172668Y0150263D02*
X0199699Y0150263D01*
X0200697Y0149265D02*
X0171669Y0149265D01*
X0171575Y0148266D02*
X0201696Y0148266D01*
X0202694Y0147268D02*
X0171081Y0147268D01*
X0163187Y0142275D02*
X0155495Y0142275D01*
X0154497Y0143274D02*
X0162188Y0143274D01*
X0161190Y0144272D02*
X0153498Y0144272D01*
X0152499Y0145271D02*
X0160191Y0145271D01*
X0159193Y0146269D02*
X0147838Y0146269D01*
X0145028Y0146269D02*
X0102838Y0146269D01*
X0111669Y0149265D02*
X0116292Y0149265D01*
X0116237Y0150263D02*
X0112668Y0150263D01*
X0110855Y0153259D02*
X0109072Y0153259D01*
X0109162Y0154257D02*
X0111853Y0154257D01*
X0112852Y0155256D02*
X0110160Y0155256D01*
X0111159Y0156254D02*
X0113850Y0156254D01*
X0114849Y0157253D02*
X0112157Y0157253D01*
X0113156Y0158251D02*
X0115847Y0158251D01*
X0116846Y0159250D02*
X0114154Y0159250D01*
X0115153Y0160248D02*
X0117844Y0160248D01*
X0116151Y0161247D02*
X0144974Y0161247D01*
X0147892Y0161247D02*
X0167474Y0161247D01*
X0169841Y0162245D02*
X0117150Y0162245D01*
X0118148Y0163244D02*
X0170840Y0163244D01*
X0171838Y0164243D02*
X0119147Y0164243D01*
X0120145Y0165241D02*
X0172837Y0165241D01*
X0173835Y0166240D02*
X0121144Y0166240D01*
X0120933Y0168433D02*
X0199433Y0168433D01*
X0206433Y0161433D01*
X0206533Y0158737D02*
X0215256Y0150015D01*
X0215647Y0150960D01*
X0216406Y0151719D01*
X0217352Y0152110D01*
X0208964Y0160498D01*
X0208719Y0159906D01*
X0207960Y0159147D01*
X0206969Y0158737D01*
X0206533Y0158737D01*
X0207019Y0158251D02*
X0211211Y0158251D01*
X0212209Y0157253D02*
X0208017Y0157253D01*
X0209016Y0156254D02*
X0213208Y0156254D01*
X0214206Y0155256D02*
X0210014Y0155256D01*
X0211013Y0154257D02*
X0215205Y0154257D01*
X0216203Y0153259D02*
X0212011Y0153259D01*
X0213010Y0152260D02*
X0217202Y0152260D01*
X0215949Y0151262D02*
X0214008Y0151262D01*
X0215007Y0150263D02*
X0215359Y0150263D01*
X0217933Y0149433D02*
X0226933Y0149433D01*
X0229368Y0148266D02*
X0275362Y0148266D01*
X0274364Y0147268D02*
X0228581Y0147268D01*
X0229629Y0149265D02*
X0259788Y0149265D01*
X0258999Y0150263D02*
X0229507Y0150263D01*
X0225285Y0147268D02*
X0219581Y0147268D01*
X0219001Y0146269D02*
X0273365Y0146269D01*
X0272367Y0145271D02*
X0271334Y0145271D01*
X0269933Y0142933D02*
X0219933Y0142933D01*
X0196433Y0166433D01*
X0176433Y0166433D01*
X0168933Y0158933D01*
X0171629Y0159033D02*
X0171629Y0159225D01*
X0177137Y0164733D01*
X0177329Y0164733D01*
X0171629Y0159033D01*
X0171654Y0159250D02*
X0171846Y0159250D01*
X0172653Y0160248D02*
X0172844Y0160248D01*
X0173651Y0161247D02*
X0173843Y0161247D01*
X0174650Y0162245D02*
X0174841Y0162245D01*
X0175648Y0163244D02*
X0175840Y0163244D01*
X0176647Y0164243D02*
X0176838Y0164243D01*
X0187933Y0164433D02*
X0216933Y0135433D01*
X0222933Y0135433D01*
X0224433Y0133933D01*
X0224129Y0131237D02*
X0224969Y0131237D01*
X0225960Y0131647D01*
X0226719Y0132406D01*
X0227110Y0133352D01*
X0230852Y0129610D01*
X0229906Y0129219D01*
X0229320Y0128633D01*
X0218813Y0128633D01*
X0219129Y0129397D01*
X0219129Y0129950D01*
X0219147Y0129906D01*
X0219906Y0129147D01*
X0220897Y0128737D01*
X0221969Y0128737D01*
X0222960Y0129147D01*
X0223719Y0129906D01*
X0224129Y0130897D01*
X0224129Y0131237D01*
X0225101Y0131292D02*
X0229170Y0131292D01*
X0228172Y0132290D02*
X0226603Y0132290D01*
X0227084Y0133289D02*
X0227173Y0133289D01*
X0227988Y0137283D02*
X0272786Y0137283D01*
X0271272Y0138281D02*
X0226989Y0138281D01*
X0225433Y0137433D02*
X0220433Y0137433D01*
X0206433Y0151433D01*
X0206333Y0154129D02*
X0205897Y0154129D01*
X0204906Y0153719D01*
X0204147Y0152960D01*
X0203737Y0151969D01*
X0203737Y0151033D01*
X0190037Y0164733D01*
X0195729Y0164733D01*
X0206333Y0154129D01*
X0206205Y0154257D02*
X0200513Y0154257D01*
X0201511Y0153259D02*
X0204446Y0153259D01*
X0203858Y0152260D02*
X0202510Y0152260D01*
X0203508Y0151262D02*
X0203737Y0151262D01*
X0206033Y0148737D02*
X0206725Y0148737D01*
X0218329Y0137133D01*
X0217637Y0137133D01*
X0206033Y0148737D01*
X0206504Y0148266D02*
X0207196Y0148266D01*
X0207502Y0147268D02*
X0208194Y0147268D01*
X0208501Y0146269D02*
X0209193Y0146269D01*
X0209499Y0145271D02*
X0210191Y0145271D01*
X0210498Y0144272D02*
X0211190Y0144272D01*
X0211496Y0143274D02*
X0212188Y0143274D01*
X0212495Y0142275D02*
X0213187Y0142275D01*
X0213494Y0141277D02*
X0214185Y0141277D01*
X0214492Y0140278D02*
X0215184Y0140278D01*
X0215491Y0139280D02*
X0216182Y0139280D01*
X0216489Y0138281D02*
X0217181Y0138281D01*
X0217488Y0137283D02*
X0218179Y0137283D01*
X0220991Y0139280D02*
X0270785Y0139280D01*
X0270737Y0140278D02*
X0270569Y0140278D01*
X0269297Y0140278D02*
X0219992Y0140278D01*
X0219185Y0141277D02*
X0218994Y0141277D01*
X0218187Y0142275D02*
X0217995Y0142275D01*
X0217188Y0143274D02*
X0216997Y0143274D01*
X0216190Y0144272D02*
X0215998Y0144272D01*
X0215191Y0145271D02*
X0214999Y0145271D01*
X0214193Y0146269D02*
X0214001Y0146269D01*
X0213194Y0147268D02*
X0213002Y0147268D01*
X0212196Y0148266D02*
X0212004Y0148266D01*
X0211197Y0149265D02*
X0211005Y0149265D01*
X0210199Y0150263D02*
X0210007Y0150263D01*
X0209200Y0151262D02*
X0209129Y0151262D01*
X0205206Y0155256D02*
X0199514Y0155256D01*
X0198516Y0156254D02*
X0204208Y0156254D01*
X0203209Y0157253D02*
X0197517Y0157253D01*
X0196519Y0158251D02*
X0202211Y0158251D01*
X0201212Y0159250D02*
X0195520Y0159250D01*
X0194522Y0160248D02*
X0200213Y0160248D01*
X0199215Y0161247D02*
X0193523Y0161247D01*
X0192525Y0162245D02*
X0198216Y0162245D01*
X0197218Y0163244D02*
X0191526Y0163244D01*
X0190528Y0164243D02*
X0196219Y0164243D01*
X0198537Y0166733D02*
X0203737Y0161533D01*
X0203737Y0161725D01*
X0198729Y0166733D01*
X0198537Y0166733D01*
X0199031Y0166240D02*
X0199222Y0166240D01*
X0200029Y0165241D02*
X0200221Y0165241D01*
X0201028Y0164243D02*
X0201219Y0164243D01*
X0202026Y0163244D02*
X0202218Y0163244D01*
X0203025Y0162245D02*
X0203216Y0162245D01*
X0208063Y0159250D02*
X0210212Y0159250D01*
X0209214Y0160248D02*
X0208861Y0160248D01*
X0212528Y0164243D02*
X0222008Y0164243D01*
X0221737Y0165241D02*
X0211529Y0165241D01*
X0210531Y0166240D02*
X0221222Y0166240D01*
X0220224Y0167238D02*
X0209532Y0167238D01*
X0208534Y0168237D02*
X0219225Y0168237D01*
X0218227Y0169235D02*
X0207535Y0169235D01*
X0206537Y0170234D02*
X0217228Y0170234D01*
X0216230Y0171232D02*
X0205538Y0171232D01*
X0204540Y0172231D02*
X0215231Y0172231D01*
X0214233Y0173229D02*
X0203541Y0173229D01*
X0201433Y0170433D02*
X0219433Y0152433D01*
X0260433Y0152433D01*
X0261433Y0151433D01*
X0263867Y0150263D02*
X0263999Y0150263D01*
X0264788Y0149265D02*
X0263078Y0149265D01*
X0268078Y0149265D02*
X0276361Y0149265D01*
X0277359Y0150263D02*
X0268867Y0150263D01*
X0269129Y0151262D02*
X0278358Y0151262D01*
X0280433Y0148433D02*
X0276433Y0144433D01*
X0276433Y0114433D01*
X0251933Y0089933D01*
X0248433Y0089933D01*
X0248433Y0085433D01*
X0249933Y0083933D01*
X0253433Y0083933D01*
X0256433Y0086933D01*
X0257633Y0089354D02*
X0347265Y0089354D01*
X0346267Y0088356D02*
X0313323Y0088356D01*
X0313969Y0087357D02*
X0345268Y0087357D01*
X0344270Y0086359D02*
X0314129Y0086359D01*
X0313907Y0085360D02*
X0343271Y0085360D01*
X0342273Y0084362D02*
X0313174Y0084362D01*
X0312934Y0095345D02*
X0428734Y0095345D01*
X0428734Y0094347D02*
X0267234Y0094347D01*
X0265632Y0094347D02*
X0261251Y0094347D01*
X0262249Y0095345D02*
X0264208Y0095345D01*
X0263759Y0096344D02*
X0263248Y0096344D01*
X0260252Y0093348D02*
X0428734Y0093348D01*
X0428734Y0092350D02*
X0380144Y0092350D01*
X0381264Y0091351D02*
X0428734Y0091351D01*
X0428734Y0090353D02*
X0381629Y0090353D01*
X0381611Y0089354D02*
X0428734Y0089354D01*
X0428734Y0088356D02*
X0381168Y0088356D01*
X0379759Y0087357D02*
X0428734Y0087357D01*
X0428734Y0086359D02*
X0350448Y0086359D01*
X0351446Y0087357D02*
X0378107Y0087357D01*
X0377722Y0092350D02*
X0259254Y0092350D01*
X0258255Y0091351D02*
X0349262Y0091351D01*
X0348264Y0090353D02*
X0257257Y0090353D01*
X0258762Y0088356D02*
X0261267Y0088356D01*
X0260268Y0087357D02*
X0259129Y0087357D01*
X0259113Y0086359D02*
X0259270Y0086359D01*
X0257274Y0084363D02*
X0253028Y0080117D01*
X0252436Y0080117D01*
X0252436Y0081546D01*
X0251749Y0082233D01*
X0254137Y0082233D01*
X0256141Y0084237D01*
X0256969Y0084237D01*
X0257274Y0084363D01*
X0257273Y0084362D02*
X0257270Y0084362D01*
X0256274Y0083363D02*
X0255267Y0083363D01*
X0255276Y0082365D02*
X0254269Y0082365D01*
X0254277Y0081366D02*
X0252436Y0081366D01*
X0252436Y0080368D02*
X0253279Y0080368D01*
X0248971Y0082491D02*
X0245076Y0082491D01*
X0244131Y0081546D01*
X0244131Y0063617D01*
X0242436Y0063617D01*
X0242436Y0081546D01*
X0241491Y0082491D01*
X0240468Y0082491D01*
X0240468Y0083379D01*
X0240826Y0083737D01*
X0240969Y0083737D01*
X0241960Y0084147D01*
X0242719Y0084906D01*
X0243129Y0085897D01*
X0243129Y0086969D01*
X0242806Y0087749D01*
X0246733Y0087749D01*
X0246733Y0084729D01*
X0248233Y0083229D01*
X0248971Y0082491D01*
X0248099Y0083363D02*
X0240468Y0083363D01*
X0241618Y0082365D02*
X0244949Y0082365D01*
X0244131Y0081366D02*
X0242436Y0081366D01*
X0242436Y0080368D02*
X0244131Y0080368D01*
X0244131Y0079369D02*
X0242436Y0079369D01*
X0242436Y0078371D02*
X0244131Y0078371D01*
X0244131Y0077372D02*
X0242436Y0077372D01*
X0242436Y0076374D02*
X0244131Y0076374D01*
X0244131Y0075375D02*
X0242436Y0075375D01*
X0242436Y0074377D02*
X0244131Y0074377D01*
X0244131Y0073378D02*
X0242436Y0073378D01*
X0242436Y0072379D02*
X0244131Y0072379D01*
X0244131Y0071381D02*
X0242436Y0071381D01*
X0242436Y0070382D02*
X0244131Y0070382D01*
X0244131Y0069384D02*
X0242436Y0069384D01*
X0242436Y0068385D02*
X0244131Y0068385D01*
X0244131Y0067387D02*
X0242436Y0067387D01*
X0242436Y0066388D02*
X0244131Y0066388D01*
X0244131Y0065390D02*
X0242436Y0065390D01*
X0242436Y0064391D02*
X0244131Y0064391D01*
X0234131Y0064391D02*
X0232436Y0064391D01*
X0232436Y0063617D02*
X0232436Y0081546D01*
X0231491Y0082491D01*
X0230468Y0082491D01*
X0230468Y0083379D01*
X0234838Y0087749D01*
X0238060Y0087749D01*
X0237737Y0086969D01*
X0237737Y0086826D01*
X0236099Y0085188D01*
X0236099Y0082491D01*
X0235076Y0082491D01*
X0234131Y0081546D01*
X0234131Y0063617D01*
X0232436Y0063617D01*
X0232436Y0065390D02*
X0234131Y0065390D01*
X0234131Y0066388D02*
X0232436Y0066388D01*
X0232436Y0067387D02*
X0234131Y0067387D01*
X0234131Y0068385D02*
X0232436Y0068385D01*
X0232436Y0069384D02*
X0234131Y0069384D01*
X0234131Y0070382D02*
X0232436Y0070382D01*
X0232436Y0071381D02*
X0234131Y0071381D01*
X0234131Y0072379D02*
X0232436Y0072379D01*
X0232436Y0073378D02*
X0234131Y0073378D01*
X0234131Y0074377D02*
X0232436Y0074377D01*
X0232436Y0075375D02*
X0234131Y0075375D01*
X0234131Y0076374D02*
X0232436Y0076374D01*
X0232436Y0077372D02*
X0234131Y0077372D01*
X0234131Y0078371D02*
X0232436Y0078371D01*
X0232436Y0079369D02*
X0234131Y0079369D01*
X0234131Y0080368D02*
X0232436Y0080368D01*
X0232436Y0081366D02*
X0234131Y0081366D01*
X0234949Y0082365D02*
X0231618Y0082365D01*
X0230468Y0083363D02*
X0236099Y0083363D01*
X0236099Y0084362D02*
X0231451Y0084362D01*
X0232449Y0085360D02*
X0236271Y0085360D01*
X0237270Y0086359D02*
X0233448Y0086359D01*
X0234446Y0087357D02*
X0237898Y0087357D01*
X0242174Y0084362D02*
X0247100Y0084362D01*
X0246733Y0085360D02*
X0242907Y0085360D01*
X0243129Y0086359D02*
X0246733Y0086359D01*
X0246733Y0087357D02*
X0242968Y0087357D01*
X0251433Y0086933D02*
X0278433Y0113933D01*
X0278433Y0143933D01*
X0280933Y0146433D01*
X0296933Y0146433D01*
X0306933Y0136433D01*
X0308233Y0136433D01*
X0304474Y0136488D02*
X0304474Y0134792D01*
X0305333Y0133933D01*
X0304533Y0133133D01*
X0301133Y0133133D01*
X0301133Y0136820D01*
X0301719Y0137406D01*
X0302129Y0138397D01*
X0302129Y0138833D01*
X0304474Y0136488D01*
X0304474Y0136284D02*
X0301133Y0136284D01*
X0301133Y0135286D02*
X0304474Y0135286D01*
X0304979Y0134287D02*
X0301133Y0134287D01*
X0301133Y0133289D02*
X0304689Y0133289D01*
X0304533Y0129733D02*
X0300137Y0129733D01*
X0298133Y0127729D01*
X0298133Y0113229D01*
X0297137Y0112233D01*
X0293737Y0108833D01*
X0293737Y0102241D01*
X0292792Y0101296D01*
X0286377Y0101296D01*
X0285432Y0102241D01*
X0285432Y0110625D01*
X0286070Y0111263D01*
X0285870Y0111378D01*
X0285514Y0111735D01*
X0285262Y0112171D01*
X0285132Y0112658D01*
X0285132Y0115933D01*
X0289085Y0115933D01*
X0289085Y0116933D01*
X0289085Y0121870D01*
X0286793Y0121870D01*
X0286307Y0121740D01*
X0285870Y0121488D01*
X0285514Y0121132D01*
X0285262Y0120695D01*
X0285132Y0120209D01*
X0285132Y0116933D01*
X0289085Y0116933D01*
X0290085Y0116933D01*
X0294037Y0116933D01*
X0294037Y0120209D01*
X0293907Y0120695D01*
X0293655Y0121132D01*
X0293299Y0121488D01*
X0292863Y0121740D01*
X0292376Y0121870D01*
X0290085Y0121870D01*
X0290085Y0116933D01*
X0290085Y0115933D01*
X0294037Y0115933D01*
X0294037Y0113942D01*
X0294733Y0114637D01*
X0294733Y0129137D01*
X0295729Y0130133D01*
X0295729Y0130133D01*
X0297733Y0132137D01*
X0297733Y0136820D01*
X0297147Y0137406D01*
X0296737Y0138397D01*
X0296737Y0139469D01*
X0297147Y0140460D01*
X0297906Y0141219D01*
X0298897Y0141629D01*
X0299333Y0141629D01*
X0296229Y0144733D01*
X0281637Y0144733D01*
X0280133Y0143229D01*
X0280133Y0113229D01*
X0266533Y0099629D01*
X0266969Y0099629D01*
X0267960Y0099219D01*
X0268062Y0099117D01*
X0310528Y0099117D01*
X0334343Y0122932D01*
X0327741Y0122932D01*
X0326933Y0123740D01*
X0326125Y0122932D01*
X0317741Y0122932D01*
X0316796Y0123877D01*
X0316796Y0124249D01*
X0316617Y0124249D01*
X0316617Y0123062D01*
X0316719Y0122960D01*
X0317129Y0121969D01*
X0317129Y0120897D01*
X0316719Y0119906D01*
X0315960Y0119147D01*
X0314969Y0118737D01*
X0313897Y0118737D01*
X0312906Y0119147D01*
X0312147Y0119906D01*
X0311737Y0120897D01*
X0311737Y0121969D01*
X0312147Y0122960D01*
X0312249Y0123062D01*
X0312249Y0124249D01*
X0311449Y0124249D01*
X0311055Y0123855D01*
X0307444Y0123855D01*
X0305466Y0121877D01*
X0305466Y0121570D01*
X0306489Y0121570D01*
X0307434Y0120625D01*
X0307434Y0112241D01*
X0306626Y0111433D01*
X0307434Y0110625D01*
X0307434Y0102241D01*
X0306489Y0101296D01*
X0300074Y0101296D01*
X0299129Y0102241D01*
X0299129Y0110625D01*
X0299937Y0111433D01*
X0299129Y0112241D01*
X0299129Y0120625D01*
X0300074Y0121570D01*
X0301097Y0121570D01*
X0301097Y0123686D01*
X0302377Y0124966D01*
X0302377Y0124966D01*
X0304474Y0127063D01*
X0304474Y0128074D01*
X0305333Y0128933D01*
X0304533Y0129733D01*
X0304972Y0129295D02*
X0299699Y0129295D01*
X0298700Y0128296D02*
X0304696Y0128296D01*
X0304474Y0127298D02*
X0298133Y0127298D01*
X0298133Y0126299D02*
X0303710Y0126299D01*
X0302712Y0125301D02*
X0298133Y0125301D01*
X0298133Y0124302D02*
X0301713Y0124302D01*
X0301097Y0123304D02*
X0298133Y0123304D01*
X0298133Y0122305D02*
X0301097Y0122305D01*
X0299810Y0121307D02*
X0298133Y0121307D01*
X0298133Y0120308D02*
X0299129Y0120308D01*
X0299129Y0119310D02*
X0298133Y0119310D01*
X0298133Y0118311D02*
X0299129Y0118311D01*
X0299129Y0117312D02*
X0298133Y0117312D01*
X0298133Y0116314D02*
X0299129Y0116314D01*
X0299129Y0115315D02*
X0298133Y0115315D01*
X0298133Y0114317D02*
X0299129Y0114317D01*
X0299129Y0113318D02*
X0298133Y0113318D01*
X0297224Y0112320D02*
X0299129Y0112320D01*
X0299825Y0111321D02*
X0296226Y0111321D01*
X0295227Y0110323D02*
X0299129Y0110323D01*
X0299129Y0109324D02*
X0294229Y0109324D01*
X0293737Y0108326D02*
X0299129Y0108326D01*
X0299129Y0107327D02*
X0293737Y0107327D01*
X0293737Y0106329D02*
X0299129Y0106329D01*
X0299129Y0105330D02*
X0293737Y0105330D01*
X0293737Y0104332D02*
X0299129Y0104332D01*
X0299129Y0103333D02*
X0293737Y0103333D01*
X0293737Y0102335D02*
X0299129Y0102335D01*
X0300034Y0101336D02*
X0292833Y0101336D01*
X0286337Y0101336D02*
X0268240Y0101336D01*
X0267242Y0100338D02*
X0311749Y0100338D01*
X0312747Y0101336D02*
X0306529Y0101336D01*
X0307434Y0102335D02*
X0313746Y0102335D01*
X0314744Y0103333D02*
X0307434Y0103333D01*
X0307434Y0104332D02*
X0315743Y0104332D01*
X0316741Y0105330D02*
X0307434Y0105330D01*
X0307434Y0106329D02*
X0317740Y0106329D01*
X0318738Y0107327D02*
X0307434Y0107327D01*
X0307434Y0108326D02*
X0319737Y0108326D01*
X0320735Y0109324D02*
X0307434Y0109324D01*
X0307434Y0110323D02*
X0321734Y0110323D01*
X0322732Y0111321D02*
X0306738Y0111321D01*
X0307434Y0112320D02*
X0323731Y0112320D01*
X0324729Y0113318D02*
X0307434Y0113318D01*
X0307434Y0114317D02*
X0325728Y0114317D01*
X0326726Y0115315D02*
X0307434Y0115315D01*
X0307434Y0116314D02*
X0327725Y0116314D01*
X0328724Y0117312D02*
X0307434Y0117312D01*
X0307434Y0118311D02*
X0329722Y0118311D01*
X0330721Y0119310D02*
X0316122Y0119310D01*
X0316885Y0120308D02*
X0331719Y0120308D01*
X0332718Y0121307D02*
X0317129Y0121307D01*
X0316990Y0122305D02*
X0333716Y0122305D01*
X0336898Y0119310D02*
X0393812Y0119310D01*
X0393812Y0120308D02*
X0337897Y0120308D01*
X0338896Y0121307D02*
X0393812Y0121307D01*
X0393812Y0122305D02*
X0339894Y0122305D01*
X0340893Y0123304D02*
X0393812Y0123304D01*
X0393812Y0124302D02*
X0341891Y0124302D01*
X0342890Y0125301D02*
X0393812Y0125301D01*
X0393812Y0126299D02*
X0343888Y0126299D01*
X0344887Y0127298D02*
X0378250Y0127298D01*
X0379616Y0127298D02*
X0393812Y0127298D01*
X0393812Y0128296D02*
X0387385Y0128296D01*
X0388384Y0129295D02*
X0393812Y0129295D01*
X0393812Y0130293D02*
X0389382Y0130293D01*
X0390381Y0131292D02*
X0394309Y0131292D01*
X0392378Y0133289D02*
X0397749Y0133289D01*
X0397749Y0132290D02*
X0391379Y0132290D01*
X0393376Y0134287D02*
X0397614Y0134287D01*
X0397237Y0135286D02*
X0394375Y0135286D01*
X0395373Y0136284D02*
X0397243Y0136284D01*
X0397670Y0137283D02*
X0396372Y0137283D01*
X0392191Y0139280D02*
X0356869Y0139280D01*
X0357867Y0140278D02*
X0393189Y0140278D01*
X0393812Y0141277D02*
X0358866Y0141277D01*
X0359864Y0142275D02*
X0393812Y0142275D01*
X0393812Y0143274D02*
X0360863Y0143274D01*
X0361861Y0144272D02*
X0393812Y0144272D01*
X0393812Y0145271D02*
X0362860Y0145271D01*
X0363858Y0146269D02*
X0393812Y0146269D01*
X0393812Y0147268D02*
X0364857Y0147268D01*
X0365855Y0148266D02*
X0393812Y0148266D01*
X0393812Y0149265D02*
X0372078Y0149265D01*
X0372867Y0150263D02*
X0393812Y0150263D01*
X0393812Y0151262D02*
X0373129Y0151262D01*
X0372933Y0153933D02*
X0370433Y0151433D01*
X0367999Y0150263D02*
X0367852Y0150263D01*
X0368788Y0149265D02*
X0366854Y0149265D01*
X0372933Y0153933D02*
X0413019Y0153933D01*
X0413726Y0154226D02*
X0414933Y0155433D01*
X0414933Y0164433D01*
X0421933Y0171433D01*
X0419916Y0173229D02*
X0390818Y0173229D01*
X0389820Y0172231D02*
X0419345Y0172231D01*
X0419237Y0171232D02*
X0388821Y0171232D01*
X0387823Y0170234D02*
X0418329Y0170234D01*
X0417331Y0169235D02*
X0410067Y0169235D01*
X0411080Y0168237D02*
X0416332Y0168237D01*
X0415334Y0167238D02*
X0411234Y0167238D01*
X0411234Y0166240D02*
X0414335Y0166240D01*
X0413337Y0165241D02*
X0411234Y0165241D01*
X0411234Y0163244D02*
X0413233Y0163244D01*
X0413233Y0162245D02*
X0411234Y0162245D01*
X0411234Y0161247D02*
X0413233Y0161247D01*
X0413233Y0160248D02*
X0411234Y0160248D01*
X0413233Y0164243D02*
X0407282Y0164243D01*
X0407281Y0165241D02*
X0406282Y0165241D01*
X0406281Y0164243D02*
X0397237Y0164243D01*
X0397237Y0165241D02*
X0402329Y0165241D01*
X0402329Y0166240D02*
X0397237Y0166240D01*
X0397237Y0167238D02*
X0402329Y0167238D01*
X0402483Y0168237D02*
X0397126Y0168237D01*
X0403496Y0169235D02*
X0386824Y0169235D01*
X0385826Y0168237D02*
X0389043Y0168237D01*
X0388932Y0167238D02*
X0384827Y0167238D01*
X0383829Y0166240D02*
X0388932Y0166240D01*
X0388932Y0165241D02*
X0382830Y0165241D01*
X0381831Y0164243D02*
X0388932Y0164243D01*
X0388932Y0163244D02*
X0380833Y0163244D01*
X0379834Y0162245D02*
X0388932Y0162245D01*
X0388932Y0161247D02*
X0378836Y0161247D01*
X0377837Y0160248D02*
X0388932Y0160248D01*
X0389423Y0159250D02*
X0376839Y0159250D01*
X0375840Y0158251D02*
X0394526Y0158251D01*
X0395524Y0157253D02*
X0374842Y0157253D01*
X0373843Y0156254D02*
X0396523Y0156254D01*
X0399705Y0159250D02*
X0402702Y0159250D01*
X0402329Y0160248D02*
X0398707Y0160248D01*
X0397708Y0161247D02*
X0402329Y0161247D01*
X0402329Y0162245D02*
X0397237Y0162245D01*
X0397237Y0163244D02*
X0402329Y0163244D01*
X0406282Y0166240D02*
X0407281Y0166240D01*
X0407281Y0167238D02*
X0406282Y0167238D01*
X0406282Y0168237D02*
X0407281Y0168237D01*
X0407281Y0169235D02*
X0406282Y0169235D01*
X0417147Y0164243D02*
X0420338Y0164243D01*
X0421337Y0165241D02*
X0418145Y0165241D01*
X0419144Y0166240D02*
X0422237Y0166240D01*
X0422348Y0167238D02*
X0420142Y0167238D01*
X0421141Y0168237D02*
X0422924Y0168237D01*
X0423548Y0169235D02*
X0428734Y0169235D01*
X0428734Y0168237D02*
X0426942Y0168237D01*
X0427518Y0167238D02*
X0428734Y0167238D01*
X0428734Y0166240D02*
X0427629Y0166240D01*
X0427357Y0165241D02*
X0428734Y0165241D01*
X0428734Y0164243D02*
X0426555Y0164243D01*
X0428734Y0163244D02*
X0424148Y0163244D01*
X0423150Y0162245D02*
X0428734Y0162245D01*
X0428734Y0161247D02*
X0422151Y0161247D01*
X0421153Y0160248D02*
X0428734Y0160248D01*
X0428734Y0159250D02*
X0420154Y0159250D01*
X0419156Y0158251D02*
X0428734Y0158251D01*
X0428731Y0157253D02*
X0428734Y0157253D01*
X0424433Y0157253D02*
X0423433Y0157253D01*
X0423433Y0156254D02*
X0424433Y0156254D01*
X0424433Y0155256D02*
X0423433Y0155256D01*
X0423433Y0154257D02*
X0424433Y0154257D01*
X0424433Y0152781D02*
X0424433Y0148829D01*
X0427709Y0148829D01*
X0428195Y0148959D01*
X0428632Y0149211D01*
X0428734Y0149313D01*
X0428734Y0143128D01*
X0428125Y0143737D01*
X0421533Y0143737D01*
X0418633Y0146637D01*
X0418633Y0149992D01*
X0418878Y0149567D01*
X0419235Y0149211D01*
X0419671Y0148959D01*
X0420158Y0148829D01*
X0423433Y0148829D01*
X0423433Y0152781D01*
X0424433Y0152781D01*
X0424433Y0152260D02*
X0423433Y0152260D01*
X0423433Y0151262D02*
X0424433Y0151262D01*
X0424433Y0150263D02*
X0423433Y0150263D01*
X0423433Y0149265D02*
X0424433Y0149265D01*
X0428685Y0149265D02*
X0428734Y0149265D01*
X0428734Y0148266D02*
X0418633Y0148266D01*
X0418633Y0147268D02*
X0428734Y0147268D01*
X0428734Y0146269D02*
X0419001Y0146269D01*
X0419999Y0145271D02*
X0428734Y0145271D01*
X0428734Y0144272D02*
X0420998Y0144272D01*
X0421933Y0140933D02*
X0416933Y0145933D01*
X0416933Y0158433D01*
X0424933Y0166433D01*
X0424354Y0170234D02*
X0428734Y0170234D01*
X0428734Y0171232D02*
X0424629Y0171232D01*
X0424521Y0172231D02*
X0428734Y0172231D01*
X0428734Y0173229D02*
X0423950Y0173229D01*
X0424037Y0176225D02*
X0428734Y0176225D01*
X0428734Y0177223D02*
X0424557Y0177223D01*
X0424629Y0178222D02*
X0428734Y0178222D01*
X0428734Y0179220D02*
X0424318Y0179220D01*
X0428734Y0182216D02*
X0413739Y0182216D01*
X0412741Y0183214D02*
X0428734Y0183214D01*
X0428734Y0184213D02*
X0416906Y0184213D01*
X0417434Y0185211D02*
X0428734Y0185211D01*
X0428734Y0186210D02*
X0417434Y0186210D01*
X0421021Y0187208D02*
X0428734Y0187208D01*
X0428734Y0188207D02*
X0421550Y0188207D01*
X0421629Y0189205D02*
X0428734Y0189205D01*
X0428734Y0190204D02*
X0421325Y0190204D01*
X0420477Y0191202D02*
X0428734Y0191202D01*
X0428734Y0192201D02*
X0417434Y0192201D01*
X0417360Y0193199D02*
X0428734Y0193199D01*
X0428734Y0194198D02*
X0230133Y0194198D01*
X0230133Y0195196D02*
X0428734Y0195196D01*
X0428734Y0196195D02*
X0230133Y0196195D01*
X0230133Y0197193D02*
X0428734Y0197193D01*
X0409203Y0193199D02*
X0403663Y0193199D01*
X0403737Y0192201D02*
X0409129Y0192201D01*
X0409129Y0191202D02*
X0403737Y0191202D01*
X0403737Y0190204D02*
X0409129Y0190204D01*
X0409129Y0189205D02*
X0403737Y0189205D01*
X0403737Y0188207D02*
X0409129Y0188207D01*
X0409129Y0187208D02*
X0403737Y0187208D01*
X0407561Y0182216D02*
X0399805Y0182216D01*
X0398806Y0181217D02*
X0408560Y0181217D01*
X0409558Y0180219D02*
X0397808Y0180219D01*
X0396809Y0179220D02*
X0410557Y0179220D01*
X0411555Y0178222D02*
X0395811Y0178222D01*
X0394812Y0177223D02*
X0412554Y0177223D01*
X0413552Y0176225D02*
X0393814Y0176225D01*
X0392815Y0175226D02*
X0428734Y0175226D01*
X0428734Y0174228D02*
X0391817Y0174228D01*
X0388634Y0177223D02*
X0320743Y0177223D01*
X0320823Y0177362D02*
X0320925Y0177743D01*
X0320925Y0180646D01*
X0316721Y0180646D01*
X0316721Y0181220D01*
X0320925Y0181220D01*
X0320925Y0184123D01*
X0320823Y0184504D01*
X0320625Y0184846D01*
X0320346Y0185125D01*
X0320004Y0185323D01*
X0319623Y0185425D01*
X0316720Y0185425D01*
X0316720Y0181221D01*
X0316146Y0181221D01*
X0316146Y0185425D01*
X0313243Y0185425D01*
X0312862Y0185323D01*
X0312520Y0185125D01*
X0312241Y0184846D01*
X0312043Y0184504D01*
X0311941Y0184123D01*
X0311941Y0181220D01*
X0316146Y0181220D01*
X0316146Y0180646D01*
X0316720Y0180646D01*
X0316720Y0176441D01*
X0319623Y0176441D01*
X0320004Y0176543D01*
X0320346Y0176741D01*
X0320625Y0177020D01*
X0320823Y0177362D01*
X0320925Y0178222D02*
X0389633Y0178222D01*
X0390631Y0179220D02*
X0320925Y0179220D01*
X0320925Y0180219D02*
X0391630Y0180219D01*
X0392628Y0181217D02*
X0316721Y0181217D01*
X0316146Y0181217D02*
X0230133Y0181217D01*
X0230133Y0180219D02*
X0311941Y0180219D01*
X0311941Y0180646D02*
X0311941Y0177743D01*
X0312043Y0177362D01*
X0312241Y0177020D01*
X0312520Y0176741D01*
X0312862Y0176543D01*
X0313243Y0176441D01*
X0316146Y0176441D01*
X0316146Y0180646D01*
X0311941Y0180646D01*
X0311941Y0179220D02*
X0230133Y0179220D01*
X0230133Y0178222D02*
X0311941Y0178222D01*
X0312123Y0177223D02*
X0230133Y0177223D01*
X0230133Y0176225D02*
X0387636Y0176225D01*
X0386637Y0175226D02*
X0230133Y0175226D01*
X0230133Y0174228D02*
X0385639Y0174228D01*
X0384640Y0173229D02*
X0230133Y0173229D01*
X0230133Y0172231D02*
X0383642Y0172231D01*
X0382643Y0171232D02*
X0230133Y0171232D01*
X0230133Y0170234D02*
X0313805Y0170234D01*
X0314058Y0170487D02*
X0312879Y0169308D01*
X0312241Y0167767D01*
X0312241Y0166099D01*
X0312879Y0164558D01*
X0314058Y0163379D01*
X0315599Y0162741D01*
X0317267Y0162741D01*
X0318808Y0163379D01*
X0319987Y0164558D01*
X0320625Y0166099D01*
X0320625Y0167767D01*
X0319987Y0169308D01*
X0318808Y0170487D01*
X0317267Y0171125D01*
X0315599Y0171125D01*
X0314058Y0170487D01*
X0312849Y0169235D02*
X0230133Y0169235D01*
X0230133Y0168237D02*
X0312435Y0168237D01*
X0312241Y0167238D02*
X0230133Y0167238D01*
X0230133Y0166240D02*
X0312241Y0166240D01*
X0312596Y0165241D02*
X0230133Y0165241D01*
X0230133Y0164243D02*
X0313195Y0164243D01*
X0314385Y0163244D02*
X0230133Y0163244D01*
X0228433Y0162933D02*
X0227433Y0161933D01*
X0228433Y0162933D02*
X0228433Y0205933D01*
X0224085Y0210281D01*
X0218933Y0210281D01*
X0214741Y0206129D02*
X0213933Y0206937D01*
X0213125Y0206129D01*
X0204741Y0206129D01*
X0204103Y0206767D01*
X0203988Y0206567D01*
X0203632Y0206211D01*
X0203195Y0205959D01*
X0202709Y0205829D01*
X0199433Y0205829D01*
X0199433Y0209781D01*
X0198433Y0209781D01*
X0198433Y0205829D01*
X0195158Y0205829D01*
X0194671Y0205959D01*
X0194235Y0206211D01*
X0193878Y0206567D01*
X0193763Y0206767D01*
X0193125Y0206129D01*
X0191117Y0206129D01*
X0191117Y0205062D01*
X0191219Y0204960D01*
X0191629Y0203969D01*
X0191629Y0202897D01*
X0191219Y0201906D01*
X0190460Y0201147D01*
X0189470Y0200737D01*
X0193125Y0200737D01*
X0193933Y0199929D01*
X0194741Y0200737D01*
X0203125Y0200737D01*
X0203933Y0199929D01*
X0204741Y0200737D01*
X0210148Y0200737D01*
X0213749Y0204338D01*
X0215028Y0205617D01*
X0223305Y0205617D01*
X0223406Y0205719D01*
X0224397Y0206129D01*
X0225469Y0206129D01*
X0226090Y0205872D01*
X0224070Y0207892D01*
X0224070Y0207074D01*
X0223125Y0206129D01*
X0214741Y0206129D01*
X0214690Y0206180D02*
X0213176Y0206180D01*
X0214592Y0205181D02*
X0191117Y0205181D01*
X0191541Y0204183D02*
X0213594Y0204183D01*
X0212595Y0203184D02*
X0191629Y0203184D01*
X0191335Y0202186D02*
X0211597Y0202186D01*
X0210598Y0201187D02*
X0190500Y0201187D01*
X0187366Y0201187D02*
X0066685Y0201187D01*
X0067684Y0202186D02*
X0186531Y0202186D01*
X0186237Y0203184D02*
X0068682Y0203184D01*
X0069444Y0204183D02*
X0186325Y0204183D01*
X0186749Y0205181D02*
X0070020Y0205181D01*
X0070597Y0206180D02*
X0184690Y0206180D01*
X0183796Y0207179D02*
X0071173Y0207179D01*
X0071487Y0208177D02*
X0183796Y0208177D01*
X0183796Y0209176D02*
X0071754Y0209176D01*
X0072022Y0210174D02*
X0183796Y0210174D01*
X0183796Y0211173D02*
X0072289Y0211173D01*
X0072366Y0212171D02*
X0183796Y0212171D01*
X0183796Y0213170D02*
X0072366Y0213170D01*
X0072366Y0214168D02*
X0184475Y0214168D01*
X0193391Y0214168D02*
X0194051Y0214168D01*
X0198433Y0214168D02*
X0199433Y0214168D01*
X0199433Y0213170D02*
X0198433Y0213170D01*
X0198433Y0212171D02*
X0199433Y0212171D01*
X0199433Y0211173D02*
X0198433Y0211173D01*
X0198433Y0209176D02*
X0199433Y0209176D01*
X0199433Y0208177D02*
X0198433Y0208177D01*
X0198433Y0207179D02*
X0199433Y0207179D01*
X0199433Y0206180D02*
X0198433Y0206180D01*
X0194288Y0206180D02*
X0193176Y0206180D01*
X0193673Y0200189D02*
X0194193Y0200189D01*
X0198933Y0196585D02*
X0199781Y0196585D01*
X0201433Y0194933D01*
X0201433Y0188433D01*
X0224433Y0165433D01*
X0223276Y0162994D02*
X0223897Y0162737D01*
X0224848Y0162737D01*
X0224737Y0162469D01*
X0224737Y0161533D01*
X0224133Y0162137D01*
X0223276Y0162994D01*
X0224025Y0162245D02*
X0224737Y0162245D01*
X0226733Y0166925D02*
X0226719Y0166960D01*
X0225960Y0167719D01*
X0224969Y0168129D01*
X0224141Y0168129D01*
X0203133Y0189137D01*
X0203133Y0192440D01*
X0203933Y0193240D01*
X0204741Y0192432D01*
X0213125Y0192432D01*
X0213763Y0193070D01*
X0213878Y0192870D01*
X0214235Y0192514D01*
X0214671Y0192262D01*
X0215158Y0192132D01*
X0218433Y0192132D01*
X0218433Y0196085D01*
X0219433Y0196085D01*
X0219433Y0197085D01*
X0218433Y0197085D01*
X0218433Y0201037D01*
X0216626Y0201037D01*
X0216838Y0201249D01*
X0223305Y0201249D01*
X0223406Y0201147D01*
X0224397Y0200737D01*
X0225469Y0200737D01*
X0226460Y0201147D01*
X0226733Y0201420D01*
X0226733Y0166925D01*
X0226733Y0167238D02*
X0226441Y0167238D01*
X0226733Y0168237D02*
X0224034Y0168237D01*
X0223035Y0169235D02*
X0226733Y0169235D01*
X0226733Y0170234D02*
X0222037Y0170234D01*
X0221038Y0171232D02*
X0226733Y0171232D01*
X0226733Y0172231D02*
X0220040Y0172231D01*
X0219041Y0173229D02*
X0226733Y0173229D01*
X0226733Y0174228D02*
X0218043Y0174228D01*
X0217044Y0175226D02*
X0226733Y0175226D01*
X0226733Y0176225D02*
X0216046Y0176225D01*
X0215047Y0177223D02*
X0226733Y0177223D01*
X0226733Y0178222D02*
X0214049Y0178222D01*
X0213050Y0179220D02*
X0226733Y0179220D01*
X0226733Y0180219D02*
X0212052Y0180219D01*
X0211053Y0181217D02*
X0226733Y0181217D01*
X0226733Y0182216D02*
X0210055Y0182216D01*
X0209056Y0183214D02*
X0226733Y0183214D01*
X0226733Y0184213D02*
X0208058Y0184213D01*
X0207059Y0185211D02*
X0226733Y0185211D01*
X0226733Y0186210D02*
X0206061Y0186210D01*
X0205062Y0187208D02*
X0226733Y0187208D01*
X0226733Y0188207D02*
X0204063Y0188207D01*
X0203133Y0189205D02*
X0226733Y0189205D01*
X0226733Y0190204D02*
X0203133Y0190204D01*
X0203133Y0191202D02*
X0226733Y0191202D01*
X0226733Y0192201D02*
X0222966Y0192201D01*
X0223195Y0192262D02*
X0223632Y0192514D01*
X0223988Y0192870D01*
X0224240Y0193307D01*
X0224370Y0193793D01*
X0224370Y0196085D01*
X0219433Y0196085D01*
X0219433Y0192132D01*
X0222709Y0192132D01*
X0223195Y0192262D01*
X0224178Y0193199D02*
X0226733Y0193199D01*
X0226733Y0194198D02*
X0224370Y0194198D01*
X0224370Y0195196D02*
X0226733Y0195196D01*
X0226733Y0196195D02*
X0219433Y0196195D01*
X0219433Y0197085D02*
X0224370Y0197085D01*
X0224370Y0199376D01*
X0224240Y0199863D01*
X0223988Y0200299D01*
X0223632Y0200655D01*
X0223195Y0200907D01*
X0222709Y0201037D01*
X0219433Y0201037D01*
X0219433Y0197085D01*
X0219433Y0197193D02*
X0218433Y0197193D01*
X0218433Y0198192D02*
X0219433Y0198192D01*
X0219433Y0199190D02*
X0218433Y0199190D01*
X0218433Y0200189D02*
X0219433Y0200189D01*
X0216776Y0201187D02*
X0223366Y0201187D01*
X0224051Y0200189D02*
X0226733Y0200189D01*
X0226733Y0201187D02*
X0226500Y0201187D01*
X0226733Y0199190D02*
X0224370Y0199190D01*
X0224370Y0198192D02*
X0226733Y0198192D01*
X0226733Y0197193D02*
X0224370Y0197193D01*
X0219433Y0195196D02*
X0218433Y0195196D01*
X0218433Y0194198D02*
X0219433Y0194198D01*
X0219433Y0193199D02*
X0218433Y0193199D01*
X0218433Y0192201D02*
X0219433Y0192201D01*
X0214900Y0192201D02*
X0203133Y0192201D01*
X0203892Y0193199D02*
X0203974Y0193199D01*
X0199733Y0192201D02*
X0136287Y0192201D01*
X0136287Y0193199D02*
X0183974Y0193199D01*
X0183796Y0194198D02*
X0136287Y0194198D01*
X0136287Y0195196D02*
X0183796Y0195196D01*
X0183796Y0196195D02*
X0135730Y0196195D01*
X0135584Y0196342D02*
X0124290Y0196342D01*
X0123587Y0195639D01*
X0123587Y0184345D01*
X0124290Y0183643D01*
X0135584Y0183643D01*
X0136287Y0184345D01*
X0136287Y0195639D01*
X0135584Y0196342D01*
X0136287Y0191202D02*
X0199733Y0191202D01*
X0199733Y0190204D02*
X0136287Y0190204D01*
X0136287Y0189205D02*
X0199733Y0189205D01*
X0199733Y0188207D02*
X0136287Y0188207D01*
X0136287Y0187208D02*
X0200254Y0187208D01*
X0201252Y0186210D02*
X0136287Y0186210D01*
X0136287Y0185211D02*
X0202251Y0185211D01*
X0203249Y0184213D02*
X0136154Y0184213D01*
X0123720Y0184213D02*
X0114073Y0184213D01*
X0115632Y0185211D02*
X0123587Y0185211D01*
X0123587Y0186210D02*
X0116630Y0186210D01*
X0117153Y0187208D02*
X0123587Y0187208D01*
X0123587Y0188207D02*
X0117566Y0188207D01*
X0117783Y0189205D02*
X0123587Y0189205D01*
X0123587Y0190204D02*
X0117783Y0190204D01*
X0117783Y0191202D02*
X0123587Y0191202D01*
X0123587Y0192201D02*
X0117391Y0192201D01*
X0116977Y0193199D02*
X0123587Y0193199D01*
X0123587Y0194198D02*
X0116207Y0194198D01*
X0115209Y0195196D02*
X0123587Y0195196D01*
X0124144Y0196195D02*
X0113051Y0196195D01*
X0109136Y0183214D02*
X0204248Y0183214D01*
X0205246Y0182216D02*
X0108138Y0182216D01*
X0112638Y0170234D02*
X0115329Y0170234D01*
X0114331Y0169235D02*
X0111639Y0169235D01*
X0110641Y0168237D02*
X0113332Y0168237D01*
X0112334Y0167238D02*
X0109642Y0167238D01*
X0108644Y0166240D02*
X0111335Y0166240D01*
X0110337Y0165241D02*
X0107645Y0165241D01*
X0106647Y0164243D02*
X0109338Y0164243D01*
X0108340Y0163244D02*
X0105648Y0163244D01*
X0104650Y0162245D02*
X0107341Y0162245D01*
X0104974Y0161247D02*
X0103651Y0161247D01*
X0104060Y0160248D02*
X0102653Y0160248D01*
X0101654Y0159250D02*
X0103737Y0159250D01*
X0103797Y0158251D02*
X0100656Y0158251D01*
X0099657Y0157253D02*
X0104300Y0157253D01*
X0104992Y0156254D02*
X0098659Y0156254D01*
X0097660Y0155256D02*
X0104063Y0155256D01*
X0103737Y0154257D02*
X0096662Y0154257D01*
X0095663Y0153259D02*
X0098003Y0153259D01*
X0097065Y0152260D02*
X0095133Y0152260D01*
X0095133Y0151262D02*
X0096737Y0151262D01*
X0096792Y0150263D02*
X0095133Y0150263D01*
X0095133Y0149265D02*
X0097288Y0149265D01*
X0100863Y0153259D02*
X0103794Y0153259D01*
X0106433Y0153933D02*
X0120933Y0168433D01*
X0118829Y0168733D02*
X0109129Y0159033D01*
X0109129Y0159225D01*
X0118637Y0168733D01*
X0118829Y0168733D01*
X0118332Y0168237D02*
X0118141Y0168237D01*
X0117334Y0167238D02*
X0117142Y0167238D01*
X0116335Y0166240D02*
X0116144Y0166240D01*
X0115337Y0165241D02*
X0115145Y0165241D01*
X0114338Y0164243D02*
X0114147Y0164243D01*
X0113340Y0163244D02*
X0113148Y0163244D01*
X0112341Y0162245D02*
X0112150Y0162245D01*
X0111343Y0161247D02*
X0111151Y0161247D01*
X0110344Y0160248D02*
X0110153Y0160248D01*
X0109346Y0159250D02*
X0109154Y0159250D01*
X0106433Y0158933D02*
X0117933Y0170433D01*
X0201433Y0170433D01*
X0229561Y0160248D02*
X0331853Y0160248D01*
X0320270Y0165241D02*
X0376652Y0165241D01*
X0375654Y0164243D02*
X0319671Y0164243D01*
X0318481Y0163244D02*
X0374655Y0163244D01*
X0377651Y0166240D02*
X0320625Y0166240D01*
X0320625Y0167238D02*
X0378649Y0167238D01*
X0379648Y0168237D02*
X0320431Y0168237D01*
X0320017Y0169235D02*
X0380646Y0169235D01*
X0381645Y0170234D02*
X0319061Y0170234D01*
X0316720Y0177223D02*
X0316146Y0177223D01*
X0316146Y0178222D02*
X0316720Y0178222D01*
X0316720Y0179220D02*
X0316146Y0179220D01*
X0316146Y0180219D02*
X0316720Y0180219D01*
X0316720Y0182216D02*
X0316146Y0182216D01*
X0316146Y0183214D02*
X0316720Y0183214D01*
X0316720Y0184213D02*
X0316146Y0184213D01*
X0316146Y0185211D02*
X0316720Y0185211D01*
X0320198Y0185211D02*
X0395432Y0185211D01*
X0395432Y0186210D02*
X0230133Y0186210D01*
X0230133Y0187208D02*
X0395432Y0187208D01*
X0395432Y0188207D02*
X0230133Y0188207D01*
X0230133Y0189205D02*
X0395432Y0189205D01*
X0395432Y0190204D02*
X0230133Y0190204D01*
X0230133Y0191202D02*
X0395432Y0191202D01*
X0395432Y0192201D02*
X0230133Y0192201D01*
X0230133Y0193199D02*
X0395506Y0193199D01*
X0402908Y0199190D02*
X0319619Y0199190D01*
X0319987Y0199558D02*
X0320625Y0201099D01*
X0320625Y0202767D01*
X0319987Y0204308D01*
X0318808Y0205487D01*
X0317267Y0206125D01*
X0315599Y0206125D01*
X0314058Y0205487D01*
X0312879Y0204308D01*
X0312241Y0202767D01*
X0312241Y0201099D01*
X0312879Y0199558D01*
X0314058Y0198379D01*
X0315599Y0197741D01*
X0317267Y0197741D01*
X0318808Y0198379D01*
X0319987Y0199558D01*
X0320248Y0200189D02*
X0401179Y0200189D01*
X0399882Y0201187D02*
X0320625Y0201187D01*
X0320625Y0202186D02*
X0398883Y0202186D01*
X0397885Y0203184D02*
X0320452Y0203184D01*
X0320039Y0204183D02*
X0397123Y0204183D01*
X0396547Y0205181D02*
X0319113Y0205181D01*
X0313753Y0205181D02*
X0230133Y0205181D01*
X0230133Y0204183D02*
X0312827Y0204183D01*
X0312414Y0203184D02*
X0230133Y0203184D01*
X0230133Y0202186D02*
X0312241Y0202186D01*
X0312241Y0201187D02*
X0230133Y0201187D01*
X0230133Y0200189D02*
X0312618Y0200189D01*
X0313247Y0199190D02*
X0230133Y0199190D01*
X0230133Y0198192D02*
X0314510Y0198192D01*
X0318356Y0198192D02*
X0405169Y0198192D01*
X0395970Y0206180D02*
X0230133Y0206180D01*
X0229592Y0207179D02*
X0395394Y0207179D01*
X0395080Y0208177D02*
X0228593Y0208177D01*
X0227595Y0209176D02*
X0394813Y0209176D01*
X0394545Y0210174D02*
X0226596Y0210174D01*
X0225598Y0211173D02*
X0394278Y0211173D01*
X0394201Y0212171D02*
X0320713Y0212171D01*
X0320625Y0212020D02*
X0320823Y0212362D01*
X0320925Y0212743D01*
X0320925Y0215646D01*
X0316721Y0215646D01*
X0316721Y0216220D01*
X0320925Y0216220D01*
X0320925Y0219123D01*
X0320823Y0219504D01*
X0320625Y0219846D01*
X0320346Y0220125D01*
X0320004Y0220323D01*
X0319623Y0220425D01*
X0316720Y0220425D01*
X0316720Y0216221D01*
X0316146Y0216221D01*
X0316146Y0220425D01*
X0313243Y0220425D01*
X0312862Y0220323D01*
X0312520Y0220125D01*
X0312241Y0219846D01*
X0312043Y0219504D01*
X0311941Y0219123D01*
X0311941Y0216220D01*
X0316146Y0216220D01*
X0316146Y0215646D01*
X0316720Y0215646D01*
X0316720Y0211441D01*
X0319623Y0211441D01*
X0320004Y0211543D01*
X0320346Y0211741D01*
X0320625Y0212020D01*
X0320925Y0213170D02*
X0394201Y0213170D01*
X0394201Y0214168D02*
X0320925Y0214168D01*
X0320925Y0215167D02*
X0394201Y0215167D01*
X0394201Y0216165D02*
X0316721Y0216165D01*
X0316146Y0216165D02*
X0072366Y0216165D01*
X0072366Y0215167D02*
X0311941Y0215167D01*
X0311941Y0215646D02*
X0311941Y0212743D01*
X0312043Y0212362D01*
X0312241Y0212020D01*
X0312520Y0211741D01*
X0312862Y0211543D01*
X0313243Y0211441D01*
X0316146Y0211441D01*
X0316146Y0215646D01*
X0311941Y0215646D01*
X0311941Y0214168D02*
X0223391Y0214168D01*
X0224070Y0213170D02*
X0311941Y0213170D01*
X0312153Y0212171D02*
X0224070Y0212171D01*
X0224070Y0207179D02*
X0224783Y0207179D01*
X0225782Y0206180D02*
X0223176Y0206180D01*
X0214475Y0214168D02*
X0213391Y0214168D01*
X0204475Y0214168D02*
X0203815Y0214168D01*
X0203578Y0206180D02*
X0204690Y0206180D01*
X0204193Y0200189D02*
X0203673Y0200189D01*
X0193974Y0193199D02*
X0193892Y0193199D01*
X0183796Y0197193D02*
X0037833Y0197193D01*
X0061398Y0198192D02*
X0183796Y0198192D01*
X0183796Y0199190D02*
X0063659Y0199190D01*
X0065388Y0200189D02*
X0184193Y0200189D01*
X0142915Y0224153D02*
X0394201Y0224153D01*
X0394201Y0223155D02*
X0141995Y0223155D01*
X0140730Y0222156D02*
X0394201Y0222156D01*
X0394201Y0221158D02*
X0072366Y0221158D01*
X0072366Y0222156D02*
X0082136Y0222156D01*
X0080871Y0223155D02*
X0072366Y0223155D01*
X0072366Y0224153D02*
X0079951Y0224153D01*
X0079537Y0225152D02*
X0072366Y0225152D01*
X0072366Y0226150D02*
X0079124Y0226150D01*
X0079099Y0227149D02*
X0072366Y0227149D01*
X0072366Y0228147D02*
X0079099Y0228147D01*
X0079334Y0229146D02*
X0072366Y0229146D01*
X0072366Y0230144D02*
X0079748Y0230144D01*
X0080381Y0231143D02*
X0072366Y0231143D01*
X0087974Y0222156D02*
X0134892Y0222156D01*
X0133627Y0223155D02*
X0089239Y0223155D01*
X0090159Y0224153D02*
X0132707Y0224153D01*
X0132293Y0225152D02*
X0090573Y0225152D01*
X0090987Y0226150D02*
X0131879Y0226150D01*
X0131855Y0227149D02*
X0091011Y0227149D01*
X0091011Y0228147D02*
X0131855Y0228147D01*
X0132090Y0229146D02*
X0090776Y0229146D01*
X0090362Y0230144D02*
X0132504Y0230144D01*
X0133137Y0231143D02*
X0089729Y0231143D01*
X0072366Y0220159D02*
X0312578Y0220159D01*
X0311951Y0219161D02*
X0072366Y0219161D01*
X0072366Y0218162D02*
X0311941Y0218162D01*
X0311941Y0217164D02*
X0072366Y0217164D01*
X0143329Y0225152D02*
X0394201Y0225152D01*
X0394201Y0226150D02*
X0143743Y0226150D01*
X0143767Y0227149D02*
X0394201Y0227149D01*
X0394201Y0228147D02*
X0143767Y0228147D01*
X0143532Y0229146D02*
X0394201Y0229146D01*
X0394201Y0230144D02*
X0143118Y0230144D01*
X0142485Y0231143D02*
X0394201Y0231143D01*
X0394201Y0220159D02*
X0320288Y0220159D01*
X0320915Y0219161D02*
X0394201Y0219161D01*
X0394201Y0218162D02*
X0320925Y0218162D01*
X0320925Y0217164D02*
X0394201Y0217164D01*
X0395624Y0184213D02*
X0320901Y0184213D01*
X0320925Y0183214D02*
X0394625Y0183214D01*
X0393627Y0182216D02*
X0320925Y0182216D01*
X0312668Y0185211D02*
X0230133Y0185211D01*
X0230133Y0184213D02*
X0311965Y0184213D01*
X0311941Y0183214D02*
X0230133Y0183214D01*
X0230133Y0182216D02*
X0311941Y0182216D01*
X0316146Y0212171D02*
X0316720Y0212171D01*
X0316720Y0213170D02*
X0316146Y0213170D01*
X0316146Y0214168D02*
X0316720Y0214168D01*
X0316720Y0215167D02*
X0316146Y0215167D01*
X0316146Y0217164D02*
X0316720Y0217164D01*
X0316720Y0218162D02*
X0316146Y0218162D01*
X0316146Y0219161D02*
X0316720Y0219161D01*
X0316720Y0220159D02*
X0316146Y0220159D01*
X0416633Y0163244D02*
X0419340Y0163244D01*
X0418341Y0162245D02*
X0416633Y0162245D01*
X0416633Y0161247D02*
X0417343Y0161247D01*
X0418633Y0157253D02*
X0419136Y0157253D01*
X0413726Y0154226D02*
X0413682Y0154184D01*
X0413636Y0154146D01*
X0413587Y0154110D01*
X0413536Y0154077D01*
X0413484Y0154048D01*
X0413429Y0154021D01*
X0413374Y0153998D01*
X0413317Y0153978D01*
X0413258Y0153962D01*
X0413199Y0153949D01*
X0413140Y0153940D01*
X0413079Y0153935D01*
X0413019Y0153933D01*
X0413750Y0152260D02*
X0415233Y0152260D01*
X0415233Y0151262D02*
X0406054Y0151262D01*
X0406054Y0150263D02*
X0415233Y0150263D01*
X0415233Y0149265D02*
X0406054Y0149265D01*
X0406054Y0148266D02*
X0415233Y0148266D01*
X0415233Y0147268D02*
X0406054Y0147268D01*
X0406054Y0146269D02*
X0415233Y0146269D01*
X0415233Y0145271D02*
X0406054Y0145271D01*
X0406054Y0144272D02*
X0413858Y0144272D01*
X0413399Y0143274D02*
X0406054Y0143274D01*
X0406054Y0142275D02*
X0413387Y0142275D01*
X0413778Y0141277D02*
X0406054Y0141277D01*
X0406054Y0140278D02*
X0415148Y0140278D01*
X0416789Y0140278D02*
X0418796Y0140278D01*
X0418796Y0139280D02*
X0406054Y0139280D01*
X0405413Y0138281D02*
X0418796Y0138281D01*
X0418796Y0137283D02*
X0402196Y0137283D01*
X0402623Y0136284D02*
X0418889Y0136284D01*
X0420765Y0135286D02*
X0402629Y0135286D01*
X0402252Y0134287D02*
X0420765Y0134287D01*
X0420765Y0133289D02*
X0402117Y0133289D01*
X0402117Y0132290D02*
X0419597Y0132290D01*
X0418796Y0131292D02*
X0405557Y0131292D01*
X0406054Y0130293D02*
X0418796Y0130293D01*
X0418796Y0129295D02*
X0417135Y0129295D01*
X0417431Y0129172D02*
X0416482Y0129565D01*
X0415455Y0129565D01*
X0414506Y0129172D01*
X0413780Y0128446D01*
X0413387Y0127498D01*
X0413387Y0126471D01*
X0413780Y0125522D01*
X0414506Y0124796D01*
X0415455Y0124403D01*
X0416482Y0124403D01*
X0417431Y0124796D01*
X0418157Y0125522D01*
X0418550Y0126471D01*
X0418550Y0127498D01*
X0418157Y0128446D01*
X0417431Y0129172D01*
X0418219Y0128296D02*
X0418796Y0128296D01*
X0418796Y0127298D02*
X0418550Y0127298D01*
X0418478Y0126299D02*
X0418796Y0126299D01*
X0418796Y0125301D02*
X0417935Y0125301D01*
X0419568Y0124302D02*
X0408875Y0124302D01*
X0407876Y0125301D02*
X0414002Y0125301D01*
X0413459Y0126299D02*
X0406878Y0126299D01*
X0406054Y0127298D02*
X0413387Y0127298D01*
X0413718Y0128296D02*
X0406054Y0128296D01*
X0406054Y0129295D02*
X0414802Y0129295D01*
X0410875Y0123304D02*
X0428734Y0123304D01*
X0428734Y0124302D02*
X0428298Y0124302D01*
X0428734Y0122305D02*
X0411490Y0122305D01*
X0411870Y0121307D02*
X0428734Y0121307D01*
X0428734Y0120308D02*
X0412869Y0120308D01*
X0413867Y0119310D02*
X0428734Y0119310D01*
X0428734Y0118311D02*
X0428551Y0118311D01*
X0419315Y0118311D02*
X0414866Y0118311D01*
X0415864Y0117312D02*
X0418796Y0117312D01*
X0414237Y0113318D02*
X0330907Y0113318D01*
X0329909Y0112320D02*
X0418796Y0112320D01*
X0418852Y0111321D02*
X0328910Y0111321D01*
X0327912Y0110323D02*
X0428734Y0110323D01*
X0428734Y0109324D02*
X0326913Y0109324D01*
X0325915Y0108326D02*
X0428734Y0108326D01*
X0428734Y0107327D02*
X0324916Y0107327D01*
X0323918Y0106329D02*
X0428734Y0106329D01*
X0428734Y0105330D02*
X0322919Y0105330D01*
X0321921Y0104332D02*
X0428734Y0104332D01*
X0428734Y0103333D02*
X0320922Y0103333D01*
X0319924Y0102335D02*
X0428734Y0102335D01*
X0428734Y0101336D02*
X0318925Y0101336D01*
X0317927Y0100338D02*
X0428734Y0100338D01*
X0428734Y0099339D02*
X0316928Y0099339D01*
X0315930Y0098341D02*
X0428734Y0098341D01*
X0428734Y0097342D02*
X0314931Y0097342D01*
X0313933Y0096344D02*
X0428734Y0096344D01*
X0428734Y0085360D02*
X0349449Y0085360D01*
X0348451Y0084362D02*
X0428734Y0084362D01*
X0428734Y0083363D02*
X0347452Y0083363D01*
X0346454Y0082365D02*
X0428734Y0082365D01*
X0428734Y0081366D02*
X0345455Y0081366D01*
X0344457Y0080368D02*
X0428734Y0080368D01*
X0428734Y0079369D02*
X0343617Y0079369D01*
X0343617Y0078371D02*
X0428734Y0078371D01*
X0428734Y0077372D02*
X0343617Y0077372D01*
X0343617Y0076374D02*
X0428734Y0076374D01*
X0428734Y0075375D02*
X0343617Y0075375D01*
X0343617Y0074377D02*
X0428734Y0074377D01*
X0428734Y0073378D02*
X0343617Y0073378D01*
X0343617Y0072379D02*
X0428734Y0072379D01*
X0404633Y0071381D02*
X0343617Y0071381D01*
X0343617Y0070382D02*
X0402659Y0070382D01*
X0400930Y0069384D02*
X0343617Y0069384D01*
X0343617Y0068385D02*
X0399738Y0068385D01*
X0398739Y0067387D02*
X0343617Y0067387D01*
X0343617Y0066388D02*
X0397741Y0066388D01*
X0397040Y0065390D02*
X0366373Y0065390D01*
X0366373Y0065670D02*
X0365670Y0066373D01*
X0357196Y0066373D01*
X0356493Y0065670D01*
X0356493Y0057196D01*
X0357196Y0056493D01*
X0365670Y0056493D01*
X0366373Y0057196D01*
X0366373Y0065670D01*
X0366373Y0064391D02*
X0396464Y0064391D01*
X0395887Y0063393D02*
X0366373Y0063393D01*
X0366373Y0062394D02*
X0395311Y0062394D01*
X0395042Y0061396D02*
X0366373Y0061396D01*
X0366373Y0060397D02*
X0394774Y0060397D01*
X0394507Y0059399D02*
X0366373Y0059399D01*
X0366373Y0058400D02*
X0394239Y0058400D01*
X0394201Y0057402D02*
X0366373Y0057402D01*
X0364448Y0055405D02*
X0394201Y0055405D01*
X0394201Y0056403D02*
X0353094Y0056403D01*
X0354388Y0057402D02*
X0356493Y0057402D01*
X0356493Y0058400D02*
X0355387Y0058400D01*
X0355938Y0059399D02*
X0356493Y0059399D01*
X0356493Y0060397D02*
X0356351Y0060397D01*
X0356373Y0061396D02*
X0356493Y0061396D01*
X0356493Y0062394D02*
X0356373Y0062394D01*
X0356493Y0063393D02*
X0355968Y0063393D01*
X0355461Y0064391D02*
X0356493Y0064391D01*
X0356493Y0065390D02*
X0354463Y0065390D01*
X0348403Y0065390D02*
X0344463Y0065390D01*
X0345461Y0064391D02*
X0347405Y0064391D01*
X0346898Y0063393D02*
X0345968Y0063393D01*
X0346373Y0062394D02*
X0346493Y0062394D01*
X0346493Y0061396D02*
X0346373Y0061396D01*
X0346351Y0060397D02*
X0346515Y0060397D01*
X0346928Y0059399D02*
X0345938Y0059399D01*
X0345387Y0058400D02*
X0347479Y0058400D01*
X0348478Y0057402D02*
X0344388Y0057402D01*
X0343094Y0056403D02*
X0349772Y0056403D01*
X0347994Y0055405D02*
X0344872Y0055405D01*
X0345750Y0054406D02*
X0347116Y0054406D01*
X0346565Y0053408D02*
X0346301Y0053408D01*
X0346285Y0049414D02*
X0346581Y0049414D01*
X0347148Y0048415D02*
X0345718Y0048415D01*
X0344820Y0047417D02*
X0348046Y0047417D01*
X0349910Y0046418D02*
X0342956Y0046418D01*
X0341917Y0046418D02*
X0340949Y0046418D01*
X0340949Y0047417D02*
X0341917Y0047417D01*
X0341917Y0048415D02*
X0340949Y0048415D01*
X0340949Y0049414D02*
X0341917Y0049414D01*
X0341917Y0050412D02*
X0340949Y0050412D01*
X0340949Y0051411D02*
X0331917Y0051411D01*
X0330949Y0051411D02*
X0321917Y0051411D01*
X0320949Y0051411D02*
X0265256Y0051411D01*
X0265256Y0052409D02*
X0316282Y0052409D01*
X0316565Y0053408D02*
X0265138Y0053408D01*
X0264239Y0054406D02*
X0317116Y0054406D01*
X0317994Y0055405D02*
X0254309Y0055405D01*
X0255307Y0056403D02*
X0319772Y0056403D01*
X0318478Y0057402D02*
X0256306Y0057402D01*
X0257304Y0058400D02*
X0317479Y0058400D01*
X0316928Y0059399D02*
X0258303Y0059399D01*
X0259301Y0060397D02*
X0316515Y0060397D01*
X0316493Y0061396D02*
X0260300Y0061396D01*
X0261299Y0062394D02*
X0316493Y0062394D01*
X0316898Y0063393D02*
X0262297Y0063393D01*
X0263296Y0064391D02*
X0317405Y0064391D01*
X0318403Y0065390D02*
X0264294Y0065390D01*
X0265293Y0066388D02*
X0339249Y0066388D01*
X0339249Y0067387D02*
X0266291Y0067387D01*
X0267133Y0068385D02*
X0339249Y0068385D01*
X0339249Y0069384D02*
X0267197Y0069384D01*
X0267916Y0070382D02*
X0339249Y0070382D01*
X0339249Y0071381D02*
X0268129Y0071381D01*
X0267959Y0072379D02*
X0339249Y0072379D01*
X0339249Y0073378D02*
X0267301Y0073378D01*
X0262933Y0070423D02*
X0263147Y0069906D01*
X0263575Y0069479D01*
X0262133Y0068037D01*
X0262133Y0069320D01*
X0262719Y0069906D01*
X0262933Y0070423D01*
X0262916Y0070382D02*
X0262950Y0070382D01*
X0263480Y0069384D02*
X0262197Y0069384D01*
X0262133Y0068385D02*
X0262481Y0068385D01*
X0261106Y0054406D02*
X0260106Y0054406D01*
X0260106Y0053408D02*
X0261106Y0053408D01*
X0261106Y0052409D02*
X0260106Y0052409D01*
X0260106Y0051411D02*
X0261106Y0051411D01*
X0261106Y0050412D02*
X0260106Y0050412D01*
X0260106Y0049414D02*
X0261106Y0049414D01*
X0261106Y0048415D02*
X0260106Y0048415D01*
X0260106Y0047417D02*
X0261106Y0047417D01*
X0261106Y0046418D02*
X0260106Y0046418D01*
X0260106Y0045420D02*
X0206461Y0045420D01*
X0206461Y0046418D02*
X0205461Y0046418D01*
X0205461Y0045420D02*
X0198951Y0045420D01*
X0199044Y0045706D02*
X0199162Y0046449D01*
X0194417Y0046449D01*
X0194417Y0041704D01*
X0195160Y0041822D01*
X0195945Y0042077D01*
X0196680Y0042451D01*
X0197347Y0042936D01*
X0197930Y0043519D01*
X0198415Y0044187D01*
X0198789Y0044922D01*
X0199044Y0045706D01*
X0199157Y0046418D02*
X0201311Y0046418D01*
X0201311Y0047417D02*
X0194417Y0047417D01*
X0193449Y0047417D01*
X0193449Y0052162D01*
X0192706Y0052044D01*
X0191922Y0051789D01*
X0191187Y0051415D01*
X0190519Y0050930D01*
X0189936Y0050347D01*
X0189451Y0049680D01*
X0189077Y0048945D01*
X0188822Y0048160D01*
X0188808Y0048073D01*
X0188121Y0049731D01*
X0186731Y0051121D01*
X0184916Y0051873D01*
X0182950Y0051873D01*
X0181135Y0051121D01*
X0179745Y0049731D01*
X0178993Y0047916D01*
X0178993Y0045950D01*
X0179745Y0044135D01*
X0181135Y0042745D01*
X0182950Y0041993D01*
X0184916Y0041993D01*
X0186731Y0042745D01*
X0188121Y0044135D01*
X0188808Y0045793D01*
X0188822Y0045706D01*
X0189077Y0044922D01*
X0189451Y0044187D01*
X0189936Y0043519D01*
X0190519Y0042936D01*
X0191187Y0042451D01*
X0191922Y0042077D01*
X0192706Y0041822D01*
X0193449Y0041704D01*
X0193449Y0046449D01*
X0194417Y0046449D01*
X0194417Y0047417D01*
X0194417Y0052162D01*
X0195160Y0052044D01*
X0195945Y0051789D01*
X0196680Y0051415D01*
X0197347Y0050930D01*
X0197930Y0050347D01*
X0198415Y0049680D01*
X0198789Y0048945D01*
X0199044Y0048160D01*
X0199162Y0047417D01*
X0194417Y0047417D01*
X0194417Y0048415D02*
X0193449Y0048415D01*
X0193449Y0049414D02*
X0194417Y0049414D01*
X0194417Y0050412D02*
X0193449Y0050412D01*
X0193449Y0051411D02*
X0194417Y0051411D01*
X0196685Y0051411D02*
X0201311Y0051411D01*
X0201311Y0052409D02*
X0176447Y0052409D01*
X0176629Y0051411D02*
X0181834Y0051411D01*
X0180426Y0050412D02*
X0176428Y0050412D01*
X0175727Y0049414D02*
X0179613Y0049414D01*
X0179200Y0048415D02*
X0169344Y0048415D01*
X0170134Y0049414D02*
X0172140Y0049414D01*
X0167691Y0047417D02*
X0178993Y0047417D01*
X0178993Y0046418D02*
X0072366Y0046418D01*
X0072366Y0045420D02*
X0179213Y0045420D01*
X0179626Y0044421D02*
X0072366Y0044421D01*
X0072366Y0043423D02*
X0180457Y0043423D01*
X0181909Y0042424D02*
X0072366Y0042424D01*
X0072366Y0041426D02*
X0201311Y0041426D01*
X0201311Y0042424D02*
X0196626Y0042424D01*
X0197833Y0043423D02*
X0201311Y0043423D01*
X0201311Y0044421D02*
X0198534Y0044421D01*
X0198961Y0048415D02*
X0201311Y0048415D01*
X0201311Y0049414D02*
X0198550Y0049414D01*
X0197865Y0050412D02*
X0201311Y0050412D01*
X0201429Y0053408D02*
X0175771Y0053408D01*
X0176310Y0054406D02*
X0202328Y0054406D01*
X0205461Y0054406D02*
X0206461Y0054406D01*
X0206461Y0053408D02*
X0205461Y0053408D01*
X0205461Y0052409D02*
X0206461Y0052409D01*
X0206461Y0051411D02*
X0205461Y0051411D01*
X0205461Y0050412D02*
X0206461Y0050412D01*
X0206461Y0049414D02*
X0205461Y0049414D01*
X0205461Y0048415D02*
X0206461Y0048415D01*
X0206461Y0047417D02*
X0205461Y0047417D01*
X0210610Y0047417D02*
X0255957Y0047417D01*
X0255957Y0048415D02*
X0210610Y0048415D01*
X0210610Y0049414D02*
X0255957Y0049414D01*
X0255957Y0050412D02*
X0210610Y0050412D01*
X0210610Y0051411D02*
X0255957Y0051411D01*
X0255957Y0052409D02*
X0210610Y0052409D01*
X0210492Y0053408D02*
X0256075Y0053408D01*
X0256974Y0054406D02*
X0209593Y0054406D01*
X0210381Y0061396D02*
X0176629Y0061396D01*
X0176453Y0062394D02*
X0209383Y0062394D01*
X0208384Y0063393D02*
X0175786Y0063393D01*
X0169403Y0064391D02*
X0207386Y0064391D01*
X0206387Y0065390D02*
X0167835Y0065390D01*
X0163552Y0068385D02*
X0139314Y0068385D01*
X0140122Y0069384D02*
X0162744Y0069384D01*
X0162331Y0070382D02*
X0140535Y0070382D01*
X0140625Y0071381D02*
X0162241Y0071381D01*
X0162288Y0072379D02*
X0140579Y0072379D01*
X0140165Y0073378D02*
X0162701Y0073378D01*
X0163448Y0074377D02*
X0139418Y0074377D01*
X0137871Y0075375D02*
X0164995Y0075375D01*
X0165283Y0077372D02*
X0137583Y0077372D01*
X0139299Y0078371D02*
X0163567Y0078371D01*
X0162750Y0079369D02*
X0140116Y0079369D01*
X0140529Y0080368D02*
X0162337Y0080368D01*
X0162241Y0081366D02*
X0140625Y0081366D01*
X0140585Y0082365D02*
X0162281Y0082365D01*
X0162695Y0083363D02*
X0140171Y0083363D01*
X0139433Y0084362D02*
X0163433Y0084362D01*
X0164959Y0085360D02*
X0137907Y0085360D01*
X0137485Y0087052D02*
X0138157Y0087270D01*
X0138787Y0087591D01*
X0139359Y0088007D01*
X0139859Y0088507D01*
X0140275Y0089079D01*
X0140596Y0089709D01*
X0140815Y0090381D01*
X0140925Y0091080D01*
X0140925Y0091146D01*
X0136721Y0091146D01*
X0136721Y0091720D01*
X0140925Y0091720D01*
X0140925Y0091787D01*
X0140815Y0092485D01*
X0140596Y0093157D01*
X0140275Y0093787D01*
X0139859Y0094359D01*
X0139359Y0094859D01*
X0138787Y0095275D01*
X0138157Y0095596D01*
X0137485Y0095815D01*
X0136787Y0095925D01*
X0136720Y0095925D01*
X0136720Y0091721D01*
X0136146Y0091721D01*
X0136146Y0095925D01*
X0136080Y0095925D01*
X0135381Y0095815D01*
X0134709Y0095596D01*
X0134079Y0095275D01*
X0133507Y0094859D01*
X0133007Y0094359D01*
X0132591Y0093787D01*
X0132270Y0093157D01*
X0132052Y0092485D01*
X0131941Y0091787D01*
X0131941Y0091720D01*
X0136146Y0091720D01*
X0136146Y0091146D01*
X0136720Y0091146D01*
X0136720Y0086941D01*
X0136787Y0086941D01*
X0137485Y0087052D01*
X0136720Y0087357D02*
X0136146Y0087357D01*
X0136146Y0086941D02*
X0136146Y0091146D01*
X0131941Y0091146D01*
X0131941Y0091080D01*
X0132052Y0090381D01*
X0132270Y0089709D01*
X0132591Y0089079D01*
X0133007Y0088507D01*
X0133507Y0088007D01*
X0134079Y0087591D01*
X0134709Y0087270D01*
X0135381Y0087052D01*
X0136080Y0086941D01*
X0136146Y0086941D01*
X0136146Y0088356D02*
X0136720Y0088356D01*
X0136720Y0089354D02*
X0136146Y0089354D01*
X0136146Y0090353D02*
X0136720Y0090353D01*
X0136721Y0091351D02*
X0162241Y0091351D01*
X0162275Y0092350D02*
X0140836Y0092350D01*
X0140499Y0093348D02*
X0162689Y0093348D01*
X0163418Y0094347D02*
X0158160Y0094347D01*
X0158901Y0095345D02*
X0160617Y0095345D01*
X0159618Y0096344D02*
X0159129Y0096344D01*
X0156433Y0096433D02*
X0146433Y0096433D01*
X0144528Y0098341D02*
X0139694Y0098341D01*
X0140408Y0099339D02*
X0156623Y0099339D01*
X0155624Y0100338D02*
X0140800Y0100338D01*
X0140838Y0102335D02*
X0153627Y0102335D01*
X0152629Y0103333D02*
X0140506Y0103333D01*
X0139880Y0104332D02*
X0151630Y0104332D01*
X0150632Y0105330D02*
X0138679Y0105330D01*
X0136720Y0105330D02*
X0136146Y0105330D01*
X0136146Y0104332D02*
X0136720Y0104332D01*
X0136720Y0103333D02*
X0136146Y0103333D01*
X0136146Y0102335D02*
X0136720Y0102335D01*
X0136721Y0101336D02*
X0154626Y0101336D01*
X0154528Y0098341D02*
X0148338Y0098341D01*
X0143891Y0097342D02*
X0138299Y0097342D01*
X0136720Y0097342D02*
X0136146Y0097342D01*
X0136146Y0096941D02*
X0136146Y0101146D01*
X0131941Y0101146D01*
X0131941Y0101080D01*
X0132052Y0100381D01*
X0132270Y0099709D01*
X0132591Y0099079D01*
X0133007Y0098507D01*
X0133507Y0098007D01*
X0134079Y0097591D01*
X0134709Y0097270D01*
X0135381Y0097052D01*
X0136080Y0096941D01*
X0136146Y0096941D01*
X0136146Y0098341D02*
X0136720Y0098341D01*
X0136720Y0099339D02*
X0136146Y0099339D01*
X0136146Y0100338D02*
X0136720Y0100338D01*
X0136146Y0101336D02*
X0113740Y0101336D01*
X0112742Y0100338D02*
X0132066Y0100338D01*
X0132458Y0099339D02*
X0111743Y0099339D01*
X0110745Y0098341D02*
X0133173Y0098341D01*
X0134567Y0097342D02*
X0109746Y0097342D01*
X0108748Y0096344D02*
X0143737Y0096344D01*
X0143965Y0095345D02*
X0138650Y0095345D01*
X0139869Y0094347D02*
X0144707Y0094347D01*
X0148160Y0094347D02*
X0154707Y0094347D01*
X0162343Y0090353D02*
X0140805Y0090353D01*
X0140415Y0089354D02*
X0162757Y0089354D01*
X0163582Y0088356D02*
X0139708Y0088356D01*
X0138328Y0087357D02*
X0165319Y0087357D01*
X0167547Y0087357D02*
X0199733Y0087357D01*
X0199733Y0086359D02*
X0098763Y0086359D01*
X0099761Y0087357D02*
X0134538Y0087357D01*
X0133158Y0088356D02*
X0100760Y0088356D01*
X0101758Y0089354D02*
X0132451Y0089354D01*
X0132061Y0090353D02*
X0102757Y0090353D01*
X0103755Y0091351D02*
X0136146Y0091351D01*
X0136146Y0092350D02*
X0136720Y0092350D01*
X0136720Y0093348D02*
X0136146Y0093348D01*
X0136146Y0094347D02*
X0136720Y0094347D01*
X0136720Y0095345D02*
X0136146Y0095345D01*
X0134216Y0095345D02*
X0107749Y0095345D01*
X0106751Y0094347D02*
X0132997Y0094347D01*
X0132367Y0093348D02*
X0105752Y0093348D01*
X0104754Y0092350D02*
X0132030Y0092350D01*
X0134959Y0085360D02*
X0097764Y0085360D01*
X0096433Y0086433D02*
X0116433Y0106433D01*
X0114513Y0108326D02*
X0093730Y0108326D01*
X0092732Y0107327D02*
X0113885Y0107327D01*
X0113737Y0106329D02*
X0091733Y0106329D01*
X0090735Y0105330D02*
X0112926Y0105330D01*
X0111928Y0104332D02*
X0089736Y0104332D01*
X0088737Y0103333D02*
X0110929Y0103333D01*
X0109931Y0102335D02*
X0087739Y0102335D01*
X0086740Y0101336D02*
X0108932Y0101336D01*
X0107934Y0100338D02*
X0085742Y0100338D01*
X0084743Y0099339D02*
X0106935Y0099339D01*
X0105937Y0098341D02*
X0083745Y0098341D01*
X0082746Y0097342D02*
X0104938Y0097342D01*
X0103940Y0096344D02*
X0081748Y0096344D01*
X0080749Y0095345D02*
X0102941Y0095345D01*
X0101943Y0094347D02*
X0079751Y0094347D01*
X0078752Y0093348D02*
X0100944Y0093348D01*
X0099946Y0092350D02*
X0077754Y0092350D01*
X0077129Y0091351D02*
X0098947Y0091351D01*
X0097949Y0090353D02*
X0076904Y0090353D01*
X0076167Y0089354D02*
X0096950Y0089354D01*
X0095952Y0088356D02*
X0073323Y0088356D01*
X0072699Y0089354D02*
X0070410Y0089354D01*
X0069543Y0088356D02*
X0069411Y0088356D01*
X0068898Y0087357D02*
X0068413Y0087357D01*
X0068737Y0086359D02*
X0067414Y0086359D01*
X0066416Y0085360D02*
X0068959Y0085360D01*
X0069692Y0084362D02*
X0065417Y0084362D01*
X0064419Y0083363D02*
X0132695Y0083363D01*
X0132281Y0082365D02*
X0063420Y0082365D01*
X0062422Y0081366D02*
X0132241Y0081366D01*
X0132337Y0080368D02*
X0061877Y0080368D01*
X0061877Y0079369D02*
X0132750Y0079369D01*
X0133567Y0078371D02*
X0061768Y0078371D01*
X0054729Y0074377D02*
X0044909Y0074377D01*
X0046824Y0075375D02*
X0052814Y0075375D01*
X0051815Y0076374D02*
X0047822Y0076374D01*
X0048362Y0077372D02*
X0051275Y0077372D01*
X0050862Y0078371D02*
X0048776Y0078371D01*
X0048885Y0079369D02*
X0050753Y0079369D01*
X0050753Y0080368D02*
X0048885Y0080368D01*
X0048670Y0081366D02*
X0050968Y0081366D01*
X0051382Y0082365D02*
X0048256Y0082365D01*
X0047566Y0083363D02*
X0052072Y0083363D01*
X0053070Y0084362D02*
X0046568Y0084362D01*
X0037833Y0072379D02*
X0132288Y0072379D01*
X0132241Y0071381D02*
X0105798Y0071381D01*
X0106458Y0070382D02*
X0132331Y0070382D01*
X0132744Y0069384D02*
X0106629Y0069384D01*
X0106417Y0068385D02*
X0133552Y0068385D01*
X0135031Y0065390D02*
X0105633Y0065390D01*
X0105633Y0064391D02*
X0133463Y0064391D01*
X0132707Y0063393D02*
X0105633Y0063393D01*
X0105299Y0062394D02*
X0132294Y0062394D01*
X0132241Y0061396D02*
X0104300Y0061396D01*
X0103302Y0060397D02*
X0132325Y0060397D01*
X0132738Y0059399D02*
X0102303Y0059399D01*
X0101304Y0058400D02*
X0133537Y0058400D01*
X0103933Y0063433D02*
X0099433Y0058933D01*
X0093933Y0058933D01*
X0086433Y0051433D01*
X0081493Y0051411D02*
X0072366Y0051411D01*
X0072366Y0052409D02*
X0081493Y0052409D01*
X0081904Y0053408D02*
X0072366Y0053408D01*
X0072366Y0054406D02*
X0082420Y0054406D01*
X0083418Y0055405D02*
X0072366Y0055405D01*
X0072060Y0059399D02*
X0091995Y0059399D01*
X0092993Y0060397D02*
X0071793Y0060397D01*
X0071525Y0061396D02*
X0099492Y0061396D01*
X0099231Y0062245D02*
X0100621Y0063635D01*
X0101373Y0065450D01*
X0101373Y0067416D01*
X0100621Y0069231D01*
X0099231Y0070621D01*
X0097416Y0071373D01*
X0095450Y0071373D01*
X0093635Y0070621D01*
X0092245Y0069231D01*
X0091493Y0067416D01*
X0091493Y0065450D01*
X0092245Y0063635D01*
X0093635Y0062245D01*
X0095450Y0061493D01*
X0097416Y0061493D01*
X0099231Y0062245D01*
X0099381Y0062394D02*
X0100490Y0062394D01*
X0100379Y0063393D02*
X0101489Y0063393D01*
X0100935Y0064391D02*
X0102233Y0064391D01*
X0102233Y0065390D02*
X0101348Y0065390D01*
X0101373Y0066388D02*
X0102233Y0066388D01*
X0102166Y0067387D02*
X0101373Y0067387D01*
X0101449Y0068385D02*
X0100972Y0068385D01*
X0101237Y0069384D02*
X0100469Y0069384D01*
X0101408Y0070382D02*
X0099470Y0070382D01*
X0102068Y0071381D02*
X0061934Y0071381D01*
X0063908Y0070382D02*
X0083396Y0070382D01*
X0083635Y0070621D02*
X0082245Y0069231D01*
X0081493Y0067416D01*
X0081493Y0065450D01*
X0082245Y0063635D01*
X0083635Y0062245D01*
X0085450Y0061493D01*
X0087416Y0061493D01*
X0089231Y0062245D01*
X0090621Y0063635D01*
X0091373Y0065450D01*
X0091373Y0067416D01*
X0090621Y0069231D01*
X0089231Y0070621D01*
X0087416Y0071373D01*
X0085450Y0071373D01*
X0083635Y0070621D01*
X0082398Y0069384D02*
X0065637Y0069384D01*
X0066829Y0068385D02*
X0081895Y0068385D01*
X0081493Y0067387D02*
X0067827Y0067387D01*
X0068826Y0066388D02*
X0081493Y0066388D01*
X0081518Y0065390D02*
X0069527Y0065390D01*
X0070103Y0064391D02*
X0081932Y0064391D01*
X0082487Y0063393D02*
X0070680Y0063393D01*
X0071256Y0062394D02*
X0083485Y0062394D01*
X0089381Y0062394D02*
X0093485Y0062394D01*
X0092487Y0063393D02*
X0090379Y0063393D01*
X0090935Y0064391D02*
X0091932Y0064391D01*
X0091518Y0065390D02*
X0091348Y0065390D01*
X0091373Y0066388D02*
X0091493Y0066388D01*
X0091493Y0067387D02*
X0091373Y0067387D01*
X0090972Y0068385D02*
X0091895Y0068385D01*
X0092398Y0069384D02*
X0090469Y0069384D01*
X0089470Y0070382D02*
X0093396Y0070382D01*
X0103933Y0069433D02*
X0103933Y0063433D01*
X0091493Y0052409D02*
X0091373Y0052409D01*
X0091373Y0051411D02*
X0091493Y0051411D01*
X0091509Y0050412D02*
X0091357Y0050412D01*
X0090944Y0049414D02*
X0091922Y0049414D01*
X0092464Y0048415D02*
X0090402Y0048415D01*
X0089403Y0047417D02*
X0093463Y0047417D01*
X0083463Y0047417D02*
X0072366Y0047417D01*
X0072366Y0048415D02*
X0082464Y0048415D01*
X0081922Y0049414D02*
X0072366Y0049414D01*
X0072366Y0050412D02*
X0081509Y0050412D01*
X0072366Y0040427D02*
X0201311Y0040427D01*
X0201311Y0039429D02*
X0072366Y0039429D01*
X0072366Y0038430D02*
X0201311Y0038430D01*
X0194417Y0042424D02*
X0193449Y0042424D01*
X0193449Y0043423D02*
X0194417Y0043423D01*
X0194417Y0044421D02*
X0193449Y0044421D01*
X0193449Y0045420D02*
X0194417Y0045420D01*
X0194417Y0046418D02*
X0193449Y0046418D01*
X0190033Y0043423D02*
X0187409Y0043423D01*
X0188240Y0044421D02*
X0189332Y0044421D01*
X0188915Y0045420D02*
X0188653Y0045420D01*
X0188666Y0048415D02*
X0188905Y0048415D01*
X0189316Y0049414D02*
X0188253Y0049414D01*
X0187440Y0050412D02*
X0190002Y0050412D01*
X0191181Y0051411D02*
X0186032Y0051411D01*
X0185957Y0042424D02*
X0191240Y0042424D01*
X0210610Y0042424D02*
X0255957Y0042424D01*
X0255957Y0041426D02*
X0210610Y0041426D01*
X0210610Y0040427D02*
X0255957Y0040427D01*
X0255957Y0039429D02*
X0210610Y0039429D01*
X0210610Y0038430D02*
X0255957Y0038430D01*
X0255957Y0043423D02*
X0210610Y0043423D01*
X0210610Y0044421D02*
X0255957Y0044421D01*
X0255957Y0046418D02*
X0210610Y0046418D01*
X0213564Y0064391D02*
X0213831Y0064391D01*
X0213831Y0065390D02*
X0212565Y0065390D01*
X0211567Y0066388D02*
X0213831Y0066388D01*
X0213831Y0067387D02*
X0210617Y0067387D01*
X0210617Y0068385D02*
X0213831Y0068385D01*
X0213831Y0069384D02*
X0210617Y0069384D01*
X0210617Y0070382D02*
X0213831Y0070382D01*
X0213831Y0071381D02*
X0210617Y0071381D01*
X0210617Y0072379D02*
X0217783Y0072379D01*
X0217783Y0073378D02*
X0218783Y0073378D01*
X0218783Y0074377D02*
X0217783Y0074377D01*
X0217783Y0075375D02*
X0218783Y0075375D01*
X0218783Y0076374D02*
X0217783Y0076374D01*
X0217783Y0077372D02*
X0218783Y0077372D01*
X0218783Y0078371D02*
X0217783Y0078371D01*
X0217783Y0079369D02*
X0218783Y0079369D01*
X0218783Y0080368D02*
X0217783Y0080368D01*
X0217783Y0081366D02*
X0218783Y0081366D01*
X0218783Y0082365D02*
X0217783Y0082365D01*
X0214525Y0082365D02*
X0210677Y0082365D01*
X0210617Y0081366D02*
X0213894Y0081366D01*
X0213831Y0080368D02*
X0210617Y0080368D01*
X0210617Y0079369D02*
X0213831Y0079369D01*
X0213831Y0078371D02*
X0210617Y0078371D01*
X0210617Y0077372D02*
X0213831Y0077372D01*
X0213831Y0076374D02*
X0210617Y0076374D01*
X0210617Y0075375D02*
X0213831Y0075375D01*
X0213831Y0074377D02*
X0210617Y0074377D01*
X0210617Y0073378D02*
X0213831Y0073378D01*
X0218784Y0072379D02*
X0224131Y0072379D01*
X0224131Y0071381D02*
X0222736Y0071381D01*
X0222736Y0070382D02*
X0224131Y0070382D01*
X0224131Y0069384D02*
X0222736Y0069384D01*
X0222736Y0068385D02*
X0224131Y0068385D01*
X0224131Y0067387D02*
X0222736Y0067387D01*
X0222736Y0066388D02*
X0224131Y0066388D01*
X0224131Y0065390D02*
X0222736Y0065390D01*
X0222736Y0064391D02*
X0224131Y0064391D01*
X0224131Y0073378D02*
X0222736Y0073378D01*
X0222736Y0074377D02*
X0224131Y0074377D01*
X0224131Y0075375D02*
X0222736Y0075375D01*
X0222736Y0076374D02*
X0224131Y0076374D01*
X0224131Y0077372D02*
X0222736Y0077372D01*
X0222736Y0078371D02*
X0224131Y0078371D01*
X0224131Y0079369D02*
X0222736Y0079369D01*
X0222736Y0080368D02*
X0224131Y0080368D01*
X0224131Y0081366D02*
X0222673Y0081366D01*
X0222042Y0082365D02*
X0224949Y0082365D01*
X0226099Y0083363D02*
X0211115Y0083363D01*
X0211129Y0084362D02*
X0226099Y0084362D01*
X0224693Y0085360D02*
X0210760Y0085360D01*
X0209622Y0086359D02*
X0223960Y0086359D01*
X0223737Y0087357D02*
X0203133Y0087357D01*
X0203133Y0086359D02*
X0207244Y0086359D01*
X0206106Y0085360D02*
X0203760Y0085360D01*
X0204129Y0084362D02*
X0205737Y0084362D01*
X0205751Y0083363D02*
X0204115Y0083363D01*
X0203677Y0082365D02*
X0206189Y0082365D01*
X0206249Y0081366D02*
X0202281Y0081366D01*
X0200585Y0081366D02*
X0170625Y0081366D01*
X0170585Y0082365D02*
X0199189Y0082365D01*
X0198751Y0083363D02*
X0170171Y0083363D01*
X0169433Y0084362D02*
X0198737Y0084362D01*
X0199106Y0085360D02*
X0167907Y0085360D01*
X0169284Y0088356D02*
X0199733Y0088356D01*
X0199733Y0089354D02*
X0170109Y0089354D01*
X0170523Y0090353D02*
X0199733Y0090353D01*
X0199733Y0091351D02*
X0170625Y0091351D01*
X0170591Y0092350D02*
X0199946Y0092350D01*
X0200944Y0093348D02*
X0170177Y0093348D01*
X0169448Y0094347D02*
X0199707Y0094347D01*
X0198965Y0095345D02*
X0190249Y0095345D01*
X0191248Y0096344D02*
X0198737Y0096344D01*
X0198891Y0097342D02*
X0192246Y0097342D01*
X0193245Y0098341D02*
X0199528Y0098341D01*
X0201935Y0099339D02*
X0194243Y0099339D01*
X0195242Y0100338D02*
X0202934Y0100338D01*
X0203932Y0101336D02*
X0196240Y0101336D01*
X0197239Y0102335D02*
X0204931Y0102335D01*
X0205929Y0103333D02*
X0198237Y0103333D01*
X0199236Y0104332D02*
X0206928Y0104332D01*
X0207926Y0105330D02*
X0200235Y0105330D01*
X0201233Y0106329D02*
X0208925Y0106329D01*
X0209923Y0107327D02*
X0202232Y0107327D01*
X0203230Y0108326D02*
X0221422Y0108326D01*
X0222420Y0109324D02*
X0204229Y0109324D01*
X0205227Y0110323D02*
X0223419Y0110323D01*
X0224237Y0111321D02*
X0206226Y0111321D01*
X0207224Y0112320D02*
X0224382Y0112320D01*
X0226933Y0111433D02*
X0221933Y0106433D01*
X0211433Y0106433D01*
X0201433Y0096433D01*
X0204129Y0096533D02*
X0204129Y0096725D01*
X0212137Y0104733D01*
X0212329Y0104733D01*
X0204129Y0096533D01*
X0204746Y0097342D02*
X0204938Y0097342D01*
X0205745Y0098341D02*
X0205937Y0098341D01*
X0206743Y0099339D02*
X0206935Y0099339D01*
X0207742Y0100338D02*
X0207934Y0100338D01*
X0208740Y0101336D02*
X0208932Y0101336D01*
X0209739Y0102335D02*
X0209931Y0102335D01*
X0210737Y0103333D02*
X0210929Y0103333D01*
X0211736Y0104332D02*
X0211928Y0104332D01*
X0214433Y0104433D02*
X0223933Y0104433D01*
X0230933Y0111433D01*
X0233391Y0110323D02*
X0233639Y0110323D01*
X0234638Y0109324D02*
X0232637Y0109324D01*
X0230230Y0108326D02*
X0235636Y0108326D01*
X0236933Y0109433D02*
X0247433Y0109433D01*
X0244733Y0115315D02*
X0243888Y0115315D01*
X0244129Y0116314D02*
X0244148Y0116314D01*
X0246433Y0116433D02*
X0225433Y0137433D01*
X0219433Y0133433D02*
X0174433Y0133433D01*
X0174037Y0131733D02*
X0175137Y0131733D01*
X0214420Y0131733D01*
X0214320Y0131633D01*
X0174137Y0131633D01*
X0174037Y0131733D01*
X0173433Y0129933D02*
X0168433Y0134933D01*
X0173433Y0129933D02*
X0216433Y0129933D01*
X0218446Y0131733D02*
X0218729Y0131733D01*
X0218737Y0131725D01*
X0218737Y0131416D01*
X0218719Y0131460D01*
X0218446Y0131733D01*
X0219433Y0133433D02*
X0221433Y0131433D01*
X0223879Y0130293D02*
X0230169Y0130293D01*
X0230089Y0129295D02*
X0223107Y0129295D01*
X0219759Y0129295D02*
X0219087Y0129295D01*
X0231433Y0126933D02*
X0202933Y0126933D01*
X0203626Y0124302D02*
X0230740Y0124302D01*
X0232126Y0124302D02*
X0236160Y0124302D01*
X0235161Y0125301D02*
X0233613Y0125301D01*
X0234089Y0126299D02*
X0234163Y0126299D01*
X0238886Y0118311D02*
X0239151Y0118311D01*
X0238879Y0117312D02*
X0238125Y0117312D01*
X0229232Y0107327D02*
X0266923Y0107327D01*
X0265925Y0106329D02*
X0228233Y0106329D01*
X0229191Y0105330D02*
X0264926Y0105330D01*
X0263928Y0104332D02*
X0230272Y0104332D01*
X0230629Y0103333D02*
X0262929Y0103333D01*
X0261931Y0102335D02*
X0230603Y0102335D01*
X0230149Y0101336D02*
X0260932Y0101336D01*
X0259934Y0100338D02*
X0229633Y0100338D01*
X0229633Y0099339D02*
X0258935Y0099339D01*
X0257937Y0098341D02*
X0229633Y0098341D01*
X0229633Y0097342D02*
X0256938Y0097342D01*
X0255940Y0096344D02*
X0229633Y0096344D01*
X0229633Y0095345D02*
X0254941Y0095345D01*
X0253943Y0094347D02*
X0229633Y0094347D01*
X0229633Y0093348D02*
X0252944Y0093348D01*
X0251946Y0092350D02*
X0229633Y0092350D01*
X0229633Y0091351D02*
X0232262Y0091351D01*
X0231264Y0090353D02*
X0229633Y0090353D01*
X0229633Y0089354D02*
X0230265Y0089354D01*
X0227933Y0088933D02*
X0227933Y0102933D01*
X0225717Y0101336D02*
X0224176Y0101336D01*
X0224460Y0101219D02*
X0223469Y0101629D01*
X0222397Y0101629D01*
X0221406Y0101219D01*
X0220647Y0100460D01*
X0220237Y0099469D01*
X0220237Y0098641D01*
X0218225Y0096629D01*
X0217397Y0096629D01*
X0216406Y0096219D01*
X0215647Y0095460D01*
X0215237Y0094469D01*
X0215237Y0093397D01*
X0215647Y0092406D01*
X0216406Y0091647D01*
X0217397Y0091237D01*
X0218469Y0091237D01*
X0219460Y0091647D01*
X0220219Y0092406D01*
X0220629Y0093397D01*
X0220629Y0094225D01*
X0222641Y0096237D01*
X0223469Y0096237D01*
X0224460Y0096647D01*
X0225219Y0097406D01*
X0225629Y0098397D01*
X0225629Y0099469D01*
X0225219Y0100460D01*
X0224460Y0101219D01*
X0225269Y0100338D02*
X0226233Y0100338D01*
X0226233Y0099339D02*
X0225629Y0099339D01*
X0225606Y0098341D02*
X0226233Y0098341D01*
X0226233Y0097342D02*
X0225155Y0097342D01*
X0226233Y0096344D02*
X0223727Y0096344D01*
X0221749Y0095345D02*
X0226233Y0095345D01*
X0226233Y0094347D02*
X0220751Y0094347D01*
X0220609Y0093348D02*
X0226233Y0093348D01*
X0226233Y0092350D02*
X0220163Y0092350D01*
X0218745Y0091351D02*
X0226233Y0091351D01*
X0226233Y0090353D02*
X0203133Y0090353D01*
X0203133Y0089354D02*
X0224541Y0089354D01*
X0223897Y0088356D02*
X0203133Y0088356D01*
X0203755Y0091351D02*
X0217121Y0091351D01*
X0215704Y0092350D02*
X0204754Y0092350D01*
X0205752Y0093348D02*
X0215257Y0093348D01*
X0215237Y0094347D02*
X0206751Y0094347D01*
X0207749Y0095345D02*
X0215600Y0095345D01*
X0216708Y0096344D02*
X0208748Y0096344D01*
X0209746Y0097342D02*
X0218938Y0097342D01*
X0219937Y0098341D02*
X0210745Y0098341D01*
X0211743Y0099339D02*
X0220237Y0099339D01*
X0220597Y0100338D02*
X0212742Y0100338D01*
X0213740Y0101336D02*
X0221690Y0101336D01*
X0222933Y0098933D02*
X0217933Y0093933D01*
X0226433Y0087433D02*
X0227933Y0088933D01*
X0206249Y0080368D02*
X0170529Y0080368D01*
X0170116Y0079369D02*
X0206249Y0079369D01*
X0206249Y0078371D02*
X0169299Y0078371D01*
X0169269Y0098341D02*
X0188437Y0098341D01*
X0189435Y0099339D02*
X0170103Y0099339D01*
X0170517Y0100338D02*
X0190434Y0100338D01*
X0191432Y0101336D02*
X0170625Y0101336D01*
X0170597Y0102335D02*
X0192431Y0102335D01*
X0193429Y0103333D02*
X0170183Y0103333D01*
X0169463Y0104332D02*
X0172221Y0104332D01*
X0163805Y0104733D02*
X0162879Y0103808D01*
X0162241Y0102267D01*
X0162241Y0100599D01*
X0162879Y0099058D01*
X0163805Y0098133D01*
X0162637Y0098133D01*
X0156037Y0104733D01*
X0163805Y0104733D01*
X0163403Y0104332D02*
X0156438Y0104332D01*
X0157437Y0103333D02*
X0162683Y0103333D01*
X0162269Y0102335D02*
X0158435Y0102335D01*
X0159434Y0101336D02*
X0162241Y0101336D01*
X0162349Y0100338D02*
X0160432Y0100338D01*
X0161431Y0099339D02*
X0162763Y0099339D01*
X0162430Y0098341D02*
X0163597Y0098341D01*
X0170511Y0110323D02*
X0200419Y0110323D01*
X0201417Y0111321D02*
X0170625Y0111321D01*
X0170603Y0112320D02*
X0202416Y0112320D01*
X0203414Y0113318D02*
X0170190Y0113318D01*
X0190630Y0114317D02*
X0204413Y0114317D01*
X0205411Y0115315D02*
X0191388Y0115315D01*
X0214433Y0104433D02*
X0201433Y0091433D01*
X0201433Y0083933D01*
X0214739Y0102335D02*
X0225263Y0102335D01*
X0262452Y0083363D02*
X0341274Y0083363D01*
X0338403Y0065390D02*
X0334463Y0065390D01*
X0335461Y0064391D02*
X0337405Y0064391D01*
X0336898Y0063393D02*
X0335968Y0063393D01*
X0336373Y0062394D02*
X0336493Y0062394D01*
X0336493Y0061396D02*
X0336373Y0061396D01*
X0336351Y0060397D02*
X0336515Y0060397D01*
X0336928Y0059399D02*
X0335938Y0059399D01*
X0335387Y0058400D02*
X0337479Y0058400D01*
X0338478Y0057402D02*
X0334388Y0057402D01*
X0333094Y0056403D02*
X0339772Y0056403D01*
X0337994Y0055405D02*
X0334872Y0055405D01*
X0335750Y0054406D02*
X0337116Y0054406D01*
X0336565Y0053408D02*
X0336301Y0053408D01*
X0336285Y0049414D02*
X0336581Y0049414D01*
X0337148Y0048415D02*
X0335718Y0048415D01*
X0334820Y0047417D02*
X0338046Y0047417D01*
X0339910Y0046418D02*
X0332956Y0046418D01*
X0331917Y0046418D02*
X0330949Y0046418D01*
X0330949Y0047417D02*
X0331917Y0047417D01*
X0331917Y0048415D02*
X0330949Y0048415D01*
X0330949Y0049414D02*
X0331917Y0049414D01*
X0331917Y0050412D02*
X0330949Y0050412D01*
X0329910Y0046418D02*
X0322956Y0046418D01*
X0321917Y0046418D02*
X0320949Y0046418D01*
X0320949Y0047417D02*
X0321917Y0047417D01*
X0321917Y0048415D02*
X0320949Y0048415D01*
X0320949Y0049414D02*
X0321917Y0049414D01*
X0321917Y0050412D02*
X0320949Y0050412D01*
X0319910Y0046418D02*
X0265256Y0046418D01*
X0265256Y0047417D02*
X0318046Y0047417D01*
X0317148Y0048415D02*
X0265256Y0048415D01*
X0265256Y0049414D02*
X0316581Y0049414D01*
X0316289Y0050412D02*
X0265256Y0050412D01*
X0265256Y0044421D02*
X0394201Y0044421D01*
X0394201Y0043423D02*
X0265256Y0043423D01*
X0265256Y0042424D02*
X0394201Y0042424D01*
X0394201Y0041426D02*
X0265256Y0041426D01*
X0265256Y0040427D02*
X0394201Y0040427D01*
X0394201Y0039429D02*
X0265256Y0039429D01*
X0265256Y0038430D02*
X0394201Y0038430D01*
X0394201Y0045420D02*
X0261106Y0045420D01*
X0323094Y0056403D02*
X0329772Y0056403D01*
X0328478Y0057402D02*
X0324388Y0057402D01*
X0325387Y0058400D02*
X0327479Y0058400D01*
X0326928Y0059399D02*
X0325938Y0059399D01*
X0326351Y0060397D02*
X0326515Y0060397D01*
X0326493Y0061396D02*
X0326373Y0061396D01*
X0326373Y0062394D02*
X0326493Y0062394D01*
X0326898Y0063393D02*
X0325968Y0063393D01*
X0325461Y0064391D02*
X0327405Y0064391D01*
X0328403Y0065390D02*
X0324463Y0065390D01*
X0324872Y0055405D02*
X0327994Y0055405D01*
X0327116Y0054406D02*
X0325750Y0054406D01*
X0326301Y0053408D02*
X0326565Y0053408D01*
X0326581Y0049414D02*
X0326285Y0049414D01*
X0325718Y0048415D02*
X0327148Y0048415D01*
X0328046Y0047417D02*
X0324820Y0047417D01*
X0341917Y0051411D02*
X0350949Y0051411D01*
X0350949Y0050412D02*
X0351917Y0050412D01*
X0351917Y0049414D02*
X0350949Y0049414D01*
X0350949Y0048415D02*
X0351917Y0048415D01*
X0351917Y0047417D02*
X0350949Y0047417D01*
X0350949Y0046418D02*
X0351917Y0046418D01*
X0352956Y0046418D02*
X0394201Y0046418D01*
X0394201Y0047417D02*
X0364403Y0047417D01*
X0365402Y0048415D02*
X0394201Y0048415D01*
X0394201Y0049414D02*
X0365944Y0049414D01*
X0366357Y0050412D02*
X0394201Y0050412D01*
X0394201Y0051411D02*
X0366373Y0051411D01*
X0366373Y0052409D02*
X0394201Y0052409D01*
X0394201Y0053408D02*
X0365962Y0053408D01*
X0365446Y0054406D02*
X0394201Y0054406D01*
X0358418Y0055405D02*
X0354872Y0055405D01*
X0355750Y0054406D02*
X0357420Y0054406D01*
X0356904Y0053408D02*
X0356301Y0053408D01*
X0356285Y0049414D02*
X0356922Y0049414D01*
X0357464Y0048415D02*
X0355718Y0048415D01*
X0354820Y0047417D02*
X0358463Y0047417D01*
X0310750Y0099339D02*
X0267669Y0099339D01*
X0269239Y0102335D02*
X0285432Y0102335D01*
X0285432Y0103333D02*
X0270237Y0103333D01*
X0271236Y0104332D02*
X0285432Y0104332D01*
X0285432Y0105330D02*
X0272234Y0105330D01*
X0273233Y0106329D02*
X0285432Y0106329D01*
X0285432Y0107327D02*
X0274232Y0107327D01*
X0275230Y0108326D02*
X0285432Y0108326D01*
X0285432Y0109324D02*
X0276229Y0109324D01*
X0277227Y0110323D02*
X0285432Y0110323D01*
X0285969Y0111321D02*
X0278226Y0111321D01*
X0279224Y0112320D02*
X0285222Y0112320D01*
X0285132Y0113318D02*
X0280133Y0113318D01*
X0280133Y0114317D02*
X0285132Y0114317D01*
X0285132Y0115315D02*
X0280133Y0115315D01*
X0280133Y0116314D02*
X0289085Y0116314D01*
X0289085Y0117312D02*
X0290085Y0117312D01*
X0290085Y0116314D02*
X0294733Y0116314D01*
X0294733Y0117312D02*
X0294037Y0117312D01*
X0294037Y0118311D02*
X0294733Y0118311D01*
X0294733Y0119310D02*
X0294037Y0119310D01*
X0294011Y0120308D02*
X0294733Y0120308D01*
X0294733Y0121307D02*
X0293480Y0121307D01*
X0294733Y0122305D02*
X0280133Y0122305D01*
X0280133Y0121307D02*
X0285689Y0121307D01*
X0285159Y0120308D02*
X0280133Y0120308D01*
X0280133Y0119310D02*
X0285132Y0119310D01*
X0285132Y0118311D02*
X0280133Y0118311D01*
X0280133Y0117312D02*
X0285132Y0117312D01*
X0289085Y0118311D02*
X0290085Y0118311D01*
X0290085Y0119310D02*
X0289085Y0119310D01*
X0289085Y0120308D02*
X0290085Y0120308D01*
X0290085Y0121307D02*
X0289085Y0121307D01*
X0287526Y0123685D02*
X0287959Y0123935D01*
X0288313Y0124288D01*
X0288563Y0124721D01*
X0288692Y0125205D01*
X0288692Y0126244D01*
X0284822Y0126244D01*
X0284822Y0123555D01*
X0287043Y0123555D01*
X0287526Y0123685D01*
X0288320Y0124302D02*
X0294733Y0124302D01*
X0294733Y0123304D02*
X0280133Y0123304D01*
X0280133Y0124302D02*
X0280946Y0124302D01*
X0280954Y0124288D02*
X0281307Y0123935D01*
X0281740Y0123685D01*
X0282224Y0123555D01*
X0284444Y0123555D01*
X0284444Y0126244D01*
X0284822Y0126244D01*
X0284822Y0126622D01*
X0288692Y0126622D01*
X0288692Y0127662D01*
X0288563Y0128145D01*
X0288313Y0128578D01*
X0287959Y0128931D01*
X0287956Y0128933D01*
X0287959Y0128935D01*
X0288313Y0129288D01*
X0288563Y0129721D01*
X0288692Y0130205D01*
X0288692Y0131244D01*
X0284822Y0131244D01*
X0284822Y0128555D01*
X0284822Y0126622D01*
X0284444Y0126622D01*
X0284444Y0126244D01*
X0280574Y0126244D01*
X0280574Y0125205D01*
X0280703Y0124721D01*
X0280954Y0124288D01*
X0280574Y0125301D02*
X0280133Y0125301D01*
X0280133Y0126299D02*
X0284444Y0126299D01*
X0284444Y0126622D02*
X0280574Y0126622D01*
X0280574Y0127662D01*
X0280703Y0128145D01*
X0280954Y0128578D01*
X0281307Y0128931D01*
X0281310Y0128933D01*
X0281307Y0128935D01*
X0280954Y0129288D01*
X0280703Y0129721D01*
X0280574Y0130205D01*
X0280574Y0131244D01*
X0284444Y0131244D01*
X0284444Y0131622D01*
X0280574Y0131622D01*
X0280574Y0132662D01*
X0280703Y0133145D01*
X0280954Y0133578D01*
X0281307Y0133931D01*
X0281310Y0133933D01*
X0281307Y0133935D01*
X0280954Y0134288D01*
X0280703Y0134721D01*
X0280574Y0135205D01*
X0280574Y0136244D01*
X0284444Y0136244D01*
X0284444Y0136622D01*
X0280574Y0136622D01*
X0280574Y0137662D01*
X0280703Y0138145D01*
X0280954Y0138578D01*
X0281307Y0138931D01*
X0281310Y0138933D01*
X0281307Y0138935D01*
X0280954Y0139288D01*
X0280703Y0139721D01*
X0280574Y0140205D01*
X0280574Y0141244D01*
X0284444Y0141244D01*
X0284444Y0141622D01*
X0280574Y0141622D01*
X0280574Y0142662D01*
X0280703Y0143145D01*
X0280954Y0143578D01*
X0281307Y0143931D01*
X0281740Y0144182D01*
X0282224Y0144311D01*
X0284444Y0144311D01*
X0284444Y0141622D01*
X0284822Y0141622D01*
X0284822Y0144311D01*
X0287043Y0144311D01*
X0287526Y0144182D01*
X0287959Y0143931D01*
X0288313Y0143578D01*
X0288563Y0143145D01*
X0288692Y0142662D01*
X0288692Y0141622D01*
X0284822Y0141622D01*
X0284822Y0141244D01*
X0284822Y0139311D01*
X0284822Y0136622D01*
X0288692Y0136622D01*
X0288692Y0137662D01*
X0288563Y0138145D01*
X0288313Y0138578D01*
X0287959Y0138931D01*
X0287956Y0138933D01*
X0287959Y0138935D01*
X0288313Y0139288D01*
X0288563Y0139721D01*
X0288692Y0140205D01*
X0288692Y0141244D01*
X0284822Y0141244D01*
X0284444Y0141244D01*
X0284444Y0136622D01*
X0284822Y0136622D01*
X0284822Y0136244D01*
X0284822Y0133555D01*
X0284822Y0131622D01*
X0288692Y0131622D01*
X0288692Y0132662D01*
X0288563Y0133145D01*
X0288313Y0133578D01*
X0287959Y0133931D01*
X0287956Y0133933D01*
X0287959Y0133935D01*
X0288313Y0134288D01*
X0288563Y0134721D01*
X0288692Y0135205D01*
X0288692Y0136244D01*
X0284822Y0136244D01*
X0284444Y0136244D01*
X0284444Y0131622D01*
X0284822Y0131622D01*
X0284822Y0131244D01*
X0284444Y0131244D01*
X0284444Y0126622D01*
X0284822Y0126299D02*
X0294733Y0126299D01*
X0294733Y0125301D02*
X0288692Y0125301D01*
X0288692Y0127298D02*
X0294733Y0127298D01*
X0294733Y0128296D02*
X0288475Y0128296D01*
X0288316Y0129295D02*
X0294890Y0129295D01*
X0295889Y0130293D02*
X0288692Y0130293D01*
X0288692Y0132290D02*
X0297733Y0132290D01*
X0297733Y0133289D02*
X0288480Y0133289D01*
X0288311Y0134287D02*
X0297733Y0134287D01*
X0297733Y0135286D02*
X0288692Y0135286D01*
X0288692Y0137283D02*
X0297271Y0137283D01*
X0297733Y0136284D02*
X0284822Y0136284D01*
X0284444Y0136284D02*
X0280133Y0136284D01*
X0280133Y0135286D02*
X0280574Y0135286D01*
X0280955Y0134287D02*
X0280133Y0134287D01*
X0280133Y0133289D02*
X0280787Y0133289D01*
X0280574Y0132290D02*
X0280133Y0132290D01*
X0280133Y0131292D02*
X0284444Y0131292D01*
X0284822Y0131292D02*
X0296888Y0131292D01*
X0299433Y0131433D02*
X0296433Y0128433D01*
X0296433Y0113933D01*
X0289585Y0107085D01*
X0289585Y0106433D01*
X0294037Y0114317D02*
X0294413Y0114317D01*
X0294733Y0115315D02*
X0294037Y0115315D01*
X0307434Y0119310D02*
X0312744Y0119310D01*
X0311981Y0120308D02*
X0307434Y0120308D01*
X0306753Y0121307D02*
X0311737Y0121307D01*
X0311876Y0122305D02*
X0305894Y0122305D01*
X0306893Y0123304D02*
X0312249Y0123304D01*
X0316617Y0123304D02*
X0317369Y0123304D01*
X0326497Y0123304D02*
X0327369Y0123304D01*
X0333903Y0116314D02*
X0411242Y0116314D01*
X0412240Y0115315D02*
X0332904Y0115315D01*
X0331906Y0114317D02*
X0413239Y0114317D01*
X0410243Y0117312D02*
X0334901Y0117312D01*
X0335900Y0118311D02*
X0393951Y0118311D01*
X0405915Y0118311D02*
X0409245Y0118311D01*
X0407244Y0119310D02*
X0406054Y0119310D01*
X0406054Y0120308D02*
X0406481Y0120308D01*
X0406237Y0121307D02*
X0406054Y0121307D01*
X0428125Y0132434D02*
X0428734Y0131825D01*
X0428734Y0136041D01*
X0428125Y0135432D01*
X0427102Y0135432D01*
X0427102Y0132434D01*
X0428125Y0132434D01*
X0428269Y0132290D02*
X0428734Y0132290D01*
X0428734Y0133289D02*
X0427102Y0133289D01*
X0427102Y0134287D02*
X0428734Y0134287D01*
X0428734Y0135286D02*
X0427102Y0135286D01*
X0423933Y0139585D02*
X0422585Y0140933D01*
X0421933Y0140933D01*
X0418796Y0141277D02*
X0418159Y0141277D01*
X0428589Y0143274D02*
X0428734Y0143274D01*
X0419181Y0149265D02*
X0418633Y0149265D01*
X0415233Y0153259D02*
X0415163Y0153259D01*
X0391192Y0138281D02*
X0355870Y0138281D01*
X0354872Y0137283D02*
X0390194Y0137283D01*
X0389195Y0136284D02*
X0353873Y0136284D01*
X0352875Y0135286D02*
X0388197Y0135286D01*
X0387198Y0134287D02*
X0351876Y0134287D01*
X0350878Y0133289D02*
X0386200Y0133289D01*
X0385201Y0132290D02*
X0380288Y0132290D01*
X0377578Y0132290D02*
X0349879Y0132290D01*
X0348881Y0131292D02*
X0376578Y0131292D01*
X0376237Y0130293D02*
X0347882Y0130293D01*
X0346884Y0129295D02*
X0376279Y0129295D01*
X0376757Y0128296D02*
X0345885Y0128296D01*
X0342703Y0131292D02*
X0311992Y0131292D01*
X0311992Y0132290D02*
X0343701Y0132290D01*
X0344700Y0133289D02*
X0327378Y0133289D01*
X0328376Y0134287D02*
X0345698Y0134287D01*
X0346697Y0135286D02*
X0329375Y0135286D01*
X0330373Y0136284D02*
X0347695Y0136284D01*
X0348694Y0137283D02*
X0336779Y0137283D01*
X0337070Y0138281D02*
X0349692Y0138281D01*
X0350691Y0139280D02*
X0337070Y0139280D01*
X0337070Y0140278D02*
X0351689Y0140278D01*
X0352688Y0141277D02*
X0337070Y0141277D01*
X0337070Y0142275D02*
X0353686Y0142275D01*
X0354685Y0143274D02*
X0337070Y0143274D01*
X0336787Y0144272D02*
X0355683Y0144272D01*
X0341704Y0130293D02*
X0337069Y0130293D01*
X0337070Y0129295D02*
X0340706Y0129295D01*
X0339707Y0128296D02*
X0337070Y0128296D01*
X0337070Y0127298D02*
X0338709Y0127298D01*
X0337710Y0126299D02*
X0337070Y0126299D01*
X0316796Y0129295D02*
X0311495Y0129295D01*
X0311992Y0130293D02*
X0316797Y0130293D01*
X0315988Y0133289D02*
X0311777Y0133289D01*
X0308233Y0131433D02*
X0299433Y0131433D01*
X0299433Y0138933D01*
X0297072Y0140278D02*
X0288692Y0140278D01*
X0288304Y0139280D02*
X0296737Y0139280D01*
X0296785Y0138281D02*
X0288484Y0138281D01*
X0284822Y0138281D02*
X0284444Y0138281D01*
X0284444Y0137283D02*
X0284822Y0137283D01*
X0284822Y0139280D02*
X0284444Y0139280D01*
X0284444Y0140278D02*
X0284822Y0140278D01*
X0284822Y0141277D02*
X0298046Y0141277D01*
X0298687Y0142275D02*
X0288692Y0142275D01*
X0288488Y0143274D02*
X0297688Y0143274D01*
X0296690Y0144272D02*
X0287187Y0144272D01*
X0284822Y0144272D02*
X0284444Y0144272D01*
X0284444Y0143274D02*
X0284822Y0143274D01*
X0284822Y0142275D02*
X0284444Y0142275D01*
X0284444Y0141277D02*
X0280133Y0141277D01*
X0280133Y0142275D02*
X0280574Y0142275D01*
X0280778Y0143274D02*
X0280178Y0143274D01*
X0281176Y0144272D02*
X0282079Y0144272D01*
X0280574Y0140278D02*
X0280133Y0140278D01*
X0280133Y0139280D02*
X0280962Y0139280D01*
X0280782Y0138281D02*
X0280133Y0138281D01*
X0280133Y0137283D02*
X0280574Y0137283D01*
X0284444Y0135286D02*
X0284822Y0135286D01*
X0284822Y0134287D02*
X0284444Y0134287D01*
X0284444Y0133289D02*
X0284822Y0133289D01*
X0284822Y0132290D02*
X0284444Y0132290D01*
X0284444Y0130293D02*
X0284822Y0130293D01*
X0284822Y0129295D02*
X0284444Y0129295D01*
X0284444Y0128296D02*
X0284822Y0128296D01*
X0284822Y0127298D02*
X0284444Y0127298D01*
X0284444Y0125301D02*
X0284822Y0125301D01*
X0284822Y0124302D02*
X0284444Y0124302D01*
X0280574Y0127298D02*
X0280133Y0127298D01*
X0280133Y0128296D02*
X0280791Y0128296D01*
X0280950Y0129295D02*
X0280133Y0129295D01*
X0280133Y0130293D02*
X0280574Y0130293D01*
X0301596Y0137283D02*
X0303679Y0137283D01*
X0302681Y0138281D02*
X0302081Y0138281D01*
X0304474Y0141296D02*
X0299037Y0146733D01*
X0299229Y0146733D01*
X0304474Y0141488D01*
X0304474Y0141296D01*
X0303687Y0142275D02*
X0303495Y0142275D01*
X0302688Y0143274D02*
X0302496Y0143274D01*
X0301690Y0144272D02*
X0301498Y0144272D01*
X0300691Y0145271D02*
X0300499Y0145271D01*
X0299693Y0146269D02*
X0299501Y0146269D01*
X0299933Y0148433D02*
X0280433Y0148433D01*
X0268532Y0145271D02*
X0219999Y0145271D01*
X0158202Y0152260D02*
X0158010Y0152260D01*
X0145855Y0156254D02*
X0118659Y0156254D01*
X0147065Y0141277D02*
X0150046Y0141277D01*
X0101433Y0123933D02*
X0101433Y0118433D01*
X0074433Y0091433D01*
X0071962Y0090353D02*
X0071408Y0090353D01*
X0071433Y0086433D02*
X0096433Y0086433D01*
X0073174Y0084362D02*
X0133433Y0084362D01*
X0132028Y0102335D02*
X0114739Y0102335D01*
X0115737Y0103333D02*
X0132360Y0103333D01*
X0132987Y0104332D02*
X0118145Y0104332D01*
X0098907Y0118311D02*
X0090102Y0118311D01*
X0090102Y0117312D02*
X0097908Y0117312D01*
X0096910Y0116314D02*
X0090102Y0116314D01*
X0090102Y0115315D02*
X0095911Y0115315D01*
X0094913Y0114317D02*
X0090102Y0114317D01*
X0090102Y0113318D02*
X0093914Y0113318D01*
X0092916Y0112320D02*
X0090102Y0112320D01*
X0090102Y0111321D02*
X0091917Y0111321D01*
X0090919Y0110323D02*
X0090102Y0110323D01*
X0090102Y0119310D02*
X0099733Y0119310D01*
X0099733Y0120308D02*
X0090102Y0120308D01*
X0090102Y0121307D02*
X0099733Y0121307D01*
X0099248Y0122305D02*
X0090102Y0122305D01*
X0090102Y0123304D02*
X0098776Y0123304D01*
X0098737Y0124302D02*
X0090102Y0124302D01*
X0090102Y0125301D02*
X0099081Y0125301D01*
X0100100Y0126299D02*
X0090102Y0126299D01*
X0068763Y0103333D02*
X0037833Y0103333D01*
X0037833Y0102335D02*
X0069219Y0102335D01*
X0053628Y0106329D02*
X0046010Y0106329D01*
X0047280Y0107327D02*
X0052358Y0107327D01*
X0051500Y0108326D02*
X0048138Y0108326D01*
X0048551Y0109324D02*
X0051086Y0109324D01*
X0050753Y0110323D02*
X0048885Y0110323D01*
X0048885Y0111321D02*
X0050753Y0111321D01*
X0050753Y0112320D02*
X0048885Y0112320D01*
X0048481Y0113318D02*
X0051157Y0113318D01*
X0051571Y0114317D02*
X0048067Y0114317D01*
X0047110Y0115315D02*
X0052528Y0115315D01*
X0050124Y0116314D02*
X0045599Y0116314D01*
X0047515Y0118311D02*
X0037833Y0118311D01*
X0037833Y0117312D02*
X0048514Y0117312D01*
X0046517Y0119310D02*
X0037833Y0119310D01*
X0037833Y0120308D02*
X0045518Y0120308D01*
X0044520Y0121307D02*
X0037833Y0121307D01*
X0037833Y0122305D02*
X0040136Y0122305D01*
X0039137Y0123304D02*
X0037833Y0123304D01*
X0037833Y0124302D02*
X0038413Y0124302D01*
X0038000Y0125301D02*
X0037833Y0125301D01*
X0037833Y0128296D02*
X0037846Y0128296D01*
X0037833Y0129295D02*
X0038259Y0129295D01*
X0037833Y0130293D02*
X0038766Y0130293D01*
X0037833Y0131292D02*
X0039764Y0131292D01*
X0041598Y0132290D02*
X0037833Y0132290D01*
X0037833Y0137283D02*
X0041945Y0137283D01*
X0039908Y0138281D02*
X0037833Y0138281D01*
X0037833Y0139280D02*
X0038909Y0139280D01*
X0038319Y0140278D02*
X0037833Y0140278D01*
X0037833Y0141277D02*
X0037905Y0141277D01*
X0037833Y0144272D02*
X0037940Y0144272D01*
X0037833Y0145271D02*
X0038354Y0145271D01*
X0037833Y0146269D02*
X0038994Y0146269D01*
X0039992Y0147268D02*
X0037833Y0147268D01*
X0037833Y0148266D02*
X0042149Y0148266D01*
X0045374Y0149265D02*
X0037833Y0149265D01*
X0037833Y0150263D02*
X0046373Y0150263D01*
X0041394Y0153259D02*
X0037833Y0153259D01*
X0037833Y0154257D02*
X0039680Y0154257D01*
X0038681Y0155256D02*
X0037833Y0155256D01*
X0037833Y0156254D02*
X0038224Y0156254D01*
X0059958Y0154257D02*
X0083765Y0154257D01*
X0083765Y0153259D02*
X0069324Y0153259D01*
X0070520Y0152260D02*
X0083765Y0152260D01*
X0083765Y0151262D02*
X0071518Y0151262D01*
X0061413Y0156254D02*
X0083765Y0156254D01*
X0083765Y0155256D02*
X0060957Y0155256D01*
X0061827Y0157253D02*
X0083765Y0157253D01*
X0083765Y0158251D02*
X0061877Y0158251D01*
X0061877Y0159250D02*
X0083765Y0159250D01*
X0083765Y0160248D02*
X0061603Y0160248D01*
X0061189Y0161247D02*
X0083765Y0161247D01*
X0083765Y0162245D02*
X0060416Y0162245D01*
X0059349Y0163244D02*
X0083765Y0163244D01*
X0054590Y0132290D02*
X0045048Y0132290D01*
X0046882Y0131292D02*
X0052756Y0131292D01*
X0051758Y0130293D02*
X0047880Y0130293D01*
X0048386Y0129295D02*
X0051251Y0129295D01*
X0050838Y0128296D02*
X0048800Y0128296D01*
X0048885Y0127298D02*
X0050753Y0127298D01*
X0050753Y0126299D02*
X0048885Y0126299D01*
X0049487Y0125301D02*
X0050992Y0125301D01*
X0051405Y0124302D02*
X0050486Y0124302D01*
X0051484Y0123304D02*
X0052130Y0123304D01*
X0041047Y0116314D02*
X0037833Y0116314D01*
X0037833Y0115315D02*
X0039536Y0115315D01*
X0038578Y0114317D02*
X0037833Y0114317D01*
X0037833Y0113318D02*
X0038165Y0113318D01*
X0038094Y0109324D02*
X0037833Y0109324D01*
X0037833Y0108326D02*
X0038508Y0108326D01*
X0037833Y0107327D02*
X0039366Y0107327D01*
X0040635Y0106329D02*
X0037833Y0106329D01*
X0299933Y0148433D02*
X0306933Y0141433D01*
X0308233Y0141433D01*
X0306759Y0144011D02*
X0310235Y0144011D01*
X0309906Y0144147D01*
X0309147Y0144906D01*
X0308737Y0145897D01*
X0308737Y0146725D01*
X0306729Y0148733D01*
X0302037Y0148733D01*
X0306759Y0144011D01*
X0306498Y0144272D02*
X0309781Y0144272D01*
X0308996Y0145271D02*
X0305499Y0145271D01*
X0304501Y0146269D02*
X0308737Y0146269D01*
X0308194Y0147268D02*
X0303502Y0147268D01*
X0302504Y0148266D02*
X0307196Y0148266D01*
X0311449Y0139249D02*
X0316796Y0139249D01*
X0316796Y0138617D01*
X0311449Y0138617D01*
X0311133Y0138933D01*
X0311449Y0139249D01*
X0326787Y0144272D02*
X0327079Y0144272D01*
D25*
X0334433Y0154433D03*
X0334433Y0159433D03*
X0311433Y0146433D03*
X0299433Y0138933D03*
X0295433Y0136933D03*
X0290933Y0136933D03*
X0273433Y0139933D03*
X0269933Y0142933D03*
X0266433Y0151433D03*
X0261433Y0151433D03*
X0231433Y0161433D03*
X0227433Y0161933D03*
X0224433Y0165433D03*
X0220433Y0165433D03*
X0220933Y0161433D03*
X0222433Y0157433D03*
X0217933Y0149433D03*
X0226933Y0149433D03*
X0206433Y0151433D03*
X0206433Y0161433D03*
X0189933Y0154933D03*
X0189933Y0151433D03*
X0183933Y0161433D03*
X0168933Y0158933D03*
X0168933Y0153933D03*
X0168933Y0148933D03*
X0168933Y0143933D03*
X0168433Y0134933D03*
X0151433Y0133933D03*
X0146433Y0133933D03*
X0151433Y0129433D03*
X0151433Y0138933D03*
X0146433Y0143933D03*
X0151433Y0151433D03*
X0146433Y0158933D03*
X0118933Y0149933D03*
X0118933Y0142933D03*
X0101433Y0143933D03*
X0096433Y0143933D03*
X0096433Y0138933D03*
X0099433Y0150933D03*
X0106433Y0153933D03*
X0106433Y0158933D03*
X0116433Y0126433D03*
X0116433Y0121433D03*
X0116433Y0116433D03*
X0121433Y0121433D03*
X0101433Y0123933D03*
X0080433Y0119433D03*
X0080433Y0115433D03*
X0080433Y0110933D03*
X0071433Y0103933D03*
X0066433Y0106933D03*
X0066433Y0111933D03*
X0074433Y0091433D03*
X0071433Y0086433D03*
X0103933Y0069433D03*
X0146433Y0096433D03*
X0156433Y0096433D03*
X0173933Y0106433D03*
X0188933Y0116433D03*
X0202933Y0126933D03*
X0216433Y0129933D03*
X0221433Y0131433D03*
X0224433Y0133933D03*
X0231433Y0126933D03*
X0236433Y0119433D03*
X0241433Y0116433D03*
X0246433Y0112433D03*
X0249433Y0116433D03*
X0262933Y0107933D03*
X0260433Y0105433D03*
X0257933Y0102933D03*
X0255433Y0100433D03*
X0266433Y0096933D03*
X0256433Y0086933D03*
X0251433Y0086933D03*
X0240433Y0086433D03*
X0226433Y0087433D03*
X0217933Y0093933D03*
X0222933Y0098933D03*
X0216433Y0100933D03*
X0227933Y0102933D03*
X0231433Y0101433D03*
X0231433Y0097933D03*
X0234933Y0097933D03*
X0216433Y0110433D03*
X0226933Y0111433D03*
X0230933Y0111433D03*
X0203433Y0106433D03*
X0203433Y0102433D03*
X0201433Y0096433D03*
X0201433Y0083933D03*
X0208433Y0083933D03*
X0173933Y0061433D03*
X0173933Y0051433D03*
X0260433Y0071433D03*
X0265433Y0071433D03*
X0311433Y0086433D03*
X0322933Y0092933D03*
X0322933Y0097933D03*
X0296433Y0106433D03*
X0283933Y0111433D03*
X0314433Y0121433D03*
X0370433Y0151433D03*
X0381433Y0161433D03*
X0386433Y0161433D03*
X0411933Y0156933D03*
X0424933Y0166433D03*
X0421933Y0171433D03*
X0421933Y0177933D03*
X0418933Y0188933D03*
X0399933Y0135733D03*
X0378933Y0129933D03*
X0399433Y0115933D03*
X0402933Y0115933D03*
X0408933Y0121433D03*
X0378933Y0089933D03*
X0220933Y0173433D03*
X0220933Y0177433D03*
X0220933Y0181433D03*
X0205433Y0176433D03*
X0201433Y0176433D03*
X0197433Y0176433D03*
X0201433Y0180433D03*
X0188933Y0203433D03*
X0224933Y0203433D03*
X0206933Y0140933D03*
X0203433Y0140933D03*
X0116433Y0106433D03*
D26*
X0075933Y0137433D02*
X0070433Y0131933D01*
X0193933Y0046933D02*
X0196933Y0049933D01*
X0193933Y0046933D02*
X0191433Y0044433D01*
D27*
X0213433Y0061433D02*
X0208433Y0066433D01*
X0208433Y0083933D01*
X0228283Y0084283D02*
X0233933Y0089933D01*
X0248433Y0089933D01*
X0240433Y0086433D02*
X0238283Y0084283D01*
X0238283Y0072433D01*
X0248283Y0072433D02*
X0248283Y0076283D01*
X0249933Y0077933D01*
X0253933Y0077933D01*
X0262433Y0086433D01*
X0311433Y0086433D01*
X0311433Y0096933D02*
X0266433Y0096933D01*
X0262433Y0080433D02*
X0255433Y0073433D01*
X0255433Y0064933D01*
X0251933Y0061433D01*
X0213433Y0061433D01*
X0228283Y0072433D02*
X0228283Y0084283D01*
X0262433Y0080433D02*
X0341433Y0080433D01*
X0341433Y0061433D01*
X0341433Y0080433D02*
X0350933Y0089933D01*
X0378933Y0089933D01*
X0399933Y0124697D02*
X0399933Y0135733D01*
X0397933Y0141933D02*
X0397933Y0143094D01*
X0399933Y0145094D01*
X0397933Y0141933D02*
X0385933Y0129933D01*
X0378933Y0129933D01*
X0398933Y0156933D02*
X0411933Y0156933D01*
X0398933Y0156933D02*
X0393085Y0162781D01*
X0393085Y0163933D01*
X0407933Y0184933D02*
X0414933Y0177933D01*
X0421933Y0177933D01*
X0407933Y0184933D02*
X0399433Y0184933D01*
X0399433Y0188781D01*
X0399585Y0188933D01*
X0399433Y0184933D02*
X0311433Y0096933D01*
X0303281Y0106433D02*
X0303281Y0116433D01*
X0303281Y0122781D01*
X0306933Y0126433D01*
X0308233Y0126433D01*
X0314433Y0126433D01*
X0314433Y0121433D01*
X0314433Y0126433D02*
X0321281Y0126433D01*
X0321933Y0127085D01*
X0331933Y0127085D01*
X0327085Y0127085D01*
X0325933Y0134933D02*
X0317433Y0134933D01*
X0315933Y0136433D01*
X0308233Y0136433D01*
X0308233Y0141433D02*
X0321933Y0141433D01*
X0321933Y0140781D01*
X0325933Y0134933D02*
X0329933Y0138933D01*
X0330085Y0138933D01*
X0331933Y0140781D01*
X0413281Y0188933D02*
X0418933Y0188933D01*
X0224933Y0203433D02*
X0215933Y0203433D01*
X0209085Y0196585D01*
X0208933Y0196585D01*
X0188933Y0203433D02*
X0188933Y0210281D01*
X0075933Y0137433D02*
X0075933Y0137350D01*
X0073441Y0134858D01*
D28*
X0073441Y0144858D02*
X0067866Y0150433D01*
X0051024Y0150433D01*
X0043323Y0142732D01*
X0043323Y0126984D02*
X0050874Y0119433D01*
X0068016Y0119433D01*
X0073441Y0124858D01*
X0086933Y0110358D02*
X0056315Y0079740D01*
X0086933Y0110358D02*
X0086933Y0165492D01*
X0111433Y0189992D01*
X0188933Y0196585D02*
X0198933Y0196585D01*
X0208933Y0210281D02*
X0218933Y0210281D01*
X0423933Y0139585D02*
X0423933Y0128281D01*
D29*
X0415781Y0114585D02*
X0408933Y0121433D01*
X0405744Y0124622D01*
X0399933Y0124622D01*
X0415781Y0114585D02*
X0423933Y0114585D01*
D30*
X0399933Y0124622D02*
X0399933Y0124697D01*
M02*
