G75*
%MOIN*%
%OFA0B0*%
%FSLAX25Y25*%
%IPPOS*%
%LPD*%
%AMOC8*
5,1,8,0,0,1.08239X$1,22.5*
%
%ADD10C,0.00939*%
%ADD11C,0.08280*%
%ADD12R,0.08280X0.08280*%
%ADD13C,0.11099*%
%ADD14R,0.11099X0.11099*%
%ADD15C,0.10312*%
%ADD16C,0.09524*%
%ADD17R,0.09524X0.09524*%
%ADD18C,0.02756*%
%ADD19C,0.00851*%
%ADD20C,0.00883*%
%ADD21R,0.09000X0.09000*%
%ADD22C,0.16548*%
%ADD23C,0.00947*%
D10*
X0079201Y0062801D02*
X0084969Y0062801D01*
X0084969Y0055065D01*
X0079201Y0055065D01*
X0079201Y0062801D01*
X0079201Y0056003D02*
X0084969Y0056003D01*
X0084969Y0056941D02*
X0079201Y0056941D01*
X0079201Y0057879D02*
X0084969Y0057879D01*
X0084969Y0058817D02*
X0079201Y0058817D01*
X0079201Y0059755D02*
X0084969Y0059755D01*
X0084969Y0060693D02*
X0079201Y0060693D01*
X0079201Y0061631D02*
X0084969Y0061631D01*
X0084969Y0062569D02*
X0079201Y0062569D01*
X0092897Y0062801D02*
X0098665Y0062801D01*
X0098665Y0055065D01*
X0092897Y0055065D01*
X0092897Y0062801D01*
X0092897Y0056003D02*
X0098665Y0056003D01*
X0098665Y0056941D02*
X0092897Y0056941D01*
X0092897Y0057879D02*
X0098665Y0057879D01*
X0098665Y0058817D02*
X0092897Y0058817D01*
X0092897Y0059755D02*
X0098665Y0059755D01*
X0098665Y0060693D02*
X0092897Y0060693D01*
X0092897Y0061631D02*
X0098665Y0061631D01*
X0098665Y0062569D02*
X0092897Y0062569D01*
X0114201Y0087565D02*
X0119969Y0087565D01*
X0114201Y0087565D02*
X0114201Y0095301D01*
X0119969Y0095301D01*
X0119969Y0087565D01*
X0119969Y0088503D02*
X0114201Y0088503D01*
X0114201Y0089441D02*
X0119969Y0089441D01*
X0119969Y0090379D02*
X0114201Y0090379D01*
X0114201Y0091317D02*
X0119969Y0091317D01*
X0119969Y0092255D02*
X0114201Y0092255D01*
X0114201Y0093193D02*
X0119969Y0093193D01*
X0119969Y0094131D02*
X0114201Y0094131D01*
X0114201Y0095069D02*
X0119969Y0095069D01*
X0119969Y0097565D02*
X0114201Y0097565D01*
X0114201Y0105301D01*
X0119969Y0105301D01*
X0119969Y0097565D01*
X0119969Y0098503D02*
X0114201Y0098503D01*
X0114201Y0099441D02*
X0119969Y0099441D01*
X0119969Y0100379D02*
X0114201Y0100379D01*
X0114201Y0101317D02*
X0119969Y0101317D01*
X0119969Y0102255D02*
X0114201Y0102255D01*
X0114201Y0103193D02*
X0119969Y0103193D01*
X0119969Y0104131D02*
X0114201Y0104131D01*
X0114201Y0105069D02*
X0119969Y0105069D01*
X0127897Y0097565D02*
X0133665Y0097565D01*
X0127897Y0097565D02*
X0127897Y0105301D01*
X0133665Y0105301D01*
X0133665Y0097565D01*
X0133665Y0098503D02*
X0127897Y0098503D01*
X0127897Y0099441D02*
X0133665Y0099441D01*
X0133665Y0100379D02*
X0127897Y0100379D01*
X0127897Y0101317D02*
X0133665Y0101317D01*
X0133665Y0102255D02*
X0127897Y0102255D01*
X0127897Y0103193D02*
X0133665Y0103193D01*
X0133665Y0104131D02*
X0127897Y0104131D01*
X0127897Y0105069D02*
X0133665Y0105069D01*
X0141701Y0097565D02*
X0147469Y0097565D01*
X0141701Y0097565D02*
X0141701Y0105301D01*
X0147469Y0105301D01*
X0147469Y0097565D01*
X0147469Y0098503D02*
X0141701Y0098503D01*
X0141701Y0099441D02*
X0147469Y0099441D01*
X0147469Y0100379D02*
X0141701Y0100379D01*
X0141701Y0101317D02*
X0147469Y0101317D01*
X0147469Y0102255D02*
X0141701Y0102255D01*
X0141701Y0103193D02*
X0147469Y0103193D01*
X0147469Y0104131D02*
X0141701Y0104131D01*
X0141701Y0105069D02*
X0147469Y0105069D01*
X0155397Y0097565D02*
X0161165Y0097565D01*
X0155397Y0097565D02*
X0155397Y0105301D01*
X0161165Y0105301D01*
X0161165Y0097565D01*
X0161165Y0098503D02*
X0155397Y0098503D01*
X0155397Y0099441D02*
X0161165Y0099441D01*
X0161165Y0100379D02*
X0155397Y0100379D01*
X0155397Y0101317D02*
X0161165Y0101317D01*
X0161165Y0102255D02*
X0155397Y0102255D01*
X0155397Y0103193D02*
X0161165Y0103193D01*
X0161165Y0104131D02*
X0155397Y0104131D01*
X0155397Y0105069D02*
X0161165Y0105069D01*
X0161165Y0107565D02*
X0155397Y0107565D01*
X0155397Y0115301D01*
X0161165Y0115301D01*
X0161165Y0107565D01*
X0161165Y0108503D02*
X0155397Y0108503D01*
X0155397Y0109441D02*
X0161165Y0109441D01*
X0161165Y0110379D02*
X0155397Y0110379D01*
X0155397Y0111317D02*
X0161165Y0111317D01*
X0161165Y0112255D02*
X0155397Y0112255D01*
X0155397Y0113193D02*
X0161165Y0113193D01*
X0161165Y0114131D02*
X0155397Y0114131D01*
X0155397Y0115069D02*
X0161165Y0115069D01*
X0147469Y0107565D02*
X0141701Y0107565D01*
X0141701Y0115301D01*
X0147469Y0115301D01*
X0147469Y0107565D01*
X0147469Y0108503D02*
X0141701Y0108503D01*
X0141701Y0109441D02*
X0147469Y0109441D01*
X0147469Y0110379D02*
X0141701Y0110379D01*
X0141701Y0111317D02*
X0147469Y0111317D01*
X0147469Y0112255D02*
X0141701Y0112255D01*
X0141701Y0113193D02*
X0147469Y0113193D01*
X0147469Y0114131D02*
X0141701Y0114131D01*
X0141701Y0115069D02*
X0147469Y0115069D01*
X0147469Y0087565D02*
X0141701Y0087565D01*
X0141701Y0095301D01*
X0147469Y0095301D01*
X0147469Y0087565D01*
X0147469Y0088503D02*
X0141701Y0088503D01*
X0141701Y0089441D02*
X0147469Y0089441D01*
X0147469Y0090379D02*
X0141701Y0090379D01*
X0141701Y0091317D02*
X0147469Y0091317D01*
X0147469Y0092255D02*
X0141701Y0092255D01*
X0141701Y0093193D02*
X0147469Y0093193D01*
X0147469Y0094131D02*
X0141701Y0094131D01*
X0141701Y0095069D02*
X0147469Y0095069D01*
X0155397Y0087565D02*
X0161165Y0087565D01*
X0155397Y0087565D02*
X0155397Y0095301D01*
X0161165Y0095301D01*
X0161165Y0087565D01*
X0161165Y0088503D02*
X0155397Y0088503D01*
X0155397Y0089441D02*
X0161165Y0089441D01*
X0161165Y0090379D02*
X0155397Y0090379D01*
X0155397Y0091317D02*
X0161165Y0091317D01*
X0161165Y0092255D02*
X0155397Y0092255D01*
X0155397Y0093193D02*
X0161165Y0093193D01*
X0161165Y0094131D02*
X0155397Y0094131D01*
X0155397Y0095069D02*
X0161165Y0095069D01*
X0133665Y0087565D02*
X0127897Y0087565D01*
X0127897Y0095301D01*
X0133665Y0095301D01*
X0133665Y0087565D01*
X0133665Y0088503D02*
X0127897Y0088503D01*
X0127897Y0089441D02*
X0133665Y0089441D01*
X0133665Y0090379D02*
X0127897Y0090379D01*
X0127897Y0091317D02*
X0133665Y0091317D01*
X0133665Y0092255D02*
X0127897Y0092255D01*
X0127897Y0093193D02*
X0133665Y0093193D01*
X0133665Y0094131D02*
X0127897Y0094131D01*
X0127897Y0095069D02*
X0133665Y0095069D01*
X0141701Y0070301D02*
X0147469Y0070301D01*
X0147469Y0062565D01*
X0141701Y0062565D01*
X0141701Y0070301D01*
X0141701Y0063503D02*
X0147469Y0063503D01*
X0147469Y0064441D02*
X0141701Y0064441D01*
X0141701Y0065379D02*
X0147469Y0065379D01*
X0147469Y0066317D02*
X0141701Y0066317D01*
X0141701Y0067255D02*
X0147469Y0067255D01*
X0147469Y0068193D02*
X0141701Y0068193D01*
X0141701Y0069131D02*
X0147469Y0069131D01*
X0147469Y0070069D02*
X0141701Y0070069D01*
X0155397Y0070301D02*
X0161165Y0070301D01*
X0161165Y0062565D01*
X0155397Y0062565D01*
X0155397Y0070301D01*
X0155397Y0063503D02*
X0161165Y0063503D01*
X0161165Y0064441D02*
X0155397Y0064441D01*
X0155397Y0065379D02*
X0161165Y0065379D01*
X0161165Y0066317D02*
X0155397Y0066317D01*
X0155397Y0067255D02*
X0161165Y0067255D01*
X0161165Y0068193D02*
X0155397Y0068193D01*
X0155397Y0069131D02*
X0161165Y0069131D01*
X0161165Y0070069D02*
X0155397Y0070069D01*
X0155397Y0060301D02*
X0161165Y0060301D01*
X0161165Y0052565D01*
X0155397Y0052565D01*
X0155397Y0060301D01*
X0155397Y0053503D02*
X0161165Y0053503D01*
X0161165Y0054441D02*
X0155397Y0054441D01*
X0155397Y0055379D02*
X0161165Y0055379D01*
X0161165Y0056317D02*
X0155397Y0056317D01*
X0155397Y0057255D02*
X0161165Y0057255D01*
X0161165Y0058193D02*
X0155397Y0058193D01*
X0155397Y0059131D02*
X0161165Y0059131D01*
X0161165Y0060069D02*
X0155397Y0060069D01*
X0147469Y0060301D02*
X0141701Y0060301D01*
X0147469Y0060301D02*
X0147469Y0052565D01*
X0141701Y0052565D01*
X0141701Y0060301D01*
X0141701Y0053503D02*
X0147469Y0053503D01*
X0147469Y0054441D02*
X0141701Y0054441D01*
X0141701Y0055379D02*
X0147469Y0055379D01*
X0147469Y0056317D02*
X0141701Y0056317D01*
X0141701Y0057255D02*
X0147469Y0057255D01*
X0147469Y0058193D02*
X0141701Y0058193D01*
X0141701Y0059131D02*
X0147469Y0059131D01*
X0147469Y0060069D02*
X0141701Y0060069D01*
X0141701Y0042565D02*
X0147469Y0042565D01*
X0141701Y0042565D02*
X0141701Y0050301D01*
X0147469Y0050301D01*
X0147469Y0042565D01*
X0147469Y0043503D02*
X0141701Y0043503D01*
X0141701Y0044441D02*
X0147469Y0044441D01*
X0147469Y0045379D02*
X0141701Y0045379D01*
X0141701Y0046317D02*
X0147469Y0046317D01*
X0147469Y0047255D02*
X0141701Y0047255D01*
X0141701Y0048193D02*
X0147469Y0048193D01*
X0147469Y0049131D02*
X0141701Y0049131D01*
X0141701Y0050069D02*
X0147469Y0050069D01*
X0155397Y0042565D02*
X0161165Y0042565D01*
X0155397Y0042565D02*
X0155397Y0050301D01*
X0161165Y0050301D01*
X0161165Y0042565D01*
X0161165Y0043503D02*
X0155397Y0043503D01*
X0155397Y0044441D02*
X0161165Y0044441D01*
X0161165Y0045379D02*
X0155397Y0045379D01*
X0155397Y0046317D02*
X0161165Y0046317D01*
X0161165Y0047255D02*
X0155397Y0047255D01*
X0155397Y0048193D02*
X0161165Y0048193D01*
X0161165Y0049131D02*
X0155397Y0049131D01*
X0155397Y0050069D02*
X0161165Y0050069D01*
X0201817Y0063644D02*
X0201817Y0081222D01*
X0201817Y0063644D02*
X0196049Y0063644D01*
X0196049Y0081222D01*
X0201817Y0081222D01*
X0201817Y0064582D02*
X0196049Y0064582D01*
X0196049Y0065520D02*
X0201817Y0065520D01*
X0201817Y0066458D02*
X0196049Y0066458D01*
X0196049Y0067396D02*
X0201817Y0067396D01*
X0201817Y0068334D02*
X0196049Y0068334D01*
X0196049Y0069272D02*
X0201817Y0069272D01*
X0201817Y0070210D02*
X0196049Y0070210D01*
X0196049Y0071148D02*
X0201817Y0071148D01*
X0201817Y0072086D02*
X0196049Y0072086D01*
X0196049Y0073024D02*
X0201817Y0073024D01*
X0201817Y0073962D02*
X0196049Y0073962D01*
X0196049Y0074900D02*
X0201817Y0074900D01*
X0201817Y0075838D02*
X0196049Y0075838D01*
X0196049Y0076776D02*
X0201817Y0076776D01*
X0201817Y0077714D02*
X0196049Y0077714D01*
X0196049Y0078652D02*
X0201817Y0078652D01*
X0201817Y0079590D02*
X0196049Y0079590D01*
X0196049Y0080528D02*
X0201817Y0080528D01*
X0211817Y0081222D02*
X0211817Y0063644D01*
X0206049Y0063644D01*
X0206049Y0081222D01*
X0211817Y0081222D01*
X0211817Y0064582D02*
X0206049Y0064582D01*
X0206049Y0065520D02*
X0211817Y0065520D01*
X0211817Y0066458D02*
X0206049Y0066458D01*
X0206049Y0067396D02*
X0211817Y0067396D01*
X0211817Y0068334D02*
X0206049Y0068334D01*
X0206049Y0069272D02*
X0211817Y0069272D01*
X0211817Y0070210D02*
X0206049Y0070210D01*
X0206049Y0071148D02*
X0211817Y0071148D01*
X0211817Y0072086D02*
X0206049Y0072086D01*
X0206049Y0073024D02*
X0211817Y0073024D01*
X0211817Y0073962D02*
X0206049Y0073962D01*
X0206049Y0074900D02*
X0211817Y0074900D01*
X0211817Y0075838D02*
X0206049Y0075838D01*
X0206049Y0076776D02*
X0211817Y0076776D01*
X0211817Y0077714D02*
X0206049Y0077714D01*
X0206049Y0078652D02*
X0211817Y0078652D01*
X0211817Y0079590D02*
X0206049Y0079590D01*
X0206049Y0080528D02*
X0211817Y0080528D01*
X0259317Y0081222D02*
X0259317Y0063644D01*
X0253549Y0063644D01*
X0253549Y0081222D01*
X0259317Y0081222D01*
X0259317Y0064582D02*
X0253549Y0064582D01*
X0253549Y0065520D02*
X0259317Y0065520D01*
X0259317Y0066458D02*
X0253549Y0066458D01*
X0253549Y0067396D02*
X0259317Y0067396D01*
X0259317Y0068334D02*
X0253549Y0068334D01*
X0253549Y0069272D02*
X0259317Y0069272D01*
X0259317Y0070210D02*
X0253549Y0070210D01*
X0253549Y0071148D02*
X0259317Y0071148D01*
X0259317Y0072086D02*
X0253549Y0072086D01*
X0253549Y0073024D02*
X0259317Y0073024D01*
X0259317Y0073962D02*
X0253549Y0073962D01*
X0253549Y0074900D02*
X0259317Y0074900D01*
X0259317Y0075838D02*
X0253549Y0075838D01*
X0253549Y0076776D02*
X0259317Y0076776D01*
X0259317Y0077714D02*
X0253549Y0077714D01*
X0253549Y0078652D02*
X0259317Y0078652D01*
X0259317Y0079590D02*
X0253549Y0079590D01*
X0253549Y0080528D02*
X0259317Y0080528D01*
X0269317Y0081222D02*
X0269317Y0063644D01*
X0263549Y0063644D01*
X0263549Y0081222D01*
X0269317Y0081222D01*
X0269317Y0064582D02*
X0263549Y0064582D01*
X0263549Y0065520D02*
X0269317Y0065520D01*
X0269317Y0066458D02*
X0263549Y0066458D01*
X0263549Y0067396D02*
X0269317Y0067396D01*
X0269317Y0068334D02*
X0263549Y0068334D01*
X0263549Y0069272D02*
X0269317Y0069272D01*
X0269317Y0070210D02*
X0263549Y0070210D01*
X0263549Y0071148D02*
X0269317Y0071148D01*
X0269317Y0072086D02*
X0263549Y0072086D01*
X0263549Y0073024D02*
X0269317Y0073024D01*
X0269317Y0073962D02*
X0263549Y0073962D01*
X0263549Y0074900D02*
X0269317Y0074900D01*
X0269317Y0075838D02*
X0263549Y0075838D01*
X0263549Y0076776D02*
X0269317Y0076776D01*
X0269317Y0077714D02*
X0263549Y0077714D01*
X0263549Y0078652D02*
X0269317Y0078652D01*
X0269317Y0079590D02*
X0263549Y0079590D01*
X0263549Y0080528D02*
X0269317Y0080528D01*
X0279317Y0081222D02*
X0279317Y0063644D01*
X0273549Y0063644D01*
X0273549Y0081222D01*
X0279317Y0081222D01*
X0279317Y0064582D02*
X0273549Y0064582D01*
X0273549Y0065520D02*
X0279317Y0065520D01*
X0279317Y0066458D02*
X0273549Y0066458D01*
X0273549Y0067396D02*
X0279317Y0067396D01*
X0279317Y0068334D02*
X0273549Y0068334D01*
X0273549Y0069272D02*
X0279317Y0069272D01*
X0279317Y0070210D02*
X0273549Y0070210D01*
X0273549Y0071148D02*
X0279317Y0071148D01*
X0279317Y0072086D02*
X0273549Y0072086D01*
X0273549Y0073024D02*
X0279317Y0073024D01*
X0279317Y0073962D02*
X0273549Y0073962D01*
X0273549Y0074900D02*
X0279317Y0074900D01*
X0279317Y0075838D02*
X0273549Y0075838D01*
X0273549Y0076776D02*
X0279317Y0076776D01*
X0279317Y0077714D02*
X0273549Y0077714D01*
X0273549Y0078652D02*
X0279317Y0078652D01*
X0279317Y0079590D02*
X0273549Y0079590D01*
X0273549Y0080528D02*
X0279317Y0080528D01*
X0289317Y0081222D02*
X0289317Y0063644D01*
X0283549Y0063644D01*
X0283549Y0081222D01*
X0289317Y0081222D01*
X0289317Y0064582D02*
X0283549Y0064582D01*
X0283549Y0065520D02*
X0289317Y0065520D01*
X0289317Y0066458D02*
X0283549Y0066458D01*
X0283549Y0067396D02*
X0289317Y0067396D01*
X0289317Y0068334D02*
X0283549Y0068334D01*
X0283549Y0069272D02*
X0289317Y0069272D01*
X0289317Y0070210D02*
X0283549Y0070210D01*
X0283549Y0071148D02*
X0289317Y0071148D01*
X0289317Y0072086D02*
X0283549Y0072086D01*
X0283549Y0073024D02*
X0289317Y0073024D01*
X0289317Y0073962D02*
X0283549Y0073962D01*
X0283549Y0074900D02*
X0289317Y0074900D01*
X0289317Y0075838D02*
X0283549Y0075838D01*
X0283549Y0076776D02*
X0289317Y0076776D01*
X0289317Y0077714D02*
X0283549Y0077714D01*
X0283549Y0078652D02*
X0289317Y0078652D01*
X0289317Y0079590D02*
X0283549Y0079590D01*
X0283549Y0080528D02*
X0289317Y0080528D01*
X0382201Y0124750D02*
X0387969Y0124750D01*
X0387969Y0117014D01*
X0382201Y0117014D01*
X0382201Y0124750D01*
X0382201Y0117952D02*
X0387969Y0117952D01*
X0387969Y0118890D02*
X0382201Y0118890D01*
X0382201Y0119828D02*
X0387969Y0119828D01*
X0387969Y0120766D02*
X0382201Y0120766D01*
X0382201Y0121704D02*
X0387969Y0121704D01*
X0387969Y0122642D02*
X0382201Y0122642D01*
X0382201Y0123580D02*
X0387969Y0123580D01*
X0387969Y0124518D02*
X0382201Y0124518D01*
X0395897Y0124750D02*
X0401665Y0124750D01*
X0401665Y0117014D01*
X0395897Y0117014D01*
X0395897Y0124750D01*
X0395897Y0117952D02*
X0401665Y0117952D01*
X0401665Y0118890D02*
X0395897Y0118890D01*
X0395897Y0119828D02*
X0401665Y0119828D01*
X0401665Y0120766D02*
X0395897Y0120766D01*
X0395897Y0121704D02*
X0401665Y0121704D01*
X0401665Y0122642D02*
X0395897Y0122642D01*
X0395897Y0123580D02*
X0401665Y0123580D01*
X0401665Y0124518D02*
X0395897Y0124518D01*
X0399301Y0103665D02*
X0399301Y0097897D01*
X0391565Y0097897D01*
X0391565Y0103665D01*
X0399301Y0103665D01*
X0399301Y0098835D02*
X0391565Y0098835D01*
X0391565Y0099773D02*
X0399301Y0099773D01*
X0399301Y0100711D02*
X0391565Y0100711D01*
X0391565Y0101649D02*
X0399301Y0101649D01*
X0399301Y0102587D02*
X0391565Y0102587D01*
X0391565Y0103525D02*
X0399301Y0103525D01*
X0409301Y0103665D02*
X0409301Y0097897D01*
X0401565Y0097897D01*
X0401565Y0103665D01*
X0409301Y0103665D01*
X0409301Y0098835D02*
X0401565Y0098835D01*
X0401565Y0099773D02*
X0409301Y0099773D01*
X0409301Y0100711D02*
X0401565Y0100711D01*
X0401565Y0101649D02*
X0409301Y0101649D01*
X0409301Y0102587D02*
X0401565Y0102587D01*
X0401565Y0103525D02*
X0409301Y0103525D01*
X0411565Y0103665D02*
X0411565Y0097897D01*
X0411565Y0103665D02*
X0419301Y0103665D01*
X0419301Y0097897D01*
X0411565Y0097897D01*
X0411565Y0098835D02*
X0419301Y0098835D01*
X0419301Y0099773D02*
X0411565Y0099773D01*
X0411565Y0100711D02*
X0419301Y0100711D01*
X0419301Y0101649D02*
X0411565Y0101649D01*
X0411565Y0102587D02*
X0419301Y0102587D01*
X0419301Y0103525D02*
X0411565Y0103525D01*
X0411565Y0089969D02*
X0411565Y0084201D01*
X0411565Y0089969D02*
X0419301Y0089969D01*
X0419301Y0084201D01*
X0411565Y0084201D01*
X0411565Y0085139D02*
X0419301Y0085139D01*
X0419301Y0086077D02*
X0411565Y0086077D01*
X0411565Y0087015D02*
X0419301Y0087015D01*
X0419301Y0087953D02*
X0411565Y0087953D01*
X0411565Y0088891D02*
X0419301Y0088891D01*
X0419301Y0089829D02*
X0411565Y0089829D01*
X0409301Y0089969D02*
X0409301Y0084201D01*
X0401565Y0084201D01*
X0401565Y0089969D01*
X0409301Y0089969D01*
X0409301Y0085139D02*
X0401565Y0085139D01*
X0401565Y0086077D02*
X0409301Y0086077D01*
X0409301Y0087015D02*
X0401565Y0087015D01*
X0401565Y0087953D02*
X0409301Y0087953D01*
X0409301Y0088891D02*
X0401565Y0088891D01*
X0401565Y0089829D02*
X0409301Y0089829D01*
X0399301Y0089969D02*
X0399301Y0084201D01*
X0391565Y0084201D01*
X0391565Y0089969D01*
X0399301Y0089969D01*
X0399301Y0085139D02*
X0391565Y0085139D01*
X0391565Y0086077D02*
X0399301Y0086077D01*
X0399301Y0087015D02*
X0391565Y0087015D01*
X0391565Y0087953D02*
X0399301Y0087953D01*
X0399301Y0088891D02*
X0391565Y0088891D01*
X0391565Y0089829D02*
X0399301Y0089829D01*
X0401665Y0152703D02*
X0395897Y0152703D01*
X0401665Y0152703D02*
X0401665Y0144967D01*
X0395897Y0144967D01*
X0395897Y0152703D01*
X0395897Y0145905D02*
X0401665Y0145905D01*
X0401665Y0146843D02*
X0395897Y0146843D01*
X0395897Y0147781D02*
X0401665Y0147781D01*
X0401665Y0148719D02*
X0395897Y0148719D01*
X0395897Y0149657D02*
X0401665Y0149657D01*
X0401665Y0150595D02*
X0395897Y0150595D01*
X0395897Y0151533D02*
X0401665Y0151533D01*
X0401665Y0152471D02*
X0395897Y0152471D01*
X0387969Y0152703D02*
X0382201Y0152703D01*
X0387969Y0152703D02*
X0387969Y0144967D01*
X0382201Y0144967D01*
X0382201Y0152703D01*
X0382201Y0145905D02*
X0387969Y0145905D01*
X0387969Y0146843D02*
X0382201Y0146843D01*
X0382201Y0147781D02*
X0387969Y0147781D01*
X0387969Y0148719D02*
X0382201Y0148719D01*
X0382201Y0149657D02*
X0387969Y0149657D01*
X0387969Y0150595D02*
X0382201Y0150595D01*
X0382201Y0151533D02*
X0387969Y0151533D01*
X0387969Y0152471D02*
X0382201Y0152471D01*
X0385397Y0165301D02*
X0391165Y0165301D01*
X0391165Y0157565D01*
X0385397Y0157565D01*
X0385397Y0165301D01*
X0385397Y0158503D02*
X0391165Y0158503D01*
X0391165Y0159441D02*
X0385397Y0159441D01*
X0385397Y0160379D02*
X0391165Y0160379D01*
X0391165Y0161317D02*
X0385397Y0161317D01*
X0385397Y0162255D02*
X0391165Y0162255D01*
X0391165Y0163193D02*
X0385397Y0163193D01*
X0385397Y0164131D02*
X0391165Y0164131D01*
X0391165Y0165069D02*
X0385397Y0165069D01*
X0385397Y0175301D02*
X0391165Y0175301D01*
X0391165Y0167565D01*
X0385397Y0167565D01*
X0385397Y0175301D01*
X0385397Y0168503D02*
X0391165Y0168503D01*
X0391165Y0169441D02*
X0385397Y0169441D01*
X0385397Y0170379D02*
X0391165Y0170379D01*
X0391165Y0171317D02*
X0385397Y0171317D01*
X0385397Y0172255D02*
X0391165Y0172255D01*
X0391165Y0173193D02*
X0385397Y0173193D01*
X0385397Y0174131D02*
X0391165Y0174131D01*
X0391165Y0175069D02*
X0385397Y0175069D01*
X0377469Y0175301D02*
X0371701Y0175301D01*
X0377469Y0175301D02*
X0377469Y0167565D01*
X0371701Y0167565D01*
X0371701Y0175301D01*
X0371701Y0168503D02*
X0377469Y0168503D01*
X0377469Y0169441D02*
X0371701Y0169441D01*
X0371701Y0170379D02*
X0377469Y0170379D01*
X0377469Y0171317D02*
X0371701Y0171317D01*
X0371701Y0172255D02*
X0377469Y0172255D01*
X0377469Y0173193D02*
X0371701Y0173193D01*
X0371701Y0174131D02*
X0377469Y0174131D01*
X0377469Y0175069D02*
X0371701Y0175069D01*
X0371701Y0185301D02*
X0377469Y0185301D01*
X0377469Y0177565D01*
X0371701Y0177565D01*
X0371701Y0185301D01*
X0371701Y0178503D02*
X0377469Y0178503D01*
X0377469Y0179441D02*
X0371701Y0179441D01*
X0371701Y0180379D02*
X0377469Y0180379D01*
X0377469Y0181317D02*
X0371701Y0181317D01*
X0371701Y0182255D02*
X0377469Y0182255D01*
X0377469Y0183193D02*
X0371701Y0183193D01*
X0371701Y0184131D02*
X0377469Y0184131D01*
X0377469Y0185069D02*
X0371701Y0185069D01*
X0385397Y0185301D02*
X0391165Y0185301D01*
X0391165Y0177565D01*
X0385397Y0177565D01*
X0385397Y0185301D01*
X0385397Y0178503D02*
X0391165Y0178503D01*
X0391165Y0179441D02*
X0385397Y0179441D01*
X0385397Y0180379D02*
X0391165Y0180379D01*
X0391165Y0181317D02*
X0385397Y0181317D01*
X0385397Y0182255D02*
X0391165Y0182255D01*
X0391165Y0183193D02*
X0385397Y0183193D01*
X0385397Y0184131D02*
X0391165Y0184131D01*
X0391165Y0185069D02*
X0385397Y0185069D01*
X0396701Y0190301D02*
X0402469Y0190301D01*
X0402469Y0182565D01*
X0396701Y0182565D01*
X0396701Y0190301D01*
X0396701Y0183503D02*
X0402469Y0183503D01*
X0402469Y0184441D02*
X0396701Y0184441D01*
X0396701Y0185379D02*
X0402469Y0185379D01*
X0402469Y0186317D02*
X0396701Y0186317D01*
X0396701Y0187255D02*
X0402469Y0187255D01*
X0402469Y0188193D02*
X0396701Y0188193D01*
X0396701Y0189131D02*
X0402469Y0189131D01*
X0402469Y0190069D02*
X0396701Y0190069D01*
X0410397Y0190301D02*
X0416165Y0190301D01*
X0416165Y0182565D01*
X0410397Y0182565D01*
X0410397Y0190301D01*
X0410397Y0183503D02*
X0416165Y0183503D01*
X0416165Y0184441D02*
X0410397Y0184441D01*
X0410397Y0185379D02*
X0416165Y0185379D01*
X0416165Y0186317D02*
X0410397Y0186317D01*
X0410397Y0187255D02*
X0416165Y0187255D01*
X0416165Y0188193D02*
X0410397Y0188193D01*
X0410397Y0189131D02*
X0416165Y0189131D01*
X0416165Y0190069D02*
X0410397Y0190069D01*
X0410397Y0170301D02*
X0416165Y0170301D01*
X0416165Y0162565D01*
X0410397Y0162565D01*
X0410397Y0170301D01*
X0410397Y0163503D02*
X0416165Y0163503D01*
X0416165Y0164441D02*
X0410397Y0164441D01*
X0410397Y0165379D02*
X0416165Y0165379D01*
X0416165Y0166317D02*
X0410397Y0166317D01*
X0410397Y0167255D02*
X0416165Y0167255D01*
X0416165Y0168193D02*
X0410397Y0168193D01*
X0410397Y0169131D02*
X0416165Y0169131D01*
X0416165Y0170069D02*
X0410397Y0170069D01*
X0402469Y0170301D02*
X0396701Y0170301D01*
X0402469Y0170301D02*
X0402469Y0162565D01*
X0396701Y0162565D01*
X0396701Y0170301D01*
X0396701Y0163503D02*
X0402469Y0163503D01*
X0402469Y0164441D02*
X0396701Y0164441D01*
X0396701Y0165379D02*
X0402469Y0165379D01*
X0402469Y0166317D02*
X0396701Y0166317D01*
X0396701Y0167255D02*
X0402469Y0167255D01*
X0402469Y0168193D02*
X0396701Y0168193D01*
X0396701Y0169131D02*
X0402469Y0169131D01*
X0402469Y0170069D02*
X0396701Y0170069D01*
X0377469Y0165301D02*
X0371701Y0165301D01*
X0377469Y0165301D02*
X0377469Y0157565D01*
X0371701Y0157565D01*
X0371701Y0165301D01*
X0371701Y0158503D02*
X0377469Y0158503D01*
X0377469Y0159441D02*
X0371701Y0159441D01*
X0371701Y0160379D02*
X0377469Y0160379D01*
X0377469Y0161317D02*
X0371701Y0161317D01*
X0371701Y0162255D02*
X0377469Y0162255D01*
X0377469Y0163193D02*
X0371701Y0163193D01*
X0371701Y0164131D02*
X0377469Y0164131D01*
X0377469Y0165069D02*
X0371701Y0165069D01*
X0348549Y0188510D02*
X0348549Y0206088D01*
X0354317Y0206088D01*
X0354317Y0188510D01*
X0348549Y0188510D01*
X0348549Y0189448D02*
X0354317Y0189448D01*
X0354317Y0190386D02*
X0348549Y0190386D01*
X0348549Y0191324D02*
X0354317Y0191324D01*
X0354317Y0192262D02*
X0348549Y0192262D01*
X0348549Y0193200D02*
X0354317Y0193200D01*
X0354317Y0194138D02*
X0348549Y0194138D01*
X0348549Y0195076D02*
X0354317Y0195076D01*
X0354317Y0196014D02*
X0348549Y0196014D01*
X0348549Y0196952D02*
X0354317Y0196952D01*
X0354317Y0197890D02*
X0348549Y0197890D01*
X0348549Y0198828D02*
X0354317Y0198828D01*
X0354317Y0199766D02*
X0348549Y0199766D01*
X0348549Y0200704D02*
X0354317Y0200704D01*
X0354317Y0201642D02*
X0348549Y0201642D01*
X0348549Y0202580D02*
X0354317Y0202580D01*
X0354317Y0203518D02*
X0348549Y0203518D01*
X0348549Y0204456D02*
X0354317Y0204456D01*
X0354317Y0205394D02*
X0348549Y0205394D01*
X0338549Y0206088D02*
X0338549Y0188510D01*
X0338549Y0206088D02*
X0344317Y0206088D01*
X0344317Y0188510D01*
X0338549Y0188510D01*
X0338549Y0189448D02*
X0344317Y0189448D01*
X0344317Y0190386D02*
X0338549Y0190386D01*
X0338549Y0191324D02*
X0344317Y0191324D01*
X0344317Y0192262D02*
X0338549Y0192262D01*
X0338549Y0193200D02*
X0344317Y0193200D01*
X0344317Y0194138D02*
X0338549Y0194138D01*
X0338549Y0195076D02*
X0344317Y0195076D01*
X0344317Y0196014D02*
X0338549Y0196014D01*
X0338549Y0196952D02*
X0344317Y0196952D01*
X0344317Y0197890D02*
X0338549Y0197890D01*
X0338549Y0198828D02*
X0344317Y0198828D01*
X0344317Y0199766D02*
X0338549Y0199766D01*
X0338549Y0200704D02*
X0344317Y0200704D01*
X0344317Y0201642D02*
X0338549Y0201642D01*
X0338549Y0202580D02*
X0344317Y0202580D01*
X0344317Y0203518D02*
X0338549Y0203518D01*
X0338549Y0204456D02*
X0344317Y0204456D01*
X0344317Y0205394D02*
X0338549Y0205394D01*
X0328549Y0206088D02*
X0328549Y0188510D01*
X0328549Y0206088D02*
X0334317Y0206088D01*
X0334317Y0188510D01*
X0328549Y0188510D01*
X0328549Y0189448D02*
X0334317Y0189448D01*
X0334317Y0190386D02*
X0328549Y0190386D01*
X0328549Y0191324D02*
X0334317Y0191324D01*
X0334317Y0192262D02*
X0328549Y0192262D01*
X0328549Y0193200D02*
X0334317Y0193200D01*
X0334317Y0194138D02*
X0328549Y0194138D01*
X0328549Y0195076D02*
X0334317Y0195076D01*
X0334317Y0196014D02*
X0328549Y0196014D01*
X0328549Y0196952D02*
X0334317Y0196952D01*
X0334317Y0197890D02*
X0328549Y0197890D01*
X0328549Y0198828D02*
X0334317Y0198828D01*
X0334317Y0199766D02*
X0328549Y0199766D01*
X0328549Y0200704D02*
X0334317Y0200704D01*
X0334317Y0201642D02*
X0328549Y0201642D01*
X0328549Y0202580D02*
X0334317Y0202580D01*
X0334317Y0203518D02*
X0328549Y0203518D01*
X0328549Y0204456D02*
X0334317Y0204456D01*
X0334317Y0205394D02*
X0328549Y0205394D01*
X0318549Y0206088D02*
X0318549Y0188510D01*
X0318549Y0206088D02*
X0324317Y0206088D01*
X0324317Y0188510D01*
X0318549Y0188510D01*
X0318549Y0189448D02*
X0324317Y0189448D01*
X0324317Y0190386D02*
X0318549Y0190386D01*
X0318549Y0191324D02*
X0324317Y0191324D01*
X0324317Y0192262D02*
X0318549Y0192262D01*
X0318549Y0193200D02*
X0324317Y0193200D01*
X0324317Y0194138D02*
X0318549Y0194138D01*
X0318549Y0195076D02*
X0324317Y0195076D01*
X0324317Y0196014D02*
X0318549Y0196014D01*
X0318549Y0196952D02*
X0324317Y0196952D01*
X0324317Y0197890D02*
X0318549Y0197890D01*
X0318549Y0198828D02*
X0324317Y0198828D01*
X0324317Y0199766D02*
X0318549Y0199766D01*
X0318549Y0200704D02*
X0324317Y0200704D01*
X0324317Y0201642D02*
X0318549Y0201642D01*
X0318549Y0202580D02*
X0324317Y0202580D01*
X0324317Y0203518D02*
X0318549Y0203518D01*
X0318549Y0204456D02*
X0324317Y0204456D01*
X0324317Y0205394D02*
X0318549Y0205394D01*
X0308549Y0206088D02*
X0308549Y0188510D01*
X0308549Y0206088D02*
X0314317Y0206088D01*
X0314317Y0188510D01*
X0308549Y0188510D01*
X0308549Y0189448D02*
X0314317Y0189448D01*
X0314317Y0190386D02*
X0308549Y0190386D01*
X0308549Y0191324D02*
X0314317Y0191324D01*
X0314317Y0192262D02*
X0308549Y0192262D01*
X0308549Y0193200D02*
X0314317Y0193200D01*
X0314317Y0194138D02*
X0308549Y0194138D01*
X0308549Y0195076D02*
X0314317Y0195076D01*
X0314317Y0196014D02*
X0308549Y0196014D01*
X0308549Y0196952D02*
X0314317Y0196952D01*
X0314317Y0197890D02*
X0308549Y0197890D01*
X0308549Y0198828D02*
X0314317Y0198828D01*
X0314317Y0199766D02*
X0308549Y0199766D01*
X0308549Y0200704D02*
X0314317Y0200704D01*
X0314317Y0201642D02*
X0308549Y0201642D01*
X0308549Y0202580D02*
X0314317Y0202580D01*
X0314317Y0203518D02*
X0308549Y0203518D01*
X0308549Y0204456D02*
X0314317Y0204456D01*
X0314317Y0205394D02*
X0308549Y0205394D01*
X0298549Y0206088D02*
X0298549Y0188510D01*
X0298549Y0206088D02*
X0304317Y0206088D01*
X0304317Y0188510D01*
X0298549Y0188510D01*
X0298549Y0189448D02*
X0304317Y0189448D01*
X0304317Y0190386D02*
X0298549Y0190386D01*
X0298549Y0191324D02*
X0304317Y0191324D01*
X0304317Y0192262D02*
X0298549Y0192262D01*
X0298549Y0193200D02*
X0304317Y0193200D01*
X0304317Y0194138D02*
X0298549Y0194138D01*
X0298549Y0195076D02*
X0304317Y0195076D01*
X0304317Y0196014D02*
X0298549Y0196014D01*
X0298549Y0196952D02*
X0304317Y0196952D01*
X0304317Y0197890D02*
X0298549Y0197890D01*
X0298549Y0198828D02*
X0304317Y0198828D01*
X0304317Y0199766D02*
X0298549Y0199766D01*
X0298549Y0200704D02*
X0304317Y0200704D01*
X0304317Y0201642D02*
X0298549Y0201642D01*
X0298549Y0202580D02*
X0304317Y0202580D01*
X0304317Y0203518D02*
X0298549Y0203518D01*
X0298549Y0204456D02*
X0304317Y0204456D01*
X0304317Y0205394D02*
X0298549Y0205394D01*
X0187801Y0202469D02*
X0187801Y0196701D01*
X0180065Y0196701D01*
X0180065Y0202469D01*
X0187801Y0202469D01*
X0187801Y0197639D02*
X0180065Y0197639D01*
X0180065Y0198577D02*
X0187801Y0198577D01*
X0187801Y0199515D02*
X0180065Y0199515D01*
X0180065Y0200453D02*
X0187801Y0200453D01*
X0187801Y0201391D02*
X0180065Y0201391D01*
X0180065Y0202329D02*
X0187801Y0202329D01*
X0177801Y0202469D02*
X0177801Y0196701D01*
X0170065Y0196701D01*
X0170065Y0202469D01*
X0177801Y0202469D01*
X0177801Y0197639D02*
X0170065Y0197639D01*
X0170065Y0198577D02*
X0177801Y0198577D01*
X0177801Y0199515D02*
X0170065Y0199515D01*
X0170065Y0200453D02*
X0177801Y0200453D01*
X0177801Y0201391D02*
X0170065Y0201391D01*
X0170065Y0202329D02*
X0177801Y0202329D01*
X0167801Y0202469D02*
X0167801Y0196701D01*
X0160065Y0196701D01*
X0160065Y0202469D01*
X0167801Y0202469D01*
X0167801Y0197639D02*
X0160065Y0197639D01*
X0160065Y0198577D02*
X0167801Y0198577D01*
X0167801Y0199515D02*
X0160065Y0199515D01*
X0160065Y0200453D02*
X0167801Y0200453D01*
X0167801Y0201391D02*
X0160065Y0201391D01*
X0160065Y0202329D02*
X0167801Y0202329D01*
X0157801Y0202469D02*
X0157801Y0196701D01*
X0150065Y0196701D01*
X0150065Y0202469D01*
X0157801Y0202469D01*
X0157801Y0197639D02*
X0150065Y0197639D01*
X0150065Y0198577D02*
X0157801Y0198577D01*
X0157801Y0199515D02*
X0150065Y0199515D01*
X0150065Y0200453D02*
X0157801Y0200453D01*
X0157801Y0201391D02*
X0150065Y0201391D01*
X0150065Y0202329D02*
X0157801Y0202329D01*
X0157801Y0210397D02*
X0157801Y0216165D01*
X0157801Y0210397D02*
X0150065Y0210397D01*
X0150065Y0216165D01*
X0157801Y0216165D01*
X0157801Y0211335D02*
X0150065Y0211335D01*
X0150065Y0212273D02*
X0157801Y0212273D01*
X0157801Y0213211D02*
X0150065Y0213211D01*
X0150065Y0214149D02*
X0157801Y0214149D01*
X0157801Y0215087D02*
X0150065Y0215087D01*
X0150065Y0216025D02*
X0157801Y0216025D01*
X0167801Y0216165D02*
X0167801Y0210397D01*
X0160065Y0210397D01*
X0160065Y0216165D01*
X0167801Y0216165D01*
X0167801Y0211335D02*
X0160065Y0211335D01*
X0160065Y0212273D02*
X0167801Y0212273D01*
X0167801Y0213211D02*
X0160065Y0213211D01*
X0160065Y0214149D02*
X0167801Y0214149D01*
X0167801Y0215087D02*
X0160065Y0215087D01*
X0160065Y0216025D02*
X0167801Y0216025D01*
X0177801Y0216165D02*
X0177801Y0210397D01*
X0170065Y0210397D01*
X0170065Y0216165D01*
X0177801Y0216165D01*
X0177801Y0211335D02*
X0170065Y0211335D01*
X0170065Y0212273D02*
X0177801Y0212273D01*
X0177801Y0213211D02*
X0170065Y0213211D01*
X0170065Y0214149D02*
X0177801Y0214149D01*
X0177801Y0215087D02*
X0170065Y0215087D01*
X0170065Y0216025D02*
X0177801Y0216025D01*
X0187801Y0216165D02*
X0187801Y0210397D01*
X0180065Y0210397D01*
X0180065Y0216165D01*
X0187801Y0216165D01*
X0187801Y0211335D02*
X0180065Y0211335D01*
X0180065Y0212273D02*
X0187801Y0212273D01*
X0187801Y0213211D02*
X0180065Y0213211D01*
X0180065Y0214149D02*
X0187801Y0214149D01*
X0187801Y0215087D02*
X0180065Y0215087D01*
X0180065Y0216025D02*
X0187801Y0216025D01*
D11*
X0073441Y0134858D03*
X0073441Y0124858D03*
X0321433Y0061433D03*
X0321433Y0051433D03*
X0331433Y0051433D03*
X0341433Y0051433D03*
X0351433Y0051433D03*
X0361433Y0051433D03*
X0351433Y0061433D03*
X0341433Y0061433D03*
X0331433Y0061433D03*
X0381433Y0209933D03*
X0381433Y0219933D03*
D12*
X0381433Y0199933D03*
X0361433Y0061433D03*
X0073441Y0144858D03*
D13*
X0092929Y0189992D03*
X0111433Y0189992D03*
D14*
X0129937Y0189992D03*
D15*
X0137811Y0227394D03*
X0085055Y0227394D03*
D16*
X0056315Y0189976D03*
X0056315Y0174228D03*
X0043323Y0174228D03*
X0043323Y0158480D03*
X0056315Y0158480D03*
X0056315Y0142732D03*
X0043323Y0142732D03*
X0043323Y0126984D03*
X0056315Y0126984D03*
X0056315Y0111236D03*
X0043323Y0111236D03*
X0043323Y0095488D03*
X0056315Y0095488D03*
X0056315Y0079740D03*
X0043323Y0079740D03*
X0410839Y0120882D03*
X0424224Y0120882D03*
X0424224Y0148835D03*
X0410839Y0148835D03*
D17*
X0043323Y0189976D03*
D18*
X0415366Y0142732D03*
X0415366Y0126984D03*
D19*
X0415565Y0139754D02*
X0405773Y0139754D01*
X0415565Y0139754D02*
X0415565Y0129962D01*
X0405773Y0129962D01*
X0405773Y0139754D01*
X0405773Y0130812D02*
X0415565Y0130812D01*
X0415565Y0131662D02*
X0405773Y0131662D01*
X0405773Y0132512D02*
X0415565Y0132512D01*
X0415565Y0133362D02*
X0405773Y0133362D01*
X0405773Y0134212D02*
X0415565Y0134212D01*
X0415565Y0135062D02*
X0405773Y0135062D01*
X0405773Y0135912D02*
X0415565Y0135912D01*
X0415565Y0136762D02*
X0405773Y0136762D01*
X0405773Y0137612D02*
X0415565Y0137612D01*
X0415565Y0138462D02*
X0405773Y0138462D01*
X0405773Y0139312D02*
X0415565Y0139312D01*
X0397093Y0139754D02*
X0387301Y0139754D01*
X0397093Y0139754D02*
X0397093Y0129962D01*
X0387301Y0129962D01*
X0387301Y0139754D01*
X0387301Y0130812D02*
X0397093Y0130812D01*
X0397093Y0131662D02*
X0387301Y0131662D01*
X0387301Y0132512D02*
X0397093Y0132512D01*
X0397093Y0133362D02*
X0387301Y0133362D01*
X0387301Y0134212D02*
X0397093Y0134212D01*
X0397093Y0135062D02*
X0387301Y0135062D01*
X0387301Y0135912D02*
X0397093Y0135912D01*
X0397093Y0136762D02*
X0387301Y0136762D01*
X0387301Y0137612D02*
X0397093Y0137612D01*
X0397093Y0138462D02*
X0387301Y0138462D01*
X0387301Y0139312D02*
X0397093Y0139312D01*
D20*
X0358392Y0216450D02*
X0358392Y0232116D01*
X0370120Y0232116D01*
X0370120Y0216450D01*
X0358392Y0216450D01*
X0358392Y0217332D02*
X0370120Y0217332D01*
X0370120Y0218214D02*
X0358392Y0218214D01*
X0358392Y0219096D02*
X0370120Y0219096D01*
X0370120Y0219978D02*
X0358392Y0219978D01*
X0358392Y0220860D02*
X0370120Y0220860D01*
X0370120Y0221742D02*
X0358392Y0221742D01*
X0358392Y0222624D02*
X0370120Y0222624D01*
X0370120Y0223506D02*
X0358392Y0223506D01*
X0358392Y0224388D02*
X0370120Y0224388D01*
X0370120Y0225270D02*
X0358392Y0225270D01*
X0358392Y0226152D02*
X0370120Y0226152D01*
X0370120Y0227034D02*
X0358392Y0227034D01*
X0358392Y0227916D02*
X0370120Y0227916D01*
X0370120Y0228798D02*
X0358392Y0228798D01*
X0358392Y0229680D02*
X0370120Y0229680D01*
X0370120Y0230562D02*
X0358392Y0230562D01*
X0358392Y0231444D02*
X0370120Y0231444D01*
X0282746Y0232116D02*
X0282746Y0216450D01*
X0282746Y0232116D02*
X0294474Y0232116D01*
X0294474Y0216450D01*
X0282746Y0216450D01*
X0282746Y0217332D02*
X0294474Y0217332D01*
X0294474Y0218214D02*
X0282746Y0218214D01*
X0282746Y0219096D02*
X0294474Y0219096D01*
X0294474Y0219978D02*
X0282746Y0219978D01*
X0282746Y0220860D02*
X0294474Y0220860D01*
X0294474Y0221742D02*
X0282746Y0221742D01*
X0282746Y0222624D02*
X0294474Y0222624D01*
X0294474Y0223506D02*
X0282746Y0223506D01*
X0282746Y0224388D02*
X0294474Y0224388D01*
X0294474Y0225270D02*
X0282746Y0225270D01*
X0282746Y0226152D02*
X0294474Y0226152D01*
X0294474Y0227034D02*
X0282746Y0227034D01*
X0282746Y0227916D02*
X0294474Y0227916D01*
X0294474Y0228798D02*
X0282746Y0228798D01*
X0282746Y0229680D02*
X0294474Y0229680D01*
X0294474Y0230562D02*
X0282746Y0230562D01*
X0282746Y0231444D02*
X0294474Y0231444D01*
X0305120Y0053282D02*
X0305120Y0037616D01*
X0293392Y0037616D01*
X0293392Y0053282D01*
X0305120Y0053282D01*
X0305120Y0038498D02*
X0293392Y0038498D01*
X0293392Y0039380D02*
X0305120Y0039380D01*
X0305120Y0040262D02*
X0293392Y0040262D01*
X0293392Y0041144D02*
X0305120Y0041144D01*
X0305120Y0042026D02*
X0293392Y0042026D01*
X0293392Y0042908D02*
X0305120Y0042908D01*
X0305120Y0043790D02*
X0293392Y0043790D01*
X0293392Y0044672D02*
X0305120Y0044672D01*
X0305120Y0045554D02*
X0293392Y0045554D01*
X0293392Y0046436D02*
X0305120Y0046436D01*
X0305120Y0047318D02*
X0293392Y0047318D01*
X0293392Y0048200D02*
X0305120Y0048200D01*
X0305120Y0049082D02*
X0293392Y0049082D01*
X0293392Y0049964D02*
X0305120Y0049964D01*
X0305120Y0050846D02*
X0293392Y0050846D01*
X0293392Y0051728D02*
X0305120Y0051728D01*
X0305120Y0052610D02*
X0293392Y0052610D01*
X0249474Y0053282D02*
X0249474Y0037616D01*
X0237746Y0037616D01*
X0237746Y0053282D01*
X0249474Y0053282D01*
X0249474Y0038498D02*
X0237746Y0038498D01*
X0237746Y0039380D02*
X0249474Y0039380D01*
X0249474Y0040262D02*
X0237746Y0040262D01*
X0237746Y0041144D02*
X0249474Y0041144D01*
X0249474Y0042026D02*
X0237746Y0042026D01*
X0237746Y0042908D02*
X0249474Y0042908D01*
X0249474Y0043790D02*
X0237746Y0043790D01*
X0237746Y0044672D02*
X0249474Y0044672D01*
X0249474Y0045554D02*
X0237746Y0045554D01*
X0237746Y0046436D02*
X0249474Y0046436D01*
X0249474Y0047318D02*
X0237746Y0047318D01*
X0237746Y0048200D02*
X0249474Y0048200D01*
X0249474Y0049082D02*
X0237746Y0049082D01*
X0237746Y0049964D02*
X0249474Y0049964D01*
X0249474Y0050846D02*
X0237746Y0050846D01*
X0237746Y0051728D02*
X0249474Y0051728D01*
X0249474Y0052610D02*
X0237746Y0052610D01*
X0227620Y0053282D02*
X0227620Y0037616D01*
X0215892Y0037616D01*
X0215892Y0053282D01*
X0227620Y0053282D01*
X0227620Y0038498D02*
X0215892Y0038498D01*
X0215892Y0039380D02*
X0227620Y0039380D01*
X0227620Y0040262D02*
X0215892Y0040262D01*
X0215892Y0041144D02*
X0227620Y0041144D01*
X0227620Y0042026D02*
X0215892Y0042026D01*
X0215892Y0042908D02*
X0227620Y0042908D01*
X0227620Y0043790D02*
X0215892Y0043790D01*
X0215892Y0044672D02*
X0227620Y0044672D01*
X0227620Y0045554D02*
X0215892Y0045554D01*
X0215892Y0046436D02*
X0227620Y0046436D01*
X0227620Y0047318D02*
X0215892Y0047318D01*
X0215892Y0048200D02*
X0227620Y0048200D01*
X0227620Y0049082D02*
X0215892Y0049082D01*
X0215892Y0049964D02*
X0227620Y0049964D01*
X0227620Y0050846D02*
X0215892Y0050846D01*
X0215892Y0051728D02*
X0227620Y0051728D01*
X0227620Y0052610D02*
X0215892Y0052610D01*
X0191974Y0053282D02*
X0191974Y0037616D01*
X0180246Y0037616D01*
X0180246Y0053282D01*
X0191974Y0053282D01*
X0191974Y0038498D02*
X0180246Y0038498D01*
X0180246Y0039380D02*
X0191974Y0039380D01*
X0191974Y0040262D02*
X0180246Y0040262D01*
X0180246Y0041144D02*
X0191974Y0041144D01*
X0191974Y0042026D02*
X0180246Y0042026D01*
X0180246Y0042908D02*
X0191974Y0042908D01*
X0191974Y0043790D02*
X0180246Y0043790D01*
X0180246Y0044672D02*
X0191974Y0044672D01*
X0191974Y0045554D02*
X0180246Y0045554D01*
X0180246Y0046436D02*
X0191974Y0046436D01*
X0191974Y0047318D02*
X0180246Y0047318D01*
X0180246Y0048200D02*
X0191974Y0048200D01*
X0191974Y0049082D02*
X0180246Y0049082D01*
X0180246Y0049964D02*
X0191974Y0049964D01*
X0191974Y0050846D02*
X0180246Y0050846D01*
X0180246Y0051728D02*
X0191974Y0051728D01*
X0191974Y0052610D02*
X0180246Y0052610D01*
D21*
X0406433Y0176433D03*
D22*
X0056118Y0056118D03*
X0056118Y0213598D03*
X0410449Y0213598D03*
X0410449Y0056118D03*
D23*
X0158447Y0077038D02*
X0158447Y0080828D01*
X0158447Y0077038D02*
X0153081Y0077038D01*
X0153081Y0080828D01*
X0158447Y0080828D01*
X0158447Y0077984D02*
X0153081Y0077984D01*
X0153081Y0078930D02*
X0158447Y0078930D01*
X0158447Y0079876D02*
X0153081Y0079876D01*
X0153081Y0080822D02*
X0158447Y0080822D01*
X0149785Y0080778D02*
X0149785Y0084568D01*
X0149785Y0080778D02*
X0144419Y0080778D01*
X0144419Y0084568D01*
X0149785Y0084568D01*
X0149785Y0081724D02*
X0144419Y0081724D01*
X0144419Y0082670D02*
X0149785Y0082670D01*
X0149785Y0083616D02*
X0144419Y0083616D01*
X0144419Y0084562D02*
X0149785Y0084562D01*
X0149785Y0077088D02*
X0149785Y0073298D01*
X0144419Y0073298D01*
X0144419Y0077088D01*
X0149785Y0077088D01*
X0149785Y0074244D02*
X0144419Y0074244D01*
X0144419Y0075190D02*
X0149785Y0075190D01*
X0149785Y0076136D02*
X0144419Y0076136D01*
X0144419Y0077082D02*
X0149785Y0077082D01*
X0120947Y0060828D02*
X0120947Y0057038D01*
X0115581Y0057038D01*
X0115581Y0060828D01*
X0120947Y0060828D01*
X0120947Y0057984D02*
X0115581Y0057984D01*
X0115581Y0058930D02*
X0120947Y0058930D01*
X0120947Y0059876D02*
X0115581Y0059876D01*
X0115581Y0060822D02*
X0120947Y0060822D01*
X0112285Y0060778D02*
X0112285Y0064568D01*
X0112285Y0060778D02*
X0106919Y0060778D01*
X0106919Y0064568D01*
X0112285Y0064568D01*
X0112285Y0061724D02*
X0106919Y0061724D01*
X0106919Y0062670D02*
X0112285Y0062670D01*
X0112285Y0063616D02*
X0106919Y0063616D01*
X0106919Y0064562D02*
X0112285Y0064562D01*
X0112285Y0057088D02*
X0112285Y0053298D01*
X0106919Y0053298D01*
X0106919Y0057088D01*
X0112285Y0057088D01*
X0112285Y0054244D02*
X0106919Y0054244D01*
X0106919Y0055190D02*
X0112285Y0055190D01*
X0112285Y0056136D02*
X0106919Y0056136D01*
X0106919Y0057082D02*
X0112285Y0057082D01*
M02*
