G75*
%MOIN*%
%OFA0B0*%
%FSLAX25Y25*%
%IPPOS*%
%LPD*%
%AMOC8*
5,1,8,0,0,1.08239X$1,22.5*
%
%ADD10C,0.00800*%
%ADD11C,0.00900*%
%ADD12C,0.00787*%
%ADD13C,0.01000*%
%ADD14C,0.00700*%
%ADD15C,0.01181*%
%ADD16C,0.01600*%
%ADD17C,0.04348*%
D10*
X0074233Y0049333D02*
X0074233Y0053537D01*
X0076335Y0053537D01*
X0077035Y0052836D01*
X0077035Y0051435D01*
X0076335Y0050734D01*
X0074233Y0050734D01*
X0078837Y0049333D02*
X0081639Y0049333D01*
X0080238Y0049333D02*
X0080238Y0053537D01*
X0078837Y0052135D01*
X0088033Y0051933D02*
X0088033Y0050933D01*
X0091133Y0045033D02*
X0094833Y0045033D01*
X0094833Y0048133D01*
X0094833Y0054733D02*
X0094833Y0057833D01*
X0091133Y0057833D01*
X0091133Y0060033D02*
X0094833Y0060033D01*
X0094833Y0063133D01*
X0094833Y0069733D02*
X0094833Y0072833D01*
X0091133Y0072833D01*
X0088343Y0079333D02*
X0085541Y0079333D01*
X0086942Y0079333D02*
X0086942Y0083537D01*
X0085541Y0082135D01*
X0083739Y0079333D02*
X0080937Y0079333D01*
X0082338Y0079333D02*
X0082338Y0083537D01*
X0080937Y0082135D01*
X0079135Y0081435D02*
X0078435Y0080734D01*
X0076333Y0080734D01*
X0076333Y0079333D02*
X0076333Y0083537D01*
X0078435Y0083537D01*
X0079135Y0082836D01*
X0079135Y0081435D01*
X0077734Y0080734D02*
X0079135Y0079333D01*
X0080833Y0089333D02*
X0080833Y0093537D01*
X0082935Y0093537D01*
X0083635Y0092836D01*
X0083635Y0091435D01*
X0082935Y0090734D01*
X0080833Y0090734D01*
X0082234Y0090734D02*
X0083635Y0089333D01*
X0085437Y0090034D02*
X0086138Y0089333D01*
X0087539Y0089333D01*
X0088239Y0090034D01*
X0088239Y0092836D01*
X0087539Y0093537D01*
X0086138Y0093537D01*
X0085437Y0092836D01*
X0085437Y0092135D01*
X0086138Y0091435D01*
X0088239Y0091435D01*
X0087643Y0099333D02*
X0086242Y0099333D01*
X0085541Y0100034D01*
X0088343Y0102836D01*
X0088343Y0100034D01*
X0087643Y0099333D01*
X0085541Y0100034D02*
X0085541Y0102836D01*
X0086242Y0103537D01*
X0087643Y0103537D01*
X0088343Y0102836D01*
X0082338Y0103537D02*
X0080937Y0102135D01*
X0079135Y0102836D02*
X0079135Y0101435D01*
X0078435Y0100734D01*
X0076333Y0100734D01*
X0076333Y0099333D02*
X0076333Y0103537D01*
X0078435Y0103537D01*
X0079135Y0102836D01*
X0077734Y0100734D02*
X0079135Y0099333D01*
X0080937Y0099333D02*
X0083739Y0099333D01*
X0082338Y0099333D02*
X0082338Y0103537D01*
X0075525Y0110608D02*
X0074825Y0109908D01*
X0075525Y0110608D02*
X0075525Y0111309D01*
X0074825Y0112010D01*
X0071322Y0112010D01*
X0071322Y0112710D02*
X0071322Y0111309D01*
X0072723Y0114512D02*
X0071322Y0115913D01*
X0075525Y0115913D01*
X0075525Y0114512D02*
X0075525Y0117314D01*
X0075941Y0119858D02*
X0070941Y0119858D01*
X0068441Y0122358D01*
X0068441Y0127358D01*
X0070941Y0129858D01*
X0075941Y0129858D01*
X0078441Y0127358D01*
X0078441Y0122358D01*
X0075941Y0119858D01*
X0066533Y0119749D02*
X0062329Y0119749D01*
X0066533Y0122551D01*
X0062329Y0122551D01*
X0062329Y0124353D02*
X0062329Y0126454D01*
X0063030Y0127155D01*
X0065832Y0127155D01*
X0066533Y0126454D01*
X0066533Y0124353D01*
X0062329Y0124353D01*
X0068441Y0132358D02*
X0070941Y0129858D01*
X0068441Y0132358D02*
X0068441Y0137358D01*
X0070941Y0139858D01*
X0068441Y0139858D01*
X0068441Y0149858D01*
X0078441Y0149858D01*
X0078441Y0139858D01*
X0075941Y0139858D01*
X0078441Y0137358D01*
X0078441Y0132358D01*
X0075941Y0129858D01*
X0066533Y0134261D02*
X0066533Y0135662D01*
X0065832Y0136363D01*
X0065132Y0136363D01*
X0064431Y0135662D01*
X0064431Y0134261D01*
X0063731Y0133561D01*
X0063030Y0133561D01*
X0062329Y0134261D01*
X0062329Y0135662D01*
X0063030Y0136363D01*
X0062329Y0138164D02*
X0066533Y0138164D01*
X0066533Y0140967D01*
X0066533Y0142768D02*
X0066533Y0145571D01*
X0066533Y0147372D02*
X0062329Y0147372D01*
X0062329Y0150175D01*
X0063030Y0151976D02*
X0065832Y0151976D01*
X0066533Y0152677D01*
X0066533Y0154078D01*
X0065832Y0154779D01*
X0063030Y0154779D02*
X0062329Y0154078D01*
X0062329Y0152677D01*
X0063030Y0151976D01*
X0064431Y0148774D02*
X0064431Y0147372D01*
X0066533Y0147372D02*
X0066533Y0150175D01*
X0071322Y0153108D02*
X0072022Y0152408D01*
X0074825Y0152408D01*
X0075525Y0153108D01*
X0075525Y0154510D01*
X0074825Y0155210D01*
X0073423Y0155210D01*
X0073423Y0153809D01*
X0072022Y0155210D02*
X0071322Y0154510D01*
X0071322Y0153108D01*
X0072022Y0157012D02*
X0072723Y0157012D01*
X0073423Y0157712D01*
X0073423Y0159114D01*
X0074124Y0159814D01*
X0074825Y0159814D01*
X0075525Y0159114D01*
X0075525Y0157712D01*
X0074825Y0157012D01*
X0072022Y0157012D02*
X0071322Y0157712D01*
X0071322Y0159114D01*
X0072022Y0159814D01*
X0066533Y0157981D02*
X0062329Y0157981D01*
X0062329Y0156580D02*
X0062329Y0159383D01*
X0063030Y0161184D02*
X0065832Y0161184D01*
X0066533Y0161885D01*
X0066533Y0163286D01*
X0065832Y0163986D01*
X0063030Y0163986D01*
X0062329Y0163286D01*
X0062329Y0161885D01*
X0063030Y0161184D01*
X0062329Y0165788D02*
X0062329Y0167890D01*
X0063030Y0168590D01*
X0064431Y0168590D01*
X0065132Y0167890D01*
X0065132Y0165788D01*
X0066533Y0165788D02*
X0062329Y0165788D01*
X0065132Y0167189D02*
X0066533Y0168590D01*
X0072144Y0178343D02*
X0074947Y0178343D01*
X0075647Y0179043D01*
X0075647Y0180444D01*
X0074947Y0181145D01*
X0072144Y0181145D01*
X0071444Y0180444D01*
X0071444Y0179043D01*
X0072144Y0178343D01*
X0071444Y0182946D02*
X0071444Y0185048D01*
X0072144Y0185749D01*
X0072845Y0185749D01*
X0073545Y0185048D01*
X0073545Y0182946D01*
X0071444Y0182946D02*
X0075647Y0182946D01*
X0075647Y0185048D01*
X0074947Y0185749D01*
X0074246Y0185749D01*
X0073545Y0185048D01*
X0071444Y0187550D02*
X0071444Y0189652D01*
X0072144Y0190353D01*
X0074947Y0190353D01*
X0075647Y0189652D01*
X0075647Y0187550D01*
X0071444Y0187550D01*
X0068147Y0187550D02*
X0063944Y0187550D01*
X0068147Y0190353D01*
X0063944Y0190353D01*
X0065345Y0192154D02*
X0063944Y0193556D01*
X0068147Y0193556D01*
X0068147Y0194957D02*
X0068147Y0192154D01*
X0071444Y0192855D02*
X0071444Y0194256D01*
X0072144Y0194957D01*
X0072845Y0194957D01*
X0075647Y0192154D01*
X0075647Y0194957D01*
X0072144Y0192154D02*
X0071444Y0192855D01*
X0067447Y0185749D02*
X0068147Y0185048D01*
X0068147Y0183647D01*
X0067447Y0182946D01*
X0064644Y0182946D01*
X0063944Y0183647D01*
X0063944Y0185048D01*
X0064644Y0185749D01*
X0057380Y0196333D02*
X0055979Y0196333D01*
X0055278Y0197034D01*
X0055979Y0198435D02*
X0058080Y0198435D01*
X0058080Y0197034D02*
X0058080Y0199836D01*
X0057380Y0200537D01*
X0055979Y0200537D01*
X0055278Y0199836D01*
X0055278Y0199135D01*
X0055979Y0198435D01*
X0058080Y0197034D02*
X0057380Y0196333D01*
X0045080Y0196333D02*
X0042278Y0196333D01*
X0043679Y0196333D02*
X0043679Y0200537D01*
X0042278Y0199135D01*
X0077829Y0211093D02*
X0078530Y0210392D01*
X0079231Y0210392D01*
X0079931Y0211093D01*
X0079931Y0212494D01*
X0080632Y0213195D01*
X0081332Y0213195D01*
X0082033Y0212494D01*
X0082033Y0211093D01*
X0081332Y0210392D01*
X0077829Y0211093D02*
X0077829Y0212494D01*
X0078530Y0213195D01*
X0079231Y0214996D02*
X0077829Y0216397D01*
X0082033Y0216397D01*
X0082033Y0214996D02*
X0082033Y0217798D01*
X0085743Y0220992D02*
X0085743Y0205140D01*
X0092233Y0205140D01*
X0092233Y0196592D01*
X0096333Y0198034D02*
X0097034Y0197333D01*
X0098435Y0197333D01*
X0099135Y0198034D01*
X0099135Y0200836D01*
X0098435Y0201537D01*
X0097034Y0201537D01*
X0096333Y0200836D01*
X0096333Y0198034D01*
X0100937Y0197333D02*
X0100937Y0201537D01*
X0103739Y0201537D01*
X0105541Y0201537D02*
X0108343Y0201537D01*
X0106942Y0199435D02*
X0105541Y0199435D01*
X0105541Y0197333D02*
X0105541Y0201537D01*
X0102338Y0199435D02*
X0100937Y0199435D01*
X0111433Y0196592D02*
X0111433Y0205140D01*
X0092233Y0205140D01*
X0099989Y0212833D02*
X0099289Y0213534D01*
X0099989Y0212833D02*
X0101390Y0212833D01*
X0102091Y0213534D01*
X0102091Y0214234D01*
X0101390Y0214935D01*
X0099989Y0214935D01*
X0099289Y0215635D01*
X0099289Y0216336D01*
X0099989Y0217037D01*
X0101390Y0217037D01*
X0102091Y0216336D01*
X0103893Y0217037D02*
X0103893Y0212833D01*
X0105294Y0214234D01*
X0106695Y0212833D01*
X0106695Y0217037D01*
X0108496Y0217037D02*
X0109898Y0217037D01*
X0109197Y0217037D02*
X0109197Y0212833D01*
X0108496Y0212833D02*
X0109898Y0212833D01*
X0112967Y0212833D02*
X0112967Y0217037D01*
X0111566Y0217037D02*
X0114368Y0217037D01*
X0116170Y0216336D02*
X0116170Y0213534D01*
X0116870Y0212833D01*
X0118271Y0212833D01*
X0118972Y0213534D01*
X0120774Y0212833D02*
X0120774Y0217037D01*
X0118972Y0216336D02*
X0118271Y0217037D01*
X0116870Y0217037D01*
X0116170Y0216336D01*
X0117437Y0220333D02*
X0114635Y0220333D01*
X0114635Y0224537D01*
X0117437Y0224537D01*
X0119239Y0224537D02*
X0121341Y0224537D01*
X0122041Y0223836D01*
X0122041Y0222435D01*
X0121341Y0221734D01*
X0119239Y0221734D01*
X0119239Y0220333D02*
X0119239Y0224537D01*
X0120640Y0221734D02*
X0122041Y0220333D01*
X0123576Y0217037D02*
X0123576Y0212833D01*
X0123576Y0214935D02*
X0120774Y0214935D01*
X0112833Y0220333D02*
X0112833Y0224537D01*
X0114635Y0222435D02*
X0116036Y0222435D01*
X0112833Y0220333D02*
X0111432Y0221734D01*
X0110031Y0220333D01*
X0110031Y0224537D01*
X0108230Y0223836D02*
X0107529Y0224537D01*
X0106128Y0224537D01*
X0105427Y0223836D01*
X0105427Y0221034D01*
X0106128Y0220333D01*
X0107529Y0220333D01*
X0108230Y0221034D01*
X0108230Y0223836D01*
X0103626Y0223836D02*
X0102925Y0224537D01*
X0100823Y0224537D01*
X0100823Y0220333D01*
X0100823Y0221734D02*
X0102925Y0221734D01*
X0103626Y0222435D01*
X0103626Y0223836D01*
X0088933Y0232524D02*
X0133933Y0232524D01*
X0152185Y0223181D02*
X0164433Y0223181D01*
X0173433Y0223181D02*
X0185681Y0223181D01*
X0185681Y0196378D01*
X0178988Y0189685D01*
X0173433Y0189685D01*
X0164433Y0189685D02*
X0158878Y0189685D01*
X0152185Y0196378D01*
X0152185Y0223181D01*
X0137124Y0220992D02*
X0137124Y0205140D01*
X0130033Y0205140D01*
X0130033Y0196592D01*
X0124239Y0197333D02*
X0124239Y0201537D01*
X0121437Y0201537D02*
X0124239Y0197333D01*
X0121437Y0197333D02*
X0121437Y0201537D01*
X0119635Y0200836D02*
X0119635Y0198034D01*
X0118935Y0197333D01*
X0117534Y0197333D01*
X0116833Y0198034D01*
X0116833Y0200836D01*
X0117534Y0201537D01*
X0118935Y0201537D01*
X0119635Y0200836D01*
X0111433Y0205140D02*
X0130033Y0205140D01*
X0129541Y0178537D02*
X0132343Y0178537D01*
X0132343Y0177836D01*
X0129541Y0175034D01*
X0129541Y0174333D01*
X0127739Y0174333D02*
X0124937Y0174333D01*
X0126338Y0174333D02*
X0126338Y0178537D01*
X0124937Y0177135D01*
X0123135Y0176435D02*
X0122435Y0175734D01*
X0120333Y0175734D01*
X0120333Y0174333D02*
X0120333Y0178537D01*
X0122435Y0178537D01*
X0123135Y0177836D01*
X0123135Y0176435D01*
X0121734Y0175734D02*
X0123135Y0174333D01*
X0109183Y0166433D02*
X0104183Y0166433D01*
X0104181Y0166329D01*
X0104175Y0166225D01*
X0104165Y0166121D01*
X0104152Y0166018D01*
X0104134Y0165916D01*
X0104112Y0165814D01*
X0104087Y0165713D01*
X0104058Y0165613D01*
X0104025Y0165514D01*
X0103988Y0165417D01*
X0103948Y0165321D01*
X0103904Y0165226D01*
X0103857Y0165134D01*
X0103806Y0165043D01*
X0103752Y0164954D01*
X0103694Y0164868D01*
X0103633Y0164783D01*
X0103569Y0164701D01*
X0103502Y0164621D01*
X0103432Y0164544D01*
X0103359Y0164470D01*
X0103283Y0164399D01*
X0103205Y0164330D01*
X0103124Y0164265D01*
X0103041Y0164202D01*
X0102955Y0164143D01*
X0102868Y0164087D01*
X0102778Y0164034D01*
X0102686Y0163985D01*
X0102593Y0163939D01*
X0102497Y0163897D01*
X0102401Y0163859D01*
X0102303Y0163824D01*
X0102203Y0163793D01*
X0102103Y0163766D01*
X0102001Y0163742D01*
X0101899Y0163723D01*
X0101796Y0163707D01*
X0101693Y0163695D01*
X0101589Y0163687D01*
X0101485Y0163683D01*
X0101381Y0163683D01*
X0101277Y0163687D01*
X0101173Y0163695D01*
X0101070Y0163707D01*
X0100967Y0163723D01*
X0100865Y0163742D01*
X0100763Y0163766D01*
X0100663Y0163793D01*
X0100563Y0163824D01*
X0100465Y0163859D01*
X0100369Y0163897D01*
X0100273Y0163939D01*
X0100180Y0163985D01*
X0100088Y0164034D01*
X0099998Y0164087D01*
X0099911Y0164143D01*
X0099825Y0164202D01*
X0099742Y0164265D01*
X0099661Y0164330D01*
X0099583Y0164399D01*
X0099507Y0164470D01*
X0099434Y0164544D01*
X0099364Y0164621D01*
X0099297Y0164701D01*
X0099233Y0164783D01*
X0099172Y0164868D01*
X0099114Y0164954D01*
X0099060Y0165043D01*
X0099009Y0165134D01*
X0098962Y0165226D01*
X0098918Y0165321D01*
X0098878Y0165417D01*
X0098841Y0165514D01*
X0098808Y0165613D01*
X0098779Y0165713D01*
X0098754Y0165814D01*
X0098732Y0165916D01*
X0098714Y0166018D01*
X0098701Y0166121D01*
X0098691Y0166225D01*
X0098685Y0166329D01*
X0098683Y0166433D01*
X0093683Y0166433D01*
X0093683Y0131433D01*
X0109183Y0131433D01*
X0109183Y0166433D01*
X0104539Y0169333D02*
X0104539Y0173537D01*
X0102437Y0171435D01*
X0105239Y0171435D01*
X0100635Y0170034D02*
X0099935Y0169333D01*
X0098534Y0169333D01*
X0097833Y0170034D01*
X0097833Y0173537D01*
X0100635Y0173537D02*
X0100635Y0170034D01*
X0095519Y0161933D02*
X0095521Y0162008D01*
X0095527Y0162082D01*
X0095537Y0162156D01*
X0095550Y0162229D01*
X0095568Y0162302D01*
X0095589Y0162373D01*
X0095614Y0162444D01*
X0095643Y0162513D01*
X0095676Y0162580D01*
X0095712Y0162645D01*
X0095751Y0162709D01*
X0095793Y0162770D01*
X0095839Y0162829D01*
X0095888Y0162886D01*
X0095940Y0162939D01*
X0095994Y0162990D01*
X0096051Y0163039D01*
X0096111Y0163083D01*
X0096173Y0163125D01*
X0096237Y0163164D01*
X0096303Y0163199D01*
X0096370Y0163230D01*
X0096440Y0163258D01*
X0096510Y0163282D01*
X0096582Y0163303D01*
X0096655Y0163319D01*
X0096728Y0163332D01*
X0096803Y0163341D01*
X0096877Y0163346D01*
X0096952Y0163347D01*
X0097026Y0163344D01*
X0097101Y0163337D01*
X0097174Y0163326D01*
X0097248Y0163312D01*
X0097320Y0163293D01*
X0097391Y0163271D01*
X0097461Y0163245D01*
X0097530Y0163215D01*
X0097596Y0163182D01*
X0097661Y0163145D01*
X0097724Y0163105D01*
X0097785Y0163061D01*
X0097843Y0163015D01*
X0097899Y0162965D01*
X0097952Y0162913D01*
X0098003Y0162858D01*
X0098050Y0162800D01*
X0098094Y0162740D01*
X0098135Y0162677D01*
X0098173Y0162613D01*
X0098207Y0162547D01*
X0098238Y0162478D01*
X0098265Y0162409D01*
X0098288Y0162338D01*
X0098307Y0162266D01*
X0098323Y0162193D01*
X0098335Y0162119D01*
X0098343Y0162045D01*
X0098347Y0161970D01*
X0098347Y0161896D01*
X0098343Y0161821D01*
X0098335Y0161747D01*
X0098323Y0161673D01*
X0098307Y0161600D01*
X0098288Y0161528D01*
X0098265Y0161457D01*
X0098238Y0161388D01*
X0098207Y0161319D01*
X0098173Y0161253D01*
X0098135Y0161189D01*
X0098094Y0161126D01*
X0098050Y0161066D01*
X0098003Y0161008D01*
X0097952Y0160953D01*
X0097899Y0160901D01*
X0097843Y0160851D01*
X0097785Y0160805D01*
X0097724Y0160761D01*
X0097661Y0160721D01*
X0097596Y0160684D01*
X0097530Y0160651D01*
X0097461Y0160621D01*
X0097391Y0160595D01*
X0097320Y0160573D01*
X0097248Y0160554D01*
X0097174Y0160540D01*
X0097101Y0160529D01*
X0097026Y0160522D01*
X0096952Y0160519D01*
X0096877Y0160520D01*
X0096803Y0160525D01*
X0096728Y0160534D01*
X0096655Y0160547D01*
X0096582Y0160563D01*
X0096510Y0160584D01*
X0096440Y0160608D01*
X0096370Y0160636D01*
X0096303Y0160667D01*
X0096237Y0160702D01*
X0096173Y0160741D01*
X0096111Y0160783D01*
X0096051Y0160827D01*
X0095994Y0160876D01*
X0095940Y0160927D01*
X0095888Y0160980D01*
X0095839Y0161037D01*
X0095793Y0161096D01*
X0095751Y0161157D01*
X0095712Y0161221D01*
X0095676Y0161286D01*
X0095643Y0161353D01*
X0095614Y0161422D01*
X0095589Y0161493D01*
X0095568Y0161564D01*
X0095550Y0161637D01*
X0095537Y0161710D01*
X0095527Y0161784D01*
X0095521Y0161858D01*
X0095519Y0161933D01*
X0122933Y0163933D02*
X0122933Y0158933D01*
X0129933Y0158933D02*
X0129933Y0163933D01*
X0143683Y0166433D02*
X0148683Y0166433D01*
X0148685Y0166329D01*
X0148691Y0166225D01*
X0148701Y0166121D01*
X0148714Y0166018D01*
X0148732Y0165916D01*
X0148754Y0165814D01*
X0148779Y0165713D01*
X0148808Y0165613D01*
X0148841Y0165514D01*
X0148878Y0165417D01*
X0148918Y0165321D01*
X0148962Y0165226D01*
X0149009Y0165134D01*
X0149060Y0165043D01*
X0149114Y0164954D01*
X0149172Y0164868D01*
X0149233Y0164783D01*
X0149297Y0164701D01*
X0149364Y0164621D01*
X0149434Y0164544D01*
X0149507Y0164470D01*
X0149583Y0164399D01*
X0149661Y0164330D01*
X0149742Y0164265D01*
X0149825Y0164202D01*
X0149911Y0164143D01*
X0149998Y0164087D01*
X0150088Y0164034D01*
X0150180Y0163985D01*
X0150273Y0163939D01*
X0150369Y0163897D01*
X0150465Y0163859D01*
X0150563Y0163824D01*
X0150663Y0163793D01*
X0150763Y0163766D01*
X0150865Y0163742D01*
X0150967Y0163723D01*
X0151070Y0163707D01*
X0151173Y0163695D01*
X0151277Y0163687D01*
X0151381Y0163683D01*
X0151485Y0163683D01*
X0151589Y0163687D01*
X0151693Y0163695D01*
X0151796Y0163707D01*
X0151899Y0163723D01*
X0152001Y0163742D01*
X0152103Y0163766D01*
X0152203Y0163793D01*
X0152303Y0163824D01*
X0152401Y0163859D01*
X0152497Y0163897D01*
X0152593Y0163939D01*
X0152686Y0163985D01*
X0152778Y0164034D01*
X0152868Y0164087D01*
X0152955Y0164143D01*
X0153041Y0164202D01*
X0153124Y0164265D01*
X0153205Y0164330D01*
X0153283Y0164399D01*
X0153359Y0164470D01*
X0153432Y0164544D01*
X0153502Y0164621D01*
X0153569Y0164701D01*
X0153633Y0164783D01*
X0153694Y0164868D01*
X0153752Y0164954D01*
X0153806Y0165043D01*
X0153857Y0165134D01*
X0153904Y0165226D01*
X0153948Y0165321D01*
X0153988Y0165417D01*
X0154025Y0165514D01*
X0154058Y0165613D01*
X0154087Y0165713D01*
X0154112Y0165814D01*
X0154134Y0165916D01*
X0154152Y0166018D01*
X0154165Y0166121D01*
X0154175Y0166225D01*
X0154181Y0166329D01*
X0154183Y0166433D01*
X0159183Y0166433D01*
X0159183Y0131433D01*
X0143683Y0131433D01*
X0143683Y0166433D01*
X0147833Y0170034D02*
X0148534Y0169333D01*
X0149935Y0169333D01*
X0150635Y0170034D01*
X0150635Y0173537D01*
X0152437Y0173537D02*
X0152437Y0171435D01*
X0153838Y0172135D01*
X0154539Y0172135D01*
X0155239Y0171435D01*
X0155239Y0170034D01*
X0154539Y0169333D01*
X0153138Y0169333D01*
X0152437Y0170034D01*
X0152437Y0173537D02*
X0155239Y0173537D01*
X0147833Y0173537D02*
X0147833Y0170034D01*
X0145519Y0161933D02*
X0145521Y0162008D01*
X0145527Y0162082D01*
X0145537Y0162156D01*
X0145550Y0162229D01*
X0145568Y0162302D01*
X0145589Y0162373D01*
X0145614Y0162444D01*
X0145643Y0162513D01*
X0145676Y0162580D01*
X0145712Y0162645D01*
X0145751Y0162709D01*
X0145793Y0162770D01*
X0145839Y0162829D01*
X0145888Y0162886D01*
X0145940Y0162939D01*
X0145994Y0162990D01*
X0146051Y0163039D01*
X0146111Y0163083D01*
X0146173Y0163125D01*
X0146237Y0163164D01*
X0146303Y0163199D01*
X0146370Y0163230D01*
X0146440Y0163258D01*
X0146510Y0163282D01*
X0146582Y0163303D01*
X0146655Y0163319D01*
X0146728Y0163332D01*
X0146803Y0163341D01*
X0146877Y0163346D01*
X0146952Y0163347D01*
X0147026Y0163344D01*
X0147101Y0163337D01*
X0147174Y0163326D01*
X0147248Y0163312D01*
X0147320Y0163293D01*
X0147391Y0163271D01*
X0147461Y0163245D01*
X0147530Y0163215D01*
X0147596Y0163182D01*
X0147661Y0163145D01*
X0147724Y0163105D01*
X0147785Y0163061D01*
X0147843Y0163015D01*
X0147899Y0162965D01*
X0147952Y0162913D01*
X0148003Y0162858D01*
X0148050Y0162800D01*
X0148094Y0162740D01*
X0148135Y0162677D01*
X0148173Y0162613D01*
X0148207Y0162547D01*
X0148238Y0162478D01*
X0148265Y0162409D01*
X0148288Y0162338D01*
X0148307Y0162266D01*
X0148323Y0162193D01*
X0148335Y0162119D01*
X0148343Y0162045D01*
X0148347Y0161970D01*
X0148347Y0161896D01*
X0148343Y0161821D01*
X0148335Y0161747D01*
X0148323Y0161673D01*
X0148307Y0161600D01*
X0148288Y0161528D01*
X0148265Y0161457D01*
X0148238Y0161388D01*
X0148207Y0161319D01*
X0148173Y0161253D01*
X0148135Y0161189D01*
X0148094Y0161126D01*
X0148050Y0161066D01*
X0148003Y0161008D01*
X0147952Y0160953D01*
X0147899Y0160901D01*
X0147843Y0160851D01*
X0147785Y0160805D01*
X0147724Y0160761D01*
X0147661Y0160721D01*
X0147596Y0160684D01*
X0147530Y0160651D01*
X0147461Y0160621D01*
X0147391Y0160595D01*
X0147320Y0160573D01*
X0147248Y0160554D01*
X0147174Y0160540D01*
X0147101Y0160529D01*
X0147026Y0160522D01*
X0146952Y0160519D01*
X0146877Y0160520D01*
X0146803Y0160525D01*
X0146728Y0160534D01*
X0146655Y0160547D01*
X0146582Y0160563D01*
X0146510Y0160584D01*
X0146440Y0160608D01*
X0146370Y0160636D01*
X0146303Y0160667D01*
X0146237Y0160702D01*
X0146173Y0160741D01*
X0146111Y0160783D01*
X0146051Y0160827D01*
X0145994Y0160876D01*
X0145940Y0160927D01*
X0145888Y0160980D01*
X0145839Y0161037D01*
X0145793Y0161096D01*
X0145751Y0161157D01*
X0145712Y0161221D01*
X0145676Y0161286D01*
X0145643Y0161353D01*
X0145614Y0161422D01*
X0145589Y0161493D01*
X0145568Y0161564D01*
X0145550Y0161637D01*
X0145537Y0161710D01*
X0145527Y0161784D01*
X0145521Y0161858D01*
X0145519Y0161933D01*
X0172933Y0163933D02*
X0172933Y0158933D01*
X0179933Y0158933D02*
X0179933Y0163933D01*
X0183329Y0165242D02*
X0183329Y0166643D01*
X0184030Y0167343D01*
X0184731Y0167343D01*
X0185431Y0166643D01*
X0185431Y0165242D01*
X0184731Y0164541D01*
X0184030Y0164541D01*
X0183329Y0165242D01*
X0185431Y0165242D02*
X0186132Y0164541D01*
X0186832Y0164541D01*
X0187533Y0165242D01*
X0187533Y0166643D01*
X0186832Y0167343D01*
X0186132Y0167343D01*
X0185431Y0166643D01*
X0187533Y0162739D02*
X0187533Y0159937D01*
X0187533Y0161338D02*
X0183329Y0161338D01*
X0184731Y0159937D01*
X0185431Y0158135D02*
X0186132Y0157435D01*
X0186132Y0155333D01*
X0187533Y0155333D02*
X0183329Y0155333D01*
X0183329Y0157435D01*
X0184030Y0158135D01*
X0185431Y0158135D01*
X0186132Y0156734D02*
X0187533Y0158135D01*
X0194329Y0159534D02*
X0195030Y0158833D01*
X0197832Y0158833D01*
X0198533Y0159534D01*
X0198533Y0160935D01*
X0197832Y0161635D01*
X0198533Y0163437D02*
X0198533Y0166239D01*
X0198533Y0164838D02*
X0194329Y0164838D01*
X0195731Y0163437D01*
X0195030Y0161635D02*
X0194329Y0160935D01*
X0194329Y0159534D01*
X0196431Y0168041D02*
X0195030Y0169442D01*
X0194329Y0170843D01*
X0196431Y0170143D02*
X0196431Y0168041D01*
X0197832Y0168041D01*
X0198533Y0168742D01*
X0198533Y0170143D01*
X0197832Y0170843D01*
X0197132Y0170843D01*
X0196431Y0170143D01*
X0231929Y0185961D02*
X0244237Y0185961D01*
X0244237Y0193047D01*
X0250633Y0193047D01*
X0244237Y0193047D02*
X0244237Y0199740D01*
X0250633Y0199740D01*
X0244237Y0199740D02*
X0244237Y0206433D01*
X0250633Y0206433D01*
X0244237Y0206433D02*
X0244237Y0213126D01*
X0250633Y0213126D01*
X0244237Y0213126D02*
X0244237Y0219819D01*
X0250633Y0219819D01*
X0244237Y0219819D02*
X0244237Y0226906D01*
X0231929Y0226906D01*
X0267833Y0225833D02*
X0270635Y0225833D01*
X0272437Y0225833D02*
X0275239Y0225833D01*
X0273838Y0225833D02*
X0273838Y0230037D01*
X0272437Y0228635D01*
X0267833Y0230037D02*
X0267833Y0225833D01*
X0277883Y0222609D02*
X0277883Y0221933D01*
X0277883Y0222609D02*
X0277885Y0222799D01*
X0277892Y0222989D01*
X0277904Y0223179D01*
X0277920Y0223369D01*
X0277940Y0223558D01*
X0277966Y0223747D01*
X0277995Y0223935D01*
X0278030Y0224122D01*
X0278069Y0224308D01*
X0278112Y0224493D01*
X0278160Y0224678D01*
X0278212Y0224861D01*
X0278268Y0225042D01*
X0278329Y0225222D01*
X0278395Y0225401D01*
X0278464Y0225578D01*
X0278538Y0225754D01*
X0278616Y0225927D01*
X0278699Y0226099D01*
X0278785Y0226268D01*
X0278875Y0226436D01*
X0278970Y0226601D01*
X0279068Y0226764D01*
X0279171Y0226924D01*
X0279277Y0227082D01*
X0279387Y0227237D01*
X0279500Y0227390D01*
X0279618Y0227540D01*
X0279739Y0227686D01*
X0279863Y0227830D01*
X0279991Y0227971D01*
X0280122Y0228109D01*
X0280257Y0228244D01*
X0280395Y0228375D01*
X0280536Y0228503D01*
X0280680Y0228627D01*
X0280826Y0228748D01*
X0280976Y0228866D01*
X0281129Y0228979D01*
X0281284Y0229089D01*
X0281442Y0229195D01*
X0281602Y0229298D01*
X0281765Y0229396D01*
X0281930Y0229491D01*
X0282098Y0229581D01*
X0282267Y0229667D01*
X0282439Y0229750D01*
X0282612Y0229828D01*
X0282788Y0229902D01*
X0282965Y0229971D01*
X0283144Y0230037D01*
X0283324Y0230098D01*
X0283505Y0230154D01*
X0283688Y0230206D01*
X0283873Y0230254D01*
X0284058Y0230297D01*
X0284244Y0230336D01*
X0284431Y0230371D01*
X0284619Y0230400D01*
X0284808Y0230426D01*
X0284997Y0230446D01*
X0285187Y0230462D01*
X0285377Y0230474D01*
X0285567Y0230481D01*
X0285757Y0230483D01*
X0318109Y0230483D01*
X0318299Y0230481D01*
X0318489Y0230474D01*
X0318679Y0230462D01*
X0318869Y0230446D01*
X0319058Y0230426D01*
X0319247Y0230400D01*
X0319435Y0230371D01*
X0319622Y0230336D01*
X0319808Y0230297D01*
X0319993Y0230254D01*
X0320178Y0230206D01*
X0320361Y0230154D01*
X0320542Y0230098D01*
X0320722Y0230037D01*
X0320901Y0229971D01*
X0321078Y0229902D01*
X0321254Y0229828D01*
X0321427Y0229750D01*
X0321599Y0229667D01*
X0321768Y0229581D01*
X0321936Y0229491D01*
X0322101Y0229396D01*
X0322264Y0229298D01*
X0322424Y0229195D01*
X0322582Y0229089D01*
X0322737Y0228979D01*
X0322890Y0228866D01*
X0323040Y0228748D01*
X0323186Y0228627D01*
X0323330Y0228503D01*
X0323471Y0228375D01*
X0323609Y0228244D01*
X0323744Y0228109D01*
X0323875Y0227971D01*
X0324003Y0227830D01*
X0324127Y0227686D01*
X0324248Y0227540D01*
X0324366Y0227390D01*
X0324479Y0227237D01*
X0324589Y0227082D01*
X0324695Y0226924D01*
X0324798Y0226764D01*
X0324896Y0226601D01*
X0324991Y0226436D01*
X0325081Y0226268D01*
X0325167Y0226099D01*
X0325250Y0225927D01*
X0325328Y0225754D01*
X0325402Y0225578D01*
X0325471Y0225401D01*
X0325537Y0225222D01*
X0325598Y0225042D01*
X0325654Y0224861D01*
X0325706Y0224678D01*
X0325754Y0224493D01*
X0325797Y0224308D01*
X0325836Y0224122D01*
X0325871Y0223935D01*
X0325900Y0223747D01*
X0325926Y0223558D01*
X0325946Y0223369D01*
X0325962Y0223179D01*
X0325974Y0222989D01*
X0325981Y0222799D01*
X0325983Y0222609D01*
X0325983Y0221933D01*
X0337185Y0223181D02*
X0349433Y0223181D01*
X0358433Y0223181D02*
X0370681Y0223181D01*
X0370681Y0196378D01*
X0363988Y0189685D01*
X0358433Y0189685D01*
X0349433Y0189685D02*
X0343878Y0189685D01*
X0337185Y0196378D01*
X0337185Y0223181D01*
X0361333Y0226534D02*
X0362034Y0225833D01*
X0363435Y0225833D01*
X0364135Y0226534D01*
X0365937Y0226534D02*
X0366638Y0225833D01*
X0368039Y0225833D01*
X0368739Y0226534D01*
X0368739Y0227234D01*
X0368039Y0227935D01*
X0367338Y0227935D01*
X0368039Y0227935D02*
X0368739Y0228635D01*
X0368739Y0229336D01*
X0368039Y0230037D01*
X0366638Y0230037D01*
X0365937Y0229336D01*
X0364135Y0229336D02*
X0363435Y0230037D01*
X0362034Y0230037D01*
X0361333Y0229336D01*
X0361333Y0226534D01*
X0361783Y0217433D02*
X0361785Y0217545D01*
X0361791Y0217656D01*
X0361801Y0217768D01*
X0361815Y0217879D01*
X0361832Y0217989D01*
X0361854Y0218099D01*
X0361880Y0218208D01*
X0361909Y0218316D01*
X0361942Y0218422D01*
X0361979Y0218528D01*
X0362020Y0218632D01*
X0362065Y0218735D01*
X0362113Y0218836D01*
X0362164Y0218935D01*
X0362219Y0219032D01*
X0362278Y0219127D01*
X0362339Y0219221D01*
X0362404Y0219312D01*
X0362473Y0219400D01*
X0362544Y0219486D01*
X0362618Y0219570D01*
X0362696Y0219650D01*
X0362776Y0219728D01*
X0362859Y0219804D01*
X0362944Y0219876D01*
X0363032Y0219945D01*
X0363122Y0220011D01*
X0363215Y0220073D01*
X0363310Y0220133D01*
X0363407Y0220189D01*
X0363505Y0220241D01*
X0363606Y0220290D01*
X0363708Y0220335D01*
X0363812Y0220377D01*
X0363917Y0220415D01*
X0364024Y0220449D01*
X0364131Y0220479D01*
X0364240Y0220506D01*
X0364349Y0220528D01*
X0364460Y0220547D01*
X0364570Y0220562D01*
X0364682Y0220573D01*
X0364793Y0220580D01*
X0364905Y0220583D01*
X0365017Y0220582D01*
X0365129Y0220577D01*
X0365240Y0220568D01*
X0365351Y0220555D01*
X0365462Y0220538D01*
X0365572Y0220518D01*
X0365681Y0220493D01*
X0365789Y0220465D01*
X0365896Y0220432D01*
X0366002Y0220396D01*
X0366106Y0220356D01*
X0366209Y0220313D01*
X0366311Y0220266D01*
X0366410Y0220215D01*
X0366508Y0220161D01*
X0366604Y0220103D01*
X0366698Y0220042D01*
X0366789Y0219978D01*
X0366878Y0219911D01*
X0366965Y0219840D01*
X0367049Y0219766D01*
X0367131Y0219690D01*
X0367209Y0219610D01*
X0367285Y0219528D01*
X0367358Y0219443D01*
X0367428Y0219356D01*
X0367494Y0219266D01*
X0367558Y0219174D01*
X0367618Y0219080D01*
X0367675Y0218984D01*
X0367728Y0218885D01*
X0367778Y0218785D01*
X0367824Y0218684D01*
X0367867Y0218580D01*
X0367906Y0218475D01*
X0367941Y0218369D01*
X0367972Y0218262D01*
X0368000Y0218153D01*
X0368023Y0218044D01*
X0368043Y0217934D01*
X0368059Y0217823D01*
X0368071Y0217712D01*
X0368079Y0217601D01*
X0368083Y0217489D01*
X0368083Y0217377D01*
X0368079Y0217265D01*
X0368071Y0217154D01*
X0368059Y0217043D01*
X0368043Y0216932D01*
X0368023Y0216822D01*
X0368000Y0216713D01*
X0367972Y0216604D01*
X0367941Y0216497D01*
X0367906Y0216391D01*
X0367867Y0216286D01*
X0367824Y0216182D01*
X0367778Y0216081D01*
X0367728Y0215981D01*
X0367675Y0215882D01*
X0367618Y0215786D01*
X0367558Y0215692D01*
X0367494Y0215600D01*
X0367428Y0215510D01*
X0367358Y0215423D01*
X0367285Y0215338D01*
X0367209Y0215256D01*
X0367131Y0215176D01*
X0367049Y0215100D01*
X0366965Y0215026D01*
X0366878Y0214955D01*
X0366789Y0214888D01*
X0366698Y0214824D01*
X0366604Y0214763D01*
X0366508Y0214705D01*
X0366410Y0214651D01*
X0366311Y0214600D01*
X0366209Y0214553D01*
X0366106Y0214510D01*
X0366002Y0214470D01*
X0365896Y0214434D01*
X0365789Y0214401D01*
X0365681Y0214373D01*
X0365572Y0214348D01*
X0365462Y0214328D01*
X0365351Y0214311D01*
X0365240Y0214298D01*
X0365129Y0214289D01*
X0365017Y0214284D01*
X0364905Y0214283D01*
X0364793Y0214286D01*
X0364682Y0214293D01*
X0364570Y0214304D01*
X0364460Y0214319D01*
X0364349Y0214338D01*
X0364240Y0214360D01*
X0364131Y0214387D01*
X0364024Y0214417D01*
X0363917Y0214451D01*
X0363812Y0214489D01*
X0363708Y0214531D01*
X0363606Y0214576D01*
X0363505Y0214625D01*
X0363407Y0214677D01*
X0363310Y0214733D01*
X0363215Y0214793D01*
X0363122Y0214855D01*
X0363032Y0214921D01*
X0362944Y0214990D01*
X0362859Y0215062D01*
X0362776Y0215138D01*
X0362696Y0215216D01*
X0362618Y0215296D01*
X0362544Y0215380D01*
X0362473Y0215466D01*
X0362404Y0215554D01*
X0362339Y0215645D01*
X0362278Y0215739D01*
X0362219Y0215834D01*
X0362164Y0215931D01*
X0362113Y0216030D01*
X0362065Y0216131D01*
X0362020Y0216234D01*
X0361979Y0216338D01*
X0361942Y0216444D01*
X0361909Y0216550D01*
X0361880Y0216658D01*
X0361854Y0216767D01*
X0361832Y0216877D01*
X0361815Y0216987D01*
X0361801Y0217098D01*
X0361791Y0217210D01*
X0361785Y0217321D01*
X0361783Y0217433D01*
X0376433Y0217433D02*
X0378933Y0214933D01*
X0383933Y0214933D01*
X0386433Y0217433D01*
X0386433Y0222433D01*
X0383933Y0224933D01*
X0378933Y0224933D01*
X0376433Y0222433D01*
X0376433Y0217433D01*
X0378933Y0214933D02*
X0376433Y0212433D01*
X0376433Y0207433D01*
X0378933Y0204933D01*
X0376433Y0204933D01*
X0376433Y0194933D01*
X0386433Y0194933D01*
X0386433Y0204933D01*
X0383933Y0204933D01*
X0386433Y0207433D01*
X0386433Y0212433D01*
X0383933Y0214933D01*
X0383933Y0204933D02*
X0378933Y0204933D01*
X0379234Y0192537D02*
X0380635Y0192537D01*
X0379935Y0192537D02*
X0379935Y0189034D01*
X0379234Y0188333D01*
X0378534Y0188333D01*
X0377833Y0189034D01*
X0382437Y0189034D02*
X0383138Y0188333D01*
X0384539Y0188333D01*
X0385239Y0189034D01*
X0385239Y0189734D01*
X0384539Y0190435D01*
X0382437Y0190435D01*
X0382437Y0189034D01*
X0382437Y0190435D02*
X0383838Y0191836D01*
X0385239Y0192537D01*
X0396184Y0186682D02*
X0398953Y0186682D01*
X0396184Y0186682D02*
X0396184Y0183913D01*
X0391533Y0180239D02*
X0391533Y0177437D01*
X0388731Y0180239D01*
X0388030Y0180239D01*
X0387329Y0179539D01*
X0387329Y0178138D01*
X0388030Y0177437D01*
X0387329Y0175635D02*
X0390832Y0175635D01*
X0391533Y0174935D01*
X0391533Y0173534D01*
X0390832Y0172833D01*
X0387329Y0172833D01*
X0396184Y0168953D02*
X0396184Y0166184D01*
X0398953Y0166184D01*
X0413913Y0166184D02*
X0416682Y0166184D01*
X0416682Y0168953D01*
X0416682Y0183913D02*
X0416682Y0186682D01*
X0413913Y0186682D01*
X0383933Y0164933D02*
X0378933Y0164933D01*
X0378933Y0157933D02*
X0383933Y0157933D01*
X0385242Y0155037D02*
X0384541Y0154336D01*
X0385242Y0155037D02*
X0386643Y0155037D01*
X0387343Y0154336D01*
X0387343Y0153635D01*
X0384541Y0150833D01*
X0387343Y0150833D01*
X0382739Y0150833D02*
X0379937Y0150833D01*
X0381338Y0150833D02*
X0381338Y0155037D01*
X0379937Y0153635D01*
X0378135Y0152935D02*
X0377435Y0152234D01*
X0375333Y0152234D01*
X0375333Y0150833D02*
X0375333Y0155037D01*
X0377435Y0155037D01*
X0378135Y0154336D01*
X0378135Y0152935D01*
X0376734Y0152234D02*
X0378135Y0150833D01*
X0390208Y0141308D02*
X0394808Y0141308D01*
X0394808Y0128408D01*
X0392258Y0128408D01*
X0394808Y0131158D01*
X0394808Y0128408D01*
X0390208Y0128408D01*
X0390208Y0141308D01*
X0394343Y0130657D02*
X0394808Y0130657D01*
X0394808Y0129859D02*
X0393603Y0129859D01*
X0392863Y0129060D02*
X0394808Y0129060D01*
X0391130Y0125739D02*
X0393932Y0122937D01*
X0394633Y0122937D01*
X0393932Y0121135D02*
X0390429Y0121135D01*
X0390429Y0122937D02*
X0390429Y0125739D01*
X0391130Y0125739D01*
X0393932Y0121135D02*
X0394633Y0120435D01*
X0394633Y0119034D01*
X0393932Y0118333D01*
X0390429Y0118333D01*
X0394220Y0105933D02*
X0416646Y0105933D01*
X0416700Y0105931D01*
X0416753Y0105926D01*
X0416806Y0105917D01*
X0416858Y0105904D01*
X0416910Y0105888D01*
X0416960Y0105868D01*
X0417008Y0105845D01*
X0417055Y0105818D01*
X0417100Y0105789D01*
X0417143Y0105756D01*
X0417183Y0105721D01*
X0417221Y0105683D01*
X0417256Y0105643D01*
X0417289Y0105600D01*
X0417318Y0105555D01*
X0417345Y0105508D01*
X0417368Y0105460D01*
X0417388Y0105410D01*
X0417404Y0105358D01*
X0417417Y0105306D01*
X0417426Y0105253D01*
X0417431Y0105200D01*
X0417433Y0105146D01*
X0417433Y0082720D01*
X0417431Y0082666D01*
X0417426Y0082613D01*
X0417417Y0082560D01*
X0417404Y0082508D01*
X0417388Y0082456D01*
X0417368Y0082406D01*
X0417345Y0082358D01*
X0417318Y0082311D01*
X0417289Y0082266D01*
X0417256Y0082223D01*
X0417221Y0082183D01*
X0417183Y0082145D01*
X0417143Y0082110D01*
X0417100Y0082077D01*
X0417055Y0082048D01*
X0417008Y0082021D01*
X0416960Y0081998D01*
X0416910Y0081978D01*
X0416858Y0081962D01*
X0416806Y0081949D01*
X0416753Y0081940D01*
X0416700Y0081935D01*
X0416646Y0081933D01*
X0394220Y0081933D01*
X0394166Y0081935D01*
X0394113Y0081940D01*
X0394060Y0081949D01*
X0394008Y0081962D01*
X0393956Y0081978D01*
X0393906Y0081998D01*
X0393858Y0082021D01*
X0393811Y0082048D01*
X0393766Y0082077D01*
X0393723Y0082110D01*
X0393683Y0082145D01*
X0393645Y0082183D01*
X0393610Y0082223D01*
X0393577Y0082266D01*
X0393548Y0082311D01*
X0393521Y0082358D01*
X0393498Y0082406D01*
X0393478Y0082456D01*
X0393462Y0082508D01*
X0393449Y0082560D01*
X0393440Y0082613D01*
X0393435Y0082666D01*
X0393433Y0082720D01*
X0393433Y0105146D01*
X0393435Y0105200D01*
X0393440Y0105253D01*
X0393449Y0105306D01*
X0393462Y0105358D01*
X0393478Y0105410D01*
X0393498Y0105460D01*
X0393521Y0105508D01*
X0393548Y0105555D01*
X0393577Y0105600D01*
X0393610Y0105643D01*
X0393645Y0105683D01*
X0393683Y0105721D01*
X0393723Y0105756D01*
X0393766Y0105789D01*
X0393811Y0105818D01*
X0393858Y0105845D01*
X0393906Y0105868D01*
X0393956Y0105888D01*
X0394008Y0105904D01*
X0394060Y0105917D01*
X0394113Y0105926D01*
X0394166Y0105931D01*
X0394220Y0105933D01*
X0411428Y0110608D02*
X0412128Y0109908D01*
X0413529Y0109908D01*
X0414230Y0110608D01*
X0414230Y0114111D01*
X0416031Y0113411D02*
X0416031Y0112710D01*
X0416732Y0112010D01*
X0418133Y0112010D01*
X0418834Y0111309D01*
X0418834Y0110608D01*
X0418133Y0109908D01*
X0416732Y0109908D01*
X0416031Y0110608D01*
X0416031Y0113411D02*
X0416732Y0114111D01*
X0418133Y0114111D01*
X0418834Y0113411D01*
X0420635Y0114111D02*
X0422737Y0114111D01*
X0423438Y0113411D01*
X0423438Y0112710D01*
X0422737Y0112010D01*
X0420635Y0112010D01*
X0420635Y0114111D02*
X0420635Y0109908D01*
X0422737Y0109908D01*
X0423438Y0110608D01*
X0423438Y0111309D01*
X0422737Y0112010D01*
X0411428Y0110608D02*
X0411428Y0114111D01*
X0415433Y0098933D02*
X0415433Y0095933D01*
X0412933Y0094933D02*
X0415433Y0091933D01*
X0415433Y0088933D01*
X0420533Y0092534D02*
X0421234Y0091833D01*
X0422635Y0091833D01*
X0423335Y0092534D01*
X0423335Y0093234D01*
X0422635Y0093935D01*
X0421234Y0093935D01*
X0420533Y0094635D01*
X0420533Y0095336D01*
X0421234Y0096037D01*
X0422635Y0096037D01*
X0423335Y0095336D01*
X0425137Y0095336D02*
X0425838Y0096037D01*
X0427239Y0096037D01*
X0427939Y0095336D01*
X0427939Y0094635D01*
X0425137Y0091833D01*
X0427939Y0091833D01*
X0416101Y0079037D02*
X0413299Y0079037D01*
X0414700Y0079037D02*
X0414700Y0074833D01*
X0411497Y0074833D02*
X0408695Y0074833D01*
X0408695Y0079037D01*
X0411497Y0079037D01*
X0410096Y0076935D02*
X0408695Y0076935D01*
X0406893Y0076234D02*
X0406893Y0075534D01*
X0406193Y0074833D01*
X0404792Y0074833D01*
X0404091Y0075534D01*
X0404792Y0076935D02*
X0406193Y0076935D01*
X0406893Y0076234D01*
X0406893Y0078336D02*
X0406193Y0079037D01*
X0404792Y0079037D01*
X0404091Y0078336D01*
X0404091Y0077635D01*
X0404792Y0076935D01*
X0402289Y0079037D02*
X0399487Y0079037D01*
X0399487Y0074833D01*
X0402289Y0074833D01*
X0400888Y0076935D02*
X0399487Y0076935D01*
X0397685Y0076935D02*
X0396985Y0076234D01*
X0394883Y0076234D01*
X0394883Y0074833D02*
X0394883Y0079037D01*
X0396985Y0079037D01*
X0397685Y0078336D01*
X0397685Y0076935D01*
X0396284Y0076234D02*
X0397685Y0074833D01*
X0388332Y0064620D02*
X0385530Y0064620D01*
X0388332Y0061818D01*
X0389033Y0062519D01*
X0389033Y0063920D01*
X0388332Y0064620D01*
X0385530Y0064620D02*
X0384829Y0063920D01*
X0384829Y0062519D01*
X0385530Y0061818D01*
X0388332Y0061818D01*
X0389033Y0060017D02*
X0389033Y0057214D01*
X0389033Y0058615D02*
X0384829Y0058615D01*
X0386231Y0057214D01*
X0386931Y0055413D02*
X0386931Y0052610D01*
X0386931Y0050809D02*
X0387632Y0050108D01*
X0387632Y0048006D01*
X0389033Y0048006D02*
X0384829Y0048006D01*
X0384829Y0050108D01*
X0385530Y0050809D01*
X0386931Y0050809D01*
X0387632Y0046205D02*
X0388332Y0046205D01*
X0389033Y0045504D01*
X0389033Y0044103D01*
X0388332Y0043402D01*
X0386931Y0044103D02*
X0386931Y0045504D01*
X0387632Y0046205D01*
X0385530Y0046205D02*
X0384829Y0045504D01*
X0384829Y0044103D01*
X0385530Y0043402D01*
X0386231Y0043402D01*
X0386931Y0044103D01*
X0384829Y0041734D02*
X0384829Y0040333D01*
X0384829Y0041034D02*
X0389033Y0041034D01*
X0389033Y0041734D02*
X0389033Y0040333D01*
X0381733Y0039433D02*
X0381733Y0073433D01*
X0350433Y0073433D01*
X0350433Y0071933D01*
X0332433Y0071933D01*
X0332433Y0073433D01*
X0332433Y0074933D01*
X0350433Y0074933D01*
X0350433Y0073433D01*
X0361433Y0080933D02*
X0366433Y0080933D01*
X0366433Y0087933D02*
X0361433Y0087933D01*
X0361433Y0091933D02*
X0366433Y0091933D01*
X0366433Y0098933D02*
X0361433Y0098933D01*
X0361433Y0102933D02*
X0366433Y0102933D01*
X0366433Y0109933D02*
X0361433Y0109933D01*
X0361433Y0113933D02*
X0366433Y0113933D01*
X0366433Y0120933D02*
X0361433Y0120933D01*
X0338933Y0120933D02*
X0333933Y0120933D01*
X0335252Y0119389D02*
X0335252Y0117433D01*
X0337614Y0119295D01*
X0337614Y0115571D01*
X0335252Y0117433D01*
X0335252Y0115477D01*
X0333933Y0113933D02*
X0338933Y0113933D01*
X0338933Y0109933D02*
X0333933Y0109933D01*
X0335252Y0108389D02*
X0335252Y0106433D01*
X0337614Y0108295D01*
X0337614Y0104571D01*
X0335252Y0106433D01*
X0335252Y0104477D01*
X0333933Y0102933D02*
X0338933Y0102933D01*
X0338933Y0098933D02*
X0333933Y0098933D01*
X0335252Y0097389D02*
X0335252Y0095433D01*
X0337614Y0097295D01*
X0337614Y0093571D01*
X0335252Y0095433D01*
X0335252Y0093477D01*
X0333933Y0091933D02*
X0338933Y0091933D01*
X0338933Y0087933D02*
X0333933Y0087933D01*
X0335252Y0086389D02*
X0335252Y0084433D01*
X0337614Y0086295D01*
X0337614Y0082571D01*
X0335252Y0084433D01*
X0335252Y0082477D01*
X0333933Y0080933D02*
X0338933Y0080933D01*
X0332433Y0073433D02*
X0301133Y0073433D01*
X0301133Y0039433D01*
X0381733Y0039433D01*
X0372433Y0059433D02*
X0368933Y0061433D01*
X0372433Y0063433D01*
X0372433Y0059433D01*
X0372433Y0059590D02*
X0372159Y0059590D01*
X0372433Y0060388D02*
X0370761Y0060388D01*
X0369364Y0061187D02*
X0372433Y0061187D01*
X0372433Y0061985D02*
X0369900Y0061985D01*
X0371297Y0062784D02*
X0372433Y0062784D01*
X0400512Y0093933D02*
X0400514Y0094073D01*
X0400520Y0094213D01*
X0400530Y0094352D01*
X0400544Y0094491D01*
X0400562Y0094630D01*
X0400583Y0094768D01*
X0400609Y0094906D01*
X0400639Y0095043D01*
X0400672Y0095178D01*
X0400710Y0095313D01*
X0400751Y0095447D01*
X0400796Y0095580D01*
X0400844Y0095711D01*
X0400897Y0095840D01*
X0400953Y0095969D01*
X0401012Y0096095D01*
X0401076Y0096220D01*
X0401142Y0096343D01*
X0401213Y0096464D01*
X0401286Y0096583D01*
X0401363Y0096700D01*
X0401444Y0096814D01*
X0401527Y0096926D01*
X0401614Y0097036D01*
X0401704Y0097144D01*
X0401796Y0097248D01*
X0401892Y0097350D01*
X0401991Y0097450D01*
X0402092Y0097546D01*
X0402196Y0097640D01*
X0402303Y0097730D01*
X0402412Y0097817D01*
X0402524Y0097902D01*
X0402638Y0097983D01*
X0402754Y0098061D01*
X0402872Y0098135D01*
X0402993Y0098206D01*
X0403115Y0098274D01*
X0403240Y0098338D01*
X0403366Y0098399D01*
X0403493Y0098456D01*
X0403623Y0098509D01*
X0403754Y0098559D01*
X0403886Y0098604D01*
X0404019Y0098647D01*
X0404154Y0098685D01*
X0404289Y0098719D01*
X0404426Y0098750D01*
X0404563Y0098777D01*
X0404701Y0098799D01*
X0404840Y0098818D01*
X0404979Y0098833D01*
X0405118Y0098844D01*
X0405258Y0098851D01*
X0405398Y0098854D01*
X0405538Y0098853D01*
X0405678Y0098848D01*
X0405817Y0098839D01*
X0405957Y0098826D01*
X0406096Y0098809D01*
X0406234Y0098788D01*
X0406372Y0098764D01*
X0406509Y0098735D01*
X0406645Y0098703D01*
X0406780Y0098666D01*
X0406914Y0098626D01*
X0407047Y0098582D01*
X0407178Y0098534D01*
X0407308Y0098483D01*
X0407437Y0098428D01*
X0407564Y0098369D01*
X0407689Y0098306D01*
X0407812Y0098241D01*
X0407934Y0098171D01*
X0408053Y0098098D01*
X0408171Y0098022D01*
X0408286Y0097943D01*
X0408399Y0097860D01*
X0408509Y0097774D01*
X0408617Y0097685D01*
X0408722Y0097593D01*
X0408825Y0097498D01*
X0408925Y0097400D01*
X0409022Y0097300D01*
X0409116Y0097196D01*
X0409208Y0097090D01*
X0409296Y0096982D01*
X0409381Y0096871D01*
X0409463Y0096757D01*
X0409542Y0096641D01*
X0409617Y0096524D01*
X0409689Y0096404D01*
X0409757Y0096282D01*
X0409822Y0096158D01*
X0409884Y0096032D01*
X0409942Y0095905D01*
X0409996Y0095776D01*
X0410047Y0095645D01*
X0410093Y0095513D01*
X0410136Y0095380D01*
X0410176Y0095246D01*
X0410211Y0095111D01*
X0410243Y0094974D01*
X0410270Y0094837D01*
X0410294Y0094699D01*
X0410314Y0094561D01*
X0410330Y0094422D01*
X0410342Y0094282D01*
X0410350Y0094143D01*
X0410354Y0094003D01*
X0410354Y0093863D01*
X0410350Y0093723D01*
X0410342Y0093584D01*
X0410330Y0093444D01*
X0410314Y0093305D01*
X0410294Y0093167D01*
X0410270Y0093029D01*
X0410243Y0092892D01*
X0410211Y0092755D01*
X0410176Y0092620D01*
X0410136Y0092486D01*
X0410093Y0092353D01*
X0410047Y0092221D01*
X0409996Y0092090D01*
X0409942Y0091961D01*
X0409884Y0091834D01*
X0409822Y0091708D01*
X0409757Y0091584D01*
X0409689Y0091462D01*
X0409617Y0091342D01*
X0409542Y0091225D01*
X0409463Y0091109D01*
X0409381Y0090995D01*
X0409296Y0090884D01*
X0409208Y0090776D01*
X0409116Y0090670D01*
X0409022Y0090566D01*
X0408925Y0090466D01*
X0408825Y0090368D01*
X0408722Y0090273D01*
X0408617Y0090181D01*
X0408509Y0090092D01*
X0408399Y0090006D01*
X0408286Y0089923D01*
X0408171Y0089844D01*
X0408053Y0089768D01*
X0407934Y0089695D01*
X0407812Y0089625D01*
X0407689Y0089560D01*
X0407564Y0089497D01*
X0407437Y0089438D01*
X0407308Y0089383D01*
X0407178Y0089332D01*
X0407047Y0089284D01*
X0406914Y0089240D01*
X0406780Y0089200D01*
X0406645Y0089163D01*
X0406509Y0089131D01*
X0406372Y0089102D01*
X0406234Y0089078D01*
X0406096Y0089057D01*
X0405957Y0089040D01*
X0405817Y0089027D01*
X0405678Y0089018D01*
X0405538Y0089013D01*
X0405398Y0089012D01*
X0405258Y0089015D01*
X0405118Y0089022D01*
X0404979Y0089033D01*
X0404840Y0089048D01*
X0404701Y0089067D01*
X0404563Y0089089D01*
X0404426Y0089116D01*
X0404289Y0089147D01*
X0404154Y0089181D01*
X0404019Y0089219D01*
X0403886Y0089262D01*
X0403754Y0089307D01*
X0403623Y0089357D01*
X0403493Y0089410D01*
X0403366Y0089467D01*
X0403240Y0089528D01*
X0403115Y0089592D01*
X0402993Y0089660D01*
X0402872Y0089731D01*
X0402754Y0089805D01*
X0402638Y0089883D01*
X0402524Y0089964D01*
X0402412Y0090049D01*
X0402303Y0090136D01*
X0402196Y0090226D01*
X0402092Y0090320D01*
X0401991Y0090416D01*
X0401892Y0090516D01*
X0401796Y0090618D01*
X0401704Y0090722D01*
X0401614Y0090830D01*
X0401527Y0090940D01*
X0401444Y0091052D01*
X0401363Y0091166D01*
X0401286Y0091283D01*
X0401213Y0091402D01*
X0401142Y0091523D01*
X0401076Y0091646D01*
X0401012Y0091771D01*
X0400953Y0091897D01*
X0400897Y0092026D01*
X0400844Y0092155D01*
X0400796Y0092286D01*
X0400751Y0092419D01*
X0400710Y0092553D01*
X0400672Y0092688D01*
X0400639Y0092823D01*
X0400609Y0092960D01*
X0400583Y0093098D01*
X0400562Y0093236D01*
X0400544Y0093375D01*
X0400530Y0093514D01*
X0400520Y0093653D01*
X0400514Y0093793D01*
X0400512Y0093933D01*
X0362933Y0138933D02*
X0362933Y0143933D01*
X0355933Y0143933D02*
X0355933Y0138933D01*
X0352933Y0138933D02*
X0352933Y0143933D01*
X0345933Y0143933D02*
X0345933Y0138933D01*
X0342933Y0138933D02*
X0342933Y0143933D01*
X0335933Y0143933D02*
X0335933Y0138933D01*
X0332933Y0138933D02*
X0332933Y0143933D01*
X0325933Y0143933D02*
X0325933Y0138933D01*
X0314183Y0131433D02*
X0298683Y0131433D01*
X0298683Y0151433D01*
X0303683Y0151433D01*
X0303685Y0151329D01*
X0303691Y0151225D01*
X0303701Y0151121D01*
X0303714Y0151018D01*
X0303732Y0150916D01*
X0303754Y0150814D01*
X0303779Y0150713D01*
X0303808Y0150613D01*
X0303841Y0150514D01*
X0303878Y0150417D01*
X0303918Y0150321D01*
X0303962Y0150226D01*
X0304009Y0150134D01*
X0304060Y0150043D01*
X0304114Y0149954D01*
X0304172Y0149868D01*
X0304233Y0149783D01*
X0304297Y0149701D01*
X0304364Y0149621D01*
X0304434Y0149544D01*
X0304507Y0149470D01*
X0304583Y0149399D01*
X0304661Y0149330D01*
X0304742Y0149265D01*
X0304825Y0149202D01*
X0304911Y0149143D01*
X0304998Y0149087D01*
X0305088Y0149034D01*
X0305180Y0148985D01*
X0305273Y0148939D01*
X0305369Y0148897D01*
X0305465Y0148859D01*
X0305563Y0148824D01*
X0305663Y0148793D01*
X0305763Y0148766D01*
X0305865Y0148742D01*
X0305967Y0148723D01*
X0306070Y0148707D01*
X0306173Y0148695D01*
X0306277Y0148687D01*
X0306381Y0148683D01*
X0306485Y0148683D01*
X0306589Y0148687D01*
X0306693Y0148695D01*
X0306796Y0148707D01*
X0306899Y0148723D01*
X0307001Y0148742D01*
X0307103Y0148766D01*
X0307203Y0148793D01*
X0307303Y0148824D01*
X0307401Y0148859D01*
X0307497Y0148897D01*
X0307593Y0148939D01*
X0307686Y0148985D01*
X0307778Y0149034D01*
X0307868Y0149087D01*
X0307955Y0149143D01*
X0308041Y0149202D01*
X0308124Y0149265D01*
X0308205Y0149330D01*
X0308283Y0149399D01*
X0308359Y0149470D01*
X0308432Y0149544D01*
X0308502Y0149621D01*
X0308569Y0149701D01*
X0308633Y0149783D01*
X0308694Y0149868D01*
X0308752Y0149954D01*
X0308806Y0150043D01*
X0308857Y0150134D01*
X0308904Y0150226D01*
X0308948Y0150321D01*
X0308988Y0150417D01*
X0309025Y0150514D01*
X0309058Y0150613D01*
X0309087Y0150713D01*
X0309112Y0150814D01*
X0309134Y0150916D01*
X0309152Y0151018D01*
X0309165Y0151121D01*
X0309175Y0151225D01*
X0309181Y0151329D01*
X0309183Y0151433D01*
X0314183Y0151433D01*
X0314183Y0131433D01*
X0292443Y0125935D02*
X0289641Y0125935D01*
X0291743Y0128037D01*
X0291743Y0123833D01*
X0287839Y0123833D02*
X0285037Y0123833D01*
X0286438Y0123833D02*
X0286438Y0128037D01*
X0285037Y0126635D01*
X0283235Y0127336D02*
X0282535Y0128037D01*
X0281134Y0128037D01*
X0280433Y0127336D01*
X0280433Y0124534D01*
X0281134Y0123833D01*
X0282535Y0123833D01*
X0283235Y0124534D01*
X0282933Y0113933D02*
X0282933Y0108933D01*
X0289933Y0108933D02*
X0289933Y0113933D01*
X0268933Y0137433D02*
X0267433Y0138933D01*
X0216433Y0138933D01*
X0213933Y0136433D01*
X0213933Y0085433D01*
X0215433Y0083933D01*
X0267433Y0083933D01*
X0268933Y0085433D01*
X0268933Y0137433D01*
X0243933Y0152933D02*
X0238933Y0152933D01*
X0238933Y0159933D02*
X0243933Y0159933D01*
X0242739Y0163333D02*
X0239937Y0163333D01*
X0241338Y0163333D02*
X0241338Y0167537D01*
X0239937Y0166135D01*
X0238135Y0166836D02*
X0237435Y0167537D01*
X0236034Y0167537D01*
X0235333Y0166836D01*
X0235333Y0164034D01*
X0236034Y0163333D01*
X0237435Y0163333D01*
X0238135Y0164034D01*
X0244541Y0164034D02*
X0245242Y0163333D01*
X0246643Y0163333D01*
X0247343Y0164034D01*
X0247343Y0164734D01*
X0246643Y0165435D01*
X0245942Y0165435D01*
X0246643Y0165435D02*
X0247343Y0166135D01*
X0247343Y0166836D01*
X0246643Y0167537D01*
X0245242Y0167537D01*
X0244541Y0166836D01*
X0260333Y0171534D02*
X0260333Y0174336D01*
X0261034Y0175037D01*
X0262435Y0175037D01*
X0263135Y0174336D01*
X0264937Y0173635D02*
X0266338Y0175037D01*
X0266338Y0170833D01*
X0264937Y0170833D02*
X0267739Y0170833D01*
X0263135Y0171534D02*
X0262435Y0170833D01*
X0261034Y0170833D01*
X0260333Y0171534D01*
X0261433Y0177933D02*
X0266433Y0177933D01*
X0277833Y0176037D02*
X0277833Y0171833D01*
X0279935Y0171833D01*
X0280635Y0172534D01*
X0280635Y0175336D01*
X0279935Y0176037D01*
X0277833Y0176037D01*
X0282437Y0176037D02*
X0282437Y0173935D01*
X0283838Y0174635D01*
X0284539Y0174635D01*
X0285239Y0173935D01*
X0285239Y0172534D01*
X0284539Y0171833D01*
X0283138Y0171833D01*
X0282437Y0172534D01*
X0282437Y0176037D02*
X0285239Y0176037D01*
X0285757Y0182383D02*
X0318109Y0182383D01*
X0318299Y0182385D01*
X0318489Y0182392D01*
X0318679Y0182404D01*
X0318869Y0182420D01*
X0319058Y0182440D01*
X0319247Y0182466D01*
X0319435Y0182495D01*
X0319622Y0182530D01*
X0319808Y0182569D01*
X0319993Y0182612D01*
X0320178Y0182660D01*
X0320361Y0182712D01*
X0320542Y0182768D01*
X0320722Y0182829D01*
X0320901Y0182895D01*
X0321078Y0182964D01*
X0321254Y0183038D01*
X0321427Y0183116D01*
X0321599Y0183199D01*
X0321768Y0183285D01*
X0321936Y0183375D01*
X0322101Y0183470D01*
X0322264Y0183568D01*
X0322424Y0183671D01*
X0322582Y0183777D01*
X0322737Y0183887D01*
X0322890Y0184000D01*
X0323040Y0184118D01*
X0323186Y0184239D01*
X0323330Y0184363D01*
X0323471Y0184491D01*
X0323609Y0184622D01*
X0323744Y0184757D01*
X0323875Y0184895D01*
X0324003Y0185036D01*
X0324127Y0185180D01*
X0324248Y0185326D01*
X0324366Y0185476D01*
X0324479Y0185629D01*
X0324589Y0185784D01*
X0324695Y0185942D01*
X0324798Y0186102D01*
X0324896Y0186265D01*
X0324991Y0186430D01*
X0325081Y0186598D01*
X0325167Y0186767D01*
X0325250Y0186939D01*
X0325328Y0187112D01*
X0325402Y0187288D01*
X0325471Y0187465D01*
X0325537Y0187644D01*
X0325598Y0187824D01*
X0325654Y0188005D01*
X0325706Y0188188D01*
X0325754Y0188373D01*
X0325797Y0188558D01*
X0325836Y0188744D01*
X0325871Y0188931D01*
X0325900Y0189119D01*
X0325926Y0189308D01*
X0325946Y0189497D01*
X0325962Y0189687D01*
X0325974Y0189877D01*
X0325981Y0190067D01*
X0325983Y0190257D01*
X0325983Y0190933D01*
X0304933Y0179233D02*
X0298933Y0179233D01*
X0299752Y0176889D02*
X0299752Y0173933D01*
X0303614Y0176795D01*
X0303614Y0171071D01*
X0299752Y0173933D01*
X0299752Y0170977D01*
X0298933Y0168633D02*
X0304933Y0168633D01*
X0305635Y0158537D02*
X0305635Y0155034D01*
X0304935Y0154333D01*
X0303534Y0154333D01*
X0302833Y0155034D01*
X0302833Y0158537D01*
X0307437Y0156435D02*
X0309539Y0156435D01*
X0310239Y0155734D01*
X0310239Y0155034D01*
X0309539Y0154333D01*
X0308138Y0154333D01*
X0307437Y0155034D01*
X0307437Y0156435D01*
X0308838Y0157836D01*
X0310239Y0158537D01*
X0300519Y0146933D02*
X0300521Y0147008D01*
X0300527Y0147082D01*
X0300537Y0147156D01*
X0300550Y0147229D01*
X0300568Y0147302D01*
X0300589Y0147373D01*
X0300614Y0147444D01*
X0300643Y0147513D01*
X0300676Y0147580D01*
X0300712Y0147645D01*
X0300751Y0147709D01*
X0300793Y0147770D01*
X0300839Y0147829D01*
X0300888Y0147886D01*
X0300940Y0147939D01*
X0300994Y0147990D01*
X0301051Y0148039D01*
X0301111Y0148083D01*
X0301173Y0148125D01*
X0301237Y0148164D01*
X0301303Y0148199D01*
X0301370Y0148230D01*
X0301440Y0148258D01*
X0301510Y0148282D01*
X0301582Y0148303D01*
X0301655Y0148319D01*
X0301728Y0148332D01*
X0301803Y0148341D01*
X0301877Y0148346D01*
X0301952Y0148347D01*
X0302026Y0148344D01*
X0302101Y0148337D01*
X0302174Y0148326D01*
X0302248Y0148312D01*
X0302320Y0148293D01*
X0302391Y0148271D01*
X0302461Y0148245D01*
X0302530Y0148215D01*
X0302596Y0148182D01*
X0302661Y0148145D01*
X0302724Y0148105D01*
X0302785Y0148061D01*
X0302843Y0148015D01*
X0302899Y0147965D01*
X0302952Y0147913D01*
X0303003Y0147858D01*
X0303050Y0147800D01*
X0303094Y0147740D01*
X0303135Y0147677D01*
X0303173Y0147613D01*
X0303207Y0147547D01*
X0303238Y0147478D01*
X0303265Y0147409D01*
X0303288Y0147338D01*
X0303307Y0147266D01*
X0303323Y0147193D01*
X0303335Y0147119D01*
X0303343Y0147045D01*
X0303347Y0146970D01*
X0303347Y0146896D01*
X0303343Y0146821D01*
X0303335Y0146747D01*
X0303323Y0146673D01*
X0303307Y0146600D01*
X0303288Y0146528D01*
X0303265Y0146457D01*
X0303238Y0146388D01*
X0303207Y0146319D01*
X0303173Y0146253D01*
X0303135Y0146189D01*
X0303094Y0146126D01*
X0303050Y0146066D01*
X0303003Y0146008D01*
X0302952Y0145953D01*
X0302899Y0145901D01*
X0302843Y0145851D01*
X0302785Y0145805D01*
X0302724Y0145761D01*
X0302661Y0145721D01*
X0302596Y0145684D01*
X0302530Y0145651D01*
X0302461Y0145621D01*
X0302391Y0145595D01*
X0302320Y0145573D01*
X0302248Y0145554D01*
X0302174Y0145540D01*
X0302101Y0145529D01*
X0302026Y0145522D01*
X0301952Y0145519D01*
X0301877Y0145520D01*
X0301803Y0145525D01*
X0301728Y0145534D01*
X0301655Y0145547D01*
X0301582Y0145563D01*
X0301510Y0145584D01*
X0301440Y0145608D01*
X0301370Y0145636D01*
X0301303Y0145667D01*
X0301237Y0145702D01*
X0301173Y0145741D01*
X0301111Y0145783D01*
X0301051Y0145827D01*
X0300994Y0145876D01*
X0300940Y0145927D01*
X0300888Y0145980D01*
X0300839Y0146037D01*
X0300793Y0146096D01*
X0300751Y0146157D01*
X0300712Y0146221D01*
X0300676Y0146286D01*
X0300643Y0146353D01*
X0300614Y0146422D01*
X0300589Y0146493D01*
X0300568Y0146564D01*
X0300550Y0146637D01*
X0300537Y0146710D01*
X0300527Y0146784D01*
X0300521Y0146858D01*
X0300519Y0146933D01*
X0327329Y0154534D02*
X0328030Y0153833D01*
X0330832Y0153833D01*
X0331533Y0154534D01*
X0331533Y0155935D01*
X0330832Y0156635D01*
X0331533Y0158437D02*
X0328731Y0161239D01*
X0328030Y0161239D01*
X0327329Y0160539D01*
X0327329Y0159138D01*
X0328030Y0158437D01*
X0328030Y0156635D02*
X0327329Y0155935D01*
X0327329Y0154534D01*
X0331533Y0158437D02*
X0331533Y0161239D01*
X0331533Y0163041D02*
X0331533Y0165843D01*
X0331533Y0164442D02*
X0327329Y0164442D01*
X0328731Y0163041D01*
X0337329Y0163742D02*
X0337329Y0165143D01*
X0338030Y0165843D01*
X0338731Y0165843D01*
X0339431Y0165143D01*
X0340132Y0165843D01*
X0340832Y0165843D01*
X0341533Y0165143D01*
X0341533Y0163742D01*
X0340832Y0163041D01*
X0341533Y0161239D02*
X0341533Y0158437D01*
X0338731Y0161239D01*
X0338030Y0161239D01*
X0337329Y0160539D01*
X0337329Y0159138D01*
X0338030Y0158437D01*
X0338030Y0156635D02*
X0339431Y0156635D01*
X0340132Y0155935D01*
X0340132Y0153833D01*
X0341533Y0153833D02*
X0337329Y0153833D01*
X0337329Y0155935D01*
X0338030Y0156635D01*
X0340132Y0155234D02*
X0341533Y0156635D01*
X0347329Y0155935D02*
X0348030Y0156635D01*
X0349431Y0156635D01*
X0350132Y0155935D01*
X0350132Y0153833D01*
X0351533Y0153833D02*
X0347329Y0153833D01*
X0347329Y0155935D01*
X0348030Y0158437D02*
X0347329Y0159138D01*
X0347329Y0160539D01*
X0348030Y0161239D01*
X0348731Y0161239D01*
X0351533Y0158437D01*
X0351533Y0161239D01*
X0351533Y0163041D02*
X0348731Y0165843D01*
X0348030Y0165843D01*
X0347329Y0165143D01*
X0347329Y0163742D01*
X0348030Y0163041D01*
X0351533Y0163041D02*
X0351533Y0165843D01*
X0357329Y0164442D02*
X0361533Y0164442D01*
X0361533Y0163041D02*
X0361533Y0165843D01*
X0358731Y0163041D02*
X0357329Y0164442D01*
X0358030Y0161239D02*
X0357329Y0160539D01*
X0357329Y0159138D01*
X0358030Y0158437D01*
X0358030Y0156635D02*
X0359431Y0156635D01*
X0360132Y0155935D01*
X0360132Y0153833D01*
X0361533Y0153833D02*
X0357329Y0153833D01*
X0357329Y0155935D01*
X0358030Y0156635D01*
X0360132Y0155234D02*
X0361533Y0156635D01*
X0361533Y0158437D02*
X0358731Y0161239D01*
X0358030Y0161239D01*
X0361533Y0161239D02*
X0361533Y0158437D01*
X0351533Y0156635D02*
X0350132Y0155234D01*
X0339431Y0164442D02*
X0339431Y0165143D01*
X0338030Y0163041D02*
X0337329Y0163742D01*
X0285757Y0182383D02*
X0285567Y0182385D01*
X0285377Y0182392D01*
X0285187Y0182404D01*
X0284997Y0182420D01*
X0284808Y0182440D01*
X0284619Y0182466D01*
X0284431Y0182495D01*
X0284244Y0182530D01*
X0284058Y0182569D01*
X0283873Y0182612D01*
X0283688Y0182660D01*
X0283505Y0182712D01*
X0283324Y0182768D01*
X0283144Y0182829D01*
X0282965Y0182895D01*
X0282788Y0182964D01*
X0282612Y0183038D01*
X0282439Y0183116D01*
X0282267Y0183199D01*
X0282098Y0183285D01*
X0281930Y0183375D01*
X0281765Y0183470D01*
X0281602Y0183568D01*
X0281442Y0183671D01*
X0281284Y0183777D01*
X0281129Y0183887D01*
X0280976Y0184000D01*
X0280826Y0184118D01*
X0280680Y0184239D01*
X0280536Y0184363D01*
X0280395Y0184491D01*
X0280257Y0184622D01*
X0280122Y0184757D01*
X0279991Y0184895D01*
X0279863Y0185036D01*
X0279739Y0185180D01*
X0279618Y0185326D01*
X0279500Y0185476D01*
X0279387Y0185629D01*
X0279277Y0185784D01*
X0279171Y0185942D01*
X0279068Y0186102D01*
X0278970Y0186265D01*
X0278875Y0186430D01*
X0278785Y0186598D01*
X0278699Y0186767D01*
X0278616Y0186939D01*
X0278538Y0187112D01*
X0278464Y0187288D01*
X0278395Y0187465D01*
X0278329Y0187644D01*
X0278268Y0187824D01*
X0278212Y0188005D01*
X0278160Y0188188D01*
X0278112Y0188373D01*
X0278069Y0188558D01*
X0278030Y0188744D01*
X0277995Y0188931D01*
X0277966Y0189119D01*
X0277940Y0189308D01*
X0277920Y0189497D01*
X0277904Y0189687D01*
X0277892Y0189877D01*
X0277885Y0190067D01*
X0277883Y0190257D01*
X0277883Y0190933D01*
X0266433Y0184933D02*
X0261433Y0184933D01*
X0244309Y0178833D02*
X0241506Y0178833D01*
X0242907Y0178833D02*
X0242907Y0183037D01*
X0241506Y0181635D01*
X0239705Y0182336D02*
X0239004Y0183037D01*
X0237603Y0183037D01*
X0236902Y0182336D01*
X0236902Y0179534D01*
X0237603Y0178833D01*
X0239004Y0178833D01*
X0239705Y0179534D01*
X0235234Y0178833D02*
X0233833Y0178833D01*
X0234534Y0178833D02*
X0234534Y0183037D01*
X0235234Y0183037D02*
X0233833Y0183037D01*
X0214088Y0148787D02*
X0214088Y0144583D01*
X0212687Y0144583D02*
X0215489Y0144583D01*
X0212687Y0147385D02*
X0214088Y0148787D01*
X0210885Y0148787D02*
X0210885Y0145284D01*
X0210185Y0144583D01*
X0208784Y0144583D01*
X0208083Y0145284D01*
X0208083Y0148787D01*
X0199933Y0148933D02*
X0199933Y0143933D01*
X0192933Y0143933D02*
X0192933Y0148933D01*
X0186832Y0142343D02*
X0184030Y0142343D01*
X0183329Y0141643D01*
X0183329Y0140242D01*
X0184030Y0139541D01*
X0184731Y0139541D01*
X0185431Y0140242D01*
X0185431Y0142343D01*
X0186832Y0142343D02*
X0187533Y0141643D01*
X0187533Y0140242D01*
X0186832Y0139541D01*
X0187533Y0137739D02*
X0187533Y0134937D01*
X0187533Y0136338D02*
X0183329Y0136338D01*
X0184731Y0134937D01*
X0184030Y0133135D02*
X0183329Y0132435D01*
X0183329Y0131034D01*
X0184030Y0130333D01*
X0186832Y0130333D01*
X0187533Y0131034D01*
X0187533Y0132435D01*
X0186832Y0133135D01*
X0191034Y0128037D02*
X0190333Y0127336D01*
X0190333Y0124534D01*
X0191034Y0123833D01*
X0192435Y0123833D01*
X0193135Y0124534D01*
X0194937Y0123833D02*
X0197739Y0123833D01*
X0196338Y0123833D02*
X0196338Y0128037D01*
X0194937Y0126635D01*
X0193135Y0127336D02*
X0192435Y0128037D01*
X0191034Y0128037D01*
X0199541Y0127336D02*
X0200242Y0128037D01*
X0201643Y0128037D01*
X0202343Y0127336D01*
X0202343Y0126635D01*
X0199541Y0123833D01*
X0202343Y0123833D01*
X0199933Y0113933D02*
X0199933Y0108933D01*
X0192933Y0108933D02*
X0192933Y0113933D01*
X0184933Y0108933D02*
X0184933Y0103933D01*
X0177933Y0103933D02*
X0177933Y0108933D01*
X0175533Y0107437D02*
X0174832Y0107437D01*
X0172030Y0110239D01*
X0171329Y0110239D01*
X0171329Y0107437D01*
X0172030Y0105635D02*
X0173431Y0105635D01*
X0174132Y0104935D01*
X0174132Y0102833D01*
X0175533Y0102833D02*
X0171329Y0102833D01*
X0171329Y0104935D01*
X0172030Y0105635D01*
X0174132Y0104234D02*
X0175533Y0105635D01*
X0159183Y0106433D02*
X0154183Y0106433D01*
X0154181Y0106329D01*
X0154175Y0106225D01*
X0154165Y0106121D01*
X0154152Y0106018D01*
X0154134Y0105916D01*
X0154112Y0105814D01*
X0154087Y0105713D01*
X0154058Y0105613D01*
X0154025Y0105514D01*
X0153988Y0105417D01*
X0153948Y0105321D01*
X0153904Y0105226D01*
X0153857Y0105134D01*
X0153806Y0105043D01*
X0153752Y0104954D01*
X0153694Y0104868D01*
X0153633Y0104783D01*
X0153569Y0104701D01*
X0153502Y0104621D01*
X0153432Y0104544D01*
X0153359Y0104470D01*
X0153283Y0104399D01*
X0153205Y0104330D01*
X0153124Y0104265D01*
X0153041Y0104202D01*
X0152955Y0104143D01*
X0152868Y0104087D01*
X0152778Y0104034D01*
X0152686Y0103985D01*
X0152593Y0103939D01*
X0152497Y0103897D01*
X0152401Y0103859D01*
X0152303Y0103824D01*
X0152203Y0103793D01*
X0152103Y0103766D01*
X0152001Y0103742D01*
X0151899Y0103723D01*
X0151796Y0103707D01*
X0151693Y0103695D01*
X0151589Y0103687D01*
X0151485Y0103683D01*
X0151381Y0103683D01*
X0151277Y0103687D01*
X0151173Y0103695D01*
X0151070Y0103707D01*
X0150967Y0103723D01*
X0150865Y0103742D01*
X0150763Y0103766D01*
X0150663Y0103793D01*
X0150563Y0103824D01*
X0150465Y0103859D01*
X0150369Y0103897D01*
X0150273Y0103939D01*
X0150180Y0103985D01*
X0150088Y0104034D01*
X0149998Y0104087D01*
X0149911Y0104143D01*
X0149825Y0104202D01*
X0149742Y0104265D01*
X0149661Y0104330D01*
X0149583Y0104399D01*
X0149507Y0104470D01*
X0149434Y0104544D01*
X0149364Y0104621D01*
X0149297Y0104701D01*
X0149233Y0104783D01*
X0149172Y0104868D01*
X0149114Y0104954D01*
X0149060Y0105043D01*
X0149009Y0105134D01*
X0148962Y0105226D01*
X0148918Y0105321D01*
X0148878Y0105417D01*
X0148841Y0105514D01*
X0148808Y0105613D01*
X0148779Y0105713D01*
X0148754Y0105814D01*
X0148732Y0105916D01*
X0148714Y0106018D01*
X0148701Y0106121D01*
X0148691Y0106225D01*
X0148685Y0106329D01*
X0148683Y0106433D01*
X0143683Y0106433D01*
X0143683Y0086433D01*
X0159183Y0086433D01*
X0159183Y0106433D01*
X0155239Y0110034D02*
X0154539Y0109333D01*
X0153138Y0109333D01*
X0152437Y0110034D01*
X0152437Y0110734D01*
X0153138Y0111435D01*
X0154539Y0111435D01*
X0155239Y0110734D01*
X0155239Y0110034D01*
X0154539Y0111435D02*
X0155239Y0112135D01*
X0155239Y0112836D01*
X0154539Y0113537D01*
X0153138Y0113537D01*
X0152437Y0112836D01*
X0152437Y0112135D01*
X0153138Y0111435D01*
X0150635Y0110034D02*
X0150635Y0113537D01*
X0147833Y0113537D02*
X0147833Y0110034D01*
X0148534Y0109333D01*
X0149935Y0109333D01*
X0150635Y0110034D01*
X0145519Y0101933D02*
X0145521Y0102008D01*
X0145527Y0102082D01*
X0145537Y0102156D01*
X0145550Y0102229D01*
X0145568Y0102302D01*
X0145589Y0102373D01*
X0145614Y0102444D01*
X0145643Y0102513D01*
X0145676Y0102580D01*
X0145712Y0102645D01*
X0145751Y0102709D01*
X0145793Y0102770D01*
X0145839Y0102829D01*
X0145888Y0102886D01*
X0145940Y0102939D01*
X0145994Y0102990D01*
X0146051Y0103039D01*
X0146111Y0103083D01*
X0146173Y0103125D01*
X0146237Y0103164D01*
X0146303Y0103199D01*
X0146370Y0103230D01*
X0146440Y0103258D01*
X0146510Y0103282D01*
X0146582Y0103303D01*
X0146655Y0103319D01*
X0146728Y0103332D01*
X0146803Y0103341D01*
X0146877Y0103346D01*
X0146952Y0103347D01*
X0147026Y0103344D01*
X0147101Y0103337D01*
X0147174Y0103326D01*
X0147248Y0103312D01*
X0147320Y0103293D01*
X0147391Y0103271D01*
X0147461Y0103245D01*
X0147530Y0103215D01*
X0147596Y0103182D01*
X0147661Y0103145D01*
X0147724Y0103105D01*
X0147785Y0103061D01*
X0147843Y0103015D01*
X0147899Y0102965D01*
X0147952Y0102913D01*
X0148003Y0102858D01*
X0148050Y0102800D01*
X0148094Y0102740D01*
X0148135Y0102677D01*
X0148173Y0102613D01*
X0148207Y0102547D01*
X0148238Y0102478D01*
X0148265Y0102409D01*
X0148288Y0102338D01*
X0148307Y0102266D01*
X0148323Y0102193D01*
X0148335Y0102119D01*
X0148343Y0102045D01*
X0148347Y0101970D01*
X0148347Y0101896D01*
X0148343Y0101821D01*
X0148335Y0101747D01*
X0148323Y0101673D01*
X0148307Y0101600D01*
X0148288Y0101528D01*
X0148265Y0101457D01*
X0148238Y0101388D01*
X0148207Y0101319D01*
X0148173Y0101253D01*
X0148135Y0101189D01*
X0148094Y0101126D01*
X0148050Y0101066D01*
X0148003Y0101008D01*
X0147952Y0100953D01*
X0147899Y0100901D01*
X0147843Y0100851D01*
X0147785Y0100805D01*
X0147724Y0100761D01*
X0147661Y0100721D01*
X0147596Y0100684D01*
X0147530Y0100651D01*
X0147461Y0100621D01*
X0147391Y0100595D01*
X0147320Y0100573D01*
X0147248Y0100554D01*
X0147174Y0100540D01*
X0147101Y0100529D01*
X0147026Y0100522D01*
X0146952Y0100519D01*
X0146877Y0100520D01*
X0146803Y0100525D01*
X0146728Y0100534D01*
X0146655Y0100547D01*
X0146582Y0100563D01*
X0146510Y0100584D01*
X0146440Y0100608D01*
X0146370Y0100636D01*
X0146303Y0100667D01*
X0146237Y0100702D01*
X0146173Y0100741D01*
X0146111Y0100783D01*
X0146051Y0100827D01*
X0145994Y0100876D01*
X0145940Y0100927D01*
X0145888Y0100980D01*
X0145839Y0101037D01*
X0145793Y0101096D01*
X0145751Y0101157D01*
X0145712Y0101221D01*
X0145676Y0101286D01*
X0145643Y0101353D01*
X0145614Y0101422D01*
X0145589Y0101493D01*
X0145568Y0101564D01*
X0145550Y0101637D01*
X0145537Y0101710D01*
X0145527Y0101784D01*
X0145521Y0101858D01*
X0145519Y0101933D01*
X0129843Y0108534D02*
X0129143Y0107833D01*
X0127742Y0107833D01*
X0127041Y0108534D01*
X0125239Y0107833D02*
X0122437Y0107833D01*
X0125239Y0110635D01*
X0125239Y0111336D01*
X0124539Y0112037D01*
X0123138Y0112037D01*
X0122437Y0111336D01*
X0120635Y0111336D02*
X0119935Y0112037D01*
X0118534Y0112037D01*
X0117833Y0111336D01*
X0117833Y0108534D01*
X0118534Y0107833D01*
X0119935Y0107833D01*
X0120635Y0108534D01*
X0121433Y0104933D02*
X0126433Y0104933D01*
X0129843Y0108534D02*
X0129843Y0109234D01*
X0129143Y0109935D01*
X0128442Y0109935D01*
X0129143Y0109935D02*
X0129843Y0110635D01*
X0129843Y0111336D01*
X0129143Y0112037D01*
X0127742Y0112037D01*
X0127041Y0111336D01*
X0127739Y0119333D02*
X0124937Y0119333D01*
X0126338Y0119333D02*
X0126338Y0123537D01*
X0124937Y0122135D01*
X0123135Y0122836D02*
X0122435Y0123537D01*
X0121034Y0123537D01*
X0120333Y0122836D01*
X0120333Y0120034D01*
X0121034Y0119333D01*
X0122435Y0119333D01*
X0123135Y0120034D01*
X0129541Y0120034D02*
X0129541Y0119333D01*
X0129541Y0120034D02*
X0132343Y0122836D01*
X0132343Y0123537D01*
X0129541Y0123537D01*
X0129933Y0133933D02*
X0129933Y0138933D01*
X0122933Y0138933D02*
X0122933Y0133933D01*
X0103933Y0127433D02*
X0098933Y0127433D01*
X0098933Y0120433D02*
X0103933Y0120433D01*
X0105242Y0117537D02*
X0106643Y0117537D01*
X0107343Y0116836D01*
X0107343Y0116135D01*
X0106643Y0115435D01*
X0105242Y0115435D01*
X0104541Y0116135D01*
X0104541Y0116836D01*
X0105242Y0117537D01*
X0105242Y0115435D02*
X0104541Y0114734D01*
X0104541Y0114034D01*
X0105242Y0113333D01*
X0106643Y0113333D01*
X0107343Y0114034D01*
X0107343Y0114734D01*
X0106643Y0115435D01*
X0102739Y0113333D02*
X0099937Y0113333D01*
X0101338Y0113333D02*
X0101338Y0117537D01*
X0099937Y0116135D01*
X0098135Y0116836D02*
X0097435Y0117537D01*
X0096034Y0117537D01*
X0095333Y0116836D01*
X0095333Y0114034D01*
X0096034Y0113333D01*
X0097435Y0113333D01*
X0098135Y0114034D01*
X0098933Y0104933D02*
X0103933Y0104933D01*
X0103933Y0097933D02*
X0098933Y0097933D01*
X0098933Y0094933D02*
X0103933Y0094933D01*
X0103933Y0087933D02*
X0098933Y0087933D01*
X0098933Y0084933D02*
X0103933Y0084933D01*
X0103933Y0077933D02*
X0098933Y0077933D01*
X0113933Y0069933D02*
X0118933Y0069933D01*
X0118933Y0062933D02*
X0113933Y0062933D01*
X0113933Y0054933D02*
X0118933Y0054933D01*
X0128829Y0055239D02*
X0129530Y0053838D01*
X0130931Y0052437D01*
X0130931Y0054539D01*
X0131632Y0055239D01*
X0132332Y0055239D01*
X0133033Y0054539D01*
X0133033Y0053138D01*
X0132332Y0052437D01*
X0130931Y0052437D01*
X0130931Y0050635D02*
X0129530Y0050635D01*
X0128829Y0049935D01*
X0128829Y0047833D01*
X0133033Y0047833D01*
X0131632Y0047833D02*
X0131632Y0049935D01*
X0130931Y0050635D01*
X0131632Y0049234D02*
X0133033Y0050635D01*
X0143683Y0048933D02*
X0159183Y0048933D01*
X0159183Y0068933D01*
X0154183Y0068933D01*
X0154181Y0068829D01*
X0154175Y0068725D01*
X0154165Y0068621D01*
X0154152Y0068518D01*
X0154134Y0068416D01*
X0154112Y0068314D01*
X0154087Y0068213D01*
X0154058Y0068113D01*
X0154025Y0068014D01*
X0153988Y0067917D01*
X0153948Y0067821D01*
X0153904Y0067726D01*
X0153857Y0067634D01*
X0153806Y0067543D01*
X0153752Y0067454D01*
X0153694Y0067368D01*
X0153633Y0067283D01*
X0153569Y0067201D01*
X0153502Y0067121D01*
X0153432Y0067044D01*
X0153359Y0066970D01*
X0153283Y0066899D01*
X0153205Y0066830D01*
X0153124Y0066765D01*
X0153041Y0066702D01*
X0152955Y0066643D01*
X0152868Y0066587D01*
X0152778Y0066534D01*
X0152686Y0066485D01*
X0152593Y0066439D01*
X0152497Y0066397D01*
X0152401Y0066359D01*
X0152303Y0066324D01*
X0152203Y0066293D01*
X0152103Y0066266D01*
X0152001Y0066242D01*
X0151899Y0066223D01*
X0151796Y0066207D01*
X0151693Y0066195D01*
X0151589Y0066187D01*
X0151485Y0066183D01*
X0151381Y0066183D01*
X0151277Y0066187D01*
X0151173Y0066195D01*
X0151070Y0066207D01*
X0150967Y0066223D01*
X0150865Y0066242D01*
X0150763Y0066266D01*
X0150663Y0066293D01*
X0150563Y0066324D01*
X0150465Y0066359D01*
X0150369Y0066397D01*
X0150273Y0066439D01*
X0150180Y0066485D01*
X0150088Y0066534D01*
X0149998Y0066587D01*
X0149911Y0066643D01*
X0149825Y0066702D01*
X0149742Y0066765D01*
X0149661Y0066830D01*
X0149583Y0066899D01*
X0149507Y0066970D01*
X0149434Y0067044D01*
X0149364Y0067121D01*
X0149297Y0067201D01*
X0149233Y0067283D01*
X0149172Y0067368D01*
X0149114Y0067454D01*
X0149060Y0067543D01*
X0149009Y0067634D01*
X0148962Y0067726D01*
X0148918Y0067821D01*
X0148878Y0067917D01*
X0148841Y0068014D01*
X0148808Y0068113D01*
X0148779Y0068213D01*
X0148754Y0068314D01*
X0148732Y0068416D01*
X0148714Y0068518D01*
X0148701Y0068621D01*
X0148691Y0068725D01*
X0148685Y0068829D01*
X0148683Y0068933D01*
X0143683Y0068933D01*
X0143683Y0048933D01*
X0147833Y0046037D02*
X0147833Y0042534D01*
X0148534Y0041833D01*
X0149935Y0041833D01*
X0150635Y0042534D01*
X0150635Y0046037D01*
X0152437Y0045336D02*
X0153138Y0046037D01*
X0154539Y0046037D01*
X0155239Y0045336D01*
X0155239Y0044635D01*
X0154539Y0043935D01*
X0155239Y0043234D01*
X0155239Y0042534D01*
X0154539Y0041833D01*
X0153138Y0041833D01*
X0152437Y0042534D01*
X0153838Y0043935D02*
X0154539Y0043935D01*
X0145519Y0064433D02*
X0145521Y0064508D01*
X0145527Y0064582D01*
X0145537Y0064656D01*
X0145550Y0064729D01*
X0145568Y0064802D01*
X0145589Y0064873D01*
X0145614Y0064944D01*
X0145643Y0065013D01*
X0145676Y0065080D01*
X0145712Y0065145D01*
X0145751Y0065209D01*
X0145793Y0065270D01*
X0145839Y0065329D01*
X0145888Y0065386D01*
X0145940Y0065439D01*
X0145994Y0065490D01*
X0146051Y0065539D01*
X0146111Y0065583D01*
X0146173Y0065625D01*
X0146237Y0065664D01*
X0146303Y0065699D01*
X0146370Y0065730D01*
X0146440Y0065758D01*
X0146510Y0065782D01*
X0146582Y0065803D01*
X0146655Y0065819D01*
X0146728Y0065832D01*
X0146803Y0065841D01*
X0146877Y0065846D01*
X0146952Y0065847D01*
X0147026Y0065844D01*
X0147101Y0065837D01*
X0147174Y0065826D01*
X0147248Y0065812D01*
X0147320Y0065793D01*
X0147391Y0065771D01*
X0147461Y0065745D01*
X0147530Y0065715D01*
X0147596Y0065682D01*
X0147661Y0065645D01*
X0147724Y0065605D01*
X0147785Y0065561D01*
X0147843Y0065515D01*
X0147899Y0065465D01*
X0147952Y0065413D01*
X0148003Y0065358D01*
X0148050Y0065300D01*
X0148094Y0065240D01*
X0148135Y0065177D01*
X0148173Y0065113D01*
X0148207Y0065047D01*
X0148238Y0064978D01*
X0148265Y0064909D01*
X0148288Y0064838D01*
X0148307Y0064766D01*
X0148323Y0064693D01*
X0148335Y0064619D01*
X0148343Y0064545D01*
X0148347Y0064470D01*
X0148347Y0064396D01*
X0148343Y0064321D01*
X0148335Y0064247D01*
X0148323Y0064173D01*
X0148307Y0064100D01*
X0148288Y0064028D01*
X0148265Y0063957D01*
X0148238Y0063888D01*
X0148207Y0063819D01*
X0148173Y0063753D01*
X0148135Y0063689D01*
X0148094Y0063626D01*
X0148050Y0063566D01*
X0148003Y0063508D01*
X0147952Y0063453D01*
X0147899Y0063401D01*
X0147843Y0063351D01*
X0147785Y0063305D01*
X0147724Y0063261D01*
X0147661Y0063221D01*
X0147596Y0063184D01*
X0147530Y0063151D01*
X0147461Y0063121D01*
X0147391Y0063095D01*
X0147320Y0063073D01*
X0147248Y0063054D01*
X0147174Y0063040D01*
X0147101Y0063029D01*
X0147026Y0063022D01*
X0146952Y0063019D01*
X0146877Y0063020D01*
X0146803Y0063025D01*
X0146728Y0063034D01*
X0146655Y0063047D01*
X0146582Y0063063D01*
X0146510Y0063084D01*
X0146440Y0063108D01*
X0146370Y0063136D01*
X0146303Y0063167D01*
X0146237Y0063202D01*
X0146173Y0063241D01*
X0146111Y0063283D01*
X0146051Y0063327D01*
X0145994Y0063376D01*
X0145940Y0063427D01*
X0145888Y0063480D01*
X0145839Y0063537D01*
X0145793Y0063596D01*
X0145751Y0063657D01*
X0145712Y0063721D01*
X0145676Y0063786D01*
X0145643Y0063853D01*
X0145614Y0063922D01*
X0145589Y0063993D01*
X0145568Y0064064D01*
X0145550Y0064137D01*
X0145537Y0064210D01*
X0145527Y0064284D01*
X0145521Y0064358D01*
X0145519Y0064433D01*
X0133033Y0065635D02*
X0131632Y0064234D01*
X0131632Y0064935D02*
X0131632Y0062833D01*
X0133033Y0062833D02*
X0128829Y0062833D01*
X0128829Y0064935D01*
X0129530Y0065635D01*
X0130931Y0065635D01*
X0131632Y0064935D01*
X0132332Y0067437D02*
X0133033Y0068138D01*
X0133033Y0069539D01*
X0132332Y0070239D01*
X0130931Y0070239D01*
X0130231Y0069539D01*
X0130231Y0068838D01*
X0130931Y0067437D01*
X0128829Y0067437D01*
X0128829Y0070239D01*
X0129143Y0080333D02*
X0129143Y0084537D01*
X0127041Y0082435D01*
X0129843Y0082435D01*
X0125239Y0083135D02*
X0122437Y0080333D01*
X0125239Y0080333D01*
X0125239Y0083135D02*
X0125239Y0083836D01*
X0124539Y0084537D01*
X0123138Y0084537D01*
X0122437Y0083836D01*
X0120635Y0083836D02*
X0119935Y0084537D01*
X0118534Y0084537D01*
X0117833Y0083836D01*
X0117833Y0081034D01*
X0118534Y0080333D01*
X0119935Y0080333D01*
X0120635Y0081034D01*
X0121433Y0087933D02*
X0126433Y0087933D01*
X0126433Y0094933D02*
X0121433Y0094933D01*
X0121433Y0097933D02*
X0126433Y0097933D01*
X0148933Y0081433D02*
X0153933Y0081433D01*
X0153933Y0074433D02*
X0148933Y0074433D01*
X0164333Y0075833D02*
X0164333Y0080037D01*
X0166435Y0080037D01*
X0167135Y0079336D01*
X0167135Y0077935D01*
X0166435Y0077234D01*
X0164333Y0077234D01*
X0165734Y0077234D02*
X0167135Y0075833D01*
X0168937Y0076534D02*
X0168937Y0077234D01*
X0169638Y0077935D01*
X0171039Y0077935D01*
X0171739Y0077234D01*
X0171739Y0076534D01*
X0171039Y0075833D01*
X0169638Y0075833D01*
X0168937Y0076534D01*
X0169638Y0077935D02*
X0168937Y0078635D01*
X0168937Y0079336D01*
X0169638Y0080037D01*
X0171039Y0080037D01*
X0171739Y0079336D01*
X0171739Y0078635D01*
X0171039Y0077935D01*
X0195333Y0069336D02*
X0195333Y0066534D01*
X0196034Y0065833D01*
X0197435Y0065833D01*
X0198135Y0066534D01*
X0199937Y0065833D02*
X0202739Y0065833D01*
X0201338Y0065833D02*
X0201338Y0070037D01*
X0199937Y0068635D01*
X0198135Y0069336D02*
X0197435Y0070037D01*
X0196034Y0070037D01*
X0195333Y0069336D01*
X0198933Y0072933D02*
X0203933Y0072933D01*
X0204541Y0070037D02*
X0204541Y0067935D01*
X0205942Y0068635D01*
X0206643Y0068635D01*
X0207343Y0067935D01*
X0207343Y0066534D01*
X0206643Y0065833D01*
X0205242Y0065833D01*
X0204541Y0066534D01*
X0204541Y0070037D02*
X0207343Y0070037D01*
X0218533Y0069433D02*
X0218533Y0073233D01*
X0264333Y0073233D01*
X0264333Y0069433D01*
X0267333Y0071534D02*
X0268034Y0070833D01*
X0269435Y0070833D01*
X0270135Y0071534D01*
X0270135Y0074336D01*
X0269435Y0075037D01*
X0268034Y0075037D01*
X0267333Y0074336D01*
X0267333Y0071534D01*
X0268734Y0072234D02*
X0270135Y0070833D01*
X0271937Y0070833D02*
X0274739Y0070833D01*
X0273338Y0070833D02*
X0273338Y0075037D01*
X0271937Y0073635D01*
X0274234Y0066037D02*
X0274234Y0061833D01*
X0272833Y0061833D02*
X0275635Y0061833D01*
X0277437Y0062534D02*
X0278138Y0061833D01*
X0279539Y0061833D01*
X0280239Y0062534D01*
X0280239Y0063234D01*
X0279539Y0063935D01*
X0277437Y0063935D01*
X0277437Y0062534D01*
X0277437Y0063935D02*
X0278838Y0065336D01*
X0280239Y0066037D01*
X0282041Y0066037D02*
X0283442Y0064635D01*
X0284843Y0066037D01*
X0284843Y0061833D01*
X0286645Y0061833D02*
X0286645Y0066037D01*
X0286645Y0063935D02*
X0289447Y0063935D01*
X0291249Y0064635D02*
X0294051Y0064635D01*
X0291249Y0061833D01*
X0294051Y0061833D01*
X0289447Y0061833D02*
X0289447Y0066037D01*
X0282041Y0066037D02*
X0282041Y0061833D01*
X0274234Y0066037D02*
X0272833Y0064635D01*
X0264333Y0058433D02*
X0264333Y0054633D01*
X0218533Y0054633D01*
X0218533Y0058433D01*
X0215143Y0049537D02*
X0213742Y0049537D01*
X0213041Y0048836D01*
X0213041Y0046034D01*
X0215843Y0048836D01*
X0215843Y0046034D01*
X0215143Y0045333D01*
X0213742Y0045333D01*
X0213041Y0046034D01*
X0211239Y0045333D02*
X0208437Y0045333D01*
X0209838Y0045333D02*
X0209838Y0049537D01*
X0208437Y0048135D01*
X0206635Y0048836D02*
X0205935Y0049537D01*
X0204534Y0049537D01*
X0203833Y0048836D01*
X0203833Y0046034D01*
X0204534Y0045333D01*
X0205935Y0045333D01*
X0206635Y0046034D01*
X0215143Y0049537D02*
X0215843Y0048836D01*
X0226433Y0050933D02*
X0231433Y0050933D01*
X0231433Y0043933D02*
X0226433Y0043933D01*
X0251433Y0043933D02*
X0256433Y0043933D01*
X0256433Y0050933D02*
X0251433Y0050933D01*
X0243933Y0060933D02*
X0243933Y0063933D01*
X0246433Y0063933D01*
X0243933Y0063933D02*
X0243933Y0066933D01*
X0242433Y0066933D02*
X0242433Y0060933D01*
X0240433Y0060933D01*
X0240433Y0066933D01*
X0242433Y0066933D01*
X0238933Y0066933D02*
X0238933Y0063933D01*
X0236433Y0063933D01*
X0238933Y0063933D02*
X0238933Y0060933D01*
X0266833Y0048836D02*
X0266833Y0046034D01*
X0267534Y0045333D01*
X0268935Y0045333D01*
X0269635Y0046034D01*
X0271437Y0046034D02*
X0272138Y0045333D01*
X0273539Y0045333D01*
X0274239Y0046034D01*
X0274239Y0048836D01*
X0273539Y0049537D01*
X0272138Y0049537D01*
X0271437Y0048836D01*
X0271437Y0048135D01*
X0272138Y0047435D01*
X0274239Y0047435D01*
X0269635Y0048836D02*
X0268935Y0049537D01*
X0267534Y0049537D01*
X0266833Y0048836D01*
X0293829Y0047039D02*
X0293829Y0045638D01*
X0294530Y0044937D01*
X0293829Y0043135D02*
X0293829Y0041734D01*
X0293829Y0042435D02*
X0297332Y0042435D01*
X0298033Y0041734D01*
X0298033Y0041034D01*
X0297332Y0040333D01*
X0298033Y0044937D02*
X0295231Y0047739D01*
X0294530Y0047739D01*
X0293829Y0047039D01*
X0298033Y0047739D02*
X0298033Y0044937D01*
X0203933Y0079933D02*
X0198933Y0079933D01*
X0233125Y0105333D02*
X0235928Y0108135D01*
X0235928Y0108836D01*
X0235227Y0109537D01*
X0233826Y0109537D01*
X0233125Y0108836D01*
X0233125Y0105333D02*
X0235928Y0105333D01*
X0237729Y0106034D02*
X0238430Y0105333D01*
X0239831Y0105333D01*
X0240532Y0106034D01*
X0240532Y0107435D01*
X0239831Y0108135D01*
X0239130Y0108135D01*
X0237729Y0107435D01*
X0237729Y0109537D01*
X0240532Y0109537D01*
X0242333Y0107435D02*
X0244435Y0107435D01*
X0245135Y0106734D01*
X0245135Y0106034D01*
X0244435Y0105333D01*
X0243034Y0105333D01*
X0242333Y0106034D01*
X0242333Y0107435D01*
X0243734Y0108836D01*
X0245135Y0109537D01*
X0246937Y0108836D02*
X0247638Y0109537D01*
X0249039Y0109537D01*
X0249739Y0108836D01*
X0246937Y0106034D01*
X0247638Y0105333D01*
X0249039Y0105333D01*
X0249739Y0106034D01*
X0249739Y0108836D01*
X0249039Y0111432D02*
X0249739Y0112132D01*
X0249739Y0115635D01*
X0247638Y0115635D01*
X0246937Y0114935D01*
X0246937Y0113534D01*
X0247638Y0112833D01*
X0249739Y0112833D01*
X0249039Y0111432D02*
X0248338Y0111432D01*
X0246937Y0108836D02*
X0246937Y0106034D01*
X0244435Y0112833D02*
X0243034Y0112833D01*
X0242333Y0113534D01*
X0242333Y0114935D01*
X0243034Y0115635D01*
X0244435Y0115635D01*
X0245135Y0114935D01*
X0245135Y0114234D01*
X0242333Y0114234D01*
X0240532Y0114935D02*
X0240532Y0112833D01*
X0239130Y0112833D02*
X0239130Y0114935D01*
X0239831Y0115635D01*
X0240532Y0114935D01*
X0239130Y0114935D02*
X0238430Y0115635D01*
X0237729Y0115635D01*
X0237729Y0112833D01*
X0234526Y0112833D02*
X0234526Y0117037D01*
X0233125Y0117037D02*
X0235928Y0117037D01*
X0231324Y0115635D02*
X0231324Y0112833D01*
X0231324Y0114935D02*
X0228521Y0114935D01*
X0228521Y0115635D02*
X0229922Y0117037D01*
X0231324Y0115635D01*
X0228521Y0115635D02*
X0228521Y0112833D01*
X0251541Y0113534D02*
X0252241Y0114234D01*
X0254343Y0114234D01*
X0254343Y0114935D02*
X0254343Y0112833D01*
X0252241Y0112833D01*
X0251541Y0113534D01*
X0252241Y0115635D02*
X0253643Y0115635D01*
X0254343Y0114935D01*
X0217519Y0133933D02*
X0217521Y0134008D01*
X0217527Y0134082D01*
X0217537Y0134156D01*
X0217550Y0134229D01*
X0217568Y0134302D01*
X0217589Y0134373D01*
X0217614Y0134444D01*
X0217643Y0134513D01*
X0217676Y0134580D01*
X0217712Y0134645D01*
X0217751Y0134709D01*
X0217793Y0134770D01*
X0217839Y0134829D01*
X0217888Y0134886D01*
X0217940Y0134939D01*
X0217994Y0134990D01*
X0218051Y0135039D01*
X0218111Y0135083D01*
X0218173Y0135125D01*
X0218237Y0135164D01*
X0218303Y0135199D01*
X0218370Y0135230D01*
X0218440Y0135258D01*
X0218510Y0135282D01*
X0218582Y0135303D01*
X0218655Y0135319D01*
X0218728Y0135332D01*
X0218803Y0135341D01*
X0218877Y0135346D01*
X0218952Y0135347D01*
X0219026Y0135344D01*
X0219101Y0135337D01*
X0219174Y0135326D01*
X0219248Y0135312D01*
X0219320Y0135293D01*
X0219391Y0135271D01*
X0219461Y0135245D01*
X0219530Y0135215D01*
X0219596Y0135182D01*
X0219661Y0135145D01*
X0219724Y0135105D01*
X0219785Y0135061D01*
X0219843Y0135015D01*
X0219899Y0134965D01*
X0219952Y0134913D01*
X0220003Y0134858D01*
X0220050Y0134800D01*
X0220094Y0134740D01*
X0220135Y0134677D01*
X0220173Y0134613D01*
X0220207Y0134547D01*
X0220238Y0134478D01*
X0220265Y0134409D01*
X0220288Y0134338D01*
X0220307Y0134266D01*
X0220323Y0134193D01*
X0220335Y0134119D01*
X0220343Y0134045D01*
X0220347Y0133970D01*
X0220347Y0133896D01*
X0220343Y0133821D01*
X0220335Y0133747D01*
X0220323Y0133673D01*
X0220307Y0133600D01*
X0220288Y0133528D01*
X0220265Y0133457D01*
X0220238Y0133388D01*
X0220207Y0133319D01*
X0220173Y0133253D01*
X0220135Y0133189D01*
X0220094Y0133126D01*
X0220050Y0133066D01*
X0220003Y0133008D01*
X0219952Y0132953D01*
X0219899Y0132901D01*
X0219843Y0132851D01*
X0219785Y0132805D01*
X0219724Y0132761D01*
X0219661Y0132721D01*
X0219596Y0132684D01*
X0219530Y0132651D01*
X0219461Y0132621D01*
X0219391Y0132595D01*
X0219320Y0132573D01*
X0219248Y0132554D01*
X0219174Y0132540D01*
X0219101Y0132529D01*
X0219026Y0132522D01*
X0218952Y0132519D01*
X0218877Y0132520D01*
X0218803Y0132525D01*
X0218728Y0132534D01*
X0218655Y0132547D01*
X0218582Y0132563D01*
X0218510Y0132584D01*
X0218440Y0132608D01*
X0218370Y0132636D01*
X0218303Y0132667D01*
X0218237Y0132702D01*
X0218173Y0132741D01*
X0218111Y0132783D01*
X0218051Y0132827D01*
X0217994Y0132876D01*
X0217940Y0132927D01*
X0217888Y0132980D01*
X0217839Y0133037D01*
X0217793Y0133096D01*
X0217751Y0133157D01*
X0217712Y0133221D01*
X0217676Y0133286D01*
X0217643Y0133353D01*
X0217614Y0133422D01*
X0217589Y0133493D01*
X0217568Y0133564D01*
X0217550Y0133637D01*
X0217537Y0133710D01*
X0217527Y0133784D01*
X0217521Y0133858D01*
X0217519Y0133933D01*
X0179933Y0133933D02*
X0179933Y0138933D01*
X0172933Y0138933D02*
X0172933Y0133933D01*
X0168033Y0129143D02*
X0168033Y0127742D01*
X0167332Y0127041D01*
X0164530Y0129843D01*
X0167332Y0129843D01*
X0168033Y0129143D01*
X0167332Y0127041D02*
X0164530Y0127041D01*
X0163829Y0127742D01*
X0163829Y0129143D01*
X0164530Y0129843D01*
X0164530Y0125239D02*
X0163829Y0124539D01*
X0163829Y0123138D01*
X0164530Y0122437D01*
X0164530Y0120635D02*
X0163829Y0119935D01*
X0163829Y0118534D01*
X0164530Y0117833D01*
X0167332Y0117833D01*
X0168033Y0118534D01*
X0168033Y0119935D01*
X0167332Y0120635D01*
X0168033Y0122437D02*
X0165231Y0125239D01*
X0164530Y0125239D01*
X0168033Y0125239D02*
X0168033Y0122437D01*
X0153933Y0120433D02*
X0148933Y0120433D01*
X0148933Y0127433D02*
X0153933Y0127433D01*
X0075941Y0139858D02*
X0070941Y0139858D01*
X0066533Y0142768D02*
X0062329Y0142768D01*
X0062329Y0140967D02*
X0062329Y0138164D01*
X0064431Y0138164D02*
X0064431Y0139566D01*
X0066533Y0134261D02*
X0065832Y0133561D01*
X0065832Y0117947D02*
X0062329Y0117947D01*
X0062329Y0115145D02*
X0065832Y0115145D01*
X0066533Y0115845D01*
X0066533Y0117247D01*
X0065832Y0117947D01*
X0065832Y0113343D02*
X0063030Y0113343D01*
X0062329Y0112643D01*
X0062329Y0111242D01*
X0063030Y0110541D01*
X0065832Y0110541D01*
X0066533Y0111242D01*
X0066533Y0112643D01*
X0065832Y0113343D01*
X0066533Y0108739D02*
X0065132Y0107338D01*
X0065132Y0108039D02*
X0065132Y0105937D01*
X0066533Y0105937D02*
X0062329Y0105937D01*
X0062329Y0108039D01*
X0063030Y0108739D01*
X0064431Y0108739D01*
X0065132Y0108039D01*
X0065832Y0104135D02*
X0064431Y0104135D01*
X0064431Y0102734D01*
X0063030Y0101333D02*
X0065832Y0101333D01*
X0066533Y0102034D01*
X0066533Y0103435D01*
X0065832Y0104135D01*
X0063030Y0104135D02*
X0062329Y0103435D01*
X0062329Y0102034D01*
X0063030Y0101333D01*
X0060239Y0073592D02*
X0058838Y0072891D01*
X0057437Y0071490D01*
X0059539Y0071490D01*
X0060239Y0070789D01*
X0060239Y0070089D01*
X0059539Y0069388D01*
X0058138Y0069388D01*
X0057437Y0070089D01*
X0057437Y0071490D01*
X0055635Y0069388D02*
X0052833Y0069388D01*
X0054234Y0069388D02*
X0054234Y0073592D01*
X0052833Y0072191D01*
X0044635Y0072191D02*
X0043935Y0071490D01*
X0042534Y0071490D01*
X0041833Y0072191D01*
X0041833Y0072891D01*
X0042534Y0073592D01*
X0043935Y0073592D01*
X0044635Y0072891D01*
X0044635Y0072191D01*
X0043935Y0071490D02*
X0044635Y0070789D01*
X0044635Y0070089D01*
X0043935Y0069388D01*
X0042534Y0069388D01*
X0041833Y0070089D01*
X0041833Y0070789D01*
X0042534Y0071490D01*
X0074233Y0068537D02*
X0074233Y0064333D01*
X0074233Y0065734D02*
X0076335Y0065734D01*
X0077035Y0066435D01*
X0077035Y0067836D01*
X0076335Y0068537D01*
X0074233Y0068537D01*
X0078837Y0067836D02*
X0079538Y0068537D01*
X0080939Y0068537D01*
X0081639Y0067836D01*
X0081639Y0067135D01*
X0078837Y0064333D01*
X0081639Y0064333D01*
X0088033Y0065933D02*
X0088033Y0066933D01*
X0113933Y0047933D02*
X0118933Y0047933D01*
X0176783Y0217433D02*
X0176785Y0217545D01*
X0176791Y0217656D01*
X0176801Y0217768D01*
X0176815Y0217879D01*
X0176832Y0217989D01*
X0176854Y0218099D01*
X0176880Y0218208D01*
X0176909Y0218316D01*
X0176942Y0218422D01*
X0176979Y0218528D01*
X0177020Y0218632D01*
X0177065Y0218735D01*
X0177113Y0218836D01*
X0177164Y0218935D01*
X0177219Y0219032D01*
X0177278Y0219127D01*
X0177339Y0219221D01*
X0177404Y0219312D01*
X0177473Y0219400D01*
X0177544Y0219486D01*
X0177618Y0219570D01*
X0177696Y0219650D01*
X0177776Y0219728D01*
X0177859Y0219804D01*
X0177944Y0219876D01*
X0178032Y0219945D01*
X0178122Y0220011D01*
X0178215Y0220073D01*
X0178310Y0220133D01*
X0178407Y0220189D01*
X0178505Y0220241D01*
X0178606Y0220290D01*
X0178708Y0220335D01*
X0178812Y0220377D01*
X0178917Y0220415D01*
X0179024Y0220449D01*
X0179131Y0220479D01*
X0179240Y0220506D01*
X0179349Y0220528D01*
X0179460Y0220547D01*
X0179570Y0220562D01*
X0179682Y0220573D01*
X0179793Y0220580D01*
X0179905Y0220583D01*
X0180017Y0220582D01*
X0180129Y0220577D01*
X0180240Y0220568D01*
X0180351Y0220555D01*
X0180462Y0220538D01*
X0180572Y0220518D01*
X0180681Y0220493D01*
X0180789Y0220465D01*
X0180896Y0220432D01*
X0181002Y0220396D01*
X0181106Y0220356D01*
X0181209Y0220313D01*
X0181311Y0220266D01*
X0181410Y0220215D01*
X0181508Y0220161D01*
X0181604Y0220103D01*
X0181698Y0220042D01*
X0181789Y0219978D01*
X0181878Y0219911D01*
X0181965Y0219840D01*
X0182049Y0219766D01*
X0182131Y0219690D01*
X0182209Y0219610D01*
X0182285Y0219528D01*
X0182358Y0219443D01*
X0182428Y0219356D01*
X0182494Y0219266D01*
X0182558Y0219174D01*
X0182618Y0219080D01*
X0182675Y0218984D01*
X0182728Y0218885D01*
X0182778Y0218785D01*
X0182824Y0218684D01*
X0182867Y0218580D01*
X0182906Y0218475D01*
X0182941Y0218369D01*
X0182972Y0218262D01*
X0183000Y0218153D01*
X0183023Y0218044D01*
X0183043Y0217934D01*
X0183059Y0217823D01*
X0183071Y0217712D01*
X0183079Y0217601D01*
X0183083Y0217489D01*
X0183083Y0217377D01*
X0183079Y0217265D01*
X0183071Y0217154D01*
X0183059Y0217043D01*
X0183043Y0216932D01*
X0183023Y0216822D01*
X0183000Y0216713D01*
X0182972Y0216604D01*
X0182941Y0216497D01*
X0182906Y0216391D01*
X0182867Y0216286D01*
X0182824Y0216182D01*
X0182778Y0216081D01*
X0182728Y0215981D01*
X0182675Y0215882D01*
X0182618Y0215786D01*
X0182558Y0215692D01*
X0182494Y0215600D01*
X0182428Y0215510D01*
X0182358Y0215423D01*
X0182285Y0215338D01*
X0182209Y0215256D01*
X0182131Y0215176D01*
X0182049Y0215100D01*
X0181965Y0215026D01*
X0181878Y0214955D01*
X0181789Y0214888D01*
X0181698Y0214824D01*
X0181604Y0214763D01*
X0181508Y0214705D01*
X0181410Y0214651D01*
X0181311Y0214600D01*
X0181209Y0214553D01*
X0181106Y0214510D01*
X0181002Y0214470D01*
X0180896Y0214434D01*
X0180789Y0214401D01*
X0180681Y0214373D01*
X0180572Y0214348D01*
X0180462Y0214328D01*
X0180351Y0214311D01*
X0180240Y0214298D01*
X0180129Y0214289D01*
X0180017Y0214284D01*
X0179905Y0214283D01*
X0179793Y0214286D01*
X0179682Y0214293D01*
X0179570Y0214304D01*
X0179460Y0214319D01*
X0179349Y0214338D01*
X0179240Y0214360D01*
X0179131Y0214387D01*
X0179024Y0214417D01*
X0178917Y0214451D01*
X0178812Y0214489D01*
X0178708Y0214531D01*
X0178606Y0214576D01*
X0178505Y0214625D01*
X0178407Y0214677D01*
X0178310Y0214733D01*
X0178215Y0214793D01*
X0178122Y0214855D01*
X0178032Y0214921D01*
X0177944Y0214990D01*
X0177859Y0215062D01*
X0177776Y0215138D01*
X0177696Y0215216D01*
X0177618Y0215296D01*
X0177544Y0215380D01*
X0177473Y0215466D01*
X0177404Y0215554D01*
X0177339Y0215645D01*
X0177278Y0215739D01*
X0177219Y0215834D01*
X0177164Y0215931D01*
X0177113Y0216030D01*
X0177065Y0216131D01*
X0177020Y0216234D01*
X0176979Y0216338D01*
X0176942Y0216444D01*
X0176909Y0216550D01*
X0176880Y0216658D01*
X0176854Y0216767D01*
X0176832Y0216877D01*
X0176815Y0216987D01*
X0176801Y0217098D01*
X0176791Y0217210D01*
X0176785Y0217321D01*
X0176783Y0217433D01*
X0177034Y0225833D02*
X0178435Y0225833D01*
X0179135Y0226534D01*
X0180937Y0225833D02*
X0183739Y0228635D01*
X0183739Y0229336D01*
X0183039Y0230037D01*
X0181638Y0230037D01*
X0180937Y0229336D01*
X0179135Y0229336D02*
X0178435Y0230037D01*
X0177034Y0230037D01*
X0176333Y0229336D01*
X0176333Y0226534D01*
X0177034Y0225833D01*
X0180937Y0225833D02*
X0183739Y0225833D01*
X0375333Y0227333D02*
X0375333Y0231537D01*
X0377435Y0231537D01*
X0378135Y0230836D01*
X0378135Y0229435D01*
X0377435Y0228734D01*
X0375333Y0228734D01*
X0376734Y0228734D02*
X0378135Y0227333D01*
X0379937Y0228034D02*
X0380638Y0227333D01*
X0382039Y0227333D01*
X0382739Y0228034D01*
X0382739Y0228734D01*
X0382039Y0229435D01*
X0380638Y0229435D01*
X0379937Y0230135D01*
X0379937Y0230836D01*
X0380638Y0231537D01*
X0382039Y0231537D01*
X0382739Y0230836D01*
X0384541Y0230836D02*
X0384541Y0230135D01*
X0385242Y0229435D01*
X0386643Y0229435D01*
X0387343Y0228734D01*
X0387343Y0228034D01*
X0386643Y0227333D01*
X0385242Y0227333D01*
X0384541Y0228034D01*
X0384541Y0230836D02*
X0385242Y0231537D01*
X0386643Y0231537D01*
X0387343Y0230836D01*
D11*
X0388883Y0221931D02*
X0391619Y0221931D01*
X0390251Y0219880D02*
X0388883Y0219880D01*
X0388883Y0221931D02*
X0388883Y0217828D01*
X0388883Y0201931D02*
X0388883Y0198512D01*
X0389567Y0197828D01*
X0390935Y0197828D01*
X0391619Y0198512D01*
X0391619Y0201931D01*
X0319107Y0119668D02*
X0316602Y0119668D01*
X0316602Y0114659D01*
X0319107Y0114659D01*
X0319942Y0115494D01*
X0319942Y0118833D01*
X0319107Y0119668D01*
X0314504Y0119668D02*
X0311164Y0114659D01*
X0309066Y0114659D02*
X0307396Y0116329D01*
X0308231Y0116329D02*
X0305727Y0116329D01*
X0305727Y0114659D02*
X0305727Y0119668D01*
X0308231Y0119668D01*
X0309066Y0118833D01*
X0309066Y0117164D01*
X0308231Y0116329D01*
X0311164Y0119668D02*
X0314504Y0114659D01*
X0314504Y0108743D02*
X0311164Y0103733D01*
X0314504Y0103733D02*
X0311164Y0108743D01*
X0309066Y0108743D02*
X0305727Y0108743D01*
X0307396Y0108743D02*
X0307396Y0103733D01*
X0308231Y0097818D02*
X0305727Y0097818D01*
X0305727Y0092808D01*
X0305727Y0094478D02*
X0308231Y0094478D01*
X0309066Y0095313D01*
X0309066Y0096983D01*
X0308231Y0097818D01*
X0311164Y0097818D02*
X0311164Y0092808D01*
X0312834Y0094478D01*
X0314504Y0092808D01*
X0314504Y0097818D01*
X0316602Y0097818D02*
X0319107Y0097818D01*
X0319942Y0096983D01*
X0319942Y0095313D01*
X0319107Y0094478D01*
X0316602Y0094478D01*
X0316602Y0092808D02*
X0316602Y0097818D01*
X0318272Y0094478D02*
X0319942Y0092808D01*
X0319942Y0086893D02*
X0316602Y0086893D01*
X0318272Y0086893D02*
X0318272Y0081883D01*
X0314504Y0082718D02*
X0313669Y0081883D01*
X0311999Y0081883D01*
X0311164Y0082718D01*
X0311164Y0086058D01*
X0311999Y0086893D01*
X0313669Y0086893D01*
X0314504Y0086058D01*
X0309066Y0085223D02*
X0309066Y0081883D01*
X0309066Y0084388D02*
X0305727Y0084388D01*
X0305727Y0085223D02*
X0307396Y0086893D01*
X0309066Y0085223D01*
X0305727Y0085223D02*
X0305727Y0081883D01*
X0316602Y0103733D02*
X0319107Y0103733D01*
X0319942Y0104568D01*
X0319942Y0107908D01*
X0319107Y0108743D01*
X0316602Y0108743D01*
X0316602Y0103733D01*
X0083619Y0123512D02*
X0082935Y0122828D01*
X0081567Y0122828D01*
X0080883Y0123512D01*
X0081567Y0124880D02*
X0082935Y0124880D01*
X0083619Y0124196D01*
X0083619Y0123512D01*
X0081567Y0124880D02*
X0080883Y0125564D01*
X0080883Y0126248D01*
X0081567Y0126931D01*
X0082935Y0126931D01*
X0083619Y0126248D01*
X0082935Y0142828D02*
X0083619Y0143512D01*
X0082935Y0142828D02*
X0081567Y0142828D01*
X0080883Y0143512D01*
X0080883Y0146248D01*
X0081567Y0146931D01*
X0082935Y0146931D01*
X0083619Y0146248D01*
D12*
X0300433Y0122933D02*
X0300433Y0111933D01*
X0300433Y0107433D01*
X0304933Y0111933D01*
X0300433Y0111933D01*
X0382433Y0111933D01*
X0382433Y0100933D01*
X0382433Y0089933D01*
X0382433Y0078933D01*
X0324933Y0078933D01*
X0320433Y0078933D01*
X0324933Y0083433D01*
X0324933Y0078933D01*
X0324933Y0122933D01*
X0382433Y0122933D01*
X0382433Y0111933D01*
X0382433Y0100933D02*
X0300433Y0100933D01*
X0300433Y0096433D01*
X0304933Y0100933D01*
X0300433Y0100933D01*
X0300433Y0111933D01*
X0300433Y0111881D02*
X0304881Y0111881D01*
X0304095Y0111095D02*
X0300433Y0111095D01*
X0300433Y0110309D02*
X0303309Y0110309D01*
X0302523Y0109523D02*
X0300433Y0109523D01*
X0300433Y0108737D02*
X0301737Y0108737D01*
X0300951Y0107951D02*
X0300433Y0107951D01*
X0300433Y0100933D02*
X0300433Y0089933D01*
X0300433Y0085433D01*
X0304933Y0089933D01*
X0300433Y0089933D01*
X0382433Y0089933D01*
X0324933Y0089933D02*
X0320433Y0089933D01*
X0324933Y0094433D01*
X0324933Y0089933D01*
X0324933Y0090661D02*
X0321161Y0090661D01*
X0321947Y0091447D02*
X0324933Y0091447D01*
X0324933Y0092233D02*
X0322733Y0092233D01*
X0323519Y0093019D02*
X0324933Y0093019D01*
X0324933Y0093805D02*
X0324305Y0093805D01*
X0324933Y0100933D02*
X0320433Y0100933D01*
X0324933Y0105433D01*
X0324933Y0100933D01*
X0324933Y0101664D02*
X0321164Y0101664D01*
X0321950Y0102450D02*
X0324933Y0102450D01*
X0324933Y0103236D02*
X0322736Y0103236D01*
X0323522Y0104022D02*
X0324933Y0104022D01*
X0324933Y0104807D02*
X0324307Y0104807D01*
X0324933Y0111933D02*
X0320433Y0111933D01*
X0324933Y0116433D01*
X0324933Y0111933D01*
X0324933Y0112667D02*
X0321167Y0112667D01*
X0321953Y0113453D02*
X0324933Y0113453D01*
X0324933Y0114238D02*
X0322738Y0114238D01*
X0323524Y0115024D02*
X0324933Y0115024D01*
X0324933Y0115810D02*
X0324310Y0115810D01*
X0324933Y0122933D02*
X0300433Y0122933D01*
X0300433Y0118433D01*
X0304933Y0122933D01*
X0300433Y0122933D01*
X0300433Y0122883D02*
X0304883Y0122883D01*
X0304098Y0122098D02*
X0300433Y0122098D01*
X0300433Y0121312D02*
X0303312Y0121312D01*
X0302526Y0120526D02*
X0300433Y0120526D01*
X0300433Y0119740D02*
X0301740Y0119740D01*
X0300954Y0118954D02*
X0300433Y0118954D01*
X0300433Y0100878D02*
X0304878Y0100878D01*
X0304092Y0100092D02*
X0300433Y0100092D01*
X0300433Y0099306D02*
X0303306Y0099306D01*
X0302520Y0098520D02*
X0300433Y0098520D01*
X0300433Y0097734D02*
X0301734Y0097734D01*
X0300948Y0096948D02*
X0300433Y0096948D01*
X0300433Y0089933D02*
X0300433Y0078933D01*
X0324933Y0078933D01*
X0324933Y0079658D02*
X0321158Y0079658D01*
X0321944Y0080444D02*
X0324933Y0080444D01*
X0324933Y0081230D02*
X0322730Y0081230D01*
X0323516Y0082016D02*
X0324933Y0082016D01*
X0324933Y0082802D02*
X0324302Y0082802D01*
X0304875Y0089875D02*
X0300433Y0089875D01*
X0300433Y0089089D02*
X0304089Y0089089D01*
X0303303Y0088303D02*
X0300433Y0088303D01*
X0300433Y0087517D02*
X0302517Y0087517D01*
X0301731Y0086731D02*
X0300433Y0086731D01*
X0300433Y0085946D02*
X0300946Y0085946D01*
D13*
X0388933Y0208433D02*
X0391933Y0211433D01*
X0391933Y0208433D02*
X0388933Y0211433D01*
X0083933Y0136433D02*
X0080933Y0133433D01*
X0083933Y0133433D02*
X0080933Y0136433D01*
D14*
X0348280Y0119238D02*
X0349360Y0118158D01*
X0348280Y0119238D02*
X0351520Y0119238D01*
X0351520Y0118158D02*
X0351520Y0120318D01*
X0350980Y0116693D02*
X0348820Y0116693D01*
X0348280Y0116153D01*
X0348280Y0114533D01*
X0351520Y0114533D01*
X0351520Y0116153D01*
X0350980Y0116693D01*
X0351520Y0109318D02*
X0351520Y0107158D01*
X0349360Y0109318D01*
X0348820Y0109318D01*
X0348280Y0108778D01*
X0348280Y0107698D01*
X0348820Y0107158D01*
X0348820Y0105693D02*
X0348280Y0105153D01*
X0348280Y0103533D01*
X0351520Y0103533D01*
X0351520Y0105153D01*
X0350980Y0105693D01*
X0348820Y0105693D01*
X0348820Y0098318D02*
X0349360Y0098318D01*
X0349900Y0097778D01*
X0350440Y0098318D01*
X0350980Y0098318D01*
X0351520Y0097778D01*
X0351520Y0096698D01*
X0350980Y0096158D01*
X0350980Y0094693D02*
X0348820Y0094693D01*
X0348280Y0094153D01*
X0348280Y0092533D01*
X0351520Y0092533D01*
X0351520Y0094153D01*
X0350980Y0094693D01*
X0348820Y0096158D02*
X0348280Y0096698D01*
X0348280Y0097778D01*
X0348820Y0098318D01*
X0349900Y0097778D02*
X0349900Y0097238D01*
X0349900Y0087318D02*
X0349900Y0085158D01*
X0348280Y0086778D01*
X0351520Y0086778D01*
X0350980Y0083693D02*
X0348820Y0083693D01*
X0348280Y0083153D01*
X0348280Y0081533D01*
X0351520Y0081533D01*
X0351520Y0083153D01*
X0350980Y0083693D01*
X0376343Y0083403D02*
X0376883Y0083943D01*
X0377963Y0083943D01*
X0378503Y0083403D01*
X0378503Y0081783D01*
X0378503Y0082863D02*
X0379583Y0083943D01*
X0379583Y0081783D02*
X0376343Y0081783D01*
X0376343Y0083403D01*
X0377963Y0085408D02*
X0377963Y0087568D01*
X0379583Y0087028D02*
X0376343Y0087028D01*
X0377963Y0085408D01*
X0378503Y0092783D02*
X0378503Y0094403D01*
X0377963Y0094943D01*
X0376883Y0094943D01*
X0376343Y0094403D01*
X0376343Y0092783D01*
X0379583Y0092783D01*
X0378503Y0093863D02*
X0379583Y0094943D01*
X0379043Y0096408D02*
X0379583Y0096948D01*
X0379583Y0098028D01*
X0379043Y0098568D01*
X0378503Y0098568D01*
X0377963Y0098028D01*
X0377963Y0097488D01*
X0377963Y0098028D02*
X0377423Y0098568D01*
X0376883Y0098568D01*
X0376343Y0098028D01*
X0376343Y0096948D01*
X0376883Y0096408D01*
X0376343Y0103783D02*
X0376343Y0105403D01*
X0376883Y0105943D01*
X0377963Y0105943D01*
X0378503Y0105403D01*
X0378503Y0103783D01*
X0378503Y0104863D02*
X0379583Y0105943D01*
X0379583Y0107408D02*
X0377423Y0109568D01*
X0376883Y0109568D01*
X0376343Y0109028D01*
X0376343Y0107948D01*
X0376883Y0107408D01*
X0379583Y0107408D02*
X0379583Y0109568D01*
X0379583Y0114783D02*
X0376343Y0114783D01*
X0376343Y0116403D01*
X0376883Y0116943D01*
X0377963Y0116943D01*
X0378503Y0116403D01*
X0378503Y0114783D01*
X0378503Y0115863D02*
X0379583Y0116943D01*
X0379583Y0118408D02*
X0379583Y0120568D01*
X0379583Y0119488D02*
X0376343Y0119488D01*
X0377423Y0118408D01*
X0376343Y0103783D02*
X0379583Y0103783D01*
X0418938Y0127143D02*
X0420018Y0128223D01*
X0418938Y0129303D01*
X0422178Y0129303D01*
X0422178Y0130768D02*
X0422178Y0131848D01*
X0422178Y0131308D02*
X0418938Y0131308D01*
X0418938Y0130768D02*
X0418938Y0131848D01*
X0419478Y0133185D02*
X0421638Y0133185D01*
X0422178Y0133725D01*
X0422178Y0134805D01*
X0421638Y0135345D01*
X0422178Y0136810D02*
X0418938Y0136810D01*
X0418938Y0138430D01*
X0419478Y0138970D01*
X0420558Y0138970D01*
X0421098Y0138430D01*
X0421098Y0136810D01*
X0421098Y0137890D02*
X0422178Y0138970D01*
X0421638Y0140435D02*
X0419478Y0140435D01*
X0418938Y0140975D01*
X0418938Y0142055D01*
X0419478Y0142595D01*
X0421638Y0142595D01*
X0422178Y0142055D01*
X0422178Y0140975D01*
X0421638Y0140435D01*
X0424843Y0139034D02*
X0425383Y0139574D01*
X0425923Y0139574D01*
X0426463Y0139034D01*
X0426463Y0137415D01*
X0427003Y0135949D02*
X0427543Y0135949D01*
X0428083Y0135409D01*
X0428083Y0134329D01*
X0427543Y0133789D01*
X0426463Y0134329D02*
X0426463Y0135409D01*
X0427003Y0135949D01*
X0425383Y0135949D02*
X0424843Y0135409D01*
X0424843Y0134329D01*
X0425383Y0133789D01*
X0425923Y0133789D01*
X0426463Y0134329D01*
X0427543Y0132324D02*
X0424843Y0132324D01*
X0424843Y0130164D02*
X0427543Y0130164D01*
X0428083Y0130704D01*
X0428083Y0131784D01*
X0427543Y0132324D01*
X0428083Y0137415D02*
X0428083Y0139034D01*
X0427543Y0139574D01*
X0427003Y0139574D01*
X0426463Y0139034D01*
X0424843Y0139034D02*
X0424843Y0137415D01*
X0428083Y0137415D01*
X0419478Y0135345D02*
X0418938Y0134805D01*
X0418938Y0133725D01*
X0419478Y0133185D01*
X0418938Y0127143D02*
X0422178Y0127143D01*
D15*
X0366233Y0217433D02*
X0363633Y0217433D01*
X0181233Y0217433D02*
X0178633Y0217433D01*
D16*
X0139022Y0168633D02*
X0139024Y0168682D01*
X0139030Y0168730D01*
X0139040Y0168778D01*
X0139054Y0168825D01*
X0139071Y0168871D01*
X0139092Y0168915D01*
X0139117Y0168957D01*
X0139145Y0168997D01*
X0139177Y0169035D01*
X0139211Y0169070D01*
X0139248Y0169102D01*
X0139287Y0169131D01*
X0139329Y0169157D01*
X0139373Y0169179D01*
X0139418Y0169197D01*
X0139465Y0169212D01*
X0139512Y0169223D01*
X0139561Y0169230D01*
X0139610Y0169233D01*
X0139659Y0169232D01*
X0139707Y0169227D01*
X0139756Y0169218D01*
X0139803Y0169205D01*
X0139849Y0169188D01*
X0139893Y0169168D01*
X0139936Y0169144D01*
X0139977Y0169117D01*
X0140015Y0169086D01*
X0140051Y0169053D01*
X0140083Y0169017D01*
X0140113Y0168978D01*
X0140140Y0168937D01*
X0140163Y0168893D01*
X0140182Y0168848D01*
X0140198Y0168802D01*
X0140210Y0168755D01*
X0140218Y0168706D01*
X0140222Y0168657D01*
X0140222Y0168609D01*
X0140218Y0168560D01*
X0140210Y0168511D01*
X0140198Y0168464D01*
X0140182Y0168418D01*
X0140163Y0168373D01*
X0140140Y0168329D01*
X0140113Y0168288D01*
X0140083Y0168249D01*
X0140051Y0168213D01*
X0140015Y0168180D01*
X0139977Y0168149D01*
X0139936Y0168122D01*
X0139893Y0168098D01*
X0139849Y0168078D01*
X0139803Y0168061D01*
X0139756Y0168048D01*
X0139707Y0168039D01*
X0139659Y0168034D01*
X0139610Y0168033D01*
X0139561Y0168036D01*
X0139512Y0168043D01*
X0139465Y0168054D01*
X0139418Y0168069D01*
X0139373Y0168087D01*
X0139329Y0168109D01*
X0139287Y0168135D01*
X0139248Y0168164D01*
X0139211Y0168196D01*
X0139177Y0168231D01*
X0139145Y0168269D01*
X0139117Y0168309D01*
X0139092Y0168351D01*
X0139071Y0168395D01*
X0139054Y0168441D01*
X0139040Y0168488D01*
X0139030Y0168536D01*
X0139024Y0168584D01*
X0139022Y0168633D01*
X0089022Y0168633D02*
X0089024Y0168682D01*
X0089030Y0168730D01*
X0089040Y0168778D01*
X0089054Y0168825D01*
X0089071Y0168871D01*
X0089092Y0168915D01*
X0089117Y0168957D01*
X0089145Y0168997D01*
X0089177Y0169035D01*
X0089211Y0169070D01*
X0089248Y0169102D01*
X0089287Y0169131D01*
X0089329Y0169157D01*
X0089373Y0169179D01*
X0089418Y0169197D01*
X0089465Y0169212D01*
X0089512Y0169223D01*
X0089561Y0169230D01*
X0089610Y0169233D01*
X0089659Y0169232D01*
X0089707Y0169227D01*
X0089756Y0169218D01*
X0089803Y0169205D01*
X0089849Y0169188D01*
X0089893Y0169168D01*
X0089936Y0169144D01*
X0089977Y0169117D01*
X0090015Y0169086D01*
X0090051Y0169053D01*
X0090083Y0169017D01*
X0090113Y0168978D01*
X0090140Y0168937D01*
X0090163Y0168893D01*
X0090182Y0168848D01*
X0090198Y0168802D01*
X0090210Y0168755D01*
X0090218Y0168706D01*
X0090222Y0168657D01*
X0090222Y0168609D01*
X0090218Y0168560D01*
X0090210Y0168511D01*
X0090198Y0168464D01*
X0090182Y0168418D01*
X0090163Y0168373D01*
X0090140Y0168329D01*
X0090113Y0168288D01*
X0090083Y0168249D01*
X0090051Y0168213D01*
X0090015Y0168180D01*
X0089977Y0168149D01*
X0089936Y0168122D01*
X0089893Y0168098D01*
X0089849Y0168078D01*
X0089803Y0168061D01*
X0089756Y0168048D01*
X0089707Y0168039D01*
X0089659Y0168034D01*
X0089610Y0168033D01*
X0089561Y0168036D01*
X0089512Y0168043D01*
X0089465Y0168054D01*
X0089418Y0168069D01*
X0089373Y0168087D01*
X0089329Y0168109D01*
X0089287Y0168135D01*
X0089248Y0168164D01*
X0089211Y0168196D01*
X0089177Y0168231D01*
X0089145Y0168269D01*
X0089117Y0168309D01*
X0089092Y0168351D01*
X0089071Y0168395D01*
X0089054Y0168441D01*
X0089040Y0168488D01*
X0089030Y0168536D01*
X0089024Y0168584D01*
X0089022Y0168633D01*
X0139022Y0108633D02*
X0139024Y0108682D01*
X0139030Y0108730D01*
X0139040Y0108778D01*
X0139054Y0108825D01*
X0139071Y0108871D01*
X0139092Y0108915D01*
X0139117Y0108957D01*
X0139145Y0108997D01*
X0139177Y0109035D01*
X0139211Y0109070D01*
X0139248Y0109102D01*
X0139287Y0109131D01*
X0139329Y0109157D01*
X0139373Y0109179D01*
X0139418Y0109197D01*
X0139465Y0109212D01*
X0139512Y0109223D01*
X0139561Y0109230D01*
X0139610Y0109233D01*
X0139659Y0109232D01*
X0139707Y0109227D01*
X0139756Y0109218D01*
X0139803Y0109205D01*
X0139849Y0109188D01*
X0139893Y0109168D01*
X0139936Y0109144D01*
X0139977Y0109117D01*
X0140015Y0109086D01*
X0140051Y0109053D01*
X0140083Y0109017D01*
X0140113Y0108978D01*
X0140140Y0108937D01*
X0140163Y0108893D01*
X0140182Y0108848D01*
X0140198Y0108802D01*
X0140210Y0108755D01*
X0140218Y0108706D01*
X0140222Y0108657D01*
X0140222Y0108609D01*
X0140218Y0108560D01*
X0140210Y0108511D01*
X0140198Y0108464D01*
X0140182Y0108418D01*
X0140163Y0108373D01*
X0140140Y0108329D01*
X0140113Y0108288D01*
X0140083Y0108249D01*
X0140051Y0108213D01*
X0140015Y0108180D01*
X0139977Y0108149D01*
X0139936Y0108122D01*
X0139893Y0108098D01*
X0139849Y0108078D01*
X0139803Y0108061D01*
X0139756Y0108048D01*
X0139707Y0108039D01*
X0139659Y0108034D01*
X0139610Y0108033D01*
X0139561Y0108036D01*
X0139512Y0108043D01*
X0139465Y0108054D01*
X0139418Y0108069D01*
X0139373Y0108087D01*
X0139329Y0108109D01*
X0139287Y0108135D01*
X0139248Y0108164D01*
X0139211Y0108196D01*
X0139177Y0108231D01*
X0139145Y0108269D01*
X0139117Y0108309D01*
X0139092Y0108351D01*
X0139071Y0108395D01*
X0139054Y0108441D01*
X0139040Y0108488D01*
X0139030Y0108536D01*
X0139024Y0108584D01*
X0139022Y0108633D01*
X0139022Y0071133D02*
X0139024Y0071182D01*
X0139030Y0071230D01*
X0139040Y0071278D01*
X0139054Y0071325D01*
X0139071Y0071371D01*
X0139092Y0071415D01*
X0139117Y0071457D01*
X0139145Y0071497D01*
X0139177Y0071535D01*
X0139211Y0071570D01*
X0139248Y0071602D01*
X0139287Y0071631D01*
X0139329Y0071657D01*
X0139373Y0071679D01*
X0139418Y0071697D01*
X0139465Y0071712D01*
X0139512Y0071723D01*
X0139561Y0071730D01*
X0139610Y0071733D01*
X0139659Y0071732D01*
X0139707Y0071727D01*
X0139756Y0071718D01*
X0139803Y0071705D01*
X0139849Y0071688D01*
X0139893Y0071668D01*
X0139936Y0071644D01*
X0139977Y0071617D01*
X0140015Y0071586D01*
X0140051Y0071553D01*
X0140083Y0071517D01*
X0140113Y0071478D01*
X0140140Y0071437D01*
X0140163Y0071393D01*
X0140182Y0071348D01*
X0140198Y0071302D01*
X0140210Y0071255D01*
X0140218Y0071206D01*
X0140222Y0071157D01*
X0140222Y0071109D01*
X0140218Y0071060D01*
X0140210Y0071011D01*
X0140198Y0070964D01*
X0140182Y0070918D01*
X0140163Y0070873D01*
X0140140Y0070829D01*
X0140113Y0070788D01*
X0140083Y0070749D01*
X0140051Y0070713D01*
X0140015Y0070680D01*
X0139977Y0070649D01*
X0139936Y0070622D01*
X0139893Y0070598D01*
X0139849Y0070578D01*
X0139803Y0070561D01*
X0139756Y0070548D01*
X0139707Y0070539D01*
X0139659Y0070534D01*
X0139610Y0070533D01*
X0139561Y0070536D01*
X0139512Y0070543D01*
X0139465Y0070554D01*
X0139418Y0070569D01*
X0139373Y0070587D01*
X0139329Y0070609D01*
X0139287Y0070635D01*
X0139248Y0070664D01*
X0139211Y0070696D01*
X0139177Y0070731D01*
X0139145Y0070769D01*
X0139117Y0070809D01*
X0139092Y0070851D01*
X0139071Y0070895D01*
X0139054Y0070941D01*
X0139040Y0070988D01*
X0139030Y0071036D01*
X0139024Y0071084D01*
X0139022Y0071133D01*
X0211133Y0141133D02*
X0211135Y0141182D01*
X0211141Y0141230D01*
X0211151Y0141278D01*
X0211165Y0141325D01*
X0211182Y0141371D01*
X0211203Y0141415D01*
X0211228Y0141457D01*
X0211256Y0141497D01*
X0211288Y0141535D01*
X0211322Y0141570D01*
X0211359Y0141602D01*
X0211398Y0141631D01*
X0211440Y0141657D01*
X0211484Y0141679D01*
X0211529Y0141697D01*
X0211576Y0141712D01*
X0211623Y0141723D01*
X0211672Y0141730D01*
X0211721Y0141733D01*
X0211770Y0141732D01*
X0211818Y0141727D01*
X0211867Y0141718D01*
X0211914Y0141705D01*
X0211960Y0141688D01*
X0212004Y0141668D01*
X0212047Y0141644D01*
X0212088Y0141617D01*
X0212126Y0141586D01*
X0212162Y0141553D01*
X0212194Y0141517D01*
X0212224Y0141478D01*
X0212251Y0141437D01*
X0212274Y0141393D01*
X0212293Y0141348D01*
X0212309Y0141302D01*
X0212321Y0141255D01*
X0212329Y0141206D01*
X0212333Y0141157D01*
X0212333Y0141109D01*
X0212329Y0141060D01*
X0212321Y0141011D01*
X0212309Y0140964D01*
X0212293Y0140918D01*
X0212274Y0140873D01*
X0212251Y0140829D01*
X0212224Y0140788D01*
X0212194Y0140749D01*
X0212162Y0140713D01*
X0212126Y0140680D01*
X0212088Y0140649D01*
X0212047Y0140622D01*
X0212004Y0140598D01*
X0211960Y0140578D01*
X0211914Y0140561D01*
X0211867Y0140548D01*
X0211818Y0140539D01*
X0211770Y0140534D01*
X0211721Y0140533D01*
X0211672Y0140536D01*
X0211623Y0140543D01*
X0211576Y0140554D01*
X0211529Y0140569D01*
X0211484Y0140587D01*
X0211440Y0140609D01*
X0211398Y0140635D01*
X0211359Y0140664D01*
X0211322Y0140696D01*
X0211288Y0140731D01*
X0211256Y0140769D01*
X0211228Y0140809D01*
X0211203Y0140851D01*
X0211182Y0140895D01*
X0211165Y0140941D01*
X0211151Y0140988D01*
X0211141Y0141036D01*
X0211135Y0141084D01*
X0211133Y0141133D01*
X0294022Y0153633D02*
X0294024Y0153682D01*
X0294030Y0153730D01*
X0294040Y0153778D01*
X0294054Y0153825D01*
X0294071Y0153871D01*
X0294092Y0153915D01*
X0294117Y0153957D01*
X0294145Y0153997D01*
X0294177Y0154035D01*
X0294211Y0154070D01*
X0294248Y0154102D01*
X0294287Y0154131D01*
X0294329Y0154157D01*
X0294373Y0154179D01*
X0294418Y0154197D01*
X0294465Y0154212D01*
X0294512Y0154223D01*
X0294561Y0154230D01*
X0294610Y0154233D01*
X0294659Y0154232D01*
X0294707Y0154227D01*
X0294756Y0154218D01*
X0294803Y0154205D01*
X0294849Y0154188D01*
X0294893Y0154168D01*
X0294936Y0154144D01*
X0294977Y0154117D01*
X0295015Y0154086D01*
X0295051Y0154053D01*
X0295083Y0154017D01*
X0295113Y0153978D01*
X0295140Y0153937D01*
X0295163Y0153893D01*
X0295182Y0153848D01*
X0295198Y0153802D01*
X0295210Y0153755D01*
X0295218Y0153706D01*
X0295222Y0153657D01*
X0295222Y0153609D01*
X0295218Y0153560D01*
X0295210Y0153511D01*
X0295198Y0153464D01*
X0295182Y0153418D01*
X0295163Y0153373D01*
X0295140Y0153329D01*
X0295113Y0153288D01*
X0295083Y0153249D01*
X0295051Y0153213D01*
X0295015Y0153180D01*
X0294977Y0153149D01*
X0294936Y0153122D01*
X0294893Y0153098D01*
X0294849Y0153078D01*
X0294803Y0153061D01*
X0294756Y0153048D01*
X0294707Y0153039D01*
X0294659Y0153034D01*
X0294610Y0153033D01*
X0294561Y0153036D01*
X0294512Y0153043D01*
X0294465Y0153054D01*
X0294418Y0153069D01*
X0294373Y0153087D01*
X0294329Y0153109D01*
X0294287Y0153135D01*
X0294248Y0153164D01*
X0294211Y0153196D01*
X0294177Y0153231D01*
X0294145Y0153269D01*
X0294117Y0153309D01*
X0294092Y0153351D01*
X0294071Y0153395D01*
X0294054Y0153441D01*
X0294040Y0153488D01*
X0294030Y0153536D01*
X0294024Y0153584D01*
X0294022Y0153633D01*
X0393633Y0164233D02*
X0393635Y0164282D01*
X0393641Y0164330D01*
X0393651Y0164378D01*
X0393665Y0164425D01*
X0393682Y0164471D01*
X0393703Y0164515D01*
X0393728Y0164557D01*
X0393756Y0164597D01*
X0393788Y0164635D01*
X0393822Y0164670D01*
X0393859Y0164702D01*
X0393898Y0164731D01*
X0393940Y0164757D01*
X0393984Y0164779D01*
X0394029Y0164797D01*
X0394076Y0164812D01*
X0394123Y0164823D01*
X0394172Y0164830D01*
X0394221Y0164833D01*
X0394270Y0164832D01*
X0394318Y0164827D01*
X0394367Y0164818D01*
X0394414Y0164805D01*
X0394460Y0164788D01*
X0394504Y0164768D01*
X0394547Y0164744D01*
X0394588Y0164717D01*
X0394626Y0164686D01*
X0394662Y0164653D01*
X0394694Y0164617D01*
X0394724Y0164578D01*
X0394751Y0164537D01*
X0394774Y0164493D01*
X0394793Y0164448D01*
X0394809Y0164402D01*
X0394821Y0164355D01*
X0394829Y0164306D01*
X0394833Y0164257D01*
X0394833Y0164209D01*
X0394829Y0164160D01*
X0394821Y0164111D01*
X0394809Y0164064D01*
X0394793Y0164018D01*
X0394774Y0163973D01*
X0394751Y0163929D01*
X0394724Y0163888D01*
X0394694Y0163849D01*
X0394662Y0163813D01*
X0394626Y0163780D01*
X0394588Y0163749D01*
X0394547Y0163722D01*
X0394504Y0163698D01*
X0394460Y0163678D01*
X0394414Y0163661D01*
X0394367Y0163648D01*
X0394318Y0163639D01*
X0394270Y0163634D01*
X0394221Y0163633D01*
X0394172Y0163636D01*
X0394123Y0163643D01*
X0394076Y0163654D01*
X0394029Y0163669D01*
X0393984Y0163687D01*
X0393940Y0163709D01*
X0393898Y0163735D01*
X0393859Y0163764D01*
X0393822Y0163796D01*
X0393788Y0163831D01*
X0393756Y0163869D01*
X0393728Y0163909D01*
X0393703Y0163951D01*
X0393682Y0163995D01*
X0393665Y0164041D01*
X0393651Y0164088D01*
X0393641Y0164136D01*
X0393635Y0164184D01*
X0393633Y0164233D01*
X0397026Y0126158D02*
X0397028Y0126207D01*
X0397034Y0126255D01*
X0397044Y0126303D01*
X0397058Y0126350D01*
X0397075Y0126396D01*
X0397096Y0126440D01*
X0397121Y0126482D01*
X0397149Y0126522D01*
X0397181Y0126560D01*
X0397215Y0126595D01*
X0397252Y0126627D01*
X0397291Y0126656D01*
X0397333Y0126682D01*
X0397377Y0126704D01*
X0397422Y0126722D01*
X0397469Y0126737D01*
X0397516Y0126748D01*
X0397565Y0126755D01*
X0397614Y0126758D01*
X0397663Y0126757D01*
X0397711Y0126752D01*
X0397760Y0126743D01*
X0397807Y0126730D01*
X0397853Y0126713D01*
X0397897Y0126693D01*
X0397940Y0126669D01*
X0397981Y0126642D01*
X0398019Y0126611D01*
X0398055Y0126578D01*
X0398087Y0126542D01*
X0398117Y0126503D01*
X0398144Y0126462D01*
X0398167Y0126418D01*
X0398186Y0126373D01*
X0398202Y0126327D01*
X0398214Y0126280D01*
X0398222Y0126231D01*
X0398226Y0126182D01*
X0398226Y0126134D01*
X0398222Y0126085D01*
X0398214Y0126036D01*
X0398202Y0125989D01*
X0398186Y0125943D01*
X0398167Y0125898D01*
X0398144Y0125854D01*
X0398117Y0125813D01*
X0398087Y0125774D01*
X0398055Y0125738D01*
X0398019Y0125705D01*
X0397981Y0125674D01*
X0397940Y0125647D01*
X0397897Y0125623D01*
X0397853Y0125603D01*
X0397807Y0125586D01*
X0397760Y0125573D01*
X0397711Y0125564D01*
X0397663Y0125559D01*
X0397614Y0125558D01*
X0397565Y0125561D01*
X0397516Y0125568D01*
X0397469Y0125579D01*
X0397422Y0125594D01*
X0397377Y0125612D01*
X0397333Y0125634D01*
X0397291Y0125660D01*
X0397252Y0125689D01*
X0397215Y0125721D01*
X0397181Y0125756D01*
X0397149Y0125794D01*
X0397121Y0125834D01*
X0397096Y0125876D01*
X0397075Y0125920D01*
X0397058Y0125966D01*
X0397044Y0126013D01*
X0397034Y0126061D01*
X0397028Y0126109D01*
X0397026Y0126158D01*
D17*
X0238430Y0191374D03*
M02*
