%
M48
M72
T01C0.0157
T02C0.0197
T03C0.0236
T04C0.0394
T05C0.0472
T06C0.0551
T07C0.0630
T08C0.1575
%
T01
X8743Y4243
X10958Y4493
X12493Y5893
X13078Y5893
X13893Y4643
X15093Y4643
X14993Y5643
X16843Y5643
X16843Y6643
X16843Y7043
X16843Y7643
X18143Y8143
X18843Y8143
X18843Y7643
X18843Y7143
X17743Y6643
X15793Y8443
X15143Y9143
X14993Y10143
X15193Y10943
X13393Y11643
X13693Y12143
X13693Y12643
X12143Y12143
X11643Y12143
X11643Y12643
X10143Y12393
X8043Y11943
X8043Y11543
X8043Y11093
X7143Y10393
X6643Y10693
X6643Y11193
X7693Y9443
X7693Y9043
X8743Y9043
X10193Y10143
X12543Y10143
X12543Y9143
X13393Y8393
X13393Y7893
X13543Y7169
X11443Y7893
X11443Y8393
X10958Y7293
X8343Y7543
X17143Y8893
X17143Y9393
X18893Y9743
X19393Y9443
X19393Y8943
X20393Y8943
X20393Y9443
X20393Y9943
X20393Y10443
X21793Y10543
X22293Y10543
X22793Y10543
X23293Y10543
X23293Y10943
X24143Y11643
X24543Y11643
X24943Y11643
X25243Y12593
X24393Y12993
X23893Y12993
X23893Y13643
X23393Y13643
X22443Y13393
X22143Y13143
X21643Y12993
X21643Y12593
X23143Y12593
X23643Y11943
X24393Y13643
X24893Y13643
X26843Y14293
X26643Y15143
X26143Y15143
X24893Y14893
X24393Y14893
X23893Y14893
X23393Y14893
X22643Y14893
X22093Y14893
X22093Y15743
X22093Y16143
X22643Y16143
X22393Y16543
X21793Y16543
X21393Y16543
X20993Y15793
X20493Y15293
X19643Y14643
X18993Y15143
X18993Y15493
X18393Y16143
X16893Y15893
X16893Y15393
X16893Y14893
X16893Y14393
X16843Y13493
X18293Y14443
X18293Y14893
X20743Y14393
X20793Y13793
X18893Y11643
X17393Y10643
X21793Y9393
X22293Y9893
X23393Y8643
X23893Y8643
X24393Y8643
X25143Y8643
X25643Y8643
X25643Y10143
X26143Y10143
X26643Y10143
X30543Y12743
X30843Y13043
X30643Y13393
X30893Y13643
X31143Y13893
X30193Y14393
X28643Y14393
X28643Y13893
X28643Y13393
X28643Y14893
X32043Y16893
X33143Y16893
X33643Y16393
X34143Y16893
X35893Y18143
X37893Y19143
X38293Y18143
X39293Y18793
X40393Y17893
X40893Y17893
X40893Y17393
X40393Y17393
X42243Y17493
X42243Y17043
X42243Y16143
X41093Y15993
X39493Y15643
X38293Y16143
X37393Y15443
X36993Y15443
X37393Y14543
X37893Y13793
X38293Y14143
X39643Y14243
X40043Y14193
X40243Y13393
X39293Y12543
X38043Y12643
X40543Y9393
X38813Y7143
X37843Y6643
X36543Y7643
X24593Y7093
X24093Y7093
X21443Y7493
X21443Y7893
X21343Y5493
X21343Y5093
X15093Y13893
X14643Y14393
X15143Y15143
X14643Y15893
X11893Y14893
X11893Y14393
X10643Y15393
X10643Y15893
X9943Y15093
X10143Y14393
X9643Y14393
X9493Y13893
X17593Y18193
X18093Y18493
X18343Y18193
X18593Y17893
X18843Y17593
X29693Y21143
X30193Y21143
X30693Y21143
X30693Y21643
X30193Y21643
X29693Y21643
X34143Y21243
X35893Y20393
X42243Y18568
T02
X41537Y14273
X41537Y12698
T03
X21643Y19643
X20893Y19643
X20893Y20643
X21643Y20643
X21643Y21643
X20893Y21643
T04
X7344Y14486
X7344Y13486
X7344Y12486
X32143Y6143
X32143Y5143
X33143Y5143
X34143Y5143
X35143Y5143
X36143Y5143
X36143Y6143
X35143Y6143
X34143Y6143
X33143Y6143
X38143Y19993
X38143Y20993
X38143Y21993
T05
X41084Y14883
X42422Y14883
X42422Y12088
X41084Y12088
X5631Y12698
X4332Y12698
X4332Y14273
X5631Y14273
X5631Y15848
X4332Y15848
X4332Y17423
X5631Y17423
X5631Y18998
X4332Y18998
X4332Y11124
X5631Y11124
X5631Y9549
X4332Y9549
X4332Y7974
X5631Y7974
T06
X8506Y22739
X13781Y22739
T07
X12994Y18999
X11143Y18999
X9293Y18999
T08
X5612Y21360
X5612Y5612
X41045Y5612
X41045Y21360
M30
