G75*
%MOIN*%
%OFA0B0*%
%FSLAX25Y25*%
%IPPOS*%
%LPD*%
%AMOC8*
5,1,8,0,0,1.08239X$1,22.5*
%
%ADD10C,0.01100*%
%ADD11C,0.00800*%
%ADD12C,0.00700*%
%ADD13C,0.01575*%
%ADD14C,0.00787*%
D10*
X0095461Y0128026D02*
X0094659Y0128828D01*
X0094659Y0132034D01*
X0095461Y0132836D01*
X0097866Y0132836D01*
X0097866Y0128026D01*
X0095461Y0128026D01*
X0100097Y0128026D02*
X0103303Y0128026D01*
X0103303Y0132836D01*
X0102850Y0136885D02*
X0102850Y0141694D01*
X0099644Y0136885D01*
X0099644Y0141694D01*
X0097412Y0141694D02*
X0097412Y0136885D01*
X0094206Y0136885D01*
X0091975Y0136885D02*
X0091975Y0141694D01*
X0089570Y0141694D01*
X0088768Y0140893D01*
X0088768Y0139289D01*
X0089570Y0138488D01*
X0091975Y0138488D01*
X0090371Y0138488D02*
X0088768Y0136885D01*
X0095809Y0139289D02*
X0097412Y0139289D01*
X0097412Y0141694D02*
X0094206Y0141694D01*
X0105081Y0141694D02*
X0105081Y0136885D01*
X0108288Y0141694D01*
X0108288Y0136885D01*
X0110519Y0136885D02*
X0110519Y0140091D01*
X0112122Y0141694D01*
X0113726Y0140091D01*
X0113726Y0136885D01*
X0115957Y0137686D02*
X0116758Y0136885D01*
X0118362Y0136885D01*
X0119163Y0137686D01*
X0119163Y0140893D01*
X0118362Y0141694D01*
X0116758Y0141694D01*
X0115957Y0140893D01*
X0113726Y0139289D02*
X0110519Y0139289D01*
X0110972Y0132836D02*
X0114179Y0128026D01*
X0121848Y0128828D02*
X0122649Y0128026D01*
X0124252Y0128026D01*
X0125054Y0128828D01*
X0125054Y0130431D02*
X0123451Y0131233D01*
X0122649Y0131233D01*
X0121848Y0130431D01*
X0121848Y0128828D01*
X0125054Y0130431D02*
X0125054Y0132836D01*
X0121848Y0132836D01*
X0122196Y0136885D02*
X0123799Y0136885D01*
X0124601Y0137686D01*
X0123799Y0139289D02*
X0122196Y0139289D01*
X0121395Y0138488D01*
X0121395Y0137686D01*
X0122196Y0136885D01*
X0123799Y0139289D02*
X0124601Y0140091D01*
X0124601Y0140893D01*
X0123799Y0141694D01*
X0122196Y0141694D01*
X0121395Y0140893D01*
X0132061Y0141694D02*
X0133664Y0141694D01*
X0132862Y0141694D02*
X0132862Y0136885D01*
X0132061Y0136885D02*
X0133664Y0136885D01*
X0135895Y0137686D02*
X0136697Y0136885D01*
X0138300Y0136885D01*
X0139101Y0137686D01*
X0139101Y0140893D01*
X0138300Y0141694D01*
X0136697Y0141694D01*
X0135895Y0140893D01*
X0141333Y0140893D02*
X0142134Y0141694D01*
X0143738Y0141694D01*
X0144539Y0140893D01*
X0144539Y0140091D01*
X0143738Y0139289D01*
X0142134Y0139289D01*
X0141333Y0138488D01*
X0141333Y0137686D01*
X0142134Y0136885D01*
X0143738Y0136885D01*
X0144539Y0137686D01*
X0146770Y0141694D02*
X0149977Y0136885D01*
X0152208Y0137686D02*
X0153010Y0136885D01*
X0155415Y0136885D01*
X0155415Y0141694D01*
X0153010Y0141694D01*
X0152208Y0140893D01*
X0152208Y0137686D01*
X0157646Y0137686D02*
X0158448Y0136885D01*
X0160051Y0136885D01*
X0160852Y0137686D01*
X0160852Y0140893D01*
X0160051Y0141694D01*
X0158448Y0141694D01*
X0157646Y0140893D01*
X0163084Y0140893D02*
X0163885Y0141694D01*
X0165488Y0141694D01*
X0166290Y0140893D01*
X0166290Y0137686D01*
X0165488Y0136885D01*
X0163885Y0136885D01*
X0163084Y0137686D01*
X0162316Y0132836D02*
X0160713Y0132836D01*
X0159912Y0132034D01*
X0163118Y0128828D01*
X0162316Y0128026D01*
X0160713Y0128026D01*
X0159912Y0128828D01*
X0159912Y0132034D01*
X0157680Y0131233D02*
X0156077Y0132836D01*
X0156077Y0128026D01*
X0157680Y0128026D02*
X0154474Y0128026D01*
X0152243Y0128828D02*
X0151441Y0128026D01*
X0149838Y0128026D01*
X0149036Y0128828D01*
X0149036Y0132034D01*
X0149838Y0132836D01*
X0151441Y0132836D01*
X0152243Y0132034D01*
X0152243Y0131233D01*
X0151441Y0130431D01*
X0149036Y0130431D01*
X0146805Y0128828D02*
X0146003Y0128828D01*
X0146003Y0128026D01*
X0146805Y0128026D01*
X0146805Y0128828D01*
X0144086Y0128026D02*
X0140880Y0128026D01*
X0142483Y0128026D02*
X0142483Y0132836D01*
X0144086Y0131233D01*
X0138648Y0132034D02*
X0138648Y0128828D01*
X0135442Y0132034D01*
X0135442Y0128828D01*
X0136244Y0128026D01*
X0137847Y0128026D01*
X0138648Y0128828D01*
X0138648Y0132034D02*
X0137847Y0132836D01*
X0136244Y0132836D01*
X0135442Y0132034D01*
X0133211Y0128828D02*
X0132409Y0128828D01*
X0132409Y0128026D01*
X0133211Y0128026D01*
X0133211Y0128828D01*
X0130492Y0128026D02*
X0127285Y0131233D01*
X0127285Y0132034D01*
X0128087Y0132836D01*
X0129690Y0132836D01*
X0130492Y0132034D01*
X0130492Y0128026D02*
X0127285Y0128026D01*
X0162316Y0132836D02*
X0163118Y0132034D01*
X0163118Y0128828D01*
X0165349Y0128026D02*
X0168556Y0128026D01*
X0165349Y0131233D01*
X0165349Y0132034D01*
X0166151Y0132836D01*
X0167754Y0132836D01*
X0168556Y0132034D01*
X0176225Y0132836D02*
X0179431Y0128026D01*
X0187100Y0128828D02*
X0187902Y0128026D01*
X0189505Y0128026D01*
X0190307Y0128828D01*
X0188703Y0130431D02*
X0187902Y0130431D01*
X0187100Y0129630D01*
X0187100Y0128828D01*
X0187902Y0130431D02*
X0187100Y0131233D01*
X0187100Y0132034D01*
X0187902Y0132836D01*
X0189505Y0132836D01*
X0190307Y0132034D01*
X0192538Y0130431D02*
X0195744Y0130431D01*
X0193339Y0132836D01*
X0193339Y0128026D01*
X0197662Y0128026D02*
X0198463Y0128026D01*
X0198463Y0128828D01*
X0197662Y0128828D01*
X0197662Y0128026D01*
X0200694Y0128026D02*
X0203901Y0128026D01*
X0202298Y0128026D02*
X0202298Y0132836D01*
X0203901Y0131233D01*
X0206132Y0129630D02*
X0206132Y0132836D01*
X0206132Y0129630D02*
X0207735Y0128026D01*
X0209339Y0129630D01*
X0209339Y0132836D01*
X0209792Y0136885D02*
X0209792Y0141694D01*
X0212023Y0140893D02*
X0212825Y0141694D01*
X0214428Y0141694D01*
X0215229Y0140893D01*
X0215229Y0137686D01*
X0214428Y0136885D01*
X0212825Y0136885D01*
X0212023Y0137686D01*
X0209792Y0139289D02*
X0206585Y0139289D01*
X0204354Y0138488D02*
X0201949Y0138488D01*
X0201148Y0139289D01*
X0201148Y0140893D01*
X0201949Y0141694D01*
X0204354Y0141694D01*
X0204354Y0136885D01*
X0206585Y0136885D02*
X0206585Y0141694D01*
X0202751Y0138488D02*
X0201148Y0136885D01*
X0197313Y0136885D02*
X0197313Y0139289D01*
X0195710Y0140893D01*
X0195710Y0141694D01*
X0193479Y0140893D02*
X0193479Y0140091D01*
X0192677Y0139289D01*
X0191074Y0139289D01*
X0190272Y0138488D01*
X0190272Y0137686D01*
X0191074Y0136885D01*
X0192677Y0136885D01*
X0193479Y0137686D01*
X0193479Y0140893D02*
X0192677Y0141694D01*
X0191074Y0141694D01*
X0190272Y0140893D01*
X0188041Y0141694D02*
X0188041Y0136885D01*
X0184834Y0136885D01*
X0182603Y0136885D02*
X0179397Y0136885D01*
X0177165Y0136885D02*
X0177165Y0141694D01*
X0174761Y0141694D01*
X0173959Y0140893D01*
X0173959Y0139289D01*
X0174761Y0138488D01*
X0177165Y0138488D01*
X0175562Y0138488D02*
X0173959Y0136885D01*
X0181000Y0139289D02*
X0182603Y0139289D01*
X0182603Y0136885D02*
X0182603Y0141694D01*
X0179397Y0141694D01*
X0197313Y0139289D02*
X0198916Y0140893D01*
X0198916Y0141694D01*
X0235801Y0169983D02*
X0239008Y0169983D01*
X0239008Y0174793D01*
X0235801Y0174793D01*
X0237404Y0172388D02*
X0239008Y0172388D01*
X0241239Y0173991D02*
X0242041Y0174793D01*
X0243644Y0174793D01*
X0244445Y0173991D01*
X0244445Y0170785D01*
X0243644Y0169983D01*
X0242041Y0169983D01*
X0241239Y0170785D01*
X0246677Y0169983D02*
X0248280Y0171586D01*
X0247478Y0171586D02*
X0249883Y0171586D01*
X0249883Y0169983D02*
X0249883Y0174793D01*
X0247478Y0174793D01*
X0246677Y0173991D01*
X0246677Y0172388D01*
X0247478Y0171586D01*
X0252114Y0170785D02*
X0252114Y0174793D01*
X0255321Y0174793D02*
X0255321Y0170785D01*
X0254519Y0169983D01*
X0252916Y0169983D01*
X0252114Y0170785D01*
X0257552Y0170785D02*
X0257552Y0173991D01*
X0258354Y0174793D01*
X0259957Y0174793D01*
X0260759Y0173991D01*
X0260759Y0170785D01*
X0259957Y0169983D01*
X0258354Y0169983D01*
X0257552Y0170785D01*
X0262990Y0170785D02*
X0263791Y0169983D01*
X0265395Y0169983D01*
X0266196Y0170785D01*
X0265395Y0172388D02*
X0266196Y0173189D01*
X0266196Y0173991D01*
X0265395Y0174793D01*
X0263791Y0174793D01*
X0262990Y0173991D01*
X0263791Y0172388D02*
X0262990Y0171586D01*
X0262990Y0170785D01*
X0263791Y0172388D02*
X0265395Y0172388D01*
X0259957Y0178841D02*
X0258354Y0178841D01*
X0257552Y0179643D01*
X0257552Y0182849D01*
X0258354Y0183651D01*
X0259957Y0183651D01*
X0260759Y0182849D01*
X0260759Y0179643D01*
X0259957Y0178841D01*
X0255321Y0178841D02*
X0255321Y0183651D01*
X0252916Y0183651D01*
X0252114Y0182849D01*
X0252114Y0181246D01*
X0252916Y0180445D01*
X0255321Y0180445D01*
X0249883Y0181246D02*
X0248280Y0181246D01*
X0249883Y0178841D02*
X0246677Y0178841D01*
X0244445Y0178841D02*
X0244445Y0183651D01*
X0241239Y0178841D01*
X0241239Y0183651D01*
X0246677Y0183651D02*
X0249883Y0183651D01*
X0249883Y0178841D01*
X0321665Y0093509D02*
X0320864Y0092708D01*
X0320864Y0091104D01*
X0321665Y0090303D01*
X0324070Y0090303D01*
X0322467Y0090303D02*
X0320864Y0088700D01*
X0324070Y0088700D02*
X0324070Y0093509D01*
X0321665Y0093509D01*
X0326301Y0093509D02*
X0329508Y0093509D01*
X0329508Y0088700D01*
X0326301Y0088700D01*
X0327904Y0091104D02*
X0329508Y0091104D01*
X0331739Y0088700D02*
X0334945Y0088700D01*
X0334945Y0093509D01*
X0337177Y0092708D02*
X0337978Y0093509D01*
X0339582Y0093509D01*
X0340383Y0092708D01*
X0340383Y0091906D01*
X0339582Y0091104D01*
X0337978Y0091104D01*
X0337177Y0090303D01*
X0337177Y0089501D01*
X0337978Y0088700D01*
X0339582Y0088700D01*
X0340383Y0089501D01*
X0342614Y0092708D02*
X0342614Y0093509D01*
X0342614Y0092708D02*
X0344218Y0091104D01*
X0344218Y0088700D01*
X0344218Y0091104D02*
X0345821Y0092708D01*
X0345821Y0093509D01*
X0348052Y0092708D02*
X0348052Y0091104D01*
X0348854Y0090303D01*
X0351259Y0090303D01*
X0351259Y0088700D02*
X0351259Y0093509D01*
X0348854Y0093509D01*
X0348052Y0092708D01*
X0349655Y0090303D02*
X0348052Y0088700D01*
X0347738Y0084651D02*
X0348540Y0083849D01*
X0348540Y0080643D01*
X0347738Y0079841D01*
X0346135Y0079841D01*
X0345333Y0080643D01*
X0345333Y0083849D01*
X0346135Y0084651D01*
X0347738Y0084651D01*
X0350771Y0083849D02*
X0351573Y0084651D01*
X0353977Y0084651D01*
X0353977Y0079841D01*
X0351573Y0079841D01*
X0350771Y0080643D01*
X0350771Y0083849D01*
X0353490Y0088700D02*
X0353490Y0093509D01*
X0353490Y0091104D02*
X0356696Y0091104D01*
X0356696Y0088700D02*
X0356696Y0093509D01*
X0358928Y0092708D02*
X0359729Y0093509D01*
X0361332Y0093509D01*
X0362134Y0092708D01*
X0362134Y0089501D01*
X0361332Y0088700D01*
X0359729Y0088700D01*
X0358928Y0089501D01*
X0343102Y0084651D02*
X0340697Y0084651D01*
X0339896Y0083849D01*
X0339896Y0080643D01*
X0340697Y0079841D01*
X0343102Y0079841D01*
X0343102Y0084651D01*
X0337664Y0083849D02*
X0337664Y0080643D01*
X0336863Y0079841D01*
X0335259Y0079841D01*
X0334458Y0080643D01*
X0334458Y0082246D01*
X0336061Y0082246D01*
X0334458Y0083849D02*
X0335259Y0084651D01*
X0336863Y0084651D01*
X0337664Y0083849D01*
X0332227Y0084651D02*
X0332227Y0079841D01*
X0329020Y0079841D01*
X0330623Y0082246D02*
X0332227Y0082246D01*
X0332227Y0084651D02*
X0329020Y0084651D01*
X0332541Y0075793D02*
X0331739Y0074991D01*
X0331739Y0073388D01*
X0332541Y0072586D01*
X0334945Y0072586D01*
X0334945Y0070983D02*
X0334945Y0075793D01*
X0332541Y0075793D01*
X0337177Y0075793D02*
X0340383Y0075793D01*
X0340383Y0070983D01*
X0337177Y0070983D01*
X0338780Y0073388D02*
X0340383Y0073388D01*
X0342614Y0075793D02*
X0345821Y0075793D01*
X0345821Y0070983D01*
X0342614Y0070983D01*
X0344218Y0073388D02*
X0345821Y0073388D01*
X0348052Y0075793D02*
X0349655Y0075793D01*
X0348854Y0075793D02*
X0348854Y0071785D01*
X0349655Y0070983D01*
X0350457Y0070983D01*
X0351259Y0071785D01*
D11*
X0112833Y0052227D02*
X0112833Y0050125D01*
X0117037Y0050125D01*
X0117037Y0052227D01*
X0116336Y0052928D01*
X0113534Y0052928D01*
X0112833Y0052227D01*
X0113534Y0054729D02*
X0114234Y0054729D01*
X0114935Y0055430D01*
X0114935Y0056831D01*
X0114234Y0057532D01*
X0113534Y0057532D01*
X0112833Y0056831D01*
X0112833Y0055430D01*
X0113534Y0054729D01*
X0114935Y0055430D02*
X0115635Y0054729D01*
X0116336Y0054729D01*
X0117037Y0055430D01*
X0117037Y0056831D01*
X0116336Y0057532D01*
X0115635Y0057532D01*
X0114935Y0056831D01*
X0120433Y0056433D02*
X0120433Y0051433D01*
X0122071Y0052752D02*
X0123933Y0055114D01*
X0125795Y0052752D01*
X0122071Y0052752D01*
X0121977Y0055114D02*
X0123933Y0055114D01*
X0125889Y0055114D01*
X0127433Y0056433D02*
X0127433Y0051433D01*
X0117037Y0075125D02*
X0112833Y0075125D01*
X0112833Y0077227D01*
X0113534Y0077928D01*
X0116336Y0077928D01*
X0117037Y0077227D01*
X0117037Y0075125D01*
X0120433Y0076433D02*
X0120433Y0081433D01*
X0122071Y0080114D02*
X0125795Y0080114D01*
X0123933Y0077752D01*
X0122071Y0080114D01*
X0121977Y0077752D02*
X0123933Y0077752D01*
X0125889Y0077752D01*
X0127433Y0076433D02*
X0127433Y0081433D01*
X0117037Y0081831D02*
X0117037Y0080430D01*
X0116336Y0079729D01*
X0115635Y0079729D01*
X0114935Y0080430D01*
X0114935Y0082532D01*
X0116336Y0082532D02*
X0117037Y0081831D01*
X0116336Y0082532D02*
X0113534Y0082532D01*
X0112833Y0081831D01*
X0112833Y0080430D01*
X0113534Y0079729D01*
X0102037Y0079539D02*
X0102037Y0078138D01*
X0101336Y0077437D01*
X0098534Y0077437D01*
X0097833Y0078138D01*
X0097833Y0079539D01*
X0098534Y0080239D01*
X0097833Y0082041D02*
X0097833Y0084143D01*
X0098534Y0084843D01*
X0101336Y0084843D01*
X0102037Y0084143D01*
X0102037Y0082041D01*
X0097833Y0082041D01*
X0101336Y0080239D02*
X0102037Y0079539D01*
X0101336Y0075635D02*
X0102037Y0074935D01*
X0102037Y0073534D01*
X0101336Y0072833D01*
X0098534Y0072833D01*
X0097833Y0073534D01*
X0097833Y0074935D01*
X0098534Y0075635D01*
X0093836Y0078138D02*
X0091034Y0078138D01*
X0090333Y0078838D01*
X0091034Y0080506D02*
X0091734Y0081207D01*
X0091734Y0083309D01*
X0092435Y0083309D02*
X0090333Y0083309D01*
X0090333Y0081207D01*
X0091034Y0080506D01*
X0093135Y0081207D02*
X0093135Y0082608D01*
X0092435Y0083309D01*
X0093135Y0085110D02*
X0093135Y0087212D01*
X0092435Y0087913D01*
X0090333Y0087913D01*
X0091034Y0089714D02*
X0092435Y0089714D01*
X0093135Y0090415D01*
X0093135Y0092517D01*
X0094537Y0092517D02*
X0090333Y0092517D01*
X0090333Y0090415D01*
X0091034Y0089714D01*
X0091034Y0094318D02*
X0091734Y0095019D01*
X0091734Y0097120D01*
X0092435Y0097120D02*
X0090333Y0097120D01*
X0090333Y0095019D01*
X0091034Y0094318D01*
X0093135Y0095019D02*
X0093135Y0096420D01*
X0092435Y0097120D01*
X0094537Y0098922D02*
X0094537Y0099623D01*
X0090333Y0099623D01*
X0090333Y0100323D02*
X0090333Y0098922D01*
X0091034Y0101991D02*
X0090333Y0102692D01*
X0090333Y0104093D01*
X0091034Y0104794D01*
X0092435Y0104794D01*
X0093135Y0104093D01*
X0093135Y0102692D01*
X0092435Y0101991D01*
X0091034Y0101991D01*
X0097833Y0102558D02*
X0098534Y0103259D01*
X0099234Y0102558D01*
X0099234Y0101157D01*
X0099935Y0100457D01*
X0100635Y0101157D01*
X0100635Y0103259D01*
X0097833Y0102558D02*
X0097833Y0100457D01*
X0097833Y0098655D02*
X0100635Y0098655D01*
X0097833Y0098655D02*
X0097833Y0096553D01*
X0098534Y0095853D01*
X0100635Y0095853D01*
X0099935Y0094051D02*
X0100635Y0093351D01*
X0100635Y0091249D01*
X0102037Y0091249D02*
X0097833Y0091249D01*
X0097833Y0093351D01*
X0098534Y0094051D01*
X0099935Y0094051D01*
X0099935Y0089447D02*
X0099935Y0086645D01*
X0093135Y0085110D02*
X0090333Y0085110D01*
X0085635Y0085811D02*
X0085635Y0087913D01*
X0084234Y0087212D02*
X0084234Y0085811D01*
X0084935Y0085110D01*
X0085635Y0085811D01*
X0084234Y0087212D02*
X0083534Y0087913D01*
X0082833Y0087212D01*
X0082833Y0085110D01*
X0082833Y0083309D02*
X0082833Y0081207D01*
X0083534Y0080506D01*
X0084234Y0081207D01*
X0084234Y0083309D01*
X0084935Y0083309D02*
X0082833Y0083309D01*
X0084935Y0083309D02*
X0085635Y0082608D01*
X0085635Y0081207D01*
X0082833Y0078838D02*
X0082833Y0077437D01*
X0082833Y0078138D02*
X0085635Y0078138D01*
X0085635Y0077437D01*
X0087037Y0078138D02*
X0087737Y0078138D01*
X0084935Y0075635D02*
X0085635Y0074935D01*
X0085635Y0072833D01*
X0087037Y0072833D02*
X0082833Y0072833D01*
X0082833Y0074935D01*
X0083534Y0075635D01*
X0084935Y0075635D01*
X0090333Y0074935D02*
X0091034Y0075635D01*
X0091734Y0074935D01*
X0091734Y0073534D01*
X0092435Y0072833D01*
X0093135Y0073534D01*
X0093135Y0075635D01*
X0093135Y0077437D02*
X0093135Y0078838D01*
X0090333Y0074935D02*
X0090333Y0072833D01*
X0060033Y0072191D02*
X0058632Y0073592D01*
X0058632Y0069388D01*
X0060033Y0069388D02*
X0057231Y0069388D01*
X0055429Y0070089D02*
X0055429Y0071490D01*
X0053327Y0071490D01*
X0052627Y0070789D01*
X0052627Y0070089D01*
X0053327Y0069388D01*
X0054729Y0069388D01*
X0055429Y0070089D01*
X0055429Y0071490D02*
X0054028Y0072891D01*
X0052627Y0073592D01*
X0044533Y0072891D02*
X0044533Y0072191D01*
X0043832Y0071490D01*
X0042431Y0071490D01*
X0041731Y0070789D01*
X0041731Y0070089D01*
X0042431Y0069388D01*
X0043832Y0069388D01*
X0044533Y0070089D01*
X0044533Y0070789D01*
X0043832Y0071490D01*
X0042431Y0071490D02*
X0041731Y0072191D01*
X0041731Y0072891D01*
X0042431Y0073592D01*
X0043832Y0073592D01*
X0044533Y0072891D01*
X0090333Y0106595D02*
X0093135Y0106595D01*
X0093135Y0108697D01*
X0092435Y0109398D01*
X0090333Y0109398D01*
X0091034Y0111199D02*
X0092435Y0111199D01*
X0093135Y0111900D01*
X0093135Y0113301D01*
X0092435Y0114001D01*
X0091734Y0114001D01*
X0091734Y0111199D01*
X0091034Y0111199D02*
X0090333Y0111900D01*
X0090333Y0113301D01*
X0181632Y0079947D02*
X0181632Y0077145D01*
X0182333Y0073942D02*
X0186537Y0073942D01*
X0186537Y0072541D02*
X0186537Y0075343D01*
X0186537Y0070739D02*
X0182333Y0067937D01*
X0182333Y0066135D02*
X0182333Y0063333D01*
X0186537Y0063333D01*
X0186537Y0066135D01*
X0186537Y0067937D02*
X0182333Y0070739D01*
X0189169Y0069433D02*
X0194933Y0069433D01*
X0189169Y0069433D02*
X0189169Y0060433D01*
X0183461Y0060433D01*
X0183461Y0054433D01*
X0184435Y0063333D02*
X0184435Y0064734D01*
X0199370Y0056433D02*
X0196933Y0049996D01*
X0196933Y0037598D01*
X0192122Y0037598D01*
X0196933Y0037598D02*
X0210933Y0037598D01*
X0210933Y0049996D01*
X0208496Y0056433D01*
X0199370Y0056433D01*
X0218697Y0060433D02*
X0218697Y0069433D01*
X0212933Y0069433D01*
X0221333Y0070039D02*
X0222034Y0070739D01*
X0222734Y0070739D01*
X0223435Y0070039D01*
X0223435Y0067937D01*
X0222034Y0067937D01*
X0221333Y0068638D01*
X0221333Y0070039D01*
X0223435Y0067937D02*
X0224836Y0069338D01*
X0225537Y0070739D01*
X0225537Y0066135D02*
X0225537Y0064734D01*
X0225537Y0065435D02*
X0222034Y0065435D01*
X0221333Y0064734D01*
X0221333Y0064034D01*
X0222034Y0063333D01*
X0224406Y0060433D02*
X0218697Y0060433D01*
X0224406Y0060433D02*
X0224406Y0054433D01*
X0240961Y0054433D02*
X0240961Y0060433D01*
X0246669Y0060433D01*
X0246669Y0069433D01*
X0252433Y0069433D01*
X0244037Y0068504D02*
X0244037Y0067103D01*
X0243336Y0066402D01*
X0244037Y0064734D02*
X0244037Y0063333D01*
X0244037Y0064034D02*
X0239833Y0064034D01*
X0239833Y0064734D02*
X0239833Y0063333D01*
X0239833Y0066402D02*
X0242635Y0069205D01*
X0243336Y0069205D01*
X0244037Y0068504D01*
X0243336Y0071006D02*
X0240534Y0071006D01*
X0239833Y0071707D01*
X0239833Y0073108D01*
X0240534Y0073809D01*
X0243336Y0073809D02*
X0244037Y0073108D01*
X0244037Y0071707D01*
X0243336Y0071006D01*
X0239833Y0069205D02*
X0239833Y0066402D01*
X0256370Y0056433D02*
X0261433Y0056433D01*
X0261433Y0037598D01*
X0253933Y0037598D01*
X0253933Y0049996D01*
X0256370Y0056433D01*
X0281433Y0056433D02*
X0286496Y0056433D01*
X0288933Y0049996D01*
X0288933Y0037598D01*
X0281433Y0037598D01*
X0281433Y0056433D01*
X0296197Y0060433D02*
X0296197Y0069433D01*
X0290433Y0069433D01*
X0298833Y0070039D02*
X0298833Y0068638D01*
X0299534Y0067937D01*
X0300935Y0067937D02*
X0301635Y0069338D01*
X0301635Y0070039D01*
X0300935Y0070739D01*
X0299534Y0070739D01*
X0298833Y0070039D01*
X0300935Y0067937D02*
X0303037Y0067937D01*
X0303037Y0070739D01*
X0303037Y0066135D02*
X0303037Y0064734D01*
X0303037Y0065435D02*
X0299534Y0065435D01*
X0298833Y0064734D01*
X0298833Y0064034D01*
X0299534Y0063333D01*
X0301906Y0060433D02*
X0296197Y0060433D01*
X0301906Y0060433D02*
X0301906Y0054433D01*
X0293244Y0037598D02*
X0288933Y0037598D01*
X0281433Y0037598D02*
X0261433Y0037598D01*
X0253933Y0037598D02*
X0249622Y0037598D01*
X0215744Y0037598D02*
X0210933Y0037598D01*
X0186537Y0081749D02*
X0184435Y0081749D01*
X0185135Y0083150D01*
X0185135Y0083851D01*
X0184435Y0084551D01*
X0183034Y0084551D01*
X0182333Y0083851D01*
X0182333Y0082449D01*
X0183034Y0081749D01*
X0186537Y0081749D02*
X0186537Y0084551D01*
X0186537Y0086353D02*
X0183734Y0086353D01*
X0182333Y0087754D01*
X0183734Y0089155D01*
X0186537Y0089155D01*
X0196833Y0088437D02*
X0201037Y0088437D01*
X0196833Y0091239D01*
X0201037Y0091239D01*
X0201037Y0093041D02*
X0196833Y0093041D01*
X0196833Y0095143D01*
X0197534Y0095843D01*
X0200336Y0095843D01*
X0201037Y0095143D01*
X0201037Y0093041D01*
X0206833Y0094442D02*
X0208234Y0095843D01*
X0211037Y0095843D01*
X0211037Y0093041D02*
X0208234Y0093041D01*
X0206833Y0094442D01*
X0207534Y0091239D02*
X0206833Y0090539D01*
X0206833Y0089138D01*
X0207534Y0088437D01*
X0208935Y0088437D02*
X0209635Y0089838D01*
X0209635Y0090539D01*
X0208935Y0091239D01*
X0207534Y0091239D01*
X0208935Y0088437D02*
X0211037Y0088437D01*
X0211037Y0091239D01*
X0208935Y0086635D02*
X0208935Y0083833D01*
X0210336Y0085234D02*
X0207534Y0085234D01*
X0201037Y0084534D02*
X0200336Y0083833D01*
X0197534Y0083833D01*
X0196833Y0084534D01*
X0196833Y0085935D01*
X0197534Y0086635D01*
X0198935Y0086635D01*
X0198935Y0085234D01*
X0200336Y0086635D02*
X0201037Y0085935D01*
X0201037Y0084534D01*
X0254333Y0084534D02*
X0254333Y0085935D01*
X0255034Y0086635D01*
X0256435Y0086635D01*
X0256435Y0085234D01*
X0257836Y0083833D02*
X0255034Y0083833D01*
X0254333Y0084534D01*
X0257836Y0083833D02*
X0258537Y0084534D01*
X0258537Y0085935D01*
X0257836Y0086635D01*
X0258537Y0088437D02*
X0254333Y0091239D01*
X0258537Y0091239D01*
X0258537Y0093041D02*
X0254333Y0093041D01*
X0254333Y0095143D01*
X0255034Y0095843D01*
X0257836Y0095843D01*
X0258537Y0095143D01*
X0258537Y0093041D01*
X0264333Y0093041D02*
X0267135Y0093041D01*
X0268537Y0094442D01*
X0267135Y0095843D01*
X0264333Y0095843D01*
X0266435Y0095843D02*
X0266435Y0093041D01*
X0265034Y0091239D02*
X0267836Y0091239D01*
X0268537Y0090539D01*
X0268537Y0088437D01*
X0264333Y0088437D01*
X0264333Y0090539D01*
X0265034Y0091239D01*
X0265034Y0086635D02*
X0264333Y0085935D01*
X0264333Y0084534D01*
X0265034Y0083833D01*
X0266435Y0084534D02*
X0266435Y0085935D01*
X0265734Y0086635D01*
X0265034Y0086635D01*
X0266435Y0084534D02*
X0267135Y0083833D01*
X0267836Y0083833D01*
X0268537Y0084534D01*
X0268537Y0085935D01*
X0267836Y0086635D01*
X0274333Y0085935D02*
X0274333Y0084534D01*
X0275034Y0083833D01*
X0276435Y0084534D02*
X0276435Y0085935D01*
X0275734Y0086635D01*
X0275034Y0086635D01*
X0274333Y0085935D01*
X0276435Y0084534D02*
X0277135Y0083833D01*
X0277836Y0083833D01*
X0278537Y0084534D01*
X0278537Y0085935D01*
X0277836Y0086635D01*
X0277836Y0088437D02*
X0275034Y0088437D01*
X0274333Y0089138D01*
X0274333Y0090539D01*
X0275034Y0091239D01*
X0274333Y0093041D02*
X0274333Y0095843D01*
X0274333Y0093041D02*
X0278537Y0093041D01*
X0277836Y0091239D02*
X0278537Y0090539D01*
X0278537Y0089138D01*
X0277836Y0088437D01*
X0284333Y0089138D02*
X0285034Y0088437D01*
X0284333Y0089138D02*
X0284333Y0090539D01*
X0285034Y0091239D01*
X0286435Y0091239D01*
X0287135Y0090539D01*
X0287135Y0089838D01*
X0286435Y0088437D01*
X0288537Y0088437D01*
X0288537Y0091239D01*
X0288537Y0093041D02*
X0285734Y0093041D01*
X0284333Y0094442D01*
X0285734Y0095843D01*
X0288537Y0095843D01*
X0286435Y0086635D02*
X0286435Y0083833D01*
X0287836Y0085234D02*
X0285034Y0085234D01*
X0258537Y0088437D02*
X0254333Y0088437D01*
X0368223Y0146735D02*
X0368223Y0150938D01*
X0370325Y0148836D01*
X0367523Y0148836D01*
X0372127Y0146735D02*
X0374929Y0146735D01*
X0373528Y0146735D02*
X0373528Y0150938D01*
X0374929Y0149537D01*
X0376731Y0148836D02*
X0377431Y0148136D01*
X0379533Y0148136D01*
X0378132Y0148136D02*
X0376731Y0146735D01*
X0376731Y0148836D02*
X0376731Y0150238D01*
X0377431Y0150938D01*
X0379533Y0150938D01*
X0379533Y0146735D01*
X0389433Y0145335D02*
X0394433Y0145335D01*
X0393033Y0147235D02*
X0393033Y0150437D01*
X0391432Y0150437D01*
X0390898Y0149904D01*
X0390898Y0148836D01*
X0391432Y0148302D01*
X0393033Y0148302D01*
X0391966Y0148302D02*
X0390898Y0147235D01*
X0389433Y0152335D02*
X0394433Y0152335D01*
X0383933Y0157933D02*
X0378933Y0157933D01*
X0380932Y0159833D02*
X0380398Y0160367D01*
X0380932Y0159833D02*
X0381999Y0159833D01*
X0382533Y0160367D01*
X0382533Y0162502D01*
X0381999Y0163036D01*
X0380932Y0163036D01*
X0380398Y0162502D01*
X0378933Y0164933D02*
X0383933Y0164933D01*
X0383933Y0167933D02*
X0378933Y0167933D01*
X0380932Y0169833D02*
X0380398Y0170367D01*
X0380932Y0169833D02*
X0381999Y0169833D01*
X0382533Y0170367D01*
X0382533Y0172502D01*
X0381999Y0173036D01*
X0380932Y0173036D01*
X0380398Y0172502D01*
X0378933Y0174933D02*
X0383933Y0174933D01*
X0383933Y0177933D02*
X0378933Y0177933D01*
X0380932Y0179833D02*
X0380398Y0180367D01*
X0380932Y0179833D02*
X0381999Y0179833D01*
X0382533Y0180367D01*
X0382533Y0182502D01*
X0381999Y0183036D01*
X0380932Y0183036D01*
X0380398Y0182502D01*
X0378933Y0184933D02*
X0383933Y0184933D01*
X0382929Y0187833D02*
X0380127Y0187833D01*
X0378325Y0187833D02*
X0375523Y0190635D01*
X0375523Y0191336D01*
X0376223Y0192037D01*
X0377625Y0192037D01*
X0378325Y0191336D01*
X0380127Y0191336D02*
X0380827Y0192037D01*
X0382229Y0192037D01*
X0382929Y0191336D01*
X0384731Y0191336D02*
X0385431Y0192037D01*
X0386832Y0192037D01*
X0387533Y0191336D01*
X0387533Y0188534D01*
X0386832Y0187833D01*
X0385431Y0187833D01*
X0384731Y0188534D01*
X0382929Y0187833D02*
X0380127Y0190635D01*
X0380127Y0191336D01*
X0378325Y0187833D02*
X0375523Y0187833D01*
X0368037Y0190318D02*
X0368037Y0193121D01*
X0368037Y0194922D02*
X0368037Y0197724D01*
X0368037Y0196323D02*
X0363833Y0196323D01*
X0363833Y0199526D02*
X0363833Y0201628D01*
X0364534Y0202328D01*
X0367336Y0202328D01*
X0368037Y0201628D01*
X0368037Y0199526D01*
X0363833Y0199526D01*
X0361197Y0200299D02*
X0355433Y0200299D01*
X0361197Y0200299D02*
X0361197Y0209299D01*
X0366906Y0209299D01*
X0366906Y0215299D01*
X0368037Y0205531D02*
X0368037Y0204130D01*
X0368037Y0204830D02*
X0363833Y0204830D01*
X0363833Y0204130D02*
X0363833Y0205531D01*
X0351496Y0213299D02*
X0346433Y0213299D01*
X0346433Y0232134D01*
X0353933Y0232134D01*
X0353933Y0219736D01*
X0351496Y0213299D01*
X0353933Y0232134D02*
X0358244Y0232134D01*
X0346433Y0232134D02*
X0306433Y0232134D01*
X0306433Y0213299D01*
X0301370Y0213299D01*
X0298933Y0219736D01*
X0298933Y0232134D01*
X0306433Y0232134D01*
X0298933Y0232134D02*
X0294622Y0232134D01*
X0268433Y0216933D02*
X0264933Y0211933D01*
X0266433Y0207933D01*
X0272933Y0206433D01*
X0272933Y0200433D01*
X0266933Y0199433D01*
X0265433Y0194933D01*
X0268433Y0189933D01*
X0264433Y0185933D01*
X0259433Y0188933D01*
X0256933Y0187933D01*
X0252933Y0197933D01*
X0253933Y0198433D01*
X0254883Y0199133D01*
X0255783Y0200183D01*
X0256533Y0201583D01*
X0256783Y0203283D01*
X0256683Y0205283D01*
X0256233Y0206483D01*
X0255183Y0207983D01*
X0254133Y0208883D01*
X0252883Y0209483D01*
X0251533Y0209833D01*
X0250283Y0209883D01*
X0248783Y0209583D01*
X0247433Y0208983D01*
X0246783Y0208533D01*
X0245583Y0207183D01*
X0244833Y0205783D01*
X0244633Y0204983D01*
X0244483Y0203933D01*
X0244533Y0202783D01*
X0244783Y0201833D01*
X0245333Y0200583D01*
X0246083Y0199533D01*
X0246883Y0198783D01*
X0247683Y0198283D01*
X0248433Y0197933D01*
X0243933Y0187933D01*
X0241933Y0188933D01*
X0236933Y0185933D01*
X0232933Y0189933D01*
X0235933Y0194933D01*
X0234433Y0199433D01*
X0228433Y0200433D01*
X0228433Y0206433D01*
X0234433Y0207933D01*
X0235933Y0212433D01*
X0232433Y0216933D01*
X0236933Y0221433D01*
X0241933Y0217933D01*
X0246433Y0219933D01*
X0247433Y0225933D01*
X0253933Y0225933D01*
X0254933Y0219933D01*
X0258933Y0217933D01*
X0263933Y0221433D01*
X0268433Y0216933D01*
X0268408Y0216897D02*
X0232461Y0216897D01*
X0233082Y0216098D02*
X0267849Y0216098D01*
X0267290Y0215300D02*
X0233704Y0215300D01*
X0234325Y0214501D02*
X0266731Y0214501D01*
X0266172Y0213703D02*
X0234946Y0213703D01*
X0235567Y0212904D02*
X0265613Y0212904D01*
X0265054Y0212106D02*
X0235824Y0212106D01*
X0235558Y0211307D02*
X0265168Y0211307D01*
X0265467Y0210509D02*
X0235292Y0210509D01*
X0235025Y0209710D02*
X0249418Y0209710D01*
X0247330Y0208912D02*
X0234759Y0208912D01*
X0234493Y0208113D02*
X0246410Y0208113D01*
X0245700Y0207314D02*
X0231959Y0207314D01*
X0228765Y0206516D02*
X0245226Y0206516D01*
X0244817Y0205717D02*
X0228433Y0205717D01*
X0228433Y0204919D02*
X0244624Y0204919D01*
X0244510Y0204120D02*
X0228433Y0204120D01*
X0228433Y0203322D02*
X0244510Y0203322D01*
X0244601Y0202523D02*
X0228433Y0202523D01*
X0228433Y0201725D02*
X0244831Y0201725D01*
X0245182Y0200926D02*
X0228433Y0200926D01*
X0230264Y0200128D02*
X0245658Y0200128D01*
X0246300Y0199329D02*
X0234468Y0199329D01*
X0234734Y0198531D02*
X0247287Y0198531D01*
X0248343Y0197732D02*
X0235000Y0197732D01*
X0235266Y0196934D02*
X0247983Y0196934D01*
X0247624Y0196135D02*
X0235532Y0196135D01*
X0235798Y0195337D02*
X0247265Y0195337D01*
X0246905Y0194538D02*
X0235696Y0194538D01*
X0235217Y0193740D02*
X0246546Y0193740D01*
X0246187Y0192941D02*
X0234738Y0192941D01*
X0234259Y0192143D02*
X0245827Y0192143D01*
X0245468Y0191344D02*
X0233780Y0191344D01*
X0233301Y0190546D02*
X0245109Y0190546D01*
X0244749Y0189747D02*
X0233119Y0189747D01*
X0233917Y0188949D02*
X0244390Y0188949D01*
X0244031Y0188150D02*
X0243499Y0188150D01*
X0240628Y0188150D02*
X0234716Y0188150D01*
X0235514Y0187352D02*
X0239297Y0187352D01*
X0237967Y0186553D02*
X0236313Y0186553D01*
X0254610Y0193740D02*
X0266149Y0193740D01*
X0265670Y0194538D02*
X0254291Y0194538D01*
X0253972Y0195337D02*
X0265568Y0195337D01*
X0265834Y0196135D02*
X0253652Y0196135D01*
X0253333Y0196934D02*
X0266100Y0196934D01*
X0266366Y0197732D02*
X0253013Y0197732D01*
X0254066Y0198531D02*
X0266632Y0198531D01*
X0266899Y0199329D02*
X0255051Y0199329D01*
X0255736Y0200128D02*
X0271102Y0200128D01*
X0272933Y0200926D02*
X0256181Y0200926D01*
X0256554Y0201725D02*
X0272933Y0201725D01*
X0272933Y0202523D02*
X0256671Y0202523D01*
X0256781Y0203322D02*
X0272933Y0203322D01*
X0272933Y0204120D02*
X0256741Y0204120D01*
X0256701Y0204919D02*
X0272933Y0204919D01*
X0272933Y0205717D02*
X0256520Y0205717D01*
X0256210Y0206516D02*
X0272574Y0206516D01*
X0269114Y0207314D02*
X0255651Y0207314D01*
X0255031Y0208113D02*
X0266366Y0208113D01*
X0266066Y0208912D02*
X0254074Y0208912D01*
X0252008Y0209710D02*
X0265767Y0209710D01*
X0267671Y0217695D02*
X0233195Y0217695D01*
X0233994Y0218494D02*
X0241132Y0218494D01*
X0239992Y0219292D02*
X0234792Y0219292D01*
X0235591Y0220091D02*
X0238851Y0220091D01*
X0237710Y0220889D02*
X0236389Y0220889D01*
X0243194Y0218494D02*
X0257812Y0218494D01*
X0256215Y0219292D02*
X0244991Y0219292D01*
X0246459Y0220091D02*
X0254907Y0220091D01*
X0254774Y0220889D02*
X0246592Y0220889D01*
X0246726Y0221688D02*
X0254641Y0221688D01*
X0254508Y0222486D02*
X0246859Y0222486D01*
X0246992Y0223285D02*
X0254374Y0223285D01*
X0254241Y0224083D02*
X0247125Y0224083D01*
X0247258Y0224882D02*
X0254108Y0224882D01*
X0253975Y0225680D02*
X0247391Y0225680D01*
X0259734Y0218494D02*
X0266872Y0218494D01*
X0266074Y0219292D02*
X0260875Y0219292D01*
X0262015Y0220091D02*
X0265275Y0220091D01*
X0264477Y0220889D02*
X0263156Y0220889D01*
X0285961Y0215299D02*
X0285961Y0209299D01*
X0291669Y0209299D01*
X0291669Y0200299D01*
X0297433Y0200299D01*
X0289037Y0200093D02*
X0285534Y0200093D01*
X0284833Y0199393D01*
X0284833Y0198692D01*
X0285534Y0197991D01*
X0289037Y0199393D02*
X0289037Y0200794D01*
X0289037Y0202595D02*
X0289037Y0205398D01*
X0288336Y0205398D01*
X0285534Y0202595D01*
X0284833Y0202595D01*
X0267107Y0192143D02*
X0255249Y0192143D01*
X0254930Y0192941D02*
X0266628Y0192941D01*
X0267586Y0191344D02*
X0255569Y0191344D01*
X0255888Y0190546D02*
X0268065Y0190546D01*
X0268247Y0189747D02*
X0256207Y0189747D01*
X0256527Y0188949D02*
X0267449Y0188949D01*
X0266650Y0188150D02*
X0260738Y0188150D01*
X0262069Y0187352D02*
X0265852Y0187352D01*
X0265053Y0186553D02*
X0263400Y0186553D01*
X0257476Y0188150D02*
X0256846Y0188150D01*
X0299333Y0184331D02*
X0299333Y0182229D01*
X0303537Y0182229D01*
X0303537Y0184331D01*
X0302836Y0185032D01*
X0300034Y0185032D01*
X0299333Y0184331D01*
X0299333Y0180428D02*
X0303537Y0180428D01*
X0303537Y0177625D02*
X0299333Y0177625D01*
X0300034Y0175824D02*
X0301435Y0175824D01*
X0301435Y0174422D01*
X0302836Y0173021D02*
X0300034Y0173021D01*
X0299333Y0173722D01*
X0299333Y0175123D01*
X0300034Y0175824D01*
X0302836Y0175824D02*
X0303537Y0175123D01*
X0303537Y0173722D01*
X0302836Y0173021D01*
X0303537Y0177625D02*
X0299333Y0180428D01*
X0309333Y0179026D02*
X0313537Y0179026D01*
X0313537Y0177625D02*
X0313537Y0180428D01*
X0312836Y0182229D02*
X0312135Y0182229D01*
X0311435Y0182930D01*
X0311435Y0184331D01*
X0310734Y0185032D01*
X0310034Y0185032D01*
X0309333Y0184331D01*
X0309333Y0182930D01*
X0310034Y0182229D01*
X0312836Y0182229D02*
X0313537Y0182930D01*
X0313537Y0184331D01*
X0312836Y0185032D01*
X0319333Y0183630D02*
X0320734Y0182229D01*
X0323537Y0182229D01*
X0323537Y0180428D02*
X0323537Y0177625D01*
X0321435Y0177625D01*
X0322135Y0179026D01*
X0322135Y0179727D01*
X0321435Y0180428D01*
X0320034Y0180428D01*
X0319333Y0179727D01*
X0319333Y0178326D01*
X0320034Y0177625D01*
X0321435Y0175824D02*
X0321435Y0173021D01*
X0322836Y0174422D02*
X0320034Y0174422D01*
X0313537Y0173722D02*
X0312836Y0173021D01*
X0310034Y0173021D01*
X0309333Y0173722D01*
X0309333Y0175123D01*
X0310034Y0175824D01*
X0312836Y0175824D02*
X0313537Y0175123D01*
X0313537Y0173722D01*
X0329333Y0174422D02*
X0333537Y0174422D01*
X0333537Y0173021D02*
X0333537Y0175824D01*
X0333537Y0177625D02*
X0329333Y0180428D01*
X0329333Y0182229D02*
X0329333Y0184331D01*
X0330034Y0185032D01*
X0332836Y0185032D01*
X0333537Y0184331D01*
X0333537Y0182229D01*
X0329333Y0182229D01*
X0333537Y0180428D02*
X0329333Y0177625D01*
X0339333Y0177625D02*
X0343537Y0180428D01*
X0343537Y0182229D02*
X0339333Y0182229D01*
X0339333Y0184331D01*
X0340034Y0185032D01*
X0342836Y0185032D01*
X0343537Y0184331D01*
X0343537Y0182229D01*
X0339333Y0180428D02*
X0343537Y0177625D01*
X0342836Y0175824D02*
X0341435Y0175824D01*
X0340734Y0175123D01*
X0340734Y0173021D01*
X0339333Y0173021D02*
X0343537Y0173021D01*
X0343537Y0175123D01*
X0342836Y0175824D01*
X0340734Y0174422D02*
X0339333Y0175824D01*
X0349333Y0175123D02*
X0350034Y0175824D01*
X0352836Y0175824D01*
X0353537Y0175123D01*
X0353537Y0173021D01*
X0349333Y0173021D01*
X0349333Y0175123D01*
X0353537Y0177625D02*
X0353537Y0180428D01*
X0353537Y0179026D02*
X0349333Y0179026D01*
X0349333Y0182229D02*
X0353537Y0182229D01*
X0353537Y0184331D01*
X0352836Y0185032D01*
X0351435Y0185032D01*
X0350734Y0184331D01*
X0350734Y0182229D01*
X0350734Y0183630D02*
X0349333Y0185032D01*
X0363833Y0190318D02*
X0368037Y0190318D01*
X0365935Y0190318D02*
X0365935Y0191719D01*
X0366431Y0173537D02*
X0367832Y0173537D01*
X0368533Y0172836D01*
X0368533Y0170034D01*
X0367832Y0169333D01*
X0366431Y0169333D01*
X0365731Y0170034D01*
X0363929Y0170034D02*
X0363229Y0169333D01*
X0361827Y0169333D01*
X0361127Y0170034D01*
X0361127Y0170734D01*
X0361827Y0171435D01*
X0363929Y0171435D01*
X0363929Y0170034D01*
X0363929Y0171435D02*
X0362528Y0172836D01*
X0361127Y0173537D01*
X0365731Y0172836D02*
X0366431Y0173537D01*
X0366431Y0163537D02*
X0367832Y0163537D01*
X0368533Y0162836D01*
X0368533Y0160034D01*
X0367832Y0159333D01*
X0366431Y0159333D01*
X0365731Y0160034D01*
X0363929Y0160034D02*
X0363229Y0159333D01*
X0361827Y0159333D01*
X0361127Y0160034D01*
X0361127Y0161435D01*
X0361827Y0162135D01*
X0362528Y0162135D01*
X0363929Y0161435D01*
X0363929Y0163537D01*
X0361127Y0163537D01*
X0365731Y0162836D02*
X0366431Y0163537D01*
X0403933Y0162933D02*
X0408933Y0162933D01*
X0406999Y0164833D02*
X0405932Y0164833D01*
X0405398Y0165367D01*
X0406999Y0164833D02*
X0407533Y0165367D01*
X0407533Y0167502D01*
X0406999Y0168036D01*
X0405932Y0168036D01*
X0405398Y0167502D01*
X0403933Y0169933D02*
X0408933Y0169933D01*
X0419127Y0168537D02*
X0419127Y0167836D01*
X0421929Y0165034D01*
X0421929Y0164333D01*
X0423731Y0165034D02*
X0424431Y0164333D01*
X0425832Y0164333D01*
X0426533Y0165034D01*
X0426533Y0167836D01*
X0425832Y0168537D01*
X0424431Y0168537D01*
X0423731Y0167836D01*
X0421929Y0168537D02*
X0419127Y0168537D01*
X0408933Y0182933D02*
X0403933Y0182933D01*
X0405398Y0184833D02*
X0406466Y0185901D01*
X0405932Y0185901D02*
X0407533Y0185901D01*
X0407533Y0184833D02*
X0407533Y0188036D01*
X0405932Y0188036D01*
X0405398Y0187502D01*
X0405398Y0186434D01*
X0405932Y0185901D01*
X0403933Y0189933D02*
X0408933Y0189933D01*
X0409731Y0192333D02*
X0411132Y0193734D01*
X0410431Y0193734D02*
X0412533Y0193734D01*
X0412533Y0192333D02*
X0412533Y0196537D01*
X0410431Y0196537D01*
X0409731Y0195836D01*
X0409731Y0194435D01*
X0410431Y0193734D01*
X0407929Y0192333D02*
X0405127Y0192333D01*
X0406528Y0192333D02*
X0406528Y0196537D01*
X0407929Y0195135D01*
X0403325Y0195836D02*
X0402625Y0196537D01*
X0401223Y0196537D01*
X0400523Y0195836D01*
X0400523Y0195135D01*
X0401223Y0194435D01*
X0400523Y0193734D01*
X0400523Y0193034D01*
X0401223Y0192333D01*
X0402625Y0192333D01*
X0403325Y0193034D01*
X0401924Y0194435D02*
X0401223Y0194435D01*
X0323537Y0185032D02*
X0320734Y0185032D01*
X0319333Y0183630D01*
X0398433Y0139358D02*
X0404433Y0139358D01*
X0403114Y0137720D02*
X0403114Y0131996D01*
X0399252Y0134858D01*
X0403114Y0137720D01*
X0399252Y0137814D02*
X0399252Y0134858D01*
X0399252Y0131902D01*
X0398433Y0130358D02*
X0404433Y0130358D01*
X0394433Y0124382D02*
X0389433Y0124382D01*
X0391432Y0122485D02*
X0390898Y0121951D01*
X0390898Y0120883D01*
X0391432Y0120349D01*
X0393033Y0120349D01*
X0393033Y0119282D02*
X0393033Y0122485D01*
X0391432Y0122485D01*
X0391966Y0120349D02*
X0390898Y0119282D01*
X0389433Y0117382D02*
X0394433Y0117382D01*
X0399523Y0110537D02*
X0400924Y0109836D01*
X0402325Y0108435D01*
X0400223Y0108435D01*
X0399523Y0107734D01*
X0399523Y0107034D01*
X0400223Y0106333D01*
X0401625Y0106333D01*
X0402325Y0107034D01*
X0402325Y0108435D01*
X0404127Y0106333D02*
X0406929Y0106333D01*
X0405528Y0106333D02*
X0405528Y0110537D01*
X0406929Y0109135D01*
X0408731Y0108435D02*
X0409431Y0107734D01*
X0411533Y0107734D01*
X0411533Y0106333D02*
X0411533Y0110537D01*
X0409431Y0110537D01*
X0408731Y0109836D01*
X0408731Y0108435D01*
X0410132Y0107734D02*
X0408731Y0106333D01*
X0421833Y0097039D02*
X0422534Y0097739D01*
X0423234Y0097739D01*
X0423935Y0097039D01*
X0423935Y0094937D01*
X0422534Y0094937D01*
X0421833Y0095638D01*
X0421833Y0097039D01*
X0418933Y0096433D02*
X0418933Y0091433D01*
X0417389Y0092752D02*
X0415433Y0092752D01*
X0417295Y0095114D01*
X0413571Y0095114D01*
X0415433Y0092752D01*
X0413477Y0092752D01*
X0411933Y0091433D02*
X0411933Y0096433D01*
X0408933Y0096433D02*
X0408933Y0091433D01*
X0407036Y0092833D02*
X0403833Y0092833D01*
X0404901Y0092833D02*
X0404901Y0094434D01*
X0405434Y0094968D01*
X0406502Y0094968D01*
X0407036Y0094434D01*
X0407036Y0092833D01*
X0404901Y0093901D02*
X0403833Y0094968D01*
X0401933Y0096433D02*
X0401933Y0091433D01*
X0398933Y0091433D02*
X0398933Y0096433D01*
X0397036Y0094434D02*
X0397036Y0093367D01*
X0396502Y0092833D01*
X0394367Y0092833D01*
X0393833Y0093367D01*
X0393833Y0094434D01*
X0394367Y0094968D01*
X0396502Y0094968D02*
X0397036Y0094434D01*
X0391933Y0096433D02*
X0391933Y0091433D01*
X0389037Y0091034D02*
X0389037Y0092435D01*
X0388336Y0093135D01*
X0388336Y0094937D02*
X0387635Y0094937D01*
X0386935Y0095638D01*
X0386935Y0097039D01*
X0386234Y0097739D01*
X0385534Y0097739D01*
X0384833Y0097039D01*
X0384833Y0095638D01*
X0385534Y0094937D01*
X0386234Y0094937D01*
X0386935Y0095638D01*
X0386935Y0097039D02*
X0387635Y0097739D01*
X0388336Y0097739D01*
X0389037Y0097039D01*
X0389037Y0095638D01*
X0388336Y0094937D01*
X0385534Y0093135D02*
X0384833Y0092435D01*
X0384833Y0091034D01*
X0385534Y0090333D01*
X0388336Y0090333D01*
X0389037Y0091034D01*
X0421833Y0090333D02*
X0421833Y0092435D01*
X0422534Y0093135D01*
X0425336Y0093135D01*
X0426037Y0092435D01*
X0426037Y0090333D01*
X0421833Y0090333D01*
X0423935Y0094937D02*
X0425336Y0096338D01*
X0426037Y0097739D01*
X0379588Y0115521D02*
X0379588Y0117623D01*
X0378887Y0118324D01*
X0377486Y0118324D01*
X0376785Y0117623D01*
X0376785Y0115521D01*
X0375384Y0115521D02*
X0379588Y0115521D01*
X0376785Y0116922D02*
X0375384Y0118324D01*
X0375384Y0120125D02*
X0375384Y0122928D01*
X0375384Y0121526D02*
X0379588Y0121526D01*
X0378187Y0120125D01*
X0377486Y0124729D02*
X0378187Y0126130D01*
X0378187Y0126831D01*
X0377486Y0127532D01*
X0376085Y0127532D01*
X0375384Y0126831D01*
X0375384Y0125430D01*
X0376085Y0124729D01*
X0377486Y0124729D02*
X0379588Y0124729D01*
X0379588Y0127532D01*
X0379929Y0132758D02*
X0379929Y0133459D01*
X0377127Y0136261D01*
X0377127Y0136962D01*
X0379929Y0136962D01*
X0381731Y0136261D02*
X0382431Y0136962D01*
X0384533Y0136962D01*
X0384533Y0132758D01*
X0382431Y0132758D01*
X0381731Y0133459D01*
X0381731Y0136261D01*
X0187433Y0203933D02*
X0187433Y0208933D01*
X0185536Y0206934D02*
X0185536Y0205867D01*
X0185002Y0205333D01*
X0182867Y0205333D01*
X0182333Y0205867D01*
X0182333Y0206934D01*
X0182867Y0207468D01*
X0185002Y0207468D02*
X0185536Y0206934D01*
X0180433Y0208933D02*
X0180433Y0203933D01*
X0177433Y0203933D02*
X0177433Y0208933D01*
X0175536Y0205333D02*
X0172333Y0205333D01*
X0172333Y0207468D01*
X0170433Y0208933D02*
X0170433Y0203933D01*
X0167433Y0203933D02*
X0167433Y0208933D01*
X0165536Y0206934D02*
X0165002Y0207468D01*
X0163934Y0207468D01*
X0163401Y0206934D01*
X0163401Y0205333D01*
X0163401Y0206401D02*
X0162333Y0207468D01*
X0162333Y0205333D02*
X0165536Y0205333D01*
X0165536Y0206934D01*
X0160433Y0208933D02*
X0160433Y0203933D01*
X0157433Y0203933D02*
X0157433Y0208933D01*
X0155536Y0206934D02*
X0155002Y0207468D01*
X0153934Y0207468D01*
X0153401Y0206934D01*
X0153401Y0205333D01*
X0153401Y0206401D02*
X0152333Y0207468D01*
X0152333Y0205333D02*
X0155536Y0205333D01*
X0155536Y0206934D01*
X0150433Y0208933D02*
X0150433Y0203933D01*
X0151833Y0218833D02*
X0156037Y0218833D01*
X0156037Y0220935D01*
X0155336Y0221635D01*
X0153935Y0221635D01*
X0153234Y0220935D01*
X0153234Y0218833D01*
X0153234Y0220234D02*
X0151833Y0221635D01*
X0151833Y0223437D02*
X0151833Y0226239D01*
X0151833Y0224838D02*
X0156037Y0224838D01*
X0154635Y0223437D01*
X0161833Y0223437D02*
X0161833Y0226239D01*
X0162534Y0228041D02*
X0165336Y0230843D01*
X0162534Y0230843D01*
X0161833Y0230143D01*
X0161833Y0228742D01*
X0162534Y0228041D01*
X0165336Y0228041D01*
X0166037Y0228742D01*
X0166037Y0230143D01*
X0165336Y0230843D01*
X0165336Y0226239D02*
X0166037Y0225539D01*
X0166037Y0224138D01*
X0165336Y0223437D01*
X0165336Y0221635D02*
X0163935Y0221635D01*
X0163234Y0220935D01*
X0163234Y0218833D01*
X0161833Y0218833D02*
X0166037Y0218833D01*
X0166037Y0220935D01*
X0165336Y0221635D01*
X0163234Y0220234D02*
X0161833Y0221635D01*
X0161833Y0223437D02*
X0164635Y0226239D01*
X0165336Y0226239D01*
X0171833Y0226239D02*
X0171833Y0223437D01*
X0174635Y0226239D01*
X0175336Y0226239D01*
X0176037Y0225539D01*
X0176037Y0224138D01*
X0175336Y0223437D01*
X0171833Y0221635D02*
X0171833Y0218833D01*
X0176037Y0218833D01*
X0181833Y0219534D02*
X0181833Y0220935D01*
X0182534Y0221635D01*
X0181833Y0223437D02*
X0181833Y0226239D01*
X0181833Y0224838D02*
X0186037Y0224838D01*
X0184635Y0223437D01*
X0185336Y0221635D02*
X0186037Y0220935D01*
X0186037Y0219534D01*
X0185336Y0218833D01*
X0182534Y0218833D01*
X0181833Y0219534D01*
X0181833Y0228041D02*
X0181833Y0230843D01*
X0181833Y0229442D02*
X0186037Y0229442D01*
X0184635Y0228041D01*
X0156037Y0228742D02*
X0155336Y0228041D01*
X0154635Y0228041D01*
X0153935Y0228742D01*
X0153935Y0230843D01*
X0152534Y0230843D02*
X0155336Y0230843D01*
X0156037Y0230143D01*
X0156037Y0228742D01*
X0152534Y0228041D02*
X0151833Y0228742D01*
X0151833Y0230143D01*
X0152534Y0230843D01*
X0058088Y0199836D02*
X0058088Y0199135D01*
X0057388Y0198435D01*
X0055286Y0198435D01*
X0055286Y0197034D02*
X0055286Y0199836D01*
X0055986Y0200537D01*
X0057388Y0200537D01*
X0058088Y0199836D01*
X0058088Y0197034D02*
X0057388Y0196333D01*
X0055986Y0196333D01*
X0055286Y0197034D01*
X0045088Y0196333D02*
X0042286Y0196333D01*
X0043687Y0196333D02*
X0043687Y0200537D01*
X0045088Y0199135D01*
D12*
X0418783Y0139034D02*
X0418783Y0137415D01*
X0422023Y0137415D01*
X0422023Y0139034D01*
X0421483Y0139574D01*
X0420943Y0139574D01*
X0420403Y0139034D01*
X0420403Y0137415D01*
X0419863Y0135949D02*
X0420403Y0135409D01*
X0420403Y0134329D01*
X0420943Y0133789D01*
X0421483Y0133789D01*
X0422023Y0134329D01*
X0422023Y0135409D01*
X0421483Y0135949D01*
X0419863Y0135949D02*
X0419323Y0135949D01*
X0418783Y0135409D01*
X0418783Y0134329D01*
X0419323Y0133789D01*
X0419323Y0132324D02*
X0422023Y0132324D01*
X0422023Y0130164D02*
X0419323Y0130164D01*
X0418783Y0130704D01*
X0418783Y0131784D01*
X0419323Y0132324D01*
X0424689Y0131848D02*
X0424689Y0130768D01*
X0424689Y0131308D02*
X0427928Y0131308D01*
X0427928Y0130768D02*
X0427928Y0131848D01*
X0427388Y0133185D02*
X0425229Y0133185D01*
X0424689Y0133725D01*
X0424689Y0134805D01*
X0425229Y0135345D01*
X0425769Y0136810D02*
X0425769Y0138430D01*
X0426308Y0138970D01*
X0427388Y0138970D01*
X0427928Y0138430D01*
X0427928Y0136810D01*
X0424689Y0136810D01*
X0425769Y0137890D02*
X0424689Y0138970D01*
X0425229Y0140435D02*
X0424689Y0140975D01*
X0424689Y0142055D01*
X0425229Y0142595D01*
X0427388Y0142595D01*
X0427928Y0142055D01*
X0427928Y0140975D01*
X0427388Y0140435D01*
X0425229Y0140435D01*
X0420403Y0139034D02*
X0419863Y0139574D01*
X0419323Y0139574D01*
X0418783Y0139034D01*
X0427388Y0135345D02*
X0427928Y0134805D01*
X0427928Y0133725D01*
X0427388Y0133185D01*
X0427928Y0129303D02*
X0424689Y0129303D01*
X0424689Y0127143D02*
X0427928Y0127143D01*
X0426848Y0128223D01*
X0427928Y0129303D01*
D13*
X0366433Y0127433D02*
X0356933Y0097933D01*
X0325933Y0097933D01*
X0316433Y0127433D01*
X0341433Y0145433D01*
X0366433Y0127433D01*
X0362433Y0125933D02*
X0354433Y0101433D01*
X0328433Y0101433D01*
X0320433Y0125933D01*
X0341433Y0140933D01*
X0362433Y0125933D01*
D14*
X0344433Y0123933D01*
X0341433Y0140933D01*
X0338433Y0123933D01*
X0320433Y0125933D01*
X0336433Y0117933D01*
X0328433Y0101433D01*
X0341433Y0113933D01*
X0354433Y0101433D01*
X0346433Y0117933D01*
X0362433Y0125933D01*
X0361049Y0125241D02*
X0356206Y0125241D01*
X0357906Y0123669D02*
X0324960Y0123669D01*
X0323389Y0124455D02*
X0333733Y0124455D01*
X0338525Y0124455D02*
X0344341Y0124455D01*
X0344202Y0125241D02*
X0338664Y0125241D01*
X0338803Y0126027D02*
X0344064Y0126027D01*
X0343925Y0126813D02*
X0338941Y0126813D01*
X0339080Y0127599D02*
X0343786Y0127599D01*
X0343647Y0128385D02*
X0339219Y0128385D01*
X0339357Y0129171D02*
X0343509Y0129171D01*
X0343370Y0129957D02*
X0339496Y0129957D01*
X0339635Y0130743D02*
X0343231Y0130743D01*
X0343093Y0131529D02*
X0339773Y0131529D01*
X0339912Y0132314D02*
X0342954Y0132314D01*
X0342815Y0133100D02*
X0340051Y0133100D01*
X0340190Y0133886D02*
X0342677Y0133886D01*
X0342538Y0134672D02*
X0340328Y0134672D01*
X0340467Y0135458D02*
X0342399Y0135458D01*
X0342261Y0136244D02*
X0340606Y0136244D01*
X0340744Y0137030D02*
X0342122Y0137030D01*
X0341983Y0137816D02*
X0340883Y0137816D01*
X0341022Y0138602D02*
X0341844Y0138602D01*
X0341706Y0139388D02*
X0341160Y0139388D01*
X0341299Y0140174D02*
X0341567Y0140174D01*
X0349133Y0124455D02*
X0359478Y0124455D01*
X0356334Y0122883D02*
X0326532Y0122883D01*
X0328104Y0122098D02*
X0354762Y0122098D01*
X0353190Y0121312D02*
X0329676Y0121312D01*
X0331248Y0120526D02*
X0351618Y0120526D01*
X0350047Y0119740D02*
X0332820Y0119740D01*
X0334391Y0118954D02*
X0348475Y0118954D01*
X0346903Y0118168D02*
X0335963Y0118168D01*
X0336166Y0117382D02*
X0346700Y0117382D01*
X0347081Y0116596D02*
X0335785Y0116596D01*
X0335404Y0115810D02*
X0347462Y0115810D01*
X0347843Y0115024D02*
X0335023Y0115024D01*
X0334642Y0114238D02*
X0348224Y0114238D01*
X0348605Y0113453D02*
X0341933Y0113453D01*
X0340933Y0113453D02*
X0334261Y0113453D01*
X0333880Y0112667D02*
X0340116Y0112667D01*
X0339299Y0111881D02*
X0333499Y0111881D01*
X0333118Y0111095D02*
X0338481Y0111095D01*
X0337664Y0110309D02*
X0332737Y0110309D01*
X0332355Y0109523D02*
X0336847Y0109523D01*
X0336029Y0108737D02*
X0331974Y0108737D01*
X0331593Y0107951D02*
X0335212Y0107951D01*
X0334395Y0107165D02*
X0331212Y0107165D01*
X0330831Y0106379D02*
X0333577Y0106379D01*
X0332760Y0105593D02*
X0330450Y0105593D01*
X0330069Y0104807D02*
X0331942Y0104807D01*
X0331125Y0104022D02*
X0329688Y0104022D01*
X0329307Y0103236D02*
X0330308Y0103236D01*
X0329490Y0102450D02*
X0328926Y0102450D01*
X0328673Y0101664D02*
X0328545Y0101664D01*
X0345202Y0110309D02*
X0350130Y0110309D01*
X0350511Y0109523D02*
X0346020Y0109523D01*
X0346837Y0108737D02*
X0350892Y0108737D01*
X0351273Y0107951D02*
X0347654Y0107951D01*
X0348472Y0107165D02*
X0351654Y0107165D01*
X0352035Y0106379D02*
X0349289Y0106379D01*
X0350106Y0105593D02*
X0352416Y0105593D01*
X0352797Y0104807D02*
X0350924Y0104807D01*
X0351741Y0104022D02*
X0353178Y0104022D01*
X0353559Y0103236D02*
X0352558Y0103236D01*
X0353376Y0102450D02*
X0353940Y0102450D01*
X0354193Y0101664D02*
X0354321Y0101664D01*
X0349749Y0111095D02*
X0344385Y0111095D01*
X0343568Y0111881D02*
X0349368Y0111881D01*
X0348987Y0112667D02*
X0342750Y0112667D01*
X0326660Y0125241D02*
X0321817Y0125241D01*
M02*
