G75*
%MOIN*%
%OFA0B0*%
%FSLAX25Y25*%
%IPPOS*%
%LPD*%
%AMOC8*
5,1,8,0,0,1.08239X$1,22.5*
%
%ADD10C,0.00800*%
%ADD11C,0.00900*%
%ADD12C,0.00787*%
%ADD13C,0.01000*%
%ADD14C,0.00700*%
%ADD15C,0.01181*%
%ADD16C,0.04348*%
%ADD17C,0.01575*%
%ADD18R,0.02000X0.09843*%
D10*
X0078332Y0047833D02*
X0079033Y0048534D01*
X0079033Y0049234D01*
X0078332Y0049935D01*
X0074829Y0049935D01*
X0074829Y0050635D02*
X0074829Y0049234D01*
X0076931Y0052437D02*
X0076931Y0055239D01*
X0074829Y0054539D02*
X0076931Y0052437D01*
X0079033Y0054539D02*
X0074829Y0054539D01*
X0081433Y0053933D02*
X0083933Y0056433D01*
X0088933Y0056433D01*
X0091433Y0053933D01*
X0093933Y0056433D01*
X0098933Y0056433D01*
X0101433Y0053933D01*
X0101433Y0048933D01*
X0098933Y0046433D01*
X0093933Y0046433D01*
X0091433Y0048933D01*
X0088933Y0046433D01*
X0083933Y0046433D01*
X0081433Y0048933D01*
X0081433Y0053933D01*
X0091433Y0053933D02*
X0091433Y0048933D01*
X0088933Y0061433D02*
X0083933Y0061433D01*
X0081433Y0063933D01*
X0081433Y0068933D01*
X0083933Y0071433D01*
X0088933Y0071433D01*
X0091433Y0068933D01*
X0093933Y0071433D01*
X0098933Y0071433D01*
X0101433Y0068933D01*
X0101433Y0063933D01*
X0098933Y0061433D01*
X0093933Y0061433D01*
X0091433Y0063933D01*
X0088933Y0061433D01*
X0091433Y0063933D02*
X0091433Y0068933D01*
X0098933Y0077933D02*
X0103933Y0077933D01*
X0102468Y0079833D02*
X0101401Y0080901D01*
X0101934Y0080901D02*
X0100333Y0080901D01*
X0100333Y0079833D02*
X0100333Y0083036D01*
X0101934Y0083036D01*
X0102468Y0082502D01*
X0102468Y0081434D01*
X0101934Y0080901D01*
X0103933Y0084933D02*
X0098933Y0084933D01*
X0098933Y0087933D02*
X0103933Y0087933D01*
X0102468Y0089833D02*
X0101401Y0090901D01*
X0101934Y0090901D02*
X0100333Y0090901D01*
X0100333Y0089833D02*
X0100333Y0093036D01*
X0101934Y0093036D01*
X0102468Y0092502D01*
X0102468Y0091434D01*
X0101934Y0090901D01*
X0103933Y0094933D02*
X0098933Y0094933D01*
X0098933Y0097933D02*
X0103933Y0097933D01*
X0102468Y0099833D02*
X0101401Y0100901D01*
X0101934Y0100901D02*
X0100333Y0100901D01*
X0100333Y0099833D02*
X0100333Y0103036D01*
X0101934Y0103036D01*
X0102468Y0102502D01*
X0102468Y0101434D01*
X0101934Y0100901D01*
X0103933Y0104933D02*
X0098933Y0104933D01*
X0089032Y0102836D02*
X0089032Y0100034D01*
X0088331Y0099333D01*
X0086930Y0099333D01*
X0086229Y0100034D01*
X0089032Y0102836D01*
X0088331Y0103537D01*
X0086930Y0103537D01*
X0086229Y0102836D01*
X0086229Y0100034D01*
X0084428Y0099333D02*
X0081625Y0099333D01*
X0083026Y0099333D02*
X0083026Y0103537D01*
X0081625Y0102135D01*
X0079824Y0101435D02*
X0079123Y0100734D01*
X0077021Y0100734D01*
X0077021Y0099333D02*
X0077021Y0103537D01*
X0079123Y0103537D01*
X0079824Y0102836D01*
X0079824Y0101435D01*
X0078422Y0100734D02*
X0079824Y0099333D01*
X0081625Y0093537D02*
X0083727Y0093537D01*
X0084428Y0092836D01*
X0084428Y0091435D01*
X0083727Y0090734D01*
X0081625Y0090734D01*
X0081625Y0089333D02*
X0081625Y0093537D01*
X0083026Y0090734D02*
X0084428Y0089333D01*
X0086229Y0090034D02*
X0086930Y0089333D01*
X0088331Y0089333D01*
X0089032Y0090034D01*
X0089032Y0092836D01*
X0088331Y0093537D01*
X0086930Y0093537D01*
X0086229Y0092836D01*
X0086229Y0092135D01*
X0086930Y0091435D01*
X0089032Y0091435D01*
X0087630Y0083537D02*
X0087630Y0079333D01*
X0086229Y0079333D02*
X0089032Y0079333D01*
X0086229Y0082135D02*
X0087630Y0083537D01*
X0083026Y0083537D02*
X0083026Y0079333D01*
X0081625Y0079333D02*
X0084428Y0079333D01*
X0081625Y0082135D02*
X0083026Y0083537D01*
X0079824Y0082836D02*
X0079824Y0081435D01*
X0079123Y0080734D01*
X0077021Y0080734D01*
X0077021Y0079333D02*
X0077021Y0083537D01*
X0079123Y0083537D01*
X0079824Y0082836D01*
X0078422Y0080734D02*
X0079824Y0079333D01*
X0078332Y0070239D02*
X0079033Y0069539D01*
X0079033Y0068138D01*
X0078332Y0067437D01*
X0076931Y0068838D02*
X0076931Y0069539D01*
X0077632Y0070239D01*
X0078332Y0070239D01*
X0076931Y0069539D02*
X0076231Y0070239D01*
X0075530Y0070239D01*
X0074829Y0069539D01*
X0074829Y0068138D01*
X0075530Y0067437D01*
X0074829Y0065635D02*
X0074829Y0064234D01*
X0074829Y0064935D02*
X0078332Y0064935D01*
X0079033Y0064234D01*
X0079033Y0063534D01*
X0078332Y0062833D01*
X0060239Y0070089D02*
X0060239Y0070789D01*
X0059539Y0071490D01*
X0057437Y0071490D01*
X0057437Y0070089D01*
X0058138Y0069388D01*
X0059539Y0069388D01*
X0060239Y0070089D01*
X0058838Y0072891D02*
X0057437Y0071490D01*
X0058838Y0072891D02*
X0060239Y0073592D01*
X0054234Y0073592D02*
X0052833Y0072191D01*
X0054234Y0073592D02*
X0054234Y0069388D01*
X0052833Y0069388D02*
X0055635Y0069388D01*
X0044635Y0070089D02*
X0043935Y0069388D01*
X0042534Y0069388D01*
X0041833Y0070089D01*
X0041833Y0070789D01*
X0042534Y0071490D01*
X0043935Y0071490D01*
X0044635Y0070789D01*
X0044635Y0070089D01*
X0043935Y0071490D02*
X0044635Y0072191D01*
X0044635Y0072891D01*
X0043935Y0073592D01*
X0042534Y0073592D01*
X0041833Y0072891D01*
X0041833Y0072191D01*
X0042534Y0071490D01*
X0063030Y0101333D02*
X0065832Y0101333D01*
X0066533Y0102034D01*
X0066533Y0103435D01*
X0065832Y0104135D01*
X0064431Y0104135D01*
X0064431Y0102734D01*
X0063030Y0101333D02*
X0062329Y0102034D01*
X0062329Y0103435D01*
X0063030Y0104135D01*
X0062329Y0105937D02*
X0062329Y0108039D01*
X0063030Y0108739D01*
X0064431Y0108739D01*
X0065132Y0108039D01*
X0065132Y0105937D01*
X0066533Y0105937D02*
X0062329Y0105937D01*
X0065132Y0107338D02*
X0066533Y0108739D01*
X0065832Y0110541D02*
X0066533Y0111242D01*
X0066533Y0112643D01*
X0065832Y0113343D01*
X0063030Y0113343D01*
X0062329Y0112643D01*
X0062329Y0111242D01*
X0063030Y0110541D01*
X0065832Y0110541D01*
X0071337Y0111452D02*
X0071337Y0112853D01*
X0071337Y0112152D02*
X0074840Y0112152D01*
X0075541Y0111452D01*
X0075541Y0110751D01*
X0074840Y0110050D01*
X0075541Y0114654D02*
X0075541Y0117457D01*
X0075541Y0116056D02*
X0071337Y0116056D01*
X0072739Y0114654D01*
X0066533Y0115845D02*
X0066533Y0117247D01*
X0065832Y0117947D01*
X0062329Y0117947D01*
X0062329Y0119749D02*
X0066533Y0122551D01*
X0062329Y0122551D01*
X0062329Y0124353D02*
X0062329Y0126454D01*
X0063030Y0127155D01*
X0065832Y0127155D01*
X0066533Y0126454D01*
X0066533Y0124353D01*
X0062329Y0124353D01*
X0068441Y0122358D02*
X0068441Y0127358D01*
X0070941Y0129858D01*
X0075941Y0129858D01*
X0078441Y0127358D01*
X0078441Y0122358D01*
X0075941Y0119858D01*
X0070941Y0119858D01*
X0068441Y0122358D01*
X0066533Y0119749D02*
X0062329Y0119749D01*
X0062329Y0115145D02*
X0065832Y0115145D01*
X0066533Y0115845D01*
X0070941Y0129858D02*
X0068441Y0132358D01*
X0068441Y0137358D01*
X0070941Y0139858D01*
X0068441Y0139858D01*
X0068441Y0149858D01*
X0078441Y0149858D01*
X0078441Y0139858D01*
X0075941Y0139858D01*
X0078441Y0137358D01*
X0078441Y0132358D01*
X0075941Y0129858D01*
X0066533Y0134261D02*
X0066533Y0135662D01*
X0065832Y0136363D01*
X0065132Y0136363D01*
X0064431Y0135662D01*
X0064431Y0134261D01*
X0063731Y0133561D01*
X0063030Y0133561D01*
X0062329Y0134261D01*
X0062329Y0135662D01*
X0063030Y0136363D01*
X0062329Y0138164D02*
X0066533Y0138164D01*
X0066533Y0140967D01*
X0066533Y0142768D02*
X0066533Y0145571D01*
X0066533Y0147372D02*
X0062329Y0147372D01*
X0062329Y0150175D01*
X0063030Y0151976D02*
X0065832Y0151976D01*
X0066533Y0152677D01*
X0066533Y0154078D01*
X0065832Y0154779D01*
X0063030Y0154779D02*
X0062329Y0154078D01*
X0062329Y0152677D01*
X0063030Y0151976D01*
X0064431Y0148774D02*
X0064431Y0147372D01*
X0066533Y0147372D02*
X0066533Y0150175D01*
X0071322Y0153108D02*
X0072022Y0152408D01*
X0074825Y0152408D01*
X0075525Y0153108D01*
X0075525Y0154510D01*
X0074825Y0155210D01*
X0073423Y0155210D01*
X0073423Y0153809D01*
X0072022Y0155210D02*
X0071322Y0154510D01*
X0071322Y0153108D01*
X0072022Y0157012D02*
X0072723Y0157012D01*
X0073423Y0157712D01*
X0073423Y0159114D01*
X0074124Y0159814D01*
X0074825Y0159814D01*
X0075525Y0159114D01*
X0075525Y0157712D01*
X0074825Y0157012D01*
X0072022Y0157012D02*
X0071322Y0157712D01*
X0071322Y0159114D01*
X0072022Y0159814D01*
X0066533Y0157981D02*
X0062329Y0157981D01*
X0062329Y0156580D02*
X0062329Y0159383D01*
X0063030Y0161184D02*
X0065832Y0161184D01*
X0066533Y0161885D01*
X0066533Y0163286D01*
X0065832Y0163986D01*
X0063030Y0163986D01*
X0062329Y0163286D01*
X0062329Y0161885D01*
X0063030Y0161184D01*
X0062329Y0165788D02*
X0062329Y0167890D01*
X0063030Y0168590D01*
X0064431Y0168590D01*
X0065132Y0167890D01*
X0065132Y0165788D01*
X0066533Y0165788D02*
X0062329Y0165788D01*
X0065132Y0167189D02*
X0066533Y0168590D01*
X0071444Y0172905D02*
X0072144Y0172204D01*
X0074947Y0172204D01*
X0075647Y0172905D01*
X0075647Y0174306D01*
X0074947Y0175006D01*
X0072144Y0175006D01*
X0071444Y0174306D01*
X0071444Y0172905D01*
X0071444Y0176808D02*
X0071444Y0178910D01*
X0072144Y0179610D01*
X0072845Y0179610D01*
X0073545Y0178910D01*
X0073545Y0176808D01*
X0071444Y0176808D02*
X0075647Y0176808D01*
X0075647Y0178910D01*
X0074947Y0179610D01*
X0074246Y0179610D01*
X0073545Y0178910D01*
X0071444Y0181412D02*
X0071444Y0183514D01*
X0072144Y0184214D01*
X0074947Y0184214D01*
X0075647Y0183514D01*
X0075647Y0181412D01*
X0071444Y0181412D01*
X0068147Y0183647D02*
X0068147Y0185048D01*
X0067447Y0185749D01*
X0068147Y0187550D02*
X0063944Y0187550D01*
X0068147Y0190353D01*
X0063944Y0190353D01*
X0065345Y0192154D02*
X0063944Y0193556D01*
X0068147Y0193556D01*
X0068147Y0194957D02*
X0068147Y0192154D01*
X0071444Y0192021D02*
X0071444Y0190620D01*
X0071444Y0191320D02*
X0075647Y0191320D01*
X0075647Y0190620D02*
X0075647Y0192021D01*
X0075647Y0193689D02*
X0075647Y0195090D01*
X0075647Y0194390D02*
X0071444Y0194390D01*
X0071444Y0195090D02*
X0071444Y0193689D01*
X0073545Y0188818D02*
X0073545Y0186016D01*
X0068147Y0183647D02*
X0067447Y0182946D01*
X0064644Y0182946D01*
X0063944Y0183647D01*
X0063944Y0185048D01*
X0064644Y0185749D01*
X0057380Y0196333D02*
X0055979Y0196333D01*
X0055278Y0197034D01*
X0055979Y0198435D02*
X0058080Y0198435D01*
X0058080Y0197034D02*
X0058080Y0199836D01*
X0057380Y0200537D01*
X0055979Y0200537D01*
X0055278Y0199836D01*
X0055278Y0199135D01*
X0055979Y0198435D01*
X0058080Y0197034D02*
X0057380Y0196333D01*
X0045080Y0196333D02*
X0042278Y0196333D01*
X0043679Y0196333D02*
X0043679Y0200537D01*
X0042278Y0199135D01*
X0077829Y0211093D02*
X0078530Y0210392D01*
X0079231Y0210392D01*
X0079931Y0211093D01*
X0079931Y0212494D01*
X0080632Y0213195D01*
X0081332Y0213195D01*
X0082033Y0212494D01*
X0082033Y0211093D01*
X0081332Y0210392D01*
X0077829Y0211093D02*
X0077829Y0212494D01*
X0078530Y0213195D01*
X0079231Y0214996D02*
X0077829Y0216397D01*
X0082033Y0216397D01*
X0082033Y0214996D02*
X0082033Y0217798D01*
X0085843Y0220992D02*
X0085843Y0205740D01*
X0137024Y0205740D01*
X0137024Y0220992D01*
X0123576Y0217037D02*
X0123576Y0212833D01*
X0123576Y0214935D02*
X0120774Y0214935D01*
X0120774Y0212833D02*
X0120774Y0217037D01*
X0118972Y0216336D02*
X0118271Y0217037D01*
X0116870Y0217037D01*
X0116170Y0216336D01*
X0116170Y0213534D01*
X0116870Y0212833D01*
X0118271Y0212833D01*
X0118972Y0213534D01*
X0114368Y0217037D02*
X0111566Y0217037D01*
X0112967Y0217037D02*
X0112967Y0212833D01*
X0109898Y0212833D02*
X0108496Y0212833D01*
X0109197Y0212833D02*
X0109197Y0217037D01*
X0108496Y0217037D02*
X0109898Y0217037D01*
X0106695Y0217037D02*
X0106695Y0212833D01*
X0105294Y0214234D01*
X0103893Y0212833D01*
X0103893Y0217037D01*
X0102091Y0216336D02*
X0101390Y0217037D01*
X0099989Y0217037D01*
X0099289Y0216336D01*
X0099289Y0215635D01*
X0099989Y0214935D01*
X0101390Y0214935D01*
X0102091Y0214234D01*
X0102091Y0213534D01*
X0101390Y0212833D01*
X0099989Y0212833D01*
X0099289Y0213534D01*
X0100823Y0220333D02*
X0100823Y0224537D01*
X0102925Y0224537D01*
X0103626Y0223836D01*
X0103626Y0222435D01*
X0102925Y0221734D01*
X0100823Y0221734D01*
X0105427Y0221034D02*
X0106128Y0220333D01*
X0107529Y0220333D01*
X0108230Y0221034D01*
X0108230Y0223836D01*
X0107529Y0224537D01*
X0106128Y0224537D01*
X0105427Y0223836D01*
X0105427Y0221034D01*
X0110031Y0220333D02*
X0111432Y0221734D01*
X0112833Y0220333D01*
X0112833Y0224537D01*
X0114635Y0224537D02*
X0114635Y0220333D01*
X0117437Y0220333D01*
X0119239Y0220333D02*
X0119239Y0224537D01*
X0121341Y0224537D01*
X0122041Y0223836D01*
X0122041Y0222435D01*
X0121341Y0221734D01*
X0119239Y0221734D01*
X0120640Y0221734D02*
X0122041Y0220333D01*
X0117437Y0224537D02*
X0114635Y0224537D01*
X0114635Y0222435D02*
X0116036Y0222435D01*
X0110031Y0224537D02*
X0110031Y0220333D01*
X0088933Y0232524D02*
X0133933Y0232524D01*
X0152185Y0223181D02*
X0164433Y0223181D01*
X0173433Y0223181D02*
X0185681Y0223181D01*
X0185681Y0196378D01*
X0178988Y0189685D01*
X0173433Y0189685D01*
X0164433Y0189685D02*
X0158878Y0189685D01*
X0152185Y0196378D01*
X0152185Y0223181D01*
X0176333Y0226534D02*
X0177034Y0225833D01*
X0178435Y0225833D01*
X0179135Y0226534D01*
X0180937Y0225833D02*
X0183739Y0228635D01*
X0183739Y0229336D01*
X0183039Y0230037D01*
X0181638Y0230037D01*
X0180937Y0229336D01*
X0179135Y0229336D02*
X0178435Y0230037D01*
X0177034Y0230037D01*
X0176333Y0229336D01*
X0176333Y0226534D01*
X0180937Y0225833D02*
X0183739Y0225833D01*
X0176783Y0217433D02*
X0176785Y0217545D01*
X0176791Y0217656D01*
X0176801Y0217768D01*
X0176815Y0217879D01*
X0176832Y0217989D01*
X0176854Y0218099D01*
X0176880Y0218208D01*
X0176909Y0218316D01*
X0176942Y0218422D01*
X0176979Y0218528D01*
X0177020Y0218632D01*
X0177065Y0218735D01*
X0177113Y0218836D01*
X0177164Y0218935D01*
X0177219Y0219032D01*
X0177278Y0219127D01*
X0177339Y0219221D01*
X0177404Y0219312D01*
X0177473Y0219400D01*
X0177544Y0219486D01*
X0177618Y0219570D01*
X0177696Y0219650D01*
X0177776Y0219728D01*
X0177859Y0219804D01*
X0177944Y0219876D01*
X0178032Y0219945D01*
X0178122Y0220011D01*
X0178215Y0220073D01*
X0178310Y0220133D01*
X0178407Y0220189D01*
X0178505Y0220241D01*
X0178606Y0220290D01*
X0178708Y0220335D01*
X0178812Y0220377D01*
X0178917Y0220415D01*
X0179024Y0220449D01*
X0179131Y0220479D01*
X0179240Y0220506D01*
X0179349Y0220528D01*
X0179460Y0220547D01*
X0179570Y0220562D01*
X0179682Y0220573D01*
X0179793Y0220580D01*
X0179905Y0220583D01*
X0180017Y0220582D01*
X0180129Y0220577D01*
X0180240Y0220568D01*
X0180351Y0220555D01*
X0180462Y0220538D01*
X0180572Y0220518D01*
X0180681Y0220493D01*
X0180789Y0220465D01*
X0180896Y0220432D01*
X0181002Y0220396D01*
X0181106Y0220356D01*
X0181209Y0220313D01*
X0181311Y0220266D01*
X0181410Y0220215D01*
X0181508Y0220161D01*
X0181604Y0220103D01*
X0181698Y0220042D01*
X0181789Y0219978D01*
X0181878Y0219911D01*
X0181965Y0219840D01*
X0182049Y0219766D01*
X0182131Y0219690D01*
X0182209Y0219610D01*
X0182285Y0219528D01*
X0182358Y0219443D01*
X0182428Y0219356D01*
X0182494Y0219266D01*
X0182558Y0219174D01*
X0182618Y0219080D01*
X0182675Y0218984D01*
X0182728Y0218885D01*
X0182778Y0218785D01*
X0182824Y0218684D01*
X0182867Y0218580D01*
X0182906Y0218475D01*
X0182941Y0218369D01*
X0182972Y0218262D01*
X0183000Y0218153D01*
X0183023Y0218044D01*
X0183043Y0217934D01*
X0183059Y0217823D01*
X0183071Y0217712D01*
X0183079Y0217601D01*
X0183083Y0217489D01*
X0183083Y0217377D01*
X0183079Y0217265D01*
X0183071Y0217154D01*
X0183059Y0217043D01*
X0183043Y0216932D01*
X0183023Y0216822D01*
X0183000Y0216713D01*
X0182972Y0216604D01*
X0182941Y0216497D01*
X0182906Y0216391D01*
X0182867Y0216286D01*
X0182824Y0216182D01*
X0182778Y0216081D01*
X0182728Y0215981D01*
X0182675Y0215882D01*
X0182618Y0215786D01*
X0182558Y0215692D01*
X0182494Y0215600D01*
X0182428Y0215510D01*
X0182358Y0215423D01*
X0182285Y0215338D01*
X0182209Y0215256D01*
X0182131Y0215176D01*
X0182049Y0215100D01*
X0181965Y0215026D01*
X0181878Y0214955D01*
X0181789Y0214888D01*
X0181698Y0214824D01*
X0181604Y0214763D01*
X0181508Y0214705D01*
X0181410Y0214651D01*
X0181311Y0214600D01*
X0181209Y0214553D01*
X0181106Y0214510D01*
X0181002Y0214470D01*
X0180896Y0214434D01*
X0180789Y0214401D01*
X0180681Y0214373D01*
X0180572Y0214348D01*
X0180462Y0214328D01*
X0180351Y0214311D01*
X0180240Y0214298D01*
X0180129Y0214289D01*
X0180017Y0214284D01*
X0179905Y0214283D01*
X0179793Y0214286D01*
X0179682Y0214293D01*
X0179570Y0214304D01*
X0179460Y0214319D01*
X0179349Y0214338D01*
X0179240Y0214360D01*
X0179131Y0214387D01*
X0179024Y0214417D01*
X0178917Y0214451D01*
X0178812Y0214489D01*
X0178708Y0214531D01*
X0178606Y0214576D01*
X0178505Y0214625D01*
X0178407Y0214677D01*
X0178310Y0214733D01*
X0178215Y0214793D01*
X0178122Y0214855D01*
X0178032Y0214921D01*
X0177944Y0214990D01*
X0177859Y0215062D01*
X0177776Y0215138D01*
X0177696Y0215216D01*
X0177618Y0215296D01*
X0177544Y0215380D01*
X0177473Y0215466D01*
X0177404Y0215554D01*
X0177339Y0215645D01*
X0177278Y0215739D01*
X0177219Y0215834D01*
X0177164Y0215931D01*
X0177113Y0216030D01*
X0177065Y0216131D01*
X0177020Y0216234D01*
X0176979Y0216338D01*
X0176942Y0216444D01*
X0176909Y0216550D01*
X0176880Y0216658D01*
X0176854Y0216767D01*
X0176832Y0216877D01*
X0176815Y0216987D01*
X0176801Y0217098D01*
X0176791Y0217210D01*
X0176785Y0217321D01*
X0176783Y0217433D01*
X0124239Y0201537D02*
X0124239Y0197333D01*
X0121437Y0201537D01*
X0121437Y0197333D01*
X0119635Y0198034D02*
X0119635Y0200836D01*
X0118935Y0201537D01*
X0117534Y0201537D01*
X0116833Y0200836D01*
X0116833Y0198034D01*
X0117534Y0197333D01*
X0118935Y0197333D01*
X0119635Y0198034D01*
X0108343Y0201537D02*
X0105541Y0201537D01*
X0105541Y0197333D01*
X0105541Y0199435D02*
X0106942Y0199435D01*
X0103739Y0201537D02*
X0100937Y0201537D01*
X0100937Y0197333D01*
X0099135Y0198034D02*
X0099135Y0200836D01*
X0098435Y0201537D01*
X0097034Y0201537D01*
X0096333Y0200836D01*
X0096333Y0198034D01*
X0097034Y0197333D01*
X0098435Y0197333D01*
X0099135Y0198034D01*
X0100937Y0199435D02*
X0102338Y0199435D01*
X0120333Y0178537D02*
X0122435Y0178537D01*
X0123135Y0177836D01*
X0123135Y0176435D01*
X0122435Y0175734D01*
X0120333Y0175734D01*
X0120333Y0174333D02*
X0120333Y0178537D01*
X0121734Y0175734D02*
X0123135Y0174333D01*
X0124937Y0174333D02*
X0127739Y0174333D01*
X0126338Y0174333D02*
X0126338Y0178537D01*
X0124937Y0177135D01*
X0129541Y0178537D02*
X0132343Y0178537D01*
X0132343Y0177836D01*
X0129541Y0175034D01*
X0129541Y0174333D01*
X0143683Y0166433D02*
X0148683Y0166433D01*
X0148685Y0166329D01*
X0148691Y0166225D01*
X0148701Y0166121D01*
X0148714Y0166018D01*
X0148732Y0165916D01*
X0148754Y0165814D01*
X0148779Y0165713D01*
X0148808Y0165613D01*
X0148841Y0165514D01*
X0148878Y0165417D01*
X0148918Y0165321D01*
X0148962Y0165226D01*
X0149009Y0165134D01*
X0149060Y0165043D01*
X0149114Y0164954D01*
X0149172Y0164868D01*
X0149233Y0164783D01*
X0149297Y0164701D01*
X0149364Y0164621D01*
X0149434Y0164544D01*
X0149507Y0164470D01*
X0149583Y0164399D01*
X0149661Y0164330D01*
X0149742Y0164265D01*
X0149825Y0164202D01*
X0149911Y0164143D01*
X0149998Y0164087D01*
X0150088Y0164034D01*
X0150180Y0163985D01*
X0150273Y0163939D01*
X0150369Y0163897D01*
X0150465Y0163859D01*
X0150563Y0163824D01*
X0150663Y0163793D01*
X0150763Y0163766D01*
X0150865Y0163742D01*
X0150967Y0163723D01*
X0151070Y0163707D01*
X0151173Y0163695D01*
X0151277Y0163687D01*
X0151381Y0163683D01*
X0151485Y0163683D01*
X0151589Y0163687D01*
X0151693Y0163695D01*
X0151796Y0163707D01*
X0151899Y0163723D01*
X0152001Y0163742D01*
X0152103Y0163766D01*
X0152203Y0163793D01*
X0152303Y0163824D01*
X0152401Y0163859D01*
X0152497Y0163897D01*
X0152593Y0163939D01*
X0152686Y0163985D01*
X0152778Y0164034D01*
X0152868Y0164087D01*
X0152955Y0164143D01*
X0153041Y0164202D01*
X0153124Y0164265D01*
X0153205Y0164330D01*
X0153283Y0164399D01*
X0153359Y0164470D01*
X0153432Y0164544D01*
X0153502Y0164621D01*
X0153569Y0164701D01*
X0153633Y0164783D01*
X0153694Y0164868D01*
X0153752Y0164954D01*
X0153806Y0165043D01*
X0153857Y0165134D01*
X0153904Y0165226D01*
X0153948Y0165321D01*
X0153988Y0165417D01*
X0154025Y0165514D01*
X0154058Y0165613D01*
X0154087Y0165713D01*
X0154112Y0165814D01*
X0154134Y0165916D01*
X0154152Y0166018D01*
X0154165Y0166121D01*
X0154175Y0166225D01*
X0154181Y0166329D01*
X0154183Y0166433D01*
X0159183Y0166433D01*
X0159183Y0131433D01*
X0143683Y0131433D01*
X0143683Y0166433D01*
X0147833Y0170034D02*
X0148534Y0169333D01*
X0149935Y0169333D01*
X0150635Y0170034D01*
X0150635Y0173537D01*
X0152437Y0173537D02*
X0152437Y0171435D01*
X0153838Y0172135D01*
X0154539Y0172135D01*
X0155239Y0171435D01*
X0155239Y0170034D01*
X0154539Y0169333D01*
X0153138Y0169333D01*
X0152437Y0170034D01*
X0152437Y0173537D02*
X0155239Y0173537D01*
X0147833Y0173537D02*
X0147833Y0170034D01*
X0145519Y0161933D02*
X0145521Y0162008D01*
X0145527Y0162082D01*
X0145537Y0162156D01*
X0145550Y0162229D01*
X0145568Y0162302D01*
X0145589Y0162373D01*
X0145614Y0162444D01*
X0145643Y0162513D01*
X0145676Y0162580D01*
X0145712Y0162645D01*
X0145751Y0162709D01*
X0145793Y0162770D01*
X0145839Y0162829D01*
X0145888Y0162886D01*
X0145940Y0162939D01*
X0145994Y0162990D01*
X0146051Y0163039D01*
X0146111Y0163083D01*
X0146173Y0163125D01*
X0146237Y0163164D01*
X0146303Y0163199D01*
X0146370Y0163230D01*
X0146440Y0163258D01*
X0146510Y0163282D01*
X0146582Y0163303D01*
X0146655Y0163319D01*
X0146728Y0163332D01*
X0146803Y0163341D01*
X0146877Y0163346D01*
X0146952Y0163347D01*
X0147026Y0163344D01*
X0147101Y0163337D01*
X0147174Y0163326D01*
X0147248Y0163312D01*
X0147320Y0163293D01*
X0147391Y0163271D01*
X0147461Y0163245D01*
X0147530Y0163215D01*
X0147596Y0163182D01*
X0147661Y0163145D01*
X0147724Y0163105D01*
X0147785Y0163061D01*
X0147843Y0163015D01*
X0147899Y0162965D01*
X0147952Y0162913D01*
X0148003Y0162858D01*
X0148050Y0162800D01*
X0148094Y0162740D01*
X0148135Y0162677D01*
X0148173Y0162613D01*
X0148207Y0162547D01*
X0148238Y0162478D01*
X0148265Y0162409D01*
X0148288Y0162338D01*
X0148307Y0162266D01*
X0148323Y0162193D01*
X0148335Y0162119D01*
X0148343Y0162045D01*
X0148347Y0161970D01*
X0148347Y0161896D01*
X0148343Y0161821D01*
X0148335Y0161747D01*
X0148323Y0161673D01*
X0148307Y0161600D01*
X0148288Y0161528D01*
X0148265Y0161457D01*
X0148238Y0161388D01*
X0148207Y0161319D01*
X0148173Y0161253D01*
X0148135Y0161189D01*
X0148094Y0161126D01*
X0148050Y0161066D01*
X0148003Y0161008D01*
X0147952Y0160953D01*
X0147899Y0160901D01*
X0147843Y0160851D01*
X0147785Y0160805D01*
X0147724Y0160761D01*
X0147661Y0160721D01*
X0147596Y0160684D01*
X0147530Y0160651D01*
X0147461Y0160621D01*
X0147391Y0160595D01*
X0147320Y0160573D01*
X0147248Y0160554D01*
X0147174Y0160540D01*
X0147101Y0160529D01*
X0147026Y0160522D01*
X0146952Y0160519D01*
X0146877Y0160520D01*
X0146803Y0160525D01*
X0146728Y0160534D01*
X0146655Y0160547D01*
X0146582Y0160563D01*
X0146510Y0160584D01*
X0146440Y0160608D01*
X0146370Y0160636D01*
X0146303Y0160667D01*
X0146237Y0160702D01*
X0146173Y0160741D01*
X0146111Y0160783D01*
X0146051Y0160827D01*
X0145994Y0160876D01*
X0145940Y0160927D01*
X0145888Y0160980D01*
X0145839Y0161037D01*
X0145793Y0161096D01*
X0145751Y0161157D01*
X0145712Y0161221D01*
X0145676Y0161286D01*
X0145643Y0161353D01*
X0145614Y0161422D01*
X0145589Y0161493D01*
X0145568Y0161564D01*
X0145550Y0161637D01*
X0145537Y0161710D01*
X0145527Y0161784D01*
X0145521Y0161858D01*
X0145519Y0161933D01*
X0129933Y0163933D02*
X0129933Y0158933D01*
X0128033Y0160333D02*
X0124830Y0160333D01*
X0124830Y0161934D01*
X0125364Y0162468D01*
X0126432Y0162468D01*
X0126966Y0161934D01*
X0126966Y0160333D01*
X0126966Y0161401D02*
X0128033Y0162468D01*
X0122933Y0163933D02*
X0122933Y0158933D01*
X0109183Y0166433D02*
X0104183Y0166433D01*
X0104181Y0166329D01*
X0104175Y0166225D01*
X0104165Y0166121D01*
X0104152Y0166018D01*
X0104134Y0165916D01*
X0104112Y0165814D01*
X0104087Y0165713D01*
X0104058Y0165613D01*
X0104025Y0165514D01*
X0103988Y0165417D01*
X0103948Y0165321D01*
X0103904Y0165226D01*
X0103857Y0165134D01*
X0103806Y0165043D01*
X0103752Y0164954D01*
X0103694Y0164868D01*
X0103633Y0164783D01*
X0103569Y0164701D01*
X0103502Y0164621D01*
X0103432Y0164544D01*
X0103359Y0164470D01*
X0103283Y0164399D01*
X0103205Y0164330D01*
X0103124Y0164265D01*
X0103041Y0164202D01*
X0102955Y0164143D01*
X0102868Y0164087D01*
X0102778Y0164034D01*
X0102686Y0163985D01*
X0102593Y0163939D01*
X0102497Y0163897D01*
X0102401Y0163859D01*
X0102303Y0163824D01*
X0102203Y0163793D01*
X0102103Y0163766D01*
X0102001Y0163742D01*
X0101899Y0163723D01*
X0101796Y0163707D01*
X0101693Y0163695D01*
X0101589Y0163687D01*
X0101485Y0163683D01*
X0101381Y0163683D01*
X0101277Y0163687D01*
X0101173Y0163695D01*
X0101070Y0163707D01*
X0100967Y0163723D01*
X0100865Y0163742D01*
X0100763Y0163766D01*
X0100663Y0163793D01*
X0100563Y0163824D01*
X0100465Y0163859D01*
X0100369Y0163897D01*
X0100273Y0163939D01*
X0100180Y0163985D01*
X0100088Y0164034D01*
X0099998Y0164087D01*
X0099911Y0164143D01*
X0099825Y0164202D01*
X0099742Y0164265D01*
X0099661Y0164330D01*
X0099583Y0164399D01*
X0099507Y0164470D01*
X0099434Y0164544D01*
X0099364Y0164621D01*
X0099297Y0164701D01*
X0099233Y0164783D01*
X0099172Y0164868D01*
X0099114Y0164954D01*
X0099060Y0165043D01*
X0099009Y0165134D01*
X0098962Y0165226D01*
X0098918Y0165321D01*
X0098878Y0165417D01*
X0098841Y0165514D01*
X0098808Y0165613D01*
X0098779Y0165713D01*
X0098754Y0165814D01*
X0098732Y0165916D01*
X0098714Y0166018D01*
X0098701Y0166121D01*
X0098691Y0166225D01*
X0098685Y0166329D01*
X0098683Y0166433D01*
X0093683Y0166433D01*
X0093683Y0131433D01*
X0109183Y0131433D01*
X0109183Y0166433D01*
X0104539Y0169333D02*
X0104539Y0173537D01*
X0102437Y0171435D01*
X0105239Y0171435D01*
X0100635Y0170034D02*
X0099935Y0169333D01*
X0098534Y0169333D01*
X0097833Y0170034D01*
X0097833Y0173537D01*
X0100635Y0173537D02*
X0100635Y0170034D01*
X0095519Y0161933D02*
X0095521Y0162008D01*
X0095527Y0162082D01*
X0095537Y0162156D01*
X0095550Y0162229D01*
X0095568Y0162302D01*
X0095589Y0162373D01*
X0095614Y0162444D01*
X0095643Y0162513D01*
X0095676Y0162580D01*
X0095712Y0162645D01*
X0095751Y0162709D01*
X0095793Y0162770D01*
X0095839Y0162829D01*
X0095888Y0162886D01*
X0095940Y0162939D01*
X0095994Y0162990D01*
X0096051Y0163039D01*
X0096111Y0163083D01*
X0096173Y0163125D01*
X0096237Y0163164D01*
X0096303Y0163199D01*
X0096370Y0163230D01*
X0096440Y0163258D01*
X0096510Y0163282D01*
X0096582Y0163303D01*
X0096655Y0163319D01*
X0096728Y0163332D01*
X0096803Y0163341D01*
X0096877Y0163346D01*
X0096952Y0163347D01*
X0097026Y0163344D01*
X0097101Y0163337D01*
X0097174Y0163326D01*
X0097248Y0163312D01*
X0097320Y0163293D01*
X0097391Y0163271D01*
X0097461Y0163245D01*
X0097530Y0163215D01*
X0097596Y0163182D01*
X0097661Y0163145D01*
X0097724Y0163105D01*
X0097785Y0163061D01*
X0097843Y0163015D01*
X0097899Y0162965D01*
X0097952Y0162913D01*
X0098003Y0162858D01*
X0098050Y0162800D01*
X0098094Y0162740D01*
X0098135Y0162677D01*
X0098173Y0162613D01*
X0098207Y0162547D01*
X0098238Y0162478D01*
X0098265Y0162409D01*
X0098288Y0162338D01*
X0098307Y0162266D01*
X0098323Y0162193D01*
X0098335Y0162119D01*
X0098343Y0162045D01*
X0098347Y0161970D01*
X0098347Y0161896D01*
X0098343Y0161821D01*
X0098335Y0161747D01*
X0098323Y0161673D01*
X0098307Y0161600D01*
X0098288Y0161528D01*
X0098265Y0161457D01*
X0098238Y0161388D01*
X0098207Y0161319D01*
X0098173Y0161253D01*
X0098135Y0161189D01*
X0098094Y0161126D01*
X0098050Y0161066D01*
X0098003Y0161008D01*
X0097952Y0160953D01*
X0097899Y0160901D01*
X0097843Y0160851D01*
X0097785Y0160805D01*
X0097724Y0160761D01*
X0097661Y0160721D01*
X0097596Y0160684D01*
X0097530Y0160651D01*
X0097461Y0160621D01*
X0097391Y0160595D01*
X0097320Y0160573D01*
X0097248Y0160554D01*
X0097174Y0160540D01*
X0097101Y0160529D01*
X0097026Y0160522D01*
X0096952Y0160519D01*
X0096877Y0160520D01*
X0096803Y0160525D01*
X0096728Y0160534D01*
X0096655Y0160547D01*
X0096582Y0160563D01*
X0096510Y0160584D01*
X0096440Y0160608D01*
X0096370Y0160636D01*
X0096303Y0160667D01*
X0096237Y0160702D01*
X0096173Y0160741D01*
X0096111Y0160783D01*
X0096051Y0160827D01*
X0095994Y0160876D01*
X0095940Y0160927D01*
X0095888Y0160980D01*
X0095839Y0161037D01*
X0095793Y0161096D01*
X0095751Y0161157D01*
X0095712Y0161221D01*
X0095676Y0161286D01*
X0095643Y0161353D01*
X0095614Y0161422D01*
X0095589Y0161493D01*
X0095568Y0161564D01*
X0095550Y0161637D01*
X0095537Y0161710D01*
X0095527Y0161784D01*
X0095521Y0161858D01*
X0095519Y0161933D01*
X0066533Y0142768D02*
X0062329Y0142768D01*
X0062329Y0140967D02*
X0062329Y0138164D01*
X0064431Y0138164D02*
X0064431Y0139566D01*
X0066533Y0134261D02*
X0065832Y0133561D01*
X0070941Y0139858D02*
X0075941Y0139858D01*
X0098933Y0127433D02*
X0103933Y0127433D01*
X0101934Y0125536D02*
X0100867Y0125536D01*
X0100333Y0125002D01*
X0100333Y0122867D01*
X0100867Y0122333D01*
X0101934Y0122333D01*
X0102468Y0122867D01*
X0102468Y0125002D02*
X0101934Y0125536D01*
X0103933Y0120433D02*
X0098933Y0120433D01*
X0097435Y0117537D02*
X0096034Y0117537D01*
X0095333Y0116836D01*
X0095333Y0114034D01*
X0096034Y0113333D01*
X0097435Y0113333D01*
X0098135Y0114034D01*
X0099937Y0113333D02*
X0102739Y0113333D01*
X0101338Y0113333D02*
X0101338Y0117537D01*
X0099937Y0116135D01*
X0098135Y0116836D02*
X0097435Y0117537D01*
X0104541Y0116836D02*
X0104541Y0116135D01*
X0105242Y0115435D01*
X0106643Y0115435D01*
X0107343Y0114734D01*
X0107343Y0114034D01*
X0106643Y0113333D01*
X0105242Y0113333D01*
X0104541Y0114034D01*
X0104541Y0114734D01*
X0105242Y0115435D01*
X0106643Y0115435D02*
X0107343Y0116135D01*
X0107343Y0116836D01*
X0106643Y0117537D01*
X0105242Y0117537D01*
X0104541Y0116836D01*
X0117833Y0107836D02*
X0118534Y0108537D01*
X0119935Y0108537D01*
X0120635Y0107836D01*
X0122437Y0106435D02*
X0124539Y0108537D01*
X0124539Y0104333D01*
X0125239Y0106435D02*
X0122437Y0106435D01*
X0120635Y0105034D02*
X0119935Y0104333D01*
X0118534Y0104333D01*
X0117833Y0105034D01*
X0117833Y0107836D01*
X0121034Y0119333D02*
X0122435Y0119333D01*
X0123135Y0120034D01*
X0124937Y0119333D02*
X0127739Y0119333D01*
X0126338Y0119333D02*
X0126338Y0123537D01*
X0124937Y0122135D01*
X0123135Y0122836D02*
X0122435Y0123537D01*
X0121034Y0123537D01*
X0120333Y0122836D01*
X0120333Y0120034D01*
X0121034Y0119333D01*
X0129541Y0119333D02*
X0129541Y0120034D01*
X0132343Y0122836D01*
X0132343Y0123537D01*
X0129541Y0123537D01*
X0142433Y0116433D02*
X0142433Y0046433D01*
X0160433Y0046433D01*
X0160433Y0116433D01*
X0155433Y0116433D01*
X0155431Y0116307D01*
X0155425Y0116182D01*
X0155415Y0116057D01*
X0155401Y0115932D01*
X0155384Y0115807D01*
X0155362Y0115683D01*
X0155337Y0115560D01*
X0155307Y0115438D01*
X0155274Y0115317D01*
X0155237Y0115197D01*
X0155197Y0115078D01*
X0155152Y0114961D01*
X0155104Y0114844D01*
X0155052Y0114730D01*
X0154997Y0114617D01*
X0154938Y0114506D01*
X0154876Y0114397D01*
X0154810Y0114290D01*
X0154741Y0114185D01*
X0154669Y0114082D01*
X0154594Y0113981D01*
X0154515Y0113883D01*
X0154433Y0113788D01*
X0154349Y0113695D01*
X0154261Y0113605D01*
X0154171Y0113517D01*
X0154078Y0113433D01*
X0153983Y0113351D01*
X0153885Y0113272D01*
X0153784Y0113197D01*
X0153681Y0113125D01*
X0153576Y0113056D01*
X0153469Y0112990D01*
X0153360Y0112928D01*
X0153249Y0112869D01*
X0153136Y0112814D01*
X0153022Y0112762D01*
X0152905Y0112714D01*
X0152788Y0112669D01*
X0152669Y0112629D01*
X0152549Y0112592D01*
X0152428Y0112559D01*
X0152306Y0112529D01*
X0152183Y0112504D01*
X0152059Y0112482D01*
X0151934Y0112465D01*
X0151809Y0112451D01*
X0151684Y0112441D01*
X0151559Y0112435D01*
X0151433Y0112433D01*
X0151307Y0112435D01*
X0151182Y0112441D01*
X0151057Y0112451D01*
X0150932Y0112465D01*
X0150807Y0112482D01*
X0150683Y0112504D01*
X0150560Y0112529D01*
X0150438Y0112559D01*
X0150317Y0112592D01*
X0150197Y0112629D01*
X0150078Y0112669D01*
X0149961Y0112714D01*
X0149844Y0112762D01*
X0149730Y0112814D01*
X0149617Y0112869D01*
X0149506Y0112928D01*
X0149397Y0112990D01*
X0149290Y0113056D01*
X0149185Y0113125D01*
X0149082Y0113197D01*
X0148981Y0113272D01*
X0148883Y0113351D01*
X0148788Y0113433D01*
X0148695Y0113517D01*
X0148605Y0113605D01*
X0148517Y0113695D01*
X0148433Y0113788D01*
X0148351Y0113883D01*
X0148272Y0113981D01*
X0148197Y0114082D01*
X0148125Y0114185D01*
X0148056Y0114290D01*
X0147990Y0114397D01*
X0147928Y0114506D01*
X0147869Y0114617D01*
X0147814Y0114730D01*
X0147762Y0114844D01*
X0147714Y0114961D01*
X0147669Y0115078D01*
X0147629Y0115197D01*
X0147592Y0115317D01*
X0147559Y0115438D01*
X0147529Y0115560D01*
X0147504Y0115683D01*
X0147482Y0115807D01*
X0147465Y0115932D01*
X0147451Y0116057D01*
X0147441Y0116182D01*
X0147435Y0116307D01*
X0147433Y0116433D01*
X0142433Y0116433D01*
X0148933Y0120433D02*
X0153933Y0120433D01*
X0151934Y0122333D02*
X0152468Y0122867D01*
X0151934Y0122333D02*
X0150867Y0122333D01*
X0150333Y0122867D01*
X0150333Y0125002D01*
X0150867Y0125536D01*
X0151934Y0125536D01*
X0152468Y0125002D01*
X0153933Y0127433D02*
X0148933Y0127433D01*
X0163829Y0127742D02*
X0163829Y0129143D01*
X0164530Y0129843D01*
X0167332Y0127041D01*
X0168033Y0127742D01*
X0168033Y0129143D01*
X0167332Y0129843D01*
X0164530Y0129843D01*
X0163829Y0127742D02*
X0164530Y0127041D01*
X0167332Y0127041D01*
X0168033Y0125239D02*
X0168033Y0122437D01*
X0165231Y0125239D01*
X0164530Y0125239D01*
X0163829Y0124539D01*
X0163829Y0123138D01*
X0164530Y0122437D01*
X0164530Y0120635D02*
X0163829Y0119935D01*
X0163829Y0118534D01*
X0164530Y0117833D01*
X0167332Y0117833D01*
X0168033Y0118534D01*
X0168033Y0119935D01*
X0167332Y0120635D01*
X0171329Y0110239D02*
X0172030Y0110239D01*
X0174832Y0107437D01*
X0175533Y0107437D01*
X0175533Y0105635D02*
X0174132Y0104234D01*
X0174132Y0104935D02*
X0174132Y0102833D01*
X0175533Y0102833D02*
X0171329Y0102833D01*
X0171329Y0104935D01*
X0172030Y0105635D01*
X0173431Y0105635D01*
X0174132Y0104935D01*
X0171329Y0107437D02*
X0171329Y0110239D01*
X0177933Y0108933D02*
X0177933Y0103933D01*
X0179830Y0105333D02*
X0179830Y0106934D01*
X0180364Y0107468D01*
X0181432Y0107468D01*
X0181966Y0106934D01*
X0181966Y0105333D01*
X0183033Y0105333D02*
X0179830Y0105333D01*
X0181966Y0106401D02*
X0183033Y0107468D01*
X0184933Y0108933D02*
X0184933Y0103933D01*
X0192933Y0108933D02*
X0192933Y0113933D01*
X0194830Y0111934D02*
X0194830Y0110867D01*
X0195364Y0110333D01*
X0197499Y0110333D01*
X0198033Y0110867D01*
X0198033Y0111934D01*
X0197499Y0112468D01*
X0195364Y0112468D02*
X0194830Y0111934D01*
X0199933Y0113933D02*
X0199933Y0108933D01*
X0199541Y0123833D02*
X0202343Y0126635D01*
X0202343Y0127336D01*
X0201643Y0128037D01*
X0200242Y0128037D01*
X0199541Y0127336D01*
X0196338Y0128037D02*
X0196338Y0123833D01*
X0194937Y0123833D02*
X0197739Y0123833D01*
X0199541Y0123833D02*
X0202343Y0123833D01*
X0196338Y0128037D02*
X0194937Y0126635D01*
X0193135Y0127336D02*
X0192435Y0128037D01*
X0191034Y0128037D01*
X0190333Y0127336D01*
X0190333Y0124534D01*
X0191034Y0123833D01*
X0192435Y0123833D01*
X0193135Y0124534D01*
X0186832Y0130333D02*
X0184030Y0130333D01*
X0183329Y0131034D01*
X0183329Y0132435D01*
X0184030Y0133135D01*
X0184731Y0134937D02*
X0183329Y0136338D01*
X0187533Y0136338D01*
X0187533Y0134937D02*
X0187533Y0137739D01*
X0186832Y0139541D02*
X0187533Y0140242D01*
X0187533Y0141643D01*
X0186832Y0142343D01*
X0184030Y0142343D01*
X0183329Y0141643D01*
X0183329Y0140242D01*
X0184030Y0139541D01*
X0184731Y0139541D01*
X0185431Y0140242D01*
X0185431Y0142343D01*
X0179933Y0138933D02*
X0179933Y0133933D01*
X0178033Y0135867D02*
X0178033Y0136934D01*
X0177499Y0137468D01*
X0178033Y0135867D02*
X0177499Y0135333D01*
X0175364Y0135333D01*
X0174830Y0135867D01*
X0174830Y0136934D01*
X0175364Y0137468D01*
X0172933Y0138933D02*
X0172933Y0133933D01*
X0186832Y0133135D02*
X0187533Y0132435D01*
X0187533Y0131034D01*
X0186832Y0130333D01*
X0207833Y0140833D02*
X0211833Y0140833D01*
X0209833Y0137333D01*
X0207833Y0140833D01*
X0208172Y0140240D02*
X0211494Y0140240D01*
X0211038Y0139441D02*
X0208629Y0139441D01*
X0209085Y0138643D02*
X0210581Y0138643D01*
X0210125Y0137844D02*
X0209541Y0137844D01*
X0213933Y0136433D02*
X0216433Y0138933D01*
X0267433Y0138933D01*
X0268933Y0137433D01*
X0268933Y0085433D01*
X0267433Y0083933D01*
X0215433Y0083933D01*
X0213933Y0085433D01*
X0213933Y0136433D01*
X0217519Y0133933D02*
X0217521Y0134008D01*
X0217527Y0134082D01*
X0217537Y0134156D01*
X0217550Y0134229D01*
X0217568Y0134302D01*
X0217589Y0134373D01*
X0217614Y0134444D01*
X0217643Y0134513D01*
X0217676Y0134580D01*
X0217712Y0134645D01*
X0217751Y0134709D01*
X0217793Y0134770D01*
X0217839Y0134829D01*
X0217888Y0134886D01*
X0217940Y0134939D01*
X0217994Y0134990D01*
X0218051Y0135039D01*
X0218111Y0135083D01*
X0218173Y0135125D01*
X0218237Y0135164D01*
X0218303Y0135199D01*
X0218370Y0135230D01*
X0218440Y0135258D01*
X0218510Y0135282D01*
X0218582Y0135303D01*
X0218655Y0135319D01*
X0218728Y0135332D01*
X0218803Y0135341D01*
X0218877Y0135346D01*
X0218952Y0135347D01*
X0219026Y0135344D01*
X0219101Y0135337D01*
X0219174Y0135326D01*
X0219248Y0135312D01*
X0219320Y0135293D01*
X0219391Y0135271D01*
X0219461Y0135245D01*
X0219530Y0135215D01*
X0219596Y0135182D01*
X0219661Y0135145D01*
X0219724Y0135105D01*
X0219785Y0135061D01*
X0219843Y0135015D01*
X0219899Y0134965D01*
X0219952Y0134913D01*
X0220003Y0134858D01*
X0220050Y0134800D01*
X0220094Y0134740D01*
X0220135Y0134677D01*
X0220173Y0134613D01*
X0220207Y0134547D01*
X0220238Y0134478D01*
X0220265Y0134409D01*
X0220288Y0134338D01*
X0220307Y0134266D01*
X0220323Y0134193D01*
X0220335Y0134119D01*
X0220343Y0134045D01*
X0220347Y0133970D01*
X0220347Y0133896D01*
X0220343Y0133821D01*
X0220335Y0133747D01*
X0220323Y0133673D01*
X0220307Y0133600D01*
X0220288Y0133528D01*
X0220265Y0133457D01*
X0220238Y0133388D01*
X0220207Y0133319D01*
X0220173Y0133253D01*
X0220135Y0133189D01*
X0220094Y0133126D01*
X0220050Y0133066D01*
X0220003Y0133008D01*
X0219952Y0132953D01*
X0219899Y0132901D01*
X0219843Y0132851D01*
X0219785Y0132805D01*
X0219724Y0132761D01*
X0219661Y0132721D01*
X0219596Y0132684D01*
X0219530Y0132651D01*
X0219461Y0132621D01*
X0219391Y0132595D01*
X0219320Y0132573D01*
X0219248Y0132554D01*
X0219174Y0132540D01*
X0219101Y0132529D01*
X0219026Y0132522D01*
X0218952Y0132519D01*
X0218877Y0132520D01*
X0218803Y0132525D01*
X0218728Y0132534D01*
X0218655Y0132547D01*
X0218582Y0132563D01*
X0218510Y0132584D01*
X0218440Y0132608D01*
X0218370Y0132636D01*
X0218303Y0132667D01*
X0218237Y0132702D01*
X0218173Y0132741D01*
X0218111Y0132783D01*
X0218051Y0132827D01*
X0217994Y0132876D01*
X0217940Y0132927D01*
X0217888Y0132980D01*
X0217839Y0133037D01*
X0217793Y0133096D01*
X0217751Y0133157D01*
X0217712Y0133221D01*
X0217676Y0133286D01*
X0217643Y0133353D01*
X0217614Y0133422D01*
X0217589Y0133493D01*
X0217568Y0133564D01*
X0217550Y0133637D01*
X0217537Y0133710D01*
X0217527Y0133784D01*
X0217521Y0133858D01*
X0217519Y0133933D01*
X0213739Y0142833D02*
X0210937Y0142833D01*
X0212338Y0142833D02*
X0212338Y0147037D01*
X0210937Y0145635D01*
X0209135Y0147037D02*
X0209135Y0143534D01*
X0208435Y0142833D01*
X0207034Y0142833D01*
X0206333Y0143534D01*
X0206333Y0147037D01*
X0199933Y0148933D02*
X0199933Y0143933D01*
X0198033Y0145867D02*
X0197499Y0145333D01*
X0195364Y0145333D01*
X0194830Y0145867D01*
X0194830Y0146934D01*
X0195364Y0147468D01*
X0197499Y0147468D02*
X0198033Y0146934D01*
X0198033Y0145867D01*
X0192933Y0143933D02*
X0192933Y0148933D01*
X0187533Y0155333D02*
X0183329Y0155333D01*
X0183329Y0157435D01*
X0184030Y0158135D01*
X0185431Y0158135D01*
X0186132Y0157435D01*
X0186132Y0155333D01*
X0186132Y0156734D02*
X0187533Y0158135D01*
X0187533Y0159937D02*
X0187533Y0162739D01*
X0187533Y0161338D02*
X0183329Y0161338D01*
X0184731Y0159937D01*
X0179933Y0158933D02*
X0179933Y0163933D01*
X0178033Y0162468D02*
X0176966Y0161401D01*
X0176966Y0161934D02*
X0176966Y0160333D01*
X0178033Y0160333D02*
X0174830Y0160333D01*
X0174830Y0161934D01*
X0175364Y0162468D01*
X0176432Y0162468D01*
X0176966Y0161934D01*
X0172933Y0163933D02*
X0172933Y0158933D01*
X0183329Y0165242D02*
X0183329Y0166643D01*
X0184030Y0167343D01*
X0184731Y0167343D01*
X0185431Y0166643D01*
X0185431Y0165242D01*
X0184731Y0164541D01*
X0184030Y0164541D01*
X0183329Y0165242D01*
X0185431Y0165242D02*
X0186132Y0164541D01*
X0186832Y0164541D01*
X0187533Y0165242D01*
X0187533Y0166643D01*
X0186832Y0167343D01*
X0186132Y0167343D01*
X0185431Y0166643D01*
X0194329Y0164838D02*
X0195731Y0163437D01*
X0195030Y0161635D02*
X0194329Y0160935D01*
X0194329Y0159534D01*
X0195030Y0158833D01*
X0197832Y0158833D01*
X0198533Y0159534D01*
X0198533Y0160935D01*
X0197832Y0161635D01*
X0198533Y0163437D02*
X0198533Y0166239D01*
X0198533Y0164838D02*
X0194329Y0164838D01*
X0196431Y0168041D02*
X0195030Y0169442D01*
X0194329Y0170843D01*
X0196431Y0170143D02*
X0196431Y0168041D01*
X0197832Y0168041D01*
X0198533Y0168742D01*
X0198533Y0170143D01*
X0197832Y0170843D01*
X0197132Y0170843D01*
X0196431Y0170143D01*
X0231929Y0185961D02*
X0244937Y0185961D01*
X0244937Y0226906D01*
X0231929Y0226906D01*
X0252833Y0224833D02*
X0254234Y0224833D01*
X0253534Y0224833D02*
X0253534Y0229037D01*
X0254234Y0229037D02*
X0252833Y0229037D01*
X0255902Y0228336D02*
X0255902Y0225534D01*
X0256603Y0224833D01*
X0258004Y0224833D01*
X0258705Y0225534D01*
X0260506Y0224833D02*
X0263309Y0224833D01*
X0261907Y0224833D02*
X0261907Y0229037D01*
X0260506Y0227635D01*
X0258705Y0228336D02*
X0258004Y0229037D01*
X0256603Y0229037D01*
X0255902Y0228336D01*
X0278433Y0230183D02*
X0278433Y0221933D01*
X0278433Y0230183D02*
X0325433Y0230183D01*
X0325433Y0221933D01*
X0328329Y0223333D02*
X0332533Y0223333D01*
X0332533Y0226135D01*
X0332533Y0227937D02*
X0332533Y0230739D01*
X0332533Y0229338D02*
X0328329Y0229338D01*
X0329731Y0227937D01*
X0337185Y0223181D02*
X0349433Y0223181D01*
X0358433Y0223181D02*
X0370681Y0223181D01*
X0370681Y0196378D01*
X0363988Y0189685D01*
X0358433Y0189685D01*
X0349433Y0189685D02*
X0343878Y0189685D01*
X0337185Y0196378D01*
X0337185Y0223181D01*
X0361333Y0226534D02*
X0362034Y0225833D01*
X0363435Y0225833D01*
X0364135Y0226534D01*
X0365937Y0226534D02*
X0366638Y0225833D01*
X0368039Y0225833D01*
X0368739Y0226534D01*
X0368739Y0227234D01*
X0368039Y0227935D01*
X0367338Y0227935D01*
X0368039Y0227935D02*
X0368739Y0228635D01*
X0368739Y0229336D01*
X0368039Y0230037D01*
X0366638Y0230037D01*
X0365937Y0229336D01*
X0364135Y0229336D02*
X0363435Y0230037D01*
X0362034Y0230037D01*
X0361333Y0229336D01*
X0361333Y0226534D01*
X0361783Y0217433D02*
X0361785Y0217545D01*
X0361791Y0217656D01*
X0361801Y0217768D01*
X0361815Y0217879D01*
X0361832Y0217989D01*
X0361854Y0218099D01*
X0361880Y0218208D01*
X0361909Y0218316D01*
X0361942Y0218422D01*
X0361979Y0218528D01*
X0362020Y0218632D01*
X0362065Y0218735D01*
X0362113Y0218836D01*
X0362164Y0218935D01*
X0362219Y0219032D01*
X0362278Y0219127D01*
X0362339Y0219221D01*
X0362404Y0219312D01*
X0362473Y0219400D01*
X0362544Y0219486D01*
X0362618Y0219570D01*
X0362696Y0219650D01*
X0362776Y0219728D01*
X0362859Y0219804D01*
X0362944Y0219876D01*
X0363032Y0219945D01*
X0363122Y0220011D01*
X0363215Y0220073D01*
X0363310Y0220133D01*
X0363407Y0220189D01*
X0363505Y0220241D01*
X0363606Y0220290D01*
X0363708Y0220335D01*
X0363812Y0220377D01*
X0363917Y0220415D01*
X0364024Y0220449D01*
X0364131Y0220479D01*
X0364240Y0220506D01*
X0364349Y0220528D01*
X0364460Y0220547D01*
X0364570Y0220562D01*
X0364682Y0220573D01*
X0364793Y0220580D01*
X0364905Y0220583D01*
X0365017Y0220582D01*
X0365129Y0220577D01*
X0365240Y0220568D01*
X0365351Y0220555D01*
X0365462Y0220538D01*
X0365572Y0220518D01*
X0365681Y0220493D01*
X0365789Y0220465D01*
X0365896Y0220432D01*
X0366002Y0220396D01*
X0366106Y0220356D01*
X0366209Y0220313D01*
X0366311Y0220266D01*
X0366410Y0220215D01*
X0366508Y0220161D01*
X0366604Y0220103D01*
X0366698Y0220042D01*
X0366789Y0219978D01*
X0366878Y0219911D01*
X0366965Y0219840D01*
X0367049Y0219766D01*
X0367131Y0219690D01*
X0367209Y0219610D01*
X0367285Y0219528D01*
X0367358Y0219443D01*
X0367428Y0219356D01*
X0367494Y0219266D01*
X0367558Y0219174D01*
X0367618Y0219080D01*
X0367675Y0218984D01*
X0367728Y0218885D01*
X0367778Y0218785D01*
X0367824Y0218684D01*
X0367867Y0218580D01*
X0367906Y0218475D01*
X0367941Y0218369D01*
X0367972Y0218262D01*
X0368000Y0218153D01*
X0368023Y0218044D01*
X0368043Y0217934D01*
X0368059Y0217823D01*
X0368071Y0217712D01*
X0368079Y0217601D01*
X0368083Y0217489D01*
X0368083Y0217377D01*
X0368079Y0217265D01*
X0368071Y0217154D01*
X0368059Y0217043D01*
X0368043Y0216932D01*
X0368023Y0216822D01*
X0368000Y0216713D01*
X0367972Y0216604D01*
X0367941Y0216497D01*
X0367906Y0216391D01*
X0367867Y0216286D01*
X0367824Y0216182D01*
X0367778Y0216081D01*
X0367728Y0215981D01*
X0367675Y0215882D01*
X0367618Y0215786D01*
X0367558Y0215692D01*
X0367494Y0215600D01*
X0367428Y0215510D01*
X0367358Y0215423D01*
X0367285Y0215338D01*
X0367209Y0215256D01*
X0367131Y0215176D01*
X0367049Y0215100D01*
X0366965Y0215026D01*
X0366878Y0214955D01*
X0366789Y0214888D01*
X0366698Y0214824D01*
X0366604Y0214763D01*
X0366508Y0214705D01*
X0366410Y0214651D01*
X0366311Y0214600D01*
X0366209Y0214553D01*
X0366106Y0214510D01*
X0366002Y0214470D01*
X0365896Y0214434D01*
X0365789Y0214401D01*
X0365681Y0214373D01*
X0365572Y0214348D01*
X0365462Y0214328D01*
X0365351Y0214311D01*
X0365240Y0214298D01*
X0365129Y0214289D01*
X0365017Y0214284D01*
X0364905Y0214283D01*
X0364793Y0214286D01*
X0364682Y0214293D01*
X0364570Y0214304D01*
X0364460Y0214319D01*
X0364349Y0214338D01*
X0364240Y0214360D01*
X0364131Y0214387D01*
X0364024Y0214417D01*
X0363917Y0214451D01*
X0363812Y0214489D01*
X0363708Y0214531D01*
X0363606Y0214576D01*
X0363505Y0214625D01*
X0363407Y0214677D01*
X0363310Y0214733D01*
X0363215Y0214793D01*
X0363122Y0214855D01*
X0363032Y0214921D01*
X0362944Y0214990D01*
X0362859Y0215062D01*
X0362776Y0215138D01*
X0362696Y0215216D01*
X0362618Y0215296D01*
X0362544Y0215380D01*
X0362473Y0215466D01*
X0362404Y0215554D01*
X0362339Y0215645D01*
X0362278Y0215739D01*
X0362219Y0215834D01*
X0362164Y0215931D01*
X0362113Y0216030D01*
X0362065Y0216131D01*
X0362020Y0216234D01*
X0361979Y0216338D01*
X0361942Y0216444D01*
X0361909Y0216550D01*
X0361880Y0216658D01*
X0361854Y0216767D01*
X0361832Y0216877D01*
X0361815Y0216987D01*
X0361801Y0217098D01*
X0361791Y0217210D01*
X0361785Y0217321D01*
X0361783Y0217433D01*
X0376433Y0217433D02*
X0378933Y0214933D01*
X0383933Y0214933D01*
X0386433Y0217433D01*
X0386433Y0222433D01*
X0383933Y0224933D01*
X0378933Y0224933D01*
X0376433Y0222433D01*
X0376433Y0217433D01*
X0378933Y0214933D02*
X0376433Y0212433D01*
X0376433Y0207433D01*
X0378933Y0204933D01*
X0376433Y0204933D01*
X0376433Y0194933D01*
X0386433Y0194933D01*
X0386433Y0204933D01*
X0383933Y0204933D01*
X0386433Y0207433D01*
X0386433Y0212433D01*
X0383933Y0214933D01*
X0383933Y0204933D02*
X0378933Y0204933D01*
X0379234Y0192537D02*
X0380635Y0192537D01*
X0379935Y0192537D02*
X0379935Y0189034D01*
X0379234Y0188333D01*
X0378534Y0188333D01*
X0377833Y0189034D01*
X0382437Y0189034D02*
X0382437Y0189734D01*
X0383138Y0190435D01*
X0384539Y0190435D01*
X0385239Y0189734D01*
X0385239Y0189034D01*
X0384539Y0188333D01*
X0383138Y0188333D01*
X0382437Y0189034D01*
X0383138Y0190435D02*
X0382437Y0191135D01*
X0382437Y0191836D01*
X0383138Y0192537D01*
X0384539Y0192537D01*
X0385239Y0191836D01*
X0385239Y0191135D01*
X0384539Y0190435D01*
X0396984Y0185882D02*
X0398953Y0185882D01*
X0396984Y0185882D02*
X0396984Y0183913D01*
X0391533Y0180239D02*
X0391533Y0177437D01*
X0388731Y0180239D01*
X0388030Y0180239D01*
X0387329Y0179539D01*
X0387329Y0178138D01*
X0388030Y0177437D01*
X0387329Y0175635D02*
X0390832Y0175635D01*
X0391533Y0174935D01*
X0391533Y0173534D01*
X0390832Y0172833D01*
X0387329Y0172833D01*
X0396984Y0168953D02*
X0398953Y0166984D01*
X0396984Y0166984D01*
X0396984Y0168953D01*
X0396984Y0168187D02*
X0397750Y0168187D01*
X0396984Y0167389D02*
X0398548Y0167389D01*
X0397377Y0164993D02*
X0395033Y0164993D01*
X0395033Y0164195D02*
X0398291Y0164195D01*
X0398533Y0164333D02*
X0395033Y0166333D01*
X0395033Y0162333D01*
X0398533Y0164333D01*
X0396894Y0163396D02*
X0395033Y0163396D01*
X0395033Y0162598D02*
X0395496Y0162598D01*
X0395033Y0165792D02*
X0395980Y0165792D01*
X0383933Y0164933D02*
X0378933Y0164933D01*
X0380333Y0163036D02*
X0381934Y0163036D01*
X0382468Y0162502D01*
X0382468Y0161434D01*
X0381934Y0160901D01*
X0380333Y0160901D01*
X0381401Y0160901D02*
X0382468Y0159833D01*
X0380333Y0159833D02*
X0380333Y0163036D01*
X0378933Y0157933D02*
X0383933Y0157933D01*
X0385242Y0155037D02*
X0384541Y0154336D01*
X0385242Y0155037D02*
X0386643Y0155037D01*
X0387343Y0154336D01*
X0387343Y0153635D01*
X0384541Y0150833D01*
X0387343Y0150833D01*
X0382739Y0150833D02*
X0379937Y0150833D01*
X0381338Y0150833D02*
X0381338Y0155037D01*
X0379937Y0153635D01*
X0378135Y0152935D02*
X0377435Y0152234D01*
X0375333Y0152234D01*
X0375333Y0150833D02*
X0375333Y0155037D01*
X0377435Y0155037D01*
X0378135Y0154336D01*
X0378135Y0152935D01*
X0376734Y0152234D02*
X0378135Y0150833D01*
X0390208Y0140608D02*
X0394808Y0140608D01*
X0394808Y0129108D01*
X0392258Y0129108D01*
X0394808Y0131858D01*
X0394808Y0129108D01*
X0390208Y0129108D01*
X0390208Y0140608D01*
X0394435Y0131456D02*
X0394808Y0131456D01*
X0394808Y0130657D02*
X0393694Y0130657D01*
X0392954Y0129859D02*
X0394808Y0129859D01*
X0393437Y0126387D02*
X0396239Y0126387D01*
X0396239Y0125686D01*
X0393437Y0122884D01*
X0393437Y0122183D01*
X0391635Y0122884D02*
X0391635Y0126387D01*
X0388833Y0126387D02*
X0388833Y0122884D01*
X0389534Y0122183D01*
X0390935Y0122183D01*
X0391635Y0122884D01*
X0411427Y0113962D02*
X0411427Y0110459D01*
X0412127Y0109758D01*
X0413529Y0109758D01*
X0414229Y0110459D01*
X0414229Y0113962D01*
X0416031Y0113261D02*
X0416031Y0112561D01*
X0416731Y0111860D01*
X0418133Y0111860D01*
X0418833Y0111159D01*
X0418833Y0110459D01*
X0418133Y0109758D01*
X0416731Y0109758D01*
X0416031Y0110459D01*
X0416031Y0113261D02*
X0416731Y0113962D01*
X0418133Y0113962D01*
X0418833Y0113261D01*
X0420635Y0113962D02*
X0420635Y0109758D01*
X0422736Y0109758D01*
X0423437Y0110459D01*
X0423437Y0111159D01*
X0422736Y0111860D01*
X0420635Y0111860D01*
X0422736Y0111860D02*
X0423437Y0112561D01*
X0423437Y0113261D01*
X0422736Y0113962D01*
X0420635Y0113962D01*
X0414933Y0105933D02*
X0395933Y0105933D01*
X0395835Y0105931D01*
X0395737Y0105925D01*
X0395639Y0105916D01*
X0395542Y0105902D01*
X0395445Y0105885D01*
X0395349Y0105864D01*
X0395254Y0105839D01*
X0395160Y0105811D01*
X0395068Y0105778D01*
X0394976Y0105743D01*
X0394886Y0105703D01*
X0394798Y0105661D01*
X0394711Y0105614D01*
X0394627Y0105565D01*
X0394544Y0105512D01*
X0394464Y0105456D01*
X0394385Y0105396D01*
X0394309Y0105334D01*
X0394236Y0105269D01*
X0394165Y0105201D01*
X0394097Y0105130D01*
X0394032Y0105057D01*
X0393970Y0104981D01*
X0393910Y0104902D01*
X0393854Y0104822D01*
X0393801Y0104739D01*
X0393752Y0104655D01*
X0393705Y0104568D01*
X0393663Y0104480D01*
X0393623Y0104390D01*
X0393588Y0104298D01*
X0393555Y0104206D01*
X0393527Y0104112D01*
X0393502Y0104017D01*
X0393481Y0103921D01*
X0393464Y0103824D01*
X0393450Y0103727D01*
X0393441Y0103629D01*
X0393435Y0103531D01*
X0393433Y0103433D01*
X0393433Y0084433D01*
X0393435Y0084335D01*
X0393441Y0084237D01*
X0393450Y0084139D01*
X0393464Y0084042D01*
X0393481Y0083945D01*
X0393502Y0083849D01*
X0393527Y0083754D01*
X0393555Y0083660D01*
X0393588Y0083568D01*
X0393623Y0083476D01*
X0393663Y0083386D01*
X0393705Y0083298D01*
X0393752Y0083211D01*
X0393801Y0083127D01*
X0393854Y0083044D01*
X0393910Y0082964D01*
X0393970Y0082885D01*
X0394032Y0082809D01*
X0394097Y0082736D01*
X0394165Y0082665D01*
X0394236Y0082597D01*
X0394309Y0082532D01*
X0394385Y0082470D01*
X0394464Y0082410D01*
X0394544Y0082354D01*
X0394627Y0082301D01*
X0394711Y0082252D01*
X0394798Y0082205D01*
X0394886Y0082163D01*
X0394976Y0082123D01*
X0395068Y0082088D01*
X0395160Y0082055D01*
X0395254Y0082027D01*
X0395349Y0082002D01*
X0395445Y0081981D01*
X0395542Y0081964D01*
X0395639Y0081950D01*
X0395737Y0081941D01*
X0395835Y0081935D01*
X0395933Y0081933D01*
X0414933Y0081933D01*
X0415031Y0081935D01*
X0415129Y0081941D01*
X0415227Y0081950D01*
X0415324Y0081964D01*
X0415421Y0081981D01*
X0415517Y0082002D01*
X0415612Y0082027D01*
X0415706Y0082055D01*
X0415798Y0082088D01*
X0415890Y0082123D01*
X0415980Y0082163D01*
X0416068Y0082205D01*
X0416155Y0082252D01*
X0416239Y0082301D01*
X0416322Y0082354D01*
X0416402Y0082410D01*
X0416481Y0082470D01*
X0416557Y0082532D01*
X0416630Y0082597D01*
X0416701Y0082665D01*
X0416769Y0082736D01*
X0416834Y0082809D01*
X0416896Y0082885D01*
X0416956Y0082964D01*
X0417012Y0083044D01*
X0417065Y0083127D01*
X0417114Y0083211D01*
X0417161Y0083298D01*
X0417203Y0083386D01*
X0417243Y0083476D01*
X0417278Y0083568D01*
X0417311Y0083660D01*
X0417339Y0083754D01*
X0417364Y0083849D01*
X0417385Y0083945D01*
X0417402Y0084042D01*
X0417416Y0084139D01*
X0417425Y0084237D01*
X0417431Y0084335D01*
X0417433Y0084433D01*
X0417433Y0103433D01*
X0417431Y0103531D01*
X0417425Y0103629D01*
X0417416Y0103727D01*
X0417402Y0103824D01*
X0417385Y0103921D01*
X0417364Y0104017D01*
X0417339Y0104112D01*
X0417311Y0104206D01*
X0417278Y0104298D01*
X0417243Y0104390D01*
X0417203Y0104480D01*
X0417161Y0104568D01*
X0417114Y0104655D01*
X0417065Y0104739D01*
X0417012Y0104822D01*
X0416956Y0104902D01*
X0416896Y0104981D01*
X0416834Y0105057D01*
X0416769Y0105130D01*
X0416701Y0105201D01*
X0416630Y0105269D01*
X0416557Y0105334D01*
X0416481Y0105396D01*
X0416402Y0105456D01*
X0416322Y0105512D01*
X0416239Y0105565D01*
X0416155Y0105614D01*
X0416068Y0105661D01*
X0415980Y0105703D01*
X0415890Y0105743D01*
X0415798Y0105778D01*
X0415706Y0105811D01*
X0415612Y0105839D01*
X0415517Y0105864D01*
X0415421Y0105885D01*
X0415324Y0105902D01*
X0415227Y0105916D01*
X0415129Y0105925D01*
X0415031Y0105931D01*
X0414933Y0105933D01*
X0415433Y0098933D02*
X0415433Y0095933D01*
X0412933Y0094933D02*
X0415433Y0091933D01*
X0415433Y0088933D01*
X0420533Y0092534D02*
X0421234Y0091833D01*
X0422635Y0091833D01*
X0423335Y0092534D01*
X0423335Y0093234D01*
X0422635Y0093935D01*
X0421234Y0093935D01*
X0420533Y0094635D01*
X0420533Y0095336D01*
X0421234Y0096037D01*
X0422635Y0096037D01*
X0423335Y0095336D01*
X0425137Y0095336D02*
X0425838Y0096037D01*
X0427239Y0096037D01*
X0427939Y0095336D01*
X0427939Y0094635D01*
X0425137Y0091833D01*
X0427939Y0091833D01*
X0416331Y0079037D02*
X0413529Y0079037D01*
X0414930Y0079037D02*
X0414930Y0074833D01*
X0411728Y0074833D02*
X0408925Y0074833D01*
X0408925Y0079037D01*
X0411728Y0079037D01*
X0410326Y0076935D02*
X0408925Y0076935D01*
X0407124Y0076234D02*
X0407124Y0075534D01*
X0406423Y0074833D01*
X0405022Y0074833D01*
X0404321Y0075534D01*
X0405022Y0076935D02*
X0406423Y0076935D01*
X0407124Y0076234D01*
X0407124Y0078336D02*
X0406423Y0079037D01*
X0405022Y0079037D01*
X0404321Y0078336D01*
X0404321Y0077635D01*
X0405022Y0076935D01*
X0402520Y0079037D02*
X0399717Y0079037D01*
X0399717Y0074833D01*
X0402520Y0074833D01*
X0401119Y0076935D02*
X0399717Y0076935D01*
X0397916Y0076935D02*
X0397215Y0076234D01*
X0395113Y0076234D01*
X0395113Y0074833D02*
X0395113Y0079037D01*
X0397215Y0079037D01*
X0397916Y0078336D01*
X0397916Y0076935D01*
X0396515Y0076234D02*
X0397916Y0074833D01*
X0387832Y0064620D02*
X0385030Y0064620D01*
X0387832Y0061818D01*
X0388533Y0062519D01*
X0388533Y0063920D01*
X0387832Y0064620D01*
X0385030Y0064620D02*
X0384329Y0063920D01*
X0384329Y0062519D01*
X0385030Y0061818D01*
X0387832Y0061818D01*
X0388533Y0060017D02*
X0388533Y0057214D01*
X0388533Y0058615D02*
X0384329Y0058615D01*
X0385731Y0057214D01*
X0386431Y0055413D02*
X0386431Y0052610D01*
X0386431Y0050809D02*
X0387132Y0050108D01*
X0387132Y0048006D01*
X0388533Y0048006D02*
X0384329Y0048006D01*
X0384329Y0050108D01*
X0385030Y0050809D01*
X0386431Y0050809D01*
X0387132Y0046205D02*
X0387832Y0046205D01*
X0388533Y0045504D01*
X0388533Y0044103D01*
X0387832Y0043402D01*
X0386431Y0044103D02*
X0386431Y0045504D01*
X0387132Y0046205D01*
X0385030Y0046205D02*
X0384329Y0045504D01*
X0384329Y0044103D01*
X0385030Y0043402D01*
X0385731Y0043402D01*
X0386431Y0044103D01*
X0384329Y0041734D02*
X0384329Y0040333D01*
X0384329Y0041034D02*
X0388533Y0041034D01*
X0388533Y0041734D02*
X0388533Y0040333D01*
X0380933Y0039933D02*
X0380933Y0072933D01*
X0350433Y0072933D01*
X0350433Y0071433D01*
X0332433Y0071433D01*
X0332433Y0072933D01*
X0332433Y0074433D01*
X0350433Y0074433D01*
X0350433Y0072933D01*
X0361433Y0080933D02*
X0366433Y0080933D01*
X0364968Y0082833D02*
X0363901Y0083901D01*
X0364434Y0083901D02*
X0362833Y0083901D01*
X0362833Y0082833D02*
X0362833Y0086036D01*
X0364434Y0086036D01*
X0364968Y0085502D01*
X0364968Y0084434D01*
X0364434Y0083901D01*
X0366433Y0087933D02*
X0361433Y0087933D01*
X0361433Y0091933D02*
X0366433Y0091933D01*
X0364968Y0093833D02*
X0363901Y0094901D01*
X0364434Y0094901D02*
X0362833Y0094901D01*
X0362833Y0093833D02*
X0362833Y0097036D01*
X0364434Y0097036D01*
X0364968Y0096502D01*
X0364968Y0095434D01*
X0364434Y0094901D01*
X0366433Y0098933D02*
X0361433Y0098933D01*
X0361433Y0102933D02*
X0366433Y0102933D01*
X0364968Y0104833D02*
X0363901Y0105901D01*
X0364434Y0105901D02*
X0362833Y0105901D01*
X0362833Y0104833D02*
X0362833Y0108036D01*
X0364434Y0108036D01*
X0364968Y0107502D01*
X0364968Y0106434D01*
X0364434Y0105901D01*
X0366433Y0109933D02*
X0361433Y0109933D01*
X0361433Y0113933D02*
X0366433Y0113933D01*
X0364968Y0115833D02*
X0363901Y0116901D01*
X0364434Y0116901D02*
X0362833Y0116901D01*
X0362833Y0115833D02*
X0362833Y0119036D01*
X0364434Y0119036D01*
X0364968Y0118502D01*
X0364968Y0117434D01*
X0364434Y0116901D01*
X0366433Y0120933D02*
X0361433Y0120933D01*
X0338933Y0120933D02*
X0333933Y0120933D01*
X0335252Y0119389D02*
X0335252Y0117433D01*
X0337614Y0119295D01*
X0337614Y0115571D01*
X0335252Y0117433D01*
X0335252Y0115477D01*
X0333933Y0113933D02*
X0338933Y0113933D01*
X0338933Y0109933D02*
X0333933Y0109933D01*
X0335252Y0108389D02*
X0335252Y0106433D01*
X0337614Y0108295D01*
X0337614Y0104571D01*
X0335252Y0106433D01*
X0335252Y0104477D01*
X0333933Y0102933D02*
X0338933Y0102933D01*
X0338933Y0098933D02*
X0333933Y0098933D01*
X0335252Y0097389D02*
X0335252Y0095433D01*
X0337614Y0097295D01*
X0337614Y0093571D01*
X0335252Y0095433D01*
X0335252Y0093477D01*
X0333933Y0091933D02*
X0338933Y0091933D01*
X0338933Y0087933D02*
X0333933Y0087933D01*
X0335252Y0086389D02*
X0335252Y0084433D01*
X0337614Y0086295D01*
X0337614Y0082571D01*
X0335252Y0084433D01*
X0335252Y0082477D01*
X0333933Y0080933D02*
X0338933Y0080933D01*
X0332433Y0072933D02*
X0301933Y0072933D01*
X0301933Y0039933D01*
X0380933Y0039933D01*
X0372433Y0059433D02*
X0368933Y0061433D01*
X0372433Y0063433D01*
X0372433Y0059433D01*
X0372433Y0059590D02*
X0372159Y0059590D01*
X0372433Y0060388D02*
X0370761Y0060388D01*
X0369364Y0061187D02*
X0372433Y0061187D01*
X0372433Y0061985D02*
X0369900Y0061985D01*
X0371297Y0062784D02*
X0372433Y0062784D01*
X0400512Y0093933D02*
X0400514Y0094073D01*
X0400520Y0094213D01*
X0400530Y0094352D01*
X0400544Y0094491D01*
X0400562Y0094630D01*
X0400583Y0094768D01*
X0400609Y0094906D01*
X0400639Y0095043D01*
X0400672Y0095178D01*
X0400710Y0095313D01*
X0400751Y0095447D01*
X0400796Y0095580D01*
X0400844Y0095711D01*
X0400897Y0095840D01*
X0400953Y0095969D01*
X0401012Y0096095D01*
X0401076Y0096220D01*
X0401142Y0096343D01*
X0401213Y0096464D01*
X0401286Y0096583D01*
X0401363Y0096700D01*
X0401444Y0096814D01*
X0401527Y0096926D01*
X0401614Y0097036D01*
X0401704Y0097144D01*
X0401796Y0097248D01*
X0401892Y0097350D01*
X0401991Y0097450D01*
X0402092Y0097546D01*
X0402196Y0097640D01*
X0402303Y0097730D01*
X0402412Y0097817D01*
X0402524Y0097902D01*
X0402638Y0097983D01*
X0402754Y0098061D01*
X0402872Y0098135D01*
X0402993Y0098206D01*
X0403115Y0098274D01*
X0403240Y0098338D01*
X0403366Y0098399D01*
X0403493Y0098456D01*
X0403623Y0098509D01*
X0403754Y0098559D01*
X0403886Y0098604D01*
X0404019Y0098647D01*
X0404154Y0098685D01*
X0404289Y0098719D01*
X0404426Y0098750D01*
X0404563Y0098777D01*
X0404701Y0098799D01*
X0404840Y0098818D01*
X0404979Y0098833D01*
X0405118Y0098844D01*
X0405258Y0098851D01*
X0405398Y0098854D01*
X0405538Y0098853D01*
X0405678Y0098848D01*
X0405817Y0098839D01*
X0405957Y0098826D01*
X0406096Y0098809D01*
X0406234Y0098788D01*
X0406372Y0098764D01*
X0406509Y0098735D01*
X0406645Y0098703D01*
X0406780Y0098666D01*
X0406914Y0098626D01*
X0407047Y0098582D01*
X0407178Y0098534D01*
X0407308Y0098483D01*
X0407437Y0098428D01*
X0407564Y0098369D01*
X0407689Y0098306D01*
X0407812Y0098241D01*
X0407934Y0098171D01*
X0408053Y0098098D01*
X0408171Y0098022D01*
X0408286Y0097943D01*
X0408399Y0097860D01*
X0408509Y0097774D01*
X0408617Y0097685D01*
X0408722Y0097593D01*
X0408825Y0097498D01*
X0408925Y0097400D01*
X0409022Y0097300D01*
X0409116Y0097196D01*
X0409208Y0097090D01*
X0409296Y0096982D01*
X0409381Y0096871D01*
X0409463Y0096757D01*
X0409542Y0096641D01*
X0409617Y0096524D01*
X0409689Y0096404D01*
X0409757Y0096282D01*
X0409822Y0096158D01*
X0409884Y0096032D01*
X0409942Y0095905D01*
X0409996Y0095776D01*
X0410047Y0095645D01*
X0410093Y0095513D01*
X0410136Y0095380D01*
X0410176Y0095246D01*
X0410211Y0095111D01*
X0410243Y0094974D01*
X0410270Y0094837D01*
X0410294Y0094699D01*
X0410314Y0094561D01*
X0410330Y0094422D01*
X0410342Y0094282D01*
X0410350Y0094143D01*
X0410354Y0094003D01*
X0410354Y0093863D01*
X0410350Y0093723D01*
X0410342Y0093584D01*
X0410330Y0093444D01*
X0410314Y0093305D01*
X0410294Y0093167D01*
X0410270Y0093029D01*
X0410243Y0092892D01*
X0410211Y0092755D01*
X0410176Y0092620D01*
X0410136Y0092486D01*
X0410093Y0092353D01*
X0410047Y0092221D01*
X0409996Y0092090D01*
X0409942Y0091961D01*
X0409884Y0091834D01*
X0409822Y0091708D01*
X0409757Y0091584D01*
X0409689Y0091462D01*
X0409617Y0091342D01*
X0409542Y0091225D01*
X0409463Y0091109D01*
X0409381Y0090995D01*
X0409296Y0090884D01*
X0409208Y0090776D01*
X0409116Y0090670D01*
X0409022Y0090566D01*
X0408925Y0090466D01*
X0408825Y0090368D01*
X0408722Y0090273D01*
X0408617Y0090181D01*
X0408509Y0090092D01*
X0408399Y0090006D01*
X0408286Y0089923D01*
X0408171Y0089844D01*
X0408053Y0089768D01*
X0407934Y0089695D01*
X0407812Y0089625D01*
X0407689Y0089560D01*
X0407564Y0089497D01*
X0407437Y0089438D01*
X0407308Y0089383D01*
X0407178Y0089332D01*
X0407047Y0089284D01*
X0406914Y0089240D01*
X0406780Y0089200D01*
X0406645Y0089163D01*
X0406509Y0089131D01*
X0406372Y0089102D01*
X0406234Y0089078D01*
X0406096Y0089057D01*
X0405957Y0089040D01*
X0405817Y0089027D01*
X0405678Y0089018D01*
X0405538Y0089013D01*
X0405398Y0089012D01*
X0405258Y0089015D01*
X0405118Y0089022D01*
X0404979Y0089033D01*
X0404840Y0089048D01*
X0404701Y0089067D01*
X0404563Y0089089D01*
X0404426Y0089116D01*
X0404289Y0089147D01*
X0404154Y0089181D01*
X0404019Y0089219D01*
X0403886Y0089262D01*
X0403754Y0089307D01*
X0403623Y0089357D01*
X0403493Y0089410D01*
X0403366Y0089467D01*
X0403240Y0089528D01*
X0403115Y0089592D01*
X0402993Y0089660D01*
X0402872Y0089731D01*
X0402754Y0089805D01*
X0402638Y0089883D01*
X0402524Y0089964D01*
X0402412Y0090049D01*
X0402303Y0090136D01*
X0402196Y0090226D01*
X0402092Y0090320D01*
X0401991Y0090416D01*
X0401892Y0090516D01*
X0401796Y0090618D01*
X0401704Y0090722D01*
X0401614Y0090830D01*
X0401527Y0090940D01*
X0401444Y0091052D01*
X0401363Y0091166D01*
X0401286Y0091283D01*
X0401213Y0091402D01*
X0401142Y0091523D01*
X0401076Y0091646D01*
X0401012Y0091771D01*
X0400953Y0091897D01*
X0400897Y0092026D01*
X0400844Y0092155D01*
X0400796Y0092286D01*
X0400751Y0092419D01*
X0400710Y0092553D01*
X0400672Y0092688D01*
X0400639Y0092823D01*
X0400609Y0092960D01*
X0400583Y0093098D01*
X0400562Y0093236D01*
X0400544Y0093375D01*
X0400530Y0093514D01*
X0400520Y0093653D01*
X0400514Y0093793D01*
X0400512Y0093933D01*
X0362933Y0138933D02*
X0362933Y0143933D01*
X0361033Y0142468D02*
X0359966Y0141401D01*
X0359966Y0141934D02*
X0359966Y0140333D01*
X0361033Y0140333D02*
X0357830Y0140333D01*
X0357830Y0141934D01*
X0358364Y0142468D01*
X0359432Y0142468D01*
X0359966Y0141934D01*
X0355933Y0143933D02*
X0355933Y0138933D01*
X0352933Y0138933D02*
X0352933Y0143933D01*
X0351033Y0142468D02*
X0349966Y0141401D01*
X0349966Y0141934D02*
X0349966Y0140333D01*
X0351033Y0140333D02*
X0347830Y0140333D01*
X0347830Y0141934D01*
X0348364Y0142468D01*
X0349432Y0142468D01*
X0349966Y0141934D01*
X0345933Y0143933D02*
X0345933Y0138933D01*
X0342933Y0138933D02*
X0342933Y0143933D01*
X0341033Y0142468D02*
X0339966Y0141401D01*
X0339966Y0141934D02*
X0339966Y0140333D01*
X0341033Y0140333D02*
X0337830Y0140333D01*
X0337830Y0141934D01*
X0338364Y0142468D01*
X0339432Y0142468D01*
X0339966Y0141934D01*
X0335933Y0143933D02*
X0335933Y0138933D01*
X0332933Y0138933D02*
X0332933Y0143933D01*
X0331033Y0141934D02*
X0330499Y0142468D01*
X0331033Y0141934D02*
X0331033Y0140867D01*
X0330499Y0140333D01*
X0328364Y0140333D01*
X0327830Y0140867D01*
X0327830Y0141934D01*
X0328364Y0142468D01*
X0325933Y0143933D02*
X0325933Y0138933D01*
X0314683Y0131433D02*
X0299183Y0131433D01*
X0299183Y0151433D01*
X0304183Y0151433D01*
X0304034Y0153833D02*
X0305435Y0153833D01*
X0306135Y0154534D01*
X0306135Y0158037D01*
X0307937Y0155935D02*
X0310039Y0155935D01*
X0310739Y0155234D01*
X0310739Y0154534D01*
X0310039Y0153833D01*
X0308638Y0153833D01*
X0307937Y0154534D01*
X0307937Y0155935D01*
X0309338Y0157336D01*
X0310739Y0158037D01*
X0303333Y0158037D02*
X0303333Y0154534D01*
X0304034Y0153833D01*
X0304183Y0151433D02*
X0304185Y0151329D01*
X0304191Y0151225D01*
X0304201Y0151121D01*
X0304214Y0151018D01*
X0304232Y0150916D01*
X0304254Y0150814D01*
X0304279Y0150713D01*
X0304308Y0150613D01*
X0304341Y0150514D01*
X0304378Y0150417D01*
X0304418Y0150321D01*
X0304462Y0150226D01*
X0304509Y0150134D01*
X0304560Y0150043D01*
X0304614Y0149954D01*
X0304672Y0149868D01*
X0304733Y0149783D01*
X0304797Y0149701D01*
X0304864Y0149621D01*
X0304934Y0149544D01*
X0305007Y0149470D01*
X0305083Y0149399D01*
X0305161Y0149330D01*
X0305242Y0149265D01*
X0305325Y0149202D01*
X0305411Y0149143D01*
X0305498Y0149087D01*
X0305588Y0149034D01*
X0305680Y0148985D01*
X0305773Y0148939D01*
X0305869Y0148897D01*
X0305965Y0148859D01*
X0306063Y0148824D01*
X0306163Y0148793D01*
X0306263Y0148766D01*
X0306365Y0148742D01*
X0306467Y0148723D01*
X0306570Y0148707D01*
X0306673Y0148695D01*
X0306777Y0148687D01*
X0306881Y0148683D01*
X0306985Y0148683D01*
X0307089Y0148687D01*
X0307193Y0148695D01*
X0307296Y0148707D01*
X0307399Y0148723D01*
X0307501Y0148742D01*
X0307603Y0148766D01*
X0307703Y0148793D01*
X0307803Y0148824D01*
X0307901Y0148859D01*
X0307997Y0148897D01*
X0308093Y0148939D01*
X0308186Y0148985D01*
X0308278Y0149034D01*
X0308368Y0149087D01*
X0308455Y0149143D01*
X0308541Y0149202D01*
X0308624Y0149265D01*
X0308705Y0149330D01*
X0308783Y0149399D01*
X0308859Y0149470D01*
X0308932Y0149544D01*
X0309002Y0149621D01*
X0309069Y0149701D01*
X0309133Y0149783D01*
X0309194Y0149868D01*
X0309252Y0149954D01*
X0309306Y0150043D01*
X0309357Y0150134D01*
X0309404Y0150226D01*
X0309448Y0150321D01*
X0309488Y0150417D01*
X0309525Y0150514D01*
X0309558Y0150613D01*
X0309587Y0150713D01*
X0309612Y0150814D01*
X0309634Y0150916D01*
X0309652Y0151018D01*
X0309665Y0151121D01*
X0309675Y0151225D01*
X0309681Y0151329D01*
X0309683Y0151433D01*
X0314683Y0151433D01*
X0314683Y0131433D01*
X0292343Y0125935D02*
X0289541Y0125935D01*
X0291643Y0128037D01*
X0291643Y0123833D01*
X0287739Y0123833D02*
X0284937Y0123833D01*
X0286338Y0123833D02*
X0286338Y0128037D01*
X0284937Y0126635D01*
X0283135Y0127336D02*
X0282435Y0128037D01*
X0281034Y0128037D01*
X0280333Y0127336D01*
X0280333Y0124534D01*
X0281034Y0123833D01*
X0282435Y0123833D01*
X0283135Y0124534D01*
X0282933Y0113933D02*
X0282933Y0108933D01*
X0284830Y0110867D02*
X0285364Y0110333D01*
X0287499Y0110333D01*
X0288033Y0110867D01*
X0288033Y0111934D01*
X0287499Y0112468D01*
X0285364Y0112468D02*
X0284830Y0111934D01*
X0284830Y0110867D01*
X0289933Y0108933D02*
X0289933Y0113933D01*
X0254343Y0114234D02*
X0252241Y0114234D01*
X0251541Y0113534D01*
X0252241Y0112833D01*
X0254343Y0112833D01*
X0254343Y0114935D01*
X0253643Y0115635D01*
X0252241Y0115635D01*
X0249739Y0115635D02*
X0249739Y0112132D01*
X0249039Y0111432D01*
X0248338Y0111432D01*
X0247638Y0112833D02*
X0249739Y0112833D01*
X0247638Y0112833D02*
X0246937Y0113534D01*
X0246937Y0114935D01*
X0247638Y0115635D01*
X0249739Y0115635D01*
X0245135Y0114935D02*
X0245135Y0114234D01*
X0242333Y0114234D01*
X0242333Y0113534D02*
X0242333Y0114935D01*
X0243034Y0115635D01*
X0244435Y0115635D01*
X0245135Y0114935D01*
X0244435Y0112833D02*
X0243034Y0112833D01*
X0242333Y0113534D01*
X0240532Y0112833D02*
X0240532Y0114935D01*
X0239831Y0115635D01*
X0239130Y0114935D01*
X0239130Y0112833D01*
X0237729Y0112833D02*
X0237729Y0115635D01*
X0238430Y0115635D01*
X0239130Y0114935D01*
X0235928Y0117037D02*
X0233125Y0117037D01*
X0234526Y0117037D02*
X0234526Y0112833D01*
X0231324Y0112833D02*
X0231324Y0115635D01*
X0229922Y0117037D01*
X0228521Y0115635D01*
X0228521Y0112833D01*
X0228521Y0114935D02*
X0231324Y0114935D01*
X0233826Y0109537D02*
X0233125Y0108836D01*
X0233826Y0109537D02*
X0235227Y0109537D01*
X0235928Y0108836D01*
X0235928Y0108135D01*
X0233125Y0105333D01*
X0235928Y0105333D01*
X0237729Y0106034D02*
X0238430Y0105333D01*
X0239831Y0105333D01*
X0240532Y0106034D01*
X0240532Y0107435D01*
X0239831Y0108135D01*
X0239130Y0108135D01*
X0237729Y0107435D01*
X0237729Y0109537D01*
X0240532Y0109537D01*
X0242333Y0107435D02*
X0244435Y0107435D01*
X0245135Y0106734D01*
X0245135Y0106034D01*
X0244435Y0105333D01*
X0243034Y0105333D01*
X0242333Y0106034D01*
X0242333Y0107435D01*
X0243734Y0108836D01*
X0245135Y0109537D01*
X0246937Y0108836D02*
X0247638Y0109537D01*
X0249039Y0109537D01*
X0249739Y0108836D01*
X0246937Y0106034D01*
X0247638Y0105333D01*
X0249039Y0105333D01*
X0249739Y0106034D01*
X0249739Y0108836D01*
X0246937Y0108836D02*
X0246937Y0106034D01*
X0203933Y0079933D02*
X0198933Y0079933D01*
X0200867Y0078036D02*
X0200333Y0077502D01*
X0200333Y0075367D01*
X0200867Y0074833D01*
X0201934Y0074833D01*
X0202468Y0075367D01*
X0202468Y0077502D02*
X0201934Y0078036D01*
X0200867Y0078036D01*
X0198933Y0072933D02*
X0203933Y0072933D01*
X0204541Y0070037D02*
X0204541Y0067935D01*
X0205942Y0068635D01*
X0206643Y0068635D01*
X0207343Y0067935D01*
X0207343Y0066534D01*
X0206643Y0065833D01*
X0205242Y0065833D01*
X0204541Y0066534D01*
X0202739Y0065833D02*
X0199937Y0065833D01*
X0201338Y0065833D02*
X0201338Y0070037D01*
X0199937Y0068635D01*
X0198135Y0069336D02*
X0197435Y0070037D01*
X0196034Y0070037D01*
X0195333Y0069336D01*
X0195333Y0066534D01*
X0196034Y0065833D01*
X0197435Y0065833D01*
X0198135Y0066534D01*
X0204541Y0070037D02*
X0207343Y0070037D01*
X0218933Y0069433D02*
X0218933Y0072433D01*
X0263933Y0072433D01*
X0263933Y0069433D01*
X0267833Y0071534D02*
X0268534Y0070833D01*
X0269935Y0070833D01*
X0270635Y0071534D01*
X0270635Y0074336D01*
X0269935Y0075037D01*
X0268534Y0075037D01*
X0267833Y0074336D01*
X0267833Y0071534D01*
X0269234Y0072234D02*
X0270635Y0070833D01*
X0272437Y0070833D02*
X0275239Y0070833D01*
X0273838Y0070833D02*
X0273838Y0075037D01*
X0272437Y0073635D01*
X0275234Y0066037D02*
X0275234Y0061833D01*
X0273833Y0061833D02*
X0276635Y0061833D01*
X0278437Y0062534D02*
X0279138Y0061833D01*
X0280539Y0061833D01*
X0281239Y0062534D01*
X0281239Y0063234D01*
X0280539Y0063935D01*
X0278437Y0063935D01*
X0278437Y0062534D01*
X0278437Y0063935D02*
X0279838Y0065336D01*
X0281239Y0066037D01*
X0283041Y0066037D02*
X0284442Y0064635D01*
X0285843Y0066037D01*
X0285843Y0061833D01*
X0287645Y0061833D02*
X0287645Y0066037D01*
X0287645Y0063935D02*
X0290447Y0063935D01*
X0292249Y0064635D02*
X0295051Y0064635D01*
X0292249Y0061833D01*
X0295051Y0061833D01*
X0290447Y0061833D02*
X0290447Y0066037D01*
X0283041Y0066037D02*
X0283041Y0061833D01*
X0275234Y0066037D02*
X0273833Y0064635D01*
X0263933Y0058433D02*
X0263933Y0055433D01*
X0218933Y0055433D01*
X0218933Y0058433D01*
X0215331Y0049537D02*
X0213930Y0049537D01*
X0213229Y0048836D01*
X0213229Y0046034D01*
X0216032Y0048836D01*
X0216032Y0046034D01*
X0215331Y0045333D01*
X0213930Y0045333D01*
X0213229Y0046034D01*
X0211428Y0045333D02*
X0208625Y0045333D01*
X0210026Y0045333D02*
X0210026Y0049537D01*
X0208625Y0048135D01*
X0206824Y0048836D02*
X0206123Y0049537D01*
X0204722Y0049537D01*
X0204021Y0048836D01*
X0204021Y0046034D01*
X0204722Y0045333D01*
X0206123Y0045333D01*
X0206824Y0046034D01*
X0215331Y0049537D02*
X0216032Y0048836D01*
X0226433Y0050933D02*
X0231433Y0050933D01*
X0229434Y0049036D02*
X0228367Y0049036D01*
X0227833Y0048502D01*
X0227833Y0046367D01*
X0228367Y0045833D01*
X0229434Y0045833D01*
X0229968Y0046367D01*
X0229968Y0048502D02*
X0229434Y0049036D01*
X0231433Y0043933D02*
X0226433Y0043933D01*
X0251433Y0043933D02*
X0256433Y0043933D01*
X0254434Y0045833D02*
X0254968Y0046367D01*
X0254434Y0045833D02*
X0253367Y0045833D01*
X0252833Y0046367D01*
X0252833Y0048502D01*
X0253367Y0049036D01*
X0254434Y0049036D01*
X0254968Y0048502D01*
X0256433Y0050933D02*
X0251433Y0050933D01*
X0243933Y0060933D02*
X0243933Y0063933D01*
X0246433Y0063933D01*
X0243933Y0063933D02*
X0243933Y0066933D01*
X0242433Y0066933D02*
X0242433Y0060933D01*
X0240433Y0060933D01*
X0240433Y0066933D01*
X0242433Y0066933D01*
X0238933Y0066933D02*
X0238933Y0063933D01*
X0236433Y0063933D01*
X0238933Y0063933D02*
X0238933Y0060933D01*
X0266833Y0048836D02*
X0266833Y0046034D01*
X0267534Y0045333D01*
X0268935Y0045333D01*
X0269635Y0046034D01*
X0271437Y0046034D02*
X0272138Y0045333D01*
X0273539Y0045333D01*
X0274239Y0046034D01*
X0274239Y0048836D01*
X0273539Y0049537D01*
X0272138Y0049537D01*
X0271437Y0048836D01*
X0271437Y0048135D01*
X0272138Y0047435D01*
X0274239Y0047435D01*
X0269635Y0048836D02*
X0268935Y0049537D01*
X0267534Y0049537D01*
X0266833Y0048836D01*
X0294329Y0047039D02*
X0294329Y0045638D01*
X0295030Y0044937D01*
X0294329Y0043135D02*
X0294329Y0041734D01*
X0294329Y0042435D02*
X0297832Y0042435D01*
X0298533Y0041734D01*
X0298533Y0041034D01*
X0297832Y0040333D01*
X0298533Y0044937D02*
X0295731Y0047739D01*
X0295030Y0047739D01*
X0294329Y0047039D01*
X0298533Y0047739D02*
X0298533Y0044937D01*
X0184933Y0078933D02*
X0184933Y0083933D01*
X0183033Y0082468D02*
X0181966Y0081401D01*
X0181966Y0081934D02*
X0181966Y0080333D01*
X0183033Y0080333D02*
X0179830Y0080333D01*
X0179830Y0081934D01*
X0180364Y0082468D01*
X0181432Y0082468D01*
X0181966Y0081934D01*
X0177933Y0083933D02*
X0177933Y0078933D01*
X0175533Y0077833D02*
X0171329Y0077833D01*
X0171329Y0079935D01*
X0172030Y0080635D01*
X0173431Y0080635D01*
X0174132Y0079935D01*
X0174132Y0077833D01*
X0174132Y0079234D02*
X0175533Y0080635D01*
X0174832Y0082437D02*
X0174132Y0082437D01*
X0173431Y0083138D01*
X0173431Y0084539D01*
X0174132Y0085239D01*
X0174832Y0085239D01*
X0175533Y0084539D01*
X0175533Y0083138D01*
X0174832Y0082437D01*
X0173431Y0083138D02*
X0172731Y0082437D01*
X0172030Y0082437D01*
X0171329Y0083138D01*
X0171329Y0084539D01*
X0172030Y0085239D01*
X0172731Y0085239D01*
X0173431Y0084539D01*
X0144519Y0110933D02*
X0144521Y0111008D01*
X0144527Y0111082D01*
X0144537Y0111156D01*
X0144550Y0111229D01*
X0144568Y0111302D01*
X0144589Y0111373D01*
X0144614Y0111444D01*
X0144643Y0111513D01*
X0144676Y0111580D01*
X0144712Y0111645D01*
X0144751Y0111709D01*
X0144793Y0111770D01*
X0144839Y0111829D01*
X0144888Y0111886D01*
X0144940Y0111939D01*
X0144994Y0111990D01*
X0145051Y0112039D01*
X0145111Y0112083D01*
X0145173Y0112125D01*
X0145237Y0112164D01*
X0145303Y0112199D01*
X0145370Y0112230D01*
X0145440Y0112258D01*
X0145510Y0112282D01*
X0145582Y0112303D01*
X0145655Y0112319D01*
X0145728Y0112332D01*
X0145803Y0112341D01*
X0145877Y0112346D01*
X0145952Y0112347D01*
X0146026Y0112344D01*
X0146101Y0112337D01*
X0146174Y0112326D01*
X0146248Y0112312D01*
X0146320Y0112293D01*
X0146391Y0112271D01*
X0146461Y0112245D01*
X0146530Y0112215D01*
X0146596Y0112182D01*
X0146661Y0112145D01*
X0146724Y0112105D01*
X0146785Y0112061D01*
X0146843Y0112015D01*
X0146899Y0111965D01*
X0146952Y0111913D01*
X0147003Y0111858D01*
X0147050Y0111800D01*
X0147094Y0111740D01*
X0147135Y0111677D01*
X0147173Y0111613D01*
X0147207Y0111547D01*
X0147238Y0111478D01*
X0147265Y0111409D01*
X0147288Y0111338D01*
X0147307Y0111266D01*
X0147323Y0111193D01*
X0147335Y0111119D01*
X0147343Y0111045D01*
X0147347Y0110970D01*
X0147347Y0110896D01*
X0147343Y0110821D01*
X0147335Y0110747D01*
X0147323Y0110673D01*
X0147307Y0110600D01*
X0147288Y0110528D01*
X0147265Y0110457D01*
X0147238Y0110388D01*
X0147207Y0110319D01*
X0147173Y0110253D01*
X0147135Y0110189D01*
X0147094Y0110126D01*
X0147050Y0110066D01*
X0147003Y0110008D01*
X0146952Y0109953D01*
X0146899Y0109901D01*
X0146843Y0109851D01*
X0146785Y0109805D01*
X0146724Y0109761D01*
X0146661Y0109721D01*
X0146596Y0109684D01*
X0146530Y0109651D01*
X0146461Y0109621D01*
X0146391Y0109595D01*
X0146320Y0109573D01*
X0146248Y0109554D01*
X0146174Y0109540D01*
X0146101Y0109529D01*
X0146026Y0109522D01*
X0145952Y0109519D01*
X0145877Y0109520D01*
X0145803Y0109525D01*
X0145728Y0109534D01*
X0145655Y0109547D01*
X0145582Y0109563D01*
X0145510Y0109584D01*
X0145440Y0109608D01*
X0145370Y0109636D01*
X0145303Y0109667D01*
X0145237Y0109702D01*
X0145173Y0109741D01*
X0145111Y0109783D01*
X0145051Y0109827D01*
X0144994Y0109876D01*
X0144940Y0109927D01*
X0144888Y0109980D01*
X0144839Y0110037D01*
X0144793Y0110096D01*
X0144751Y0110157D01*
X0144712Y0110221D01*
X0144676Y0110286D01*
X0144643Y0110353D01*
X0144614Y0110422D01*
X0144589Y0110493D01*
X0144568Y0110564D01*
X0144550Y0110637D01*
X0144537Y0110710D01*
X0144527Y0110784D01*
X0144521Y0110858D01*
X0144519Y0110933D01*
X0124933Y0093933D02*
X0124933Y0088933D01*
X0123033Y0090867D02*
X0123033Y0091934D01*
X0122499Y0092468D01*
X0123033Y0090867D02*
X0122499Y0090333D01*
X0120364Y0090333D01*
X0119830Y0090867D01*
X0119830Y0091934D01*
X0120364Y0092468D01*
X0117933Y0093933D02*
X0117933Y0088933D01*
X0117437Y0077037D02*
X0117437Y0074935D01*
X0118838Y0075635D01*
X0119539Y0075635D01*
X0120239Y0074935D01*
X0120239Y0073534D01*
X0119539Y0072833D01*
X0118138Y0072833D01*
X0117437Y0073534D01*
X0115635Y0072833D02*
X0114234Y0074234D01*
X0114935Y0074234D02*
X0112833Y0074234D01*
X0112833Y0072833D02*
X0112833Y0077037D01*
X0114935Y0077037D01*
X0115635Y0076336D01*
X0115635Y0074935D01*
X0114935Y0074234D01*
X0117437Y0077037D02*
X0120239Y0077037D01*
X0118933Y0069933D02*
X0113933Y0069933D01*
X0115333Y0068036D02*
X0116934Y0068036D01*
X0117468Y0067502D01*
X0117468Y0066434D01*
X0116934Y0065901D01*
X0115333Y0065901D01*
X0116401Y0065901D02*
X0117468Y0064833D01*
X0115333Y0064833D02*
X0115333Y0068036D01*
X0113933Y0062933D02*
X0118933Y0062933D01*
X0118933Y0054933D02*
X0113933Y0054933D01*
X0115333Y0053036D02*
X0116934Y0053036D01*
X0117468Y0052502D01*
X0117468Y0051434D01*
X0116934Y0050901D01*
X0115333Y0050901D01*
X0116401Y0050901D02*
X0117468Y0049833D01*
X0115333Y0049833D02*
X0115333Y0053036D01*
X0113933Y0047933D02*
X0118933Y0047933D01*
X0120239Y0045037D02*
X0118838Y0044336D01*
X0117437Y0042935D01*
X0119539Y0042935D01*
X0120239Y0042234D01*
X0120239Y0041534D01*
X0119539Y0040833D01*
X0118138Y0040833D01*
X0117437Y0041534D01*
X0117437Y0042935D01*
X0115635Y0042935D02*
X0115635Y0044336D01*
X0114935Y0045037D01*
X0112833Y0045037D01*
X0112833Y0040833D01*
X0112833Y0042234D02*
X0114935Y0042234D01*
X0115635Y0042935D01*
X0114234Y0042234D02*
X0115635Y0040833D01*
X0147833Y0040034D02*
X0148534Y0039333D01*
X0149935Y0039333D01*
X0150635Y0040034D01*
X0150635Y0043537D01*
X0152437Y0042836D02*
X0153138Y0043537D01*
X0154539Y0043537D01*
X0155239Y0042836D01*
X0155239Y0042135D01*
X0154539Y0041435D01*
X0155239Y0040734D01*
X0155239Y0040034D01*
X0154539Y0039333D01*
X0153138Y0039333D01*
X0152437Y0040034D01*
X0153838Y0041435D02*
X0154539Y0041435D01*
X0147833Y0040034D02*
X0147833Y0043537D01*
X0129933Y0133933D02*
X0129933Y0138933D01*
X0128033Y0136934D02*
X0127499Y0137468D01*
X0128033Y0136934D02*
X0128033Y0135867D01*
X0127499Y0135333D01*
X0125364Y0135333D01*
X0124830Y0135867D01*
X0124830Y0136934D01*
X0125364Y0137468D01*
X0122933Y0138933D02*
X0122933Y0133933D01*
X0235333Y0164034D02*
X0236034Y0163333D01*
X0237435Y0163333D01*
X0238135Y0164034D01*
X0239937Y0163333D02*
X0242739Y0163333D01*
X0241338Y0163333D02*
X0241338Y0167537D01*
X0239937Y0166135D01*
X0238135Y0166836D02*
X0237435Y0167537D01*
X0236034Y0167537D01*
X0235333Y0166836D01*
X0235333Y0164034D01*
X0238933Y0159933D02*
X0243933Y0159933D01*
X0241934Y0158036D02*
X0240867Y0158036D01*
X0240333Y0157502D01*
X0240333Y0155367D01*
X0240867Y0154833D01*
X0241934Y0154833D01*
X0242468Y0155367D01*
X0242468Y0157502D02*
X0241934Y0158036D01*
X0243933Y0152933D02*
X0238933Y0152933D01*
X0245242Y0163333D02*
X0244541Y0164034D01*
X0245242Y0163333D02*
X0246643Y0163333D01*
X0247343Y0164034D01*
X0247343Y0164734D01*
X0246643Y0165435D01*
X0245942Y0165435D01*
X0246643Y0165435D02*
X0247343Y0166135D01*
X0247343Y0166836D01*
X0246643Y0167537D01*
X0245242Y0167537D01*
X0244541Y0166836D01*
X0260333Y0171534D02*
X0260333Y0174336D01*
X0261034Y0175037D01*
X0262435Y0175037D01*
X0263135Y0174336D01*
X0264937Y0173635D02*
X0266338Y0175037D01*
X0266338Y0170833D01*
X0264937Y0170833D02*
X0267739Y0170833D01*
X0263135Y0171534D02*
X0262435Y0170833D01*
X0261034Y0170833D01*
X0260333Y0171534D01*
X0261433Y0177933D02*
X0266433Y0177933D01*
X0264434Y0179833D02*
X0264968Y0180367D01*
X0264434Y0179833D02*
X0263367Y0179833D01*
X0262833Y0180367D01*
X0262833Y0182502D01*
X0263367Y0183036D01*
X0264434Y0183036D01*
X0264968Y0182502D01*
X0266433Y0184933D02*
X0261433Y0184933D01*
X0278433Y0182683D02*
X0278433Y0190933D01*
X0278433Y0182683D02*
X0325433Y0182683D01*
X0325433Y0190933D01*
X0304933Y0178433D02*
X0298933Y0178433D01*
X0299752Y0176889D02*
X0299752Y0173933D01*
X0303614Y0176795D01*
X0303614Y0171071D01*
X0299752Y0173933D01*
X0299752Y0170977D01*
X0298933Y0169433D02*
X0304933Y0169433D01*
X0285239Y0172534D02*
X0284539Y0171833D01*
X0283138Y0171833D01*
X0282437Y0172534D01*
X0282437Y0173935D02*
X0283838Y0174635D01*
X0284539Y0174635D01*
X0285239Y0173935D01*
X0285239Y0172534D01*
X0282437Y0173935D02*
X0282437Y0176037D01*
X0285239Y0176037D01*
X0280635Y0175336D02*
X0279935Y0176037D01*
X0277833Y0176037D01*
X0277833Y0171833D01*
X0279935Y0171833D01*
X0280635Y0172534D01*
X0280635Y0175336D01*
X0327329Y0164442D02*
X0331533Y0164442D01*
X0331533Y0163041D02*
X0331533Y0165843D01*
X0328731Y0163041D02*
X0327329Y0164442D01*
X0328030Y0161239D02*
X0327329Y0160539D01*
X0327329Y0159138D01*
X0328030Y0158437D01*
X0328030Y0156635D02*
X0327329Y0155935D01*
X0327329Y0154534D01*
X0328030Y0153833D01*
X0330832Y0153833D01*
X0331533Y0154534D01*
X0331533Y0155935D01*
X0330832Y0156635D01*
X0331533Y0158437D02*
X0328731Y0161239D01*
X0328030Y0161239D01*
X0331533Y0161239D02*
X0331533Y0158437D01*
X0337329Y0159138D02*
X0338030Y0158437D01*
X0337329Y0159138D02*
X0337329Y0160539D01*
X0338030Y0161239D01*
X0338731Y0161239D01*
X0341533Y0158437D01*
X0341533Y0161239D01*
X0340832Y0163041D02*
X0341533Y0163742D01*
X0341533Y0165143D01*
X0340832Y0165843D01*
X0340132Y0165843D01*
X0339431Y0165143D01*
X0339431Y0164442D01*
X0339431Y0165143D02*
X0338731Y0165843D01*
X0338030Y0165843D01*
X0337329Y0165143D01*
X0337329Y0163742D01*
X0338030Y0163041D01*
X0338030Y0156635D02*
X0339431Y0156635D01*
X0340132Y0155935D01*
X0340132Y0153833D01*
X0341533Y0153833D02*
X0337329Y0153833D01*
X0337329Y0155935D01*
X0338030Y0156635D01*
X0340132Y0155234D02*
X0341533Y0156635D01*
X0347329Y0155935D02*
X0348030Y0156635D01*
X0349431Y0156635D01*
X0350132Y0155935D01*
X0350132Y0153833D01*
X0351533Y0153833D02*
X0347329Y0153833D01*
X0347329Y0155935D01*
X0348030Y0158437D02*
X0347329Y0159138D01*
X0347329Y0160539D01*
X0348030Y0161239D01*
X0348731Y0161239D01*
X0351533Y0158437D01*
X0351533Y0161239D01*
X0351533Y0163041D02*
X0348731Y0165843D01*
X0348030Y0165843D01*
X0347329Y0165143D01*
X0347329Y0163742D01*
X0348030Y0163041D01*
X0351533Y0163041D02*
X0351533Y0165843D01*
X0357329Y0164442D02*
X0361533Y0164442D01*
X0361533Y0163041D02*
X0361533Y0165843D01*
X0358731Y0163041D02*
X0357329Y0164442D01*
X0358030Y0161239D02*
X0357329Y0160539D01*
X0357329Y0159138D01*
X0358030Y0158437D01*
X0358030Y0156635D02*
X0359431Y0156635D01*
X0360132Y0155935D01*
X0360132Y0153833D01*
X0361533Y0153833D02*
X0357329Y0153833D01*
X0357329Y0155935D01*
X0358030Y0156635D01*
X0360132Y0155234D02*
X0361533Y0156635D01*
X0361533Y0158437D02*
X0358731Y0161239D01*
X0358030Y0161239D01*
X0361533Y0161239D02*
X0361533Y0158437D01*
X0351533Y0156635D02*
X0350132Y0155234D01*
X0301019Y0146933D02*
X0301021Y0147008D01*
X0301027Y0147082D01*
X0301037Y0147156D01*
X0301050Y0147229D01*
X0301068Y0147302D01*
X0301089Y0147373D01*
X0301114Y0147444D01*
X0301143Y0147513D01*
X0301176Y0147580D01*
X0301212Y0147645D01*
X0301251Y0147709D01*
X0301293Y0147770D01*
X0301339Y0147829D01*
X0301388Y0147886D01*
X0301440Y0147939D01*
X0301494Y0147990D01*
X0301551Y0148039D01*
X0301611Y0148083D01*
X0301673Y0148125D01*
X0301737Y0148164D01*
X0301803Y0148199D01*
X0301870Y0148230D01*
X0301940Y0148258D01*
X0302010Y0148282D01*
X0302082Y0148303D01*
X0302155Y0148319D01*
X0302228Y0148332D01*
X0302303Y0148341D01*
X0302377Y0148346D01*
X0302452Y0148347D01*
X0302526Y0148344D01*
X0302601Y0148337D01*
X0302674Y0148326D01*
X0302748Y0148312D01*
X0302820Y0148293D01*
X0302891Y0148271D01*
X0302961Y0148245D01*
X0303030Y0148215D01*
X0303096Y0148182D01*
X0303161Y0148145D01*
X0303224Y0148105D01*
X0303285Y0148061D01*
X0303343Y0148015D01*
X0303399Y0147965D01*
X0303452Y0147913D01*
X0303503Y0147858D01*
X0303550Y0147800D01*
X0303594Y0147740D01*
X0303635Y0147677D01*
X0303673Y0147613D01*
X0303707Y0147547D01*
X0303738Y0147478D01*
X0303765Y0147409D01*
X0303788Y0147338D01*
X0303807Y0147266D01*
X0303823Y0147193D01*
X0303835Y0147119D01*
X0303843Y0147045D01*
X0303847Y0146970D01*
X0303847Y0146896D01*
X0303843Y0146821D01*
X0303835Y0146747D01*
X0303823Y0146673D01*
X0303807Y0146600D01*
X0303788Y0146528D01*
X0303765Y0146457D01*
X0303738Y0146388D01*
X0303707Y0146319D01*
X0303673Y0146253D01*
X0303635Y0146189D01*
X0303594Y0146126D01*
X0303550Y0146066D01*
X0303503Y0146008D01*
X0303452Y0145953D01*
X0303399Y0145901D01*
X0303343Y0145851D01*
X0303285Y0145805D01*
X0303224Y0145761D01*
X0303161Y0145721D01*
X0303096Y0145684D01*
X0303030Y0145651D01*
X0302961Y0145621D01*
X0302891Y0145595D01*
X0302820Y0145573D01*
X0302748Y0145554D01*
X0302674Y0145540D01*
X0302601Y0145529D01*
X0302526Y0145522D01*
X0302452Y0145519D01*
X0302377Y0145520D01*
X0302303Y0145525D01*
X0302228Y0145534D01*
X0302155Y0145547D01*
X0302082Y0145563D01*
X0302010Y0145584D01*
X0301940Y0145608D01*
X0301870Y0145636D01*
X0301803Y0145667D01*
X0301737Y0145702D01*
X0301673Y0145741D01*
X0301611Y0145783D01*
X0301551Y0145827D01*
X0301494Y0145876D01*
X0301440Y0145927D01*
X0301388Y0145980D01*
X0301339Y0146037D01*
X0301293Y0146096D01*
X0301251Y0146157D01*
X0301212Y0146221D01*
X0301176Y0146286D01*
X0301143Y0146353D01*
X0301114Y0146422D01*
X0301089Y0146493D01*
X0301068Y0146564D01*
X0301050Y0146637D01*
X0301037Y0146710D01*
X0301027Y0146784D01*
X0301021Y0146858D01*
X0301019Y0146933D01*
X0413913Y0166984D02*
X0415882Y0166984D01*
X0415882Y0168953D01*
X0415882Y0183913D02*
X0415882Y0185882D01*
X0413913Y0185882D01*
X0386643Y0227333D02*
X0385242Y0227333D01*
X0384541Y0228034D01*
X0385242Y0229435D02*
X0386643Y0229435D01*
X0387343Y0228734D01*
X0387343Y0228034D01*
X0386643Y0227333D01*
X0385242Y0229435D02*
X0384541Y0230135D01*
X0384541Y0230836D01*
X0385242Y0231537D01*
X0386643Y0231537D01*
X0387343Y0230836D01*
X0382739Y0230836D02*
X0382039Y0231537D01*
X0380638Y0231537D01*
X0379937Y0230836D01*
X0379937Y0230135D01*
X0380638Y0229435D01*
X0382039Y0229435D01*
X0382739Y0228734D01*
X0382739Y0228034D01*
X0382039Y0227333D01*
X0380638Y0227333D01*
X0379937Y0228034D01*
X0378135Y0227333D02*
X0376734Y0228734D01*
X0377435Y0228734D02*
X0375333Y0228734D01*
X0375333Y0227333D02*
X0375333Y0231537D01*
X0377435Y0231537D01*
X0378135Y0230836D01*
X0378135Y0229435D01*
X0377435Y0228734D01*
D11*
X0388883Y0221931D02*
X0391619Y0221931D01*
X0390251Y0219880D02*
X0388883Y0219880D01*
X0388883Y0221931D02*
X0388883Y0217828D01*
X0388883Y0201931D02*
X0388883Y0198512D01*
X0389567Y0197828D01*
X0390935Y0197828D01*
X0391619Y0198512D01*
X0391619Y0201931D01*
X0319107Y0119668D02*
X0316602Y0119668D01*
X0316602Y0114659D01*
X0319107Y0114659D01*
X0319942Y0115494D01*
X0319942Y0118833D01*
X0319107Y0119668D01*
X0314504Y0119668D02*
X0311164Y0114659D01*
X0309066Y0114659D02*
X0307396Y0116329D01*
X0308231Y0116329D02*
X0305727Y0116329D01*
X0305727Y0114659D02*
X0305727Y0119668D01*
X0308231Y0119668D01*
X0309066Y0118833D01*
X0309066Y0117164D01*
X0308231Y0116329D01*
X0311164Y0119668D02*
X0314504Y0114659D01*
X0314504Y0108743D02*
X0311164Y0103733D01*
X0314504Y0103733D02*
X0311164Y0108743D01*
X0309066Y0108743D02*
X0305727Y0108743D01*
X0307396Y0108743D02*
X0307396Y0103733D01*
X0308231Y0097818D02*
X0305727Y0097818D01*
X0305727Y0092808D01*
X0305727Y0094478D02*
X0308231Y0094478D01*
X0309066Y0095313D01*
X0309066Y0096983D01*
X0308231Y0097818D01*
X0311164Y0097818D02*
X0311164Y0092808D01*
X0312834Y0094478D01*
X0314504Y0092808D01*
X0314504Y0097818D01*
X0316602Y0097818D02*
X0319107Y0097818D01*
X0319942Y0096983D01*
X0319942Y0095313D01*
X0319107Y0094478D01*
X0316602Y0094478D01*
X0316602Y0092808D02*
X0316602Y0097818D01*
X0318272Y0094478D02*
X0319942Y0092808D01*
X0319942Y0086893D02*
X0316602Y0086893D01*
X0318272Y0086893D02*
X0318272Y0081883D01*
X0314504Y0082718D02*
X0313669Y0081883D01*
X0311999Y0081883D01*
X0311164Y0082718D01*
X0311164Y0086058D01*
X0311999Y0086893D01*
X0313669Y0086893D01*
X0314504Y0086058D01*
X0309066Y0085223D02*
X0309066Y0081883D01*
X0309066Y0084388D02*
X0305727Y0084388D01*
X0305727Y0085223D02*
X0307396Y0086893D01*
X0309066Y0085223D01*
X0305727Y0085223D02*
X0305727Y0081883D01*
X0316602Y0103733D02*
X0319107Y0103733D01*
X0319942Y0104568D01*
X0319942Y0107908D01*
X0319107Y0108743D01*
X0316602Y0108743D01*
X0316602Y0103733D01*
X0083619Y0123512D02*
X0082935Y0122828D01*
X0081567Y0122828D01*
X0080883Y0123512D01*
X0081567Y0124880D02*
X0082935Y0124880D01*
X0083619Y0124196D01*
X0083619Y0123512D01*
X0081567Y0124880D02*
X0080883Y0125564D01*
X0080883Y0126248D01*
X0081567Y0126931D01*
X0082935Y0126931D01*
X0083619Y0126248D01*
X0082935Y0142828D02*
X0083619Y0143512D01*
X0082935Y0142828D02*
X0081567Y0142828D01*
X0080883Y0143512D01*
X0080883Y0146248D01*
X0081567Y0146931D01*
X0082935Y0146931D01*
X0083619Y0146248D01*
D12*
X0300433Y0122933D02*
X0300433Y0111933D01*
X0300433Y0107433D01*
X0304933Y0111933D01*
X0300433Y0111933D01*
X0382433Y0111933D01*
X0382433Y0100933D01*
X0382433Y0089933D01*
X0382433Y0078933D01*
X0324933Y0078933D01*
X0320433Y0078933D01*
X0324933Y0083433D01*
X0324933Y0078933D01*
X0324933Y0122933D01*
X0382433Y0122933D01*
X0382433Y0111933D01*
X0382433Y0100933D02*
X0300433Y0100933D01*
X0300433Y0096433D01*
X0304933Y0100933D01*
X0300433Y0100933D01*
X0300433Y0111933D01*
X0300433Y0111881D02*
X0304881Y0111881D01*
X0304095Y0111095D02*
X0300433Y0111095D01*
X0300433Y0110309D02*
X0303309Y0110309D01*
X0302523Y0109523D02*
X0300433Y0109523D01*
X0300433Y0108737D02*
X0301737Y0108737D01*
X0300951Y0107951D02*
X0300433Y0107951D01*
X0300433Y0100933D02*
X0300433Y0089933D01*
X0300433Y0085433D01*
X0304933Y0089933D01*
X0300433Y0089933D01*
X0382433Y0089933D01*
X0324933Y0089933D02*
X0320433Y0089933D01*
X0324933Y0094433D01*
X0324933Y0089933D01*
X0324933Y0090661D02*
X0321161Y0090661D01*
X0321947Y0091447D02*
X0324933Y0091447D01*
X0324933Y0092233D02*
X0322733Y0092233D01*
X0323519Y0093019D02*
X0324933Y0093019D01*
X0324933Y0093805D02*
X0324305Y0093805D01*
X0324933Y0100933D02*
X0320433Y0100933D01*
X0324933Y0105433D01*
X0324933Y0100933D01*
X0324933Y0101664D02*
X0321164Y0101664D01*
X0321950Y0102450D02*
X0324933Y0102450D01*
X0324933Y0103236D02*
X0322736Y0103236D01*
X0323522Y0104022D02*
X0324933Y0104022D01*
X0324933Y0104807D02*
X0324307Y0104807D01*
X0324933Y0111933D02*
X0320433Y0111933D01*
X0324933Y0116433D01*
X0324933Y0111933D01*
X0324933Y0112667D02*
X0321167Y0112667D01*
X0321953Y0113453D02*
X0324933Y0113453D01*
X0324933Y0114238D02*
X0322738Y0114238D01*
X0323524Y0115024D02*
X0324933Y0115024D01*
X0324933Y0115810D02*
X0324310Y0115810D01*
X0324933Y0122933D02*
X0300433Y0122933D01*
X0300433Y0118433D01*
X0304933Y0122933D01*
X0300433Y0122933D01*
X0300433Y0122883D02*
X0304883Y0122883D01*
X0304098Y0122098D02*
X0300433Y0122098D01*
X0300433Y0121312D02*
X0303312Y0121312D01*
X0302526Y0120526D02*
X0300433Y0120526D01*
X0300433Y0119740D02*
X0301740Y0119740D01*
X0300954Y0118954D02*
X0300433Y0118954D01*
X0300433Y0100878D02*
X0304878Y0100878D01*
X0304092Y0100092D02*
X0300433Y0100092D01*
X0300433Y0099306D02*
X0303306Y0099306D01*
X0302520Y0098520D02*
X0300433Y0098520D01*
X0300433Y0097734D02*
X0301734Y0097734D01*
X0300948Y0096948D02*
X0300433Y0096948D01*
X0300433Y0089933D02*
X0300433Y0078933D01*
X0324933Y0078933D01*
X0324933Y0079658D02*
X0321158Y0079658D01*
X0321944Y0080444D02*
X0324933Y0080444D01*
X0324933Y0081230D02*
X0322730Y0081230D01*
X0323516Y0082016D02*
X0324933Y0082016D01*
X0324933Y0082802D02*
X0324302Y0082802D01*
X0304875Y0089875D02*
X0300433Y0089875D01*
X0300433Y0089089D02*
X0304089Y0089089D01*
X0303303Y0088303D02*
X0300433Y0088303D01*
X0300433Y0087517D02*
X0302517Y0087517D01*
X0301731Y0086731D02*
X0300433Y0086731D01*
X0300433Y0085946D02*
X0300946Y0085946D01*
D13*
X0388933Y0208433D02*
X0391933Y0211433D01*
X0391933Y0208433D02*
X0388933Y0211433D01*
X0083933Y0136433D02*
X0080933Y0133433D01*
X0083933Y0133433D02*
X0080933Y0136433D01*
D14*
X0348280Y0119238D02*
X0349360Y0118158D01*
X0348280Y0119238D02*
X0351520Y0119238D01*
X0351520Y0118158D02*
X0351520Y0120318D01*
X0350980Y0116693D02*
X0348820Y0116693D01*
X0348280Y0116153D01*
X0348280Y0114533D01*
X0351520Y0114533D01*
X0351520Y0116153D01*
X0350980Y0116693D01*
X0351520Y0109318D02*
X0351520Y0107158D01*
X0349360Y0109318D01*
X0348820Y0109318D01*
X0348280Y0108778D01*
X0348280Y0107698D01*
X0348820Y0107158D01*
X0348820Y0105693D02*
X0348280Y0105153D01*
X0348280Y0103533D01*
X0351520Y0103533D01*
X0351520Y0105153D01*
X0350980Y0105693D01*
X0348820Y0105693D01*
X0348820Y0098318D02*
X0349360Y0098318D01*
X0349900Y0097778D01*
X0350440Y0098318D01*
X0350980Y0098318D01*
X0351520Y0097778D01*
X0351520Y0096698D01*
X0350980Y0096158D01*
X0350980Y0094693D02*
X0348820Y0094693D01*
X0348280Y0094153D01*
X0348280Y0092533D01*
X0351520Y0092533D01*
X0351520Y0094153D01*
X0350980Y0094693D01*
X0348820Y0096158D02*
X0348280Y0096698D01*
X0348280Y0097778D01*
X0348820Y0098318D01*
X0349900Y0097778D02*
X0349900Y0097238D01*
X0349900Y0087318D02*
X0349900Y0085158D01*
X0348280Y0086778D01*
X0351520Y0086778D01*
X0350980Y0083693D02*
X0348820Y0083693D01*
X0348280Y0083153D01*
X0348280Y0081533D01*
X0351520Y0081533D01*
X0351520Y0083153D01*
X0350980Y0083693D01*
X0376343Y0083403D02*
X0376883Y0083943D01*
X0377963Y0083943D01*
X0378503Y0083403D01*
X0378503Y0081783D01*
X0378503Y0082863D02*
X0379583Y0083943D01*
X0379583Y0081783D02*
X0376343Y0081783D01*
X0376343Y0083403D01*
X0377963Y0085408D02*
X0377963Y0087568D01*
X0379583Y0087028D02*
X0376343Y0087028D01*
X0377963Y0085408D01*
X0378503Y0092783D02*
X0378503Y0094403D01*
X0377963Y0094943D01*
X0376883Y0094943D01*
X0376343Y0094403D01*
X0376343Y0092783D01*
X0379583Y0092783D01*
X0378503Y0093863D02*
X0379583Y0094943D01*
X0379043Y0096408D02*
X0379583Y0096948D01*
X0379583Y0098028D01*
X0379043Y0098568D01*
X0378503Y0098568D01*
X0377963Y0098028D01*
X0377963Y0097488D01*
X0377963Y0098028D02*
X0377423Y0098568D01*
X0376883Y0098568D01*
X0376343Y0098028D01*
X0376343Y0096948D01*
X0376883Y0096408D01*
X0376343Y0103783D02*
X0376343Y0105403D01*
X0376883Y0105943D01*
X0377963Y0105943D01*
X0378503Y0105403D01*
X0378503Y0103783D01*
X0378503Y0104863D02*
X0379583Y0105943D01*
X0379583Y0107408D02*
X0377423Y0109568D01*
X0376883Y0109568D01*
X0376343Y0109028D01*
X0376343Y0107948D01*
X0376883Y0107408D01*
X0379583Y0107408D02*
X0379583Y0109568D01*
X0379583Y0114783D02*
X0376343Y0114783D01*
X0376343Y0116403D01*
X0376883Y0116943D01*
X0377963Y0116943D01*
X0378503Y0116403D01*
X0378503Y0114783D01*
X0378503Y0115863D02*
X0379583Y0116943D01*
X0379583Y0118408D02*
X0379583Y0120568D01*
X0379583Y0119488D02*
X0376343Y0119488D01*
X0377423Y0118408D01*
X0376343Y0103783D02*
X0379583Y0103783D01*
X0418938Y0127143D02*
X0420018Y0128223D01*
X0418938Y0129303D01*
X0422178Y0129303D01*
X0422178Y0130768D02*
X0422178Y0131848D01*
X0422178Y0131308D02*
X0418938Y0131308D01*
X0418938Y0130768D02*
X0418938Y0131848D01*
X0419478Y0133185D02*
X0421638Y0133185D01*
X0422178Y0133725D01*
X0422178Y0134805D01*
X0421638Y0135345D01*
X0422178Y0136810D02*
X0418938Y0136810D01*
X0418938Y0138430D01*
X0419478Y0138970D01*
X0420558Y0138970D01*
X0421098Y0138430D01*
X0421098Y0136810D01*
X0421098Y0137890D02*
X0422178Y0138970D01*
X0421638Y0140435D02*
X0419478Y0140435D01*
X0418938Y0140975D01*
X0418938Y0142055D01*
X0419478Y0142595D01*
X0421638Y0142595D01*
X0422178Y0142055D01*
X0422178Y0140975D01*
X0421638Y0140435D01*
X0424843Y0139034D02*
X0425383Y0139574D01*
X0425923Y0139574D01*
X0426463Y0139034D01*
X0426463Y0137415D01*
X0427003Y0135949D02*
X0427543Y0135949D01*
X0428083Y0135409D01*
X0428083Y0134329D01*
X0427543Y0133789D01*
X0426463Y0134329D02*
X0426463Y0135409D01*
X0427003Y0135949D01*
X0425383Y0135949D02*
X0424843Y0135409D01*
X0424843Y0134329D01*
X0425383Y0133789D01*
X0425923Y0133789D01*
X0426463Y0134329D01*
X0427543Y0132324D02*
X0424843Y0132324D01*
X0424843Y0130164D02*
X0427543Y0130164D01*
X0428083Y0130704D01*
X0428083Y0131784D01*
X0427543Y0132324D01*
X0428083Y0137415D02*
X0428083Y0139034D01*
X0427543Y0139574D01*
X0427003Y0139574D01*
X0426463Y0139034D01*
X0424843Y0139034D02*
X0424843Y0137415D01*
X0428083Y0137415D01*
X0419478Y0135345D02*
X0418938Y0134805D01*
X0418938Y0133725D01*
X0419478Y0133185D01*
X0418938Y0127143D02*
X0422178Y0127143D01*
D15*
X0366233Y0217433D02*
X0363633Y0217433D01*
X0181233Y0217433D02*
X0178633Y0217433D01*
D16*
X0239130Y0191374D03*
D17*
X0245433Y0193047D02*
X0250433Y0193047D01*
X0250433Y0199740D02*
X0245433Y0199740D01*
X0245433Y0206433D02*
X0250433Y0206433D01*
X0250433Y0213126D02*
X0245433Y0213126D01*
X0245433Y0219819D02*
X0250433Y0219819D01*
D18*
X0129933Y0200819D03*
X0111433Y0200819D03*
X0092933Y0200819D03*
M02*
