%
M48
M72
T01C0.0157
T02C0.0197
T03C0.0236
T04C0.0315
T05C0.0394
T06C0.0472
T07C0.0551
T08C0.0630
T09C0.1575
%
T01
X10393Y6943
X7143Y8643
X7443Y9143
X7143Y10393
X6643Y10693
X6643Y11193
X8043Y11093
X8043Y11543
X8043Y11943
X10143Y12393
X11643Y12143
X11643Y12643
X12143Y12143
X11643Y11643
X11543Y10543
X14643Y9643
X15643Y9643
X17393Y10643
X18893Y11643
X20293Y12643
X21643Y12993
X22143Y13143
X22443Y13393
X23393Y13643
X23893Y13643
X24393Y13643
X24893Y13643
X25243Y12643
X24943Y11643
X24643Y11243
X24143Y11643
X23643Y11943
X23143Y12643
X23093Y11143
X22693Y11143
X22293Y9893
X21793Y9393
X22893Y8743
X23393Y8743
X23893Y8743
X25143Y8643
X25643Y8643
X26393Y10143
X25943Y10293
X25543Y10293
X25943Y10693
X26343Y10693
X30393Y12643
X30793Y12943
X30393Y13393
X30643Y13643
X30893Y13893
X30493Y14743
X28643Y14893
X28643Y14393
X28643Y13893
X28643Y13393
X26843Y14293
X26643Y15143
X26143Y15143
X24893Y14893
X24393Y14893
X23893Y14893
X23393Y14893
X22643Y14893
X22093Y14893
X22093Y15743
X22093Y16143
X22643Y16143
X22393Y16543
X21793Y16543
X21393Y16543
X20993Y15793
X20493Y15293
X19643Y14643
X18993Y15143
X18993Y15493
X18393Y16143
X16893Y15893
X16893Y15393
X16893Y14893
X16893Y14393
X16843Y13493
X15143Y13393
X14643Y13393
X15143Y12943
X15143Y13893
X14643Y14393
X15143Y15143
X14643Y15893
X11893Y14993
X11893Y14293
X10143Y14393
X9643Y14393
X9643Y13893
X9943Y15093
X10643Y15393
X10643Y15893
X18143Y17643
X18593Y17893
X18843Y17593
X18343Y18193
X18093Y18493
X20743Y14393
X20743Y13793
X20343Y10643
X20343Y10243
X20143Y9643
X18893Y8993
X18843Y7993
X18843Y7643
X18843Y7293
X18343Y7993
X17643Y6643
X17393Y6143
X17393Y5143
X21293Y5443
X24093Y7093
X24593Y7093
X32893Y12843
X33393Y12843
X34843Y12843
X35343Y12843
X37393Y14393
X38293Y14143
X37893Y13743
X39643Y14243
X40043Y14193
X40243Y13393
X39193Y12493
X38043Y12643
X39493Y15643
X38293Y16143
X40393Y17393
X40893Y17393
X40893Y17893
X40393Y17893
X39293Y18793
X38293Y18143
X37893Y19143
X35893Y18143
X34143Y16893
X33643Y16393
X33143Y16893
X35893Y20393
X34143Y21143
X42243Y18093
X42243Y17493
X42243Y17043
X42243Y16143
X41143Y15993
X40543Y9393
X39143Y7643
X38643Y7643
X38643Y7143
X37843Y7143
X37843Y6643
X36543Y7643
T02
X41537Y12698
X41537Y14273
T03
X21643Y19643
X20893Y19643
X20893Y20643
X21643Y20643
X21643Y21643
X20893Y21643
T04
X16643Y11143
X16643Y10143
X16643Y9143
X16643Y8143
X16643Y7143
X16643Y6143
X16643Y5143
X13643Y5143
X13643Y6143
X13643Y7143
X13643Y8143
X13643Y9143
X13643Y10143
X13643Y11143
T05
X8643Y5143
X9643Y5143
X9643Y6643
X8643Y6643
X7344Y12486
X7344Y13486
X7344Y14486
X32143Y6143
X32143Y5143
X33143Y5143
X34143Y5143
X35143Y5143
X36143Y5143
X36143Y6143
X35143Y6143
X34143Y6143
X33143Y6143
X38143Y19993
X38143Y20993
X38143Y21993
T06
X41084Y14883
X42422Y14883
X42422Y12088
X41084Y12088
X5631Y12698
X4332Y12698
X4332Y14273
X5631Y14273
X5631Y15848
X4332Y15848
X4332Y17423
X5631Y17423
X5631Y18998
X4332Y18998
X4332Y11124
X5631Y11124
X5631Y9549
X4332Y9549
X4332Y7974
X5631Y7974
T07
X8506Y22739
X13781Y22739
T08
X12994Y18999
X11143Y18999
X9293Y18999
T09
X5612Y21360
X5612Y5612
X41045Y5612
X41045Y21360
M30
