%
M48
M72
T01C0.0157
T02C0.0236
T03C0.0315
T04C0.0394
T05C0.0472
T06C0.0512
T07C0.0551
T08C0.0630
T09C0.1575
%
T01
X10393Y6943
X7143Y8643
X7443Y9143
X7143Y10393
X6643Y10693
X6643Y11193
X8043Y11093
X8043Y11543
X8043Y11943
X10143Y12393
X11643Y12143
X11643Y12643
X12143Y12143
X11643Y11643
X11643Y10643
X14643Y9643
X15643Y9643
X17393Y10643
X18893Y11643
X20293Y12693
X21643Y12993
X22143Y13143
X22443Y13393
X23143Y12693
X23643Y11943
X24143Y11643
X24643Y11243
X24943Y11643
X26293Y10793
X26043Y10543
X25793Y10293
X25543Y10043
X26643Y9693
X25643Y8693
X25143Y8693
X24043Y8643
X22643Y8743
X21793Y9393
X22293Y9893
X21643Y10093
X22793Y10293
X23143Y10143
X23143Y9793
X23493Y9793
X21643Y11043
X22693Y11143
X23093Y11143
X20343Y10643
X20343Y10243
X20143Y9643
X20143Y8393
X20843Y8393
X17393Y6143
X17393Y5143
X26043Y7143
X26543Y7143
X31143Y8643
X32293Y9293
X32293Y9793
X29643Y10643
X28393Y11143
X31443Y12143
X29543Y13693
X29943Y13893
X29093Y13693
X27343Y13993
X26993Y14293
X26643Y15143
X26143Y15143
X23143Y16143
X22743Y16193
X22443Y16543
X22043Y16543
X22093Y16143
X22243Y15743
X21793Y14943
X22693Y14943
X20643Y15143
X20643Y16143
X18993Y15493
X18993Y15143
X18393Y16143
X16893Y15893
X16893Y15393
X16893Y14893
X16893Y14393
X16843Y13493
X15143Y13393
X14643Y13393
X15143Y12943
X15143Y13893
X14643Y14393
X15143Y15143
X14643Y15893
X11893Y14993
X11893Y14293
X10143Y14393
X9643Y14393
X9643Y13893
X9943Y15093
X10643Y15393
X10643Y15893
X18893Y20343
X22493Y20343
X22093Y18143
X22093Y17743
X22093Y17343
X20543Y17643
X20143Y17643
X19743Y17643
X20143Y18043
X20343Y14093
X20693Y14093
X31143Y14643
X33443Y15443
X33443Y15943
X37043Y15143
X38143Y16143
X38643Y16143
X41193Y15693
X42493Y16643
X42193Y17143
X42193Y17793
X41893Y18893
X39993Y13573
X37893Y12993
X39943Y11593
X40293Y11593
X40893Y12143
X37893Y8993
T02
X41597Y12698
X41597Y14273
T03
X31643Y16693
X31643Y18093
X31643Y20193
X31643Y21593
X16643Y11143
X16643Y10143
X16643Y9143
X16643Y8143
X16643Y7143
X16643Y6143
X16643Y5143
X13643Y5143
X13643Y6143
X13643Y7143
X13643Y8143
X13643Y9143
X13643Y10143
X13643Y11143
T04
X8643Y5143
X9643Y5143
X9643Y6643
X8643Y6643
X18393Y4693
X19393Y4693
X32143Y5143
X32143Y6143
X33143Y6143
X34143Y6143
X35143Y6143
X36143Y6143
X36143Y5143
X35143Y5143
X34143Y5143
X33143Y5143
X7344Y12486
X7344Y13486
X7344Y14486
T05
X5631Y14273
X4332Y14273
X4332Y12698
X5631Y12698
X5631Y11124
X4332Y11124
X4332Y9549
X5631Y9549
X5631Y7974
X4332Y7974
X4332Y15848
X5631Y15848
X5631Y17423
X4332Y17423
X4332Y18998
X5631Y18998
T06
X16143Y19143
X17643Y19143
X17643Y21143
X16143Y21143
X40643Y17643
T07
X13781Y22739
X8506Y22739
T08
X9293Y18999
X11143Y18999
X12994Y18999
T09
X5612Y21360
X5612Y5612
X41045Y5612
X41045Y21360
M30
