G75*
%MOIN*%
%OFA0B0*%
%FSLAX25Y25*%
%IPPOS*%
%LPD*%
%AMOC8*
5,1,8,0,0,1.08239X$1,22.5*
%
%ADD10C,0.00939*%
%ADD11R,0.06784X0.06784*%
%ADD12C,0.06784*%
%ADD13C,0.00867*%
%ADD14C,0.00851*%
%ADD15C,0.00770*%
%ADD16C,0.08280*%
%ADD17R,0.08280X0.08280*%
%ADD18C,0.00819*%
%ADD19C,0.01031*%
%ADD20C,0.16548*%
%ADD21C,0.00924*%
%ADD22C,0.00969*%
%ADD23C,0.09918*%
%ADD24C,0.11099*%
%ADD25R,0.11099X0.11099*%
%ADD26C,0.10312*%
%ADD27C,0.00827*%
%ADD28C,0.00914*%
%ADD29C,0.01127*%
%ADD30C,0.09524*%
%ADD31R,0.09524X0.09524*%
%ADD32C,0.01102*%
%ADD33C,0.00911*%
%ADD34C,0.03162*%
%ADD35C,0.01097*%
D10*
X0106701Y0047565D02*
X0112469Y0047565D01*
X0106701Y0047565D02*
X0106701Y0055301D01*
X0112469Y0055301D01*
X0112469Y0047565D01*
X0112469Y0048503D02*
X0106701Y0048503D01*
X0106701Y0049441D02*
X0112469Y0049441D01*
X0112469Y0050379D02*
X0106701Y0050379D01*
X0106701Y0051317D02*
X0112469Y0051317D01*
X0112469Y0052255D02*
X0106701Y0052255D01*
X0106701Y0053193D02*
X0112469Y0053193D01*
X0112469Y0054131D02*
X0106701Y0054131D01*
X0106701Y0055069D02*
X0112469Y0055069D01*
X0120397Y0047565D02*
X0126165Y0047565D01*
X0120397Y0047565D02*
X0120397Y0055301D01*
X0126165Y0055301D01*
X0126165Y0047565D01*
X0126165Y0048503D02*
X0120397Y0048503D01*
X0120397Y0049441D02*
X0126165Y0049441D01*
X0126165Y0050379D02*
X0120397Y0050379D01*
X0120397Y0051317D02*
X0126165Y0051317D01*
X0126165Y0052255D02*
X0120397Y0052255D01*
X0120397Y0053193D02*
X0126165Y0053193D01*
X0126165Y0054131D02*
X0120397Y0054131D01*
X0120397Y0055069D02*
X0126165Y0055069D01*
X0126165Y0062565D02*
X0120397Y0062565D01*
X0120397Y0070301D01*
X0126165Y0070301D01*
X0126165Y0062565D01*
X0126165Y0063503D02*
X0120397Y0063503D01*
X0120397Y0064441D02*
X0126165Y0064441D01*
X0126165Y0065379D02*
X0120397Y0065379D01*
X0120397Y0066317D02*
X0126165Y0066317D01*
X0126165Y0067255D02*
X0120397Y0067255D01*
X0120397Y0068193D02*
X0126165Y0068193D01*
X0126165Y0069131D02*
X0120397Y0069131D01*
X0120397Y0070069D02*
X0126165Y0070069D01*
X0112469Y0062565D02*
X0106701Y0062565D01*
X0106701Y0070301D01*
X0112469Y0070301D01*
X0112469Y0062565D01*
X0112469Y0063503D02*
X0106701Y0063503D01*
X0106701Y0064441D02*
X0112469Y0064441D01*
X0112469Y0065379D02*
X0106701Y0065379D01*
X0106701Y0066317D02*
X0112469Y0066317D01*
X0112469Y0067255D02*
X0106701Y0067255D01*
X0106701Y0068193D02*
X0112469Y0068193D01*
X0112469Y0069131D02*
X0106701Y0069131D01*
X0106701Y0070069D02*
X0112469Y0070069D01*
X0111165Y0077565D02*
X0105397Y0077565D01*
X0105397Y0085301D01*
X0111165Y0085301D01*
X0111165Y0077565D01*
X0111165Y0078503D02*
X0105397Y0078503D01*
X0105397Y0079441D02*
X0111165Y0079441D01*
X0111165Y0080379D02*
X0105397Y0080379D01*
X0105397Y0081317D02*
X0111165Y0081317D01*
X0111165Y0082255D02*
X0105397Y0082255D01*
X0105397Y0083193D02*
X0111165Y0083193D01*
X0111165Y0084131D02*
X0105397Y0084131D01*
X0105397Y0085069D02*
X0111165Y0085069D01*
X0111165Y0087565D02*
X0105397Y0087565D01*
X0105397Y0095301D01*
X0111165Y0095301D01*
X0111165Y0087565D01*
X0111165Y0088503D02*
X0105397Y0088503D01*
X0105397Y0089441D02*
X0111165Y0089441D01*
X0111165Y0090379D02*
X0105397Y0090379D01*
X0105397Y0091317D02*
X0111165Y0091317D01*
X0111165Y0092255D02*
X0105397Y0092255D01*
X0105397Y0093193D02*
X0111165Y0093193D01*
X0111165Y0094131D02*
X0105397Y0094131D01*
X0105397Y0095069D02*
X0111165Y0095069D01*
X0111165Y0097565D02*
X0105397Y0097565D01*
X0105397Y0105301D01*
X0111165Y0105301D01*
X0111165Y0097565D01*
X0111165Y0098503D02*
X0105397Y0098503D01*
X0105397Y0099441D02*
X0111165Y0099441D01*
X0111165Y0100379D02*
X0105397Y0100379D01*
X0105397Y0101317D02*
X0111165Y0101317D01*
X0111165Y0102255D02*
X0105397Y0102255D01*
X0105397Y0103193D02*
X0111165Y0103193D01*
X0111165Y0104131D02*
X0105397Y0104131D01*
X0105397Y0105069D02*
X0111165Y0105069D01*
X0125301Y0101165D02*
X0125301Y0095397D01*
X0117565Y0095397D01*
X0117565Y0101165D01*
X0125301Y0101165D01*
X0125301Y0096335D02*
X0117565Y0096335D01*
X0117565Y0097273D02*
X0125301Y0097273D01*
X0125301Y0098211D02*
X0117565Y0098211D01*
X0117565Y0099149D02*
X0125301Y0099149D01*
X0125301Y0100087D02*
X0117565Y0100087D01*
X0117565Y0101025D02*
X0125301Y0101025D01*
X0125301Y0087469D02*
X0125301Y0081701D01*
X0117565Y0081701D01*
X0117565Y0087469D01*
X0125301Y0087469D01*
X0125301Y0082639D02*
X0117565Y0082639D01*
X0117565Y0083577D02*
X0125301Y0083577D01*
X0125301Y0084515D02*
X0117565Y0084515D01*
X0117565Y0085453D02*
X0125301Y0085453D01*
X0125301Y0086391D02*
X0117565Y0086391D01*
X0117565Y0087329D02*
X0125301Y0087329D01*
X0097469Y0087565D02*
X0091701Y0087565D01*
X0091701Y0095301D01*
X0097469Y0095301D01*
X0097469Y0087565D01*
X0097469Y0088503D02*
X0091701Y0088503D01*
X0091701Y0089441D02*
X0097469Y0089441D01*
X0097469Y0090379D02*
X0091701Y0090379D01*
X0091701Y0091317D02*
X0097469Y0091317D01*
X0097469Y0092255D02*
X0091701Y0092255D01*
X0091701Y0093193D02*
X0097469Y0093193D01*
X0097469Y0094131D02*
X0091701Y0094131D01*
X0091701Y0095069D02*
X0097469Y0095069D01*
X0097469Y0097565D02*
X0091701Y0097565D01*
X0091701Y0105301D01*
X0097469Y0105301D01*
X0097469Y0097565D01*
X0097469Y0098503D02*
X0091701Y0098503D01*
X0091701Y0099441D02*
X0097469Y0099441D01*
X0097469Y0100379D02*
X0091701Y0100379D01*
X0091701Y0101317D02*
X0097469Y0101317D01*
X0097469Y0102255D02*
X0091701Y0102255D01*
X0091701Y0103193D02*
X0097469Y0103193D01*
X0097469Y0104131D02*
X0091701Y0104131D01*
X0091701Y0105069D02*
X0097469Y0105069D01*
X0097469Y0120065D02*
X0091701Y0120065D01*
X0091701Y0127801D01*
X0097469Y0127801D01*
X0097469Y0120065D01*
X0097469Y0121003D02*
X0091701Y0121003D01*
X0091701Y0121941D02*
X0097469Y0121941D01*
X0097469Y0122879D02*
X0091701Y0122879D01*
X0091701Y0123817D02*
X0097469Y0123817D01*
X0097469Y0124755D02*
X0091701Y0124755D01*
X0091701Y0125693D02*
X0097469Y0125693D01*
X0097469Y0126631D02*
X0091701Y0126631D01*
X0091701Y0127569D02*
X0097469Y0127569D01*
X0105397Y0120065D02*
X0111165Y0120065D01*
X0105397Y0120065D02*
X0105397Y0127801D01*
X0111165Y0127801D01*
X0111165Y0120065D01*
X0111165Y0121003D02*
X0105397Y0121003D01*
X0105397Y0121941D02*
X0111165Y0121941D01*
X0111165Y0122879D02*
X0105397Y0122879D01*
X0105397Y0123817D02*
X0111165Y0123817D01*
X0111165Y0124755D02*
X0105397Y0124755D01*
X0105397Y0125693D02*
X0111165Y0125693D01*
X0111165Y0126631D02*
X0105397Y0126631D01*
X0105397Y0127569D02*
X0111165Y0127569D01*
X0130301Y0126701D02*
X0130301Y0132469D01*
X0130301Y0126701D02*
X0122565Y0126701D01*
X0122565Y0132469D01*
X0130301Y0132469D01*
X0130301Y0127639D02*
X0122565Y0127639D01*
X0122565Y0128577D02*
X0130301Y0128577D01*
X0130301Y0129515D02*
X0122565Y0129515D01*
X0122565Y0130453D02*
X0130301Y0130453D01*
X0130301Y0131391D02*
X0122565Y0131391D01*
X0122565Y0132329D02*
X0130301Y0132329D01*
X0130301Y0140397D02*
X0130301Y0146165D01*
X0130301Y0140397D02*
X0122565Y0140397D01*
X0122565Y0146165D01*
X0130301Y0146165D01*
X0130301Y0141335D02*
X0122565Y0141335D01*
X0122565Y0142273D02*
X0130301Y0142273D01*
X0130301Y0143211D02*
X0122565Y0143211D01*
X0122565Y0144149D02*
X0130301Y0144149D01*
X0130301Y0145087D02*
X0122565Y0145087D01*
X0122565Y0146025D02*
X0130301Y0146025D01*
X0130301Y0151701D02*
X0130301Y0157469D01*
X0130301Y0151701D02*
X0122565Y0151701D01*
X0122565Y0157469D01*
X0130301Y0157469D01*
X0130301Y0152639D02*
X0122565Y0152639D01*
X0122565Y0153577D02*
X0130301Y0153577D01*
X0130301Y0154515D02*
X0122565Y0154515D01*
X0122565Y0155453D02*
X0130301Y0155453D01*
X0130301Y0156391D02*
X0122565Y0156391D01*
X0122565Y0157329D02*
X0130301Y0157329D01*
X0130301Y0165397D02*
X0130301Y0171165D01*
X0130301Y0165397D02*
X0122565Y0165397D01*
X0122565Y0171165D01*
X0130301Y0171165D01*
X0130301Y0166335D02*
X0122565Y0166335D01*
X0122565Y0167273D02*
X0130301Y0167273D01*
X0130301Y0168211D02*
X0122565Y0168211D01*
X0122565Y0169149D02*
X0130301Y0169149D01*
X0130301Y0170087D02*
X0122565Y0170087D01*
X0122565Y0171025D02*
X0130301Y0171025D01*
X0180301Y0171165D02*
X0180301Y0165397D01*
X0172565Y0165397D01*
X0172565Y0171165D01*
X0180301Y0171165D01*
X0180301Y0166335D02*
X0172565Y0166335D01*
X0172565Y0167273D02*
X0180301Y0167273D01*
X0180301Y0168211D02*
X0172565Y0168211D01*
X0172565Y0169149D02*
X0180301Y0169149D01*
X0180301Y0170087D02*
X0172565Y0170087D01*
X0172565Y0171025D02*
X0180301Y0171025D01*
X0180301Y0157469D02*
X0180301Y0151701D01*
X0172565Y0151701D01*
X0172565Y0157469D01*
X0180301Y0157469D01*
X0180301Y0152639D02*
X0172565Y0152639D01*
X0172565Y0153577D02*
X0180301Y0153577D01*
X0180301Y0154515D02*
X0172565Y0154515D01*
X0172565Y0155453D02*
X0180301Y0155453D01*
X0180301Y0156391D02*
X0172565Y0156391D01*
X0172565Y0157329D02*
X0180301Y0157329D01*
X0200301Y0156165D02*
X0200301Y0150397D01*
X0192565Y0150397D01*
X0192565Y0156165D01*
X0200301Y0156165D01*
X0200301Y0151335D02*
X0192565Y0151335D01*
X0192565Y0152273D02*
X0200301Y0152273D01*
X0200301Y0153211D02*
X0192565Y0153211D01*
X0192565Y0154149D02*
X0200301Y0154149D01*
X0200301Y0155087D02*
X0192565Y0155087D01*
X0192565Y0156025D02*
X0200301Y0156025D01*
X0217801Y0159201D02*
X0217801Y0164969D01*
X0217801Y0159201D02*
X0210065Y0159201D01*
X0210065Y0164969D01*
X0217801Y0164969D01*
X0217801Y0160139D02*
X0210065Y0160139D01*
X0210065Y0161077D02*
X0217801Y0161077D01*
X0217801Y0162015D02*
X0210065Y0162015D01*
X0210065Y0162953D02*
X0217801Y0162953D01*
X0217801Y0163891D02*
X0210065Y0163891D01*
X0210065Y0164829D02*
X0217801Y0164829D01*
X0217801Y0172897D02*
X0217801Y0178665D01*
X0217801Y0172897D02*
X0210065Y0172897D01*
X0210065Y0178665D01*
X0217801Y0178665D01*
X0217801Y0173835D02*
X0210065Y0173835D01*
X0210065Y0174773D02*
X0217801Y0174773D01*
X0217801Y0175711D02*
X0210065Y0175711D01*
X0210065Y0176649D02*
X0217801Y0176649D01*
X0217801Y0177587D02*
X0210065Y0177587D01*
X0210065Y0178525D02*
X0217801Y0178525D01*
X0180301Y0146165D02*
X0180301Y0140397D01*
X0172565Y0140397D01*
X0172565Y0146165D01*
X0180301Y0146165D01*
X0180301Y0141335D02*
X0172565Y0141335D01*
X0172565Y0142273D02*
X0180301Y0142273D01*
X0180301Y0143211D02*
X0172565Y0143211D01*
X0172565Y0144149D02*
X0180301Y0144149D01*
X0180301Y0145087D02*
X0172565Y0145087D01*
X0172565Y0146025D02*
X0180301Y0146025D01*
X0200301Y0142469D02*
X0200301Y0136701D01*
X0192565Y0136701D01*
X0192565Y0142469D01*
X0200301Y0142469D01*
X0200301Y0137639D02*
X0192565Y0137639D01*
X0192565Y0138577D02*
X0200301Y0138577D01*
X0200301Y0139515D02*
X0192565Y0139515D01*
X0192565Y0140453D02*
X0200301Y0140453D01*
X0200301Y0141391D02*
X0192565Y0141391D01*
X0192565Y0142329D02*
X0200301Y0142329D01*
X0180301Y0132469D02*
X0180301Y0126701D01*
X0172565Y0126701D01*
X0172565Y0132469D01*
X0180301Y0132469D01*
X0180301Y0127639D02*
X0172565Y0127639D01*
X0172565Y0128577D02*
X0180301Y0128577D01*
X0180301Y0129515D02*
X0172565Y0129515D01*
X0172565Y0130453D02*
X0180301Y0130453D01*
X0180301Y0131391D02*
X0172565Y0131391D01*
X0172565Y0132329D02*
X0180301Y0132329D01*
X0161165Y0120065D02*
X0155397Y0120065D01*
X0155397Y0127801D01*
X0161165Y0127801D01*
X0161165Y0120065D01*
X0161165Y0121003D02*
X0155397Y0121003D01*
X0155397Y0121941D02*
X0161165Y0121941D01*
X0161165Y0122879D02*
X0155397Y0122879D01*
X0155397Y0123817D02*
X0161165Y0123817D01*
X0161165Y0124755D02*
X0155397Y0124755D01*
X0155397Y0125693D02*
X0161165Y0125693D01*
X0161165Y0126631D02*
X0155397Y0126631D01*
X0155397Y0127569D02*
X0161165Y0127569D01*
X0147469Y0120065D02*
X0141701Y0120065D01*
X0141701Y0127801D01*
X0147469Y0127801D01*
X0147469Y0120065D01*
X0147469Y0121003D02*
X0141701Y0121003D01*
X0141701Y0121941D02*
X0147469Y0121941D01*
X0147469Y0122879D02*
X0141701Y0122879D01*
X0141701Y0123817D02*
X0147469Y0123817D01*
X0147469Y0124755D02*
X0141701Y0124755D01*
X0141701Y0125693D02*
X0147469Y0125693D01*
X0147469Y0126631D02*
X0141701Y0126631D01*
X0141701Y0127569D02*
X0147469Y0127569D01*
X0185301Y0116165D02*
X0185301Y0110397D01*
X0177565Y0110397D01*
X0177565Y0116165D01*
X0185301Y0116165D01*
X0185301Y0111335D02*
X0177565Y0111335D01*
X0177565Y0112273D02*
X0185301Y0112273D01*
X0185301Y0113211D02*
X0177565Y0113211D01*
X0177565Y0114149D02*
X0185301Y0114149D01*
X0185301Y0115087D02*
X0177565Y0115087D01*
X0177565Y0116025D02*
X0185301Y0116025D01*
X0200301Y0115397D02*
X0200301Y0121165D01*
X0200301Y0115397D02*
X0192565Y0115397D01*
X0192565Y0121165D01*
X0200301Y0121165D01*
X0200301Y0116335D02*
X0192565Y0116335D01*
X0192565Y0117273D02*
X0200301Y0117273D01*
X0200301Y0118211D02*
X0192565Y0118211D01*
X0192565Y0119149D02*
X0200301Y0119149D01*
X0200301Y0120087D02*
X0192565Y0120087D01*
X0192565Y0121025D02*
X0200301Y0121025D01*
X0200301Y0107469D02*
X0200301Y0101701D01*
X0192565Y0101701D01*
X0192565Y0107469D01*
X0200301Y0107469D01*
X0200301Y0102639D02*
X0192565Y0102639D01*
X0192565Y0103577D02*
X0200301Y0103577D01*
X0200301Y0104515D02*
X0192565Y0104515D01*
X0192565Y0105453D02*
X0200301Y0105453D01*
X0200301Y0106391D02*
X0192565Y0106391D01*
X0192565Y0107329D02*
X0200301Y0107329D01*
X0185301Y0102469D02*
X0185301Y0096701D01*
X0177565Y0096701D01*
X0177565Y0102469D01*
X0185301Y0102469D01*
X0185301Y0097639D02*
X0177565Y0097639D01*
X0177565Y0098577D02*
X0185301Y0098577D01*
X0185301Y0099515D02*
X0177565Y0099515D01*
X0177565Y0100453D02*
X0185301Y0100453D01*
X0185301Y0101391D02*
X0177565Y0101391D01*
X0177565Y0102329D02*
X0185301Y0102329D01*
X0185301Y0091165D02*
X0185301Y0085397D01*
X0177565Y0085397D01*
X0177565Y0091165D01*
X0185301Y0091165D01*
X0185301Y0086335D02*
X0177565Y0086335D01*
X0177565Y0087273D02*
X0185301Y0087273D01*
X0185301Y0088211D02*
X0177565Y0088211D01*
X0177565Y0089149D02*
X0185301Y0089149D01*
X0185301Y0090087D02*
X0177565Y0090087D01*
X0177565Y0091025D02*
X0185301Y0091025D01*
X0191701Y0072565D02*
X0197469Y0072565D01*
X0191701Y0072565D02*
X0191701Y0080301D01*
X0197469Y0080301D01*
X0197469Y0072565D01*
X0197469Y0073503D02*
X0191701Y0073503D01*
X0191701Y0074441D02*
X0197469Y0074441D01*
X0197469Y0075379D02*
X0191701Y0075379D01*
X0191701Y0076317D02*
X0197469Y0076317D01*
X0197469Y0077255D02*
X0191701Y0077255D01*
X0191701Y0078193D02*
X0197469Y0078193D01*
X0197469Y0079131D02*
X0191701Y0079131D01*
X0191701Y0080069D02*
X0197469Y0080069D01*
X0205397Y0072565D02*
X0211165Y0072565D01*
X0205397Y0072565D02*
X0205397Y0080301D01*
X0211165Y0080301D01*
X0211165Y0072565D01*
X0211165Y0073503D02*
X0205397Y0073503D01*
X0205397Y0074441D02*
X0211165Y0074441D01*
X0211165Y0075379D02*
X0205397Y0075379D01*
X0205397Y0076317D02*
X0211165Y0076317D01*
X0211165Y0077255D02*
X0205397Y0077255D01*
X0205397Y0078193D02*
X0211165Y0078193D01*
X0211165Y0079131D02*
X0205397Y0079131D01*
X0205397Y0080069D02*
X0211165Y0080069D01*
X0185301Y0077469D02*
X0185301Y0071701D01*
X0177565Y0071701D01*
X0177565Y0077469D01*
X0185301Y0077469D01*
X0185301Y0072639D02*
X0177565Y0072639D01*
X0177565Y0073577D02*
X0185301Y0073577D01*
X0185301Y0074515D02*
X0177565Y0074515D01*
X0177565Y0075453D02*
X0185301Y0075453D01*
X0185301Y0076391D02*
X0177565Y0076391D01*
X0177565Y0077329D02*
X0185301Y0077329D01*
X0219201Y0043565D02*
X0224969Y0043565D01*
X0219201Y0043565D02*
X0219201Y0051301D01*
X0224969Y0051301D01*
X0224969Y0043565D01*
X0224969Y0044503D02*
X0219201Y0044503D01*
X0219201Y0045441D02*
X0224969Y0045441D01*
X0224969Y0046379D02*
X0219201Y0046379D01*
X0219201Y0047317D02*
X0224969Y0047317D01*
X0224969Y0048255D02*
X0219201Y0048255D01*
X0219201Y0049193D02*
X0224969Y0049193D01*
X0224969Y0050131D02*
X0219201Y0050131D01*
X0219201Y0051069D02*
X0224969Y0051069D01*
X0232897Y0043565D02*
X0238665Y0043565D01*
X0232897Y0043565D02*
X0232897Y0051301D01*
X0238665Y0051301D01*
X0238665Y0043565D01*
X0238665Y0044503D02*
X0232897Y0044503D01*
X0232897Y0045441D02*
X0238665Y0045441D01*
X0238665Y0046379D02*
X0232897Y0046379D01*
X0232897Y0047317D02*
X0238665Y0047317D01*
X0238665Y0048255D02*
X0232897Y0048255D01*
X0232897Y0049193D02*
X0238665Y0049193D01*
X0238665Y0050131D02*
X0232897Y0050131D01*
X0232897Y0051069D02*
X0238665Y0051069D01*
X0244201Y0043565D02*
X0249969Y0043565D01*
X0244201Y0043565D02*
X0244201Y0051301D01*
X0249969Y0051301D01*
X0249969Y0043565D01*
X0249969Y0044503D02*
X0244201Y0044503D01*
X0244201Y0045441D02*
X0249969Y0045441D01*
X0249969Y0046379D02*
X0244201Y0046379D01*
X0244201Y0047317D02*
X0249969Y0047317D01*
X0249969Y0048255D02*
X0244201Y0048255D01*
X0244201Y0049193D02*
X0249969Y0049193D01*
X0249969Y0050131D02*
X0244201Y0050131D01*
X0244201Y0051069D02*
X0249969Y0051069D01*
X0257897Y0043565D02*
X0263665Y0043565D01*
X0257897Y0043565D02*
X0257897Y0051301D01*
X0263665Y0051301D01*
X0263665Y0043565D01*
X0263665Y0044503D02*
X0257897Y0044503D01*
X0257897Y0045441D02*
X0263665Y0045441D01*
X0263665Y0046379D02*
X0257897Y0046379D01*
X0257897Y0047317D02*
X0263665Y0047317D01*
X0263665Y0048255D02*
X0257897Y0048255D01*
X0257897Y0049193D02*
X0263665Y0049193D01*
X0263665Y0050131D02*
X0257897Y0050131D01*
X0257897Y0051069D02*
X0263665Y0051069D01*
X0326701Y0088301D02*
X0332469Y0088301D01*
X0332469Y0080565D01*
X0326701Y0080565D01*
X0326701Y0088301D01*
X0326701Y0081503D02*
X0332469Y0081503D01*
X0332469Y0082441D02*
X0326701Y0082441D01*
X0326701Y0083379D02*
X0332469Y0083379D01*
X0332469Y0084317D02*
X0326701Y0084317D01*
X0326701Y0085255D02*
X0332469Y0085255D01*
X0332469Y0086193D02*
X0326701Y0086193D01*
X0326701Y0087131D02*
X0332469Y0087131D01*
X0332469Y0088069D02*
X0326701Y0088069D01*
X0326701Y0099301D02*
X0332469Y0099301D01*
X0332469Y0091565D01*
X0326701Y0091565D01*
X0326701Y0099301D01*
X0326701Y0092503D02*
X0332469Y0092503D01*
X0332469Y0093441D02*
X0326701Y0093441D01*
X0326701Y0094379D02*
X0332469Y0094379D01*
X0332469Y0095317D02*
X0326701Y0095317D01*
X0326701Y0096255D02*
X0332469Y0096255D01*
X0332469Y0097193D02*
X0326701Y0097193D01*
X0326701Y0098131D02*
X0332469Y0098131D01*
X0332469Y0099069D02*
X0326701Y0099069D01*
X0326701Y0110301D02*
X0332469Y0110301D01*
X0332469Y0102565D01*
X0326701Y0102565D01*
X0326701Y0110301D01*
X0326701Y0103503D02*
X0332469Y0103503D01*
X0332469Y0104441D02*
X0326701Y0104441D01*
X0326701Y0105379D02*
X0332469Y0105379D01*
X0332469Y0106317D02*
X0326701Y0106317D01*
X0326701Y0107255D02*
X0332469Y0107255D01*
X0332469Y0108193D02*
X0326701Y0108193D01*
X0326701Y0109131D02*
X0332469Y0109131D01*
X0332469Y0110069D02*
X0326701Y0110069D01*
X0326701Y0121301D02*
X0332469Y0121301D01*
X0332469Y0113565D01*
X0326701Y0113565D01*
X0326701Y0121301D01*
X0326701Y0114503D02*
X0332469Y0114503D01*
X0332469Y0115441D02*
X0326701Y0115441D01*
X0326701Y0116379D02*
X0332469Y0116379D01*
X0332469Y0117317D02*
X0326701Y0117317D01*
X0326701Y0118255D02*
X0332469Y0118255D01*
X0332469Y0119193D02*
X0326701Y0119193D01*
X0326701Y0120131D02*
X0332469Y0120131D01*
X0332469Y0121069D02*
X0326701Y0121069D01*
X0340397Y0121301D02*
X0346165Y0121301D01*
X0346165Y0113565D01*
X0340397Y0113565D01*
X0340397Y0121301D01*
X0340397Y0114503D02*
X0346165Y0114503D01*
X0346165Y0115441D02*
X0340397Y0115441D01*
X0340397Y0116379D02*
X0346165Y0116379D01*
X0346165Y0117317D02*
X0340397Y0117317D01*
X0340397Y0118255D02*
X0346165Y0118255D01*
X0346165Y0119193D02*
X0340397Y0119193D01*
X0340397Y0120131D02*
X0346165Y0120131D01*
X0346165Y0121069D02*
X0340397Y0121069D01*
X0341165Y0127565D02*
X0335397Y0127565D01*
X0335397Y0135301D01*
X0341165Y0135301D01*
X0341165Y0127565D01*
X0341165Y0128503D02*
X0335397Y0128503D01*
X0335397Y0129441D02*
X0341165Y0129441D01*
X0341165Y0130379D02*
X0335397Y0130379D01*
X0335397Y0131317D02*
X0341165Y0131317D01*
X0341165Y0132255D02*
X0335397Y0132255D01*
X0335397Y0133193D02*
X0341165Y0133193D01*
X0341165Y0134131D02*
X0335397Y0134131D01*
X0335397Y0135069D02*
X0341165Y0135069D01*
X0341165Y0145301D02*
X0335397Y0145301D01*
X0341165Y0145301D02*
X0341165Y0137565D01*
X0335397Y0137565D01*
X0335397Y0145301D01*
X0335397Y0138503D02*
X0341165Y0138503D01*
X0341165Y0139441D02*
X0335397Y0139441D01*
X0335397Y0140379D02*
X0341165Y0140379D01*
X0341165Y0141317D02*
X0335397Y0141317D01*
X0335397Y0142255D02*
X0341165Y0142255D01*
X0341165Y0143193D02*
X0335397Y0143193D01*
X0335397Y0144131D02*
X0341165Y0144131D01*
X0341165Y0145069D02*
X0335397Y0145069D01*
X0327469Y0145301D02*
X0321701Y0145301D01*
X0327469Y0145301D02*
X0327469Y0137565D01*
X0321701Y0137565D01*
X0321701Y0145301D01*
X0321701Y0138503D02*
X0327469Y0138503D01*
X0327469Y0139441D02*
X0321701Y0139441D01*
X0321701Y0140379D02*
X0327469Y0140379D01*
X0327469Y0141317D02*
X0321701Y0141317D01*
X0321701Y0142255D02*
X0327469Y0142255D01*
X0327469Y0143193D02*
X0321701Y0143193D01*
X0321701Y0144131D02*
X0327469Y0144131D01*
X0327469Y0145069D02*
X0321701Y0145069D01*
X0321701Y0127565D02*
X0327469Y0127565D01*
X0321701Y0127565D02*
X0321701Y0135301D01*
X0327469Y0135301D01*
X0327469Y0127565D01*
X0327469Y0128503D02*
X0321701Y0128503D01*
X0321701Y0129441D02*
X0327469Y0129441D01*
X0327469Y0130379D02*
X0321701Y0130379D01*
X0321701Y0131317D02*
X0327469Y0131317D01*
X0327469Y0132255D02*
X0321701Y0132255D01*
X0321701Y0133193D02*
X0327469Y0133193D01*
X0327469Y0134131D02*
X0321701Y0134131D01*
X0321701Y0135069D02*
X0327469Y0135069D01*
X0355301Y0132469D02*
X0355301Y0126701D01*
X0347565Y0126701D01*
X0347565Y0132469D01*
X0355301Y0132469D01*
X0355301Y0127639D02*
X0347565Y0127639D01*
X0347565Y0128577D02*
X0355301Y0128577D01*
X0355301Y0129515D02*
X0347565Y0129515D01*
X0347565Y0130453D02*
X0355301Y0130453D01*
X0355301Y0131391D02*
X0347565Y0131391D01*
X0347565Y0132329D02*
X0355301Y0132329D01*
X0365301Y0132469D02*
X0365301Y0126701D01*
X0357565Y0126701D01*
X0357565Y0132469D01*
X0365301Y0132469D01*
X0365301Y0127639D02*
X0357565Y0127639D01*
X0357565Y0128577D02*
X0365301Y0128577D01*
X0365301Y0129515D02*
X0357565Y0129515D01*
X0357565Y0130453D02*
X0365301Y0130453D01*
X0365301Y0131391D02*
X0357565Y0131391D01*
X0357565Y0132329D02*
X0365301Y0132329D01*
X0375301Y0132469D02*
X0375301Y0126701D01*
X0367565Y0126701D01*
X0367565Y0132469D01*
X0375301Y0132469D01*
X0375301Y0127639D02*
X0367565Y0127639D01*
X0367565Y0128577D02*
X0375301Y0128577D01*
X0375301Y0129515D02*
X0367565Y0129515D01*
X0367565Y0130453D02*
X0375301Y0130453D01*
X0375301Y0131391D02*
X0367565Y0131391D01*
X0367565Y0132329D02*
X0375301Y0132329D01*
X0390301Y0132469D02*
X0390301Y0126701D01*
X0382565Y0126701D01*
X0382565Y0132469D01*
X0390301Y0132469D01*
X0390301Y0127639D02*
X0382565Y0127639D01*
X0382565Y0128577D02*
X0390301Y0128577D01*
X0390301Y0129515D02*
X0382565Y0129515D01*
X0382565Y0130453D02*
X0390301Y0130453D01*
X0390301Y0131391D02*
X0382565Y0131391D01*
X0382565Y0132329D02*
X0390301Y0132329D01*
X0390301Y0140397D02*
X0390301Y0146165D01*
X0390301Y0140397D02*
X0382565Y0140397D01*
X0382565Y0146165D01*
X0390301Y0146165D01*
X0390301Y0141335D02*
X0382565Y0141335D01*
X0382565Y0142273D02*
X0390301Y0142273D01*
X0390301Y0143211D02*
X0382565Y0143211D01*
X0382565Y0144149D02*
X0390301Y0144149D01*
X0390301Y0145087D02*
X0382565Y0145087D01*
X0382565Y0146025D02*
X0390301Y0146025D01*
X0375301Y0146165D02*
X0375301Y0140397D01*
X0367565Y0140397D01*
X0367565Y0146165D01*
X0375301Y0146165D01*
X0375301Y0141335D02*
X0367565Y0141335D01*
X0367565Y0142273D02*
X0375301Y0142273D01*
X0375301Y0143211D02*
X0367565Y0143211D01*
X0367565Y0144149D02*
X0375301Y0144149D01*
X0375301Y0145087D02*
X0367565Y0145087D01*
X0367565Y0146025D02*
X0375301Y0146025D01*
X0365301Y0146165D02*
X0365301Y0140397D01*
X0357565Y0140397D01*
X0357565Y0146165D01*
X0365301Y0146165D01*
X0365301Y0141335D02*
X0357565Y0141335D01*
X0357565Y0142273D02*
X0365301Y0142273D01*
X0365301Y0143211D02*
X0357565Y0143211D01*
X0357565Y0144149D02*
X0365301Y0144149D01*
X0365301Y0145087D02*
X0357565Y0145087D01*
X0357565Y0146025D02*
X0365301Y0146025D01*
X0355301Y0146165D02*
X0355301Y0140397D01*
X0347565Y0140397D01*
X0347565Y0146165D01*
X0355301Y0146165D01*
X0355301Y0141335D02*
X0347565Y0141335D01*
X0347565Y0142273D02*
X0355301Y0142273D01*
X0355301Y0143211D02*
X0347565Y0143211D01*
X0347565Y0144149D02*
X0355301Y0144149D01*
X0355301Y0145087D02*
X0347565Y0145087D01*
X0347565Y0146025D02*
X0355301Y0146025D01*
X0354201Y0113565D02*
X0359969Y0113565D01*
X0354201Y0113565D02*
X0354201Y0121301D01*
X0359969Y0121301D01*
X0359969Y0113565D01*
X0359969Y0114503D02*
X0354201Y0114503D01*
X0354201Y0115441D02*
X0359969Y0115441D01*
X0359969Y0116379D02*
X0354201Y0116379D01*
X0354201Y0117317D02*
X0359969Y0117317D01*
X0359969Y0118255D02*
X0354201Y0118255D01*
X0354201Y0119193D02*
X0359969Y0119193D01*
X0359969Y0120131D02*
X0354201Y0120131D01*
X0354201Y0121069D02*
X0359969Y0121069D01*
X0367897Y0113565D02*
X0373665Y0113565D01*
X0367897Y0113565D02*
X0367897Y0121301D01*
X0373665Y0121301D01*
X0373665Y0113565D01*
X0373665Y0114503D02*
X0367897Y0114503D01*
X0367897Y0115441D02*
X0373665Y0115441D01*
X0373665Y0116379D02*
X0367897Y0116379D01*
X0367897Y0117317D02*
X0373665Y0117317D01*
X0373665Y0118255D02*
X0367897Y0118255D01*
X0367897Y0119193D02*
X0373665Y0119193D01*
X0373665Y0120131D02*
X0367897Y0120131D01*
X0367897Y0121069D02*
X0373665Y0121069D01*
X0373665Y0102565D02*
X0367897Y0102565D01*
X0367897Y0110301D01*
X0373665Y0110301D01*
X0373665Y0102565D01*
X0373665Y0103503D02*
X0367897Y0103503D01*
X0367897Y0104441D02*
X0373665Y0104441D01*
X0373665Y0105379D02*
X0367897Y0105379D01*
X0367897Y0106317D02*
X0373665Y0106317D01*
X0373665Y0107255D02*
X0367897Y0107255D01*
X0367897Y0108193D02*
X0373665Y0108193D01*
X0373665Y0109131D02*
X0367897Y0109131D01*
X0367897Y0110069D02*
X0373665Y0110069D01*
X0384265Y0099907D02*
X0392001Y0099907D01*
X0384265Y0099907D02*
X0384265Y0105675D01*
X0392001Y0105675D01*
X0392001Y0099907D01*
X0392001Y0100845D02*
X0384265Y0100845D01*
X0384265Y0101783D02*
X0392001Y0101783D01*
X0392001Y0102721D02*
X0384265Y0102721D01*
X0384265Y0103659D02*
X0392001Y0103659D01*
X0392001Y0104597D02*
X0384265Y0104597D01*
X0384265Y0105535D02*
X0392001Y0105535D01*
X0373665Y0091565D02*
X0367897Y0091565D01*
X0367897Y0099301D01*
X0373665Y0099301D01*
X0373665Y0091565D01*
X0373665Y0092503D02*
X0367897Y0092503D01*
X0367897Y0093441D02*
X0373665Y0093441D01*
X0373665Y0094379D02*
X0367897Y0094379D01*
X0367897Y0095317D02*
X0373665Y0095317D01*
X0373665Y0096255D02*
X0367897Y0096255D01*
X0367897Y0097193D02*
X0373665Y0097193D01*
X0373665Y0098131D02*
X0367897Y0098131D01*
X0367897Y0099069D02*
X0373665Y0099069D01*
X0359969Y0091565D02*
X0354201Y0091565D01*
X0354201Y0099301D01*
X0359969Y0099301D01*
X0359969Y0091565D01*
X0359969Y0092503D02*
X0354201Y0092503D01*
X0354201Y0093441D02*
X0359969Y0093441D01*
X0359969Y0094379D02*
X0354201Y0094379D01*
X0354201Y0095317D02*
X0359969Y0095317D01*
X0359969Y0096255D02*
X0354201Y0096255D01*
X0354201Y0097193D02*
X0359969Y0097193D01*
X0359969Y0098131D02*
X0354201Y0098131D01*
X0354201Y0099069D02*
X0359969Y0099069D01*
X0359969Y0102565D02*
X0354201Y0102565D01*
X0354201Y0110301D01*
X0359969Y0110301D01*
X0359969Y0102565D01*
X0359969Y0103503D02*
X0354201Y0103503D01*
X0354201Y0104441D02*
X0359969Y0104441D01*
X0359969Y0105379D02*
X0354201Y0105379D01*
X0354201Y0106317D02*
X0359969Y0106317D01*
X0359969Y0107255D02*
X0354201Y0107255D01*
X0354201Y0108193D02*
X0359969Y0108193D01*
X0359969Y0109131D02*
X0354201Y0109131D01*
X0354201Y0110069D02*
X0359969Y0110069D01*
X0346165Y0110301D02*
X0340397Y0110301D01*
X0346165Y0110301D02*
X0346165Y0102565D01*
X0340397Y0102565D01*
X0340397Y0110301D01*
X0340397Y0103503D02*
X0346165Y0103503D01*
X0346165Y0104441D02*
X0340397Y0104441D01*
X0340397Y0105379D02*
X0346165Y0105379D01*
X0346165Y0106317D02*
X0340397Y0106317D01*
X0340397Y0107255D02*
X0346165Y0107255D01*
X0346165Y0108193D02*
X0340397Y0108193D01*
X0340397Y0109131D02*
X0346165Y0109131D01*
X0346165Y0110069D02*
X0340397Y0110069D01*
X0340397Y0099301D02*
X0346165Y0099301D01*
X0346165Y0091565D01*
X0340397Y0091565D01*
X0340397Y0099301D01*
X0340397Y0092503D02*
X0346165Y0092503D01*
X0346165Y0093441D02*
X0340397Y0093441D01*
X0340397Y0094379D02*
X0346165Y0094379D01*
X0346165Y0095317D02*
X0340397Y0095317D01*
X0340397Y0096255D02*
X0346165Y0096255D01*
X0346165Y0097193D02*
X0340397Y0097193D01*
X0340397Y0098131D02*
X0346165Y0098131D01*
X0346165Y0099069D02*
X0340397Y0099069D01*
X0340397Y0088301D02*
X0346165Y0088301D01*
X0346165Y0080565D01*
X0340397Y0080565D01*
X0340397Y0088301D01*
X0340397Y0081503D02*
X0346165Y0081503D01*
X0346165Y0082441D02*
X0340397Y0082441D01*
X0340397Y0083379D02*
X0346165Y0083379D01*
X0346165Y0084317D02*
X0340397Y0084317D01*
X0340397Y0085255D02*
X0346165Y0085255D01*
X0346165Y0086193D02*
X0340397Y0086193D01*
X0340397Y0087131D02*
X0346165Y0087131D01*
X0346165Y0088069D02*
X0340397Y0088069D01*
X0354201Y0080565D02*
X0359969Y0080565D01*
X0354201Y0080565D02*
X0354201Y0088301D01*
X0359969Y0088301D01*
X0359969Y0080565D01*
X0359969Y0081503D02*
X0354201Y0081503D01*
X0354201Y0082441D02*
X0359969Y0082441D01*
X0359969Y0083379D02*
X0354201Y0083379D01*
X0354201Y0084317D02*
X0359969Y0084317D01*
X0359969Y0085255D02*
X0354201Y0085255D01*
X0354201Y0086193D02*
X0359969Y0086193D01*
X0359969Y0087131D02*
X0354201Y0087131D01*
X0354201Y0088069D02*
X0359969Y0088069D01*
X0367897Y0080565D02*
X0373665Y0080565D01*
X0367897Y0080565D02*
X0367897Y0088301D01*
X0373665Y0088301D01*
X0373665Y0080565D01*
X0373665Y0081503D02*
X0367897Y0081503D01*
X0367897Y0082441D02*
X0373665Y0082441D01*
X0373665Y0083379D02*
X0367897Y0083379D01*
X0367897Y0084317D02*
X0373665Y0084317D01*
X0373665Y0085255D02*
X0367897Y0085255D01*
X0367897Y0086193D02*
X0373665Y0086193D01*
X0373665Y0087131D02*
X0367897Y0087131D01*
X0367897Y0088069D02*
X0373665Y0088069D01*
X0384265Y0082191D02*
X0392001Y0082191D01*
X0384265Y0082191D02*
X0384265Y0087959D01*
X0392001Y0087959D01*
X0392001Y0082191D01*
X0392001Y0083129D02*
X0384265Y0083129D01*
X0384265Y0084067D02*
X0392001Y0084067D01*
X0392001Y0085005D02*
X0384265Y0085005D01*
X0384265Y0085943D02*
X0392001Y0085943D01*
X0392001Y0086881D02*
X0384265Y0086881D01*
X0384265Y0087819D02*
X0392001Y0087819D01*
X0418865Y0082191D02*
X0426601Y0082191D01*
X0418865Y0082191D02*
X0418865Y0087959D01*
X0426601Y0087959D01*
X0426601Y0082191D01*
X0426601Y0083129D02*
X0418865Y0083129D01*
X0418865Y0084067D02*
X0426601Y0084067D01*
X0426601Y0085005D02*
X0418865Y0085005D01*
X0418865Y0085943D02*
X0426601Y0085943D01*
X0426601Y0086881D02*
X0418865Y0086881D01*
X0418865Y0087819D02*
X0426601Y0087819D01*
X0426601Y0099907D02*
X0418865Y0099907D01*
X0418865Y0105675D01*
X0426601Y0105675D01*
X0426601Y0099907D01*
X0426601Y0100845D02*
X0418865Y0100845D01*
X0418865Y0101783D02*
X0426601Y0101783D01*
X0426601Y0102721D02*
X0418865Y0102721D01*
X0418865Y0103659D02*
X0426601Y0103659D01*
X0426601Y0104597D02*
X0418865Y0104597D01*
X0418865Y0105535D02*
X0426601Y0105535D01*
X0296165Y0140065D02*
X0290397Y0140065D01*
X0290397Y0147801D01*
X0296165Y0147801D01*
X0296165Y0140065D01*
X0296165Y0141003D02*
X0290397Y0141003D01*
X0290397Y0141941D02*
X0296165Y0141941D01*
X0296165Y0142879D02*
X0290397Y0142879D01*
X0290397Y0143817D02*
X0296165Y0143817D01*
X0296165Y0144755D02*
X0290397Y0144755D01*
X0290397Y0145693D02*
X0296165Y0145693D01*
X0296165Y0146631D02*
X0290397Y0146631D01*
X0290397Y0147569D02*
X0296165Y0147569D01*
X0282469Y0140065D02*
X0276701Y0140065D01*
X0276701Y0147801D01*
X0282469Y0147801D01*
X0282469Y0140065D01*
X0282469Y0141003D02*
X0276701Y0141003D01*
X0276701Y0141941D02*
X0282469Y0141941D01*
X0282469Y0142879D02*
X0276701Y0142879D01*
X0276701Y0143817D02*
X0282469Y0143817D01*
X0282469Y0144755D02*
X0276701Y0144755D01*
X0276701Y0145693D02*
X0282469Y0145693D01*
X0282469Y0146631D02*
X0276701Y0146631D01*
X0276701Y0147569D02*
X0282469Y0147569D01*
X0290301Y0121165D02*
X0290301Y0115397D01*
X0282565Y0115397D01*
X0282565Y0121165D01*
X0290301Y0121165D01*
X0290301Y0116335D02*
X0282565Y0116335D01*
X0282565Y0117273D02*
X0290301Y0117273D01*
X0290301Y0118211D02*
X0282565Y0118211D01*
X0282565Y0119149D02*
X0290301Y0119149D01*
X0290301Y0120087D02*
X0282565Y0120087D01*
X0282565Y0121025D02*
X0290301Y0121025D01*
X0290301Y0107469D02*
X0290301Y0101701D01*
X0282565Y0101701D01*
X0282565Y0107469D01*
X0290301Y0107469D01*
X0290301Y0102639D02*
X0282565Y0102639D01*
X0282565Y0103577D02*
X0290301Y0103577D01*
X0290301Y0104515D02*
X0282565Y0104515D01*
X0282565Y0105453D02*
X0290301Y0105453D01*
X0290301Y0106391D02*
X0282565Y0106391D01*
X0282565Y0107329D02*
X0290301Y0107329D01*
X0097469Y0077565D02*
X0091701Y0077565D01*
X0091701Y0085301D01*
X0097469Y0085301D01*
X0097469Y0077565D01*
X0097469Y0078503D02*
X0091701Y0078503D01*
X0091701Y0079441D02*
X0097469Y0079441D01*
X0097469Y0080379D02*
X0091701Y0080379D01*
X0091701Y0081317D02*
X0097469Y0081317D01*
X0097469Y0082255D02*
X0091701Y0082255D01*
X0091701Y0083193D02*
X0097469Y0083193D01*
X0097469Y0084131D02*
X0091701Y0084131D01*
X0091701Y0085069D02*
X0097469Y0085069D01*
D11*
X0136433Y0111433D03*
X0316433Y0180933D03*
X0316433Y0215933D03*
D12*
X0316433Y0201933D03*
X0316433Y0166933D03*
X0166433Y0111433D03*
X0166433Y0101433D03*
X0166433Y0091433D03*
X0166433Y0081433D03*
X0166433Y0071433D03*
X0166433Y0061433D03*
X0166433Y0051433D03*
X0136433Y0051433D03*
X0136433Y0061433D03*
X0136433Y0071433D03*
X0136433Y0081433D03*
X0136433Y0091433D03*
X0136433Y0101433D03*
D13*
X0211655Y0060029D02*
X0235211Y0060029D01*
X0211655Y0060029D02*
X0211655Y0067837D01*
X0235211Y0067837D01*
X0235211Y0060029D01*
X0235211Y0060895D02*
X0211655Y0060895D01*
X0211655Y0061761D02*
X0235211Y0061761D01*
X0235211Y0062627D02*
X0211655Y0062627D01*
X0211655Y0063493D02*
X0235211Y0063493D01*
X0235211Y0064359D02*
X0211655Y0064359D01*
X0211655Y0065225D02*
X0235211Y0065225D01*
X0235211Y0066091D02*
X0211655Y0066091D01*
X0211655Y0066957D02*
X0235211Y0066957D01*
X0235211Y0067823D02*
X0211655Y0067823D01*
X0247655Y0060029D02*
X0271211Y0060029D01*
X0247655Y0060029D02*
X0247655Y0067837D01*
X0271211Y0067837D01*
X0271211Y0060029D01*
X0271211Y0060895D02*
X0247655Y0060895D01*
X0247655Y0061761D02*
X0271211Y0061761D01*
X0271211Y0062627D02*
X0247655Y0062627D01*
X0247655Y0063493D02*
X0271211Y0063493D01*
X0271211Y0064359D02*
X0247655Y0064359D01*
X0247655Y0065225D02*
X0271211Y0065225D01*
X0271211Y0066091D02*
X0247655Y0066091D01*
X0247655Y0066957D02*
X0271211Y0066957D01*
X0271211Y0067823D02*
X0247655Y0067823D01*
D14*
X0245817Y0173829D02*
X0257577Y0173829D01*
X0257577Y0164037D01*
X0245817Y0164037D01*
X0245817Y0173829D01*
X0245817Y0164887D02*
X0257577Y0164887D01*
X0257577Y0165737D02*
X0245817Y0165737D01*
X0245817Y0166587D02*
X0257577Y0166587D01*
X0257577Y0167437D02*
X0245817Y0167437D01*
X0245817Y0168287D02*
X0257577Y0168287D01*
X0257577Y0169137D02*
X0245817Y0169137D01*
X0245817Y0169987D02*
X0257577Y0169987D01*
X0257577Y0170837D02*
X0245817Y0170837D01*
X0245817Y0171687D02*
X0257577Y0171687D01*
X0257577Y0172537D02*
X0245817Y0172537D01*
X0245817Y0173387D02*
X0257577Y0173387D01*
X0266289Y0173829D02*
X0278049Y0173829D01*
X0278049Y0164037D01*
X0266289Y0164037D01*
X0266289Y0173829D01*
X0266289Y0164887D02*
X0278049Y0164887D01*
X0278049Y0165737D02*
X0266289Y0165737D01*
X0266289Y0166587D02*
X0278049Y0166587D01*
X0278049Y0167437D02*
X0266289Y0167437D01*
X0266289Y0168287D02*
X0278049Y0168287D01*
X0278049Y0169137D02*
X0266289Y0169137D01*
X0266289Y0169987D02*
X0278049Y0169987D01*
X0278049Y0170837D02*
X0266289Y0170837D01*
X0266289Y0171687D02*
X0278049Y0171687D01*
X0278049Y0172537D02*
X0266289Y0172537D01*
X0266289Y0173387D02*
X0278049Y0173387D01*
D15*
X0265418Y0145768D02*
X0264648Y0145768D01*
X0265418Y0145768D02*
X0265418Y0140298D01*
X0264648Y0140298D01*
X0264648Y0145768D01*
X0264648Y0141067D02*
X0265418Y0141067D01*
X0265418Y0141836D02*
X0264648Y0141836D01*
X0264648Y0142605D02*
X0265418Y0142605D01*
X0265418Y0143374D02*
X0264648Y0143374D01*
X0264648Y0144143D02*
X0265418Y0144143D01*
X0265418Y0144912D02*
X0264648Y0144912D01*
X0264648Y0145681D02*
X0265418Y0145681D01*
X0263518Y0145768D02*
X0262748Y0145768D01*
X0263518Y0145768D02*
X0263518Y0140298D01*
X0262748Y0140298D01*
X0262748Y0145768D01*
X0262748Y0141067D02*
X0263518Y0141067D01*
X0263518Y0141836D02*
X0262748Y0141836D01*
X0262748Y0142605D02*
X0263518Y0142605D01*
X0263518Y0143374D02*
X0262748Y0143374D01*
X0262748Y0144143D02*
X0263518Y0144143D01*
X0263518Y0144912D02*
X0262748Y0144912D01*
X0262748Y0145681D02*
X0263518Y0145681D01*
X0261518Y0145768D02*
X0260748Y0145768D01*
X0261518Y0145768D02*
X0261518Y0140298D01*
X0260748Y0140298D01*
X0260748Y0145768D01*
X0260748Y0141067D02*
X0261518Y0141067D01*
X0261518Y0141836D02*
X0260748Y0141836D01*
X0260748Y0142605D02*
X0261518Y0142605D01*
X0261518Y0143374D02*
X0260748Y0143374D01*
X0260748Y0144143D02*
X0261518Y0144143D01*
X0261518Y0144912D02*
X0260748Y0144912D01*
X0260748Y0145681D02*
X0261518Y0145681D01*
X0259518Y0145768D02*
X0258748Y0145768D01*
X0259518Y0145768D02*
X0259518Y0140298D01*
X0258748Y0140298D01*
X0258748Y0145768D01*
X0258748Y0141067D02*
X0259518Y0141067D01*
X0259518Y0141836D02*
X0258748Y0141836D01*
X0258748Y0142605D02*
X0259518Y0142605D01*
X0259518Y0143374D02*
X0258748Y0143374D01*
X0258748Y0144143D02*
X0259518Y0144143D01*
X0259518Y0144912D02*
X0258748Y0144912D01*
X0258748Y0145681D02*
X0259518Y0145681D01*
X0257518Y0145768D02*
X0256748Y0145768D01*
X0257518Y0145768D02*
X0257518Y0140298D01*
X0256748Y0140298D01*
X0256748Y0145768D01*
X0256748Y0141067D02*
X0257518Y0141067D01*
X0257518Y0141836D02*
X0256748Y0141836D01*
X0256748Y0142605D02*
X0257518Y0142605D01*
X0257518Y0143374D02*
X0256748Y0143374D01*
X0256748Y0144143D02*
X0257518Y0144143D01*
X0257518Y0144912D02*
X0256748Y0144912D01*
X0256748Y0145681D02*
X0257518Y0145681D01*
X0255618Y0145768D02*
X0254848Y0145768D01*
X0255618Y0145768D02*
X0255618Y0140298D01*
X0254848Y0140298D01*
X0254848Y0145768D01*
X0254848Y0141067D02*
X0255618Y0141067D01*
X0255618Y0141836D02*
X0254848Y0141836D01*
X0254848Y0142605D02*
X0255618Y0142605D01*
X0255618Y0143374D02*
X0254848Y0143374D01*
X0254848Y0144143D02*
X0255618Y0144143D01*
X0255618Y0144912D02*
X0254848Y0144912D01*
X0254848Y0145681D02*
X0255618Y0145681D01*
X0253618Y0145768D02*
X0252848Y0145768D01*
X0253618Y0145768D02*
X0253618Y0140298D01*
X0252848Y0140298D01*
X0252848Y0145768D01*
X0252848Y0141067D02*
X0253618Y0141067D01*
X0253618Y0141836D02*
X0252848Y0141836D01*
X0252848Y0142605D02*
X0253618Y0142605D01*
X0253618Y0143374D02*
X0252848Y0143374D01*
X0252848Y0144143D02*
X0253618Y0144143D01*
X0253618Y0144912D02*
X0252848Y0144912D01*
X0252848Y0145681D02*
X0253618Y0145681D01*
X0251618Y0145768D02*
X0250848Y0145768D01*
X0251618Y0145768D02*
X0251618Y0140298D01*
X0250848Y0140298D01*
X0250848Y0145768D01*
X0250848Y0141067D02*
X0251618Y0141067D01*
X0251618Y0141836D02*
X0250848Y0141836D01*
X0250848Y0142605D02*
X0251618Y0142605D01*
X0251618Y0143374D02*
X0250848Y0143374D01*
X0250848Y0144143D02*
X0251618Y0144143D01*
X0251618Y0144912D02*
X0250848Y0144912D01*
X0250848Y0145681D02*
X0251618Y0145681D01*
X0249718Y0145768D02*
X0248948Y0145768D01*
X0249718Y0145768D02*
X0249718Y0140298D01*
X0248948Y0140298D01*
X0248948Y0145768D01*
X0248948Y0141067D02*
X0249718Y0141067D01*
X0249718Y0141836D02*
X0248948Y0141836D01*
X0248948Y0142605D02*
X0249718Y0142605D01*
X0249718Y0143374D02*
X0248948Y0143374D01*
X0248948Y0144143D02*
X0249718Y0144143D01*
X0249718Y0144912D02*
X0248948Y0144912D01*
X0248948Y0145681D02*
X0249718Y0145681D01*
X0247718Y0145768D02*
X0246948Y0145768D01*
X0247718Y0145768D02*
X0247718Y0140298D01*
X0246948Y0140298D01*
X0246948Y0145768D01*
X0246948Y0141067D02*
X0247718Y0141067D01*
X0247718Y0141836D02*
X0246948Y0141836D01*
X0246948Y0142605D02*
X0247718Y0142605D01*
X0247718Y0143374D02*
X0246948Y0143374D01*
X0246948Y0144143D02*
X0247718Y0144143D01*
X0247718Y0144912D02*
X0246948Y0144912D01*
X0246948Y0145681D02*
X0247718Y0145681D01*
X0245718Y0145768D02*
X0244948Y0145768D01*
X0245718Y0145768D02*
X0245718Y0140298D01*
X0244948Y0140298D01*
X0244948Y0145768D01*
X0244948Y0141067D02*
X0245718Y0141067D01*
X0245718Y0141836D02*
X0244948Y0141836D01*
X0244948Y0142605D02*
X0245718Y0142605D01*
X0245718Y0143374D02*
X0244948Y0143374D01*
X0244948Y0144143D02*
X0245718Y0144143D01*
X0245718Y0144912D02*
X0244948Y0144912D01*
X0244948Y0145681D02*
X0245718Y0145681D01*
X0243818Y0145768D02*
X0243048Y0145768D01*
X0243818Y0145768D02*
X0243818Y0140298D01*
X0243048Y0140298D01*
X0243048Y0145768D01*
X0243048Y0141067D02*
X0243818Y0141067D01*
X0243818Y0141836D02*
X0243048Y0141836D01*
X0243048Y0142605D02*
X0243818Y0142605D01*
X0243818Y0143374D02*
X0243048Y0143374D01*
X0243048Y0144143D02*
X0243818Y0144143D01*
X0243818Y0144912D02*
X0243048Y0144912D01*
X0243048Y0145681D02*
X0243818Y0145681D01*
X0241818Y0145768D02*
X0241048Y0145768D01*
X0241818Y0145768D02*
X0241818Y0140298D01*
X0241048Y0140298D01*
X0241048Y0145768D01*
X0241048Y0141067D02*
X0241818Y0141067D01*
X0241818Y0141836D02*
X0241048Y0141836D01*
X0241048Y0142605D02*
X0241818Y0142605D01*
X0241818Y0143374D02*
X0241048Y0143374D01*
X0241048Y0144143D02*
X0241818Y0144143D01*
X0241818Y0144912D02*
X0241048Y0144912D01*
X0241048Y0145681D02*
X0241818Y0145681D01*
X0239818Y0145768D02*
X0239048Y0145768D01*
X0239818Y0145768D02*
X0239818Y0140298D01*
X0239048Y0140298D01*
X0239048Y0145768D01*
X0239048Y0141067D02*
X0239818Y0141067D01*
X0239818Y0141836D02*
X0239048Y0141836D01*
X0239048Y0142605D02*
X0239818Y0142605D01*
X0239818Y0143374D02*
X0239048Y0143374D01*
X0239048Y0144143D02*
X0239818Y0144143D01*
X0239818Y0144912D02*
X0239048Y0144912D01*
X0239048Y0145681D02*
X0239818Y0145681D01*
X0237918Y0145768D02*
X0237148Y0145768D01*
X0237918Y0145768D02*
X0237918Y0140298D01*
X0237148Y0140298D01*
X0237148Y0145768D01*
X0237148Y0141067D02*
X0237918Y0141067D01*
X0237918Y0141836D02*
X0237148Y0141836D01*
X0237148Y0142605D02*
X0237918Y0142605D01*
X0237918Y0143374D02*
X0237148Y0143374D01*
X0237148Y0144143D02*
X0237918Y0144143D01*
X0237918Y0144912D02*
X0237148Y0144912D01*
X0237148Y0145681D02*
X0237918Y0145681D01*
X0235918Y0145768D02*
X0235148Y0145768D01*
X0235918Y0145768D02*
X0235918Y0140298D01*
X0235148Y0140298D01*
X0235148Y0145768D01*
X0235148Y0141067D02*
X0235918Y0141067D01*
X0235918Y0141836D02*
X0235148Y0141836D01*
X0235148Y0142605D02*
X0235918Y0142605D01*
X0235918Y0143374D02*
X0235148Y0143374D01*
X0235148Y0144143D02*
X0235918Y0144143D01*
X0235918Y0144912D02*
X0235148Y0144912D01*
X0235148Y0145681D02*
X0235918Y0145681D01*
X0233918Y0145768D02*
X0233148Y0145768D01*
X0233918Y0145768D02*
X0233918Y0140298D01*
X0233148Y0140298D01*
X0233148Y0145768D01*
X0233148Y0141067D02*
X0233918Y0141067D01*
X0233918Y0141836D02*
X0233148Y0141836D01*
X0233148Y0142605D02*
X0233918Y0142605D01*
X0233918Y0143374D02*
X0233148Y0143374D01*
X0233148Y0144143D02*
X0233918Y0144143D01*
X0233918Y0144912D02*
X0233148Y0144912D01*
X0233148Y0145681D02*
X0233918Y0145681D01*
X0232018Y0145768D02*
X0231248Y0145768D01*
X0232018Y0145768D02*
X0232018Y0140298D01*
X0231248Y0140298D01*
X0231248Y0145768D01*
X0231248Y0141067D02*
X0232018Y0141067D01*
X0232018Y0141836D02*
X0231248Y0141836D01*
X0231248Y0142605D02*
X0232018Y0142605D01*
X0232018Y0143374D02*
X0231248Y0143374D01*
X0231248Y0144143D02*
X0232018Y0144143D01*
X0232018Y0144912D02*
X0231248Y0144912D01*
X0231248Y0145681D02*
X0232018Y0145681D01*
X0230018Y0145768D02*
X0229248Y0145768D01*
X0230018Y0145768D02*
X0230018Y0140298D01*
X0229248Y0140298D01*
X0229248Y0145768D01*
X0229248Y0141067D02*
X0230018Y0141067D01*
X0230018Y0141836D02*
X0229248Y0141836D01*
X0229248Y0142605D02*
X0230018Y0142605D01*
X0230018Y0143374D02*
X0229248Y0143374D01*
X0229248Y0144143D02*
X0230018Y0144143D01*
X0230018Y0144912D02*
X0229248Y0144912D01*
X0229248Y0145681D02*
X0230018Y0145681D01*
X0228018Y0145768D02*
X0227248Y0145768D01*
X0228018Y0145768D02*
X0228018Y0140298D01*
X0227248Y0140298D01*
X0227248Y0145768D01*
X0227248Y0141067D02*
X0228018Y0141067D01*
X0228018Y0141836D02*
X0227248Y0141836D01*
X0227248Y0142605D02*
X0228018Y0142605D01*
X0228018Y0143374D02*
X0227248Y0143374D01*
X0227248Y0144143D02*
X0228018Y0144143D01*
X0228018Y0144912D02*
X0227248Y0144912D01*
X0227248Y0145681D02*
X0228018Y0145681D01*
X0226118Y0145768D02*
X0225348Y0145768D01*
X0226118Y0145768D02*
X0226118Y0140298D01*
X0225348Y0140298D01*
X0225348Y0145768D01*
X0225348Y0141067D02*
X0226118Y0141067D01*
X0226118Y0141836D02*
X0225348Y0141836D01*
X0225348Y0142605D02*
X0226118Y0142605D01*
X0226118Y0143374D02*
X0225348Y0143374D01*
X0225348Y0144143D02*
X0226118Y0144143D01*
X0226118Y0144912D02*
X0225348Y0144912D01*
X0225348Y0145681D02*
X0226118Y0145681D01*
X0224118Y0145768D02*
X0223348Y0145768D01*
X0224118Y0145768D02*
X0224118Y0140298D01*
X0223348Y0140298D01*
X0223348Y0145768D01*
X0223348Y0141067D02*
X0224118Y0141067D01*
X0224118Y0141836D02*
X0223348Y0141836D01*
X0223348Y0142605D02*
X0224118Y0142605D01*
X0224118Y0143374D02*
X0223348Y0143374D01*
X0223348Y0144143D02*
X0224118Y0144143D01*
X0224118Y0144912D02*
X0223348Y0144912D01*
X0223348Y0145681D02*
X0224118Y0145681D01*
X0222118Y0145768D02*
X0221348Y0145768D01*
X0222118Y0145768D02*
X0222118Y0140298D01*
X0221348Y0140298D01*
X0221348Y0145768D01*
X0221348Y0141067D02*
X0222118Y0141067D01*
X0222118Y0141836D02*
X0221348Y0141836D01*
X0221348Y0142605D02*
X0222118Y0142605D01*
X0222118Y0143374D02*
X0221348Y0143374D01*
X0221348Y0144143D02*
X0222118Y0144143D01*
X0222118Y0144912D02*
X0221348Y0144912D01*
X0221348Y0145681D02*
X0222118Y0145681D01*
X0220118Y0145768D02*
X0219348Y0145768D01*
X0220118Y0145768D02*
X0220118Y0140298D01*
X0219348Y0140298D01*
X0219348Y0145768D01*
X0219348Y0141067D02*
X0220118Y0141067D01*
X0220118Y0141836D02*
X0219348Y0141836D01*
X0219348Y0142605D02*
X0220118Y0142605D01*
X0220118Y0143374D02*
X0219348Y0143374D01*
X0219348Y0144143D02*
X0220118Y0144143D01*
X0220118Y0144912D02*
X0219348Y0144912D01*
X0219348Y0145681D02*
X0220118Y0145681D01*
X0218218Y0145768D02*
X0217448Y0145768D01*
X0218218Y0145768D02*
X0218218Y0140298D01*
X0217448Y0140298D01*
X0217448Y0145768D01*
X0217448Y0141067D02*
X0218218Y0141067D01*
X0218218Y0141836D02*
X0217448Y0141836D01*
X0217448Y0142605D02*
X0218218Y0142605D01*
X0218218Y0143374D02*
X0217448Y0143374D01*
X0217448Y0144143D02*
X0218218Y0144143D01*
X0218218Y0144912D02*
X0217448Y0144912D01*
X0217448Y0145681D02*
X0218218Y0145681D01*
X0207098Y0135418D02*
X0207098Y0134648D01*
X0207098Y0135418D02*
X0212568Y0135418D01*
X0212568Y0134648D01*
X0207098Y0134648D01*
X0207098Y0135417D02*
X0212568Y0135417D01*
X0207098Y0133518D02*
X0207098Y0132748D01*
X0207098Y0133518D02*
X0212568Y0133518D01*
X0212568Y0132748D01*
X0207098Y0132748D01*
X0207098Y0133517D02*
X0212568Y0133517D01*
X0207098Y0131518D02*
X0207098Y0130748D01*
X0207098Y0131518D02*
X0212568Y0131518D01*
X0212568Y0130748D01*
X0207098Y0130748D01*
X0207098Y0131517D02*
X0212568Y0131517D01*
X0207098Y0129518D02*
X0207098Y0128748D01*
X0207098Y0129518D02*
X0212568Y0129518D01*
X0212568Y0128748D01*
X0207098Y0128748D01*
X0207098Y0129517D02*
X0212568Y0129517D01*
X0207098Y0127518D02*
X0207098Y0126748D01*
X0207098Y0127518D02*
X0212568Y0127518D01*
X0212568Y0126748D01*
X0207098Y0126748D01*
X0207098Y0127517D02*
X0212568Y0127517D01*
X0207098Y0125618D02*
X0207098Y0124848D01*
X0207098Y0125618D02*
X0212568Y0125618D01*
X0212568Y0124848D01*
X0207098Y0124848D01*
X0207098Y0125617D02*
X0212568Y0125617D01*
X0207098Y0123618D02*
X0207098Y0122848D01*
X0207098Y0123618D02*
X0212568Y0123618D01*
X0212568Y0122848D01*
X0207098Y0122848D01*
X0207098Y0123617D02*
X0212568Y0123617D01*
X0207098Y0121618D02*
X0207098Y0120848D01*
X0207098Y0121618D02*
X0212568Y0121618D01*
X0212568Y0120848D01*
X0207098Y0120848D01*
X0207098Y0121617D02*
X0212568Y0121617D01*
X0207098Y0119718D02*
X0207098Y0118948D01*
X0207098Y0119718D02*
X0212568Y0119718D01*
X0212568Y0118948D01*
X0207098Y0118948D01*
X0207098Y0119717D02*
X0212568Y0119717D01*
X0207098Y0117718D02*
X0207098Y0116948D01*
X0207098Y0117718D02*
X0212568Y0117718D01*
X0212568Y0116948D01*
X0207098Y0116948D01*
X0207098Y0117717D02*
X0212568Y0117717D01*
X0207098Y0115718D02*
X0207098Y0114948D01*
X0207098Y0115718D02*
X0212568Y0115718D01*
X0212568Y0114948D01*
X0207098Y0114948D01*
X0207098Y0115717D02*
X0212568Y0115717D01*
X0207098Y0113818D02*
X0207098Y0113048D01*
X0207098Y0113818D02*
X0212568Y0113818D01*
X0212568Y0113048D01*
X0207098Y0113048D01*
X0207098Y0113817D02*
X0212568Y0113817D01*
X0207098Y0111818D02*
X0207098Y0111048D01*
X0207098Y0111818D02*
X0212568Y0111818D01*
X0212568Y0111048D01*
X0207098Y0111048D01*
X0207098Y0111817D02*
X0212568Y0111817D01*
X0207098Y0109818D02*
X0207098Y0109048D01*
X0207098Y0109818D02*
X0212568Y0109818D01*
X0212568Y0109048D01*
X0207098Y0109048D01*
X0207098Y0109817D02*
X0212568Y0109817D01*
X0207098Y0107918D02*
X0207098Y0107148D01*
X0207098Y0107918D02*
X0212568Y0107918D01*
X0212568Y0107148D01*
X0207098Y0107148D01*
X0207098Y0107917D02*
X0212568Y0107917D01*
X0207098Y0105918D02*
X0207098Y0105148D01*
X0207098Y0105918D02*
X0212568Y0105918D01*
X0212568Y0105148D01*
X0207098Y0105148D01*
X0207098Y0105917D02*
X0212568Y0105917D01*
X0207098Y0103918D02*
X0207098Y0103148D01*
X0207098Y0103918D02*
X0212568Y0103918D01*
X0212568Y0103148D01*
X0207098Y0103148D01*
X0207098Y0103917D02*
X0212568Y0103917D01*
X0207098Y0102018D02*
X0207098Y0101248D01*
X0207098Y0102018D02*
X0212568Y0102018D01*
X0212568Y0101248D01*
X0207098Y0101248D01*
X0207098Y0102017D02*
X0212568Y0102017D01*
X0207098Y0100018D02*
X0207098Y0099248D01*
X0207098Y0100018D02*
X0212568Y0100018D01*
X0212568Y0099248D01*
X0207098Y0099248D01*
X0207098Y0100017D02*
X0212568Y0100017D01*
X0207098Y0098018D02*
X0207098Y0097248D01*
X0207098Y0098018D02*
X0212568Y0098018D01*
X0212568Y0097248D01*
X0207098Y0097248D01*
X0207098Y0098017D02*
X0212568Y0098017D01*
X0207098Y0096118D02*
X0207098Y0095348D01*
X0207098Y0096118D02*
X0212568Y0096118D01*
X0212568Y0095348D01*
X0207098Y0095348D01*
X0207098Y0096117D02*
X0212568Y0096117D01*
X0207098Y0094118D02*
X0207098Y0093348D01*
X0207098Y0094118D02*
X0212568Y0094118D01*
X0212568Y0093348D01*
X0207098Y0093348D01*
X0207098Y0094117D02*
X0212568Y0094117D01*
X0207098Y0092118D02*
X0207098Y0091348D01*
X0207098Y0092118D02*
X0212568Y0092118D01*
X0212568Y0091348D01*
X0207098Y0091348D01*
X0207098Y0092117D02*
X0212568Y0092117D01*
X0207098Y0090118D02*
X0207098Y0089348D01*
X0207098Y0090118D02*
X0212568Y0090118D01*
X0212568Y0089348D01*
X0207098Y0089348D01*
X0207098Y0090117D02*
X0212568Y0090117D01*
X0207098Y0088218D02*
X0207098Y0087448D01*
X0207098Y0088218D02*
X0212568Y0088218D01*
X0212568Y0087448D01*
X0207098Y0087448D01*
X0207098Y0088217D02*
X0212568Y0088217D01*
X0217448Y0082568D02*
X0218218Y0082568D01*
X0218218Y0077098D01*
X0217448Y0077098D01*
X0217448Y0082568D01*
X0217448Y0077867D02*
X0218218Y0077867D01*
X0218218Y0078636D02*
X0217448Y0078636D01*
X0217448Y0079405D02*
X0218218Y0079405D01*
X0218218Y0080174D02*
X0217448Y0080174D01*
X0217448Y0080943D02*
X0218218Y0080943D01*
X0218218Y0081712D02*
X0217448Y0081712D01*
X0217448Y0082481D02*
X0218218Y0082481D01*
X0219348Y0082568D02*
X0220118Y0082568D01*
X0220118Y0077098D01*
X0219348Y0077098D01*
X0219348Y0082568D01*
X0219348Y0077867D02*
X0220118Y0077867D01*
X0220118Y0078636D02*
X0219348Y0078636D01*
X0219348Y0079405D02*
X0220118Y0079405D01*
X0220118Y0080174D02*
X0219348Y0080174D01*
X0219348Y0080943D02*
X0220118Y0080943D01*
X0220118Y0081712D02*
X0219348Y0081712D01*
X0219348Y0082481D02*
X0220118Y0082481D01*
X0221348Y0082568D02*
X0222118Y0082568D01*
X0222118Y0077098D01*
X0221348Y0077098D01*
X0221348Y0082568D01*
X0221348Y0077867D02*
X0222118Y0077867D01*
X0222118Y0078636D02*
X0221348Y0078636D01*
X0221348Y0079405D02*
X0222118Y0079405D01*
X0222118Y0080174D02*
X0221348Y0080174D01*
X0221348Y0080943D02*
X0222118Y0080943D01*
X0222118Y0081712D02*
X0221348Y0081712D01*
X0221348Y0082481D02*
X0222118Y0082481D01*
X0223348Y0082568D02*
X0224118Y0082568D01*
X0224118Y0077098D01*
X0223348Y0077098D01*
X0223348Y0082568D01*
X0223348Y0077867D02*
X0224118Y0077867D01*
X0224118Y0078636D02*
X0223348Y0078636D01*
X0223348Y0079405D02*
X0224118Y0079405D01*
X0224118Y0080174D02*
X0223348Y0080174D01*
X0223348Y0080943D02*
X0224118Y0080943D01*
X0224118Y0081712D02*
X0223348Y0081712D01*
X0223348Y0082481D02*
X0224118Y0082481D01*
X0225348Y0082568D02*
X0226118Y0082568D01*
X0226118Y0077098D01*
X0225348Y0077098D01*
X0225348Y0082568D01*
X0225348Y0077867D02*
X0226118Y0077867D01*
X0226118Y0078636D02*
X0225348Y0078636D01*
X0225348Y0079405D02*
X0226118Y0079405D01*
X0226118Y0080174D02*
X0225348Y0080174D01*
X0225348Y0080943D02*
X0226118Y0080943D01*
X0226118Y0081712D02*
X0225348Y0081712D01*
X0225348Y0082481D02*
X0226118Y0082481D01*
X0227248Y0082568D02*
X0228018Y0082568D01*
X0228018Y0077098D01*
X0227248Y0077098D01*
X0227248Y0082568D01*
X0227248Y0077867D02*
X0228018Y0077867D01*
X0228018Y0078636D02*
X0227248Y0078636D01*
X0227248Y0079405D02*
X0228018Y0079405D01*
X0228018Y0080174D02*
X0227248Y0080174D01*
X0227248Y0080943D02*
X0228018Y0080943D01*
X0228018Y0081712D02*
X0227248Y0081712D01*
X0227248Y0082481D02*
X0228018Y0082481D01*
X0229248Y0082568D02*
X0230018Y0082568D01*
X0230018Y0077098D01*
X0229248Y0077098D01*
X0229248Y0082568D01*
X0229248Y0077867D02*
X0230018Y0077867D01*
X0230018Y0078636D02*
X0229248Y0078636D01*
X0229248Y0079405D02*
X0230018Y0079405D01*
X0230018Y0080174D02*
X0229248Y0080174D01*
X0229248Y0080943D02*
X0230018Y0080943D01*
X0230018Y0081712D02*
X0229248Y0081712D01*
X0229248Y0082481D02*
X0230018Y0082481D01*
X0231248Y0082568D02*
X0232018Y0082568D01*
X0232018Y0077098D01*
X0231248Y0077098D01*
X0231248Y0082568D01*
X0231248Y0077867D02*
X0232018Y0077867D01*
X0232018Y0078636D02*
X0231248Y0078636D01*
X0231248Y0079405D02*
X0232018Y0079405D01*
X0232018Y0080174D02*
X0231248Y0080174D01*
X0231248Y0080943D02*
X0232018Y0080943D01*
X0232018Y0081712D02*
X0231248Y0081712D01*
X0231248Y0082481D02*
X0232018Y0082481D01*
X0233148Y0082568D02*
X0233918Y0082568D01*
X0233918Y0077098D01*
X0233148Y0077098D01*
X0233148Y0082568D01*
X0233148Y0077867D02*
X0233918Y0077867D01*
X0233918Y0078636D02*
X0233148Y0078636D01*
X0233148Y0079405D02*
X0233918Y0079405D01*
X0233918Y0080174D02*
X0233148Y0080174D01*
X0233148Y0080943D02*
X0233918Y0080943D01*
X0233918Y0081712D02*
X0233148Y0081712D01*
X0233148Y0082481D02*
X0233918Y0082481D01*
X0235148Y0082568D02*
X0235918Y0082568D01*
X0235918Y0077098D01*
X0235148Y0077098D01*
X0235148Y0082568D01*
X0235148Y0077867D02*
X0235918Y0077867D01*
X0235918Y0078636D02*
X0235148Y0078636D01*
X0235148Y0079405D02*
X0235918Y0079405D01*
X0235918Y0080174D02*
X0235148Y0080174D01*
X0235148Y0080943D02*
X0235918Y0080943D01*
X0235918Y0081712D02*
X0235148Y0081712D01*
X0235148Y0082481D02*
X0235918Y0082481D01*
X0237148Y0082568D02*
X0237918Y0082568D01*
X0237918Y0077098D01*
X0237148Y0077098D01*
X0237148Y0082568D01*
X0237148Y0077867D02*
X0237918Y0077867D01*
X0237918Y0078636D02*
X0237148Y0078636D01*
X0237148Y0079405D02*
X0237918Y0079405D01*
X0237918Y0080174D02*
X0237148Y0080174D01*
X0237148Y0080943D02*
X0237918Y0080943D01*
X0237918Y0081712D02*
X0237148Y0081712D01*
X0237148Y0082481D02*
X0237918Y0082481D01*
X0239048Y0082568D02*
X0239818Y0082568D01*
X0239818Y0077098D01*
X0239048Y0077098D01*
X0239048Y0082568D01*
X0239048Y0077867D02*
X0239818Y0077867D01*
X0239818Y0078636D02*
X0239048Y0078636D01*
X0239048Y0079405D02*
X0239818Y0079405D01*
X0239818Y0080174D02*
X0239048Y0080174D01*
X0239048Y0080943D02*
X0239818Y0080943D01*
X0239818Y0081712D02*
X0239048Y0081712D01*
X0239048Y0082481D02*
X0239818Y0082481D01*
X0241048Y0082568D02*
X0241818Y0082568D01*
X0241818Y0077098D01*
X0241048Y0077098D01*
X0241048Y0082568D01*
X0241048Y0077867D02*
X0241818Y0077867D01*
X0241818Y0078636D02*
X0241048Y0078636D01*
X0241048Y0079405D02*
X0241818Y0079405D01*
X0241818Y0080174D02*
X0241048Y0080174D01*
X0241048Y0080943D02*
X0241818Y0080943D01*
X0241818Y0081712D02*
X0241048Y0081712D01*
X0241048Y0082481D02*
X0241818Y0082481D01*
X0243048Y0082568D02*
X0243818Y0082568D01*
X0243818Y0077098D01*
X0243048Y0077098D01*
X0243048Y0082568D01*
X0243048Y0077867D02*
X0243818Y0077867D01*
X0243818Y0078636D02*
X0243048Y0078636D01*
X0243048Y0079405D02*
X0243818Y0079405D01*
X0243818Y0080174D02*
X0243048Y0080174D01*
X0243048Y0080943D02*
X0243818Y0080943D01*
X0243818Y0081712D02*
X0243048Y0081712D01*
X0243048Y0082481D02*
X0243818Y0082481D01*
X0244948Y0082568D02*
X0245718Y0082568D01*
X0245718Y0077098D01*
X0244948Y0077098D01*
X0244948Y0082568D01*
X0244948Y0077867D02*
X0245718Y0077867D01*
X0245718Y0078636D02*
X0244948Y0078636D01*
X0244948Y0079405D02*
X0245718Y0079405D01*
X0245718Y0080174D02*
X0244948Y0080174D01*
X0244948Y0080943D02*
X0245718Y0080943D01*
X0245718Y0081712D02*
X0244948Y0081712D01*
X0244948Y0082481D02*
X0245718Y0082481D01*
X0246948Y0082568D02*
X0247718Y0082568D01*
X0247718Y0077098D01*
X0246948Y0077098D01*
X0246948Y0082568D01*
X0246948Y0077867D02*
X0247718Y0077867D01*
X0247718Y0078636D02*
X0246948Y0078636D01*
X0246948Y0079405D02*
X0247718Y0079405D01*
X0247718Y0080174D02*
X0246948Y0080174D01*
X0246948Y0080943D02*
X0247718Y0080943D01*
X0247718Y0081712D02*
X0246948Y0081712D01*
X0246948Y0082481D02*
X0247718Y0082481D01*
X0248948Y0082568D02*
X0249718Y0082568D01*
X0249718Y0077098D01*
X0248948Y0077098D01*
X0248948Y0082568D01*
X0248948Y0077867D02*
X0249718Y0077867D01*
X0249718Y0078636D02*
X0248948Y0078636D01*
X0248948Y0079405D02*
X0249718Y0079405D01*
X0249718Y0080174D02*
X0248948Y0080174D01*
X0248948Y0080943D02*
X0249718Y0080943D01*
X0249718Y0081712D02*
X0248948Y0081712D01*
X0248948Y0082481D02*
X0249718Y0082481D01*
X0250848Y0082568D02*
X0251618Y0082568D01*
X0251618Y0077098D01*
X0250848Y0077098D01*
X0250848Y0082568D01*
X0250848Y0077867D02*
X0251618Y0077867D01*
X0251618Y0078636D02*
X0250848Y0078636D01*
X0250848Y0079405D02*
X0251618Y0079405D01*
X0251618Y0080174D02*
X0250848Y0080174D01*
X0250848Y0080943D02*
X0251618Y0080943D01*
X0251618Y0081712D02*
X0250848Y0081712D01*
X0250848Y0082481D02*
X0251618Y0082481D01*
X0252848Y0082568D02*
X0253618Y0082568D01*
X0253618Y0077098D01*
X0252848Y0077098D01*
X0252848Y0082568D01*
X0252848Y0077867D02*
X0253618Y0077867D01*
X0253618Y0078636D02*
X0252848Y0078636D01*
X0252848Y0079405D02*
X0253618Y0079405D01*
X0253618Y0080174D02*
X0252848Y0080174D01*
X0252848Y0080943D02*
X0253618Y0080943D01*
X0253618Y0081712D02*
X0252848Y0081712D01*
X0252848Y0082481D02*
X0253618Y0082481D01*
X0254848Y0082568D02*
X0255618Y0082568D01*
X0255618Y0077098D01*
X0254848Y0077098D01*
X0254848Y0082568D01*
X0254848Y0077867D02*
X0255618Y0077867D01*
X0255618Y0078636D02*
X0254848Y0078636D01*
X0254848Y0079405D02*
X0255618Y0079405D01*
X0255618Y0080174D02*
X0254848Y0080174D01*
X0254848Y0080943D02*
X0255618Y0080943D01*
X0255618Y0081712D02*
X0254848Y0081712D01*
X0254848Y0082481D02*
X0255618Y0082481D01*
X0256748Y0082568D02*
X0257518Y0082568D01*
X0257518Y0077098D01*
X0256748Y0077098D01*
X0256748Y0082568D01*
X0256748Y0077867D02*
X0257518Y0077867D01*
X0257518Y0078636D02*
X0256748Y0078636D01*
X0256748Y0079405D02*
X0257518Y0079405D01*
X0257518Y0080174D02*
X0256748Y0080174D01*
X0256748Y0080943D02*
X0257518Y0080943D01*
X0257518Y0081712D02*
X0256748Y0081712D01*
X0256748Y0082481D02*
X0257518Y0082481D01*
X0258748Y0082568D02*
X0259518Y0082568D01*
X0259518Y0077098D01*
X0258748Y0077098D01*
X0258748Y0082568D01*
X0258748Y0077867D02*
X0259518Y0077867D01*
X0259518Y0078636D02*
X0258748Y0078636D01*
X0258748Y0079405D02*
X0259518Y0079405D01*
X0259518Y0080174D02*
X0258748Y0080174D01*
X0258748Y0080943D02*
X0259518Y0080943D01*
X0259518Y0081712D02*
X0258748Y0081712D01*
X0258748Y0082481D02*
X0259518Y0082481D01*
X0260748Y0082568D02*
X0261518Y0082568D01*
X0261518Y0077098D01*
X0260748Y0077098D01*
X0260748Y0082568D01*
X0260748Y0077867D02*
X0261518Y0077867D01*
X0261518Y0078636D02*
X0260748Y0078636D01*
X0260748Y0079405D02*
X0261518Y0079405D01*
X0261518Y0080174D02*
X0260748Y0080174D01*
X0260748Y0080943D02*
X0261518Y0080943D01*
X0261518Y0081712D02*
X0260748Y0081712D01*
X0260748Y0082481D02*
X0261518Y0082481D01*
X0262748Y0082568D02*
X0263518Y0082568D01*
X0263518Y0077098D01*
X0262748Y0077098D01*
X0262748Y0082568D01*
X0262748Y0077867D02*
X0263518Y0077867D01*
X0263518Y0078636D02*
X0262748Y0078636D01*
X0262748Y0079405D02*
X0263518Y0079405D01*
X0263518Y0080174D02*
X0262748Y0080174D01*
X0262748Y0080943D02*
X0263518Y0080943D01*
X0263518Y0081712D02*
X0262748Y0081712D01*
X0262748Y0082481D02*
X0263518Y0082481D01*
X0264648Y0082568D02*
X0265418Y0082568D01*
X0265418Y0077098D01*
X0264648Y0077098D01*
X0264648Y0082568D01*
X0264648Y0077867D02*
X0265418Y0077867D01*
X0265418Y0078636D02*
X0264648Y0078636D01*
X0264648Y0079405D02*
X0265418Y0079405D01*
X0265418Y0080174D02*
X0264648Y0080174D01*
X0264648Y0080943D02*
X0265418Y0080943D01*
X0265418Y0081712D02*
X0264648Y0081712D01*
X0264648Y0082481D02*
X0265418Y0082481D01*
X0270298Y0087448D02*
X0270298Y0088218D01*
X0275768Y0088218D01*
X0275768Y0087448D01*
X0270298Y0087448D01*
X0270298Y0088217D02*
X0275768Y0088217D01*
X0270298Y0089348D02*
X0270298Y0090118D01*
X0275768Y0090118D01*
X0275768Y0089348D01*
X0270298Y0089348D01*
X0270298Y0090117D02*
X0275768Y0090117D01*
X0270298Y0091348D02*
X0270298Y0092118D01*
X0275768Y0092118D01*
X0275768Y0091348D01*
X0270298Y0091348D01*
X0270298Y0092117D02*
X0275768Y0092117D01*
X0270298Y0093348D02*
X0270298Y0094118D01*
X0275768Y0094118D01*
X0275768Y0093348D01*
X0270298Y0093348D01*
X0270298Y0094117D02*
X0275768Y0094117D01*
X0270298Y0095348D02*
X0270298Y0096118D01*
X0275768Y0096118D01*
X0275768Y0095348D01*
X0270298Y0095348D01*
X0270298Y0096117D02*
X0275768Y0096117D01*
X0270298Y0097248D02*
X0270298Y0098018D01*
X0275768Y0098018D01*
X0275768Y0097248D01*
X0270298Y0097248D01*
X0270298Y0098017D02*
X0275768Y0098017D01*
X0270298Y0099248D02*
X0270298Y0100018D01*
X0275768Y0100018D01*
X0275768Y0099248D01*
X0270298Y0099248D01*
X0270298Y0100017D02*
X0275768Y0100017D01*
X0270298Y0101248D02*
X0270298Y0102018D01*
X0275768Y0102018D01*
X0275768Y0101248D01*
X0270298Y0101248D01*
X0270298Y0102017D02*
X0275768Y0102017D01*
X0270298Y0103148D02*
X0270298Y0103918D01*
X0275768Y0103918D01*
X0275768Y0103148D01*
X0270298Y0103148D01*
X0270298Y0103917D02*
X0275768Y0103917D01*
X0270298Y0105148D02*
X0270298Y0105918D01*
X0275768Y0105918D01*
X0275768Y0105148D01*
X0270298Y0105148D01*
X0270298Y0105917D02*
X0275768Y0105917D01*
X0270298Y0107148D02*
X0270298Y0107918D01*
X0275768Y0107918D01*
X0275768Y0107148D01*
X0270298Y0107148D01*
X0270298Y0107917D02*
X0275768Y0107917D01*
X0270298Y0109048D02*
X0270298Y0109818D01*
X0275768Y0109818D01*
X0275768Y0109048D01*
X0270298Y0109048D01*
X0270298Y0109817D02*
X0275768Y0109817D01*
X0270298Y0111048D02*
X0270298Y0111818D01*
X0275768Y0111818D01*
X0275768Y0111048D01*
X0270298Y0111048D01*
X0270298Y0111817D02*
X0275768Y0111817D01*
X0270298Y0113048D02*
X0270298Y0113818D01*
X0275768Y0113818D01*
X0275768Y0113048D01*
X0270298Y0113048D01*
X0270298Y0113817D02*
X0275768Y0113817D01*
X0270298Y0114948D02*
X0270298Y0115718D01*
X0275768Y0115718D01*
X0275768Y0114948D01*
X0270298Y0114948D01*
X0270298Y0115717D02*
X0275768Y0115717D01*
X0270298Y0116948D02*
X0270298Y0117718D01*
X0275768Y0117718D01*
X0275768Y0116948D01*
X0270298Y0116948D01*
X0270298Y0117717D02*
X0275768Y0117717D01*
X0270298Y0118948D02*
X0270298Y0119718D01*
X0275768Y0119718D01*
X0275768Y0118948D01*
X0270298Y0118948D01*
X0270298Y0119717D02*
X0275768Y0119717D01*
X0270298Y0120848D02*
X0270298Y0121618D01*
X0275768Y0121618D01*
X0275768Y0120848D01*
X0270298Y0120848D01*
X0270298Y0121617D02*
X0275768Y0121617D01*
X0270298Y0122848D02*
X0270298Y0123618D01*
X0275768Y0123618D01*
X0275768Y0122848D01*
X0270298Y0122848D01*
X0270298Y0123617D02*
X0275768Y0123617D01*
X0270298Y0124848D02*
X0270298Y0125618D01*
X0275768Y0125618D01*
X0275768Y0124848D01*
X0270298Y0124848D01*
X0270298Y0125617D02*
X0275768Y0125617D01*
X0270298Y0126748D02*
X0270298Y0127518D01*
X0275768Y0127518D01*
X0275768Y0126748D01*
X0270298Y0126748D01*
X0270298Y0127517D02*
X0275768Y0127517D01*
X0270298Y0128748D02*
X0270298Y0129518D01*
X0275768Y0129518D01*
X0275768Y0128748D01*
X0270298Y0128748D01*
X0270298Y0129517D02*
X0275768Y0129517D01*
X0270298Y0130748D02*
X0270298Y0131518D01*
X0275768Y0131518D01*
X0275768Y0130748D01*
X0270298Y0130748D01*
X0270298Y0131517D02*
X0275768Y0131517D01*
X0270298Y0132748D02*
X0270298Y0133518D01*
X0275768Y0133518D01*
X0275768Y0132748D01*
X0270298Y0132748D01*
X0270298Y0133517D02*
X0275768Y0133517D01*
X0270298Y0134648D02*
X0270298Y0135418D01*
X0275768Y0135418D01*
X0275768Y0134648D01*
X0270298Y0134648D01*
X0270298Y0135417D02*
X0275768Y0135417D01*
D16*
X0086433Y0051433D03*
X0096433Y0051433D03*
X0096433Y0066433D03*
X0086433Y0066433D03*
X0183933Y0046933D03*
X0193933Y0046933D03*
X0321433Y0051433D03*
X0321433Y0061433D03*
X0331433Y0061433D03*
X0341433Y0061433D03*
X0351433Y0061433D03*
X0351433Y0051433D03*
X0341433Y0051433D03*
X0331433Y0051433D03*
X0361433Y0051433D03*
X0073441Y0124858D03*
X0073441Y0134858D03*
D17*
X0073441Y0144858D03*
X0361433Y0061433D03*
D18*
X0275600Y0187663D02*
X0275600Y0215203D01*
X0295266Y0215203D01*
X0295266Y0187663D01*
X0275600Y0187663D01*
X0275600Y0188481D02*
X0295266Y0188481D01*
X0295266Y0189299D02*
X0275600Y0189299D01*
X0275600Y0190117D02*
X0295266Y0190117D01*
X0295266Y0190935D02*
X0275600Y0190935D01*
X0275600Y0191753D02*
X0295266Y0191753D01*
X0295266Y0192571D02*
X0275600Y0192571D01*
X0275600Y0193389D02*
X0295266Y0193389D01*
X0295266Y0194207D02*
X0275600Y0194207D01*
X0275600Y0195025D02*
X0295266Y0195025D01*
X0295266Y0195843D02*
X0275600Y0195843D01*
X0275600Y0196661D02*
X0295266Y0196661D01*
X0295266Y0197479D02*
X0275600Y0197479D01*
X0275600Y0198297D02*
X0295266Y0198297D01*
X0295266Y0199115D02*
X0275600Y0199115D01*
X0275600Y0199933D02*
X0295266Y0199933D01*
X0295266Y0200751D02*
X0275600Y0200751D01*
X0275600Y0201569D02*
X0295266Y0201569D01*
X0295266Y0202387D02*
X0275600Y0202387D01*
X0275600Y0203205D02*
X0295266Y0203205D01*
X0295266Y0204023D02*
X0275600Y0204023D01*
X0275600Y0204841D02*
X0295266Y0204841D01*
X0295266Y0205659D02*
X0275600Y0205659D01*
X0275600Y0206477D02*
X0295266Y0206477D01*
X0295266Y0207295D02*
X0275600Y0207295D01*
X0275600Y0208113D02*
X0295266Y0208113D01*
X0295266Y0208931D02*
X0275600Y0208931D01*
X0275600Y0209749D02*
X0295266Y0209749D01*
X0295266Y0210567D02*
X0275600Y0210567D01*
X0275600Y0211385D02*
X0295266Y0211385D01*
X0295266Y0212203D02*
X0275600Y0212203D01*
X0275600Y0213021D02*
X0295266Y0213021D01*
X0295266Y0213839D02*
X0275600Y0213839D01*
X0275600Y0214657D02*
X0295266Y0214657D01*
X0228600Y0215203D02*
X0228600Y0187663D01*
X0228600Y0215203D02*
X0248266Y0215203D01*
X0248266Y0187663D01*
X0228600Y0187663D01*
X0228600Y0188481D02*
X0248266Y0188481D01*
X0248266Y0189299D02*
X0228600Y0189299D01*
X0228600Y0190117D02*
X0248266Y0190117D01*
X0248266Y0190935D02*
X0228600Y0190935D01*
X0228600Y0191753D02*
X0248266Y0191753D01*
X0248266Y0192571D02*
X0228600Y0192571D01*
X0228600Y0193389D02*
X0248266Y0193389D01*
X0248266Y0194207D02*
X0228600Y0194207D01*
X0228600Y0195025D02*
X0248266Y0195025D01*
X0248266Y0195843D02*
X0228600Y0195843D01*
X0228600Y0196661D02*
X0248266Y0196661D01*
X0248266Y0197479D02*
X0228600Y0197479D01*
X0228600Y0198297D02*
X0248266Y0198297D01*
X0248266Y0199115D02*
X0228600Y0199115D01*
X0228600Y0199933D02*
X0248266Y0199933D01*
X0248266Y0200751D02*
X0228600Y0200751D01*
X0228600Y0201569D02*
X0248266Y0201569D01*
X0248266Y0202387D02*
X0228600Y0202387D01*
X0228600Y0203205D02*
X0248266Y0203205D01*
X0248266Y0204023D02*
X0228600Y0204023D01*
X0228600Y0204841D02*
X0248266Y0204841D01*
X0248266Y0205659D02*
X0228600Y0205659D01*
X0228600Y0206477D02*
X0248266Y0206477D01*
X0248266Y0207295D02*
X0228600Y0207295D01*
X0228600Y0208113D02*
X0248266Y0208113D01*
X0248266Y0208931D02*
X0228600Y0208931D01*
X0228600Y0209749D02*
X0248266Y0209749D01*
X0248266Y0210567D02*
X0228600Y0210567D01*
X0228600Y0211385D02*
X0248266Y0211385D01*
X0248266Y0212203D02*
X0228600Y0212203D01*
X0228600Y0213021D02*
X0248266Y0213021D01*
X0248266Y0213839D02*
X0228600Y0213839D01*
X0228600Y0214657D02*
X0248266Y0214657D01*
D19*
X0160800Y0165196D02*
X0160800Y0162670D01*
X0160800Y0165196D02*
X0165688Y0165196D01*
X0165688Y0162670D01*
X0160800Y0162670D01*
X0160800Y0163700D02*
X0165688Y0163700D01*
X0165688Y0164730D02*
X0160800Y0164730D01*
X0160800Y0160196D02*
X0160800Y0157670D01*
X0160800Y0160196D02*
X0165688Y0160196D01*
X0165688Y0157670D01*
X0160800Y0157670D01*
X0160800Y0158700D02*
X0165688Y0158700D01*
X0165688Y0159730D02*
X0160800Y0159730D01*
X0160800Y0155196D02*
X0160800Y0152670D01*
X0160800Y0155196D02*
X0165688Y0155196D01*
X0165688Y0152670D01*
X0160800Y0152670D01*
X0160800Y0153700D02*
X0165688Y0153700D01*
X0165688Y0154730D02*
X0160800Y0154730D01*
X0160800Y0150196D02*
X0160800Y0147670D01*
X0160800Y0150196D02*
X0165688Y0150196D01*
X0165688Y0147670D01*
X0160800Y0147670D01*
X0160800Y0148700D02*
X0165688Y0148700D01*
X0165688Y0149730D02*
X0160800Y0149730D01*
X0160800Y0145196D02*
X0160800Y0142670D01*
X0160800Y0145196D02*
X0165688Y0145196D01*
X0165688Y0142670D01*
X0160800Y0142670D01*
X0160800Y0143700D02*
X0165688Y0143700D01*
X0165688Y0144730D02*
X0160800Y0144730D01*
X0160800Y0140196D02*
X0160800Y0137670D01*
X0160800Y0140196D02*
X0165688Y0140196D01*
X0165688Y0137670D01*
X0160800Y0137670D01*
X0160800Y0138700D02*
X0165688Y0138700D01*
X0165688Y0139730D02*
X0160800Y0139730D01*
X0160800Y0135196D02*
X0160800Y0132670D01*
X0160800Y0135196D02*
X0165688Y0135196D01*
X0165688Y0132670D01*
X0160800Y0132670D01*
X0160800Y0133700D02*
X0165688Y0133700D01*
X0165688Y0134730D02*
X0160800Y0134730D01*
X0137178Y0135196D02*
X0137178Y0132670D01*
X0137178Y0135196D02*
X0142066Y0135196D01*
X0142066Y0132670D01*
X0137178Y0132670D01*
X0137178Y0133700D02*
X0142066Y0133700D01*
X0142066Y0134730D02*
X0137178Y0134730D01*
X0137178Y0137670D02*
X0137178Y0140196D01*
X0142066Y0140196D01*
X0142066Y0137670D01*
X0137178Y0137670D01*
X0137178Y0138700D02*
X0142066Y0138700D01*
X0142066Y0139730D02*
X0137178Y0139730D01*
X0137178Y0142670D02*
X0137178Y0145196D01*
X0142066Y0145196D01*
X0142066Y0142670D01*
X0137178Y0142670D01*
X0137178Y0143700D02*
X0142066Y0143700D01*
X0142066Y0144730D02*
X0137178Y0144730D01*
X0137178Y0147670D02*
X0137178Y0150196D01*
X0142066Y0150196D01*
X0142066Y0147670D01*
X0137178Y0147670D01*
X0137178Y0148700D02*
X0142066Y0148700D01*
X0142066Y0149730D02*
X0137178Y0149730D01*
X0137178Y0152670D02*
X0137178Y0155196D01*
X0142066Y0155196D01*
X0142066Y0152670D01*
X0137178Y0152670D01*
X0137178Y0153700D02*
X0142066Y0153700D01*
X0142066Y0154730D02*
X0137178Y0154730D01*
X0137178Y0157670D02*
X0137178Y0160196D01*
X0142066Y0160196D01*
X0142066Y0157670D01*
X0137178Y0157670D01*
X0137178Y0158700D02*
X0142066Y0158700D01*
X0142066Y0159730D02*
X0137178Y0159730D01*
X0137178Y0162670D02*
X0137178Y0165196D01*
X0142066Y0165196D01*
X0142066Y0162670D01*
X0137178Y0162670D01*
X0137178Y0163700D02*
X0142066Y0163700D01*
X0142066Y0164730D02*
X0137178Y0164730D01*
X0110800Y0165196D02*
X0110800Y0162670D01*
X0110800Y0165196D02*
X0115688Y0165196D01*
X0115688Y0162670D01*
X0110800Y0162670D01*
X0110800Y0163700D02*
X0115688Y0163700D01*
X0115688Y0164730D02*
X0110800Y0164730D01*
X0110800Y0160196D02*
X0110800Y0157670D01*
X0110800Y0160196D02*
X0115688Y0160196D01*
X0115688Y0157670D01*
X0110800Y0157670D01*
X0110800Y0158700D02*
X0115688Y0158700D01*
X0115688Y0159730D02*
X0110800Y0159730D01*
X0110800Y0155196D02*
X0110800Y0152670D01*
X0110800Y0155196D02*
X0115688Y0155196D01*
X0115688Y0152670D01*
X0110800Y0152670D01*
X0110800Y0153700D02*
X0115688Y0153700D01*
X0115688Y0154730D02*
X0110800Y0154730D01*
X0110800Y0150196D02*
X0110800Y0147670D01*
X0110800Y0150196D02*
X0115688Y0150196D01*
X0115688Y0147670D01*
X0110800Y0147670D01*
X0110800Y0148700D02*
X0115688Y0148700D01*
X0115688Y0149730D02*
X0110800Y0149730D01*
X0110800Y0145196D02*
X0110800Y0142670D01*
X0110800Y0145196D02*
X0115688Y0145196D01*
X0115688Y0142670D01*
X0110800Y0142670D01*
X0110800Y0143700D02*
X0115688Y0143700D01*
X0115688Y0144730D02*
X0110800Y0144730D01*
X0110800Y0140196D02*
X0110800Y0137670D01*
X0110800Y0140196D02*
X0115688Y0140196D01*
X0115688Y0137670D01*
X0110800Y0137670D01*
X0110800Y0138700D02*
X0115688Y0138700D01*
X0115688Y0139730D02*
X0110800Y0139730D01*
X0110800Y0135196D02*
X0110800Y0132670D01*
X0110800Y0135196D02*
X0115688Y0135196D01*
X0115688Y0132670D01*
X0110800Y0132670D01*
X0110800Y0133700D02*
X0115688Y0133700D01*
X0115688Y0134730D02*
X0110800Y0134730D01*
X0087178Y0135196D02*
X0087178Y0132670D01*
X0087178Y0135196D02*
X0092066Y0135196D01*
X0092066Y0132670D01*
X0087178Y0132670D01*
X0087178Y0133700D02*
X0092066Y0133700D01*
X0092066Y0134730D02*
X0087178Y0134730D01*
X0087178Y0137670D02*
X0087178Y0140196D01*
X0092066Y0140196D01*
X0092066Y0137670D01*
X0087178Y0137670D01*
X0087178Y0138700D02*
X0092066Y0138700D01*
X0092066Y0139730D02*
X0087178Y0139730D01*
X0087178Y0142670D02*
X0087178Y0145196D01*
X0092066Y0145196D01*
X0092066Y0142670D01*
X0087178Y0142670D01*
X0087178Y0143700D02*
X0092066Y0143700D01*
X0092066Y0144730D02*
X0087178Y0144730D01*
X0087178Y0147670D02*
X0087178Y0150196D01*
X0092066Y0150196D01*
X0092066Y0147670D01*
X0087178Y0147670D01*
X0087178Y0148700D02*
X0092066Y0148700D01*
X0092066Y0149730D02*
X0087178Y0149730D01*
X0087178Y0152670D02*
X0087178Y0155196D01*
X0092066Y0155196D01*
X0092066Y0152670D01*
X0087178Y0152670D01*
X0087178Y0153700D02*
X0092066Y0153700D01*
X0092066Y0154730D02*
X0087178Y0154730D01*
X0087178Y0157670D02*
X0087178Y0160196D01*
X0092066Y0160196D01*
X0092066Y0157670D01*
X0087178Y0157670D01*
X0087178Y0158700D02*
X0092066Y0158700D01*
X0092066Y0159730D02*
X0087178Y0159730D01*
X0087178Y0162670D02*
X0087178Y0165196D01*
X0092066Y0165196D01*
X0092066Y0162670D01*
X0087178Y0162670D01*
X0087178Y0163700D02*
X0092066Y0163700D01*
X0092066Y0164730D02*
X0087178Y0164730D01*
D20*
X0056118Y0213598D03*
X0056118Y0056118D03*
X0410449Y0056118D03*
X0410449Y0213598D03*
D21*
X0218772Y0212716D02*
X0218772Y0216922D01*
X0218772Y0212716D02*
X0207086Y0212716D01*
X0207086Y0216922D01*
X0218772Y0216922D01*
X0218772Y0213639D02*
X0207086Y0213639D01*
X0207086Y0214562D02*
X0218772Y0214562D01*
X0218772Y0215485D02*
X0207086Y0215485D01*
X0207086Y0216408D02*
X0218772Y0216408D01*
X0218772Y0210229D02*
X0218772Y0206023D01*
X0207086Y0206023D01*
X0207086Y0210229D01*
X0218772Y0210229D01*
X0218772Y0206946D02*
X0207086Y0206946D01*
X0207086Y0207869D02*
X0218772Y0207869D01*
X0218772Y0208792D02*
X0207086Y0208792D01*
X0207086Y0209715D02*
X0218772Y0209715D01*
X0218772Y0203536D02*
X0218772Y0199330D01*
X0207086Y0199330D01*
X0207086Y0203536D01*
X0218772Y0203536D01*
X0218772Y0200253D02*
X0207086Y0200253D01*
X0207086Y0201176D02*
X0218772Y0201176D01*
X0218772Y0202099D02*
X0207086Y0202099D01*
X0207086Y0203022D02*
X0218772Y0203022D01*
X0218772Y0196843D02*
X0218772Y0192637D01*
X0207086Y0192637D01*
X0207086Y0196843D01*
X0218772Y0196843D01*
X0218772Y0193560D02*
X0207086Y0193560D01*
X0207086Y0194483D02*
X0218772Y0194483D01*
X0218772Y0195406D02*
X0207086Y0195406D01*
X0207086Y0196329D02*
X0218772Y0196329D01*
X0218772Y0190150D02*
X0218772Y0185944D01*
X0207086Y0185944D01*
X0207086Y0190150D01*
X0218772Y0190150D01*
X0218772Y0186867D02*
X0207086Y0186867D01*
X0207086Y0187790D02*
X0218772Y0187790D01*
X0218772Y0188713D02*
X0207086Y0188713D01*
X0207086Y0189636D02*
X0218772Y0189636D01*
D22*
X0184597Y0179864D02*
X0184597Y0223002D01*
X0184597Y0179864D02*
X0153269Y0179864D01*
X0153269Y0223002D01*
X0184597Y0223002D01*
X0184597Y0180832D02*
X0153269Y0180832D01*
X0153269Y0181800D02*
X0184597Y0181800D01*
X0184597Y0182768D02*
X0153269Y0182768D01*
X0153269Y0183736D02*
X0184597Y0183736D01*
X0184597Y0184704D02*
X0153269Y0184704D01*
X0153269Y0185672D02*
X0184597Y0185672D01*
X0184597Y0186640D02*
X0153269Y0186640D01*
X0153269Y0187608D02*
X0184597Y0187608D01*
X0184597Y0188576D02*
X0153269Y0188576D01*
X0153269Y0189544D02*
X0184597Y0189544D01*
X0184597Y0190512D02*
X0153269Y0190512D01*
X0153269Y0191480D02*
X0184597Y0191480D01*
X0184597Y0192448D02*
X0153269Y0192448D01*
X0153269Y0193416D02*
X0184597Y0193416D01*
X0184597Y0194384D02*
X0153269Y0194384D01*
X0153269Y0195352D02*
X0184597Y0195352D01*
X0184597Y0196320D02*
X0153269Y0196320D01*
X0153269Y0197288D02*
X0184597Y0197288D01*
X0184597Y0198256D02*
X0153269Y0198256D01*
X0153269Y0199224D02*
X0184597Y0199224D01*
X0184597Y0200192D02*
X0153269Y0200192D01*
X0153269Y0201160D02*
X0184597Y0201160D01*
X0184597Y0202128D02*
X0153269Y0202128D01*
X0153269Y0203096D02*
X0184597Y0203096D01*
X0184597Y0204064D02*
X0153269Y0204064D01*
X0153269Y0205032D02*
X0184597Y0205032D01*
X0184597Y0206000D02*
X0153269Y0206000D01*
X0153269Y0206968D02*
X0184597Y0206968D01*
X0184597Y0207936D02*
X0153269Y0207936D01*
X0153269Y0208904D02*
X0184597Y0208904D01*
X0184597Y0209872D02*
X0153269Y0209872D01*
X0153269Y0210840D02*
X0184597Y0210840D01*
X0184597Y0211808D02*
X0153269Y0211808D01*
X0153269Y0212776D02*
X0184597Y0212776D01*
X0184597Y0213744D02*
X0153269Y0213744D01*
X0153269Y0214712D02*
X0184597Y0214712D01*
X0184597Y0215680D02*
X0153269Y0215680D01*
X0153269Y0216648D02*
X0184597Y0216648D01*
X0184597Y0217616D02*
X0153269Y0217616D01*
X0153269Y0218584D02*
X0184597Y0218584D01*
X0184597Y0219552D02*
X0153269Y0219552D01*
X0153269Y0220520D02*
X0184597Y0220520D01*
X0184597Y0221488D02*
X0153269Y0221488D01*
X0153269Y0222456D02*
X0184597Y0222456D01*
D23*
X0176433Y0211433D03*
X0161433Y0211433D03*
X0161433Y0191433D03*
X0176433Y0191433D03*
X0406433Y0176433D03*
D24*
X0111433Y0189992D03*
X0092929Y0189992D03*
D25*
X0129937Y0189992D03*
D26*
X0137811Y0227394D03*
X0085055Y0227394D03*
D27*
X0393815Y0181925D02*
X0399367Y0181925D01*
X0393815Y0181925D02*
X0393815Y0182753D01*
X0399367Y0182753D01*
X0399367Y0181925D01*
X0399367Y0182751D02*
X0393815Y0182751D01*
X0393815Y0179956D02*
X0399367Y0179956D01*
X0393815Y0179956D02*
X0393815Y0180784D01*
X0399367Y0180784D01*
X0399367Y0179956D01*
X0399367Y0180782D02*
X0393815Y0180782D01*
X0393815Y0177988D02*
X0399367Y0177988D01*
X0393815Y0177988D02*
X0393815Y0178816D01*
X0399367Y0178816D01*
X0399367Y0177988D01*
X0399367Y0178814D02*
X0393815Y0178814D01*
X0393815Y0176019D02*
X0399367Y0176019D01*
X0393815Y0176019D02*
X0393815Y0176847D01*
X0399367Y0176847D01*
X0399367Y0176019D01*
X0399367Y0176845D02*
X0393815Y0176845D01*
X0393815Y0174051D02*
X0399367Y0174051D01*
X0393815Y0174051D02*
X0393815Y0174879D01*
X0399367Y0174879D01*
X0399367Y0174051D01*
X0399367Y0174877D02*
X0393815Y0174877D01*
X0393815Y0172082D02*
X0399367Y0172082D01*
X0393815Y0172082D02*
X0393815Y0172910D01*
X0399367Y0172910D01*
X0399367Y0172082D01*
X0399367Y0172908D02*
X0393815Y0172908D01*
X0393815Y0170114D02*
X0399367Y0170114D01*
X0393815Y0170114D02*
X0393815Y0170942D01*
X0399367Y0170942D01*
X0399367Y0170114D01*
X0399367Y0170940D02*
X0393815Y0170940D01*
X0400942Y0169367D02*
X0400942Y0163815D01*
X0400114Y0163815D01*
X0400114Y0169367D01*
X0400942Y0169367D01*
X0400942Y0164641D02*
X0400114Y0164641D01*
X0400114Y0165467D02*
X0400942Y0165467D01*
X0400942Y0166293D02*
X0400114Y0166293D01*
X0400114Y0167119D02*
X0400942Y0167119D01*
X0400942Y0167945D02*
X0400114Y0167945D01*
X0400114Y0168771D02*
X0400942Y0168771D01*
X0402910Y0169367D02*
X0402910Y0163815D01*
X0402082Y0163815D01*
X0402082Y0169367D01*
X0402910Y0169367D01*
X0402910Y0164641D02*
X0402082Y0164641D01*
X0402082Y0165467D02*
X0402910Y0165467D01*
X0402910Y0166293D02*
X0402082Y0166293D01*
X0402082Y0167119D02*
X0402910Y0167119D01*
X0402910Y0167945D02*
X0402082Y0167945D01*
X0402082Y0168771D02*
X0402910Y0168771D01*
X0404879Y0169367D02*
X0404879Y0163815D01*
X0404051Y0163815D01*
X0404051Y0169367D01*
X0404879Y0169367D01*
X0404879Y0164641D02*
X0404051Y0164641D01*
X0404051Y0165467D02*
X0404879Y0165467D01*
X0404879Y0166293D02*
X0404051Y0166293D01*
X0404051Y0167119D02*
X0404879Y0167119D01*
X0404879Y0167945D02*
X0404051Y0167945D01*
X0404051Y0168771D02*
X0404879Y0168771D01*
X0406847Y0169367D02*
X0406847Y0163815D01*
X0406019Y0163815D01*
X0406019Y0169367D01*
X0406847Y0169367D01*
X0406847Y0164641D02*
X0406019Y0164641D01*
X0406019Y0165467D02*
X0406847Y0165467D01*
X0406847Y0166293D02*
X0406019Y0166293D01*
X0406019Y0167119D02*
X0406847Y0167119D01*
X0406847Y0167945D02*
X0406019Y0167945D01*
X0406019Y0168771D02*
X0406847Y0168771D01*
X0408816Y0169367D02*
X0408816Y0163815D01*
X0407988Y0163815D01*
X0407988Y0169367D01*
X0408816Y0169367D01*
X0408816Y0164641D02*
X0407988Y0164641D01*
X0407988Y0165467D02*
X0408816Y0165467D01*
X0408816Y0166293D02*
X0407988Y0166293D01*
X0407988Y0167119D02*
X0408816Y0167119D01*
X0408816Y0167945D02*
X0407988Y0167945D01*
X0407988Y0168771D02*
X0408816Y0168771D01*
X0410784Y0169367D02*
X0410784Y0163815D01*
X0409956Y0163815D01*
X0409956Y0169367D01*
X0410784Y0169367D01*
X0410784Y0164641D02*
X0409956Y0164641D01*
X0409956Y0165467D02*
X0410784Y0165467D01*
X0410784Y0166293D02*
X0409956Y0166293D01*
X0409956Y0167119D02*
X0410784Y0167119D01*
X0410784Y0167945D02*
X0409956Y0167945D01*
X0409956Y0168771D02*
X0410784Y0168771D01*
X0412753Y0169367D02*
X0412753Y0163815D01*
X0411925Y0163815D01*
X0411925Y0169367D01*
X0412753Y0169367D01*
X0412753Y0164641D02*
X0411925Y0164641D01*
X0411925Y0165467D02*
X0412753Y0165467D01*
X0412753Y0166293D02*
X0411925Y0166293D01*
X0411925Y0167119D02*
X0412753Y0167119D01*
X0412753Y0167945D02*
X0411925Y0167945D01*
X0411925Y0168771D02*
X0412753Y0168771D01*
X0413500Y0170942D02*
X0419052Y0170942D01*
X0419052Y0170114D01*
X0413500Y0170114D01*
X0413500Y0170942D01*
X0413500Y0170940D02*
X0419052Y0170940D01*
X0419052Y0172910D02*
X0413500Y0172910D01*
X0419052Y0172910D02*
X0419052Y0172082D01*
X0413500Y0172082D01*
X0413500Y0172910D01*
X0413500Y0172908D02*
X0419052Y0172908D01*
X0419052Y0174879D02*
X0413500Y0174879D01*
X0419052Y0174879D02*
X0419052Y0174051D01*
X0413500Y0174051D01*
X0413500Y0174879D01*
X0413500Y0174877D02*
X0419052Y0174877D01*
X0419052Y0176847D02*
X0413500Y0176847D01*
X0419052Y0176847D02*
X0419052Y0176019D01*
X0413500Y0176019D01*
X0413500Y0176847D01*
X0413500Y0176845D02*
X0419052Y0176845D01*
X0419052Y0178816D02*
X0413500Y0178816D01*
X0419052Y0178816D02*
X0419052Y0177988D01*
X0413500Y0177988D01*
X0413500Y0178816D01*
X0413500Y0178814D02*
X0419052Y0178814D01*
X0419052Y0180784D02*
X0413500Y0180784D01*
X0419052Y0180784D02*
X0419052Y0179956D01*
X0413500Y0179956D01*
X0413500Y0180784D01*
X0413500Y0180782D02*
X0419052Y0180782D01*
X0419052Y0182753D02*
X0413500Y0182753D01*
X0419052Y0182753D02*
X0419052Y0181925D01*
X0413500Y0181925D01*
X0413500Y0182753D01*
X0413500Y0182751D02*
X0419052Y0182751D01*
X0411925Y0183500D02*
X0411925Y0189052D01*
X0412753Y0189052D01*
X0412753Y0183500D01*
X0411925Y0183500D01*
X0411925Y0184326D02*
X0412753Y0184326D01*
X0412753Y0185152D02*
X0411925Y0185152D01*
X0411925Y0185978D02*
X0412753Y0185978D01*
X0412753Y0186804D02*
X0411925Y0186804D01*
X0411925Y0187630D02*
X0412753Y0187630D01*
X0412753Y0188456D02*
X0411925Y0188456D01*
X0409956Y0189052D02*
X0409956Y0183500D01*
X0409956Y0189052D02*
X0410784Y0189052D01*
X0410784Y0183500D01*
X0409956Y0183500D01*
X0409956Y0184326D02*
X0410784Y0184326D01*
X0410784Y0185152D02*
X0409956Y0185152D01*
X0409956Y0185978D02*
X0410784Y0185978D01*
X0410784Y0186804D02*
X0409956Y0186804D01*
X0409956Y0187630D02*
X0410784Y0187630D01*
X0410784Y0188456D02*
X0409956Y0188456D01*
X0407988Y0189052D02*
X0407988Y0183500D01*
X0407988Y0189052D02*
X0408816Y0189052D01*
X0408816Y0183500D01*
X0407988Y0183500D01*
X0407988Y0184326D02*
X0408816Y0184326D01*
X0408816Y0185152D02*
X0407988Y0185152D01*
X0407988Y0185978D02*
X0408816Y0185978D01*
X0408816Y0186804D02*
X0407988Y0186804D01*
X0407988Y0187630D02*
X0408816Y0187630D01*
X0408816Y0188456D02*
X0407988Y0188456D01*
X0406019Y0189052D02*
X0406019Y0183500D01*
X0406019Y0189052D02*
X0406847Y0189052D01*
X0406847Y0183500D01*
X0406019Y0183500D01*
X0406019Y0184326D02*
X0406847Y0184326D01*
X0406847Y0185152D02*
X0406019Y0185152D01*
X0406019Y0185978D02*
X0406847Y0185978D01*
X0406847Y0186804D02*
X0406019Y0186804D01*
X0406019Y0187630D02*
X0406847Y0187630D01*
X0406847Y0188456D02*
X0406019Y0188456D01*
X0404051Y0189052D02*
X0404051Y0183500D01*
X0404051Y0189052D02*
X0404879Y0189052D01*
X0404879Y0183500D01*
X0404051Y0183500D01*
X0404051Y0184326D02*
X0404879Y0184326D01*
X0404879Y0185152D02*
X0404051Y0185152D01*
X0404051Y0185978D02*
X0404879Y0185978D01*
X0404879Y0186804D02*
X0404051Y0186804D01*
X0404051Y0187630D02*
X0404879Y0187630D01*
X0404879Y0188456D02*
X0404051Y0188456D01*
X0402082Y0189052D02*
X0402082Y0183500D01*
X0402082Y0189052D02*
X0402910Y0189052D01*
X0402910Y0183500D01*
X0402082Y0183500D01*
X0402082Y0184326D02*
X0402910Y0184326D01*
X0402910Y0185152D02*
X0402082Y0185152D01*
X0402082Y0185978D02*
X0402910Y0185978D01*
X0402910Y0186804D02*
X0402082Y0186804D01*
X0402082Y0187630D02*
X0402910Y0187630D01*
X0402910Y0188456D02*
X0402082Y0188456D01*
X0400114Y0189052D02*
X0400114Y0183500D01*
X0400114Y0189052D02*
X0400942Y0189052D01*
X0400942Y0183500D01*
X0400114Y0183500D01*
X0400114Y0184326D02*
X0400942Y0184326D01*
X0400942Y0185152D02*
X0400114Y0185152D01*
X0400114Y0185978D02*
X0400942Y0185978D01*
X0400942Y0186804D02*
X0400114Y0186804D01*
X0400114Y0187630D02*
X0400942Y0187630D01*
X0400942Y0188456D02*
X0400114Y0188456D01*
D28*
X0411691Y0181691D02*
X0411691Y0171175D01*
X0401175Y0171175D01*
X0401175Y0181691D01*
X0411691Y0181691D01*
X0411691Y0172088D02*
X0401175Y0172088D01*
X0401175Y0173001D02*
X0411691Y0173001D01*
X0411691Y0173914D02*
X0401175Y0173914D01*
X0401175Y0174827D02*
X0411691Y0174827D01*
X0411691Y0175740D02*
X0401175Y0175740D01*
X0401175Y0176653D02*
X0411691Y0176653D01*
X0411691Y0177566D02*
X0401175Y0177566D01*
X0401175Y0178479D02*
X0411691Y0178479D01*
X0411691Y0179392D02*
X0401175Y0179392D01*
X0401175Y0180305D02*
X0411691Y0180305D01*
X0411691Y0181218D02*
X0401175Y0181218D01*
D29*
X0398792Y0168792D02*
X0398792Y0167520D01*
X0397520Y0167520D01*
X0397520Y0168792D01*
X0398792Y0168792D01*
X0398792Y0168646D02*
X0397520Y0168646D01*
D30*
X0056315Y0174228D03*
X0043323Y0174228D03*
X0043323Y0158480D03*
X0056315Y0158480D03*
X0056315Y0142732D03*
X0043323Y0142732D03*
X0043323Y0126984D03*
X0056315Y0126984D03*
X0056315Y0111236D03*
X0043323Y0111236D03*
X0043323Y0095488D03*
X0056315Y0095488D03*
X0056315Y0079740D03*
X0043323Y0079740D03*
X0056315Y0189976D03*
D31*
X0043323Y0189976D03*
D32*
X0410004Y0140527D02*
X0410004Y0139425D01*
X0410004Y0140527D02*
X0417406Y0140527D01*
X0417406Y0139425D01*
X0410004Y0139425D01*
X0410004Y0140526D02*
X0417406Y0140526D01*
X0410004Y0137968D02*
X0410004Y0136866D01*
X0410004Y0137968D02*
X0417406Y0137968D01*
X0417406Y0136866D01*
X0410004Y0136866D01*
X0410004Y0137967D02*
X0417406Y0137967D01*
X0410004Y0135409D02*
X0410004Y0134307D01*
X0410004Y0135409D02*
X0417406Y0135409D01*
X0417406Y0134307D01*
X0410004Y0134307D01*
X0410004Y0135408D02*
X0417406Y0135408D01*
X0410004Y0132850D02*
X0410004Y0131748D01*
X0410004Y0132850D02*
X0417406Y0132850D01*
X0417406Y0131748D01*
X0410004Y0131748D01*
X0410004Y0132849D02*
X0417406Y0132849D01*
X0410004Y0130291D02*
X0410004Y0129189D01*
X0410004Y0130291D02*
X0417406Y0130291D01*
X0417406Y0129189D01*
X0410004Y0129189D01*
X0410004Y0130290D02*
X0417406Y0130290D01*
D33*
X0420748Y0123240D02*
X0420748Y0115476D01*
X0420748Y0123240D02*
X0428118Y0123240D01*
X0428118Y0115476D01*
X0420748Y0115476D01*
X0420748Y0116386D02*
X0428118Y0116386D01*
X0428118Y0117296D02*
X0420748Y0117296D01*
X0420748Y0118206D02*
X0428118Y0118206D01*
X0428118Y0119116D02*
X0420748Y0119116D01*
X0420748Y0120026D02*
X0428118Y0120026D01*
X0428118Y0120936D02*
X0420748Y0120936D01*
X0420748Y0121846D02*
X0428118Y0121846D01*
X0428118Y0122756D02*
X0420748Y0122756D01*
X0420748Y0146476D02*
X0420748Y0154240D01*
X0428118Y0154240D01*
X0428118Y0146476D01*
X0420748Y0146476D01*
X0420748Y0147386D02*
X0428118Y0147386D01*
X0428118Y0148296D02*
X0420748Y0148296D01*
X0420748Y0149206D02*
X0428118Y0149206D01*
X0428118Y0150116D02*
X0420748Y0150116D01*
X0420748Y0151026D02*
X0428118Y0151026D01*
X0428118Y0151936D02*
X0420748Y0151936D01*
X0420748Y0152846D02*
X0428118Y0152846D01*
X0428118Y0153756D02*
X0420748Y0153756D01*
D34*
X0415969Y0142732D03*
X0415969Y0126984D03*
D35*
X0404607Y0127920D02*
X0402739Y0127920D01*
X0402739Y0131560D01*
X0404607Y0131560D01*
X0404607Y0127920D01*
X0404607Y0129016D02*
X0402739Y0129016D01*
X0402739Y0130112D02*
X0404607Y0130112D01*
X0404607Y0131208D02*
X0402739Y0131208D01*
X0400867Y0127920D02*
X0398999Y0127920D01*
X0398999Y0131560D01*
X0400867Y0131560D01*
X0400867Y0127920D01*
X0400867Y0129016D02*
X0398999Y0129016D01*
X0398999Y0130112D02*
X0400867Y0130112D01*
X0400867Y0131208D02*
X0398999Y0131208D01*
X0397127Y0127920D02*
X0395259Y0127920D01*
X0395259Y0131560D01*
X0397127Y0131560D01*
X0397127Y0127920D01*
X0397127Y0129016D02*
X0395259Y0129016D01*
X0395259Y0130112D02*
X0397127Y0130112D01*
X0397127Y0131208D02*
X0395259Y0131208D01*
X0395259Y0138157D02*
X0397127Y0138157D01*
X0395259Y0138157D02*
X0395259Y0141797D01*
X0397127Y0141797D01*
X0397127Y0138157D01*
X0397127Y0139253D02*
X0395259Y0139253D01*
X0395259Y0140349D02*
X0397127Y0140349D01*
X0397127Y0141445D02*
X0395259Y0141445D01*
X0398999Y0138157D02*
X0400867Y0138157D01*
X0398999Y0138157D02*
X0398999Y0141797D01*
X0400867Y0141797D01*
X0400867Y0138157D01*
X0400867Y0139253D02*
X0398999Y0139253D01*
X0398999Y0140349D02*
X0400867Y0140349D01*
X0400867Y0141445D02*
X0398999Y0141445D01*
X0402739Y0138157D02*
X0404607Y0138157D01*
X0402739Y0138157D02*
X0402739Y0141797D01*
X0404607Y0141797D01*
X0404607Y0138157D01*
X0404607Y0139253D02*
X0402739Y0139253D01*
X0402739Y0140349D02*
X0404607Y0140349D01*
X0404607Y0141445D02*
X0402739Y0141445D01*
M02*
