%
M48
M72
T01C0.0157
T02C0.0197
T03C0.0236
T04C0.0315
T05C0.0394
T06C0.0472
T07C0.0551
T08C0.0630
T09C0.1575
%
T01
X10393Y6943
X7143Y8643
X7443Y9143
X7143Y10393
X6643Y10693
X6643Y11193
X8043Y11093
X8043Y11543
X8043Y11943
X10143Y12393
X11643Y12143
X11643Y12643
X12143Y12143
X11643Y11643
X11543Y10543
X14643Y9643
X15643Y9643
X17393Y10643
X18893Y11643
X20293Y12643
X21643Y12993
X22143Y13143
X22443Y13393
X23143Y12643
X23643Y11943
X24143Y11643
X24643Y11243
X24943Y11643
X25243Y12643
X23093Y11143
X22693Y11143
X22293Y9893
X21793Y9393
X20843Y8393
X20143Y8393
X18843Y8243
X18843Y7843
X18843Y7443
X18843Y7043
X17393Y6143
X17393Y5143
X24393Y8643
X25143Y8643
X25643Y8643
X26393Y10143
X25943Y10293
X25543Y10293
X25943Y10693
X26343Y10693
X30793Y12443
X30793Y12943
X30393Y13393
X30643Y13643
X30893Y13893
X30393Y14643
X32393Y12843
X32893Y12843
X33393Y12843
X34393Y12843
X34893Y12843
X35393Y12843
X37893Y13743
X38293Y14143
X39643Y14243
X40043Y14193
X40243Y13393
X39193Y12493
X38043Y12643
X39493Y15643
X38293Y16143
X38143Y17143
X36643Y17643
X36143Y18143
X35143Y18143
X37143Y18143
X37743Y18143
X38493Y18143
X39093Y18793
X40393Y17893
X40893Y17893
X40893Y17393
X40393Y17393
X42243Y17493
X42243Y17043
X42243Y16143
X41143Y15993
X42243Y18093
X40543Y9393
X37843Y7643
X37643Y6643
X28643Y7993
X26543Y7143
X26043Y7143
X20143Y9643
X20343Y10243
X20343Y10643
X16843Y13493
X16893Y14393
X16893Y14893
X16893Y15393
X16893Y15893
X18393Y16143
X18993Y15493
X18993Y15143
X19643Y14643
X20493Y15293
X20993Y15793
X21393Y16543
X21793Y16543
X22393Y16543
X22643Y16143
X22093Y16143
X22093Y15743
X22093Y14893
X22643Y14893
X20743Y14393
X20743Y13793
X26143Y15143
X26643Y15143
X26843Y14293
X18843Y17593
X18593Y17893
X18343Y18193
X18093Y18493
X18143Y17643
X14643Y15893
X15143Y15143
X14643Y14393
X15143Y13893
X15143Y13393
X14643Y13393
X15143Y12943
X11893Y14293
X11893Y14993
X10643Y15393
X10643Y15893
X9943Y15093
X10143Y14393
X9643Y14393
X9643Y13893
T02
X41537Y14273
X41537Y12698
T03
X21643Y19643
X20893Y19643
X20893Y20643
X21643Y20643
X21643Y21643
X20893Y21643
T04
X16643Y11143
X16643Y10143
X16643Y9143
X16643Y8143
X16643Y7143
X16643Y6143
X16643Y5143
X13643Y5143
X13643Y6143
X13643Y7143
X13643Y8143
X13643Y9143
X13643Y10143
X13643Y11143
T05
X8643Y5143
X9643Y5143
X9643Y6643
X8643Y6643
X18143Y4393
X19143Y4393
X32143Y5143
X32143Y6143
X33143Y6143
X34143Y6143
X35143Y6143
X36143Y6143
X36143Y5143
X35143Y5143
X34143Y5143
X33143Y5143
X7344Y12486
X7344Y13486
X7344Y14486
T06
X5631Y14273
X4332Y14273
X4332Y12698
X5631Y12698
X5631Y11124
X4332Y11124
X4332Y9549
X5631Y9549
X5631Y7974
X4332Y7974
X4332Y15848
X5631Y15848
X5631Y17423
X4332Y17423
X4332Y18998
X5631Y18998
X41084Y14883
X42422Y14883
X42422Y12088
X41084Y12088
T07
X13781Y22739
X8506Y22739
T08
X9293Y18999
X11143Y18999
X12994Y18999
T09
X5612Y21360
X5612Y5612
X41045Y5612
X41045Y21360
M30
