<svg version="1.1" xmlns="http://www.w3.org/2000/svg" xmlns:xlink="http://www.w3.org/1999/xlink" stroke-linecap="round" stroke-linejoin="round" stroke-width="0" fill-rule="evenodd" clip-rule="evenodd" id="FIMco3PKVH7JVr6UC964_bottom" viewBox="15 15 1062.99 905.51" width="1.06299in" height="0.90551in" class="w-100 h-100"><defs><style>.FIMco3PKVH7JVr6UC964_fr4 {color: #666666;}
.FIMco3PKVH7JVr6UC964_cu {color: #cccccc;}
.FIMco3PKVH7JVr6UC964_cf {color: #cc9933;}
.FIMco3PKVH7JVr6UC964_sm {color: #004200; opacity: 0.75;}
.FIMco3PKVH7JVr6UC964_ss {color: #ffffff;}
.FIMco3PKVH7JVr6UC964_sp {color: #999999;}
.FIMco3PKVH7JVr6UC964_out {color: #000000;}</style><rect x="-29.92" y="-29.92" width="59.84" height="59.84" id="BEardoowQzF0k60LBWSZ_pad-10"/><circle cx="0" cy="0" r="29.92" id="BEardoowQzF0k60LBWSZ_pad-11"/><rect x="-37.4" y="-37.4" width="74.8" height="74.8" id="BEardoowQzF0k60LBWSZ_pad-12"/><circle cx="0" cy="0" r="37.4" id="BEardoowQzF0k60LBWSZ_pad-13"/><rect x="-33.92" y="-33.92" width="67.84" height="67.84" id="iFSSTU8dOux1m9RR8osn_pad-10"/><circle cx="0" cy="0" r="33.92" id="iFSSTU8dOux1m9RR8osn_pad-11"/><rect x="-41.4" y="-41.4" width="82.8" height="82.8" id="iFSSTU8dOux1m9RR8osn_pad-12"/><circle cx="0" cy="0" r="41.4" id="iFSSTU8dOux1m9RR8osn_pad-13"/><circle cx="0" cy="0" r="15.75" id="z3_PtIiXIfpcpr57REKo_pad-1"/><circle cx="0" cy="0" r="19.7" id="z3_PtIiXIfpcpr57REKo_pad-2"/><g id="FIMco3PKVH7JVr6UC964_bottom_copper"><use xlink:href="#BEardoowQzF0k60LBWSZ_pad-10" x="690" y="215"/><use xlink:href="#BEardoowQzF0k60LBWSZ_pad-11" x="690" y="315"/><use xlink:href="#BEardoowQzF0k60LBWSZ_pad-11" x="690" y="415"/><use xlink:href="#BEardoowQzF0k60LBWSZ_pad-11" x="690" y="515"/><use xlink:href="#BEardoowQzF0k60LBWSZ_pad-11" x="690" y="615"/><use xlink:href="#BEardoowQzF0k60LBWSZ_pad-11" x="690" y="715"/><use xlink:href="#BEardoowQzF0k60LBWSZ_pad-11" x="690" y="815"/><use xlink:href="#BEardoowQzF0k60LBWSZ_pad-11" x="390" y="815"/><use xlink:href="#BEardoowQzF0k60LBWSZ_pad-11" x="290" y="815"/><use xlink:href="#BEardoowQzF0k60LBWSZ_pad-11" x="290" y="715"/><use xlink:href="#BEardoowQzF0k60LBWSZ_pad-11" x="390" y="715"/><use xlink:href="#BEardoowQzF0k60LBWSZ_pad-11" x="390" y="615"/><use xlink:href="#BEardoowQzF0k60LBWSZ_pad-11" x="290" y="615"/><use xlink:href="#BEardoowQzF0k60LBWSZ_pad-11" x="390" y="515"/><use xlink:href="#BEardoowQzF0k60LBWSZ_pad-11" x="390" y="415"/><use xlink:href="#BEardoowQzF0k60LBWSZ_pad-11" x="390" y="315"/><use xlink:href="#BEardoowQzF0k60LBWSZ_pad-11" x="390" y="215"/><use xlink:href="#BEardoowQzF0k60LBWSZ_pad-11" x="290" y="215"/><use xlink:href="#BEardoowQzF0k60LBWSZ_pad-11" x="490" y="90"/><use xlink:href="#BEardoowQzF0k60LBWSZ_pad-11" x="590" y="90"/><use xlink:href="#BEardoowQzF0k60LBWSZ_pad-12" x="790" y="115"/><use xlink:href="#BEardoowQzF0k60LBWSZ_pad-12" x="1005" y="515"/><use xlink:href="#BEardoowQzF0k60LBWSZ_pad-12" x="790" y="615"/><use xlink:href="#BEardoowQzF0k60LBWSZ_pad-12" x="90" y="515"/><use xlink:href="#BEardoowQzF0k60LBWSZ_pad-12" x="90" y="315"/><use xlink:href="#BEardoowQzF0k60LBWSZ_pad-13" x="90" y="215"/><use xlink:href="#BEardoowQzF0k60LBWSZ_pad-13" x="90" y="615"/><use xlink:href="#BEardoowQzF0k60LBWSZ_pad-13" x="790" y="515"/><use xlink:href="#BEardoowQzF0k60LBWSZ_pad-13" x="790" y="415"/><use xlink:href="#BEardoowQzF0k60LBWSZ_pad-13" x="790" y="315"/><use xlink:href="#BEardoowQzF0k60LBWSZ_pad-13" x="790" y="215"/><use xlink:href="#BEardoowQzF0k60LBWSZ_pad-13" x="1005" y="615"/><path d="M 29 906.51 29 29 1063.99 29 1063.99 906.51 29 906.51 M 29 903.68 1063.99 903.68 M 1063.99 893.69 29 893.69 M 29 883.7 1063.99 883.7 M 1063.99 873.72 29 873.72 M 29 863.73 1063.99 863.73 M 1063.99 853.75 712.9 853.75 M 713.54 853.42 707.24 856.63 700.52 858.82 693.54 859.92 692.87 859.92 692.87 817.87 734.92 817.87 734.92 818.54 733.82 825.52 731.63 832.24 728.42 838.54 724.26 844.26 719.26 849.26 713.54 853.42 M 724.63 843.76 1063.99 843.76 M 1063.99 833.78 730.85 833.78 M 734.09 823.79 1063.99 823.79 M 1063.99 813.81 692.87 813.81 M 692.87 812.13 692.87 817.87 687.13 817.87 687.13 812.13 692.87 812.13 692.87 770.08 693.54 770.08 700.52 771.18 707.24 773.37 713.54 776.58 719.26 780.74 724.26 785.74 728.42 791.46 731.63 797.76 733.82 804.48 734.92 811.46 734.92 812.13 692.87 812.13 M 687.13 812.13 687.13 770.08 686.46 770.08 679.48 771.18 672.76 773.37 666.46 776.58 660.74 780.74 655.74 785.74 651.58 791.46 648.37 797.76 646.18 804.48 645.08 811.46 645.08 812.13 687.13 812.13 M 687.13 813.81 431.92 813.81 M 431.92 806.66 425.54 791.25 413.75 779.46 398.34 773.08 381.66 773.08 366.25 779.46 354.46 791.25 348.08 806.66 348.08 823.34 354.46 838.75 366.25 850.54 381.66 856.92 398.34 856.92 413.75 850.54 425.54 838.75 431.92 823.34 431.92 806.66 M 430.75 803.82 646.4 803.82 M 650.37 793.84 426.61 793.84 M 418.14 783.85 657.62 783.85 M 671.78 773.87 400.25 773.87 M 398.34 756.92 381.66 756.92 366.25 750.54 354.46 738.75 348.08 723.34 348.08 706.66 354.46 691.25 366.25 679.46 381.66 673.08 398.34 673.08 413.75 679.46 425.54 691.25 431.92 706.66 431.92 723.34 425.54 738.75 413.75 750.54 398.34 756.92 M 405.64 753.9 674.36 753.9 M 681.66 756.92 666.25 750.54 654.46 738.75 648.08 723.34 648.08 706.66 654.46 691.25 666.25 679.46 681.66 673.08 698.34 673.08 713.75 679.46 725.54 691.25 731.92 706.66 731.92 723.34 725.54 738.75 713.75 750.54 698.34 756.92 681.66 756.92 M 687.13 773.87 692.87 773.87 M 692.87 783.85 687.13 783.85 M 687.13 793.84 692.87 793.84 M 692.87 803.82 687.13 803.82 M 687.13 817.87 645.08 817.87 645.08 818.54 646.18 825.52 648.37 832.24 651.58 838.54 655.74 844.26 660.74 849.26 666.46 853.42 672.76 856.63 679.48 858.82 686.46 859.92 687.13 859.92 687.13 817.87 M 687.13 823.79 692.87 823.79 M 692.87 833.78 687.13 833.78 M 687.13 843.76 692.87 843.76 M 692.87 853.75 687.13 853.75 M 667.1 853.75 406 853.75 M 420.52 843.76 655.37 843.76 M 649.15 833.78 427.6 833.78 M 431.73 823.79 645.91 823.79 M 708.22 773.87 1063.99 773.87 M 1063.99 783.85 722.38 783.85 M 729.63 793.84 1063.99 793.84 M 1063.99 803.82 733.6 803.82 M 705.64 753.9 1063.99 753.9 M 1063.99 763.88 29 763.88 M 29 753.9 274.36 753.9 M 281.66 756.92 266.25 750.54 254.46 738.75 248.08 723.34 248.08 706.66 254.46 691.25 266.25 679.46 281.66 673.08 298.34 673.08 313.75 679.46 325.54 691.25 331.92 706.66 331.92 723.34 325.54 738.75 313.75 750.54 298.34 756.92 281.66 756.92 M 286.46 770.08 279.48 771.18 272.76 773.37 266.46 776.58 260.74 780.74 255.74 785.74 251.58 791.46 248.37 797.76 246.18 804.48 245.08 811.46 245.08 812.13 287.13 812.13 287.13 817.87 245.08 817.87 245.08 818.54 246.18 825.52 248.37 832.24 251.58 838.54 255.74 844.26 260.74 849.26 266.46 853.42 272.76 856.63 279.48 858.82 286.46 859.92 287.13 859.92 287.13 817.87 292.87 817.87 292.87 859.92 293.54 859.92 300.52 858.82 307.24 856.63 313.54 853.42 319.26 849.26 324.26 844.26 328.42 838.54 331.63 832.24 333.82 825.52 334.92 818.54 334.92 817.87 292.87 817.87 292.87 812.13 292.87 770.08 293.54 770.08 300.52 771.18 307.24 773.37 313.54 776.58 319.26 780.74 324.26 785.74 328.42 791.46 331.63 797.76 333.82 804.48 334.92 811.46 334.92 812.13 292.87 812.13 287.13 812.13 287.13 770.08 286.46 770.08 M 287.13 773.87 292.87 773.87 M 292.87 783.85 287.13 783.85 M 287.13 793.84 292.87 793.84 M 292.87 803.82 287.13 803.82 M 287.13 813.81 29 813.81 M 29 803.82 246.4 803.82 M 250.37 793.84 29 793.84 M 29 783.85 257.62 783.85 M 271.78 773.87 29 773.87 M 29 743.91 259.63 743.91 M 252.47 733.93 29 733.93 M 29 723.94 248.33 723.94 M 248.08 713.96 29 713.96 M 29 703.97 249.19 703.97 M 253.33 693.99 29 693.99 M 29 684 261.71 684 M 279.39 674.02 29 674.02 M 29 664.03 79.28 664.03 M 80.17 664.4 62.02 656.88 48.12 642.98 40.6 624.83 40.6 605.17 48.12 587.02 62.02 573.12 80.17 565.6 99.83 565.6 117.98 573.12 131.88 587.02 133.61 591.19 254.53 591.19 266.25 579.46 281.66 573.08 298.25 573.08 316.19 555.14 330.14 541.19 356.9 541.19 354.46 538.75 348.08 523.34 348.08 506.66 354.46 491.25 356.9 488.81 349.86 488.81 299.86 538.81 139.4 538.81 139.4 557.37 132.37 564.4 47.63 564.4 40.6 557.37 40.6 472.63 47.63 465.6 132.37 465.6 139.4 472.63 139.4 491.19 280.14 491.19 316.19 455.14 330.14 441.19 356.9 441.19 354.46 438.75 348.08 423.34 348.08 406.66 354.46 391.25 366.25 379.46 381.66 373.08 398.34 373.08 413.75 379.46 425.54 391.25 431.92 406.66 431.92 423.34 425.54 438.75 423.1 441.19 530.14 441.19 648.08 323.25 648.08 306.66 654.46 291.25 666.25 279.46 681.66 273.08 698.34 273.08 713.75 279.46 725.54 291.25 731.92 306.66 731.92 323.34 725.54 338.75 713.75 350.54 698.34 356.92 681.75 356.92 549.86 488.81 423.1 488.81 425.54 491.25 431.92 506.66 431.92 523.34 425.54 538.75 423.1 541.19 530.14 541.19 648.08 423.25 648.08 406.66 654.46 391.25 666.25 379.46 681.66 373.08 698.34 373.08 713.75 379.46 725.54 391.25 731.92 406.66 731.92 423.34 725.54 438.75 713.75 450.54 698.34 456.92 681.75 456.92 549.86 588.81 423.1 588.81 425.54 591.25 431.92 606.66 431.92 623.34 425.54 638.75 413.75 650.54 398.34 656.92 381.66 656.92 366.25 650.54 354.46 638.75 348.08 623.34 348.08 606.66 354.46 591.25 356.9 588.81 349.86 588.81 331.92 606.75 331.92 623.34 325.54 638.75 313.75 650.54 298.34 656.92 281.66 656.92 266.25 650.54 254.53 638.81 133.61 638.81 131.88 642.98 117.98 656.88 99.83 664.4 80.17 664.4 M 100.72 664.03 747.26 664.03 M 747.63 664.4 740.6 657.37 740.6 572.63 747.63 565.6 832.37 565.6 839.4 572.63 839.4 657.37 832.37 664.4 747.63 664.4 M 740.6 654.05 705.28 654.05 M 698.34 656.92 681.66 656.92 666.25 650.54 654.46 638.75 648.08 623.34 648.08 606.66 654.46 591.25 666.25 579.46 681.66 573.08 698.34 573.08 713.75 579.46 725.54 591.25 731.92 606.66 731.92 623.34 725.54 638.75 713.75 650.54 698.34 656.92 M 700.6 674.02 1063.99 674.02 M 1063.99 684 718.29 684 M 726.67 693.99 1063.99 693.99 M 1063.99 703.97 730.81 703.97 M 731.92 713.96 1063.99 713.96 M 1063.99 723.94 731.67 723.94 M 727.53 733.93 1063.99 733.93 M 1063.99 743.91 720.37 743.91 M 659.63 743.91 420.37 743.91 M 427.53 733.93 652.47 733.93 M 648.33 723.94 431.67 723.94 M 431.92 713.96 648.08 713.96 M 649.19 703.97 430.81 703.97 M 426.67 693.99 653.33 693.99 M 661.71 684 418.29 684 M 400.6 674.02 679.39 674.02 M 674.72 654.05 405.28 654.05 M 420.22 644.06 659.78 644.06 M 652.53 634.08 427.47 634.08 M 431.61 624.09 648.39 624.09 M 648.08 614.11 431.92 614.11 M 430.87 604.12 649.13 604.12 M 653.27 594.14 426.73 594.14 M 427.41 534.23 537.1 534.23 M 547.09 524.24 431.55 524.24 M 431.92 514.26 557.07 514.26 M 567.06 504.27 430.93 504.27 M 426.79 494.29 577.04 494.29 M 587.03 484.3 554.37 484.3 M 564.36 474.32 597.01 474.32 M 607 464.33 574.34 464.33 M 584.33 454.34 616.98 454.34 M 626.97 444.36 594.31 444.36 M 604.3 434.37 636.95 434.37 M 646.94 424.39 614.28 424.39 M 624.27 414.4 648.08 414.4 M 649.01 404.42 634.25 404.42 M 644.24 394.43 653.14 394.43 M 654.22 384.45 661.27 384.45 M 664.21 374.46 678.32 374.46 M 674.19 364.48 1063.99 364.48 M 1063.99 354.49 820.37 354.49 M 817.98 356.88 799.83 364.4 780.17 364.4 762.02 356.88 748.12 342.98 740.6 324.83 740.6 305.17 748.12 287.02 762.02 273.12 780.17 265.6 799.83 265.6 817.98 273.12 831.88 287.02 839.4 305.17 839.4 324.83 831.88 342.98 817.98 356.88 M 817.98 373.12 799.83 365.6 780.17 365.6 762.02 373.12 748.12 387.02 740.6 405.17 740.6 424.83 748.12 442.98 762.02 456.88 780.17 464.4 799.83 464.4 817.98 456.88 831.88 442.98 839.4 424.83 839.4 405.17 831.88 387.02 817.98 373.12 M 819.33 374.46 1063.99 374.46 M 1063.99 384.45 829.31 384.45 M 834.95 394.43 1063.99 394.43 M 1063.99 404.42 839.09 404.42 M 839.4 414.4 1063.99 414.4 M 1063.99 424.39 839.4 424.39 M 835.45 434.37 1063.99 434.37 M 1063.99 444.36 830.5 444.36 M 820.52 454.34 1063.99 454.34 M 1063.99 464.33 800 464.33 M 799.83 465.6 817.98 473.12 831.88 487.02 839.4 505.17 839.4 524.83 831.88 542.98 817.98 556.88 799.83 564.4 780.17 564.4 762.02 556.88 748.12 542.98 740.6 524.83 740.6 505.17 748.12 487.02 762.02 473.12 780.17 465.6 799.83 465.6 M 819.18 474.32 955.6 474.32 M 955.6 472.63 962.63 465.6 1047.37 465.6 1054.4 472.63 1054.4 557.37 1047.37 564.4 962.63 564.4 955.6 557.37 955.6 472.63 M 955.6 484.3 829.16 484.3 M 834.89 494.29 955.6 494.29 M 955.6 504.27 839.03 504.27 M 839.4 514.26 955.6 514.26 M 955.6 524.24 839.4 524.24 M 835.51 534.23 955.6 534.23 M 955.6 544.21 830.65 544.21 M 820.67 554.2 955.6 554.2 M 962.41 564.18 800.36 564.18 M 779.64 564.18 574.49 564.18 M 564.51 574.17 679.04 574.17 M 681.66 556.92 666.25 550.54 654.46 538.75 648.08 523.34 648.08 506.66 654.46 491.25 666.25 479.46 681.66 473.08 698.34 473.08 713.75 479.46 725.54 491.25 731.92 506.66 731.92 523.34 725.54 538.75 713.75 550.54 698.34 556.92 681.66 556.92 M 675.08 554.2 584.48 554.2 M 594.46 544.21 659.93 544.21 M 652.59 534.23 604.45 534.23 M 614.43 524.24 648.45 524.24 M 648.08 514.26 624.42 514.26 M 634.4 504.27 649.07 504.27 M 653.2 494.29 644.39 494.29 M 654.37 484.3 661.41 484.3 M 664.36 474.32 678.68 474.32 M 674.34 464.33 780 464.33 M 760.82 474.32 701.32 474.32 M 718.59 484.3 750.84 484.3 M 745.11 494.29 726.79 494.29 M 730.93 504.27 740.97 504.27 M 740.6 514.26 731.92 514.26 M 731.55 524.24 740.6 524.24 M 744.49 534.23 727.41 534.23 M 720.07 544.21 749.35 544.21 M 759.33 554.2 704.92 554.2 M 700.96 574.17 740.6 574.17 M 740.6 584.15 718.44 584.15 M 726.73 594.14 740.6 594.14 M 740.6 604.12 730.87 604.12 M 731.92 614.11 740.6 614.11 M 740.6 624.09 731.61 624.09 M 727.47 634.08 740.6 634.08 M 740.6 644.06 720.22 644.06 M 661.56 584.15 554.52 584.15 M 704.56 454.34 759.48 454.34 M 749.5 444.36 719.93 444.36 M 727.35 434.37 744.55 434.37 M 740.6 424.39 731.49 424.39 M 731.92 414.4 740.6 414.4 M 740.91 404.42 730.99 404.42 M 726.86 394.43 745.05 394.43 M 750.69 384.45 718.73 384.45 M 701.68 374.46 760.67 374.46 M 759.63 354.49 704.2 354.49 M 719.78 344.51 749.64 344.51 M 744.62 334.52 727.29 334.52 M 731.42 324.54 740.6 324.54 M 740.6 314.55 731.92 314.55 M 731.05 304.57 740.85 304.57 M 744.98 294.58 726.92 294.58 M 718.88 284.6 750.54 284.6 M 760.52 274.61 702.04 274.61 M 677.96 274.61 402.04 274.61 M 398.34 273.08 413.75 279.46 425.54 291.25 431.92 306.66 431.92 323.34 425.54 338.75 413.75 350.54 398.34 356.92 381.66 356.92 366.25 350.54 354.46 338.75 348.08 323.34 348.08 306.66 354.46 291.25 366.25 279.46 381.66 273.08 398.34 273.08 M 398.34 256.92 381.66 256.92 366.25 250.54 354.46 238.75 348.08 223.34 348.08 206.66 354.46 191.25 366.25 179.46 381.66 173.08 398.34 173.08 413.75 179.46 425.54 191.25 431.92 206.66 431.92 223.34 425.54 238.75 413.75 250.54 398.34 256.92 M 403.84 254.64 652.83 254.64 M 655.11 256.92 648.08 249.89 648.08 180.11 655.11 173.08 724.89 173.08 731.92 180.11 731.92 249.89 724.89 256.92 655.11 256.92 M 648.08 244.66 419.63 244.66 M 427.23 234.67 648.08 234.67 M 648.08 224.69 431.36 224.69 M 431.92 214.7 648.08 214.7 M 648.08 204.72 431.12 204.72 M 426.98 194.73 648.08 194.73 M 648.08 184.75 419.03 184.75 M 402.4 174.76 653.43 174.76 M 613.54 128.42 607.24 131.63 600.52 133.82 593.54 134.92 592.87 134.92 592.87 92.87 634.92 92.87 634.92 93.54 633.82 100.52 631.63 107.24 628.42 113.54 624.26 119.26 619.26 124.26 613.54 128.42 M 618.48 124.84 740.6 124.84 M 740.6 134.82 594.17 134.82 M 592.87 134.82 587.13 134.82 M 587.13 134.92 586.46 134.92 579.48 133.82 572.76 131.63 566.46 128.42 560.74 124.26 555.74 119.26 551.58 113.54 548.37 107.24 546.18 100.52 545.08 93.54 545.08 92.87 587.13 92.87 587.13 87.13 592.87 87.13 592.87 45.08 593.54 45.08 600.52 46.18 607.24 48.37 613.54 51.58 619.26 55.74 624.26 60.74 628.42 66.46 631.63 72.76 633.82 79.48 634.92 86.46 634.92 87.13 592.87 87.13 592.87 92.87 587.13 92.87 587.13 134.92 M 585.83 134.82 29 134.82 M 29 124.84 465.55 124.84 M 466.25 125.54 454.46 113.75 448.08 98.34 448.08 81.66 454.46 66.25 466.25 54.46 481.66 48.08 498.34 48.08 513.75 54.46 525.54 66.25 531.92 81.66 531.92 98.34 525.54 113.75 513.75 125.54 498.34 131.92 481.66 131.92 466.25 125.54 M 455.57 114.85 29 114.85 M 29 104.87 450.78 104.87 M 448.08 94.88 29 94.88 M 29 84.9 448.08 84.9 M 450.87 74.91 29 74.91 M 29 64.93 455.79 64.93 M 465.77 54.94 29 54.94 M 29 44.96 1063.99 44.96 M 1063.99 54.94 618.17 54.94 M 627.31 64.93 1063.99 64.93 M 1063.99 74.91 839.4 74.91 M 839.4 72.63 839.4 157.37 832.37 164.4 747.63 164.4 740.6 157.37 740.6 72.63 747.63 65.6 832.37 65.6 839.4 72.63 M 839.4 84.9 1063.99 84.9 M 1063.99 94.88 839.4 94.88 M 839.4 104.87 1063.99 104.87 M 1063.99 114.85 839.4 114.85 M 839.4 124.84 1063.99 124.84 M 1063.99 134.82 839.4 134.82 M 839.4 144.81 1063.99 144.81 M 1063.99 154.79 839.4 154.79 M 819.63 174.76 1063.99 174.76 M 1063.99 164.78 29 164.78 M 29 174.76 60.37 174.76 M 62.02 173.12 80.17 165.6 99.83 165.6 117.98 173.12 131.88 187.02 139.4 205.17 139.4 224.83 131.88 242.98 117.98 256.88 104.18 262.6 129.38 262.6 133.19 263.62 136.61 265.6 139.4 268.39 141.38 271.81 142.4 275.62 142.4 310.16 94.84 310.16 94.84 319.84 142.4 319.84 142.4 354.38 141.38 358.19 139.4 361.61 136.61 364.4 133.19 366.38 129.38 367.4 94.84 367.4 94.84 319.84 85.16 319.84 85.16 310.16 37.6 310.16 37.6 275.62 38.62 271.81 40.6 268.39 43.39 265.6 46.81 263.62 50.62 262.6 75.82 262.6 62.02 256.88 48.12 242.98 40.6 224.83 40.6 205.17 48.12 187.02 62.02 173.12 M 50.39 184.75 29 184.75 M 29 194.73 44.92 194.73 M 40.79 204.72 29 204.72 M 29 214.7 40.6 214.7 M 40.6 224.69 29 224.69 M 29 234.67 44.68 234.67 M 49.79 244.66 29 244.66 M 29 254.64 59.78 254.64 M 45.06 264.63 29 264.63 M 29 274.61 37.87 274.61 M 37.6 284.6 29 284.6 M 29 294.58 37.6 294.58 M 37.6 304.57 29 304.57 M 29 314.55 85.16 314.55 M 85.16 319.84 37.6 319.84 37.6 354.38 38.62 358.19 40.6 361.61 43.39 364.4 46.81 366.38 50.62 367.4 85.16 367.4 85.16 319.84 M 85.16 324.54 94.84 324.54 M 94.84 334.52 85.16 334.52 M 85.16 344.51 94.84 344.51 M 94.84 354.49 85.16 354.49 M 85.16 364.48 94.84 364.48 M 136.48 364.48 606.85 364.48 M 616.83 354.49 404.2 354.49 M 419.78 344.51 626.82 344.51 M 636.8 334.52 427.29 334.52 M 431.42 324.54 646.79 324.54 M 648.08 314.55 431.92 314.55 M 431.05 304.57 648.95 304.57 M 653.08 294.58 426.92 294.58 M 418.88 284.6 661.12 284.6 M 727.17 254.64 759.78 254.64 M 762.02 256.88 748.12 242.98 740.6 224.83 740.6 205.17 748.12 187.02 762.02 173.12 780.17 165.6 799.83 165.6 817.98 173.12 831.88 187.02 839.4 205.17 839.4 224.83 831.88 242.98 817.98 256.88 799.83 264.4 780.17 264.4 762.02 256.88 M 749.79 244.66 731.92 244.66 M 731.92 234.67 744.68 234.67 M 740.6 224.69 731.92 224.69 M 731.92 214.7 740.6 214.7 M 740.79 204.72 731.92 204.72 M 731.92 194.73 744.92 194.73 M 750.39 184.75 731.92 184.75 M 726.57 174.76 760.37 174.76 M 740.6 154.79 29 154.79 M 29 144.81 740.6 144.81 M 740.6 114.85 627.47 114.85 M 632.4 104.87 740.6 104.87 M 740.6 94.88 634.71 94.88 M 634.67 84.9 740.6 84.9 M 740.6 74.91 632.33 74.91 M 592.87 74.91 587.13 74.91 M 587.13 84.9 592.87 84.9 M 587.13 87.13 587.13 45.08 586.46 45.08 579.48 46.18 572.76 48.37 566.46 51.58 560.74 55.74 555.74 60.74 551.58 66.46 548.37 72.76 546.18 79.48 545.08 86.46 545.08 87.13 587.13 87.13 M 587.13 94.88 592.87 94.88 M 592.87 104.87 587.13 104.87 M 587.13 114.85 592.87 114.85 M 592.87 124.84 587.13 124.84 M 561.52 124.84 514.45 124.84 M 524.43 114.85 552.53 114.85 M 547.6 104.87 529.22 104.87 M 531.92 94.88 545.29 94.88 M 545.33 84.9 531.92 84.9 M 529.12 74.91 547.67 74.91 M 552.69 64.93 524.21 64.93 M 514.23 54.94 561.83 54.94 M 587.13 54.94 592.87 54.94 M 592.87 64.93 587.13 64.93 M 377.6 174.76 302.4 174.76 M 298.34 173.08 313.75 179.46 325.54 191.25 331.92 206.66 331.92 223.34 325.54 238.75 313.75 250.54 298.34 256.92 281.66 256.92 266.25 250.54 254.46 238.75 248.08 223.34 248.08 206.66 254.46 191.25 266.25 179.46 281.66 173.08 298.34 173.08 M 277.6 174.76 119.63 174.76 M 129.61 184.75 260.97 184.75 M 253.02 194.73 135.08 194.73 M 139.21 204.72 248.88 204.72 M 248.08 214.7 139.4 214.7 M 139.4 224.69 248.64 224.69 M 252.77 234.67 135.32 234.67 M 130.21 244.66 260.37 244.66 M 276.16 254.64 120.22 254.64 M 134.94 264.63 1063.99 264.63 M 1063.99 274.61 819.48 274.61 M 829.46 284.6 1063.99 284.6 M 1063.99 294.58 835.01 294.58 M 839.15 304.57 1063.99 304.57 M 1063.99 314.55 839.4 314.55 M 839.4 324.54 1063.99 324.54 M 1063.99 334.52 835.38 334.52 M 830.36 344.51 1063.99 344.51 M 1063.99 254.64 820.22 254.64 M 830.21 244.66 1063.99 244.66 M 1063.99 234.67 835.32 234.67 M 839.4 224.69 1063.99 224.69 M 1063.99 214.7 839.4 214.7 M 839.21 204.72 1063.99 204.72 M 1063.99 194.73 835.08 194.73 M 829.61 184.75 1063.99 184.75 M 1063.99 34.97 29 34.97 M 303.84 254.64 376.16 254.64 M 360.37 244.66 319.63 244.66 M 327.23 234.67 352.77 234.67 M 348.64 224.69 331.36 224.69 M 331.92 214.7 348.08 214.7 M 348.88 204.72 331.12 204.72 M 326.98 194.73 353.02 194.73 M 360.97 184.75 319.03 184.75 M 377.96 274.61 142.13 274.61 M 142.4 284.6 361.12 284.6 M 353.08 294.58 142.4 294.58 M 142.4 304.57 348.95 304.57 M 348.08 314.55 94.84 314.55 M 142.4 324.54 348.58 324.54 M 352.71 334.52 142.4 334.52 M 142.4 344.51 360.22 344.51 M 375.8 354.49 142.37 354.49 M 43.52 364.48 29 364.48 M 29 354.49 37.63 354.49 M 37.6 344.51 29 344.51 M 29 334.52 37.6 334.52 M 37.6 324.54 29 324.54 M 29 374.46 378.32 374.46 M 361.27 384.45 29 384.45 M 29 394.43 353.14 394.43 M 349.01 404.42 29 404.42 M 29 414.4 348.08 414.4 M 348.51 424.39 29 424.39 M 29 434.37 352.65 434.37 M 326.97 444.36 29 444.36 M 29 454.34 316.98 454.34 M 307 464.33 29 464.33 M 29 474.32 40.6 474.32 M 40.6 484.3 29 484.3 M 29 494.29 40.6 494.29 M 40.6 504.27 29 504.27 M 29 514.26 40.6 514.26 M 40.6 524.24 29 524.24 M 29 534.23 40.6 534.23 M 40.6 544.21 29 544.21 M 29 554.2 40.6 554.2 M 47.41 564.18 29 564.18 M 29 574.17 60.97 574.17 M 50.98 584.15 29 584.15 M 29 594.14 45.17 594.14 M 41.03 604.12 29 604.12 M 29 614.11 40.6 614.11 M 40.6 624.09 29 624.09 M 29 634.08 44.43 634.08 M 49.2 644.06 29 644.06 M 29 654.05 59.18 654.05 M 120.82 654.05 274.72 654.05 M 259.78 644.06 130.8 644.06 M 129.02 584.15 261.56 584.15 M 279.04 574.17 119.03 574.17 M 132.59 564.18 307.14 564.18 M 317.13 554.2 139.4 554.2 M 139.4 544.21 327.12 544.21 M 314.43 524.24 348.45 524.24 M 352.59 534.23 304.45 534.23 M 324.42 514.26 348.08 514.26 M 349.07 504.27 334.4 504.27 M 344.39 494.29 353.2 494.29 M 297.01 474.32 139.4 474.32 M 139.4 484.3 287.03 484.3 M 401.68 374.46 596.86 374.46 M 586.88 384.45 418.73 384.45 M 426.86 394.43 576.89 394.43 M 566.91 404.42 430.99 404.42 M 431.92 414.4 556.92 414.4 M 546.94 424.39 431.49 424.39 M 427.35 434.37 536.95 434.37 M 353.27 594.14 344.54 594.14 M 349.13 604.12 334.55 604.12 M 331.92 614.11 348.08 614.11 M 348.39 624.09 331.61 624.09 M 327.47 634.08 352.53 634.08 M 359.78 644.06 320.22 644.06 M 305.28 654.05 374.72 654.05 M 379.39 674.02 300.6 674.02 M 318.29 684 361.71 684 M 353.33 693.99 326.67 693.99 M 330.81 703.97 349.19 703.97 M 348.08 713.96 331.92 713.96 M 331.67 723.94 348.33 723.94 M 352.47 733.93 327.53 733.93 M 320.37 743.91 359.63 743.91 M 374.36 753.9 305.64 753.9 M 308.22 773.87 379.75 773.87 M 361.86 783.85 322.38 783.85 M 329.63 793.84 353.39 793.84 M 349.25 803.82 333.6 803.82 M 348.08 813.81 292.87 813.81 M 292.87 823.79 287.13 823.79 M 287.13 833.78 292.87 833.78 M 292.87 843.76 287.13 843.76 M 287.13 853.75 292.87 853.75 M 312.9 853.75 374 853.75 M 359.48 843.76 324.63 843.76 M 330.85 833.78 352.4 833.78 M 348.27 823.79 334.09 823.79 M 267.1 853.75 29 853.75 M 29 843.76 255.37 843.76 M 249.15 833.78 29 833.78 M 29 823.79 245.91 823.79 M 832.74 664.03 994.28 664.03 M 995.17 664.4 977.02 656.88 963.12 642.98 955.6 624.83 955.6 605.17 963.12 587.02 977.02 573.12 995.17 565.6 1014.83 565.6 1032.98 573.12 1046.88 587.02 1054.4 605.17 1054.4 624.83 1046.88 642.98 1032.98 656.88 1014.83 664.4 995.17 664.4 M 1015.72 664.03 1063.99 664.03 M 1063.99 654.05 1035.82 654.05 M 1045.8 644.06 1063.99 644.06 M 1063.99 634.08 1050.57 634.08 M 1054.4 624.09 1063.99 624.09 M 1063.99 614.11 1054.4 614.11 M 1053.97 604.12 1063.99 604.12 M 1063.99 594.14 1049.83 594.14 M 1044.02 584.15 1063.99 584.15 M 1063.99 574.17 1034.03 574.17 M 1047.59 564.18 1063.99 564.18 M 1063.99 554.2 1054.4 554.2 M 1054.4 544.21 1063.99 544.21 M 1063.99 534.23 1054.4 534.23 M 1054.4 524.24 1063.99 524.24 M 1063.99 514.26 1054.4 514.26 M 1054.4 504.27 1063.99 504.27 M 1063.99 494.29 1054.4 494.29 M 1054.4 484.3 1063.99 484.3 M 1063.99 474.32 1054.4 474.32 M 975.97 574.17 839.4 574.17 M 839.4 584.15 965.98 584.15 M 960.17 594.14 839.4 594.14 M 839.4 604.12 956.03 604.12 M 955.6 614.11 839.4 614.11 M 839.4 624.09 955.6 624.09 M 959.43 634.08 839.4 634.08 M 839.4 644.06 964.2 644.06 M 974.18 654.05 839.4 654.05" fill="none" stroke-width="10"/><path d="M 690 415 540 565 340 565 290 615 90 615 M 90 515 290 515 340 465 540 465 690 315" fill="none" stroke-width="23.62"/></g><g id="FIMco3PKVH7JVr6UC964_bottom_soldermask"><use xlink:href="#iFSSTU8dOux1m9RR8osn_pad-10" x="690" y="215"/><use xlink:href="#iFSSTU8dOux1m9RR8osn_pad-11" x="690" y="315"/><use xlink:href="#iFSSTU8dOux1m9RR8osn_pad-11" x="690" y="415"/><use xlink:href="#iFSSTU8dOux1m9RR8osn_pad-11" x="690" y="515"/><use xlink:href="#iFSSTU8dOux1m9RR8osn_pad-11" x="690" y="615"/><use xlink:href="#iFSSTU8dOux1m9RR8osn_pad-11" x="690" y="715"/><use xlink:href="#iFSSTU8dOux1m9RR8osn_pad-11" x="690" y="815"/><use xlink:href="#iFSSTU8dOux1m9RR8osn_pad-11" x="390" y="815"/><use xlink:href="#iFSSTU8dOux1m9RR8osn_pad-11" x="290" y="815"/><use xlink:href="#iFSSTU8dOux1m9RR8osn_pad-11" x="290" y="715"/><use xlink:href="#iFSSTU8dOux1m9RR8osn_pad-11" x="390" y="715"/><use xlink:href="#iFSSTU8dOux1m9RR8osn_pad-11" x="390" y="615"/><use xlink:href="#iFSSTU8dOux1m9RR8osn_pad-11" x="290" y="615"/><use xlink:href="#iFSSTU8dOux1m9RR8osn_pad-11" x="390" y="515"/><use xlink:href="#iFSSTU8dOux1m9RR8osn_pad-11" x="390" y="415"/><use xlink:href="#iFSSTU8dOux1m9RR8osn_pad-11" x="390" y="315"/><use xlink:href="#iFSSTU8dOux1m9RR8osn_pad-11" x="390" y="215"/><use xlink:href="#iFSSTU8dOux1m9RR8osn_pad-11" x="290" y="215"/><use xlink:href="#iFSSTU8dOux1m9RR8osn_pad-11" x="490" y="90"/><use xlink:href="#iFSSTU8dOux1m9RR8osn_pad-11" x="590" y="90"/><use xlink:href="#iFSSTU8dOux1m9RR8osn_pad-12" x="790" y="115"/><use xlink:href="#iFSSTU8dOux1m9RR8osn_pad-12" x="1005" y="515"/><use xlink:href="#iFSSTU8dOux1m9RR8osn_pad-12" x="790" y="615"/><use xlink:href="#iFSSTU8dOux1m9RR8osn_pad-12" x="90" y="515"/><use xlink:href="#iFSSTU8dOux1m9RR8osn_pad-12" x="90" y="315"/><use xlink:href="#iFSSTU8dOux1m9RR8osn_pad-13" x="90" y="215"/><use xlink:href="#iFSSTU8dOux1m9RR8osn_pad-13" x="90" y="615"/><use xlink:href="#iFSSTU8dOux1m9RR8osn_pad-13" x="790" y="515"/><use xlink:href="#iFSSTU8dOux1m9RR8osn_pad-13" x="790" y="415"/><use xlink:href="#iFSSTU8dOux1m9RR8osn_pad-13" x="790" y="315"/><use xlink:href="#iFSSTU8dOux1m9RR8osn_pad-13" x="790" y="215"/><use xlink:href="#iFSSTU8dOux1m9RR8osn_pad-13" x="1005" y="615"/></g><g id="FIMco3PKVH7JVr6UC964_bottom_silkscreen"><path d="M 30 30 30 120 240 120 240 30 30 30 M 49.86 54 77.88 54 M 95.9 61.01 95.9 89.03 102.9 96.04 123.92 96.04 123.92 54 102.9 54 95.9 61.01 M 77.88 82.02 63.87 96.04 63.87 54 M 141.94 61.01 148.94 54 169.96 54 169.96 96.04 148.94 96.04 141.94 89.03 141.94 82.02 148.94 75.02 169.96 75.02 M 148.94 75.02 141.94 68.01 141.94 61.01 M 187.98 61.01 194.98 54 208.99 54 216 61.01 216 89.03 208.99 96.04 194.98 96.04 187.98 89.03 187.98 61.01 M 481.5 146.85 481.5 160.86 M 481.5 153.85 523.54 153.85 M 523.54 146.85 523.54 160.86 M 523.54 177.54 481.5 205.57 523.54 205.57 M 523.54 223.58 495.51 223.58 481.5 237.59 495.51 251.6 523.54 251.6 M 523.54 269.62 481.5 269.62 481.5 297.64 M 502.52 283.63 502.52 269.62 M 523.54 269.62 523.54 297.64 M 523.54 315.66 523.54 336.68 516.53 343.68 502.52 343.68 495.51 336.68 495.51 315.66 M 481.5 315.66 523.54 315.66 M 495.51 329.67 481.5 343.68 M 523.54 361.7 523.54 389.72 M 523.54 375.71 481.5 375.71 M 481.5 407.74 481.5 435.76 M 502.52 421.75 502.52 407.74 M 523.54 407.74 481.5 407.74 M 523.54 407.74 523.54 435.76 M 523.54 453.78 523.54 474.79 516.53 481.8 502.52 481.8 495.51 474.79 495.51 453.78 M 481.5 453.78 523.54 453.78 M 495.51 467.79 481.5 481.8 M 556.5 470.96 556.5 456.95 563.51 449.94 598.54 449.94 M 591.53 431.93 584.52 431.93 577.52 424.92 577.52 403.9 M 577.52 385.89 577.52 357.86 M 598.54 341.18 598.54 327.17 M 598.54 334.18 556.5 334.18 M 556.5 341.18 556.5 327.17 M 563.51 309.15 556.5 302.15 556.5 288.14 563.51 281.13 591.53 281.13 598.54 288.14 598.54 302.15 591.53 309.15 M 591.53 263.11 598.54 256.11 598.54 242.1 591.53 235.09 584.52 235.09 577.52 242.1 577.52 256.11 570.51 263.11 563.51 263.11 556.5 256.11 556.5 242.1 563.51 235.09 M 523.54 177.54 481.5 177.54 M 556.5 403.9 556.5 424.92 563.51 431.93 570.51 431.93 577.52 424.92 M 591.53 431.93 598.54 424.92 598.54 403.9 556.5 403.9 M 556.5 470.96 563.51 477.96 598.54 477.96 M 591.53 495.98 584.52 495.98 577.52 502.99 577.52 517 570.51 524 563.51 524 556.5 517 556.5 502.99 563.51 495.98 M 591.53 495.98 598.54 502.99 598.54 517 591.53 524 M 598.54 588.06 556.5 588.06 556.5 616.08 M 563.51 634.1 556.5 641.1 556.5 655.12 563.51 662.12 591.53 662.12 598.54 655.12 598.54 641.1 591.53 634.1 563.51 634.1 M 523.54 605.91 481.5 605.91 M 481.5 619.92 481.5 591.89 M 495.51 573.88 523.54 573.88 M 509.52 591.89 523.54 605.91 M 495.51 573.88 481.5 559.87 495.51 545.86 523.54 545.86 M 488.51 637.93 488.51 644.94 481.5 644.94 481.5 637.93 488.51 637.93 M 488.51 660.95 516.53 688.98 488.51 688.98 481.5 681.97 481.5 667.96 488.51 660.95 516.53 660.95 523.54 667.96 523.54 681.97 516.53 688.98 M 516.53 706.99 523.54 714 523.54 728.01 516.53 735.02 488.51 706.99 481.5 714 481.5 728.01 488.51 735.02 516.53 735.02 M 516.53 706.99 488.51 706.99 M 556.5 701.15 556.5 687.14 563.51 680.14 591.53 680.14 598.54 687.14 598.54 701.15 591.53 708.16 M 577.52 708.16 577.52 694.15 M 577.52 708.16 563.51 708.16 556.5 701.15 M 556.5 726.18 556.5 740.19 M 556.5 733.18 598.54 733.18 M 598.54 726.18 598.54 740.19 M 591.53 756.87 563.51 756.87 556.5 763.87 556.5 777.89 563.51 784.89 M 591.53 784.89 598.54 777.89 598.54 763.87 591.53 756.87 M 523.54 799.07 481.5 799.07 481.5 827.09 M 481.5 845.11 481.5 866.13 488.51 873.13 516.53 873.13 523.54 866.13 523.54 845.11 481.5 845.11 M 855 815 855 905 1065 905 1065 815 855 815 M 874.86 839 902.88 839 874.86 867.02 874.86 874.03 881.86 881.04 895.88 881.04 902.88 874.03 M 920.9 874.03 927.9 881.04 948.92 881.04 948.92 839 927.9 839 920.9 846.01 920.9 874.03 M 966.94 874.03 966.94 867.02 973.94 860.02 994.96 860.02 M 1012.98 846.01 1012.98 874.03 1019.98 881.04 1033.99 881.04 1041 874.03 1041 846.01 1033.99 839 1019.98 839 1012.98 846.01 M 994.96 839 973.94 839 966.94 846.01 966.94 853.01 973.94 860.02 M 966.94 874.03 973.94 881.04 994.96 881.04 994.96 839" fill="none" stroke-width="8"/></g><g id="FIMco3PKVH7JVr6UC964_bottom_drill1"><use xlink:href="#z3_PtIiXIfpcpr57REKo_pad-1" x="290" y="215"/><use xlink:href="#z3_PtIiXIfpcpr57REKo_pad-1" x="390" y="215"/><use xlink:href="#z3_PtIiXIfpcpr57REKo_pad-1" x="390" y="315"/><use xlink:href="#z3_PtIiXIfpcpr57REKo_pad-1" x="390" y="415"/><use xlink:href="#z3_PtIiXIfpcpr57REKo_pad-1" x="390" y="515"/><use xlink:href="#z3_PtIiXIfpcpr57REKo_pad-1" x="390" y="615"/><use xlink:href="#z3_PtIiXIfpcpr57REKo_pad-1" x="290" y="615"/><use xlink:href="#z3_PtIiXIfpcpr57REKo_pad-1" x="290" y="715"/><use xlink:href="#z3_PtIiXIfpcpr57REKo_pad-1" x="390" y="715"/><use xlink:href="#z3_PtIiXIfpcpr57REKo_pad-1" x="390" y="815"/><use xlink:href="#z3_PtIiXIfpcpr57REKo_pad-1" x="290" y="815"/><use xlink:href="#z3_PtIiXIfpcpr57REKo_pad-1" x="690" y="815"/><use xlink:href="#z3_PtIiXIfpcpr57REKo_pad-1" x="690" y="715"/><use xlink:href="#z3_PtIiXIfpcpr57REKo_pad-1" x="690" y="615"/><use xlink:href="#z3_PtIiXIfpcpr57REKo_pad-1" x="690" y="515"/><use xlink:href="#z3_PtIiXIfpcpr57REKo_pad-1" x="690" y="415"/><use xlink:href="#z3_PtIiXIfpcpr57REKo_pad-1" x="690" y="315"/><use xlink:href="#z3_PtIiXIfpcpr57REKo_pad-1" x="690" y="215"/><use xlink:href="#z3_PtIiXIfpcpr57REKo_pad-1" x="590" y="90"/><use xlink:href="#z3_PtIiXIfpcpr57REKo_pad-1" x="490" y="90"/><use xlink:href="#z3_PtIiXIfpcpr57REKo_pad-2" x="90" y="215"/><use xlink:href="#z3_PtIiXIfpcpr57REKo_pad-2" x="90" y="315"/><use xlink:href="#z3_PtIiXIfpcpr57REKo_pad-2" x="90" y="515"/><use xlink:href="#z3_PtIiXIfpcpr57REKo_pad-2" x="90" y="615"/><use xlink:href="#z3_PtIiXIfpcpr57REKo_pad-2" x="790" y="615"/><use xlink:href="#z3_PtIiXIfpcpr57REKo_pad-2" x="790" y="515"/><use xlink:href="#z3_PtIiXIfpcpr57REKo_pad-2" x="790" y="415"/><use xlink:href="#z3_PtIiXIfpcpr57REKo_pad-2" x="790" y="315"/><use xlink:href="#z3_PtIiXIfpcpr57REKo_pad-2" x="790" y="215"/><use xlink:href="#z3_PtIiXIfpcpr57REKo_pad-2" x="790" y="115"/><use xlink:href="#z3_PtIiXIfpcpr57REKo_pad-2" x="1005" y="515"/><use xlink:href="#z3_PtIiXIfpcpr57REKo_pad-2" x="1005" y="615"/></g><clipPath id="FIMco3PKVH7JVr6UC964_bottom_outline"><path d="M 15 15 15 920.51 1077.99 920.51 1077.99 15 15 15" fill="none" stroke-width="0"/></clipPath><mask id="FIMco3PKVH7JVr6UC964_bottom_mech-mask"><g fill="#000" stroke="#000"><rect x="15" y="15" width="1062.99" height="905.51" fill="#fff"/><use xlink:href="#FIMco3PKVH7JVr6UC964_bottom_drill1"/></g></mask><mask id="FIMco3PKVH7JVr6UC964_bottom_cf-mask"><g fill="#fff" stroke="#fff"><use xlink:href="#FIMco3PKVH7JVr6UC964_bottom_soldermask"/></g></mask><mask id="FIMco3PKVH7JVr6UC964_bottom_sm-mask"><g fill="#000" stroke="#000"><rect x="15" y="15" width="1062.99" height="905.51" fill="#fff"/><use xlink:href="#FIMco3PKVH7JVr6UC964_bottom_soldermask"/></g></mask></defs><g transform="translate(0,935.51) scale(1,-1)"><g mask="url(#FIMco3PKVH7JVr6UC964_bottom_mech-mask)" clip-path="url(#FIMco3PKVH7JVr6UC964_bottom_outline)" transform="translate(1092.99,0) scale(-1,1)"><rect x="15" y="15" width="1062.99" height="905.51" fill="currentColor" class="FIMco3PKVH7JVr6UC964_fr4"/><use xlink:href="#FIMco3PKVH7JVr6UC964_bottom_copper" fill="currentColor" stroke="currentColor" class="FIMco3PKVH7JVr6UC964_cu"/><use xlink:href="#FIMco3PKVH7JVr6UC964_bottom_copper" fill="currentColor" stroke="currentColor" class="FIMco3PKVH7JVr6UC964_cf" mask="url(#FIMco3PKVH7JVr6UC964_bottom_cf-mask)"/><g mask="url(#FIMco3PKVH7JVr6UC964_bottom_sm-mask)"><rect x="15" y="15" width="1062.99" height="905.51" fill="currentColor" class="FIMco3PKVH7JVr6UC964_sm"/><use xlink:href="#FIMco3PKVH7JVr6UC964_bottom_silkscreen" fill="currentColor" stroke="currentColor" class="FIMco3PKVH7JVr6UC964_ss"/></g></g></g></svg>