<svg version="1.1" xmlns="http://www.w3.org/2000/svg" xmlns:xlink="http://www.w3.org/1999/xlink" stroke-linecap="round" stroke-linejoin="round" stroke-width="0" fill-rule="evenodd" clip-rule="evenodd" id="FIMco3PKVH7JVr6UC964_top" viewBox="15 15 1062.99 905.51" width="1.06299in" height="0.90551in" class="w-100 h-100"><defs><style>.FIMco3PKVH7JVr6UC964_fr4 {color: #666666;}
.FIMco3PKVH7JVr6UC964_cu {color: #cccccc;}
.FIMco3PKVH7JVr6UC964_cf {color: #cc9933;}
.FIMco3PKVH7JVr6UC964_sm {color: #004200; opacity: 0.75;}
.FIMco3PKVH7JVr6UC964_ss {color: #ffffff;}
.FIMco3PKVH7JVr6UC964_sp {color: #999999;}
.FIMco3PKVH7JVr6UC964_out {color: #000000;}</style><rect x="-29.92" y="-29.92" width="59.84" height="59.84" id="G1T7Pet5cFXfiRyb9_36_pad-10"/><circle cx="0" cy="0" r="29.92" id="G1T7Pet5cFXfiRyb9_36_pad-11"/><rect x="-37.4" y="-37.4" width="74.8" height="74.8" id="G1T7Pet5cFXfiRyb9_36_pad-12"/><circle cx="0" cy="0" r="37.4" id="G1T7Pet5cFXfiRyb9_36_pad-13"/><rect x="-33.92" y="-33.92" width="67.84" height="67.84" id="OvBcP3Wbfkper1HKWOBm_pad-10"/><circle cx="0" cy="0" r="33.92" id="OvBcP3Wbfkper1HKWOBm_pad-11"/><rect x="-41.4" y="-41.4" width="82.8" height="82.8" id="OvBcP3Wbfkper1HKWOBm_pad-12"/><circle cx="0" cy="0" r="41.4" id="OvBcP3Wbfkper1HKWOBm_pad-13"/><circle cx="0" cy="0" r="15.75" id="z3_PtIiXIfpcpr57REKo_pad-1"/><circle cx="0" cy="0" r="19.7" id="z3_PtIiXIfpcpr57REKo_pad-2"/><g id="FIMco3PKVH7JVr6UC964_top_copper"><use xlink:href="#G1T7Pet5cFXfiRyb9_36_pad-10" x="690" y="215"/><use xlink:href="#G1T7Pet5cFXfiRyb9_36_pad-11" x="690" y="315"/><use xlink:href="#G1T7Pet5cFXfiRyb9_36_pad-11" x="690" y="415"/><use xlink:href="#G1T7Pet5cFXfiRyb9_36_pad-11" x="690" y="515"/><use xlink:href="#G1T7Pet5cFXfiRyb9_36_pad-11" x="690" y="615"/><use xlink:href="#G1T7Pet5cFXfiRyb9_36_pad-11" x="690" y="715"/><use xlink:href="#G1T7Pet5cFXfiRyb9_36_pad-11" x="690" y="815"/><use xlink:href="#G1T7Pet5cFXfiRyb9_36_pad-11" x="390" y="815"/><use xlink:href="#G1T7Pet5cFXfiRyb9_36_pad-11" x="290" y="815"/><use xlink:href="#G1T7Pet5cFXfiRyb9_36_pad-11" x="290" y="715"/><use xlink:href="#G1T7Pet5cFXfiRyb9_36_pad-11" x="390" y="715"/><use xlink:href="#G1T7Pet5cFXfiRyb9_36_pad-11" x="390" y="615"/><use xlink:href="#G1T7Pet5cFXfiRyb9_36_pad-11" x="290" y="615"/><use xlink:href="#G1T7Pet5cFXfiRyb9_36_pad-11" x="390" y="515"/><use xlink:href="#G1T7Pet5cFXfiRyb9_36_pad-11" x="390" y="415"/><use xlink:href="#G1T7Pet5cFXfiRyb9_36_pad-11" x="390" y="315"/><use xlink:href="#G1T7Pet5cFXfiRyb9_36_pad-11" x="390" y="215"/><use xlink:href="#G1T7Pet5cFXfiRyb9_36_pad-11" x="290" y="215"/><use xlink:href="#G1T7Pet5cFXfiRyb9_36_pad-11" x="490" y="90"/><use xlink:href="#G1T7Pet5cFXfiRyb9_36_pad-11" x="590" y="90"/><use xlink:href="#G1T7Pet5cFXfiRyb9_36_pad-12" x="790" y="115"/><use xlink:href="#G1T7Pet5cFXfiRyb9_36_pad-12" x="1005" y="515"/><use xlink:href="#G1T7Pet5cFXfiRyb9_36_pad-12" x="790" y="615"/><use xlink:href="#G1T7Pet5cFXfiRyb9_36_pad-12" x="90" y="515"/><use xlink:href="#G1T7Pet5cFXfiRyb9_36_pad-12" x="90" y="315"/><use xlink:href="#G1T7Pet5cFXfiRyb9_36_pad-13" x="90" y="215"/><use xlink:href="#G1T7Pet5cFXfiRyb9_36_pad-13" x="90" y="615"/><use xlink:href="#G1T7Pet5cFXfiRyb9_36_pad-13" x="790" y="515"/><use xlink:href="#G1T7Pet5cFXfiRyb9_36_pad-13" x="790" y="415"/><use xlink:href="#G1T7Pet5cFXfiRyb9_36_pad-13" x="790" y="315"/><use xlink:href="#G1T7Pet5cFXfiRyb9_36_pad-13" x="790" y="215"/><use xlink:href="#G1T7Pet5cFXfiRyb9_36_pad-13" x="1005" y="615"/><path d="M 29 906.51 29 29 1063.99 29 1063.99 906.51 29 906.51 M 29 903.68 1063.99 903.68 M 1063.99 893.69 29 893.69 M 29 883.7 1063.99 883.7 M 1063.99 873.72 29 873.72 M 29 863.73 1063.99 863.73 M 1063.99 853.75 712.9 853.75 M 713.54 853.42 707.24 856.63 700.52 858.82 693.54 859.92 692.87 859.92 692.87 817.87 734.92 817.87 734.92 818.54 733.82 825.52 731.63 832.24 728.42 838.54 724.26 844.26 719.26 849.26 713.54 853.42 M 724.63 843.76 1063.99 843.76 M 1063.99 833.78 730.85 833.78 M 734.09 823.79 1063.99 823.79 M 1063.99 813.81 692.87 813.81 M 692.87 812.13 692.87 817.87 687.13 817.87 687.13 812.13 692.87 812.13 692.87 770.08 693.54 770.08 700.52 771.18 707.24 773.37 713.54 776.58 719.26 780.74 724.26 785.74 728.42 791.46 731.63 797.76 733.82 804.48 734.92 811.46 734.92 812.13 692.87 812.13 M 687.13 812.13 687.13 770.08 686.46 770.08 679.48 771.18 672.76 773.37 666.46 776.58 660.74 780.74 655.74 785.74 651.58 791.46 648.37 797.76 646.18 804.48 645.08 811.46 645.08 812.13 687.13 812.13 M 687.13 813.81 431.92 813.81 M 431.92 806.66 425.54 791.25 413.75 779.46 398.34 773.08 381.66 773.08 366.25 779.46 354.46 791.25 348.08 806.66 348.08 823.34 354.46 838.75 366.25 850.54 381.66 856.92 398.34 856.92 413.75 850.54 425.54 838.75 431.92 823.34 431.92 806.66 M 430.75 803.82 646.4 803.82 M 650.37 793.84 426.61 793.84 M 418.14 783.85 657.62 783.85 M 671.78 773.87 400.25 773.87 M 398.34 756.92 381.66 756.92 366.25 750.54 354.46 738.75 348.08 723.34 348.08 706.66 354.46 691.25 366.25 679.46 381.66 673.08 398.34 673.08 413.75 679.46 425.54 691.25 431.92 706.66 431.92 723.34 425.54 738.75 413.75 750.54 398.34 756.92 M 405.64 753.9 674.36 753.9 M 681.66 756.92 666.25 750.54 654.46 738.75 648.08 723.34 648.08 706.66 654.46 691.25 666.25 679.46 681.66 673.08 698.34 673.08 713.75 679.46 725.54 691.25 731.92 706.66 731.92 723.34 725.54 738.75 713.75 750.54 698.34 756.92 681.66 756.92 M 687.13 773.87 692.87 773.87 M 692.87 783.85 687.13 783.85 M 687.13 793.84 692.87 793.84 M 692.87 803.82 687.13 803.82 M 687.13 817.87 645.08 817.87 645.08 818.54 646.18 825.52 648.37 832.24 651.58 838.54 655.74 844.26 660.74 849.26 666.46 853.42 672.76 856.63 679.48 858.82 686.46 859.92 687.13 859.92 687.13 817.87 M 687.13 823.79 692.87 823.79 M 692.87 833.78 687.13 833.78 M 687.13 843.76 692.87 843.76 M 692.87 853.75 687.13 853.75 M 667.1 853.75 406 853.75 M 420.52 843.76 655.37 843.76 M 649.15 833.78 427.6 833.78 M 431.73 823.79 645.91 823.79 M 708.22 773.87 1063.99 773.87 M 1063.99 783.85 722.38 783.85 M 729.63 793.84 1063.99 793.84 M 1063.99 803.82 733.6 803.82 M 705.64 753.9 1063.99 753.9 M 1063.99 763.88 29 763.88 M 29 753.9 274.36 753.9 M 281.66 756.92 266.25 750.54 254.46 738.75 248.08 723.34 248.08 706.66 254.46 691.25 266.19 679.53 266.19 650.47 254.46 638.75 248.08 623.34 248.08 606.66 254.46 591.25 266.25 579.46 281.66 573.08 298.34 573.08 313.75 579.46 325.54 591.25 331.92 606.66 331.92 623.34 325.54 638.75 313.81 650.47 313.81 679.53 325.54 691.25 331.92 706.66 331.92 723.34 325.54 738.75 313.75 750.54 298.34 756.92 281.66 756.92 M 286.46 770.08 279.48 771.18 272.76 773.37 266.46 776.58 260.74 780.74 255.74 785.74 251.58 791.46 248.37 797.76 246.18 804.48 245.08 811.46 245.08 812.13 287.13 812.13 287.13 817.87 245.08 817.87 245.08 818.54 246.18 825.52 248.37 832.24 251.58 838.54 255.74 844.26 260.74 849.26 266.46 853.42 272.76 856.63 279.48 858.82 286.46 859.92 287.13 859.92 287.13 817.87 292.87 817.87 292.87 859.92 293.54 859.92 300.52 858.82 307.24 856.63 313.54 853.42 319.26 849.26 324.26 844.26 328.42 838.54 331.63 832.24 333.82 825.52 334.92 818.54 334.92 817.87 292.87 817.87 292.87 812.13 292.87 770.08 293.54 770.08 300.52 771.18 307.24 773.37 313.54 776.58 319.26 780.74 324.26 785.74 328.42 791.46 331.63 797.76 333.82 804.48 334.92 811.46 334.92 812.13 292.87 812.13 287.13 812.13 287.13 770.08 286.46 770.08 M 287.13 773.87 292.87 773.87 M 292.87 783.85 287.13 783.85 M 287.13 793.84 292.87 793.84 M 292.87 803.82 287.13 803.82 M 287.13 813.81 29 813.81 M 29 803.82 246.4 803.82 M 250.37 793.84 29 793.84 M 29 783.85 257.62 783.85 M 271.78 773.87 29 773.87 M 29 743.91 259.63 743.91 M 252.47 733.93 29 733.93 M 29 723.94 248.33 723.94 M 248.08 713.96 29 713.96 M 29 703.97 249.19 703.97 M 253.33 693.99 29 693.99 M 29 684 261.71 684 M 266.19 674.02 29 674.02 M 29 664.03 79.28 664.03 M 80.17 664.4 62.02 656.88 48.12 642.98 40.6 624.83 40.6 605.17 48.12 587.02 62.02 573.12 80.17 565.6 99.83 565.6 117.98 573.12 131.88 587.02 139.4 605.17 139.4 624.83 131.88 642.98 117.98 656.88 99.83 664.4 80.17 664.4 M 100.72 664.03 266.19 664.03 M 266.19 654.05 120.82 654.05 M 130.8 644.06 259.78 644.06 M 252.53 634.08 135.57 634.08 M 139.4 624.09 248.39 624.09 M 248.08 614.11 139.4 614.11 M 138.97 604.12 249.13 604.12 M 253.27 594.14 134.83 594.14 M 129.02 584.15 261.56 584.15 M 279.04 574.17 119.03 574.17 M 132.37 564.4 139.4 557.37 139.4 472.63 132.37 465.6 47.63 465.6 40.6 472.63 40.6 557.37 47.63 564.4 132.37 564.4 M 132.59 564.18 779.64 564.18 M 780.17 564.4 762.02 556.88 748.12 542.98 746.39 538.81 725.47 538.81 713.75 550.54 698.34 556.92 681.66 556.92 666.25 550.54 654.46 538.75 648.08 523.34 648.08 506.66 654.46 491.25 666.25 479.46 681.66 473.08 698.34 473.08 713.75 479.46 725.47 491.19 746.39 491.19 748.12 487.02 762.02 473.12 780.17 465.6 799.83 465.6 817.98 473.12 831.88 487.02 833.61 491.19 859.86 491.19 873.81 505.14 959.86 591.19 961.39 591.19 963.12 587.02 977.02 573.12 995.17 565.6 1014.83 565.6 1032.98 573.12 1046.88 587.02 1054.4 605.17 1054.4 624.83 1046.88 642.98 1032.98 656.88 1014.83 664.4 995.17 664.4 977.02 656.88 963.12 642.98 961.39 638.81 940.14 638.81 840.14 538.81 833.61 538.81 831.88 542.98 817.98 556.88 799.83 564.4 780.17 564.4 M 800.36 564.18 865.51 564.18 M 875.49 574.17 839.4 574.17 M 839.4 572.63 832.37 565.6 747.63 565.6 740.6 572.63 740.6 657.37 747.63 664.4 832.37 664.4 839.4 657.37 839.4 572.63 M 839.4 584.15 885.48 584.15 M 895.46 594.14 839.4 594.14 M 839.4 604.12 905.45 604.12 M 915.43 614.11 839.4 614.11 M 839.4 624.09 925.42 624.09 M 935.4 634.08 839.4 634.08 M 839.4 644.06 964.2 644.06 M 974.18 654.05 839.4 654.05 M 832.74 664.03 994.28 664.03 M 1015.72 664.03 1063.99 664.03 M 1063.99 654.05 1035.82 654.05 M 1045.8 644.06 1063.99 644.06 M 1063.99 634.08 1050.57 634.08 M 1054.4 624.09 1063.99 624.09 M 1063.99 614.11 1054.4 614.11 M 1053.97 604.12 1063.99 604.12 M 1063.99 594.14 1049.83 594.14 M 1044.02 584.15 1063.99 584.15 M 1063.99 574.17 1034.03 574.17 M 1047.37 564.4 962.63 564.4 955.6 557.37 955.6 499.27 855.14 398.81 841.19 384.86 841.19 299.86 834.38 293.06 839.4 305.17 839.4 324.83 831.88 342.98 817.98 356.88 799.83 364.4 780.17 364.4 762.02 356.88 748.12 342.98 746.39 338.81 725.47 338.81 713.75 350.54 698.34 356.92 681.66 356.92 666.25 350.54 654.46 338.75 648.08 323.34 648.08 306.66 654.46 291.25 666.25 279.46 681.66 273.08 698.34 273.08 713.75 279.46 725.47 291.19 746.39 291.19 748.12 287.02 762.02 273.12 780.17 265.6 799.83 265.6 811.94 270.62 804 262.67 799.83 264.4 780.17 264.4 762.02 256.88 748.12 242.98 746.39 238.81 731.92 238.81 731.92 249.89 724.89 256.92 655.11 256.92 648.08 249.89 648.08 180.11 655.11 173.08 724.89 173.08 731.92 180.11 731.92 191.19 746.39 191.19 748.12 187.02 762.02 173.12 780.17 165.6 799.83 165.6 817.98 173.12 831.88 187.02 839.4 205.17 839.4 224.83 837.67 229 888.81 280.14 888.81 365.14 989.27 465.6 1047.37 465.6 1054.4 472.63 1054.4 557.37 1047.37 564.4 M 1047.59 564.18 1063.99 564.18 M 1063.99 554.2 1054.4 554.2 M 1054.4 544.21 1063.99 544.21 M 1063.99 534.23 1054.4 534.23 M 1054.4 524.24 1063.99 524.24 M 1063.99 514.26 1054.4 514.26 M 1054.4 504.27 1063.99 504.27 M 1063.99 494.29 1054.4 494.29 M 1054.4 484.3 1063.99 484.3 M 1063.99 474.32 1054.4 474.32 M 1063.99 464.33 988 464.33 M 978.02 454.34 1063.99 454.34 M 1063.99 444.36 968.03 444.36 M 958.05 434.37 1063.99 434.37 M 1063.99 424.39 948.06 424.39 M 938.08 414.4 1063.99 414.4 M 1063.99 404.42 928.09 404.42 M 918.11 394.43 1063.99 394.43 M 1063.99 384.45 908.12 384.45 M 898.14 374.46 1063.99 374.46 M 1063.99 364.48 888.81 364.48 M 888.81 354.49 1063.99 354.49 M 1063.99 344.51 888.81 344.51 M 888.81 334.52 1063.99 334.52 M 1063.99 324.54 888.81 324.54 M 888.81 314.55 1063.99 314.55 M 1063.99 304.57 888.81 304.57 M 888.81 294.58 1063.99 294.58 M 1063.99 284.6 888.81 284.6 M 883.29 274.61 1063.99 274.61 M 1063.99 264.63 873.3 264.63 M 863.32 254.64 1063.99 254.64 M 1063.99 244.66 853.33 244.66 M 843.35 234.67 1063.99 234.67 M 1063.99 224.69 839.4 224.69 M 839.4 214.7 1063.99 214.7 M 1063.99 204.72 839.21 204.72 M 835.08 194.73 1063.99 194.73 M 1063.99 184.75 829.61 184.75 M 819.63 174.76 1063.99 174.76 M 1063.99 164.78 473.9 164.78 M 463.91 174.76 653.43 174.76 M 648.08 184.75 453.93 184.75 M 443.94 194.73 648.08 194.73 M 648.08 204.72 433.96 204.72 M 431.92 206.75 431.92 223.34 425.54 238.75 413.75 250.54 398.34 256.92 381.66 256.92 366.25 250.54 354.53 238.81 325.47 238.81 313.75 250.54 298.34 256.92 281.66 256.92 266.25 250.54 254.53 238.81 133.61 238.81 131.88 242.98 117.98 256.88 104.18 262.6 129.38 262.6 133.19 263.62 136.61 265.6 139.4 268.39 141.38 271.81 142.4 275.62 142.4 310.16 94.84 310.16 94.84 319.84 85.16 319.84 85.16 310.16 37.6 310.16 37.6 275.62 38.62 271.81 40.6 268.39 43.39 265.6 46.81 263.62 50.62 262.6 75.82 262.6 62.02 256.88 48.12 242.98 40.6 224.83 40.6 205.17 48.12 187.02 62.02 173.12 80.17 165.6 99.83 165.6 117.98 173.12 131.88 187.02 133.61 191.19 254.53 191.19 266.25 179.46 281.66 173.08 298.34 173.08 313.75 179.46 325.47 191.19 354.53 191.19 366.25 179.46 381.66 173.08 398.25 173.08 456.02 115.31 454.46 113.75 448.08 98.34 448.08 81.66 454.46 66.25 466.25 54.46 481.66 48.08 498.34 48.08 513.75 54.46 525.54 66.25 531.92 81.66 531.92 98.34 525.54 113.75 513.75 125.54 512.7 125.97 499.86 138.81 431.92 206.75 M 431.92 214.7 648.08 214.7 M 648.08 224.69 431.36 224.69 M 427.23 234.67 648.08 234.67 M 648.08 244.66 419.63 244.66 M 403.84 254.64 652.83 254.64 M 661.12 284.6 418.88 284.6 M 413.75 279.46 425.54 291.25 431.92 306.66 431.92 323.34 425.54 338.75 413.75 350.54 398.34 356.92 381.66 356.92 366.25 350.54 354.46 338.75 348.08 323.34 348.08 306.66 354.46 291.25 366.25 279.46 381.66 273.08 398.34 273.08 413.75 279.46 M 402.04 274.61 677.96 274.61 M 702.04 274.61 760.52 274.61 M 750.54 284.6 718.88 284.6 M 727.17 254.64 759.78 254.64 M 749.79 244.66 731.92 244.66 M 731.92 184.75 750.39 184.75 M 760.37 174.76 726.57 174.76 M 740.6 157.37 747.63 164.4 832.37 164.4 839.4 157.37 839.4 72.63 832.37 65.6 747.63 65.6 740.6 72.63 740.6 157.37 M 740.6 154.79 483.88 154.79 M 493.87 144.81 740.6 144.81 M 740.6 134.82 594.17 134.82 M 593.54 134.92 592.87 134.92 592.87 92.87 634.92 92.87 634.92 93.54 633.82 100.52 631.63 107.24 628.42 113.54 624.26 119.26 619.26 124.26 613.54 128.42 607.24 131.63 600.52 133.82 593.54 134.92 M 592.87 134.82 587.13 134.82 M 587.13 134.92 586.46 134.92 579.48 133.82 572.76 131.63 566.46 128.42 560.74 124.26 555.74 119.26 551.58 113.54 548.37 107.24 546.18 100.52 545.08 93.54 545.08 92.87 587.13 92.87 587.13 87.13 592.87 87.13 592.87 45.08 593.54 45.08 600.52 46.18 607.24 48.37 613.54 51.58 619.26 55.74 624.26 60.74 628.42 66.46 631.63 72.76 633.82 79.48 634.92 86.46 634.92 87.13 592.87 87.13 592.87 92.87 587.13 92.87 587.13 134.92 M 585.83 134.82 503.85 134.82 M 514.45 124.84 561.52 124.84 M 552.53 114.85 524.43 114.85 M 529.22 104.87 547.6 104.87 M 545.29 94.88 531.92 94.88 M 531.92 84.9 545.33 84.9 M 545.08 86.46 546.18 79.48 548.37 72.76 551.58 66.46 555.74 60.74 560.74 55.74 566.46 51.58 572.76 48.37 579.48 46.18 586.46 45.08 587.13 45.08 587.13 87.13 545.08 87.13 545.08 86.46 M 547.67 74.91 529.12 74.91 M 524.21 64.93 552.69 64.93 M 561.83 54.94 514.23 54.94 M 465.77 54.94 29 54.94 M 29 44.96 1063.99 44.96 M 1063.99 54.94 618.17 54.94 M 627.31 64.93 1063.99 64.93 M 1063.99 74.91 839.4 74.91 M 839.4 84.9 1063.99 84.9 M 1063.99 94.88 839.4 94.88 M 839.4 104.87 1063.99 104.87 M 1063.99 114.85 839.4 114.85 M 839.4 124.84 1063.99 124.84 M 1063.99 134.82 839.4 134.82 M 839.4 144.81 1063.99 144.81 M 1063.99 154.79 839.4 154.79 M 740.6 124.84 618.48 124.84 M 627.47 114.85 740.6 114.85 M 740.6 104.87 632.4 104.87 M 634.71 94.88 740.6 94.88 M 740.6 84.9 634.67 84.9 M 632.33 74.91 740.6 74.91 M 592.87 74.91 587.13 74.91 M 587.13 84.9 592.87 84.9 M 592.87 94.88 587.13 94.88 M 587.13 104.87 592.87 104.87 M 592.87 114.85 587.13 114.85 M 587.13 124.84 592.87 124.84 M 592.87 64.93 587.13 64.93 M 587.13 54.94 592.87 54.94 M 455.79 64.93 29 64.93 M 29 74.91 450.87 74.91 M 448.08 84.9 29 84.9 M 29 94.88 448.08 94.88 M 450.78 104.87 29 104.87 M 29 114.85 455.57 114.85 M 446.49 124.84 29 124.84 M 29 134.82 436.5 134.82 M 426.52 144.81 29 144.81 M 29 154.79 416.53 154.79 M 406.55 164.78 29 164.78 M 29 174.76 60.37 174.76 M 50.39 184.75 29 184.75 M 29 194.73 44.92 194.73 M 40.79 204.72 29 204.72 M 29 214.7 40.6 214.7 M 40.6 224.69 29 224.69 M 29 234.67 44.68 234.67 M 49.79 244.66 29 244.66 M 29 254.64 59.78 254.64 M 45.06 264.63 29 264.63 M 29 274.61 37.87 274.61 M 37.6 284.6 29 284.6 M 29 294.58 37.6 294.58 M 37.6 304.57 29 304.57 M 29 314.55 85.16 314.55 M 85.16 319.84 37.6 319.84 37.6 354.38 38.62 358.19 40.6 361.61 43.39 364.4 46.81 366.38 50.62 367.4 85.16 367.4 85.16 319.84 M 85.16 324.54 94.84 324.54 M 94.84 319.84 94.84 367.4 129.38 367.4 133.19 366.38 136.61 364.4 139.4 361.61 141.38 358.19 142.4 354.38 142.4 319.84 94.84 319.84 M 94.84 314.55 348.08 314.55 M 348.58 324.54 142.4 324.54 M 142.4 334.52 352.71 334.52 M 360.22 344.51 142.4 344.51 M 142.37 354.49 375.8 354.49 M 381.66 373.08 398.34 373.08 413.75 379.46 425.54 391.25 431.92 406.66 431.92 423.34 425.54 438.75 413.75 450.54 398.34 456.92 381.66 456.92 366.25 450.54 354.46 438.75 348.08 423.34 348.08 406.66 354.46 391.25 366.25 379.46 381.66 373.08 M 378.32 374.46 29 374.46 M 29 384.45 361.27 384.45 M 353.14 394.43 29 394.43 M 29 404.42 349.01 404.42 M 348.08 414.4 29 414.4 M 29 424.39 348.51 424.39 M 352.65 434.37 29 434.37 M 29 444.36 360.07 444.36 M 375.44 454.34 29 454.34 M 29 464.33 780 464.33 M 780.17 464.4 762.02 456.88 748.12 442.98 746.39 438.81 725.47 438.81 713.75 450.54 698.34 456.92 681.66 456.92 666.25 450.54 654.46 438.75 648.08 423.34 648.08 406.66 654.46 391.25 666.25 379.46 681.66 373.08 698.34 373.08 713.75 379.46 725.47 391.19 746.39 391.19 748.12 387.02 762.02 373.12 780.17 365.6 799.83 365.6 817.98 373.12 831.88 387.02 839.4 405.17 839.4 424.83 831.88 442.98 817.98 456.88 799.83 464.4 780.17 464.4 M 800 464.33 920.66 464.33 M 930.64 474.32 819.18 474.32 M 829.16 484.3 940.63 484.3 M 950.61 494.29 862.96 494.29 M 872.94 504.27 955.6 504.27 M 955.6 514.26 882.93 514.26 M 892.91 524.24 955.6 524.24 M 955.6 534.23 902.9 534.23 M 912.88 544.21 955.6 544.21 M 955.6 554.2 922.87 554.2 M 932.86 564.18 962.41 564.18 M 975.97 574.17 942.84 574.17 M 952.83 584.15 965.98 584.15 M 855.52 554.2 820.67 554.2 M 830.65 544.21 845.54 544.21 M 759.33 554.2 704.92 554.2 M 720.07 544.21 749.35 544.21 M 740.6 574.17 700.96 574.17 M 698.34 573.08 713.75 579.46 725.54 591.25 731.92 606.66 731.92 623.34 725.54 638.75 713.75 650.54 698.34 656.92 681.66 656.92 666.25 650.54 654.46 638.75 648.08 623.34 648.08 606.66 654.46 591.25 666.25 579.46 681.66 573.08 698.34 573.08 M 679.04 574.17 400.96 574.17 M 398.34 573.08 413.75 579.46 425.54 591.25 431.92 606.66 431.92 623.34 425.54 638.75 413.75 650.54 398.34 656.92 381.66 656.92 366.25 650.54 354.46 638.75 348.08 623.34 348.08 606.66 354.46 591.25 366.25 579.46 381.66 573.08 398.34 573.08 M 398.34 556.92 381.66 556.92 366.25 550.54 354.46 538.75 348.08 523.34 348.08 506.66 354.46 491.25 366.25 479.46 381.66 473.08 398.34 473.08 413.75 479.46 425.54 491.25 431.92 506.66 431.92 523.34 425.54 538.75 413.75 550.54 398.34 556.92 M 404.92 554.2 675.08 554.2 M 659.93 544.21 420.07 544.21 M 427.41 534.23 652.59 534.23 M 648.45 524.24 431.55 524.24 M 431.92 514.26 648.08 514.26 M 649.07 504.27 430.93 504.27 M 426.79 494.29 653.2 494.29 M 661.41 484.3 418.59 484.3 M 401.32 474.32 678.68 474.32 M 675.44 454.34 404.56 454.34 M 419.93 444.36 660.07 444.36 M 652.65 434.37 427.35 434.37 M 431.49 424.39 648.51 424.39 M 648.08 414.4 431.92 414.4 M 430.99 404.42 649.01 404.42 M 653.14 394.43 426.86 394.43 M 418.73 384.45 661.27 384.45 M 678.32 374.46 401.68 374.46 M 404.2 354.49 675.8 354.49 M 660.22 344.51 419.78 344.51 M 427.29 334.52 652.71 334.52 M 648.58 324.54 431.42 324.54 M 431.92 314.55 648.08 314.55 M 648.95 304.57 431.05 304.57 M 426.92 294.58 653.08 294.58 M 704.2 354.49 759.63 354.49 M 749.64 344.51 719.78 344.51 M 701.68 374.46 760.67 374.46 M 750.69 384.45 718.73 384.45 M 719.93 444.36 749.5 444.36 M 759.48 454.34 704.56 454.34 M 701.32 474.32 760.82 474.32 M 750.84 484.3 718.59 484.3 M 820.52 454.34 910.67 454.34 M 900.69 444.36 830.5 444.36 M 835.45 434.37 890.7 434.37 M 880.72 424.39 839.4 424.39 M 839.4 414.4 870.73 414.4 M 860.75 404.42 839.09 404.42 M 834.95 394.43 850.76 394.43 M 841.19 384.45 829.31 384.45 M 819.33 374.46 841.19 374.46 M 841.19 364.48 136.48 364.48 M 94.84 364.48 85.16 364.48 M 85.16 354.49 94.84 354.49 M 94.84 344.51 85.16 344.51 M 85.16 334.52 94.84 334.52 M 142.4 304.57 348.95 304.57 M 353.08 294.58 142.4 294.58 M 142.4 284.6 361.12 284.6 M 377.96 274.61 142.13 274.61 M 134.94 264.63 805.95 264.63 M 835.01 294.58 835.91 294.58 M 839.15 304.57 841.19 304.57 M 841.19 314.55 839.4 314.55 M 839.4 324.54 841.19 324.54 M 841.19 334.52 835.38 334.52 M 830.36 344.51 841.19 344.51 M 841.19 354.49 820.37 354.49 M 740.6 584.15 718.44 584.15 M 726.73 594.14 740.6 594.14 M 740.6 604.12 730.87 604.12 M 731.92 614.11 740.6 614.11 M 740.6 624.09 731.61 624.09 M 727.47 634.08 740.6 634.08 M 740.6 644.06 720.22 644.06 M 705.28 654.05 740.6 654.05 M 747.26 664.03 313.81 664.03 M 313.81 654.05 374.72 654.05 M 359.78 644.06 320.22 644.06 M 327.47 634.08 352.53 634.08 M 348.39 624.09 331.61 624.09 M 331.92 614.11 348.08 614.11 M 349.13 604.12 330.87 604.12 M 326.73 594.14 353.27 594.14 M 361.56 584.15 318.44 584.15 M 300.96 574.17 379.04 574.17 M 375.08 554.2 139.4 554.2 M 139.4 544.21 359.93 544.21 M 352.59 534.23 139.4 534.23 M 139.4 524.24 348.45 524.24 M 348.08 514.26 139.4 514.26 M 139.4 504.27 349.07 504.27 M 353.2 494.29 139.4 494.29 M 139.4 484.3 361.41 484.3 M 378.68 474.32 139.4 474.32 M 40.6 474.32 29 474.32 M 29 484.3 40.6 484.3 M 40.6 494.29 29 494.29 M 29 504.27 40.6 504.27 M 40.6 514.26 29 514.26 M 29 524.24 40.6 524.24 M 40.6 534.23 29 534.23 M 29 544.21 40.6 544.21 M 40.6 554.2 29 554.2 M 29 564.18 47.41 564.18 M 60.97 574.17 29 574.17 M 29 584.15 50.98 584.15 M 45.17 594.14 29 594.14 M 29 604.12 41.03 604.12 M 40.6 614.11 29 614.11 M 29 624.09 40.6 624.09 M 44.43 634.08 29 634.08 M 29 644.06 49.2 644.06 M 59.18 654.05 29 654.05 M 29 823.79 245.91 823.79 M 249.15 833.78 29 833.78 M 29 843.76 255.37 843.76 M 267.1 853.75 29 853.75 M 287.13 853.75 292.87 853.75 M 292.87 843.76 287.13 843.76 M 287.13 833.78 292.87 833.78 M 292.87 823.79 287.13 823.79 M 292.87 813.81 348.08 813.81 M 349.25 803.82 333.6 803.82 M 329.63 793.84 353.39 793.84 M 361.86 783.85 322.38 783.85 M 308.22 773.87 379.75 773.87 M 374.36 753.9 305.64 753.9 M 320.37 743.91 359.63 743.91 M 352.47 733.93 327.53 733.93 M 331.67 723.94 348.33 723.94 M 348.08 713.96 331.92 713.96 M 330.81 703.97 349.19 703.97 M 353.33 693.99 326.67 693.99 M 318.29 684 361.71 684 M 379.39 674.02 313.81 674.02 M 400.6 674.02 679.39 674.02 M 661.71 684 418.29 684 M 426.67 693.99 653.33 693.99 M 649.19 703.97 430.81 703.97 M 431.92 713.96 648.08 713.96 M 648.33 723.94 431.67 723.94 M 427.53 733.93 652.47 733.93 M 659.63 743.91 420.37 743.91 M 348.27 823.79 334.09 823.79 M 330.85 833.78 352.4 833.78 M 359.48 843.76 324.63 843.76 M 312.9 853.75 374 853.75 M 405.28 654.05 674.72 654.05 M 659.78 644.06 420.22 644.06 M 427.47 634.08 652.53 634.08 M 648.39 624.09 431.61 624.09 M 431.92 614.11 648.08 614.11 M 649.13 604.12 430.87 604.12 M 426.73 594.14 653.27 594.14 M 661.56 584.15 418.44 584.15 M 700.6 674.02 1063.99 674.02 M 1063.99 684 718.29 684 M 726.67 693.99 1063.99 693.99 M 1063.99 703.97 730.81 703.97 M 731.92 713.96 1063.99 713.96 M 1063.99 723.94 731.67 723.94 M 727.53 733.93 1063.99 733.93 M 1063.99 743.91 720.37 743.91 M 376.16 254.64 303.84 254.64 M 319.63 244.66 360.37 244.66 M 360.97 184.75 319.03 184.75 M 302.4 174.76 377.6 174.76 M 277.6 174.76 119.63 174.76 M 129.61 184.75 260.97 184.75 M 260.37 244.66 130.21 244.66 M 120.22 254.64 276.16 254.64 M 37.6 324.54 29 324.54 M 29 334.52 37.6 334.52 M 37.6 344.51 29 344.51 M 29 354.49 37.63 354.49 M 43.52 364.48 29 364.48 M 29 34.97 1063.99 34.97" fill="none" stroke-width="10"/><path d="M 865 290 790 215 690 215 M 690 315 790 315 M 865 290 865 375 1005 515 M 1005 615 950 615 850 515 790 515 690 515 M 690 415 790 415 M 490 115 490 90 M 490 115 390 215 290 215 90 215 M 290 615 290 715" fill="none" stroke-width="23.62"/></g><g id="FIMco3PKVH7JVr6UC964_top_soldermask"><use xlink:href="#OvBcP3Wbfkper1HKWOBm_pad-10" x="690" y="215"/><use xlink:href="#OvBcP3Wbfkper1HKWOBm_pad-11" x="690" y="315"/><use xlink:href="#OvBcP3Wbfkper1HKWOBm_pad-11" x="690" y="415"/><use xlink:href="#OvBcP3Wbfkper1HKWOBm_pad-11" x="690" y="515"/><use xlink:href="#OvBcP3Wbfkper1HKWOBm_pad-11" x="690" y="615"/><use xlink:href="#OvBcP3Wbfkper1HKWOBm_pad-11" x="690" y="715"/><use xlink:href="#OvBcP3Wbfkper1HKWOBm_pad-11" x="690" y="815"/><use xlink:href="#OvBcP3Wbfkper1HKWOBm_pad-11" x="390" y="815"/><use xlink:href="#OvBcP3Wbfkper1HKWOBm_pad-11" x="290" y="815"/><use xlink:href="#OvBcP3Wbfkper1HKWOBm_pad-11" x="290" y="715"/><use xlink:href="#OvBcP3Wbfkper1HKWOBm_pad-11" x="390" y="715"/><use xlink:href="#OvBcP3Wbfkper1HKWOBm_pad-11" x="390" y="615"/><use xlink:href="#OvBcP3Wbfkper1HKWOBm_pad-11" x="290" y="615"/><use xlink:href="#OvBcP3Wbfkper1HKWOBm_pad-11" x="390" y="515"/><use xlink:href="#OvBcP3Wbfkper1HKWOBm_pad-11" x="390" y="415"/><use xlink:href="#OvBcP3Wbfkper1HKWOBm_pad-11" x="390" y="315"/><use xlink:href="#OvBcP3Wbfkper1HKWOBm_pad-11" x="390" y="215"/><use xlink:href="#OvBcP3Wbfkper1HKWOBm_pad-11" x="290" y="215"/><use xlink:href="#OvBcP3Wbfkper1HKWOBm_pad-11" x="490" y="90"/><use xlink:href="#OvBcP3Wbfkper1HKWOBm_pad-11" x="590" y="90"/><use xlink:href="#OvBcP3Wbfkper1HKWOBm_pad-12" x="790" y="115"/><use xlink:href="#OvBcP3Wbfkper1HKWOBm_pad-12" x="1005" y="515"/><use xlink:href="#OvBcP3Wbfkper1HKWOBm_pad-12" x="790" y="615"/><use xlink:href="#OvBcP3Wbfkper1HKWOBm_pad-12" x="90" y="515"/><use xlink:href="#OvBcP3Wbfkper1HKWOBm_pad-12" x="90" y="315"/><use xlink:href="#OvBcP3Wbfkper1HKWOBm_pad-13" x="90" y="215"/><use xlink:href="#OvBcP3Wbfkper1HKWOBm_pad-13" x="90" y="615"/><use xlink:href="#OvBcP3Wbfkper1HKWOBm_pad-13" x="790" y="515"/><use xlink:href="#OvBcP3Wbfkper1HKWOBm_pad-13" x="790" y="415"/><use xlink:href="#OvBcP3Wbfkper1HKWOBm_pad-13" x="790" y="315"/><use xlink:href="#OvBcP3Wbfkper1HKWOBm_pad-13" x="790" y="215"/><use xlink:href="#OvBcP3Wbfkper1HKWOBm_pad-13" x="1005" y="615"/></g><g id="FIMco3PKVH7JVr6UC964_top_silkscreen"><path d="M 30 30 30 120 240 120 240 30 30 30 M 54 61.01 61.01 54 75.02 54 82.02 61.01 82.02 89.03 75.02 96.04 61.01 96.04 54 89.03 54 61.01 M 100.04 54 121.06 54 128.06 61.01 128.06 68.01 121.06 75.02 100.04 75.02 M 100.04 96.04 121.06 96.04 128.06 89.03 128.06 82.02 121.06 75.02 M 100.04 54 100.04 96.04 M 146.08 96.04 167.1 96.04 174.1 89.03 174.1 61.01 167.1 54 146.08 54 146.08 96.04 M 192.12 82.02 206.13 96.04 206.13 54 M 192.12 54 220.14 54 M 115 165 65 165 40 190 40 240 65 265 40 265 40 365 140 365 140 265 115 265 140 240 140 190 115 165 M 163.96 226.92 184.98 226.92 177.98 240.93 177.98 247.94 184.98 254.95 198.99 254.95 206 247.94 206 233.93 198.99 226.92 M 163.96 226.92 163.96 254.95 M 163.96 272.96 191.99 272.96 206 286.97 191.99 300.98 163.96 300.98 M 115 265 65 265 M 90 415 65 430 90 445 M 110 430 65 430 M 40 465 140 465 140 565 115 565 140 590 140 640 115 665 65 665 40 640 40 590 65 565 40 565 40 465 M 65 565 115 565 M 159 536.04 180.02 536.04 187.02 529.03 187.02 515.02 180.02 508.01 159 508.01 M 173.01 508.01 187.02 494 M 205.04 494 233.06 536.04 M 245 525 245 510 250 505 250 325 245 320 245 305 245.02 304.4 245.07 303.79 245.16 303.2 245.29 302.61 245.45 302.02 245.65 301.45 245.88 300.9 246.15 300.35 246.44 299.83 246.77 299.32 247.13 298.83 247.51 298.37 247.93 297.93 248.37 297.51 248.83 297.13 249.32 296.77 249.83 296.44 250.35 296.15 250.9 295.88 251.45 295.65 252.02 295.45 252.61 295.29 253.2 295.16 253.79 295.07 254.4 295.02 255 295 290 295 290 260 M 290 295 325 295 325.6 295.02 326.21 295.07 326.8 295.16 327.39 295.29 327.98 295.45 328.55 295.65 329.1 295.88 329.65 296.15 330.17 296.44 330.68 296.77 331.17 297.13 331.63 297.51 332.07 297.93 332.49 298.37 332.87 298.83 333.23 299.32 333.56 299.83 333.85 300.35 334.12 300.9 334.35 301.45 334.55 302.02 334.71 302.61 334.84 303.2 334.93 303.79 334.98 304.4 335 305 335 320 330 325 330 505 335 510 335 525 334.98 525.6 334.93 526.21 334.84 526.8 334.71 527.39 334.55 527.98 334.35 528.55 334.12 529.1 333.85 529.65 333.56 530.17 333.23 530.68 332.87 531.17 332.49 531.63 332.07 532.07 331.63 532.49 331.17 532.87 330.68 533.23 330.17 533.56 329.65 533.85 329.1 534.12 328.55 534.35 327.98 534.55 327.39 534.71 326.8 534.84 326.21 534.93 325.6 534.98 325 535 290 535 290 570 M 290 535 255 535 254.4 534.98 253.79 534.93 253.2 534.84 252.61 534.71 252.02 534.55 251.45 534.35 250.9 534.12 250.35 533.85 249.83 533.56 249.32 533.23 248.83 532.87 248.37 532.49 247.93 532.07 247.51 531.63 247.13 531.17 246.77 530.68 246.44 530.17 246.15 529.65 245.88 529.1 245.65 528.55 245.45 527.98 245.29 527.39 245.16 526.8 245.07 526.21 245.02 525.6 245 525 M 233.06 494 205.04 536.04 M 159 536.04 159 494 M 173.01 594 173.01 636.04 M 159 636.04 187.02 636.04 M 205.04 636.04 233.06 594 M 205.04 594 233.06 636.04 M 265 665 315 665 315.87 665.02 316.74 665.08 317.61 665.17 318.47 665.3 319.33 665.47 320.18 665.68 321.01 665.93 321.84 666.21 322.65 666.52 323.45 666.87 324.23 667.26 325 667.68 325.75 668.13 326.47 668.62 327.18 669.13 327.86 669.68 328.51 670.25 329.14 670.86 329.75 671.49 330.32 672.14 330.87 672.82 331.38 673.53 331.87 674.25 332.32 675 332.74 675.77 333.13 676.55 333.48 677.35 333.79 678.16 334.07 678.99 334.32 679.82 334.53 680.67 334.7 681.53 334.83 682.39 334.92 683.26 334.98 684.13 335 685 335 845 334.98 845.87 334.92 846.74 334.83 847.61 334.7 848.47 334.53 849.33 334.32 850.18 334.07 851.01 333.79 851.84 333.48 852.65 333.13 853.45 332.74 854.23 332.32 855 331.87 855.75 331.38 856.47 330.87 857.18 330.32 857.86 329.75 858.51 329.14 859.14 328.51 859.75 327.86 860.32 327.18 860.87 326.47 861.38 325.75 861.87 325 862.32 324.23 862.74 323.45 863.13 322.65 863.48 321.84 863.79 321.01 864.07 320.18 864.32 319.33 864.53 318.47 864.7 317.61 864.83 316.74 864.92 315.87 864.98 315 865 265 865 264.13 864.98 263.26 864.92 262.39 864.83 261.53 864.7 260.67 864.53 259.82 864.32 258.99 864.07 258.16 863.79 257.35 863.48 256.55 863.13 255.77 862.74 255 862.32 254.25 861.87 253.53 861.38 252.82 860.87 252.14 860.32 251.49 859.75 250.86 859.14 250.25 858.51 249.68 857.86 249.13 857.18 248.62 856.47 248.13 855.75 247.68 855 247.26 854.23 246.87 853.45 246.52 852.65 246.21 851.84 245.93 851.01 245.68 850.18 245.47 849.33 245.3 848.47 245.17 847.61 245.08 846.74 245.02 845.87 245 845 245 685 245.02 684.13 245.08 683.26 245.17 682.39 245.3 681.53 245.47 680.67 245.68 679.82 245.93 678.99 246.21 678.16 246.52 677.35 246.87 676.55 247.26 675.77 247.68 675 248.13 674.25 248.62 673.53 249.13 672.82 249.68 672.14 250.25 671.49 250.86 670.86 251.49 670.25 252.14 669.68 252.82 669.13 253.53 668.62 254.25 668.13 255 667.68 255.77 667.26 256.55 666.87 257.35 666.52 258.16 666.21 258.99 665.93 259.82 665.68 260.67 665.47 261.53 665.3 262.39 665.17 263.26 665.08 264.13 665.02 265 665 M 290 755 290 758 270 758 M 270 772 290 772 290 775 M 290 772 310 772 M 310 758 290 758 M 450 865 450 165 500 165 M 460 135 620 135 620.87 134.98 621.74 134.92 622.61 134.83 623.47 134.7 624.33 134.53 625.18 134.32 626.01 134.07 626.84 133.79 627.65 133.48 628.45 133.13 629.23 132.74 630 132.32 630.75 131.87 631.47 131.38 632.18 130.87 632.86 130.32 633.51 129.75 634.14 129.14 634.75 128.51 635.32 127.86 635.87 127.18 636.38 126.47 636.87 125.75 637.32 125 637.74 124.23 638.13 123.45 638.48 122.65 638.79 121.84 639.07 121.01 639.32 120.18 639.53 119.33 639.7 118.47 639.83 117.61 639.92 116.74 639.98 115.87 640 115 640 65 639.98 64.13 639.92 63.26 639.83 62.39 639.7 61.53 639.53 60.67 639.32 59.82 639.07 58.99 638.79 58.16 638.48 57.35 638.13 56.55 637.74 55.77 637.32 55 636.87 54.25 636.38 53.53 635.87 52.82 635.32 52.14 634.75 51.49 634.14 50.86 633.51 50.25 632.86 49.68 632.18 49.13 631.47 48.62 630.75 48.13 630 47.68 629.23 47.26 628.45 46.87 627.65 46.52 626.84 46.21 626.01 45.93 625.18 45.68 624.33 45.47 623.47 45.3 622.61 45.17 621.74 45.08 620.87 45.02 620 45 460 45 459.13 45.02 458.26 45.08 457.39 45.17 456.53 45.3 455.67 45.47 454.82 45.68 453.99 45.93 453.16 46.21 452.35 46.52 451.55 46.87 450.77 47.26 450 47.68 449.25 48.13 448.53 48.62 447.82 49.13 447.14 49.68 446.49 50.25 445.86 50.86 445.25 51.49 444.68 52.14 444.13 52.82 443.62 53.53 443.13 54.25 442.68 55 442.26 55.77 441.87 56.55 441.52 57.35 441.21 58.16 440.93 58.99 440.68 59.82 440.47 60.67 440.3 61.53 440.17 62.39 440.08 63.26 440.02 64.13 440 65 440 115 440.02 115.87 440.08 116.74 440.17 117.61 440.3 118.47 440.47 119.33 440.68 120.18 440.93 121.01 441.21 121.84 441.52 122.65 441.87 123.45 442.26 124.23 442.68 125 443.13 125.75 443.62 126.47 444.13 127.18 444.68 127.86 445.25 128.51 445.86 129.14 446.49 129.75 447.14 130.32 447.82 130.87 448.53 131.38 449.25 131.87 450 132.32 450.77 132.74 451.55 133.13 452.35 133.48 453.16 133.79 453.99 134.07 454.82 134.32 455.67 134.53 456.53 134.7 457.39 134.83 458.26 134.92 459.13 134.98 460 135 M 533 110 533 90 530 90 M 533 90 533 70 M 547 70 547 90 550 90 M 547 90 547 110 M 580 165 579.98 166.26 579.92 167.51 579.82 168.76 579.68 170.01 579.51 171.26 579.29 172.5 579.04 173.73 578.74 174.95 578.41 176.16 578.04 177.36 577.64 178.55 577.19 179.72 576.71 180.89 576.19 182.03 575.64 183.16 575.05 184.27 574.43 185.36 573.77 186.43 573.08 187.48 572.36 188.51 571.61 189.52 570.82 190.5 570 191.45 569.16 192.38 568.28 193.28 567.38 194.16 566.45 195 565.5 195.82 564.52 196.61 563.51 197.36 562.48 198.08 561.43 198.77 560.36 199.43 559.27 200.05 558.16 200.64 557.03 201.19 555.89 201.71 554.72 202.19 553.55 202.64 552.36 203.04 551.16 203.41 549.95 203.74 548.73 204.04 547.5 204.29 546.26 204.51 545.01 204.68 543.76 204.82 542.51 204.92 541.26 204.98 540 205 538.74 204.98 537.49 204.92 536.24 204.82 534.99 204.68 533.74 204.51 532.5 204.29 531.27 204.04 530.05 203.74 528.84 203.41 527.64 203.04 526.45 202.64 525.28 202.19 524.11 201.71 522.97 201.19 521.84 200.64 520.73 200.05 519.64 199.43 518.57 198.77 517.52 198.08 516.49 197.36 515.48 196.61 514.5 195.82 513.55 195 512.62 194.16 511.72 193.28 510.84 192.38 510 191.45 509.18 190.5 508.39 189.52 507.64 188.51 506.92 187.48 506.23 186.43 505.57 185.36 504.95 184.27 504.36 183.16 503.81 182.03 503.29 180.89 502.81 179.72 502.36 178.55 501.96 177.36 501.59 176.16 501.26 174.95 500.96 173.73 500.71 172.5 500.49 171.26 500.32 170.01 500.18 168.76 500.08 167.51 500.02 166.26 500 165 M 580 165 630 165 630 865 450 865 M 518.96 668.26 561 668.26 518.96 640.24 561 640.24 M 539.98 622.22 539.98 594.2 518.96 615.21 561 615.21 M 553.99 576.18 525.97 576.18 553.99 548.16 561 555.16 561 569.17 553.99 576.18 M 525.97 576.18 518.96 569.17 518.96 555.16 525.97 548.16 553.99 548.16 M 553.99 530.14 561 523.14 561 509.12 553.99 502.12 M 539.98 509.12 539.98 523.14 546.99 530.14 553.99 530.14 M 539.98 509.12 532.98 502.12 525.97 502.12 518.96 509.12 518.96 523.14 525.97 530.14 M 561 484.1 561 456.08 518.96 456.08 M 518.96 431.06 539.98 410.04 539.98 438.06 M 561 431.06 518.96 431.06 M 518.96 392.02 525.97 392.02 553.99 364 561 364 M 518.96 364 518.96 392.02 M 580.86 220 580.88 220.75 580.94 221.49 581.04 222.23 581.17 222.96 581.35 223.69 581.56 224.4 581.81 225.11 582.1 225.8 582.43 226.47 582.79 227.12 583.18 227.76 583.6 228.37 584.06 228.96 584.55 229.53 585.07 230.06 585.61 230.57 586.18 231.06 586.78 231.5 587.4 231.92 588.04 232.31 588.7 232.66 589.37 232.97 590.07 233.25 590.77 233.49 591.49 233.7 592.22 233.86 592.95 233.99 593.7 234.08 594.44 234.13 595.19 234.14 595.93 234.11 596.68 234.04 597.41 233.93 598.15 233.79 598.87 233.6 599.58 233.38 600.28 233.12 600.97 232.82 601.63 232.49 602.28 232.12 602.91 231.72 603.52 231.28 604.1 230.82 604.66 230.32 605.19 229.8 605.7 229.25 606.17 228.67 606.61 228.07 607.02 227.44 607.4 226.8 607.74 226.14 608.05 225.45 608.32 224.76 608.55 224.05 608.74 223.33 608.9 222.6 609.02 221.86 609.1 221.12 609.14 220.37 609.14 219.63 609.1 218.88 609.02 218.14 608.9 217.4 608.74 216.67 608.55 215.95 608.32 215.24 608.05 214.55 607.74 213.86 607.4 213.2 607.02 212.56 606.61 211.93 606.17 211.33 605.7 210.75 605.19 210.2 604.66 209.68 604.1 209.18 603.52 208.72 602.91 208.28 602.28 207.88 601.63 207.51 600.97 207.18 600.28 206.88 599.58 206.62 598.87 206.4 598.15 206.21 597.41 206.07 596.68 205.96 595.93 205.89 595.19 205.86 594.44 205.87 593.7 205.92 592.95 206.01 592.22 206.14 591.49 206.3 590.77 206.51 590.07 206.75 589.37 207.03 588.7 207.34 588.04 207.69 587.4 208.08 586.78 208.5 586.18 208.94 585.61 209.43 585.07 209.94 584.55 210.47 584.06 211.04 583.6 211.63 583.18 212.24 582.79 212.88 582.43 213.53 582.1 214.2 581.81 214.89 581.56 215.6 581.35 216.31 581.17 217.04 581.04 217.77 580.94 218.51 580.88 219.25 580.86 220 M 740 240 740 190 765 165 740 165 740 65 840 65 840 165 815 165 840 190 840 240 815 265 840 290 840 340 815 365 765 365 740 390 740 440 765 465 815 465 840 440 840 390 815 365 765 365 740 340 740 290 765 265 815 265 M 765 265 740 240 M 765 165 815 165 M 980 430 1005 415 M 980 430 1005 445 M 1030 430 980 430 M 955 465 1055 465 1055 565 1030 565 1055 590 1055 640 1030 665 980 665 955 640 955 590 980 565 955 565 955 465 M 938.06 494 910.04 536.04 M 892.02 529.03 892.02 515.02 885.02 508.01 864 508.01 M 878.01 508.01 892.02 494 M 910.04 494 938.06 536.04 M 892.02 529.03 885.02 536.04 864 536.04 864 494 M 840 490 815 465 M 840 490 840 540 815 565 840 565 840 665 740 665 740 565 765 565 740 540 740 490 765 465 M 765 565 815 565 M 878.01 594 878.01 636.04 M 864 636.04 892.02 636.04 M 910.04 636.04 938.06 594 M 910.04 594 938.06 636.04 M 1005 685 1030 700 1005 715 M 980 700 1030 700 M 1065 815 1065 905 855 905 855 815 1065 815 M 1045.14 839 1017.12 839 1045.14 867.02 1045.14 874.03 1038.14 881.04 1024.12 881.04 1017.12 874.03 M 999.1 874.03 992.1 881.04 971.08 881.04 971.08 839 992.1 839 999.1 846.01 999.1 874.03 M 953.06 874.03 953.06 867.02 946.06 860.02 925.04 860.02 M 925.04 839 925.04 881.04 946.06 881.04 953.06 874.03 M 946.06 860.02 953.06 853.01 953.06 846.01 946.06 839 925.04 839 M 907.02 846.01 900.02 839 886.01 839 879 846.01 879 874.03 886.01 881.04 900.02 881.04 907.02 874.03 907.02 846.01 M 980 565 1030 565 M 115 700 95 685 M 115 700 70 700 M 95 715 115 700" fill="none" stroke-width="8"/><path d="M 185 365 185 325 M 185 205 185 165 M 165 185 205 185" fill="none" stroke-width="10"/></g><g id="FIMco3PKVH7JVr6UC964_top_drill1"><use xlink:href="#z3_PtIiXIfpcpr57REKo_pad-1" x="290" y="215"/><use xlink:href="#z3_PtIiXIfpcpr57REKo_pad-1" x="390" y="215"/><use xlink:href="#z3_PtIiXIfpcpr57REKo_pad-1" x="390" y="315"/><use xlink:href="#z3_PtIiXIfpcpr57REKo_pad-1" x="390" y="415"/><use xlink:href="#z3_PtIiXIfpcpr57REKo_pad-1" x="390" y="515"/><use xlink:href="#z3_PtIiXIfpcpr57REKo_pad-1" x="390" y="615"/><use xlink:href="#z3_PtIiXIfpcpr57REKo_pad-1" x="290" y="615"/><use xlink:href="#z3_PtIiXIfpcpr57REKo_pad-1" x="290" y="715"/><use xlink:href="#z3_PtIiXIfpcpr57REKo_pad-1" x="390" y="715"/><use xlink:href="#z3_PtIiXIfpcpr57REKo_pad-1" x="390" y="815"/><use xlink:href="#z3_PtIiXIfpcpr57REKo_pad-1" x="290" y="815"/><use xlink:href="#z3_PtIiXIfpcpr57REKo_pad-1" x="690" y="815"/><use xlink:href="#z3_PtIiXIfpcpr57REKo_pad-1" x="690" y="715"/><use xlink:href="#z3_PtIiXIfpcpr57REKo_pad-1" x="690" y="615"/><use xlink:href="#z3_PtIiXIfpcpr57REKo_pad-1" x="690" y="515"/><use xlink:href="#z3_PtIiXIfpcpr57REKo_pad-1" x="690" y="415"/><use xlink:href="#z3_PtIiXIfpcpr57REKo_pad-1" x="690" y="315"/><use xlink:href="#z3_PtIiXIfpcpr57REKo_pad-1" x="690" y="215"/><use xlink:href="#z3_PtIiXIfpcpr57REKo_pad-1" x="590" y="90"/><use xlink:href="#z3_PtIiXIfpcpr57REKo_pad-1" x="490" y="90"/><use xlink:href="#z3_PtIiXIfpcpr57REKo_pad-2" x="90" y="215"/><use xlink:href="#z3_PtIiXIfpcpr57REKo_pad-2" x="90" y="315"/><use xlink:href="#z3_PtIiXIfpcpr57REKo_pad-2" x="90" y="515"/><use xlink:href="#z3_PtIiXIfpcpr57REKo_pad-2" x="90" y="615"/><use xlink:href="#z3_PtIiXIfpcpr57REKo_pad-2" x="790" y="615"/><use xlink:href="#z3_PtIiXIfpcpr57REKo_pad-2" x="790" y="515"/><use xlink:href="#z3_PtIiXIfpcpr57REKo_pad-2" x="790" y="415"/><use xlink:href="#z3_PtIiXIfpcpr57REKo_pad-2" x="790" y="315"/><use xlink:href="#z3_PtIiXIfpcpr57REKo_pad-2" x="790" y="215"/><use xlink:href="#z3_PtIiXIfpcpr57REKo_pad-2" x="790" y="115"/><use xlink:href="#z3_PtIiXIfpcpr57REKo_pad-2" x="1005" y="515"/><use xlink:href="#z3_PtIiXIfpcpr57REKo_pad-2" x="1005" y="615"/></g><clipPath id="FIMco3PKVH7JVr6UC964_top_outline"><path d="M 15 15 15 920.51 1077.99 920.51 1077.99 15 15 15" fill="none" stroke-width="0"/></clipPath><mask id="FIMco3PKVH7JVr6UC964_top_mech-mask"><g fill="#000" stroke="#000"><rect x="15" y="15" width="1062.99" height="905.51" fill="#fff"/><use xlink:href="#FIMco3PKVH7JVr6UC964_top_drill1"/></g></mask><mask id="FIMco3PKVH7JVr6UC964_top_cf-mask"><g fill="#fff" stroke="#fff"><use xlink:href="#FIMco3PKVH7JVr6UC964_top_soldermask"/></g></mask><mask id="FIMco3PKVH7JVr6UC964_top_sm-mask"><g fill="#000" stroke="#000"><rect x="15" y="15" width="1062.99" height="905.51" fill="#fff"/><use xlink:href="#FIMco3PKVH7JVr6UC964_top_soldermask"/></g></mask></defs><g transform="translate(0,935.51) scale(1,-1)"><g mask="url(#FIMco3PKVH7JVr6UC964_top_mech-mask)" clip-path="url(#FIMco3PKVH7JVr6UC964_top_outline)"><rect x="15" y="15" width="1062.99" height="905.51" fill="currentColor" class="FIMco3PKVH7JVr6UC964_fr4"/><use xlink:href="#FIMco3PKVH7JVr6UC964_top_copper" fill="currentColor" stroke="currentColor" class="FIMco3PKVH7JVr6UC964_cu"/><use xlink:href="#FIMco3PKVH7JVr6UC964_top_copper" fill="currentColor" stroke="currentColor" class="FIMco3PKVH7JVr6UC964_cf" mask="url(#FIMco3PKVH7JVr6UC964_top_cf-mask)"/><g mask="url(#FIMco3PKVH7JVr6UC964_top_sm-mask)"><rect x="15" y="15" width="1062.99" height="905.51" fill="currentColor" class="FIMco3PKVH7JVr6UC964_sm"/><use xlink:href="#FIMco3PKVH7JVr6UC964_top_silkscreen" fill="currentColor" stroke="currentColor" class="FIMco3PKVH7JVr6UC964_ss"/></g></g></g></svg>